<svg id="_1" data-name="1" xmlns="http://www.w3.org/2000/svg" width="82.273" height="81.99" viewBox="0 0 82.273 81.99">
  <ellipse id="Elipse_79" data-name="Elipse 79" cx="38.953" cy="38.819" rx="38.953" ry="38.819" transform="translate(2.183 2.176)" fill="#1e789a"/>
  <path id="Caminho_7692" data-name="Caminho 7692" d="M41.137,81.99A41,41,0,1,1,82.273,40.995,41.066,41.066,0,0,1,41.137,81.99Zm0-81.074A40.079,40.079,0,1,0,81.354,40.995,40.148,40.148,0,0,0,41.137.916Z" fill="#284666"/>
  <path id="Caminho_7693" data-name="Caminho 7693" d="M44.374,80.891a36.644,36.644,0,1,1,36.77-36.644,36.707,36.707,0,0,1-36.77,36.644Zm0-72.829a36.186,36.186,0,1,0,36.31,36.185A36.248,36.248,0,0,0,44.374,8.063Z" transform="translate(-3.238 -3.253)" fill="#fff"/>
  <path id="Caminho_31928" data-name="Caminho 31928" d="M15.531-32.3C15.035-39.308,10.819-46.19.589-46.19c-11.842,0-16.74,7.5-16.74,23.56C-16.151-9.486-12.8.31.961.31,10.819.31,16.709-5.7,16.709-14.88c0-9.486-5.518-14.384-13.268-14.384-3.844,0-7.13,1.612-8.8,4.154.062-7.378,1.24-11.284,5.27-11.284,2.666,0,3.782,1.426,4.34,4.092ZM.465-19.84c3.038,0,4.836,1.86,4.836,4.9,0,3.224-1.86,4.9-4.774,4.9-3.162,0-5.022-1.736-5.022-5.022C-4.495-18.228-2.325-19.84.465-19.84Z" transform="translate(41 65)" fill="#fff"/>
</svg>
