<svg id="_1" data-name="1" xmlns="http://www.w3.org/2000/svg" width="82.273" height="81.99" viewBox="0 0 82.273 81.99">
  <ellipse id="Elipse_79" data-name="Elipse 79" cx="38.953" cy="38.819" rx="38.953" ry="38.819" transform="translate(2.183 2.176)" fill="#9b1010"/>
  <path id="Caminho_7692" data-name="Caminho 7692" d="M41.137,81.99A41,41,0,1,1,82.273,40.995,41.066,41.066,0,0,1,41.137,81.99Zm0-81.074A40.079,40.079,0,1,0,81.354,40.995,40.148,40.148,0,0,0,41.137.916Z" fill="#284666"/>
  <path id="Caminho_7693" data-name="Caminho 7693" d="M44.374,80.891a36.644,36.644,0,1,1,36.77-36.644,36.707,36.707,0,0,1-36.77,36.644Zm0-72.829a36.186,36.186,0,1,0,36.31,36.185A36.248,36.248,0,0,0,44.374,8.063Z" transform="translate(-3.238 -3.253)" fill="#fff"/>
  <path id="Caminho_31926" data-name="Caminho 31926" d="M-14.539-45.322v27.4H-2.7c.248-1.55,1.55-2.914,3.906-2.914,2.914,0,4.588,1.674,4.588,4.96,0,3.162-1.364,5.456-4.4,5.456-2.976,0-4.154-1.86-4.34-3.534H-14.787C-14.725-5.828-8.649,0,1.891,0c9.92,0,15.686-5.952,15.686-15.686,0-7.564-3.968-14.756-13.33-14.756-3.348,0-6.2,1.116-7.75,2.728V-34.6H15.1V-45.322Z" transform="translate(41 65)" fill="#fff"/>
</svg>
