<svg xmlns="http://www.w3.org/2000/svg" viewBox="0 0 309.33 152.31"><defs><style>.cls-1{fill:#2a674e;}.cls-1,.cls-2{isolation:isolate;}.cls-2,.cls-3{fill:#fff;}</style></defs><g id="_1" data-name="1"><rect class="cls-1" width="309.33" height="152.31" rx="36"/><path class="cls-2" d="M271.64,142.89h-234A28.3,28.3,0,0,1,9.42,114.62V37.68A28.3,28.3,0,0,1,37.68,9.42h234a28.3,28.3,0,0,1,28.27,28.26v76.94A28.3,28.3,0,0,1,271.64,142.89ZM37.68,11.51A26.2,26.2,0,0,0,11.51,37.68v76.94a26.2,26.2,0,0,0,26.17,26.17h234a26.2,26.2,0,0,0,26.17-26.17V37.68a26.2,26.2,0,0,0-26.17-26.17Z"/><path class="cls-3" d="M51.72,40.77a6.83,6.83,0,0,1,7,5.15H54.76A3.25,3.25,0,0,0,51.68,44c-2.2,0-3.7,1.63-3.7,4.23s1.5,4.23,3.7,4.23a3.24,3.24,0,0,0,3.08-1.89H58.7a6.82,6.82,0,0,1-7,5.13,7.13,7.13,0,0,1-7.39-7.47A7.14,7.14,0,0,1,51.72,40.77Z"/><path class="cls-3" d="M72.43,55.64H68.85V54.05a4.27,4.27,0,0,1-3.54,1.71c-2.7,0-4.52-1.86-4.52-5V44h3.56V50.3a2.26,2.26,0,1,0,4.5,0V44h3.58Z"/><path class="cls-3" d="M74.67,40.82a2.14,2.14,0,1,1,2.13,1.92A2,2,0,0,1,74.67,40.82ZM75,44h3.58V55.64H75Z"/><path class="cls-3" d="M85.62,43.79a4.28,4.28,0,0,1,3.6,1.78V40.15H92.8V55.64H89.22V54a4,4,0,0,1-3.6,1.84c-2.87,0-5.15-2.34-5.15-6S82.75,43.79,85.62,43.79Zm1,3.12a2.6,2.6,0,0,0-2.56,2.87,2.64,2.64,0,0,0,2.56,2.91,2.61,2.61,0,0,0,2.55-2.89A2.6,2.6,0,0,0,86.67,46.91Z"/><path class="cls-3" d="M99.83,43.79a4,4,0,0,1,3.6,1.82V44H107V55.64h-3.58V54a4.1,4.1,0,0,1-3.62,1.82c-2.85,0-5.13-2.34-5.13-6S97,43.79,99.83,43.79Zm1,3.12a2.6,2.6,0,0,0-2.55,2.87,2.64,2.64,0,0,0,2.55,2.91,2.61,2.61,0,0,0,2.55-2.89A2.6,2.6,0,0,0,100.88,46.91Z"/><path class="cls-3" d="M114.05,43.79a4.28,4.28,0,0,1,3.6,1.78V40.15h3.58V55.64h-3.58V54a4,4,0,0,1-3.6,1.84c-2.87,0-5.15-2.34-5.15-6S111.18,43.79,114.05,43.79Zm1,3.12a2.6,2.6,0,0,0-2.55,2.87,2.64,2.64,0,0,0,2.55,2.91,2.61,2.61,0,0,0,2.56-2.89A2.6,2.6,0,0,0,115.09,46.91Z"/><path class="cls-3" d="M129.14,55.8a5.73,5.73,0,0,1-6-6,6.07,6.07,0,1,1,6,6Zm0-3.09c1.28,0,2.47-1,2.47-2.91s-1.17-2.91-2.43-2.91-2.43.92-2.43,2.91S127.84,52.71,129.14,52.71Z"/><path class="cls-3" d="M146.75,43.79a5.35,5.35,0,0,1,5.61,4.39h-3.81a1.85,1.85,0,0,0-1.86-1.34c-1.28,0-2.16,1-2.16,3s.88,3,2.16,3a1.81,1.81,0,0,0,1.86-1.34h3.81a5.42,5.42,0,0,1-5.61,4.39,5.6,5.6,0,0,1-5.86-6A5.61,5.61,0,0,1,146.75,43.79Z"/><path class="cls-3" d="M159.46,55.8a5.63,5.63,0,0,1-5.91-6,5.61,5.61,0,0,1,5.91-6,5.51,5.51,0,0,1,5.82,5.82,7.47,7.47,0,0,1-.07,1h-8.1a2.17,2.17,0,0,0,2.22,2.24,1.89,1.89,0,0,0,1.86-1.13H165A5.44,5.44,0,0,1,159.46,55.8Zm-2.33-7.13h4.48a2,2,0,0,0-2.19-2A2.22,2.22,0,0,0,157.13,48.67Z"/><path class="cls-3" d="M175.22,49.29a2.25,2.25,0,1,0-4.48,0v6.35h-3.58V44h3.58V45.5a4.29,4.29,0,0,1,3.54-1.67c2.7,0,4.5,1.84,4.5,5v6.83h-3.56Z"/><path class="cls-3" d="M181.84,46.93h-1.43V44h1.43V41.11h3.58V44h2.34v3h-2.34v4.69c0,.69.29,1,1.08,1h1.28v3H186c-2.43,0-4.12-1-4.12-4.06Z"/><path class="cls-3" d="M193.35,55.64h-3.58V44h3.58V45.9A4.38,4.38,0,0,1,197,43.83v3.79h-1c-1.69,0-2.68.58-2.68,2.59Z"/><path class="cls-3" d="M203.17,43.79a4.05,4.05,0,0,1,3.6,1.82V44h3.58V55.64h-3.58V54a4.12,4.12,0,0,1-3.62,1.82c-2.85,0-5.13-2.34-5.13-6S200.3,43.79,203.17,43.79Zm1.05,3.12a2.6,2.6,0,0,0-2.56,2.87,2.64,2.64,0,0,0,2.56,2.91,2.61,2.61,0,0,0,2.55-2.89A2.6,2.6,0,0,0,204.22,46.91Z"/><path class="cls-3" d="M217.38,43.79A4.31,4.31,0,0,1,221,45.57V40.15h3.58V55.64H221V54a4,4,0,0,1-3.61,1.84c-2.86,0-5.15-2.34-5.15-6S214.52,43.79,217.38,43.79Zm1.05,3.12a2.6,2.6,0,0,0-2.55,2.87,2.58,2.58,0,1,0,5.11,0A2.61,2.61,0,0,0,218.43,46.91Z"/><path class="cls-3" d="M232.48,55.8a5.73,5.73,0,0,1-6-6,6.07,6.07,0,1,1,6,6Zm0-3.09c1.28,0,2.47-1,2.47-2.91s-1.17-2.91-2.43-2.91-2.43.92-2.43,2.91S231.18,52.71,232.48,52.71Z"/><path class="cls-3" d="M253,49.29a2.25,2.25,0,1,0-4.48,0v6.35h-3.58V44h3.58V45.5a4.27,4.27,0,0,1,3.53-1.67c2.7,0,4.5,1.84,4.5,5v6.83H253Z"/><path class="cls-3" d="M263.48,43.79a4.07,4.07,0,0,1,3.61,1.82V44h3.58V55.64h-3.58V54a4.13,4.13,0,0,1-3.63,1.82c-2.84,0-5.13-2.34-5.13-6S260.62,43.79,263.48,43.79Zm1,3.12A2.6,2.6,0,0,0,262,49.78a2.58,2.58,0,1,0,5.11,0A2.61,2.61,0,0,0,264.53,46.91Z"/><path class="cls-3" d="M58.36,68.91c2.87,0,5.15,2.3,5.15,6s-2.28,6-5.15,6a4.21,4.21,0,0,1-3.6-1.8v7.2H51.18V69.08h3.58v1.65A4.13,4.13,0,0,1,58.36,68.91ZM57.29,72a2.91,2.91,0,0,0,0,5.78,2.65,2.65,0,0,0,2.58-2.91A2.61,2.61,0,0,0,57.29,72Z"/><path class="cls-3" d="M70.59,80.93a5.64,5.64,0,0,1-5.91-6,5.61,5.61,0,0,1,5.91-6,5.51,5.51,0,0,1,5.82,5.82,7.61,7.61,0,0,1-.07,1h-8.1A2.17,2.17,0,0,0,70.46,78a1.9,1.9,0,0,0,1.86-1.13h3.81A5.45,5.45,0,0,1,70.59,80.93Zm-2.33-7.14h4.48a2,2,0,0,0-2.19-2A2.22,2.22,0,0,0,68.26,73.79Z"/><path class="cls-3" d="M83,80.93c-3.12,0-5.21-1.74-5.38-4H81.2A1.64,1.64,0,0,0,83,78.29c.92,0,1.4-.42,1.4-.94,0-1.89-6.36-.53-6.36-4.82,0-2,1.7-3.62,4.75-3.62s4.69,1.68,4.92,4H84.4a1.53,1.53,0,0,0-1.71-1.32c-.84,0-1.3.33-1.3.9,0,1.86,6.32.54,6.38,4.9C87.77,79.4,86,80.93,83,80.93Z"/><path class="cls-3" d="M94.73,80.93c-3.12,0-5.22-1.74-5.38-4h3.53a1.64,1.64,0,0,0,1.8,1.36c.93,0,1.41-.42,1.41-.94,0-1.89-6.37-.53-6.37-4.82,0-2,1.7-3.62,4.75-3.62s4.69,1.68,4.92,4h-3.3a1.54,1.54,0,0,0-1.72-1.32c-.84,0-1.3.33-1.3.9,0,1.86,6.32.54,6.39,4.9C99.46,79.4,97.66,80.93,94.73,80.93Z"/><path class="cls-3" d="M107,80.93a6,6,0,1,1,6.12-6A5.8,5.8,0,0,1,107,80.93Zm0-3.1c1.28,0,2.47-.94,2.47-2.91S108.27,72,107,72s-2.43.92-2.43,2.91S105.68,77.83,107,77.83Z"/><path class="cls-3" d="M119.43,68.91a4.08,4.08,0,0,1,3.6,1.82V69.08h3.58V80.76H123V79.11a4.14,4.14,0,0,1-3.62,1.82c-2.85,0-5.13-2.35-5.13-6S116.56,68.91,119.43,68.91Zm1,3.12a2.6,2.6,0,0,0-2.56,2.87,2.64,2.64,0,0,0,2.56,2.91,2.91,2.91,0,0,0,0-5.78Z"/><path class="cls-3" d="M129.65,77.14h3.66l-2.66,6.78h-2.34Z"/><path class="cls-3" d="M147.78,74.42a2.25,2.25,0,1,0-4.48,0v6.34h-3.58V69.08h3.58v1.55A4.26,4.26,0,0,1,146.84,69c2.7,0,4.5,1.84,4.5,5v6.82h-3.56Z"/><path class="cls-3" d="M158.27,68.91a4.09,4.09,0,0,1,3.6,1.82V69.08h3.58V80.76h-3.58V79.11a4.16,4.16,0,0,1-3.63,1.82c-2.84,0-5.12-2.35-5.12-6S155.4,68.91,158.27,68.91Zm1,3.12a2.6,2.6,0,0,0-2.55,2.87A2.57,2.57,0,1,0,159.31,72Z"/><path class="cls-3" d="M172.84,72.05h-1.3v-3h1.3v-.34c0-3,1.88-4.56,5.44-4.37v3c-1.38-.08-1.86.34-1.86,1.57v.11h1.92v3h-1.92v8.71h-3.58Z"/><path class="cls-3" d="M184.46,68.91a4.09,4.09,0,0,1,3.6,1.82V69.08h3.58V80.76h-3.58V79.11a4.16,4.16,0,0,1-3.63,1.82c-2.84,0-5.13-2.35-5.13-6S181.59,68.91,184.46,68.91Zm1,3.12A2.6,2.6,0,0,0,183,74.9,2.57,2.57,0,1,0,185.5,72Z"/><path class="cls-3" d="M210.33,74.42a2.24,2.24,0,1,0-4.48,0v6.34h-3.56V74.42a2.24,2.24,0,1,0-4.48,0v6.34h-3.58V69.08h3.58v1.46A4.13,4.13,0,0,1,201.22,69a4.37,4.37,0,0,1,4,2.18A4.7,4.7,0,0,1,209.14,69c2.89,0,4.75,1.84,4.75,5v6.82h-3.56Z"/><path class="cls-3" d="M220.9,63.38v2.79l-5,2.11V65.81Zm-4.23,5.7h3.58V80.76h-3.58Z"/><path class="cls-3" d="M223.12,65.27h3.58V80.76h-3.58Z"/><path class="cls-3" d="M229,65.94a2.13,2.13,0,0,1,4.25,0,2.14,2.14,0,0,1-4.25,0Zm.34,3.14h3.58V80.76H229.3Z"/><path class="cls-3" d="M239.91,68.91a4.06,4.06,0,0,1,3.6,1.82V69.08h3.58V80.76h-3.58V79.11a4.13,4.13,0,0,1-3.62,1.82c-2.84,0-5.13-2.35-5.13-6S237.05,68.91,239.91,68.91ZM241,72a2.6,2.6,0,0,0-2.55,2.87A2.64,2.64,0,0,0,241,77.81,2.91,2.91,0,0,0,241,72Z"/><path class="cls-3" d="M259.32,80.93a5.63,5.63,0,0,1-5.9-6,5.6,5.6,0,0,1,5.9-6,5.51,5.51,0,0,1,5.82,5.82,9.51,9.51,0,0,1-.06,1H257A2.16,2.16,0,0,0,259.19,78a1.93,1.93,0,0,0,1.87-1.13h3.81A5.47,5.47,0,0,1,259.32,80.93ZM257,73.79h4.48a2,2,0,0,0-2.2-2A2.21,2.21,0,0,0,257,73.79Z"/><path class="cls-3" d="M81.72,99.54a2.25,2.25,0,1,0-4.48,0v6.34H73.66V94.2h3.58v1.55a4.31,4.31,0,0,1,3.54-1.67c2.7,0,4.5,1.84,4.5,5v6.82H81.72Z"/><path class="cls-3" d="M92.21,94a4,4,0,0,1,3.6,1.83V94.2h3.58v11.68H95.81v-1.65a4.1,4.1,0,0,1-3.62,1.82c-2.85,0-5.13-2.34-5.13-6S89.34,94,92.21,94Zm1.05,3.12A2.6,2.6,0,0,0,90.71,100a2.64,2.64,0,0,0,2.55,2.91,2.91,2.91,0,0,0,0-5.78Z"/><path class="cls-3" d="M111.58,94a5.36,5.36,0,0,1,5.61,4.4h-3.81a1.84,1.84,0,0,0-1.87-1.34c-1.27,0-2.15,1-2.15,3s.88,2.95,2.15,2.95a1.82,1.82,0,0,0,1.87-1.34h3.81a5.43,5.43,0,0,1-5.61,4.4c-3.44,0-5.86-2.3-5.86-6A5.61,5.61,0,0,1,111.58,94Z"/><path class="cls-3" d="M124.41,106.05a6,6,0,1,1,6.11-6A5.79,5.79,0,0,1,124.41,106.05Zm0-3.1c1.28,0,2.47-.94,2.47-2.91s-1.17-2.91-2.43-2.91S122,98.05,122,100,123.11,103,124.41,103Z"/><path class="cls-3" d="M148.53,99.54a2.24,2.24,0,1,0-4.48,0v6.34h-3.56V99.54a2.24,2.24,0,1,0-4.48,0v6.34h-3.58V94.2H136v1.47a4.09,4.09,0,0,1,3.41-1.59,4.37,4.37,0,0,1,4,2.17,4.7,4.7,0,0,1,3.94-2.17c2.88,0,4.75,1.84,4.75,5v6.82h-3.56Z"/><path class="cls-3" d="M166.14,105.88h-3.58v-1.59A4.26,4.26,0,0,1,159,106c-2.7,0-4.52-1.86-4.52-5V94.2h3.55v6.34a2.26,2.26,0,1,0,4.51,0V94.2h3.58Z"/><path class="cls-3" d="M176.77,99.54a2.25,2.25,0,1,0-4.48,0v6.34h-3.58V94.2h3.58v1.55a4.29,4.29,0,0,1,3.54-1.67c2.7,0,4.5,1.84,4.5,5v6.82h-3.56Z"/><path class="cls-3" d="M182.49,91.06A2.13,2.13,0,1,1,184.62,93,2,2,0,0,1,182.49,91.06Zm.33,3.14h3.58v11.68h-3.58Z"/><path class="cls-3" d="M193.44,94a4.33,4.33,0,0,1,3.6,1.78V90.39h3.58v15.49H197v-1.67a4,4,0,0,1-3.6,1.84c-2.87,0-5.15-2.34-5.15-6S190.57,94,193.44,94Zm1,3.12a2.6,2.6,0,0,0-2.55,2.87,2.64,2.64,0,0,0,2.55,2.91,2.91,2.91,0,0,0,0-5.78Z"/><path class="cls-3" d="M207.65,94a4.06,4.06,0,0,1,3.6,1.83V94.2h3.58v11.68h-3.58v-1.65a4.12,4.12,0,0,1-3.62,1.82c-2.85,0-5.13-2.34-5.13-6S204.78,94,207.65,94Zm1,3.12a2.61,2.61,0,0,0-2.56,2.87,2.64,2.64,0,0,0,2.56,2.91,2.91,2.91,0,0,0,0-5.78Z"/><path class="cls-3" d="M221.87,94a4.33,4.33,0,0,1,3.6,1.78V90.39h3.58v15.49h-3.58v-1.67a4,4,0,0,1-3.6,1.84c-2.87,0-5.16-2.34-5.16-6S219,94,221.87,94Zm1,3.12a2.6,2.6,0,0,0-2.55,2.87,2.64,2.64,0,0,0,2.55,2.91,2.91,2.91,0,0,0,0-5.78Z"/><path class="cls-3" d="M236.83,106.05a6,6,0,0,1,0-12,5.5,5.5,0,0,1,5.82,5.82,9.51,9.51,0,0,1-.06,1.05h-8.1a2.16,2.16,0,0,0,2.22,2.24,1.9,1.9,0,0,0,1.86-1.13h3.81A5.46,5.46,0,0,1,236.83,106.05Zm-2.32-7.14H239a2,2,0,0,0-2.2-2A2.21,2.21,0,0,0,234.51,98.91Z"/></g></svg>