<svg xmlns="http://www.w3.org/2000/svg" viewBox="0 0 309.33 152.31"><defs><style>.cls-1{fill:#d36f12;}.cls-1,.cls-2{isolation:isolate;}.cls-2,.cls-3{fill:#fff;}</style></defs><g id="_1" data-name="1"><rect class="cls-1" width="309.33" height="152.31" rx="36"/><path class="cls-2" d="M271.64,142.89h-234A28.3,28.3,0,0,1,9.42,114.62V37.68A28.3,28.3,0,0,1,37.68,9.42h234a28.3,28.3,0,0,1,28.27,28.26v76.94A28.3,28.3,0,0,1,271.64,142.89ZM37.68,11.51A26.2,26.2,0,0,0,11.51,37.68v76.94a26.2,26.2,0,0,0,26.17,26.17h234a26.2,26.2,0,0,0,26.17-26.17V37.68a26.2,26.2,0,0,0-26.17-26.17Z"/><path class="cls-3" d="M104.06,48.29c0,4.35-3,7.35-7.7,7.35H90.85V40.94h5.51C101.05,40.94,104.06,43.91,104.06,48.29Zm-7.93,4.25c2.7,0,4.29-1.55,4.29-4.25A3.93,3.93,0,0,0,96.13,44h-1.7v8.54Z"/><path class="cls-3" d="M105.74,40.82a2.14,2.14,0,1,1,2.13,1.92A2,2,0,0,1,105.74,40.82Zm.33,3.14h3.58V55.64h-3.58Z"/><path class="cls-3" d="M120.31,49.29a2.25,2.25,0,1,0-4.48,0v6.35h-3.58V44h3.58V45.5a4.29,4.29,0,0,1,3.54-1.67c2.7,0,4.5,1.84,4.5,5v6.83h-3.56Z"/><path class="cls-3" d="M130.8,43.79a4.07,4.07,0,0,1,3.6,1.82V44H138V55.64H134.4V54a4.14,4.14,0,0,1-3.63,1.83c-2.84,0-5.12-2.35-5.12-6S127.93,43.79,130.8,43.79Zm4.69-.63-3.25-1.72L129,43.16V40.69L132.24,39l3.25,1.65Zm-3.65,3.75a2.6,2.6,0,0,0-2.55,2.87,2.58,2.58,0,1,0,5.11,0A2.61,2.61,0,0,0,131.84,46.91Z"/><path class="cls-3" d="M156.67,49.29a2.24,2.24,0,1,0-4.48,0v6.35h-3.56V49.29a2.24,2.24,0,1,0-4.48,0v6.35h-3.58V44h3.58v1.46a4.13,4.13,0,0,1,3.41-1.59,4.35,4.35,0,0,1,4,2.18,4.7,4.7,0,0,1,3.94-2.18c2.89,0,4.75,1.84,4.75,5v6.83h-3.56Z"/><path class="cls-3" d="M162.41,40.82a2.14,2.14,0,1,1,2.13,1.92A2,2,0,0,1,162.41,40.82Zm.33,3.14h3.58V55.64h-3.58Z"/><path class="cls-3" d="M174.07,43.79a5.35,5.35,0,0,1,5.61,4.39h-3.81A1.85,1.85,0,0,0,174,46.84c-1.28,0-2.16,1-2.16,3s.88,3,2.16,3a1.81,1.81,0,0,0,1.86-1.34h3.81a5.43,5.43,0,0,1-5.61,4.4,5.6,5.6,0,0,1-5.86-6A5.61,5.61,0,0,1,174.07,43.79Z"/><path class="cls-3" d="M186,43.79a4,4,0,0,1,3.6,1.82V44h3.58V55.64h-3.58V54A4.11,4.11,0,0,1,186,55.81c-2.84,0-5.13-2.35-5.13-6S183.16,43.79,186,43.79Zm1,3.12a2.6,2.6,0,0,0-2.55,2.87,2.64,2.64,0,0,0,2.55,2.91,2.61,2.61,0,0,0,2.55-2.89A2.6,2.6,0,0,0,187.07,46.91Z"/><path class="cls-3" d="M204.68,43.79a4.28,4.28,0,0,1,3.6,1.78V40.15h3.58V55.64h-3.58V54a4,4,0,0,1-3.6,1.85c-2.87,0-5.15-2.35-5.15-6S201.81,43.79,204.68,43.79Zm1,3.12a2.6,2.6,0,0,0-2.55,2.87,2.58,2.58,0,1,0,5.11,0A2.61,2.61,0,0,0,205.72,46.91Z"/><path class="cls-3" d="M219.65,55.81a5.64,5.64,0,0,1-5.91-6,5.61,5.61,0,0,1,5.91-6,5.51,5.51,0,0,1,5.82,5.82,9.4,9.4,0,0,1-.07,1h-8.1a2.18,2.18,0,0,0,2.22,2.25,1.9,1.9,0,0,0,1.86-1.14h3.81A5.44,5.44,0,0,1,219.65,55.81Zm-2.33-7.14h4.48a2,2,0,0,0-2.2-2A2.21,2.21,0,0,0,217.32,48.67Z"/><path class="cls-3" d="M59.39,72.05h-1.3v-3h1.3v-.34c0-3,1.88-4.56,5.44-4.37v3C63.45,67.32,63,67.74,63,69v.11h1.92v3H63v8.71H59.39Z"/><path class="cls-3" d="M78.1,80.76H74.52V79.17A4.27,4.27,0,0,1,71,80.89c-2.7,0-4.52-1.87-4.52-5V69.08H70v6.34a2.26,2.26,0,1,0,4.5,0V69.08H78.1Z"/><path class="cls-3" d="M88.74,74.42a2.25,2.25,0,1,0-4.48,0v6.34H80.68V69.08h3.58v1.55A4.26,4.26,0,0,1,87.8,69c2.7,0,4.5,1.85,4.5,5v6.82H88.74Z"/><path class="cls-3" d="M99.94,68.91a5.35,5.35,0,0,1,5.61,4.4h-3.81A1.85,1.85,0,0,0,99.87,72c-1.27,0-2.15,1-2.15,3s.88,3,2.15,3a1.82,1.82,0,0,0,1.87-1.34h3.81a5.43,5.43,0,0,1-5.61,4.4c-3.44,0-5.86-2.31-5.86-6A5.6,5.6,0,0,1,99.94,68.91Z"/><path class="cls-3" d="M107.12,65.94a2.14,2.14,0,1,1,2.13,1.92A2,2,0,0,1,107.12,65.94Zm.33,3.14H111V80.76h-3.58Z"/><path class="cls-3" d="M119,80.93a6,6,0,1,1,6.11-6A5.8,5.8,0,0,1,119,80.93Zm0-3.1c1.27,0,2.47-.94,2.47-2.91S120.24,72,119,72s-2.43.92-2.43,2.91S117.65,77.83,119,77.83Z"/><path class="cls-3" d="M135,74.42a2.25,2.25,0,1,0-4.48,0v6.34H127V69.08h3.58v1.55A4.25,4.25,0,0,1,134.08,69c2.7,0,4.5,1.85,4.5,5v6.82H135Z"/><path class="cls-3" d="M145.51,68.91a4.06,4.06,0,0,1,3.6,1.82V69.08h3.58V80.76h-3.58V79.11a4.13,4.13,0,0,1-3.62,1.82c-2.84,0-5.13-2.35-5.13-6S142.65,68.91,145.51,68.91ZM146.56,72A2.6,2.6,0,0,0,144,74.9a2.64,2.64,0,0,0,2.55,2.91,2.91,2.91,0,0,0,0-5.78Z"/><path class="cls-3" d="M171.39,74.42a2.24,2.24,0,1,0-4.48,0v6.34h-3.56V74.42a2.24,2.24,0,1,0-4.48,0v6.34h-3.58V69.08h3.58v1.46A4.12,4.12,0,0,1,162.28,69a4.37,4.37,0,0,1,4,2.18A4.72,4.72,0,0,1,170.2,69c2.89,0,4.75,1.85,4.75,5v6.82h-3.56Z"/><path class="cls-3" d="M182.65,80.93a5.63,5.63,0,0,1-5.9-6,5.61,5.61,0,0,1,5.9-6,5.5,5.5,0,0,1,5.82,5.82,9.51,9.51,0,0,1-.06,1h-8.1A2.16,2.16,0,0,0,182.53,78a1.9,1.9,0,0,0,1.86-1.13h3.81A5.46,5.46,0,0,1,182.65,80.93Zm-2.32-7.14h4.48a2,2,0,0,0-2.2-2A2.21,2.21,0,0,0,180.33,73.79Z"/><path class="cls-3" d="M198.42,74.42a2.25,2.25,0,1,0-4.48,0v6.34h-3.58V69.08h3.58v1.55A4.27,4.27,0,0,1,197.48,69c2.7,0,4.5,1.85,4.5,5v6.82h-3.56Z"/><path class="cls-3" d="M205,72.05h-1.42v-3H205V66.23h3.58v2.85H211v3h-2.35v4.69c0,.69.3,1,1.09,1H211v3h-1.82c-2.43,0-4.13-1-4.13-4.06Z"/><path class="cls-3" d="M218.29,80.93a6,6,0,1,1,6.11-6A5.8,5.8,0,0,1,218.29,80.93Zm0-3.1c1.27,0,2.47-.94,2.47-2.91S219.58,72,218.33,72s-2.43.92-2.43,2.91S217,77.83,218.29,77.83Z"/><path class="cls-3" d="M235.18,68.91a4.28,4.28,0,0,1,3.6,1.78V65.27h3.58V80.76h-3.58V79.09a4.05,4.05,0,0,1-3.6,1.84c-2.87,0-5.15-2.35-5.15-6S232.31,68.91,235.18,68.91Zm1,3.12a2.61,2.61,0,0,0-2.56,2.87,2.64,2.64,0,0,0,2.56,2.91,2.91,2.91,0,0,0,0-5.78Z"/><path class="cls-3" d="M249.4,68.91a4.09,4.09,0,0,1,3.6,1.82V69.08h3.58V80.76H253V79.11a4.16,4.16,0,0,1-3.63,1.82c-2.84,0-5.12-2.35-5.12-6S246.53,68.91,249.4,68.91Zm1,3.12a2.6,2.6,0,0,0-2.55,2.87A2.57,2.57,0,1,0,250.44,72Z"/><path class="cls-3" d="M127,106.05a6,6,0,0,1,0-12,5.51,5.51,0,0,1,5.82,5.82,9.51,9.51,0,0,1-.06,1.05h-8.11a2.17,2.17,0,0,0,2.22,2.24,1.91,1.91,0,0,0,1.87-1.13h3.81A5.47,5.47,0,0,1,127,106.05Zm-2.32-7.14h4.48a2,2,0,0,0-2.2-2A2.2,2.2,0,0,0,124.72,98.91Z"/><path class="cls-3" d="M139.37,94.08a4.24,4.24,0,0,1,3.41,1.46V94.2h3.58v17.25h-3.58v-7a4.33,4.33,0,0,1-3.45,1.61c-2.87,0-5.3-2.41-5.3-6S136.46,94.08,139.37,94.08Zm.86,3.09a2.9,2.9,0,1,0,2.55,2.87A2.61,2.61,0,0,0,140.23,97.17Z"/><path class="cls-3" d="M160.49,105.88h-3.58v-1.59a4.23,4.23,0,0,1-3.53,1.72c-2.7,0-4.53-1.86-4.53-5V94.2h3.56v6.34a2.26,2.26,0,1,0,4.5,0V94.2h3.58Z"/><path class="cls-3" d="M162.73,91.06A2.13,2.13,0,1,1,164.87,93,2,2,0,0,1,162.73,91.06Zm.34,3.14h3.58v11.68h-3.58Z"/><path class="cls-3" d="M176.43,94c2.86,0,5.15,2.31,5.15,6s-2.29,6-5.15,6a4.23,4.23,0,0,1-3.61-1.8v7.2h-3.58V94.2h3.58v1.66A4.13,4.13,0,0,1,176.43,94Zm-1.07,3.12a2.91,2.91,0,1,0,2.57,2.87A2.63,2.63,0,0,0,175.36,97.15Z"/><path class="cls-3" d="M188.65,106.05a6,6,0,0,1,0-12,5.51,5.51,0,0,1,5.82,5.82,9.51,9.51,0,0,1-.06,1.05h-8.1a2.16,2.16,0,0,0,2.22,2.24,1.9,1.9,0,0,0,1.86-1.13h3.81A5.47,5.47,0,0,1,188.65,106.05Zm-2.32-7.14h4.48a2,2,0,0,0-2.2-2A2.21,2.21,0,0,0,186.33,98.91Z"/></g></svg>