<svg xmlns="http://www.w3.org/2000/svg" viewBox="0 0 309.33 152.31"><defs><style>.cls-1{fill:#8c1812;}.cls-1,.cls-2{isolation:isolate;}.cls-2,.cls-3{fill:#fff;}</style></defs><g id="_1" data-name="1"><rect class="cls-1" width="309.33" height="152.31" rx="36"/><path class="cls-2" d="M271.64,142.89h-234A28.3,28.3,0,0,1,9.42,114.62V37.68A28.3,28.3,0,0,1,37.68,9.42h234a28.3,28.3,0,0,1,28.27,28.26v76.94A28.3,28.3,0,0,1,271.64,142.89ZM37.68,11.51A26.2,26.2,0,0,0,11.51,37.68v76.94a26.2,26.2,0,0,0,26.17,26.17h234a26.2,26.2,0,0,0,26.17-26.17V37.68a26.2,26.2,0,0,0-26.17-26.17Z"/><path class="cls-3" d="M89.41,53.33a6.83,6.83,0,0,1,7,5.15H92.44a3.23,3.23,0,0,0-3.07-1.88c-2.2,0-3.71,1.63-3.71,4.23s1.51,4.23,3.71,4.23a3.22,3.22,0,0,0,3.07-1.89h3.94a6.81,6.81,0,0,1-7,5.13A7.11,7.11,0,0,1,82,60.83,7.14,7.14,0,0,1,89.41,53.33Z"/><path class="cls-3" d="M103.89,68.36a6,6,0,1,1,6.12-6A5.79,5.79,0,0,1,103.89,68.36Zm0-3.09c1.28,0,2.48-1,2.48-2.91s-1.18-2.91-2.43-2.91-2.43.92-2.43,2.91S102.6,65.27,103.89,65.27Z"/><path class="cls-3" d="M128,61.85a2.24,2.24,0,1,0-4.48,0V68.2H120V61.85a2.24,2.24,0,1,0-4.48,0V68.2h-3.58V56.52h3.58V58a4.14,4.14,0,0,1,3.42-1.59,4.34,4.34,0,0,1,4,2.18,4.7,4.7,0,0,1,3.94-2.18c2.89,0,4.75,1.84,4.75,5V68.2H128Z"/><path class="cls-3" d="M145.62,68.2H142V66.61a4.27,4.27,0,0,1-3.54,1.71c-2.7,0-4.52-1.86-4.52-5V56.52h3.56v6.34a2.26,2.26,0,1,0,4.5,0V56.52h3.58Z"/><path class="cls-3" d="M156.26,61.85a2.26,2.26,0,1,0-4.49,0V68.2h-3.58V56.52h3.58v1.54a4.31,4.31,0,0,1,3.54-1.67c2.7,0,4.5,1.84,4.5,5V68.2h-3.55Z"/><path class="cls-3" d="M162,53.38a2.14,2.14,0,1,1,2.14,1.92A2,2,0,0,1,162,53.38Zm.34,3.14h3.58V68.2h-3.58Z"/><path class="cls-3" d="M173.63,56.35a5.34,5.34,0,0,1,5.61,4.39h-3.81a1.85,1.85,0,0,0-1.86-1.34c-1.28,0-2.16,1-2.16,3s.88,3,2.16,3A1.81,1.81,0,0,0,175.43,64h3.81a5.42,5.42,0,0,1-5.61,4.39,5.6,5.6,0,0,1-5.86-6A5.61,5.61,0,0,1,173.63,56.35Z"/><path class="cls-3" d="M185.59,56.35a4.07,4.07,0,0,1,3.6,1.82V56.52h3.58V68.2h-3.58V66.54a4.13,4.13,0,0,1-3.63,1.82c-2.84,0-5.12-2.34-5.12-6S182.72,56.35,185.59,56.35Zm1,3.12a2.6,2.6,0,0,0-2.55,2.87,2.58,2.58,0,1,0,5.11,0A2.61,2.61,0,0,0,186.63,59.47Z"/><path class="cls-3" d="M200.51,56.35a5.34,5.34,0,0,1,5.61,4.39h-3.81a1.85,1.85,0,0,0-1.86-1.34c-1.28,0-2.16,1-2.16,3s.88,3,2.16,3A1.81,1.81,0,0,0,202.31,64h3.81a5.32,5.32,0,0,1-4.56,4.31v.78a2.43,2.43,0,0,1,2.72,2.38c0,1.72-1.46,2.43-2.91,2.43h-3.22v-2h2.74c.52,0,.84-.12.84-.54s-.32-.52-.84-.52H199.4V68.28c-2.82-.44-4.75-2.64-4.75-5.92A5.61,5.61,0,0,1,200.51,56.35Z"/><path class="cls-3" d="M212.47,56.35a4.07,4.07,0,0,1,3.6,1.82V56.52h3.58V68.2h-3.58V66.54a4.13,4.13,0,0,1-3.62,1.82c-2.85,0-5.13-2.34-5.13-6S209.6,56.35,212.47,56.35Zm.14-3.92c1.26,0,1.91,1,2.75,1,.48,0,.81-.3.9-1h1.84c-.36,2.2-1.42,3.1-2.89,3.1-1.26,0-1.9-.94-2.74-.94-.48,0-.82.29-.92.94h-1.83C210.08,53.33,211.13,52.43,212.61,52.43Zm.9,7A2.6,2.6,0,0,0,211,62.34a2.58,2.58,0,1,0,5.11,0A2.61,2.61,0,0,0,213.51,59.47Z"/><path class="cls-3" d="M227.56,68.36a6,6,0,1,1,6.12-6A5.79,5.79,0,0,1,227.56,68.36Zm0-3.09c1.28,0,2.47-1,2.47-2.91s-1.17-2.91-2.43-2.91-2.42.92-2.42,2.91S226.26,65.27,227.56,65.27Z"/><path class="cls-3" d="M69.64,78.5a2.13,2.13,0,1,1,2.14,1.93A2,2,0,0,1,69.64,78.5ZM70,81.64h3.58V93.32H70Z"/><path class="cls-3" d="M84.22,87a2.25,2.25,0,1,0-4.48,0v6.34H76.16V81.64h3.58v1.55a4.25,4.25,0,0,1,3.53-1.68c2.7,0,4.5,1.85,4.5,5v6.82H84.22Z"/><path class="cls-3" d="M90.83,84.61H89.41v-3h1.42V78.79h3.58v2.85h2.35v3H94.41V89.3c0,.69.29,1,1.09,1h1.28v3H95c-2.43,0-4.13-1-4.13-4.06Z"/><path class="cls-3" d="M104,93.49a6,6,0,0,1,0-12,5.51,5.51,0,0,1,5.82,5.82,9.51,9.51,0,0,1-.06,1h-8.11a2.17,2.17,0,0,0,2.22,2.24,1.91,1.91,0,0,0,1.87-1.13h3.81A5.47,5.47,0,0,1,104,93.49Zm-2.33-7.14h4.48a2,2,0,0,0-2.19-2A2.22,2.22,0,0,0,101.63,86.35Z"/><path class="cls-3" d="M115.24,93.32h-3.58V81.64h3.58v2a4.37,4.37,0,0,1,3.67-2.08V85.3h-1c-1.69,0-2.68.59-2.68,2.6Z"/><path class="cls-3" d="M127.8,81.47c2.87,0,5.15,2.3,5.15,6s-2.28,6-5.15,6a4.22,4.22,0,0,1-3.6-1.8v7.2h-3.58V81.64h3.58v1.65A4.14,4.14,0,0,1,127.8,81.47Zm-1.06,3.12a2.91,2.91,0,1,0,2.57,2.87A2.63,2.63,0,0,0,126.74,84.59Z"/><path class="cls-3" d="M138.42,93.32h-3.58V81.64h3.58v2a4.34,4.34,0,0,1,3.66-2.08V85.3h-1c-1.7,0-2.68.59-2.68,2.6Z"/><path class="cls-3" d="M149.12,93.49a6,6,0,1,1,6.11-6A5.79,5.79,0,0,1,149.12,93.49Zm0-3.1c1.27,0,2.47-.94,2.47-2.91s-1.18-2.91-2.43-2.91-2.43.92-2.43,2.91S147.82,90.39,149.12,90.39Z"/><path class="cls-3" d="M157.49,84.61h-1.3v-3h1.3V81.3c0-3,1.88-4.56,5.44-4.37v3c-1.38-.08-1.86.34-1.86,1.57v.11H163v3h-1.93v8.71h-3.58Z"/><path class="cls-3" d="M164.34,78.5a2.13,2.13,0,1,1,2.13,1.93A2,2,0,0,1,164.34,78.5Zm.33,3.14h3.58V93.32h-3.58Z"/><path class="cls-3" d="M175.6,93.49c-3.12,0-5.21-1.74-5.38-4h3.54a1.63,1.63,0,0,0,1.8,1.36c.92,0,1.4-.42,1.4-.94,0-1.89-6.36-.52-6.36-4.82,0-2,1.69-3.62,4.75-3.62s4.69,1.68,4.92,4H177a1.54,1.54,0,0,0-1.72-1.32c-.83,0-1.29.34-1.29.9,0,1.86,6.32.54,6.38,4.9C180.33,92,178.53,93.49,175.6,93.49Z"/><path class="cls-3" d="M187.28,93.49c-3.12,0-5.21-1.74-5.38-4h3.54a1.64,1.64,0,0,0,1.8,1.36c.92,0,1.4-.42,1.4-.94,0-1.89-6.36-.52-6.36-4.82,0-2,1.69-3.62,4.75-3.62s4.69,1.68,4.92,4h-3.31a1.53,1.53,0,0,0-1.71-1.32c-.84,0-1.3.34-1.3.9,0,1.86,6.32.54,6.38,4.9C192,92,190.21,93.49,187.28,93.49Z"/><path class="cls-3" d="M193.88,78.5A2.13,2.13,0,1,1,196,80.43,2,2,0,0,1,193.88,78.5Zm.33,3.14h3.58V93.32h-3.58Z"/><path class="cls-3" d="M205.7,93.49a6,6,0,1,1,6.12-6A5.8,5.8,0,0,1,205.7,93.49Zm0-3.1c1.28,0,2.48-.94,2.48-2.91s-1.18-2.91-2.43-2.91-2.43.92-2.43,2.91S204.41,90.39,205.7,90.39Z"/><path class="cls-3" d="M221.78,87a2.25,2.25,0,1,0-4.48,0v6.34h-3.58V81.64h3.58v1.55a4.27,4.27,0,0,1,3.54-1.68c2.7,0,4.5,1.85,4.5,5v6.82h-3.56Z"/><path class="cls-3" d="M232.27,81.47a4.08,4.08,0,0,1,3.6,1.82V81.64h3.58V93.32h-3.58V91.67a4.14,4.14,0,0,1-3.62,1.82c-2.85,0-5.13-2.35-5.13-6S229.4,81.47,232.27,81.47Zm1,3.12a2.61,2.61,0,0,0-2.56,2.87,2.64,2.64,0,0,0,2.56,2.91,2.91,2.91,0,0,0,0-5.78Z"/><path class="cls-3" d="M242.05,77.83h3.58V93.32h-3.58Z"/></g></svg>