<svg xmlns="http://www.w3.org/2000/svg" viewBox="0 0 309.33 152.31"><defs><style>.cls-1{fill:#ffd402;}.cls-1,.cls-2,.cls-3{isolation:isolate;}.cls-2{fill:#fff;}.cls-4{fill:#284666;}</style></defs><g id="_1" data-name="1"><rect class="cls-1" width="309.33" height="152.31" rx="36"/><path class="cls-2" d="M271.64,142.89h-234A28.3,28.3,0,0,1,9.42,114.62V37.68A28.3,28.3,0,0,1,37.68,9.42h234a28.3,28.3,0,0,1,28.27,28.26v76.94A28.3,28.3,0,0,1,271.64,142.89ZM37.68,11.51A26.2,26.2,0,0,0,11.51,37.68v76.94a26.2,26.2,0,0,0,26.17,26.17h234a26.2,26.2,0,0,0,26.17-26.17V37.68a26.2,26.2,0,0,0-26.17-26.17Z"/><g class="cls-3"><path class="cls-4" d="M109,53.5V65.44h4.69V68.2h-8.27V53.5Z"/><path class="cls-4" d="M115,53.38a2.14,2.14,0,1,1,2.14,1.92A2,2,0,0,1,115,53.38Zm.34,3.14H119V68.2h-3.58Z"/><path class="cls-4" d="M126,56.35a4.28,4.28,0,0,1,3.6,1.78V52.71h3.58V68.2h-3.58V66.52a4,4,0,0,1-3.6,1.85c-2.87,0-5.15-2.35-5.15-6S123.11,56.35,126,56.35Zm1,3.12a2.6,2.6,0,0,0-2.56,2.87A2.64,2.64,0,0,0,127,65.25a2.91,2.91,0,0,0,0-5.78Z"/><path class="cls-4" d="M141,68.37a5.63,5.63,0,0,1-5.9-6,5.61,5.61,0,0,1,5.9-6,5.51,5.51,0,0,1,5.82,5.82,9.65,9.65,0,0,1-.06,1h-8.1a2.16,2.16,0,0,0,2.22,2.24,1.91,1.91,0,0,0,1.86-1.13h3.81A5.47,5.47,0,0,1,141,68.37Zm-2.32-7.14h4.48a2,2,0,0,0-2.2-2A2.21,2.21,0,0,0,138.63,61.23Z"/><path class="cls-4" d="M152.24,68.2h-3.58V56.52h3.58v1.94a4.35,4.35,0,0,1,3.66-2.07v3.79h-1c-1.7,0-2.68.59-2.68,2.6Z"/><path class="cls-4" d="M162.06,56.35a4.09,4.09,0,0,1,3.6,1.82V56.52h3.58V68.2h-3.58V66.54A4.14,4.14,0,0,1,162,68.37c-2.84,0-5.13-2.35-5.13-6S159.19,56.35,162.06,56.35Zm1,3.12a2.6,2.6,0,0,0-2.55,2.87,2.58,2.58,0,1,0,5.11,0A2.61,2.61,0,0,0,163.1,59.47Z"/><path class="cls-4" d="M179.89,61.85a2.25,2.25,0,1,0-4.48,0V68.2h-3.58V56.52h3.58v1.55A4.27,4.27,0,0,1,179,56.39c2.7,0,4.5,1.84,4.5,5V68.2h-3.56Z"/><path class="cls-4" d="M191.09,56.35a5.34,5.34,0,0,1,5.61,4.4h-3.81A1.84,1.84,0,0,0,191,59.41c-1.28,0-2.16,1-2.16,3s.88,3,2.16,3A1.81,1.81,0,0,0,192.89,64h3.81a5.31,5.31,0,0,1-4.56,4.31v.78a2.44,2.44,0,0,1,2.72,2.38c0,1.72-1.46,2.43-2.91,2.43h-3.22v-2h2.74c.52,0,.84-.12.84-.54s-.32-.52-.84-.52H190V68.28c-2.82-.44-4.75-2.64-4.75-5.92A5.61,5.61,0,0,1,191.09,56.35Z"/><path class="cls-4" d="M203.05,56.35a4.09,4.09,0,0,1,3.6,1.82V56.52h3.58V68.2h-3.58V66.54A4.13,4.13,0,0,1,203,68.37c-2.85,0-5.13-2.35-5.13-6S200.18,56.35,203.05,56.35Zm1,3.12a2.6,2.6,0,0,0-2.55,2.87,2.58,2.58,0,1,0,5.11,0A2.61,2.61,0,0,0,204.09,59.47Z"/><path class="cls-4" d="M94.69,81.47a5.35,5.35,0,0,1,5.62,4.4H96.49a1.83,1.83,0,0,0-1.86-1.34c-1.28,0-2.16,1-2.16,3s.88,3,2.16,3a1.8,1.8,0,0,0,1.86-1.34h3.82a5.43,5.43,0,0,1-5.62,4.4c-3.43,0-5.86-2.3-5.86-6A5.61,5.61,0,0,1,94.69,81.47Z"/><path class="cls-4" d="M107.53,93.49a6,6,0,1,1,6.11-6A5.79,5.79,0,0,1,107.53,93.49Zm0-3.1c1.28,0,2.47-.94,2.47-2.91s-1.17-2.91-2.43-2.91-2.43.92-2.43,2.91S106.23,90.39,107.53,90.39Z"/><path class="cls-4" d="M115.55,77.83h3.58V93.32h-3.58Z"/><path class="cls-4" d="M126.16,81.47a4.08,4.08,0,0,1,3.6,1.82V81.64h3.58V93.32h-3.58V91.67a4.14,4.14,0,0,1-3.62,1.82c-2.85,0-5.13-2.35-5.13-6S123.29,81.47,126.16,81.47Zm1,3.12a2.61,2.61,0,0,0-2.56,2.87,2.64,2.64,0,0,0,2.56,2.91,2.91,2.91,0,0,0,0-5.78Z"/><path class="cls-4" d="M143.12,81.47c2.89,0,5.15,2.3,5.15,6s-2.28,6-5.15,6a4.11,4.11,0,0,1-3.6-1.8v1.63h-3.58V77.83h3.58v5.46A4.13,4.13,0,0,1,143.12,81.47Zm-1.07,3.12a2.91,2.91,0,0,0,0,5.78,2.65,2.65,0,0,0,2.58-2.91A2.61,2.61,0,0,0,142.05,84.59Z"/><path class="cls-4" d="M155.47,93.49a6,6,0,1,1,6.11-6A5.79,5.79,0,0,1,155.47,93.49Zm0-3.1c1.28,0,2.47-.94,2.47-2.91s-1.17-2.91-2.43-2.91-2.43.92-2.43,2.91S154.17,90.39,155.47,90.39Z"/><path class="cls-4" d="M167.07,93.32h-3.58V81.64h3.58v2a4.35,4.35,0,0,1,3.66-2.08V85.3h-1c-1.7,0-2.68.59-2.68,2.6Z"/><path class="cls-4" d="M176.89,81.47a4.09,4.09,0,0,1,3.6,1.82V81.64h3.58V93.32h-3.58V91.67a4.15,4.15,0,0,1-3.62,1.82c-2.85,0-5.13-2.35-5.13-6S174,81.47,176.89,81.47Zm1,3.12a2.6,2.6,0,0,0-2.55,2.87,2.57,2.57,0,1,0,2.55-2.87Z"/><path class="cls-4" d="M187.23,84.61h-1.42v-3h1.42V78.79h3.58v2.85h2.34v3h-2.34V89.3c0,.69.29,1,1.09,1h1.28v3h-1.83c-2.42,0-4.12-1-4.12-4.06Z"/><path class="cls-4" d="M194.83,78.5A2.13,2.13,0,1,1,197,80.43,2,2,0,0,1,194.83,78.5Zm.33,3.14h3.58V93.32h-3.58Z"/><path class="cls-4" d="M204.06,81.64,206.6,90l2.53-8.33h3.81l-4.15,11.68h-4.41l-4.15-11.68Z"/><path class="cls-4" d="M218.88,81.47a4.06,4.06,0,0,1,3.6,1.82V81.64h3.58V93.32h-3.58V91.67a4.13,4.13,0,0,1-3.62,1.82c-2.84,0-5.13-2.35-5.13-6S216,81.47,218.88,81.47Zm1.05,3.12a2.6,2.6,0,0,0-2.55,2.87,2.64,2.64,0,0,0,2.55,2.91,2.91,2.91,0,0,0,0-5.78Z"/></g></g></svg>