<svg xmlns="http://www.w3.org/2000/svg" viewBox="0 0 309.33 152.31"><defs><style>.cls-1{fill:#1a68b1;}.cls-1,.cls-2{isolation:isolate;}.cls-2,.cls-3{fill:#fff;}</style></defs><g id="_1" data-name="1"><rect class="cls-1" width="309.33" height="152.31" rx="36"/><path class="cls-2" d="M271.64,142.89h-234A28.3,28.3,0,0,1,9.42,114.62V37.68A28.3,28.3,0,0,1,37.68,9.42h234a28.3,28.3,0,0,1,28.27,28.26v76.94A28.3,28.3,0,0,1,271.64,142.89ZM37.68,11.51A26.2,26.2,0,0,0,11.51,37.68v76.94a26.2,26.2,0,0,0,26.17,26.17h234a26.2,26.2,0,0,0,26.17-26.17V37.68a26.2,26.2,0,0,0-26.17-26.17Z"/><path class="cls-3" d="M44.32,53.5c3.6,0,5.4,2.07,5.4,4.63a4.28,4.28,0,0,1-3.26,4.25l3.39,5.82h-4l-3.06-5.55h-.86V68.2H38.31V53.5Zm-.21,3H41.89v3.64h2.22c1.34,0,2-.69,2-1.84S45.45,56.48,44.11,56.48Z"/><path class="cls-3" d="M57.16,68.37a5.64,5.64,0,0,1-5.91-6,5.61,5.61,0,0,1,5.91-6A5.51,5.51,0,0,1,63,62.17a7.71,7.71,0,0,1-.07,1h-8.1A2.17,2.17,0,0,0,57,65.46a1.9,1.9,0,0,0,1.86-1.13H62.7A5.45,5.45,0,0,1,57.16,68.37Zm-2.33-7.14h4.48a2,2,0,0,0-2.2-2A2.21,2.21,0,0,0,54.83,61.23Z"/><path class="cls-3" d="M69.61,68.37c-3.12,0-5.21-1.74-5.38-4h3.54a1.64,1.64,0,0,0,1.8,1.36c.92,0,1.4-.42,1.4-.94,0-1.89-6.36-.53-6.36-4.82,0-2,1.7-3.62,4.75-3.62s4.69,1.67,4.92,4H71A1.53,1.53,0,0,0,69.26,59c-.84,0-1.3.33-1.3.9,0,1.86,6.32.54,6.39,4.9C74.35,66.84,72.54,68.37,69.61,68.37Z"/><path class="cls-3" d="M81.86,68.37a6,6,0,1,1,6.11-6A5.8,5.8,0,0,1,81.86,68.37Zm0-3.1c1.28,0,2.47-.94,2.47-2.91s-1.17-2.91-2.43-2.91-2.43.92-2.43,2.91S80.56,65.27,81.86,65.27Z"/><path class="cls-3" d="M89.88,52.71h3.58V68.2H89.88Z"/><path class="cls-3" d="M107.59,68.2H104V66.61a4.27,4.27,0,0,1-3.54,1.71c-2.7,0-4.52-1.86-4.52-5V56.52h3.56v6.34a2.26,2.26,0,1,0,4.5,0V56.52h3.58Z"/><path class="cls-3" d="M115.32,56.35a5.35,5.35,0,0,1,5.61,4.4h-3.81a1.85,1.85,0,0,0-1.87-1.34c-1.27,0-2.15,1-2.15,3s.88,3,2.15,3A1.82,1.82,0,0,0,117.12,64h3.81a5.33,5.33,0,0,1-4.57,4.31v.78a2.44,2.44,0,0,1,2.72,2.38c0,1.72-1.46,2.43-2.91,2.43H113v-2h2.74c.53,0,.84-.12.84-.54s-.31-.52-.84-.52h-1.48V68.28c-2.83-.44-4.76-2.64-4.76-5.92A5.61,5.61,0,0,1,115.32,56.35Z"/><path class="cls-3" d="M127.27,56.35a4.05,4.05,0,0,1,3.6,1.82V56.52h3.58V68.2h-3.58V66.54a4.12,4.12,0,0,1-3.62,1.83c-2.85,0-5.13-2.35-5.13-6S124.4,56.35,127.27,56.35Zm.15-3.92c1.25,0,1.9,1,2.74,1,.48,0,.82-.3.9-1h1.84c-.35,2.2-1.42,3.1-2.89,3.1-1.25,0-1.9-.94-2.74-.94-.48,0-.82.29-.92.94h-1.82C124.88,53.33,125.93,52.43,127.42,52.43Zm.9,7a2.6,2.6,0,0,0-2.56,2.87,2.64,2.64,0,0,0,2.56,2.91,2.91,2.91,0,0,0,0-5.78Z"/><path class="cls-3" d="M142.36,68.37a6,6,0,1,1,6.12-6A5.8,5.8,0,0,1,142.36,68.37Zm0-3.1c1.28,0,2.48-.94,2.48-2.91s-1.18-2.91-2.43-2.91-2.43.92-2.43,2.91S141.07,65.27,142.36,65.27Z"/><path class="cls-3" d="M159.26,56.35a4.28,4.28,0,0,1,3.6,1.78V52.71h3.58V68.2h-3.58V66.52a4,4,0,0,1-3.6,1.85c-2.87,0-5.15-2.35-5.15-6S156.39,56.35,159.26,56.35Zm1.05,3.12a2.6,2.6,0,0,0-2.56,2.87,2.64,2.64,0,0,0,2.56,2.91,2.91,2.91,0,0,0,0-5.78Z"/><path class="cls-3" d="M174.23,68.37a5.64,5.64,0,0,1-5.91-6,5.61,5.61,0,0,1,5.91-6,5.51,5.51,0,0,1,5.82,5.82,9.65,9.65,0,0,1-.06,1h-8.11a2.17,2.17,0,0,0,2.22,2.24A1.93,1.93,0,0,0,176,64.33h3.81A5.47,5.47,0,0,1,174.23,68.37Zm-2.33-7.14h4.48a2,2,0,0,0-2.19-2A2.22,2.22,0,0,0,171.9,61.23Z"/><path class="cls-3" d="M191.52,56.35a5.35,5.35,0,0,1,5.61,4.4h-3.81a1.84,1.84,0,0,0-1.86-1.34c-1.28,0-2.16,1-2.16,3s.88,3,2.16,3A1.81,1.81,0,0,0,193.32,64h3.81a5.43,5.43,0,0,1-5.61,4.4,5.6,5.6,0,0,1-5.86-6A5.61,5.61,0,0,1,191.52,56.35Z"/><path class="cls-3" d="M204.35,68.37a6,6,0,1,1,6.12-6A5.8,5.8,0,0,1,204.35,68.37Zm0-3.1c1.28,0,2.47-.94,2.47-2.91s-1.17-2.91-2.42-2.91-2.43.92-2.43,2.91S203.06,65.27,204.35,65.27Z"/><path class="cls-3" d="M220.43,61.85a2.25,2.25,0,1,0-4.48,0V68.2h-3.58V56.52H216v1.55a4.27,4.27,0,0,1,3.54-1.68c2.7,0,4.5,1.84,4.5,5V68.2h-3.56Z"/><path class="cls-3" d="M226.84,59.49h-1.3v-3h1.3v-.34c0-3,1.88-4.56,5.44-4.37v3c-1.38-.08-1.86.34-1.86,1.57v.11h1.93v3h-1.93V68.2h-3.58Z"/><path class="cls-3" d="M234,52.71h3.58V68.2H234Z"/><path class="cls-3" d="M239.86,53.38A2.14,2.14,0,1,1,242,55.3,2,2,0,0,1,239.86,53.38Zm.34,3.14h3.58V68.2H240.2Z"/><path class="cls-3" d="M246.94,59.49h-1.43v-3h1.43V53.67h3.58v2.85h2.34v3h-2.34v4.69c0,.69.29,1,1.09,1h1.27v3h-1.82c-2.43,0-4.12-1-4.12-4.06Z"/><path class="cls-3" d="M260.19,68.37a6,6,0,1,1,6.11-6A5.8,5.8,0,0,1,260.19,68.37Zm0-3.1c1.28,0,2.47-.94,2.47-2.91s-1.17-2.91-2.43-2.91-2.43.92-2.43,2.91S258.89,65.27,260.19,65.27Z"/><path class="cls-3" d="M273,68.37c-3.12,0-5.21-1.74-5.38-4h3.54a1.64,1.64,0,0,0,1.8,1.36c.92,0,1.4-.42,1.4-.94,0-1.89-6.36-.53-6.36-4.82,0-2,1.69-3.62,4.75-3.62s4.69,1.67,4.92,4h-3.31A1.53,1.53,0,0,0,272.6,59c-.83,0-1.29.33-1.29.9,0,1.86,6.32.54,6.38,4.9C277.69,66.84,275.89,68.37,273,68.37Z"/><path class="cls-3" d="M63.8,78.5a2.13,2.13,0,1,1,2.14,1.93A2,2,0,0,1,63.8,78.5Zm.34,3.14h3.58V93.32H64.14Z"/><path class="cls-3" d="M78.37,87a2.25,2.25,0,1,0-4.48,0v6.34H70.31V81.64h3.58v1.55a4.31,4.31,0,0,1,3.54-1.68c2.7,0,4.5,1.85,4.5,5v6.82H78.37Z"/><path class="cls-3" d="M85,84.61H83.57v-3H85V78.79h3.58v2.85h2.35v3H88.57V89.3c0,.69.29,1,1.09,1h1.28v3H89.11c-2.42,0-4.12-1-4.12-4.06Z"/><path class="cls-3" d="M98.12,93.49a6,6,0,0,1,0-12,5.51,5.51,0,0,1,5.82,5.82,7.61,7.61,0,0,1-.07,1h-8.1A2.17,2.17,0,0,0,98,90.58a1.89,1.89,0,0,0,1.86-1.13h3.81A5.45,5.45,0,0,1,98.12,93.49Zm-2.33-7.14h4.48a2,2,0,0,0-2.19-2A2.22,2.22,0,0,0,95.79,86.35Z"/><path class="cls-3" d="M109.4,93.32h-3.58V81.64h3.58v2a4.35,4.35,0,0,1,3.66-2.08V85.3h-1c-1.69,0-2.68.59-2.68,2.6Z"/><path class="cls-3" d="M122,81.47c2.87,0,5.15,2.31,5.15,6s-2.28,6-5.15,6a4.22,4.22,0,0,1-3.6-1.8v7.2h-3.58V81.64h3.58v1.65A4.14,4.14,0,0,1,122,81.47Zm-1.07,3.12a2.91,2.91,0,1,0,2.58,2.87A2.63,2.63,0,0,0,120.89,84.59Z"/><path class="cls-3" d="M132.58,93.32H129V81.64h3.58v2a4.34,4.34,0,0,1,3.66-2.08V85.3h-1c-1.7,0-2.68.59-2.68,2.6Z"/><path class="cls-3" d="M143.28,93.49a6,6,0,1,1,6.11-6A5.79,5.79,0,0,1,143.28,93.49Zm0-3.1c1.27,0,2.47-.94,2.47-2.91s-1.18-2.91-2.43-2.91-2.43.92-2.43,2.91S142,90.39,143.28,90.39Z"/><path class="cls-3" d="M151.65,84.61h-1.3v-3h1.3v-.33c0-3.06,1.88-4.57,5.44-4.38v3c-1.38-.09-1.86.33-1.86,1.57v.1h1.93v3h-1.93v8.71h-3.58Z"/><path class="cls-3" d="M158.5,78.5a2.13,2.13,0,1,1,2.13,1.93A2,2,0,0,1,158.5,78.5Zm.33,3.14h3.58V93.32h-3.58Z"/><path class="cls-3" d="M169.76,93.49c-3.12,0-5.21-1.74-5.38-4h3.54a1.63,1.63,0,0,0,1.8,1.36c.92,0,1.4-.42,1.4-.94,0-1.89-6.36-.52-6.36-4.82,0-2,1.69-3.62,4.75-3.62s4.69,1.68,4.92,4h-3.31a1.54,1.54,0,0,0-1.72-1.32c-.84,0-1.3.34-1.3.9,0,1.86,6.33.55,6.39,4.9C174.49,92,172.69,93.49,169.76,93.49Z"/><path class="cls-3" d="M181.44,93.49c-3.12,0-5.21-1.74-5.38-4h3.54a1.63,1.63,0,0,0,1.8,1.36c.92,0,1.4-.42,1.4-.94,0-1.89-6.36-.52-6.36-4.82,0-2,1.69-3.62,4.75-3.62s4.69,1.68,4.92,4H182.8a1.53,1.53,0,0,0-1.72-1.32c-.83,0-1.29.34-1.29.9,0,1.86,6.32.55,6.38,4.9C186.17,92,184.37,93.49,181.44,93.49Z"/><path class="cls-3" d="M188,78.5a2.13,2.13,0,1,1,2.13,1.93A2,2,0,0,1,188,78.5Zm.33,3.14H192V93.32h-3.58Z"/><path class="cls-3" d="M199.86,93.49a6,6,0,1,1,6.12-6A5.8,5.8,0,0,1,199.86,93.49Zm0-3.1c1.28,0,2.47-.94,2.47-2.91s-1.17-2.91-2.42-2.91-2.43.92-2.43,2.91S198.57,90.39,199.86,90.39Z"/><path class="cls-3" d="M215.94,87a2.25,2.25,0,1,0-4.48,0v6.34h-3.58V81.64h3.58v1.55A4.3,4.3,0,0,1,215,81.51c2.7,0,4.5,1.85,4.5,5v6.82h-3.56Z"/><path class="cls-3" d="M226.43,81.47a4.08,4.08,0,0,1,3.6,1.82V81.64h3.58V93.32H230V91.67a4.14,4.14,0,0,1-3.62,1.82c-2.85,0-5.13-2.35-5.13-6S223.56,81.47,226.43,81.47Zm1,3.12a2.61,2.61,0,0,0-2.56,2.87,2.64,2.64,0,0,0,2.56,2.91,2.91,2.91,0,0,0,0-5.78Z"/><path class="cls-3" d="M235.87,78.5A2.13,2.13,0,1,1,238,80.43,2,2,0,0,1,235.87,78.5Zm.34,3.14h3.58V93.32h-3.58Z"/><path class="cls-3" d="M247.14,93.49c-3.12,0-5.22-1.74-5.38-4h3.53a1.64,1.64,0,0,0,1.8,1.36c.93,0,1.41-.42,1.41-.94,0-1.89-6.37-.52-6.37-4.82,0-2,1.7-3.62,4.76-3.62s4.68,1.68,4.92,4H248.5a1.54,1.54,0,0,0-1.72-1.32c-.84,0-1.3.34-1.3.9,0,1.86,6.33.55,6.39,4.9C251.87,92,250.07,93.49,247.14,93.49Z"/></g></svg>