<svg xmlns="http://www.w3.org/2000/svg" viewBox="0 0 309.33 152.31"><defs><style>.cls-1{fill:#284666;}.cls-1,.cls-2{isolation:isolate;}.cls-2,.cls-3{fill:#fff;}</style></defs><g id="_1" data-name="1"><rect class="cls-1" width="309.33" height="152.31" rx="36"/><path class="cls-2" d="M271.64,142.89h-234A28.3,28.3,0,0,1,9.42,114.62V37.68A28.3,28.3,0,0,1,37.68,9.42h234a28.3,28.3,0,0,1,28.27,28.26v76.94A28.3,28.3,0,0,1,271.64,142.89ZM37.68,11.51A26.2,26.2,0,0,0,11.51,37.68v76.94a26.2,26.2,0,0,0,26.17,26.17h234a26.2,26.2,0,0,0,26.17-26.17V37.68a26.2,26.2,0,0,0-26.17-26.17Z"/><path class="cls-3" d="M77.9,53.33a6.82,6.82,0,0,1,7,5.15H80.94a3.25,3.25,0,0,0-3.08-1.88c-2.2,0-3.7,1.63-3.7,4.23s1.5,4.23,3.7,4.23a3.24,3.24,0,0,0,3.08-1.89h3.93a6.79,6.79,0,0,1-7,5.13,7.12,7.12,0,0,1-7.39-7.47A7.14,7.14,0,0,1,77.9,53.33Z"/><path class="cls-3" d="M87.07,52.71h3.58V68.2H87.07Z"/><path class="cls-3" d="M97.69,56.35a4.05,4.05,0,0,1,3.6,1.82V56.52h3.58V68.2h-3.58V66.54a4.12,4.12,0,0,1-3.62,1.83c-2.85,0-5.13-2.35-5.13-6S94.82,56.35,97.69,56.35Zm1,3.12a2.6,2.6,0,0,0-2.56,2.87,2.64,2.64,0,0,0,2.56,2.91,2.91,2.91,0,0,0,0-5.78Z"/><path class="cls-3" d="M111.05,68.2h-3.58V56.52h3.58v1.94a4.35,4.35,0,0,1,3.66-2.07v3.79h-1c-1.7,0-2.68.59-2.68,2.6Z"/><path class="cls-3" d="M116.09,53.38a2.14,2.14,0,1,1,2.14,1.92A2,2,0,0,1,116.09,53.38Zm.34,3.14H120V68.2h-3.58Z"/><path class="cls-3" d="M123,59.49h-1.3v-3H123v-.34c0-3,1.88-4.56,5.44-4.37v3c-1.38-.08-1.86.34-1.86,1.57v.11h1.92v3h-1.92V68.2H123Z"/><path class="cls-3" d="M129.8,53.38a2.13,2.13,0,0,1,4.25,0,2.14,2.14,0,0,1-4.25,0Zm.34,3.14h3.58V68.2h-3.58Z"/><path class="cls-3" d="M141.46,56.35a5.35,5.35,0,0,1,5.62,4.4h-3.81a1.85,1.85,0,0,0-1.87-1.34c-1.28,0-2.15,1-2.15,3s.87,3,2.15,3A1.82,1.82,0,0,0,143.27,64h3.81a5.43,5.43,0,0,1-5.62,4.4,5.6,5.6,0,0,1-5.86-6A5.61,5.61,0,0,1,141.46,56.35Z"/><path class="cls-3" d="M153.42,56.35a4.05,4.05,0,0,1,3.6,1.82V56.52h3.58V68.2H157V66.54a4.12,4.12,0,0,1-3.62,1.83c-2.85,0-5.13-2.35-5.13-6S150.55,56.35,153.42,56.35Zm1.05,3.12a2.6,2.6,0,0,0-2.56,2.87,2.64,2.64,0,0,0,2.56,2.91,2.91,2.91,0,0,0,0-5.78Z"/><path class="cls-3" d="M168.35,56.35a5.35,5.35,0,0,1,5.61,4.4h-3.81a1.85,1.85,0,0,0-1.87-1.34c-1.27,0-2.15,1-2.15,3s.88,3,2.15,3A1.82,1.82,0,0,0,170.15,64H174a5.33,5.33,0,0,1-4.57,4.31v.78a2.44,2.44,0,0,1,2.72,2.38c0,1.72-1.46,2.43-2.91,2.43H166v-2h2.74c.53,0,.84-.12.84-.54s-.31-.52-.84-.52h-1.48V68.28c-2.83-.44-4.76-2.64-4.76-5.92A5.61,5.61,0,0,1,168.35,56.35Z"/><path class="cls-3" d="M180.3,56.35a4.05,4.05,0,0,1,3.6,1.82V56.52h3.58V68.2H183.9V66.54a4.12,4.12,0,0,1-3.62,1.83c-2.85,0-5.13-2.35-5.13-6S177.43,56.35,180.3,56.35Zm.15-3.92c1.25,0,1.9,1,2.74,1,.48,0,.82-.3.9-1h1.84c-.35,2.2-1.42,3.1-2.89,3.1-1.25,0-1.9-.94-2.74-.94-.48,0-.82.29-.92.94h-1.82C177.91,53.33,179,52.43,180.45,52.43Zm.9,7a2.6,2.6,0,0,0-2.56,2.87,2.64,2.64,0,0,0,2.56,2.91,2.91,2.91,0,0,0,0-5.78Z"/><path class="cls-3" d="M195.39,68.37a6,6,0,1,1,6.12-6A5.8,5.8,0,0,1,195.39,68.37Zm0-3.1c1.28,0,2.48-.94,2.48-2.91s-1.18-2.91-2.43-2.91-2.43.92-2.43,2.91S194.1,65.27,195.39,65.27Z"/><path class="cls-3" d="M212.29,56.35a4.28,4.28,0,0,1,3.6,1.78V52.71h3.58V68.2h-3.58V66.52a4,4,0,0,1-3.6,1.85c-2.87,0-5.15-2.35-5.15-6S209.42,56.35,212.29,56.35Zm1.05,3.12a2.6,2.6,0,0,0-2.56,2.87,2.64,2.64,0,0,0,2.56,2.91,2.91,2.91,0,0,0,0-5.78Z"/><path class="cls-3" d="M227.38,68.37a6,6,0,1,1,6.12-6A5.8,5.8,0,0,1,227.38,68.37Zm0-3.1c1.28,0,2.47-.94,2.47-2.91s-1.17-2.91-2.42-2.91-2.43.92-2.43,2.91S226.09,65.27,227.38,65.27Z"/><path class="cls-3" d="M240.16,68.37c-3.12,0-5.22-1.74-5.39-4h3.54a1.65,1.65,0,0,0,1.8,1.36c.92,0,1.41-.42,1.41-.94,0-1.89-6.37-.53-6.37-4.82,0-2,1.7-3.62,4.75-3.62s4.69,1.67,4.92,4h-3.3A1.55,1.55,0,0,0,239.8,59c-.84,0-1.3.33-1.3.9,0,1.86,6.32.54,6.39,4.9C244.89,66.84,243.09,68.37,240.16,68.37Z"/><path class="cls-3" d="M57.72,81.47c2.87,0,5.15,2.31,5.15,6s-2.28,6-5.15,6a4.22,4.22,0,0,1-3.6-1.8v7.2H50.54V81.64h3.58v1.65A4.14,4.14,0,0,1,57.72,81.47Zm-1.07,3.12a2.91,2.91,0,1,0,2.58,2.87A2.62,2.62,0,0,0,56.65,84.59Z"/><path class="cls-3" d="M69.2,81.47a4.09,4.09,0,0,1,3.6,1.82V81.64h3.58V93.32H72.8V91.67a4.16,4.16,0,0,1-3.63,1.82c-2.84,0-5.13-2.35-5.13-6S66.33,81.47,69.2,81.47Zm1,3.12a2.6,2.6,0,0,0-2.55,2.87,2.57,2.57,0,1,0,2.55-2.87Z"/><path class="cls-3" d="M86.15,81.47c2.87,0,5.15,2.31,5.15,6s-2.28,6-5.15,6a4.22,4.22,0,0,1-3.6-1.8v7.2H79V81.64h3.58v1.65A4.14,4.14,0,0,1,86.15,81.47Zm-1.07,3.12a2.91,2.91,0,1,0,2.58,2.87A2.62,2.62,0,0,0,85.08,84.59Z"/><path class="cls-3" d="M98.38,93.49a6,6,0,0,1,0-12,5.51,5.51,0,0,1,5.82,5.82,9.51,9.51,0,0,1-.06,1H96a2.17,2.17,0,0,0,2.22,2.24,1.91,1.91,0,0,0,1.87-1.13h3.81A5.47,5.47,0,0,1,98.38,93.49Zm-2.32-7.14h4.48a2,2,0,0,0-2.2-2A2.2,2.2,0,0,0,96.06,86.35Z"/><path class="cls-3" d="M105.75,78.5a2.13,2.13,0,1,1,2.13,1.93A2,2,0,0,1,105.75,78.5Zm.33,3.14h3.58V93.32h-3.58Z"/><path class="cls-3" d="M117,93.49c-3.12,0-5.21-1.74-5.38-4h3.54a1.64,1.64,0,0,0,1.8,1.36c.92,0,1.4-.42,1.4-.94,0-1.88-6.36-.52-6.36-4.82,0-2,1.69-3.62,4.75-3.62s4.69,1.68,4.92,4h-3.31a1.53,1.53,0,0,0-1.71-1.32c-.84,0-1.3.34-1.3.9,0,1.86,6.32.55,6.38,4.9C121.74,92,119.94,93.49,117,93.49Z"/><path class="cls-3" d="M135.56,81.47c2.87,0,5.15,2.31,5.15,6s-2.28,6-5.15,6a4.21,4.21,0,0,1-3.6-1.8v7.2h-3.58V81.64H132v1.65A4.13,4.13,0,0,1,135.56,81.47Zm-1.07,3.12a2.91,2.91,0,0,0,0,5.78,2.65,2.65,0,0,0,2.58-2.91A2.61,2.61,0,0,0,134.49,84.59Z"/><path class="cls-3" d="M146.18,93.32H142.6V81.64h3.58v2a4.34,4.34,0,0,1,3.66-2.08V85.3h-1c-1.7,0-2.68.59-2.68,2.6Z"/><path class="cls-3" d="M156.87,93.49a6,6,0,1,1,6.12-6A5.8,5.8,0,0,1,156.87,93.49Zm0-3.1c1.28,0,2.47-.94,2.47-2.91s-1.17-2.91-2.43-2.91-2.42.92-2.42,2.91S155.58,90.39,156.87,90.39Z"/><path class="cls-3" d="M165.25,84.61H164v-3h1.3V81.3c0-3,1.88-4.56,5.44-4.37v3c-1.38-.09-1.86.33-1.86,1.56v.11h1.92v3h-1.92v8.71h-3.58Z"/><path class="cls-3" d="M172.09,78.5a2.13,2.13,0,1,1,2.14,1.93A2,2,0,0,1,172.09,78.5Zm.34,3.14H176V93.32h-3.58Z"/><path class="cls-3" d="M183.36,93.49c-3.12,0-5.22-1.74-5.38-4h3.53a1.65,1.65,0,0,0,1.81,1.36c.92,0,1.4-.42,1.4-.94,0-1.88-6.37-.52-6.37-4.82,0-2,1.7-3.62,4.76-3.62s4.68,1.68,4.92,4h-3.31A1.54,1.54,0,0,0,183,84.13c-.84,0-1.3.34-1.3.9,0,1.86,6.33.55,6.39,4.9C188.09,92,186.29,93.49,183.36,93.49Z"/><path class="cls-3" d="M195,93.49c-3.12,0-5.21-1.74-5.38-4h3.54a1.63,1.63,0,0,0,1.8,1.36c.92,0,1.4-.42,1.4-.94,0-1.88-6.36-.52-6.36-4.82,0-2,1.69-3.62,4.75-3.62s4.69,1.68,4.92,4H196.4a1.54,1.54,0,0,0-1.72-1.32c-.83,0-1.29.34-1.29.9,0,1.86,6.32.55,6.38,4.9C199.77,92,198,93.49,195,93.49Z"/><path class="cls-3" d="M201.63,78.5a2.13,2.13,0,1,1,2.14,1.93A2,2,0,0,1,201.63,78.5Zm.34,3.14h3.58V93.32H202Z"/><path class="cls-3" d="M213.46,93.49a6,6,0,1,1,6.12-6A5.8,5.8,0,0,1,213.46,93.49Zm0-3.1c1.28,0,2.47-.94,2.47-2.91s-1.17-2.91-2.43-2.91-2.42.92-2.42,2.91S212.16,90.39,213.46,90.39Z"/><path class="cls-3" d="M229.54,87a2.25,2.25,0,1,0-4.48,0v6.34h-3.58V81.64h3.58v1.55a4.27,4.27,0,0,1,3.54-1.68c2.7,0,4.5,1.85,4.5,5v6.82h-3.56Z"/><path class="cls-3" d="M240,81.47a4.08,4.08,0,0,1,3.6,1.82V81.64h3.58V93.32h-3.58V91.67A4.14,4.14,0,0,1,240,93.49c-2.85,0-5.13-2.35-5.13-6S237.16,81.47,240,81.47Zm1.05,3.12a2.61,2.61,0,0,0-2.56,2.87,2.64,2.64,0,0,0,2.56,2.91,2.91,2.91,0,0,0,0-5.78Z"/><path class="cls-3" d="M249.47,78.5a2.13,2.13,0,1,1,2.14,1.93A2,2,0,0,1,249.47,78.5Zm.34,3.14h3.58V93.32h-3.58Z"/><path class="cls-3" d="M260.74,93.49c-3.12,0-5.22-1.74-5.39-4h3.54a1.64,1.64,0,0,0,1.8,1.36c.92,0,1.41-.42,1.41-.94,0-1.88-6.37-.52-6.37-4.82,0-2,1.7-3.62,4.75-3.62s4.69,1.68,4.92,4h-3.3a1.55,1.55,0,0,0-1.72-1.32c-.84,0-1.3.34-1.3.9,0,1.86,6.32.55,6.39,4.9C265.47,92,263.67,93.49,260.74,93.49Z"/></g></svg>