<svg id="BG" xmlns="http://www.w3.org/2000/svg" viewBox="0 0 663.56 663.42"><defs><style>.cls-1,.cls-2{fill:#cce3f1;}.cls-1{isolation:isolate;}</style></defs><path class="cls-1" d="M341.31,0V64.92c143,5,257.37,122.5,257.37,266.72,0,147.4-119.5,266.89-266.9,266.89S64.88,479,64.88,331.64a265.94,265.94,0,0,1,68.81-178.87L87.77,106.86A330.57,330.57,0,0,0,0,331.64C0,514.87,148.54,663.42,331.78,663.42S663.56,514.87,663.56,331.64C663.56,151.59,520.14,5,341.31,0Z"/><polygon class="cls-2" points="161.15 81.67 155.81 130.89 150.47 180.12 106.59 136.23 62.7 92.34 111.92 87 161.15 81.67"/></svg>