<svg xmlns="http://www.w3.org/2000/svg" width="183.306" height="139.978" viewBox="0 0 183.306 139.978">
  <g id="Grupo_1787" data-name="Grupo 1787" transform="translate(-7665.521 -13580.744) rotate(13)" opacity="0.6">
    <path id="Caminho_25909" data-name="Caminho 25909" d="M687.359,62.727q-.117,0-.2-.008l.1-1.042c1.366.134,14.379-2.113,22.8-3.657l.088-.016,22.839,3.677-.166,1.034-22.661-3.648C707.692,59.519,690.1,62.727,687.359,62.727Z" transform="translate(9969.059 11463.788)" fill="#fff"/>
    <path id="Caminho_25910" data-name="Caminho 25910" d="M730.039,66.75,709.1,63.484c-6.035.852-15.134,2.156-15.678,2.293l-.254-1.015c.775-.194,14.321-2.107,15.862-2.324l.078-.01.077.012L730.2,65.716Z" transform="translate(9969.34 11463.995)" fill="#fff"/>
    <path id="Caminho_25911" data-name="Caminho 25911" d="M727.615,72.842l-19-3.646c-1.579.219-8.361,1.146-9.344.947l.2-1.026a84.4,84.4,0,0,0,9.08-.969l.086-.012,19.171,3.679Z" transform="translate(9969.626 11464.263)" fill="#fff"/>
    <rect id="Retângulo_1368" data-name="Retângulo 1368" width="1.047" height="12.434" transform="translate(10685.904 11542.317) rotate(-82.873)" fill="#fff"/>
    <circle id="Elipse_231" data-name="Elipse 231" cx="8.165" cy="8.165" r="8.165" transform="translate(10592.392 11523.991)" fill="#fff"/>
    <path id="Caminho_25904" data-name="Caminho 25904" d="M601.439,40l70.274,15.811c2.773-.3,37.562-4.075,41.908-5.162a19.649,19.649,0,0,1,4.214-.3h0c8.923,0,27.771,1.994,27.96,2.014l.966.1-.031.971c-.007.227-.734,22.967-1.663,45.486-.546,13.229-1.054,23.8-1.51,31.406-.271,4.527-.527,8.049-.761,10.468-.127,1.317-.251,2.341-.369,3.043-.165.989-.337,1.708-1.039,1.942a2.216,2.216,0,0,1-.711.091c-1.945,0-8.916-1.291-16.3-2.658-6.637-1.229-14.161-2.622-15.911-2.622-.054,0-.089,0-.109,0-.314.1-1.17.242-8.485.557-4.612.2-10.715.42-16.617.633-10.434.377-23.412.846-24.605,1.112a1.547,1.547,0,0,1-.468.061c-2.719,0-29.813-5.682-38.716-7.549-17.743-3.721-35.2-7.491-35.375-7.528l-1.017-.22Zm70.153,17.93L603.052,42.51l-17.5,83.543c3.986.859,19.06,4.1,34.346,7.306,30.739,6.447,37.189,7.479,38.247,7.5.382-.1,1.573-.243,8.417-.538,4.613-.2,10.716-.42,16.619-.633,10.432-.377,23.408-.846,24.6-1.112a2.278,2.278,0,0,1,.685-.082c1.943,0,8.913,1.291,16.293,2.657,6.255,1.158,13.3,2.462,15.555,2.609.108-.571.281-1.789.506-4.37.229-2.63.48-6.29.744-10.878.446-7.737.941-18.215,1.469-31.141.792-19.37,1.425-38.555,1.571-43.033-3.966-.406-19.115-1.9-26.772-1.9h0a17.473,17.473,0,0,0-3.706.242c-4.643,1.161-40.826,5.065-42.364,5.231Z" transform="translate(9964.186 11462.945)" fill="#fff"/>
    <path id="Caminho_25905" data-name="Caminho 25905" d="M655.465,137.883l-63.487-15.676.081-.479c.033-.191,3.268-19.307,6.579-38.2,6.761-38.574,7.161-38.654,7.714-38.765l.118-.024.115.03L668.166,60.5Zm-62.293-16.459L654.616,136.6,666.977,61.28,606.753,45.891c-1.32,4.356-8.718,46.806-13.58,75.533Z" transform="translate(9964.603 11463.167)" fill="#fff"/>
    <path id="Caminho_25906" data-name="Caminho 25906" d="M730.585,137.181l-26.766-4.33c-20.633,1.587-45.357,3.4-46.1,3.027l-.347-.173.064-.382,12.8-75.605.42-.021c.481-.023,11.78-.579,12.365-.579h.244l.186.2c.179.214.6.71-1.919,14.8l16.328-.96-3.275,38.731,11.785-1.1.067.012,24.15,4.122ZM703.863,131.8l.061.01,25.613,4.143V115.8l-23.21-3.962-12.894,1.209,3.279-38.774-16.448.968.118-.654c1.078-6.009,2.147-12.718,2.2-14.408-1.71.068-7.8.363-11.455.542l-12.557,74.2c3.925-.037,28.607-1.837,45.232-3.116Z" transform="translate(9967.664 11463.841)" fill="#fff"/>
    <path id="Caminho_25907" data-name="Caminho 25907" d="M650.011,88.533l-31.184-6.658.073-.487c4.682-31.09,4.807-31.131,5.219-31.267l.306-.1.231.228-.37.371.477.2c-.274.859-2.965,18.368-4.755,30.241l30.221,6.453ZM624.284,50.621l-.368.368Z" transform="translate(9965.859 11463.414)" fill="#fff"/>
    <path id="Caminho_25908" data-name="Caminho 25908" d="M587.772,114.725l-1.026-.209L591.818,89.7l41.924,9.615-.232,1.02-40.88-9.374Z" transform="translate(9989.874 11474.747)" fill="#fff"/>
    <path id="Caminho_25912" data-name="Caminho 25912" d="M722.809,88.432l-13.983-2.107c-.918.188-8.433,1.727-9.141,1.9l-.253-1.015c.773-.193,8.929-1.862,9.275-1.933l.091-.019L722.965,87.4Z" transform="translate(9969.634 11465.064)" fill="#fff"/>
    <path id="Caminho_25913" data-name="Caminho 25913" d="M700.773,91.369,682.767,88.88l-7.79,2.469-.317-1,8.018-2.542,18.24,2.523Z" transform="translate(9993.99 11474.658)" fill="#fff"/>
    <circle id="Elipse_232" data-name="Elipse 232" cx="8.267" cy="8.267" r="8.267" transform="translate(10585.179 11571.146)" fill="#fff"/>
    <circle id="Elipse_233" data-name="Elipse 233" cx="9.189" cy="9.189" r="9.189" transform="translate(10565.211 11542.952)" fill="#fff"/>
    <ellipse id="Elipse_234" data-name="Elipse 234" cx="9.949" cy="8.531" rx="9.949" ry="8.531" transform="translate(10638.44 11562.274) rotate(-74.834)" fill="#fff"/>
    <ellipse id="Elipse_235" data-name="Elipse 235" cx="5.916" cy="5.073" rx="5.916" ry="5.073" transform="translate(10634.199 11581.939) rotate(-74.834)" fill="#fff"/>
    <ellipse id="Elipse_236" data-name="Elipse 236" cx="8.007" cy="6.866" rx="8.007" ry="6.866" transform="translate(10647.705 11592.814) rotate(-74.835)" fill="#fff"/>
  </g>
</svg>
