<svg xmlns="http://www.w3.org/2000/svg" width="851.435" height="134.261" viewBox="0 0 851.435 134.261">
  <g id="Grupo_1770" data-name="Grupo 1770" transform="translate(-129.282 -240.369)">
    <g id="Grupo_1649" data-name="Grupo 1649" transform="translate(203.808 18.25)">
      <g id="Grupo_1647" data-name="Grupo 1647">
        <path id="Caminho_21149" data-name="Caminho 21149" d="M197.592,104.261H0L44.843,52.131,0,0H197.592l44.843,52.131Z" transform="translate(128.475 252.119)" fill="#294667"/>
        <path id="Caminho_21150" data-name="Caminho 21150" d="M198.531,102.529H8.471L50.689,53.015,8.471,3.5H198.533l42.593,49.515ZM10.28,101.782H198.188l41.95-48.767L198.188,4.247H10.28L51.748,53.015Z" transform="translate(126.334 251.235)" fill="#fff"/>
      </g>
      <text id="Programa_de_Prevenção_de_Riscos_Ambientais_PPRA_" data-name="Programa de Prevenção de Riscos Ambientais (PPRA)" transform="translate(183 276.25)" fill="#fff" font-size="14" font-family="Poppins-Medium, Poppins" font-weight="500"><tspan x="0" y="15">Programa de </tspan><tspan x="0" y="33">Prevenção de Riscos </tspan><tspan x="0" y="51">Ambientais (PPRA)</tspan></text>
    </g>
    <g id="Grupo_1651" data-name="Grupo 1651" transform="translate(609.808 18.25)">
      <g id="Grupo_1647-2" data-name="Grupo 1647">
        <path id="Caminho_21149-2" data-name="Caminho 21149" d="M197.592,104.261H0L44.843,52.131,0,0H197.592l44.843,52.131Z" transform="translate(128.475 252.119)" fill="#294667"/>
        <path id="Caminho_21150-2" data-name="Caminho 21150" d="M198.531,102.529H8.471L50.689,53.015,8.471,3.5H198.533l42.593,49.515ZM10.28,101.782H198.188l41.95-48.767L198.188,4.247H10.28L51.748,53.015Z" transform="translate(126.334 251.235)" fill="#fff"/>
      </g>
      <text id="Análise_Ergonômica" data-name="Análise Ergonômica" transform="translate(191 285.25)" fill="#fff" font-size="14" font-family="Poppins-Medium, Poppins" font-weight="500"><tspan x="0" y="15">Análise </tspan><tspan x="0" y="33">Ergonômica</tspan></text>
    </g>
    <g id="Grupo_1652" data-name="Grupo 1652" transform="translate(0.808 18.25)">
      <g id="Grupo_1647-3" data-name="Grupo 1647">
        <path id="Caminho_21149-3" data-name="Caminho 21149" d="M197.592,104.261H0L44.843,52.131,0,0H197.592l44.843,52.131Z" transform="translate(128.475 252.119)" fill="#294667"/>
        <path id="Caminho_21150-3" data-name="Caminho 21150" d="M198.531,102.529H8.471L50.689,53.015,8.471,3.5H198.533l42.593,49.515ZM10.28,101.782H198.188l41.95-48.767L198.188,4.247H10.28L51.748,53.015Z" transform="translate(126.334 251.235)" fill="#fff"/>
      </g>
      <text id="Programa_de_Controle_Médico_em_Saúde_Ocupacional_PCMSO_" data-name="Programa de Controle Médico em Saúde Ocupacional (PCMSO)" transform="translate(183 267)" fill="#fff" font-size="14" font-family="Poppins-Medium, Poppins" font-weight="500"><tspan x="0" y="15">Programa de </tspan><tspan x="0" y="33">Controle Médico em </tspan><tspan x="0" y="51">Saúde Ocupacional </tspan><tspan x="0" y="69">(PCMSO)</tspan></text>
    </g>
    <g id="Grupo_1657" data-name="Grupo 1657" transform="translate(406.808 -11.75)">
      <g id="Grupo_1647-4" data-name="Grupo 1647">
        <path id="Caminho_21149-4" data-name="Caminho 21149" d="M197.592,104.261H0L44.843,52.131,0,0H197.592l44.843,52.131Z" transform="translate(128.475 252.119)" fill="#ef7100"/>
        <path id="Caminho_21150-4" data-name="Caminho 21150" d="M198.531,102.529H8.471L50.689,53.015,8.471,3.5H198.533l42.593,49.515ZM10.28,101.782H198.188l41.95-48.767L198.188,4.247H10.28L51.748,53.015Z" transform="translate(126.334 251.235)" fill="#fff"/>
      </g>
      <text id="Mapa_de_Risco" data-name="Mapa de Risco" transform="translate(191 294.25)" fill="#fff" font-size="14" font-family="Poppins-Medium, Poppins" font-weight="500"><tspan x="0" y="15">Mapa de Risco</tspan></text>
    </g>
  </g>
</svg>
