<svg xmlns="http://www.w3.org/2000/svg" width="242.435" height="104.261" viewBox="0 0 242.435 104.261">
  <g id="Grupo_1674" data-name="Grupo 1674" transform="translate(-128.475 -252.119)">
    <g id="Grupo_1647" data-name="Grupo 1647">
      <path id="Caminho_21149" data-name="Caminho 21149" d="M197.592,104.261H0L44.843,52.131,0,0H197.592l44.843,52.131Z" transform="translate(128.475 252.119)" fill="#ef7100"/>
      <path id="Caminho_21150" data-name="Caminho 21150" d="M198.531,102.529H8.471L50.689,53.015,8.471,3.5H198.533l42.593,49.515ZM10.28,101.782H198.188l41.95-48.767L198.188,4.247H10.28L51.748,53.015Z" transform="translate(126.334 251.235)" fill="#fff"/>
    </g>
    <path id="Caminho_31877" data-name="Caminho 31877" d="M7.616,15H9.3L5.81,5.256H3.962L.476,15H2.142l.7-1.988H6.916ZM6.468,11.71H3.29l1.6-4.522ZM16.282,15h1.582V10.45A3,3,0,0,0,14.7,7.16a2.968,2.968,0,0,0-2.3,1.008V7.286h-1.6V15h1.6V10.688A1.87,1.87,0,0,1,14.35,8.546c1.162,0,1.932.728,1.932,2.142Zm3.08-3.892a3.729,3.729,0,0,0,3.612,4.018,3.32,3.32,0,0,0,2.7-1.274V15h1.61V7.286h-1.61v1.12A3.283,3.283,0,0,0,23,7.16,3.672,3.672,0,0,0,19.362,11.108Zm6.314.028a2.4,2.4,0,0,1-2.338,2.6A2.43,2.43,0,0,1,21,11.108a2.367,2.367,0,0,1,2.338-2.562A2.392,2.392,0,0,1,25.676,11.136ZM21.938,5.564V6.74l3.094-1.526V3.856ZM29.386,15h1.6V4.64h-1.6Zm3.7,0h1.6V7.286h-1.6Zm.812-8.736a1.022,1.022,0,1,0-1.022-1.022A1.007,1.007,0,0,0,33.894,6.264Zm8.638,6.58c-.084-2.786-4.438-1.918-4.438-3.472,0-.518.448-.868,1.3-.868a1.276,1.276,0,0,1,1.442,1.134h1.6C42.35,8.1,41.2,7.16,39.452,7.16c-1.82,0-2.968.994-2.968,2.226,0,2.828,4.48,1.96,4.48,3.472,0,.532-.49.924-1.414.924a1.407,1.407,0,0,1-1.54-1.148H36.358c.07,1.4,1.372,2.492,3.22,2.492C41.4,15.126,42.532,14.146,42.532,12.844ZM47.5,8.5a2,2,0,0,1,2.156,1.946h-4.27A2.1,2.1,0,0,1,47.5,8.5Zm3.612,4.2H49.392a1.868,1.868,0,0,1-1.82,1.078,2.122,2.122,0,0,1-2.2-2.044h5.894a4.923,4.923,0,0,0,.056-.784A3.6,3.6,0,0,0,47.572,7.16a3.694,3.694,0,0,0-3.85,3.976,3.743,3.743,0,0,0,3.85,3.99A3.525,3.525,0,0,0,51.114,12.7ZM6.426,23.256H1.05V33H6.426V31.7H2.646V28.716h3.36v-1.3H2.646V24.558h3.78ZM9.982,28.94c0-1.638.728-2.128,1.9-2.128h.406V25.16a2.513,2.513,0,0,0-2.31,1.246v-1.12h-1.6V33h1.6Zm3.248.168a3.733,3.733,0,0,0,3.64,4.018,3.311,3.311,0,0,0,2.674-1.288v1.288a2.055,2.055,0,0,1-2.156,2.3,2.15,2.15,0,0,1-2.2-1.344H13.608c.2,1.708,1.722,2.73,3.78,2.73a3.5,3.5,0,0,0,3.766-3.682v-7.84h-1.61v1.12A3.268,3.268,0,0,0,16.87,25.16,3.672,3.672,0,0,0,13.23,29.108Zm6.314.028a2.4,2.4,0,0,1-2.338,2.6,2.43,2.43,0,0,1-2.338-2.632,2.367,2.367,0,0,1,2.338-2.562A2.392,2.392,0,0,1,19.544,29.136Zm11.06,0A3.8,3.8,0,0,0,26.67,25.16a3.8,3.8,0,0,0-3.934,3.976,3.761,3.761,0,0,0,3.864,3.99A3.864,3.864,0,0,0,30.6,29.136Zm-6.244,0a2.3,2.3,0,0,1,2.282-2.59,2.334,2.334,0,0,1,2.324,2.59,2.376,2.376,0,0,1-2.366,2.6C25.4,31.74,24.36,30.886,24.36,29.136ZM37.66,33h1.582V28.45a3,3,0,0,0-3.164-3.29,2.968,2.968,0,0,0-2.3,1.008v-.882h-1.6V33h1.6V28.688a1.87,1.87,0,0,1,1.946-2.142c1.162,0,1.932.728,1.932,2.142Zm10.962-3.864a3.934,3.934,0,1,0-7.868,0,3.761,3.761,0,0,0,3.864,3.99A3.864,3.864,0,0,0,48.622,29.136Zm-6.244,0a2.3,2.3,0,0,1,2.282-2.59,2.334,2.334,0,0,1,2.324,2.59,2.376,2.376,0,0,1-2.366,2.6C43.414,31.74,42.378,30.886,42.378,29.136Zm4.312-5.768-2-1.162-2,1.162v1.246l2-1.2,2,1.2ZM61.138,33H62.72V28.45a3.162,3.162,0,0,0-5.866-1.764,2.975,2.975,0,0,0-2.772-1.526A2.938,2.938,0,0,0,51.8,26.168v-.882H50.2V33h1.6V28.688a1.87,1.87,0,0,1,1.946-2.142c1.162,0,1.932.728,1.932,2.142V33H57.26V28.688a1.87,1.87,0,0,1,1.946-2.142c1.162,0,1.932.728,1.932,2.142Zm3.612,0h1.6V25.286h-1.6Zm.812-8.736a1.022,1.022,0,1,0-1.022-1.022A1.007,1.007,0,0,0,65.562,24.264Zm2.352,4.872a3.689,3.689,0,0,0,3.78,3.99,3.465,3.465,0,0,0,3.556-2.562H73.528a1.762,1.762,0,0,1-1.834,1.218c-1.288,0-2.142-.952-2.142-2.646s.854-2.632,2.142-2.632a1.8,1.8,0,0,1,1.834,1.218H75.25a3.356,3.356,0,0,0-3.556-2.562A3.685,3.685,0,0,0,67.914,29.136Zm8.4-.028a3.729,3.729,0,0,0,3.612,4.018,3.32,3.32,0,0,0,2.7-1.274V33h1.61V25.286h-1.61v1.12a3.283,3.283,0,0,0-2.674-1.246A3.672,3.672,0,0,0,76.314,29.108Zm6.314.028a2.4,2.4,0,0,1-2.338,2.6,2.43,2.43,0,0,1-2.338-2.632,2.367,2.367,0,0,1,2.338-2.562A2.392,2.392,0,0,1,82.628,29.136Z" transform="translate(191 285.25)" fill="#fff"/>
  </g>
</svg>
