<svg xmlns="http://www.w3.org/2000/svg" width="851.435" height="134.261" viewBox="0 0 851.435 134.261">
  <g id="Grupo_1770" data-name="Grupo 1770" transform="translate(-129.282 -240.369)">
    <g id="Grupo_1649" data-name="Grupo 1649" transform="translate(203.808 18.25)">
      <g id="Grupo_1647" data-name="Grupo 1647">
        <path id="Caminho_21149" data-name="Caminho 21149" d="M197.592,104.261H0L44.843,52.131,0,0H197.592l44.843,52.131Z" transform="translate(128.475 252.119)" fill="#294667"/>
        <path id="Caminho_21150" data-name="Caminho 21150" d="M198.531,102.529H8.471L50.689,53.015,8.471,3.5H198.533l42.593,49.515ZM10.28,101.782H198.188l41.95-48.767L198.188,4.247H10.28L51.748,53.015Z" transform="translate(126.334 251.235)" fill="#fff"/>
      </g>
      <path id="Caminho_31882" data-name="Caminho 31882" d="M2.646,9.75V6.572H4.41c1.246,0,1.806.588,1.806,1.6,0,.98-.56,1.582-1.806,1.582ZM7.854,8.168c0-1.582-1.134-2.9-3.444-2.9H1.05V15h1.6V11.052H4.41C6.944,11.052,7.854,9.554,7.854,8.168Zm3.122,2.772c0-1.638.728-2.128,1.9-2.128h.406V7.16a2.513,2.513,0,0,0-2.31,1.246V7.286H9.38V15h1.6Zm11.13.2A3.8,3.8,0,0,0,18.172,7.16a3.8,3.8,0,0,0-3.934,3.976,3.761,3.761,0,0,0,3.864,3.99A3.864,3.864,0,0,0,22.106,11.136Zm-6.244,0a2.3,2.3,0,0,1,2.282-2.59,2.334,2.334,0,0,1,2.324,2.59,2.376,2.376,0,0,1-2.366,2.6C16.9,13.74,15.862,12.886,15.862,11.136Zm7.294-.028a3.733,3.733,0,0,0,3.64,4.018,3.311,3.311,0,0,0,2.674-1.288v1.288a2.055,2.055,0,0,1-2.156,2.3,2.15,2.15,0,0,1-2.2-1.344H23.534c.2,1.708,1.722,2.73,3.78,2.73a3.5,3.5,0,0,0,3.766-3.682V7.286H29.47v1.12A3.268,3.268,0,0,0,26.8,7.16,3.672,3.672,0,0,0,23.156,11.108Zm6.314.028a2.4,2.4,0,0,1-2.338,2.6,2.43,2.43,0,0,1-2.338-2.632,2.367,2.367,0,0,1,2.338-2.562A2.392,2.392,0,0,1,29.47,11.136Zm5.306-.2c0-1.638.728-2.128,1.9-2.128h.406V7.16a2.513,2.513,0,0,0-2.31,1.246V7.286h-1.6V15h1.6Zm3.248.168a3.729,3.729,0,0,0,3.612,4.018,3.32,3.32,0,0,0,2.7-1.274V15h1.61V7.286h-1.61v1.12A3.283,3.283,0,0,0,41.664,7.16,3.672,3.672,0,0,0,38.024,11.108Zm6.314.028A2.4,2.4,0,0,1,42,13.74a2.43,2.43,0,0,1-2.338-2.632A2.367,2.367,0,0,1,42,8.546,2.392,2.392,0,0,1,44.338,11.136ZM58.982,15h1.582V10.45A3.162,3.162,0,0,0,54.7,8.686,2.975,2.975,0,0,0,51.926,7.16a2.938,2.938,0,0,0-2.282,1.008V7.286h-1.6V15h1.6V10.688A1.87,1.87,0,0,1,51.59,8.546c1.162,0,1.932.728,1.932,2.142V15H55.1V10.688A1.87,1.87,0,0,1,57.05,8.546c1.162,0,1.932.728,1.932,2.142Zm3.08-3.892a3.729,3.729,0,0,0,3.612,4.018,3.32,3.32,0,0,0,2.7-1.274V15h1.61V7.286h-1.61v1.12A3.283,3.283,0,0,0,65.7,7.16,3.672,3.672,0,0,0,62.062,11.108Zm6.314.028a2.4,2.4,0,0,1-2.338,2.6A2.43,2.43,0,0,1,63.7,11.108a2.367,2.367,0,0,1,2.338-2.562A2.392,2.392,0,0,1,68.376,11.136Zm6.818-.028a3.733,3.733,0,0,0,3.64,4.018,3.2,3.2,0,0,0,2.674-1.288V15h1.61V4.64h-1.61V8.364a3.553,3.553,0,0,0-2.66-1.2A3.674,3.674,0,0,0,75.194,11.108Zm6.314.028a2.4,2.4,0,0,1-2.338,2.6,2.43,2.43,0,0,1-2.338-2.632A2.367,2.367,0,0,1,79.17,8.546,2.392,2.392,0,0,1,81.508,11.136ZM88.466,8.5a2,2,0,0,1,2.156,1.946h-4.27A2.1,2.1,0,0,1,88.466,8.5Zm3.612,4.2H90.356a1.868,1.868,0,0,1-1.82,1.078,2.122,2.122,0,0,1-2.2-2.044h5.894a4.923,4.923,0,0,0,.056-.784A3.6,3.6,0,0,0,88.536,7.16a3.694,3.694,0,0,0-3.85,3.976,3.743,3.743,0,0,0,3.85,3.99A3.525,3.525,0,0,0,92.078,12.7ZM2.646,27.75V24.572H4.41c1.246,0,1.806.588,1.806,1.6,0,.98-.56,1.582-1.806,1.582Zm5.208-1.582c0-1.582-1.134-2.9-3.444-2.9H1.05V33h1.6V29.052H4.41C6.944,29.052,7.854,27.554,7.854,26.168Zm3.122,2.772c0-1.638.728-2.128,1.9-2.128h.406V25.16a2.513,2.513,0,0,0-2.31,1.246v-1.12H9.38V33h1.6ZM18,26.5A2,2,0,0,1,20.16,28.45H15.89A2.1,2.1,0,0,1,18,26.5Zm3.612,4.2H19.894a1.868,1.868,0,0,1-1.82,1.078,2.122,2.122,0,0,1-2.2-2.044H21.77a4.923,4.923,0,0,0,.056-.784,3.6,3.6,0,0,0-3.752-3.794,3.694,3.694,0,0,0-3.85,3.976,3.743,3.743,0,0,0,3.85,3.99A3.525,3.525,0,0,0,21.616,30.7Zm.868-5.418L25.41,33h1.9l2.94-7.714H28.56l-2.184,6.286-2.184-6.286ZM34.706,26.5a2,2,0,0,1,2.156,1.946h-4.27A2.1,2.1,0,0,1,34.706,26.5Zm3.612,4.2H36.6a1.868,1.868,0,0,1-1.82,1.078,2.122,2.122,0,0,1-2.2-2.044h5.894a4.923,4.923,0,0,0,.056-.784,3.6,3.6,0,0,0-3.752-3.794,3.694,3.694,0,0,0-3.85,3.976,3.743,3.743,0,0,0,3.85,3.99A3.525,3.525,0,0,0,38.318,30.7ZM45.57,33h1.582V28.45a3,3,0,0,0-3.164-3.29,2.968,2.968,0,0,0-2.3,1.008v-.882H40.1V33h1.6V28.688a1.87,1.87,0,0,1,1.946-2.142c1.162,0,1.932.728,1.932,2.142Zm3.08-3.864a3.672,3.672,0,0,0,3.206,3.948v1.54h.77c.49,0,.784.1.784.518s-.294.518-.784.518H51.1v1.008h1.848a1.591,1.591,0,0,0,1.778-1.526c0-.966-.784-1.47-1.82-1.47V33.1a3.38,3.38,0,0,0,3.08-2.534H54.264a1.762,1.762,0,0,1-1.834,1.218c-1.288,0-2.142-.952-2.142-2.646S51.142,26.5,52.43,26.5a1.8,1.8,0,0,1,1.834,1.218h1.722A3.356,3.356,0,0,0,52.43,25.16,3.685,3.685,0,0,0,48.65,29.136Zm8.4-.028a3.729,3.729,0,0,0,3.612,4.018,3.32,3.32,0,0,0,2.7-1.274V33h1.61V25.286h-1.61v1.12A3.283,3.283,0,0,0,60.69,25.16,3.672,3.672,0,0,0,57.05,29.108Zm6.314.028a2.4,2.4,0,0,1-2.338,2.6,2.43,2.43,0,0,1-2.338-2.632,2.367,2.367,0,0,1,2.338-2.562A2.392,2.392,0,0,1,63.364,29.136ZM59,24.488h.9c.056-.406.294-.6.6-.6.56,0,.868.63,1.624.63.812,0,1.428-.532,1.582-1.638h-.9a.59.59,0,0,1-.6.588c-.56,0-.868-.616-1.624-.616C59.766,22.85,59.15,23.382,59,24.488Zm15.428,4.648a3.934,3.934,0,1,0-7.868,0,3.761,3.761,0,0,0,3.864,3.99A3.864,3.864,0,0,0,74.424,29.136Zm-6.244,0a2.3,2.3,0,0,1,2.282-2.59,2.334,2.334,0,0,1,2.324,2.59,2.376,2.376,0,0,1-2.366,2.6C69.216,31.74,68.18,30.886,68.18,29.136Zm10.934-.028a3.733,3.733,0,0,0,3.64,4.018,3.2,3.2,0,0,0,2.674-1.288V33h1.61V22.64h-1.61v3.724a3.553,3.553,0,0,0-2.66-1.2A3.674,3.674,0,0,0,79.114,29.108Zm6.314.028a2.4,2.4,0,0,1-2.338,2.6,2.43,2.43,0,0,1-2.338-2.632,2.367,2.367,0,0,1,2.338-2.562A2.392,2.392,0,0,1,85.428,29.136ZM92.386,26.5a2,2,0,0,1,2.156,1.946h-4.27A2.1,2.1,0,0,1,92.386,26.5ZM96,30.7H94.276a1.868,1.868,0,0,1-1.82,1.078,2.122,2.122,0,0,1-2.2-2.044h5.894a4.923,4.923,0,0,0,.056-.784,3.6,3.6,0,0,0-3.752-3.794,3.694,3.694,0,0,0-3.85,3.976,3.743,3.743,0,0,0,3.85,3.99A3.525,3.525,0,0,0,96,30.7Zm10.584-4.522c0,.966-.56,1.652-1.806,1.652h-1.764V24.572h1.764C106.022,24.572,106.582,25.2,106.582,26.182Zm-5.166-2.912V33h1.6V29.108h1.218L106.47,33h1.9l-2.408-4.032a2.769,2.769,0,0,0,2.254-2.786c0-1.582-1.134-2.912-3.444-2.912ZM110.264,33h1.6V25.286h-1.6Zm.812-8.736a1.022,1.022,0,1,0-1.022-1.022A1.007,1.007,0,0,0,111.076,24.264Zm8.638,6.58c-.084-2.786-4.438-1.918-4.438-3.472,0-.518.448-.868,1.3-.868a1.276,1.276,0,0,1,1.442,1.134h1.6c-.084-1.54-1.232-2.478-2.982-2.478-1.82,0-2.968.994-2.968,2.226,0,2.828,4.48,1.96,4.48,3.472,0,.532-.49.924-1.414.924a1.407,1.407,0,0,1-1.54-1.148H113.54c.07,1.4,1.372,2.492,3.22,2.492C118.58,33.126,119.714,32.146,119.714,30.844Zm1.19-1.708a3.689,3.689,0,0,0,3.78,3.99,3.465,3.465,0,0,0,3.556-2.562h-1.722a1.762,1.762,0,0,1-1.834,1.218c-1.288,0-2.142-.952-2.142-2.646s.854-2.632,2.142-2.632a1.8,1.8,0,0,1,1.834,1.218h1.722a3.355,3.355,0,0,0-3.556-2.562A3.685,3.685,0,0,0,120.9,29.136Zm16.282,0a3.934,3.934,0,1,0-7.868,0,3.761,3.761,0,0,0,3.864,3.99A3.864,3.864,0,0,0,137.186,29.136Zm-6.244,0a2.3,2.3,0,0,1,2.282-2.59,2.334,2.334,0,0,1,2.324,2.59,2.376,2.376,0,0,1-2.366,2.6C131.978,31.74,130.942,30.886,130.942,29.136Zm13.58,1.708c-.084-2.786-4.438-1.918-4.438-3.472,0-.518.448-.868,1.3-.868a1.276,1.276,0,0,1,1.442,1.134h1.6c-.084-1.54-1.232-2.478-2.982-2.478-1.82,0-2.968.994-2.968,2.226,0,2.828,4.48,1.96,4.48,3.472,0,.532-.49.924-1.414.924A1.407,1.407,0,0,1,140,30.634h-1.652c.07,1.4,1.372,2.492,3.22,2.492C143.388,33.126,144.522,32.146,144.522,30.844ZM7.616,51H9.3L5.81,41.256H3.962L.476,51H2.142l.7-1.988H6.916ZM6.468,47.71H3.29l1.6-4.522ZM21.742,51h1.582V46.45a3.014,3.014,0,0,0-3.178-3.29,3.02,3.02,0,0,0-2.688,1.526,2.975,2.975,0,0,0-2.772-1.526A2.938,2.938,0,0,0,12.4,44.168v-.882h-1.6V51h1.6V46.688a1.87,1.87,0,0,1,1.946-2.142c1.162,0,1.932.728,1.932,2.142V51h1.582V46.688a1.87,1.87,0,0,1,1.946-2.142c1.162,0,1.932.728,1.932,2.142Zm5.208-6.566V40.64h-1.6V51h1.6V49.88a3.278,3.278,0,0,0,2.688,1.246,3.723,3.723,0,0,0,3.626-4.018,3.653,3.653,0,0,0-3.626-3.948A3.3,3.3,0,0,0,26.95,44.434Zm4.69,2.674a2.432,2.432,0,0,1-2.352,2.632,2.611,2.611,0,0,1,0-5.194A2.369,2.369,0,0,1,31.64,47.108ZM34.846,51h1.6V43.286h-1.6Zm.812-8.736a1.022,1.022,0,1,0-1.022-1.022A1.007,1.007,0,0,0,35.658,42.264ZM41.79,44.5a2,2,0,0,1,2.156,1.946h-4.27A2.1,2.1,0,0,1,41.79,44.5ZM45.4,48.7H43.68a1.868,1.868,0,0,1-1.82,1.078,2.122,2.122,0,0,1-2.2-2.044h5.894a4.923,4.923,0,0,0,.056-.784A3.6,3.6,0,0,0,41.86,43.16a3.694,3.694,0,0,0-3.85,3.976,3.743,3.743,0,0,0,3.85,3.99A3.525,3.525,0,0,0,45.4,48.7ZM52.654,51h1.582V46.45a3,3,0,0,0-3.164-3.29,2.968,2.968,0,0,0-2.3,1.008v-.882h-1.6V51h1.6V46.688a1.87,1.87,0,0,1,1.946-2.142c1.162,0,1.932.728,1.932,2.142Zm3.864-2.142c0,1.568.854,2.142,2.226,2.142H60V49.67h-.98c-.672,0-.9-.238-.9-.812v-4.27H60v-1.3H58.128V41.368h-1.61v1.918h-.91v1.3h.91Zm4.424-1.75a3.729,3.729,0,0,0,3.612,4.018,3.32,3.32,0,0,0,2.7-1.274V51h1.61V43.286h-1.61v1.12a3.283,3.283,0,0,0-2.674-1.246A3.672,3.672,0,0,0,60.942,47.108Zm6.314.028a2.4,2.4,0,0,1-2.338,2.6,2.43,2.43,0,0,1-2.338-2.632,2.367,2.367,0,0,1,2.338-2.562A2.392,2.392,0,0,1,67.256,47.136ZM70.966,51h1.6V43.286h-1.6Zm.812-8.736a1.022,1.022,0,1,0-1.022-1.022A1.007,1.007,0,0,0,71.778,42.264Zm8.638,6.58c-.084-2.786-4.438-1.918-4.438-3.472,0-.518.448-.868,1.3-.868a1.276,1.276,0,0,1,1.442,1.134h1.6c-.084-1.54-1.232-2.478-2.982-2.478-1.82,0-2.968.994-2.968,2.226,0,2.828,4.48,1.96,4.48,3.472,0,.532-.49.924-1.414.924a1.407,1.407,0,0,1-1.54-1.148H74.242c.07,1.4,1.372,2.492,3.22,2.492C79.282,51.126,80.416,50.146,80.416,48.844ZM90.958,53.6V53.45A10.814,10.814,0,0,1,88,45.9a10.638,10.638,0,0,1,3.234-7.826v-.154H89.586a10.621,10.621,0,0,0-3.122,7.98,10.709,10.709,0,0,0,2.842,7.7Zm3.3-7.854V42.572h1.764c1.246,0,1.806.588,1.806,1.6,0,.98-.56,1.582-1.806,1.582Zm5.208-1.582c0-1.582-1.134-2.9-3.444-2.9h-3.36V51h1.6V47.052h1.764C98.56,47.052,99.47,45.554,99.47,44.168Zm3.122,1.582V42.572h1.764c1.246,0,1.806.588,1.806,1.6,0,.98-.56,1.582-1.806,1.582Zm5.208-1.582c0-1.582-1.134-2.9-3.444-2.9H101V51h1.6V47.052h1.764C106.89,47.052,107.8,45.554,107.8,44.168Zm6.692.014c0,.966-.56,1.652-1.806,1.652h-1.764V42.572h1.764C113.932,42.572,114.492,43.2,114.492,44.182Zm-5.166-2.912V51h1.6V47.108h1.218L114.38,51h1.9l-2.408-4.032a2.769,2.769,0,0,0,2.254-2.786c0-1.582-1.134-2.912-3.444-2.912ZM124.74,51h1.68l-3.486-9.744h-1.848L117.6,51h1.666l.7-1.988h4.074Zm-1.148-3.29h-3.178l1.6-4.522ZM127.54,53.6V53.45a10.814,10.814,0,0,0,2.954-7.546,10.638,10.638,0,0,0-3.234-7.826v-.154h1.652a10.621,10.621,0,0,1,3.122,7.98,10.709,10.709,0,0,1-2.842,7.7Z" transform="translate(183 276.25)" fill="#fff"/>
    </g>
    <g id="Grupo_1651" data-name="Grupo 1651" transform="translate(609.808 18.25)">
      <g id="Grupo_1647-2" data-name="Grupo 1647">
        <path id="Caminho_21149-2" data-name="Caminho 21149" d="M197.592,104.261H0L44.843,52.131,0,0H197.592l44.843,52.131Z" transform="translate(128.475 252.119)" fill="#294667"/>
        <path id="Caminho_21150-2" data-name="Caminho 21150" d="M198.531,102.529H8.471L50.689,53.015,8.471,3.5H198.533l42.593,49.515ZM10.28,101.782H198.188l41.95-48.767L198.188,4.247H10.28L51.748,53.015Z" transform="translate(126.334 251.235)" fill="#fff"/>
      </g>
      <path id="Caminho_31884" data-name="Caminho 31884" d="M7.616,15H9.3L5.81,5.256H3.962L.476,15H2.142l.7-1.988H6.916ZM6.468,11.71H3.29l1.6-4.522ZM16.282,15h1.582V10.45A3,3,0,0,0,14.7,7.16a2.968,2.968,0,0,0-2.3,1.008V7.286h-1.6V15h1.6V10.688A1.87,1.87,0,0,1,14.35,8.546c1.162,0,1.932.728,1.932,2.142Zm3.08-3.892a3.729,3.729,0,0,0,3.612,4.018,3.32,3.32,0,0,0,2.7-1.274V15h1.61V7.286h-1.61v1.12A3.283,3.283,0,0,0,23,7.16,3.672,3.672,0,0,0,19.362,11.108Zm6.314.028a2.4,2.4,0,0,1-2.338,2.6A2.43,2.43,0,0,1,21,11.108a2.367,2.367,0,0,1,2.338-2.562A2.392,2.392,0,0,1,25.676,11.136ZM21.938,5.564V6.74l3.094-1.526V3.856ZM29.386,15h1.6V4.64h-1.6Zm3.7,0h1.6V7.286h-1.6Zm.812-8.736a1.022,1.022,0,1,0-1.022-1.022A1.007,1.007,0,0,0,33.894,6.264Zm8.638,6.58c-.084-2.786-4.438-1.918-4.438-3.472,0-.518.448-.868,1.3-.868a1.276,1.276,0,0,1,1.442,1.134h1.6C42.35,8.1,41.2,7.16,39.452,7.16c-1.82,0-2.968.994-2.968,2.226,0,2.828,4.48,1.96,4.48,3.472,0,.532-.49.924-1.414.924a1.407,1.407,0,0,1-1.54-1.148H36.358c.07,1.4,1.372,2.492,3.22,2.492C41.4,15.126,42.532,14.146,42.532,12.844ZM47.5,8.5a2,2,0,0,1,2.156,1.946h-4.27A2.1,2.1,0,0,1,47.5,8.5Zm3.612,4.2H49.392a1.868,1.868,0,0,1-1.82,1.078,2.122,2.122,0,0,1-2.2-2.044h5.894a4.923,4.923,0,0,0,.056-.784A3.6,3.6,0,0,0,47.572,7.16a3.694,3.694,0,0,0-3.85,3.976,3.743,3.743,0,0,0,3.85,3.99A3.525,3.525,0,0,0,51.114,12.7ZM6.426,23.256H1.05V33H6.426V31.7H2.646V28.716h3.36v-1.3H2.646V24.558h3.78ZM9.982,28.94c0-1.638.728-2.128,1.9-2.128h.406V25.16a2.513,2.513,0,0,0-2.31,1.246v-1.12h-1.6V33h1.6Zm3.248.168a3.733,3.733,0,0,0,3.64,4.018,3.311,3.311,0,0,0,2.674-1.288v1.288a2.055,2.055,0,0,1-2.156,2.3,2.15,2.15,0,0,1-2.2-1.344H13.608c.2,1.708,1.722,2.73,3.78,2.73a3.5,3.5,0,0,0,3.766-3.682v-7.84h-1.61v1.12A3.268,3.268,0,0,0,16.87,25.16,3.672,3.672,0,0,0,13.23,29.108Zm6.314.028a2.4,2.4,0,0,1-2.338,2.6,2.43,2.43,0,0,1-2.338-2.632,2.367,2.367,0,0,1,2.338-2.562A2.392,2.392,0,0,1,19.544,29.136Zm11.06,0A3.8,3.8,0,0,0,26.67,25.16a3.8,3.8,0,0,0-3.934,3.976,3.761,3.761,0,0,0,3.864,3.99A3.864,3.864,0,0,0,30.6,29.136Zm-6.244,0a2.3,2.3,0,0,1,2.282-2.59,2.334,2.334,0,0,1,2.324,2.59,2.376,2.376,0,0,1-2.366,2.6C25.4,31.74,24.36,30.886,24.36,29.136ZM37.66,33h1.582V28.45a3,3,0,0,0-3.164-3.29,2.968,2.968,0,0,0-2.3,1.008v-.882h-1.6V33h1.6V28.688a1.87,1.87,0,0,1,1.946-2.142c1.162,0,1.932.728,1.932,2.142Zm10.962-3.864a3.934,3.934,0,1,0-7.868,0,3.761,3.761,0,0,0,3.864,3.99A3.864,3.864,0,0,0,48.622,29.136Zm-6.244,0a2.3,2.3,0,0,1,2.282-2.59,2.334,2.334,0,0,1,2.324,2.59,2.376,2.376,0,0,1-2.366,2.6C43.414,31.74,42.378,30.886,42.378,29.136Zm4.312-5.768-2-1.162-2,1.162v1.246l2-1.2,2,1.2ZM61.138,33H62.72V28.45a3.162,3.162,0,0,0-5.866-1.764,2.975,2.975,0,0,0-2.772-1.526A2.938,2.938,0,0,0,51.8,26.168v-.882H50.2V33h1.6V28.688a1.87,1.87,0,0,1,1.946-2.142c1.162,0,1.932.728,1.932,2.142V33H57.26V28.688a1.87,1.87,0,0,1,1.946-2.142c1.162,0,1.932.728,1.932,2.142Zm3.612,0h1.6V25.286h-1.6Zm.812-8.736a1.022,1.022,0,1,0-1.022-1.022A1.007,1.007,0,0,0,65.562,24.264Zm2.352,4.872a3.689,3.689,0,0,0,3.78,3.99,3.465,3.465,0,0,0,3.556-2.562H73.528a1.762,1.762,0,0,1-1.834,1.218c-1.288,0-2.142-.952-2.142-2.646s.854-2.632,2.142-2.632a1.8,1.8,0,0,1,1.834,1.218H75.25a3.356,3.356,0,0,0-3.556-2.562A3.685,3.685,0,0,0,67.914,29.136Zm8.4-.028a3.729,3.729,0,0,0,3.612,4.018,3.32,3.32,0,0,0,2.7-1.274V33h1.61V25.286h-1.61v1.12a3.283,3.283,0,0,0-2.674-1.246A3.672,3.672,0,0,0,76.314,29.108Zm6.314.028a2.4,2.4,0,0,1-2.338,2.6,2.43,2.43,0,0,1-2.338-2.632,2.367,2.367,0,0,1,2.338-2.562A2.392,2.392,0,0,1,82.628,29.136Z" transform="translate(191 285.25)" fill="#fff"/>
    </g>
    <g id="Grupo_1652" data-name="Grupo 1652" transform="translate(0.808 18.25)">
      <g id="Grupo_1647-3" data-name="Grupo 1647">
        <path id="Caminho_21149-3" data-name="Caminho 21149" d="M197.592,104.261H0L44.843,52.131,0,0H197.592l44.843,52.131Z" transform="translate(128.475 252.119)" fill="#294667"/>
        <path id="Caminho_21150-3" data-name="Caminho 21150" d="M198.531,102.529H8.471L50.689,53.015,8.471,3.5H198.533l42.593,49.515ZM10.28,101.782H198.188l41.95-48.767L198.188,4.247H10.28L51.748,53.015Z" transform="translate(126.334 251.235)" fill="#fff"/>
      </g>
      <path id="Caminho_31881" data-name="Caminho 31881" d="M2.646,9.75V6.572H4.41c1.246,0,1.806.588,1.806,1.6,0,.98-.56,1.582-1.806,1.582ZM7.854,8.168c0-1.582-1.134-2.9-3.444-2.9H1.05V15h1.6V11.052H4.41C6.944,11.052,7.854,9.554,7.854,8.168Zm3.122,2.772c0-1.638.728-2.128,1.9-2.128h.406V7.16a2.513,2.513,0,0,0-2.31,1.246V7.286H9.38V15h1.6Zm11.13.2A3.8,3.8,0,0,0,18.172,7.16a3.8,3.8,0,0,0-3.934,3.976,3.761,3.761,0,0,0,3.864,3.99A3.864,3.864,0,0,0,22.106,11.136Zm-6.244,0a2.3,2.3,0,0,1,2.282-2.59,2.334,2.334,0,0,1,2.324,2.59,2.376,2.376,0,0,1-2.366,2.6C16.9,13.74,15.862,12.886,15.862,11.136Zm7.294-.028a3.733,3.733,0,0,0,3.64,4.018,3.311,3.311,0,0,0,2.674-1.288v1.288a2.055,2.055,0,0,1-2.156,2.3,2.15,2.15,0,0,1-2.2-1.344H23.534c.2,1.708,1.722,2.73,3.78,2.73a3.5,3.5,0,0,0,3.766-3.682V7.286H29.47v1.12A3.268,3.268,0,0,0,26.8,7.16,3.672,3.672,0,0,0,23.156,11.108Zm6.314.028a2.4,2.4,0,0,1-2.338,2.6,2.43,2.43,0,0,1-2.338-2.632,2.367,2.367,0,0,1,2.338-2.562A2.392,2.392,0,0,1,29.47,11.136Zm5.306-.2c0-1.638.728-2.128,1.9-2.128h.406V7.16a2.513,2.513,0,0,0-2.31,1.246V7.286h-1.6V15h1.6Zm3.248.168a3.729,3.729,0,0,0,3.612,4.018,3.32,3.32,0,0,0,2.7-1.274V15h1.61V7.286h-1.61v1.12A3.283,3.283,0,0,0,41.664,7.16,3.672,3.672,0,0,0,38.024,11.108Zm6.314.028A2.4,2.4,0,0,1,42,13.74a2.43,2.43,0,0,1-2.338-2.632A2.367,2.367,0,0,1,42,8.546,2.392,2.392,0,0,1,44.338,11.136ZM58.982,15h1.582V10.45A3.162,3.162,0,0,0,54.7,8.686,2.975,2.975,0,0,0,51.926,7.16a2.938,2.938,0,0,0-2.282,1.008V7.286h-1.6V15h1.6V10.688A1.87,1.87,0,0,1,51.59,8.546c1.162,0,1.932.728,1.932,2.142V15H55.1V10.688A1.87,1.87,0,0,1,57.05,8.546c1.162,0,1.932.728,1.932,2.142Zm3.08-3.892a3.729,3.729,0,0,0,3.612,4.018,3.32,3.32,0,0,0,2.7-1.274V15h1.61V7.286h-1.61v1.12A3.283,3.283,0,0,0,65.7,7.16,3.672,3.672,0,0,0,62.062,11.108Zm6.314.028a2.4,2.4,0,0,1-2.338,2.6A2.43,2.43,0,0,1,63.7,11.108a2.367,2.367,0,0,1,2.338-2.562A2.392,2.392,0,0,1,68.376,11.136Zm6.818-.028a3.733,3.733,0,0,0,3.64,4.018,3.2,3.2,0,0,0,2.674-1.288V15h1.61V4.64h-1.61V8.364a3.553,3.553,0,0,0-2.66-1.2A3.674,3.674,0,0,0,75.194,11.108Zm6.314.028a2.4,2.4,0,0,1-2.338,2.6,2.43,2.43,0,0,1-2.338-2.632A2.367,2.367,0,0,1,79.17,8.546,2.392,2.392,0,0,1,81.508,11.136ZM88.466,8.5a2,2,0,0,1,2.156,1.946h-4.27A2.1,2.1,0,0,1,88.466,8.5Zm3.612,4.2H90.356a1.868,1.868,0,0,1-1.82,1.078,2.122,2.122,0,0,1-2.2-2.044h5.894a4.923,4.923,0,0,0,.056-.784A3.6,3.6,0,0,0,88.536,7.16a3.694,3.694,0,0,0-3.85,3.976,3.743,3.743,0,0,0,3.85,3.99A3.525,3.525,0,0,0,92.078,12.7ZM.518,28.114a4.858,4.858,0,0,0,4.97,4.97,4.627,4.627,0,0,0,4.522-2.912H8.092a2.719,2.719,0,0,1-2.6,1.526,3.284,3.284,0,0,1-3.332-3.584,3.272,3.272,0,0,1,3.332-3.57,2.719,2.719,0,0,1,2.6,1.526H10.01a4.638,4.638,0,0,0-4.522-2.926A4.867,4.867,0,0,0,.518,28.114Zm18.7,1.022a3.8,3.8,0,0,0-3.934-3.976,3.8,3.8,0,0,0-3.934,3.976,3.761,3.761,0,0,0,3.864,3.99A3.864,3.864,0,0,0,19.222,29.136Zm-6.244,0a2.3,2.3,0,0,1,2.282-2.59,2.334,2.334,0,0,1,2.324,2.59,2.376,2.376,0,0,1-2.366,2.6C14.014,31.74,12.978,30.886,12.978,29.136ZM26.278,33H27.86V28.45A3,3,0,0,0,24.7,25.16a2.968,2.968,0,0,0-2.3,1.008v-.882H20.8V33h1.6V28.688a1.87,1.87,0,0,1,1.946-2.142c1.162,0,1.932.728,1.932,2.142Zm3.864-2.142C30.142,32.426,31,33,32.368,33h1.26V31.67h-.98c-.672,0-.9-.238-.9-.812v-4.27h1.876v-1.3H31.752V23.368h-1.61v1.918h-.91v1.3h.91Zm6.552-1.918c0-1.638.728-2.128,1.9-2.128H39V25.16a2.513,2.513,0,0,0-2.31,1.246v-1.12H35.1V33h1.6Zm11.13.2a3.934,3.934,0,1,0-7.868,0,3.761,3.761,0,0,0,3.864,3.99A3.864,3.864,0,0,0,47.824,29.136Zm-6.244,0a2.3,2.3,0,0,1,2.282-2.59,2.334,2.334,0,0,1,2.324,2.59,2.376,2.376,0,0,1-2.366,2.6C42.616,31.74,41.58,30.886,41.58,29.136ZM49.406,33H51V22.64h-1.6Zm6.944-6.5a2,2,0,0,1,2.156,1.946h-4.27A2.1,2.1,0,0,1,56.35,26.5Zm3.612,4.2H58.24a1.868,1.868,0,0,1-1.82,1.078,2.122,2.122,0,0,1-2.2-2.044h5.894a4.923,4.923,0,0,0,.056-.784A3.6,3.6,0,0,0,56.42,25.16a3.694,3.694,0,0,0-3.85,3.976,3.743,3.743,0,0,0,3.85,3.99A3.525,3.525,0,0,0,59.962,30.7ZM65.38,33h1.6V26.336L69.958,33h1.106l2.968-6.664V33h1.6V23.27H73.92l-3.4,7.63L67.1,23.27H65.38Zm15.6-6.5a2,2,0,0,1,2.156,1.946h-4.27A2.1,2.1,0,0,1,80.976,26.5Zm3.612,4.2H82.866a1.868,1.868,0,0,1-1.82,1.078,2.122,2.122,0,0,1-2.2-2.044h5.894a4.923,4.923,0,0,0,.056-.784,3.6,3.6,0,0,0-3.752-3.794,3.694,3.694,0,0,0-3.85,3.976,3.743,3.743,0,0,0,3.85,3.99A3.525,3.525,0,0,0,84.588,30.7Zm-5.236-7.14V24.74l3.094-1.526V21.856Zm6.482,5.544a3.733,3.733,0,0,0,3.64,4.018,3.2,3.2,0,0,0,2.674-1.288V33h1.61V22.64h-1.61v3.724a3.553,3.553,0,0,0-2.66-1.2A3.674,3.674,0,0,0,85.834,29.108Zm6.314.028a2.4,2.4,0,0,1-2.338,2.6,2.43,2.43,0,0,1-2.338-2.632,2.367,2.367,0,0,1,2.338-2.562A2.392,2.392,0,0,1,92.148,29.136ZM95.858,33h1.6V25.286h-1.6Zm.812-8.736a1.022,1.022,0,1,0-1.022-1.022A1.007,1.007,0,0,0,96.67,24.264Zm2.352,4.872a3.689,3.689,0,0,0,3.78,3.99,3.465,3.465,0,0,0,3.556-2.562h-1.722a1.762,1.762,0,0,1-1.834,1.218c-1.288,0-2.142-.952-2.142-2.646s.854-2.632,2.142-2.632a1.8,1.8,0,0,1,1.834,1.218h1.722A3.356,3.356,0,0,0,102.8,25.16,3.685,3.685,0,0,0,99.022,29.136Zm16.282,0a3.934,3.934,0,1,0-7.868,0,3.761,3.761,0,0,0,3.864,3.99A3.864,3.864,0,0,0,115.3,29.136Zm-6.244,0a2.3,2.3,0,0,1,2.282-2.59,2.334,2.334,0,0,1,2.324,2.59,2.376,2.376,0,0,1-2.366,2.6C110.1,31.74,109.06,30.886,109.06,29.136ZM123.774,26.5a2,2,0,0,1,2.156,1.946h-4.27A2.1,2.1,0,0,1,123.774,26.5Zm3.612,4.2h-1.722a1.868,1.868,0,0,1-1.82,1.078,2.122,2.122,0,0,1-2.2-2.044h5.894a4.923,4.923,0,0,0,.056-.784,3.6,3.6,0,0,0-3.752-3.794,3.694,3.694,0,0,0-3.85,3.976,3.743,3.743,0,0,0,3.85,3.99A3.525,3.525,0,0,0,127.386,30.7ZM140.1,33h1.582V28.45a3.162,3.162,0,0,0-5.866-1.764,2.975,2.975,0,0,0-2.772-1.526,2.938,2.938,0,0,0-2.282,1.008v-.882h-1.6V33h1.6V28.688a1.87,1.87,0,0,1,1.946-2.142c1.162,0,1.932.728,1.932,2.142V33h1.582V28.688a1.87,1.87,0,0,1,1.946-2.142c1.162,0,1.932.728,1.932,2.142ZM7.616,48.242c0-3.556-5.152-2.184-5.152-4.382,0-.938.714-1.386,1.638-1.358A1.522,1.522,0,0,1,5.74,43.79H7.5c-.14-1.666-1.456-2.646-3.318-2.646C2.2,41.144.84,42.208.84,43.916c0,3.584,5.166,2.058,5.166,4.41,0,.826-.63,1.428-1.75,1.428A1.561,1.561,0,0,1,2.52,48.312H.812c0,1.722,1.5,2.786,3.444,2.786C6.426,51.1,7.616,49.7,7.616,48.242Zm1.358-1.134a3.729,3.729,0,0,0,3.612,4.018,3.32,3.32,0,0,0,2.7-1.274V51H16.9V43.286h-1.61v1.12a3.283,3.283,0,0,0-2.674-1.246A3.672,3.672,0,0,0,8.974,47.108Zm6.314.028a2.4,2.4,0,0,1-2.338,2.6,2.43,2.43,0,0,1-2.338-2.632,2.367,2.367,0,0,1,2.338-2.562A2.392,2.392,0,0,1,15.288,47.136Zm10.7-3.85h-1.6v4.3a1.87,1.87,0,0,1-1.946,2.142c-1.162,0-1.932-.728-1.932-2.142v-4.3H18.928v4.536a3.014,3.014,0,0,0,3.178,3.29,2.871,2.871,0,0,0,2.282-1.036V51h1.6Zm-5.138-1.722V42.74l3.094-1.526V39.856Zm6.706,5.544a3.733,3.733,0,0,0,3.64,4.018,3.2,3.2,0,0,0,2.674-1.288V51h1.61V40.64h-1.61v3.724a3.553,3.553,0,0,0-2.66-1.2A3.674,3.674,0,0,0,27.552,47.108Zm6.314.028a2.4,2.4,0,0,1-2.338,2.6,2.43,2.43,0,0,1-2.338-2.632,2.367,2.367,0,0,1,2.338-2.562A2.392,2.392,0,0,1,33.866,47.136ZM40.824,44.5A2,2,0,0,1,42.98,46.45H38.71A2.1,2.1,0,0,1,40.824,44.5Zm3.612,4.2H42.714a1.868,1.868,0,0,1-1.82,1.078,2.122,2.122,0,0,1-2.2-2.044H44.59a4.923,4.923,0,0,0,.056-.784,3.6,3.6,0,0,0-3.752-3.794,3.694,3.694,0,0,0-3.85,3.976,3.743,3.743,0,0,0,3.85,3.99A3.525,3.525,0,0,0,44.436,48.7Zm14.826-2.59a4.97,4.97,0,1,0-4.97,4.984A4.85,4.85,0,0,0,59.262,46.114Zm-8.3,0a3.34,3.34,0,1,1,6.664,0,3.342,3.342,0,1,1-6.664,0ZM60.3,47.136a3.689,3.689,0,0,0,3.78,3.99,3.465,3.465,0,0,0,3.556-2.562H65.912a1.762,1.762,0,0,1-1.834,1.218c-1.288,0-2.142-.952-2.142-2.646S62.79,44.5,64.078,44.5a1.8,1.8,0,0,1,1.834,1.218h1.722a3.356,3.356,0,0,0-3.556-2.562A3.685,3.685,0,0,0,60.3,47.136Zm15.918-3.85h-1.6v4.3a1.87,1.87,0,0,1-1.946,2.142c-1.162,0-1.932-.728-1.932-2.142v-4.3H69.16v4.536a3.014,3.014,0,0,0,3.178,3.29,2.871,2.871,0,0,0,2.282-1.036V51h1.6Zm3.7,1.134V43.286h-1.6V54.668h1.6V49.88A3.488,3.488,0,0,0,82.6,51.126a3.723,3.723,0,0,0,3.626-4.018A3.661,3.661,0,0,0,82.6,43.16,3.366,3.366,0,0,0,79.912,44.42Zm4.69,2.688A2.432,2.432,0,0,1,82.25,49.74a2.611,2.611,0,0,1,0-5.194A2.369,2.369,0,0,1,84.6,47.108Zm2.674,0a3.729,3.729,0,0,0,3.612,4.018,3.32,3.32,0,0,0,2.7-1.274V51H95.2V43.286H93.59v1.12a3.283,3.283,0,0,0-2.674-1.246A3.672,3.672,0,0,0,87.276,47.108Zm6.314.028a2.4,2.4,0,0,1-2.338,2.6,2.43,2.43,0,0,1-2.338-2.632,2.367,2.367,0,0,1,2.338-2.562A2.392,2.392,0,0,1,93.59,47.136Zm3.178,0a3.689,3.689,0,0,0,3.78,3.99,3.465,3.465,0,0,0,3.556-2.562h-1.722a1.762,1.762,0,0,1-1.834,1.218c-1.288,0-2.142-.952-2.142-2.646s.854-2.632,2.142-2.632a1.8,1.8,0,0,1,1.834,1.218H104.1a3.356,3.356,0,0,0-3.556-2.562A3.685,3.685,0,0,0,96.768,47.136ZM105.7,51h1.6V43.286h-1.6Zm.812-8.736a1.022,1.022,0,1,0-1.022-1.022A1.007,1.007,0,0,0,106.512,42.264Zm10.234,4.872a3.934,3.934,0,1,0-7.868,0,3.761,3.761,0,0,0,3.864,3.99A3.864,3.864,0,0,0,116.746,47.136Zm-6.244,0a2.3,2.3,0,0,1,2.282-2.59,2.334,2.334,0,0,1,2.324,2.59,2.376,2.376,0,0,1-2.366,2.6C111.538,49.74,110.5,48.886,110.5,47.136ZM123.8,51h1.582V46.45a3,3,0,0,0-3.164-3.29,2.968,2.968,0,0,0-2.3,1.008v-.882h-1.6V51h1.6V46.688a1.87,1.87,0,0,1,1.946-2.142c1.162,0,1.932.728,1.932,2.142Zm3.08-3.892a3.729,3.729,0,0,0,3.612,4.018,3.32,3.32,0,0,0,2.7-1.274V51h1.61V43.286H133.2v1.12a3.283,3.283,0,0,0-2.674-1.246A3.672,3.672,0,0,0,126.882,47.108Zm6.314.028a2.4,2.4,0,0,1-2.338,2.6,2.43,2.43,0,0,1-2.338-2.632,2.367,2.367,0,0,1,2.338-2.562A2.392,2.392,0,0,1,133.2,47.136ZM136.906,51h1.6V40.64h-1.6ZM6.23,71.6V71.45A10.814,10.814,0,0,1,3.276,63.9,10.638,10.638,0,0,1,6.51,56.078v-.154H4.858A10.621,10.621,0,0,0,1.736,63.9a10.709,10.709,0,0,0,2.842,7.7Zm3.3-7.854V60.572H11.3c1.246,0,1.806.588,1.806,1.6,0,.98-.56,1.582-1.806,1.582Zm5.208-1.582c0-1.582-1.134-2.9-3.444-2.9H7.938V69h1.6V65.052H11.3C13.832,65.052,14.742,63.554,14.742,62.168Zm.994,1.946a4.858,4.858,0,0,0,4.97,4.97,4.627,4.627,0,0,0,4.522-2.912H23.31a2.719,2.719,0,0,1-2.6,1.526,3.586,3.586,0,0,1,0-7.154,2.719,2.719,0,0,1,2.6,1.526h1.918a4.638,4.638,0,0,0-4.522-2.926A4.867,4.867,0,0,0,15.736,64.114ZM27.09,69h1.6V62.336L31.668,69h1.106l2.968-6.664V69h1.6V59.27H35.63l-3.4,7.63-3.416-7.63H27.09ZM46,66.242c0-3.556-5.152-2.184-5.152-4.382,0-.938.714-1.386,1.638-1.358a1.522,1.522,0,0,1,1.638,1.288h1.764c-.14-1.666-1.456-2.646-3.318-2.646-1.988,0-3.346,1.064-3.346,2.772,0,3.584,5.166,2.058,5.166,4.41,0,.826-.63,1.428-1.75,1.428a1.561,1.561,0,0,1-1.736-1.442H39.2c0,1.722,1.5,2.786,3.444,2.786C44.814,69.1,46,67.7,46,66.242Zm11.3-2.128a4.97,4.97,0,1,0-4.97,4.984A4.85,4.85,0,0,0,57.3,64.114Zm-8.3,0a3.342,3.342,0,1,1,3.332,3.6A3.272,3.272,0,0,1,49,64.114Zm9.478,7.49V71.45A10.814,10.814,0,0,0,61.432,63.9,10.638,10.638,0,0,0,58.2,56.078v-.154H59.85a10.621,10.621,0,0,1,3.122,7.98,10.709,10.709,0,0,1-2.842,7.7Z" transform="translate(183 267)" fill="#fff"/>
    </g>
    <g id="Grupo_1657" data-name="Grupo 1657" transform="translate(406.808 -11.75)">
      <g id="Grupo_1647-4" data-name="Grupo 1647">
        <path id="Caminho_21149-4" data-name="Caminho 21149" d="M197.592,104.261H0L44.843,52.131,0,0H197.592l44.843,52.131Z" transform="translate(128.475 252.119)" fill="#ef7100"/>
        <path id="Caminho_21150-4" data-name="Caminho 21150" d="M198.531,102.529H8.471L50.689,53.015,8.471,3.5H198.533l42.593,49.515ZM10.28,101.782H198.188l41.95-48.767L198.188,4.247H10.28L51.748,53.015Z" transform="translate(126.334 251.235)" fill="#fff"/>
      </g>
      <path id="Caminho_31883" data-name="Caminho 31883" d="M1.05,15h1.6V8.336L5.628,15H6.734L9.7,8.336V15h1.6V5.27H9.59l-3.4,7.63L2.772,5.27H1.05Zm11.816-3.892a3.729,3.729,0,0,0,3.612,4.018,3.32,3.32,0,0,0,2.7-1.274V15h1.61V7.286H19.18v1.12A3.283,3.283,0,0,0,16.506,7.16,3.672,3.672,0,0,0,12.866,11.108Zm6.314.028a2.4,2.4,0,0,1-2.338,2.6A2.43,2.43,0,0,1,14.5,11.108a2.367,2.367,0,0,1,2.338-2.562A2.392,2.392,0,0,1,19.18,11.136ZM24.486,8.42V7.286h-1.6V18.668h1.6V13.88a3.488,3.488,0,0,0,2.688,1.246A3.723,3.723,0,0,0,30.8,11.108,3.661,3.661,0,0,0,27.174,7.16,3.366,3.366,0,0,0,24.486,8.42Zm4.69,2.688a2.432,2.432,0,0,1-2.352,2.632,2.4,2.4,0,0,1-2.338-2.6,2.4,2.4,0,0,1,2.338-2.59A2.369,2.369,0,0,1,29.176,11.108Zm2.674,0a3.729,3.729,0,0,0,3.612,4.018,3.32,3.32,0,0,0,2.7-1.274V15h1.61V7.286h-1.61v1.12A3.283,3.283,0,0,0,35.49,7.16,3.672,3.672,0,0,0,31.85,11.108Zm6.314.028a2.4,2.4,0,0,1-2.338,2.6,2.43,2.43,0,0,1-2.338-2.632,2.367,2.367,0,0,1,2.338-2.562A2.392,2.392,0,0,1,38.164,11.136Zm6.818-.028a3.733,3.733,0,0,0,3.64,4.018A3.2,3.2,0,0,0,51.3,13.838V15h1.61V4.64H51.3V8.364a3.553,3.553,0,0,0-2.66-1.2A3.674,3.674,0,0,0,44.982,11.108Zm6.314.028a2.4,2.4,0,0,1-2.338,2.6,2.43,2.43,0,0,1-2.338-2.632,2.367,2.367,0,0,1,2.338-2.562A2.392,2.392,0,0,1,51.3,11.136ZM58.254,8.5A2,2,0,0,1,60.41,10.45H56.14A2.1,2.1,0,0,1,58.254,8.5Zm3.612,4.2H60.144a1.868,1.868,0,0,1-1.82,1.078,2.122,2.122,0,0,1-2.2-2.044H62.02a4.923,4.923,0,0,0,.056-.784A3.6,3.6,0,0,0,58.324,7.16a3.694,3.694,0,0,0-3.85,3.976,3.743,3.743,0,0,0,3.85,3.99A3.525,3.525,0,0,0,61.866,12.7ZM72.45,8.182c0,.966-.56,1.652-1.806,1.652H68.88V6.572h1.764C71.89,6.572,72.45,7.2,72.45,8.182ZM67.284,5.27V15h1.6V11.108H70.1L72.338,15h1.9l-2.408-4.032a2.769,2.769,0,0,0,2.254-2.786c0-1.582-1.134-2.912-3.444-2.912ZM76.132,15h1.6V7.286h-1.6Zm.812-8.736a1.022,1.022,0,1,0-1.022-1.022A1.007,1.007,0,0,0,76.944,6.264Zm8.638,6.58c-.084-2.786-4.438-1.918-4.438-3.472,0-.518.448-.868,1.3-.868a1.276,1.276,0,0,1,1.442,1.134h1.6C85.4,8.1,84.252,7.16,82.5,7.16c-1.82,0-2.968.994-2.968,2.226,0,2.828,4.48,1.96,4.48,3.472,0,.532-.49.924-1.414.924a1.407,1.407,0,0,1-1.54-1.148H79.408c.07,1.4,1.372,2.492,3.22,2.492C84.448,15.126,85.582,14.146,85.582,12.844Zm1.19-1.708a3.689,3.689,0,0,0,3.78,3.99,3.465,3.465,0,0,0,3.556-2.562H92.386a1.762,1.762,0,0,1-1.834,1.218c-1.288,0-2.142-.952-2.142-2.646S89.264,8.5,90.552,8.5a1.8,1.8,0,0,1,1.834,1.218h1.722A3.356,3.356,0,0,0,90.552,7.16,3.685,3.685,0,0,0,86.772,11.136Zm16.282,0a3.934,3.934,0,1,0-7.868,0,3.761,3.761,0,0,0,3.864,3.99A3.864,3.864,0,0,0,103.054,11.136Zm-6.244,0a2.3,2.3,0,0,1,2.282-2.59,2.334,2.334,0,0,1,2.324,2.59,2.376,2.376,0,0,1-2.366,2.6C97.846,13.74,96.81,12.886,96.81,11.136Z" transform="translate(191 294.25)" fill="#fff"/>
    </g>
  </g>
</svg>
