<svg xmlns="http://www.w3.org/2000/svg" width="210.423" height="274.101" viewBox="0 0 210.423 274.101">
  <g id="Grupo_1783" data-name="Grupo 1783" transform="translate(-10.249 -37.129) rotate(7)" opacity="0.6">
    <g id="Grupo_1661" data-name="Grupo 1661" transform="translate(139.474 44.217)">
      <path id="Caminho_23289" data-name="Caminho 23289" d="M14.644.057A303.942,303.942,0,0,0,.8,63.971,167.067,167.067,0,0,0,.759,96.237,134.815,134.815,0,0,0,3.193,111.65c1.158,5.261,2.817,10.376,4.216,15.573a46.2,46.2,0,0,1,1.759,18.114,102.188,102.188,0,0,1-4.736,17.681c-.074.231.268.311.355.1a82.389,82.389,0,0,0,4.926-15.551,40.192,40.192,0,0,0-.084-15.113c-1.012-5.282-2.762-10.381-4.157-15.566a130.206,130.206,0,0,1-3.2-15.786c-3.029-21.668-.931-43.731,3.5-65.05C8.292,23.944,11.631,12.045,14.8.1a.08.08,0,0,0-.154-.042Z" transform="translate(25.536 50.678) rotate(9)" fill="#fff"/>
      <path id="Caminho_23294" data-name="Caminho 23294" d="M29.381,8.66c5.579-2.236,11.518-4.117,17.5-3.54s12.023,4.151,13.885,9.866a14.865,14.865,0,0,1,.429,6.86c-1.116,7.2-6.211,13.183-11.931,17.7a60.308,60.308,0,0,1-17.7,9.659c-4.8,1.65-9.874,2.725-14.174,5.414a29,29,0,0,0-3.9-13.6C11.1,36.9,7.732,33.447,4.922,29.6S-.207,21.237.015,16.479A16.707,16.707,0,0,1,1.83,9.908,17.83,17.83,0,0,1,12.094.625,13.237,13.237,0,0,1,23.16,2.032C29.046,5.491,29.381,8.66,29.381,8.66Z" transform="translate(28.808 0) rotate(9)" fill="#fff"/>
    </g>
    <g id="Grupo_1662" data-name="Grupo 1662" transform="translate(61.927 92.853) rotate(-13)">
      <path id="Caminho_23289-2" data-name="Caminho 23289" d="M14.644.057A303.942,303.942,0,0,0,.8,63.971,167.067,167.067,0,0,0,.759,96.237,134.815,134.815,0,0,0,3.193,111.65c1.158,5.261,2.817,10.376,4.216,15.573a46.2,46.2,0,0,1,1.759,18.114,102.188,102.188,0,0,1-4.736,17.681c-.074.231.268.311.355.1a82.389,82.389,0,0,0,4.926-15.551,40.192,40.192,0,0,0-.084-15.113c-1.012-5.282-2.762-10.381-4.157-15.566a130.206,130.206,0,0,1-3.2-15.786c-3.029-21.668-.931-43.731,3.5-65.05C8.292,23.944,11.631,12.045,14.8.1a.08.08,0,0,0-.154-.042Z" transform="translate(25.536 50.678) rotate(9)" fill="#fff"/>
      <path id="Caminho_23294-2" data-name="Caminho 23294" d="M29.381,8.66c5.579-2.236,11.518-4.117,17.5-3.54s12.023,4.151,13.885,9.866a14.865,14.865,0,0,1,.429,6.86c-1.116,7.2-6.211,13.183-11.931,17.7a60.308,60.308,0,0,1-17.7,9.659c-4.8,1.65-9.874,2.725-14.174,5.414a29,29,0,0,0-3.9-13.6C11.1,36.9,7.732,33.447,4.922,29.6S-.207,21.237.015,16.479A16.707,16.707,0,0,1,1.83,9.908,17.83,17.83,0,0,1,12.094.625,13.237,13.237,0,0,1,23.16,2.032C29.046,5.491,29.381,8.66,29.381,8.66Z" transform="translate(28.808 0) rotate(9)" fill="#fff"/>
    </g>
    <g id="Grupo_1663" data-name="Grupo 1663" transform="translate(32.722 30.86) rotate(-2)">
      <path id="Caminho_23289-3" data-name="Caminho 23289" d="M14.644.057A303.942,303.942,0,0,0,.8,63.971,167.067,167.067,0,0,0,.759,96.237,134.815,134.815,0,0,0,3.193,111.65c1.158,5.261,2.817,10.376,4.216,15.573a46.2,46.2,0,0,1,1.759,18.114,102.188,102.188,0,0,1-4.736,17.681c-.074.231.268.311.355.1a82.389,82.389,0,0,0,4.926-15.551,40.192,40.192,0,0,0-.084-15.113c-1.012-5.282-2.762-10.381-4.157-15.566a130.206,130.206,0,0,1-3.2-15.786c-3.029-21.668-.931-43.731,3.5-65.05C8.292,23.944,11.631,12.045,14.8.1a.08.08,0,0,0-.154-.042Z" transform="translate(25.536 50.678) rotate(9)" fill="#fff"/>
      <path id="Caminho_23294-3" data-name="Caminho 23294" d="M29.381,8.66c5.579-2.236,11.518-4.117,17.5-3.54s12.023,4.151,13.885,9.866a14.865,14.865,0,0,1,.429,6.86c-1.116,7.2-6.211,13.183-11.931,17.7a60.308,60.308,0,0,1-17.7,9.659c-4.8,1.65-9.874,2.725-14.174,5.414a29,29,0,0,0-3.9-13.6C11.1,36.9,7.732,33.447,4.922,29.6S-.207,21.237.015,16.479A16.707,16.707,0,0,1,1.83,9.908,17.83,17.83,0,0,1,12.094.625,13.237,13.237,0,0,1,23.16,2.032C29.046,5.491,29.381,8.66,29.381,8.66Z" transform="translate(28.808 0) rotate(9)" fill="#fff"/>
    </g>
  </g>
</svg>
