<svg xmlns="http://www.w3.org/2000/svg" width="242.435" height="104.261" viewBox="0 0 242.435 104.261">
  <g id="Grupo_1655" data-name="Grupo 1655" transform="translate(-128.475 -252.119)">
    <g id="Grupo_1647" data-name="Grupo 1647">
      <path id="Caminho_21149" data-name="Caminho 21149" d="M197.592,104.261H0L44.843,52.131,0,0H197.592l44.843,52.131Z" transform="translate(128.475 252.119)" fill="#ef7100"/>
      <path id="Caminho_21150" data-name="Caminho 21150" d="M198.531,102.529H8.471L50.689,53.015,8.471,3.5H198.533l42.593,49.515ZM10.28,101.782H198.188l41.95-48.767L198.188,4.247H10.28L51.748,53.015Z" transform="translate(126.334 251.235)" fill="#fff"/>
    </g>
    <path id="Caminho_31878" data-name="Caminho 31878" d="M2.646,9.75V6.572H4.41c1.246,0,1.806.588,1.806,1.6,0,.98-.56,1.582-1.806,1.582ZM7.854,8.168c0-1.582-1.134-2.9-3.444-2.9H1.05V15h1.6V11.052H4.41C6.944,11.052,7.854,9.554,7.854,8.168Zm3.122,2.772c0-1.638.728-2.128,1.9-2.128h.406V7.16a2.513,2.513,0,0,0-2.31,1.246V7.286H9.38V15h1.6Zm11.13.2A3.8,3.8,0,0,0,18.172,7.16a3.8,3.8,0,0,0-3.934,3.976,3.761,3.761,0,0,0,3.864,3.99A3.864,3.864,0,0,0,22.106,11.136Zm-6.244,0a2.3,2.3,0,0,1,2.282-2.59,2.334,2.334,0,0,1,2.324,2.59,2.376,2.376,0,0,1-2.366,2.6C16.9,13.74,15.862,12.886,15.862,11.136Zm7.294-.028a3.733,3.733,0,0,0,3.64,4.018,3.311,3.311,0,0,0,2.674-1.288v1.288a2.055,2.055,0,0,1-2.156,2.3,2.15,2.15,0,0,1-2.2-1.344H23.534c.2,1.708,1.722,2.73,3.78,2.73a3.5,3.5,0,0,0,3.766-3.682V7.286H29.47v1.12A3.268,3.268,0,0,0,26.8,7.16,3.672,3.672,0,0,0,23.156,11.108Zm6.314.028a2.4,2.4,0,0,1-2.338,2.6,2.43,2.43,0,0,1-2.338-2.632,2.367,2.367,0,0,1,2.338-2.562A2.392,2.392,0,0,1,29.47,11.136Zm5.306-.2c0-1.638.728-2.128,1.9-2.128h.406V7.16a2.513,2.513,0,0,0-2.31,1.246V7.286h-1.6V15h1.6Zm3.248.168a3.729,3.729,0,0,0,3.612,4.018,3.32,3.32,0,0,0,2.7-1.274V15h1.61V7.286h-1.61v1.12A3.283,3.283,0,0,0,41.664,7.16,3.672,3.672,0,0,0,38.024,11.108Zm6.314.028A2.4,2.4,0,0,1,42,13.74a2.43,2.43,0,0,1-2.338-2.632A2.367,2.367,0,0,1,42,8.546,2.392,2.392,0,0,1,44.338,11.136ZM58.982,15h1.582V10.45A3.162,3.162,0,0,0,54.7,8.686,2.975,2.975,0,0,0,51.926,7.16a2.938,2.938,0,0,0-2.282,1.008V7.286h-1.6V15h1.6V10.688A1.87,1.87,0,0,1,51.59,8.546c1.162,0,1.932.728,1.932,2.142V15H55.1V10.688A1.87,1.87,0,0,1,57.05,8.546c1.162,0,1.932.728,1.932,2.142Zm3.08-3.892a3.729,3.729,0,0,0,3.612,4.018,3.32,3.32,0,0,0,2.7-1.274V15h1.61V7.286h-1.61v1.12A3.283,3.283,0,0,0,65.7,7.16,3.672,3.672,0,0,0,62.062,11.108Zm6.314.028a2.4,2.4,0,0,1-2.338,2.6A2.43,2.43,0,0,1,63.7,11.108a2.367,2.367,0,0,1,2.338-2.562A2.392,2.392,0,0,1,68.376,11.136Zm6.818-.028a3.733,3.733,0,0,0,3.64,4.018,3.2,3.2,0,0,0,2.674-1.288V15h1.61V4.64h-1.61V8.364a3.553,3.553,0,0,0-2.66-1.2A3.674,3.674,0,0,0,75.194,11.108Zm6.314.028a2.4,2.4,0,0,1-2.338,2.6,2.43,2.43,0,0,1-2.338-2.632A2.367,2.367,0,0,1,79.17,8.546,2.392,2.392,0,0,1,81.508,11.136ZM88.466,8.5a2,2,0,0,1,2.156,1.946h-4.27A2.1,2.1,0,0,1,88.466,8.5Zm3.612,4.2H90.356a1.868,1.868,0,0,1-1.82,1.078,2.122,2.122,0,0,1-2.2-2.044h5.894a4.923,4.923,0,0,0,.056-.784A3.6,3.6,0,0,0,88.536,7.16a3.694,3.694,0,0,0-3.85,3.976,3.743,3.743,0,0,0,3.85,3.99A3.525,3.525,0,0,0,92.078,12.7ZM2.646,27.75V24.572H4.41c1.246,0,1.806.588,1.806,1.6,0,.98-.56,1.582-1.806,1.582Zm5.208-1.582c0-1.582-1.134-2.9-3.444-2.9H1.05V33h1.6V29.052H4.41C6.944,29.052,7.854,27.554,7.854,26.168Zm3.122,2.772c0-1.638.728-2.128,1.9-2.128h.406V25.16a2.513,2.513,0,0,0-2.31,1.246v-1.12H9.38V33h1.6ZM18,26.5A2,2,0,0,1,20.16,28.45H15.89A2.1,2.1,0,0,1,18,26.5Zm3.612,4.2H19.894a1.868,1.868,0,0,1-1.82,1.078,2.122,2.122,0,0,1-2.2-2.044H21.77a4.923,4.923,0,0,0,.056-.784,3.6,3.6,0,0,0-3.752-3.794,3.694,3.694,0,0,0-3.85,3.976,3.743,3.743,0,0,0,3.85,3.99A3.525,3.525,0,0,0,21.616,30.7Zm.868-5.418L25.41,33h1.9l2.94-7.714H28.56l-2.184,6.286-2.184-6.286ZM34.706,26.5a2,2,0,0,1,2.156,1.946h-4.27A2.1,2.1,0,0,1,34.706,26.5Zm3.612,4.2H36.6a1.868,1.868,0,0,1-1.82,1.078,2.122,2.122,0,0,1-2.2-2.044h5.894a4.923,4.923,0,0,0,.056-.784,3.6,3.6,0,0,0-3.752-3.794,3.694,3.694,0,0,0-3.85,3.976,3.743,3.743,0,0,0,3.85,3.99A3.525,3.525,0,0,0,38.318,30.7ZM45.57,33h1.582V28.45a3,3,0,0,0-3.164-3.29,2.968,2.968,0,0,0-2.3,1.008v-.882H40.1V33h1.6V28.688a1.87,1.87,0,0,1,1.946-2.142c1.162,0,1.932.728,1.932,2.142Zm3.08-3.864a3.672,3.672,0,0,0,3.206,3.948v1.54h.77c.49,0,.784.1.784.518s-.294.518-.784.518H51.1v1.008h1.848a1.591,1.591,0,0,0,1.778-1.526c0-.966-.784-1.47-1.82-1.47V33.1a3.38,3.38,0,0,0,3.08-2.534H54.264a1.762,1.762,0,0,1-1.834,1.218c-1.288,0-2.142-.952-2.142-2.646S51.142,26.5,52.43,26.5a1.8,1.8,0,0,1,1.834,1.218h1.722A3.356,3.356,0,0,0,52.43,25.16,3.685,3.685,0,0,0,48.65,29.136Zm8.4-.028a3.729,3.729,0,0,0,3.612,4.018,3.32,3.32,0,0,0,2.7-1.274V33h1.61V25.286h-1.61v1.12A3.283,3.283,0,0,0,60.69,25.16,3.672,3.672,0,0,0,57.05,29.108Zm6.314.028a2.4,2.4,0,0,1-2.338,2.6,2.43,2.43,0,0,1-2.338-2.632,2.367,2.367,0,0,1,2.338-2.562A2.392,2.392,0,0,1,63.364,29.136ZM59,24.488h.9c.056-.406.294-.6.6-.6.56,0,.868.63,1.624.63.812,0,1.428-.532,1.582-1.638h-.9a.59.59,0,0,1-.6.588c-.56,0-.868-.616-1.624-.616C59.766,22.85,59.15,23.382,59,24.488Zm15.428,4.648a3.934,3.934,0,1,0-7.868,0,3.761,3.761,0,0,0,3.864,3.99A3.864,3.864,0,0,0,74.424,29.136Zm-6.244,0a2.3,2.3,0,0,1,2.282-2.59,2.334,2.334,0,0,1,2.324,2.59,2.376,2.376,0,0,1-2.366,2.6C69.216,31.74,68.18,30.886,68.18,29.136Zm10.934-.028a3.733,3.733,0,0,0,3.64,4.018,3.2,3.2,0,0,0,2.674-1.288V33h1.61V22.64h-1.61v3.724a3.553,3.553,0,0,0-2.66-1.2A3.674,3.674,0,0,0,79.114,29.108Zm6.314.028a2.4,2.4,0,0,1-2.338,2.6,2.43,2.43,0,0,1-2.338-2.632,2.367,2.367,0,0,1,2.338-2.562A2.392,2.392,0,0,1,85.428,29.136ZM92.386,26.5a2,2,0,0,1,2.156,1.946h-4.27A2.1,2.1,0,0,1,92.386,26.5ZM96,30.7H94.276a1.868,1.868,0,0,1-1.82,1.078,2.122,2.122,0,0,1-2.2-2.044h5.894a4.923,4.923,0,0,0,.056-.784,3.6,3.6,0,0,0-3.752-3.794,3.694,3.694,0,0,0-3.85,3.976,3.743,3.743,0,0,0,3.85,3.99A3.525,3.525,0,0,0,96,30.7Zm10.584-4.522c0,.966-.56,1.652-1.806,1.652h-1.764V24.572h1.764C106.022,24.572,106.582,25.2,106.582,26.182Zm-5.166-2.912V33h1.6V29.108h1.218L106.47,33h1.9l-2.408-4.032a2.769,2.769,0,0,0,2.254-2.786c0-1.582-1.134-2.912-3.444-2.912ZM110.264,33h1.6V25.286h-1.6Zm.812-8.736a1.022,1.022,0,1,0-1.022-1.022A1.007,1.007,0,0,0,111.076,24.264Zm8.638,6.58c-.084-2.786-4.438-1.918-4.438-3.472,0-.518.448-.868,1.3-.868a1.276,1.276,0,0,1,1.442,1.134h1.6c-.084-1.54-1.232-2.478-2.982-2.478-1.82,0-2.968.994-2.968,2.226,0,2.828,4.48,1.96,4.48,3.472,0,.532-.49.924-1.414.924a1.407,1.407,0,0,1-1.54-1.148H113.54c.07,1.4,1.372,2.492,3.22,2.492C118.58,33.126,119.714,32.146,119.714,30.844Zm1.19-1.708a3.689,3.689,0,0,0,3.78,3.99,3.465,3.465,0,0,0,3.556-2.562h-1.722a1.762,1.762,0,0,1-1.834,1.218c-1.288,0-2.142-.952-2.142-2.646s.854-2.632,2.142-2.632a1.8,1.8,0,0,1,1.834,1.218h1.722a3.355,3.355,0,0,0-3.556-2.562A3.685,3.685,0,0,0,120.9,29.136Zm16.282,0a3.934,3.934,0,1,0-7.868,0,3.761,3.761,0,0,0,3.864,3.99A3.864,3.864,0,0,0,137.186,29.136Zm-6.244,0a2.3,2.3,0,0,1,2.282-2.59,2.334,2.334,0,0,1,2.324,2.59,2.376,2.376,0,0,1-2.366,2.6C131.978,31.74,130.942,30.886,130.942,29.136Zm13.58,1.708c-.084-2.786-4.438-1.918-4.438-3.472,0-.518.448-.868,1.3-.868a1.276,1.276,0,0,1,1.442,1.134h1.6c-.084-1.54-1.232-2.478-2.982-2.478-1.82,0-2.968.994-2.968,2.226,0,2.828,4.48,1.96,4.48,3.472,0,.532-.49.924-1.414.924A1.407,1.407,0,0,1,140,30.634h-1.652c.07,1.4,1.372,2.492,3.22,2.492C143.388,33.126,144.522,32.146,144.522,30.844ZM7.616,51H9.3L5.81,41.256H3.962L.476,51H2.142l.7-1.988H6.916ZM6.468,47.71H3.29l1.6-4.522ZM21.742,51h1.582V46.45a3.014,3.014,0,0,0-3.178-3.29,3.02,3.02,0,0,0-2.688,1.526,2.975,2.975,0,0,0-2.772-1.526A2.938,2.938,0,0,0,12.4,44.168v-.882h-1.6V51h1.6V46.688a1.87,1.87,0,0,1,1.946-2.142c1.162,0,1.932.728,1.932,2.142V51h1.582V46.688a1.87,1.87,0,0,1,1.946-2.142c1.162,0,1.932.728,1.932,2.142Zm5.208-6.566V40.64h-1.6V51h1.6V49.88a3.278,3.278,0,0,0,2.688,1.246,3.723,3.723,0,0,0,3.626-4.018,3.653,3.653,0,0,0-3.626-3.948A3.3,3.3,0,0,0,26.95,44.434Zm4.69,2.674a2.432,2.432,0,0,1-2.352,2.632,2.611,2.611,0,0,1,0-5.194A2.369,2.369,0,0,1,31.64,47.108ZM34.846,51h1.6V43.286h-1.6Zm.812-8.736a1.022,1.022,0,1,0-1.022-1.022A1.007,1.007,0,0,0,35.658,42.264ZM41.79,44.5a2,2,0,0,1,2.156,1.946h-4.27A2.1,2.1,0,0,1,41.79,44.5ZM45.4,48.7H43.68a1.868,1.868,0,0,1-1.82,1.078,2.122,2.122,0,0,1-2.2-2.044h5.894a4.923,4.923,0,0,0,.056-.784A3.6,3.6,0,0,0,41.86,43.16a3.694,3.694,0,0,0-3.85,3.976,3.743,3.743,0,0,0,3.85,3.99A3.525,3.525,0,0,0,45.4,48.7ZM52.654,51h1.582V46.45a3,3,0,0,0-3.164-3.29,2.968,2.968,0,0,0-2.3,1.008v-.882h-1.6V51h1.6V46.688a1.87,1.87,0,0,1,1.946-2.142c1.162,0,1.932.728,1.932,2.142Zm3.864-2.142c0,1.568.854,2.142,2.226,2.142H60V49.67h-.98c-.672,0-.9-.238-.9-.812v-4.27H60v-1.3H58.128V41.368h-1.61v1.918h-.91v1.3h.91Zm4.424-1.75a3.729,3.729,0,0,0,3.612,4.018,3.32,3.32,0,0,0,2.7-1.274V51h1.61V43.286h-1.61v1.12a3.283,3.283,0,0,0-2.674-1.246A3.672,3.672,0,0,0,60.942,47.108Zm6.314.028a2.4,2.4,0,0,1-2.338,2.6,2.43,2.43,0,0,1-2.338-2.632,2.367,2.367,0,0,1,2.338-2.562A2.392,2.392,0,0,1,67.256,47.136ZM70.966,51h1.6V43.286h-1.6Zm.812-8.736a1.022,1.022,0,1,0-1.022-1.022A1.007,1.007,0,0,0,71.778,42.264Zm8.638,6.58c-.084-2.786-4.438-1.918-4.438-3.472,0-.518.448-.868,1.3-.868a1.276,1.276,0,0,1,1.442,1.134h1.6c-.084-1.54-1.232-2.478-2.982-2.478-1.82,0-2.968.994-2.968,2.226,0,2.828,4.48,1.96,4.48,3.472,0,.532-.49.924-1.414.924a1.407,1.407,0,0,1-1.54-1.148H74.242c.07,1.4,1.372,2.492,3.22,2.492C79.282,51.126,80.416,50.146,80.416,48.844ZM90.958,53.6V53.45A10.814,10.814,0,0,1,88,45.9a10.638,10.638,0,0,1,3.234-7.826v-.154H89.586a10.621,10.621,0,0,0-3.122,7.98,10.709,10.709,0,0,0,2.842,7.7Zm3.3-7.854V42.572h1.764c1.246,0,1.806.588,1.806,1.6,0,.98-.56,1.582-1.806,1.582Zm5.208-1.582c0-1.582-1.134-2.9-3.444-2.9h-3.36V51h1.6V47.052h1.764C98.56,47.052,99.47,45.554,99.47,44.168Zm3.122,1.582V42.572h1.764c1.246,0,1.806.588,1.806,1.6,0,.98-.56,1.582-1.806,1.582Zm5.208-1.582c0-1.582-1.134-2.9-3.444-2.9H101V51h1.6V47.052h1.764C106.89,47.052,107.8,45.554,107.8,44.168Zm6.692.014c0,.966-.56,1.652-1.806,1.652h-1.764V42.572h1.764C113.932,42.572,114.492,43.2,114.492,44.182Zm-5.166-2.912V51h1.6V47.108h1.218L114.38,51h1.9l-2.408-4.032a2.769,2.769,0,0,0,2.254-2.786c0-1.582-1.134-2.912-3.444-2.912ZM124.74,51h1.68l-3.486-9.744h-1.848L117.6,51h1.666l.7-1.988h4.074Zm-1.148-3.29h-3.178l1.6-4.522ZM127.54,53.6V53.45a10.814,10.814,0,0,0,2.954-7.546,10.638,10.638,0,0,0-3.234-7.826v-.154h1.652a10.621,10.621,0,0,1,3.122,7.98,10.709,10.709,0,0,1-2.842,7.7Z" transform="translate(183 276.25)" fill="#fff"/>
  </g>
</svg>
