<svg xmlns="http://www.w3.org/2000/svg" width="164.735" height="198.253" viewBox="0 0 164.735 198.253">
  <g id="Grupo_1784" data-name="Grupo 1784" transform="translate(-9600.025 -10775.365)">
    <g id="Grupo_1669" data-name="Grupo 1669" transform="translate(9600.025 10775.365)" opacity="0.5">
      <g id="Grupo_1667" data-name="Grupo 1667" transform="translate(0 0)">
        <g id="Grupo_1666" data-name="Grupo 1666" transform="translate(0 0)">
          <g id="Grupo_1665" data-name="Grupo 1665" transform="translate(0)">
            <path id="Caminho_23953" data-name="Caminho 23953" d="M45.07,12.314,44.217,0c0,1.324-28.228,127.4-32.441,149.122l-9.385-1L0,152.292l27.828,2.173L28,150.843l-9.923-1.053Z" transform="matrix(0.995, -0.105, 0.105, 0.995, 0, 44.635)" fill="#f8f7f7"/>
            <path id="Caminho_23954" data-name="Caminho 23954" d="M27.1,4.7,24.751,0c.162.505-12.1,48.63-13.573,56.921l-9.342-.38L0,58.887l27.84.829-.277-2.138-10.114-.4Z" transform="matrix(0.995, -0.105, 0.105, 0.995, 111.183, 107.989)" fill="#f8f7f7"/>
            <path id="Caminho_23955" data-name="Caminho 23955" d="M14.742,115.277,0,0,108.651,15.755l6.553,86.428ZM2.4,2.445,16.536,112.952l96.45-12.571-6.278-82.81Z" transform="matrix(0.995, -0.105, 0.105, 0.995, 38.113, 12.042)" fill="#fff"/>
            <path id="Caminho_23956" data-name="Caminho 23956" d="M5.013,0,0,1.2,14.437,114.1l5.013-1.2Z" transform="matrix(0.995, -0.105, 0.105, 0.995, 34.451, 13.656)" fill="#f8f7f7"/>
            <path id="Caminho_23957" data-name="Caminho 23957" d="M5.013,12.833,0,14.036l1,2.206L103.469,2.005V0S6.217,11.631,5.013,12.833Z" transform="matrix(0.995, -0.105, 0.105, 0.995, 59.265, 111.658)" fill="#f8f7f7"/>
            <path id="Caminho_23958" data-name="Caminho 23958" d="M47.833,45.964l-1.058-.908,13.387-15.6,5.58,9.3c1.687-1.921,6.232-7.077,7.764-8.607.939-.939,2.472-1.238,4.557-.891a14.68,14.68,0,0,1,2.569.687h6.724l.209.279a3.766,3.766,0,0,0,2.429,1.367,4.01,4.01,0,0,0,3.024-1.441,68.849,68.849,0,0,1,9.126-7.133,42.579,42.579,0,0,1,5.309-3.081c1.867-.871,3.21-1.174,4.107-.926a1.661,1.661,0,0,1,1.211,1.243c.765,3.063.333,7.813.114,9.692h9.43V31.34H111.291l.113-.8c.009-.064.9-6.413.014-9.953a.275.275,0,0,0-.231-.238c-.855-.237-3.478.643-8.273,3.825A67.327,67.327,0,0,0,94,31.136a5.307,5.307,0,0,1-4.12,1.845,5.011,5.011,0,0,1-3.2-1.641H80.369l-.125-.05c-1.174-.468-4.5-1.408-5.753-.154-1.822,1.82-8.266,9.184-8.33,9.258l-.63.72-5.57-9.284Z" transform="translate(18.417 7.452)" fill="#fff"/>
            <path id="Caminho_23959" data-name="Caminho 23959" d="M47.561,67.8l-.635-1.241,11.049-5.651h9.978l5.754-10.354v5.987c1.637.838,5.305,2.333,7.43,1.577A2.338,2.338,0,0,0,82.583,56.7c1.872-4.681,10.863-16.395,11.245-16.891l.314-.409.483.181c.322.121,7.885,3.014,7.885,8.085,0,4.582.944,5.548,1.35,5.751.6.3,1.516-.234,2.182-.734,3.469-2.6,7.79-5.233,8.36-5.577a3.947,3.947,0,0,1,1.507-.807,4.636,4.636,0,0,1,3.946.787,4.508,4.508,0,0,0,4.8,0l.771,1.161a5.9,5.9,0,0,1-6.348,0,3.335,3.335,0,0,0-2.731-.623,2.556,2.556,0,0,0-1.039.54l-.061.061-.069.04c-.046.028-4.66,2.8-8.3,5.535-1.426,1.07-2.651,1.361-3.642.866-1.446-.723-2.12-2.947-2.12-7,0-3.478-4.936-5.9-6.507-6.584C92.958,43.258,85.485,53.2,83.878,57.219A3.708,3.708,0,0,1,81.6,59.432c-3.362,1.2-8.7-1.737-8.931-1.863l-.358-.2V55.932l-3.54,6.37H58.311Z" transform="translate(18.477 15.514)" fill="#fff"/>
          </g>
        </g>
      </g>
    </g>
  </g>
</svg>
