<svg xmlns="http://www.w3.org/2000/svg" width="242.435" height="104.261" viewBox="0 0 242.435 104.261">
  <g id="Grupo_1658" data-name="Grupo 1658" transform="translate(-128.475 -252.119)">
    <g id="Grupo_1647" data-name="Grupo 1647">
      <path id="Caminho_21149" data-name="Caminho 21149" d="M197.592,104.261H0L44.843,52.131,0,0H197.592l44.843,52.131Z" transform="translate(128.475 252.119)" fill="#ef7100"/>
      <path id="Caminho_21150" data-name="Caminho 21150" d="M198.531,102.529H8.471L50.689,53.015,8.471,3.5H198.533l42.593,49.515ZM10.28,101.782H198.188l41.95-48.767L198.188,4.247H10.28L51.748,53.015Z" transform="translate(126.334 251.235)" fill="#fff"/>
    </g>
    <path id="Caminho_31880" data-name="Caminho 31880" d="M1.05,15h1.6V8.336L5.628,15H6.734L9.7,8.336V15h1.6V5.27H9.59l-3.4,7.63L2.772,5.27H1.05Zm11.816-3.892a3.729,3.729,0,0,0,3.612,4.018,3.32,3.32,0,0,0,2.7-1.274V15h1.61V7.286H19.18v1.12A3.283,3.283,0,0,0,16.506,7.16,3.672,3.672,0,0,0,12.866,11.108Zm6.314.028a2.4,2.4,0,0,1-2.338,2.6A2.43,2.43,0,0,1,14.5,11.108a2.367,2.367,0,0,1,2.338-2.562A2.392,2.392,0,0,1,19.18,11.136ZM24.486,8.42V7.286h-1.6V18.668h1.6V13.88a3.488,3.488,0,0,0,2.688,1.246A3.723,3.723,0,0,0,30.8,11.108,3.661,3.661,0,0,0,27.174,7.16,3.366,3.366,0,0,0,24.486,8.42Zm4.69,2.688a2.432,2.432,0,0,1-2.352,2.632,2.4,2.4,0,0,1-2.338-2.6,2.4,2.4,0,0,1,2.338-2.59A2.369,2.369,0,0,1,29.176,11.108Zm2.674,0a3.729,3.729,0,0,0,3.612,4.018,3.32,3.32,0,0,0,2.7-1.274V15h1.61V7.286h-1.61v1.12A3.283,3.283,0,0,0,35.49,7.16,3.672,3.672,0,0,0,31.85,11.108Zm6.314.028a2.4,2.4,0,0,1-2.338,2.6,2.43,2.43,0,0,1-2.338-2.632,2.367,2.367,0,0,1,2.338-2.562A2.392,2.392,0,0,1,38.164,11.136Zm6.818-.028a3.733,3.733,0,0,0,3.64,4.018A3.2,3.2,0,0,0,51.3,13.838V15h1.61V4.64H51.3V8.364a3.553,3.553,0,0,0-2.66-1.2A3.674,3.674,0,0,0,44.982,11.108Zm6.314.028a2.4,2.4,0,0,1-2.338,2.6,2.43,2.43,0,0,1-2.338-2.632,2.367,2.367,0,0,1,2.338-2.562A2.392,2.392,0,0,1,51.3,11.136ZM58.254,8.5A2,2,0,0,1,60.41,10.45H56.14A2.1,2.1,0,0,1,58.254,8.5Zm3.612,4.2H60.144a1.868,1.868,0,0,1-1.82,1.078,2.122,2.122,0,0,1-2.2-2.044H62.02a4.923,4.923,0,0,0,.056-.784A3.6,3.6,0,0,0,58.324,7.16a3.694,3.694,0,0,0-3.85,3.976,3.743,3.743,0,0,0,3.85,3.99A3.525,3.525,0,0,0,61.866,12.7ZM72.45,8.182c0,.966-.56,1.652-1.806,1.652H68.88V6.572h1.764C71.89,6.572,72.45,7.2,72.45,8.182ZM67.284,5.27V15h1.6V11.108H70.1L72.338,15h1.9l-2.408-4.032a2.769,2.769,0,0,0,2.254-2.786c0-1.582-1.134-2.912-3.444-2.912ZM76.132,15h1.6V7.286h-1.6Zm.812-8.736a1.022,1.022,0,1,0-1.022-1.022A1.007,1.007,0,0,0,76.944,6.264Zm8.638,6.58c-.084-2.786-4.438-1.918-4.438-3.472,0-.518.448-.868,1.3-.868a1.276,1.276,0,0,1,1.442,1.134h1.6C85.4,8.1,84.252,7.16,82.5,7.16c-1.82,0-2.968.994-2.968,2.226,0,2.828,4.48,1.96,4.48,3.472,0,.532-.49.924-1.414.924a1.407,1.407,0,0,1-1.54-1.148H79.408c.07,1.4,1.372,2.492,3.22,2.492C84.448,15.126,85.582,14.146,85.582,12.844Zm1.19-1.708a3.689,3.689,0,0,0,3.78,3.99,3.465,3.465,0,0,0,3.556-2.562H92.386a1.762,1.762,0,0,1-1.834,1.218c-1.288,0-2.142-.952-2.142-2.646S89.264,8.5,90.552,8.5a1.8,1.8,0,0,1,1.834,1.218h1.722A3.356,3.356,0,0,0,90.552,7.16,3.685,3.685,0,0,0,86.772,11.136Zm16.282,0a3.934,3.934,0,1,0-7.868,0,3.761,3.761,0,0,0,3.864,3.99A3.864,3.864,0,0,0,103.054,11.136Zm-6.244,0a2.3,2.3,0,0,1,2.282-2.59,2.334,2.334,0,0,1,2.324,2.59,2.376,2.376,0,0,1-2.366,2.6C97.846,13.74,96.81,12.886,96.81,11.136Z" transform="translate(191 294.25)" fill="#fff"/>
  </g>
</svg>
