<svg id="Grupo_1734" data-name="Grupo 1734" xmlns="http://www.w3.org/2000/svg" xmlns:xlink="http://www.w3.org/1999/xlink" width="45.065" height="45" viewBox="0 0 45.065 45">
  <defs>
    <clipPath id="clip-path">
      <rect id="Retângulo_114" data-name="Retângulo 114" width="45.065" height="45" fill="#294667"/>
    </clipPath>
  </defs>
  <g id="Grupo_153" data-name="Grupo 153" clip-path="url(#clip-path)">
    <path id="Caminho_178" data-name="Caminho 178" d="M0,22.468a.9.9,0,0,0,.362.724l5.323,3.773L2.946,32.907A.935.935,0,0,0,3,33.734a1,1,0,0,0,.724.465l6.512.568.568,6.512a1,1,0,0,0,.465.724.935.935,0,0,0,.827.052l5.943-2.739,3.773,5.323a.838.838,0,0,0,.724.362.9.9,0,0,0,.724-.362l3.773-5.323,5.943,2.739A.935.935,0,0,0,33.8,42a1,1,0,0,0,.465-.724l.568-6.512,6.512-.568a1,1,0,0,0,.724-.465.935.935,0,0,0,.052-.827L39.38,26.964,44.7,23.191a.838.838,0,0,0,.362-.724.987.987,0,0,0-.362-.724L39.38,17.972l2.739-5.943a.935.935,0,0,0-.052-.827,1,1,0,0,0-.724-.465l-6.512-.568-.568-6.512a1,1,0,0,0-.465-.724.935.935,0,0,0-.827-.052L27.028,5.62,23.2.349a.924.924,0,0,0-1.447,0L17.984,5.672,12.041,2.933a.935.935,0,0,0-.827.052,1,1,0,0,0-.465.724l-.568,6.512-6.512.568a1,1,0,0,0-.724.465.935.935,0,0,0-.052.827l2.739,5.943L.362,21.744A.782.782,0,0,0,0,22.468m24.393,9.974a2.624,2.624,0,0,1-3.824,0,2.81,2.81,0,0,1-.775-2.015,3.265,3.265,0,0,1,.775-2.016,2.851,2.851,0,0,1,3.824,0,3.008,3.008,0,0,1,0,4.031m-4.6-17.933a2.771,2.771,0,0,1,2.687-2.842,2.739,2.739,0,0,1,2.687,2.842v8.786a2.771,2.771,0,0,1-2.687,2.842,2.739,2.739,0,0,1-2.687-2.842Z" transform="translate(0 0)" fill="#294667"/>
  </g>
</svg>
