<svg id="Camada_1" data-name="Camada 1" xmlns="http://www.w3.org/2000/svg" xmlns:xlink="http://www.w3.org/1999/xlink" viewBox="0 0 906.28125 966.36461"><defs><style>.cls-1{fill:#4a4f4c;}.cls-2{fill:#626866;}.cls-3{fill:url(#Gradiente_sem_nome_120);}.cls-4{fill:url(#Gradiente_sem_nome_121);}.cls-5{fill:url(#Gradiente_sem_nome_139);}.cls-6{fill:url(#Gradiente_sem_nome_136);}.cls-7{fill:url(#Gradiente_sem_nome_189);}.cls-8{fill:url(#Gradiente_sem_nome_186);}.cls-9{fill:url(#Gradiente_sem_nome_415);}.cls-10{fill:url(#Gradiente_sem_nome_412);}.cls-11{fill:url(#Gradiente_sem_nome_21);}.cls-12{fill:url(#Gradiente_sem_nome_14);}</style><linearGradient id="Gradiente_sem_nome_120" x1="179.21069" y1="668.34763" x2="135.33569" y2="583.97263" gradientUnits="userSpaceOnUse"><stop offset="0.01117" stop-color="#ba6e03"/><stop offset="1" stop-color="#f7a613"/></linearGradient><linearGradient id="Gradiente_sem_nome_121" x1="81.65399" y1="733.86584" x2="224.20538" y2="733.86584" gradientUnits="userSpaceOnUse"><stop offset="0.01117" stop-color="#ba6e03"/><stop offset="0.01467" stop-color="#bc7004"/><stop offset="0.05739" stop-color="#d28409"/><stop offset="0.10743" stop-color="#e3930e"/><stop offset="0.16976" stop-color="#ee9e11"/><stop offset="0.2572" stop-color="#f5a413"/><stop offset="0.5" stop-color="#f7a613"/><stop offset="0.74835" stop-color="#f5a413"/><stop offset="0.83779" stop-color="#ee9e11"/><stop offset="0.90154" stop-color="#e3930e"/><stop offset="0.95273" stop-color="#d28409"/><stop offset="0.99642" stop-color="#bc7004"/><stop offset="1" stop-color="#ba6e03"/></linearGradient><linearGradient id="Gradiente_sem_nome_139" x1="780.05745" y1="129.57391" x2="749.68245" y2="72.19891" gradientUnits="userSpaceOnUse"><stop offset="0" stop-color="#545757"/><stop offset="0.0419" stop-color="#565959"/><stop offset="0.65468" stop-color="#757676"/><stop offset="1" stop-color="#808181"/></linearGradient><linearGradient id="Gradiente_sem_nome_136" x1="684.21649" y1="199.24084" x2="826.76788" y2="199.24084" gradientUnits="userSpaceOnUse"><stop offset="0" stop-color="#545757"/><stop offset="0.01658" stop-color="#5b5d5d"/><stop offset="0.07125" stop-color="#6c6d6d"/><stop offset="0.13931" stop-color="#777979"/><stop offset="0.23482" stop-color="#7e7f7f"/><stop offset="0.5" stop-color="#808181"/><stop offset="0.76518" stop-color="#7e7f7f"/><stop offset="0.86069" stop-color="#777979"/><stop offset="0.92875" stop-color="#6c6d6d"/><stop offset="0.98342" stop-color="#5b5d5d"/><stop offset="1" stop-color="#545757"/></linearGradient><linearGradient id="Gradiente_sem_nome_189" x1="604.35515" y1="508.53227" x2="551.48015" y2="470.28227" gradientUnits="userSpaceOnUse"><stop offset="0" stop-color="#92ceec"/><stop offset="0.11876" stop-color="#99d1ed"/><stop offset="1" stop-color="#cce3f1"/></linearGradient><linearGradient id="Gradiente_sem_nome_186" x1="492.59149" y1="593.74084" x2="635.14288" y2="593.74084" gradientUnits="userSpaceOnUse"><stop offset="0" stop-color="#92ceec"/><stop offset="0.02104" stop-color="#98d0ed"/><stop offset="0.11873" stop-color="#afd8ee"/><stop offset="0.22401" stop-color="#bfdef0"/><stop offset="0.34121" stop-color="#c9e2f1"/><stop offset="0.49441" stop-color="#cce3f1"/><stop offset="0.64141" stop-color="#c9e2f1"/><stop offset="0.76537" stop-color="#bedef0"/><stop offset="0.88097" stop-color="#add8ee"/><stop offset="0.99093" stop-color="#94cfec"/><stop offset="1" stop-color="#92ceec"/></linearGradient><linearGradient id="Gradiente_sem_nome_415" x1="899.29458" y1="839.53394" x2="844.16958" y2="733.78394" gradientUnits="userSpaceOnUse"><stop offset="0" stop-color="#5c6483"/><stop offset="0.24286" stop-color="#7a7998"/><stop offset="0.75423" stop-color="#b3a2c1"/><stop offset="1" stop-color="#cab2d1"/></linearGradient><linearGradient id="Gradiente_sem_nome_412" x1="795.84149" y1="893.86584" x2="938.39288" y2="893.86584" gradientUnits="userSpaceOnUse"><stop offset="0" stop-color="#5c6483"/><stop offset="0.05781" stop-color="#7a7998"/><stop offset="0.12832" stop-color="#978ead"/><stop offset="0.20364" stop-color="#ad9ebd"/><stop offset="0.28494" stop-color="#bea9c8"/><stop offset="0.37653" stop-color="#c7b0cf"/><stop offset="0.5" stop-color="#cab2d1"/><stop offset="0.67469" stop-color="#c8b0cf"/><stop offset="0.761" stop-color="#c0abca"/><stop offset="0.82794" stop-color="#b3a2c1"/><stop offset="0.88491" stop-color="#a094b3"/><stop offset="0.93555" stop-color="#8883a2"/><stop offset="0.98098" stop-color="#6b6e8d"/><stop offset="1" stop-color="#5c6483"/></linearGradient><linearGradient id="Gradiente_sem_nome_21" x1="219.75039" y1="142.13401" x2="195.00039" y2="76.88401" gradientUnits="userSpaceOnUse"><stop offset="0" stop-color="#284666"/><stop offset="0.1591" stop-color="#2b4c6d"/><stop offset="0.49908" stop-color="#2e5376"/><stop offset="1" stop-color="#2f5579"/></linearGradient><linearGradient id="Gradiente_sem_nome_14" x1="126.55243" y1="200.11584" x2="269.10382" y2="200.11584" gradientUnits="userSpaceOnUse"><stop offset="0" stop-color="#284666"/><stop offset="0.08044" stop-color="#2b4c6d"/><stop offset="0.25233" stop-color="#2e5376"/><stop offset="0.50559" stop-color="#2f5579"/><stop offset="0.73386" stop-color="#2e5275"/><stop offset="0.94892" stop-color="#29496a"/><stop offset="1" stop-color="#284666"/></linearGradient></defs><path d="M874.502,971.5a9.96909,9.96909,0,0,1-7.31347-3.17871l-313-335.5a9.99942,9.99942,0,1,1,14.623-13.64258l313,335.5A10,10,0,0,1,874.502,971.5Z" transform="translate(-56.88281 -20.5)"/><path d="M135.00342,823.5a10,10,0,0,1-6.66309-17.46L739.33984,260.54053a10.00007,10.00007,0,1,1,13.32032,14.91894L141.65967,820.96A9.96393,9.96393,0,0,1,135.00342,823.5Z" transform="translate(-56.88281 -20.5)"/><path d="M573.49219,648.002a10.00326,10.00326,0,0,1-8.92481-14.498l180.31446-358.229L201.77393,283.374a10.00013,10.00013,0,1,1-.29786-19.998L761.085,255.03076c.04981-.00049.10059-.001.14942-.001a10,10,0,0,1,8.93261,14.49609L582.43262,642.49609A10.00078,10.00078,0,0,1,573.49219,648.002Z" transform="translate(-56.88281 -20.5)"/><path d="M866.625,986.125a9.988,9.988,0,0,1-2.20215-.24512l-688.875-155.5a10.00055,10.00055,0,0,1-1.83935-18.90234L548.22461,646.00586,208.11914,306.36572,150.5625,818.36719a10.0001,10.0001,0,0,1-19.875-2.23438l59.875-532.625a10.00023,10.00023,0,0,1,17.00391-5.959l365.125,364.625a9.99906,9.99906,0,0,1-3.02539,16.22265L209.48389,817.53711,854.57031,963.15234,751.97754,278.30908a10,10,0,0,1,19.7793-2.96289L876.51465,974.64355A9.99978,9.99978,0,0,1,866.625,986.125Z" transform="translate(-56.88281 -20.5)"/><path class="cls-1" d="M56.88281,808.1436c0,10.33933,43.00165,18.721,96.04688,18.721s96.04687-8.38168,96.04687-18.721V793.67327H56.88281Z" transform="translate(-56.88281 -20.5)"/><ellipse class="cls-2" cx="96.04688" cy="770.7314" rx="96.04688" ry="18.721"/><path class="cls-3" d="M205.86253,620.16356c0,35.91981-37.681,68.83644-52.93284,68.83644s-52.93285-32.91663-52.93285-68.83644S123.69568,555.125,152.92969,555.125,205.86253,584.24376,205.86253,620.16356Z" transform="translate(-56.88281 -20.5)"/><path class="cls-4" d="M197.13733,672.88763c-14.76721,18.76337-33.76758,31.33265-44.20764,31.33265s-29.44043-12.56928-44.20764-31.33265a71.128,71.128,0,0,0-27.06806,55.888v66.06843H224.20538V728.77563A71.128,71.128,0,0,0,197.13733,672.88763Z" transform="translate(-56.88281 -20.5)"/><path class="cls-1" d="M659.44531,273.5186c0,10.33933,43.00165,18.721,96.04688,18.721s96.04687-8.38168,96.04687-18.721V259.04827H659.44531Z" transform="translate(-56.88281 -20.5)"/><ellipse class="cls-2" cx="698.60938" cy="236.1064" rx="96.04688" ry="18.721"/><path class="cls-5" d="M808.425,85.53856c0,35.91981-37.681,68.83644-52.93284,68.83644s-52.93285-32.91663-52.93285-68.83644S726.25818,20.5,755.49219,20.5,808.425,49.61876,808.425,85.53856Z" transform="translate(-56.88281 -20.5)"/><path class="cls-6" d="M799.69983,138.26263c-14.76721,18.76337-33.76758,31.33265-44.20764,31.33265s-29.44043-12.56928-44.20764-31.33265a71.128,71.128,0,0,0-27.06806,55.888v66.06843H826.76788V194.15063A71.128,71.128,0,0,0,799.69983,138.26263Z" transform="translate(-56.88281 -20.5)"/><path class="cls-1" d="M467.82031,668.0186c0,10.33933,43.00165,18.721,96.04688,18.721s96.04687-8.38168,96.04687-18.721V653.54827H467.82031Z" transform="translate(-56.88281 -20.5)"/><ellipse class="cls-2" cx="506.98438" cy="630.6064" rx="96.04688" ry="18.721"/><path class="cls-7" d="M616.8,480.03856c0,35.91981-37.681,68.83644-52.93284,68.83644s-52.93285-32.91663-52.93285-68.83644S534.63318,415,563.86719,415,616.8,444.11876,616.8,480.03856Z" transform="translate(-56.88281 -20.5)"/><path class="cls-8" d="M608.07483,532.76263c-14.76721,18.76337-33.76758,31.33265-44.20764,31.33265s-29.44043-12.56928-44.20764-31.33265a71.128,71.128,0,0,0-27.06806,55.888v66.06843H635.14288V588.65063A71.128,71.128,0,0,0,608.07483,532.76263Z" transform="translate(-56.88281 -20.5)"/><path class="cls-1" d="M771.07031,968.1436c0,10.33933,43.00165,18.721,96.04688,18.721s96.04687-8.38168,96.04687-18.721V953.67327H771.07031Z" transform="translate(-56.88281 -20.5)"/><ellipse class="cls-2" cx="810.23438" cy="930.7314" rx="96.04688" ry="18.721"/><path class="cls-9" d="M920.05,780.16356C920.05,816.08337,882.369,849,867.11719,849s-52.93285-32.91663-52.93285-68.83644S837.88318,715.125,867.11719,715.125,920.05,744.24376,920.05,780.16356Z" transform="translate(-56.88281 -20.5)"/><path class="cls-10" d="M911.32483,832.88763c-14.76721,18.76337-33.76758,31.33265-44.20764,31.33265s-29.44043-12.56928-44.20764-31.33265a71.128,71.128,0,0,0-27.06806,55.888v66.06843H938.39288V888.77563A71.128,71.128,0,0,0,911.32483,832.88763Z" transform="translate(-56.88281 -20.5)"/><path class="cls-1" d="M101.78125,274.3936c0,10.33933,43.00165,18.721,96.04687,18.721s96.04688-8.38168,96.04688-18.721V259.92327H101.78125Z" transform="translate(-56.88281 -20.5)"/><ellipse class="cls-2" cx="140.94531" cy="236.9814" rx="96.04688" ry="18.721"/><path class="cls-11" d="M250.761,86.41356c0,35.91981-37.681,68.83644-52.93285,68.83644s-52.93284-32.91663-52.93284-68.83644S168.59412,21.375,197.82812,21.375,250.761,50.49376,250.761,86.41356Z" transform="translate(-56.88281 -20.5)"/><path class="cls-12" d="M242.03577,139.13763c-14.76722,18.76337-33.76758,31.33265-44.20765,31.33265S168.3877,157.901,153.62048,139.13763a71.128,71.128,0,0,0-27.068,55.888v66.06843H269.10382V195.02563A71.128,71.128,0,0,0,242.03577,139.13763Z" transform="translate(-56.88281 -20.5)"/></svg>