<svg id="bg" xmlns="http://www.w3.org/2000/svg" xmlns:xlink="http://www.w3.org/1999/xlink" viewBox="0 0 1908 654"><defs><style>.cls-1{fill:#cce3f1;}.cls-1,.cls-2,.cls-3,.cls-4,.cls-5{isolation:isolate;}.cls-2{fill:#dfeff7;}.cls-3{fill:#d8ebf5;}.cls-4{fill:#e6f4fb;}.cls-5{fill:#2f5579;}.cls-6{fill:url(#linear-gradient);}.cls-7{fill:url(#linear-gradient-2);}.cls-8{fill:url(#linear-gradient-3);}.cls-9{fill:url(#linear-gradient-4);}.cls-10{fill:url(#linear-gradient-5);}.cls-11{fill:url(#linear-gradient-6);}.cls-12{fill:url(#linear-gradient-7);}.cls-13{fill:url(#linear-gradient-8);}.cls-14{fill:url(#linear-gradient-9);}.cls-15{fill:url(#linear-gradient-10);}.cls-16{fill:url(#linear-gradient-11);}.cls-17{fill:url(#linear-gradient-12);}.cls-18{fill:url(#linear-gradient-13);}.cls-19{fill:url(#linear-gradient-14);}.cls-20{fill:url(#linear-gradient-15);}.cls-21{fill:url(#linear-gradient-16);}.cls-22{fill:url(#linear-gradient-17);}.cls-23{fill:url(#linear-gradient-18);}.cls-24{fill:url(#linear-gradient-19);}.cls-25{fill:url(#linear-gradient-20);}.cls-26{fill:url(#linear-gradient-21);}.cls-27{fill:url(#linear-gradient-22);}.cls-28{fill:url(#linear-gradient-23);}.cls-29{fill:url(#linear-gradient-24);}.cls-30{fill:url(#linear-gradient-25);}.cls-31{fill:url(#linear-gradient-26);}.cls-32{fill:url(#linear-gradient-27);}.cls-33{fill:url(#linear-gradient-28);}.cls-34{fill:url(#linear-gradient-29);}.cls-35{fill:#52b99e;}.cls-36{fill:url(#linear-gradient-30);}.cls-37{fill:url(#linear-gradient-31);}.cls-38{fill:url(#linear-gradient-32);}.cls-39{fill:url(#linear-gradient-33);}.cls-40{fill:url(#linear-gradient-34);}.cls-41{fill:url(#linear-gradient-35);}.cls-42{fill:url(#linear-gradient-36);}.cls-43{fill:url(#linear-gradient-37);}.cls-44{fill:url(#linear-gradient-38);}.cls-45{fill:url(#linear-gradient-39);}.cls-46{fill:url(#linear-gradient-40);}.cls-47{fill:url(#linear-gradient-41);}.cls-48{fill:url(#linear-gradient-42);}.cls-49{fill:url(#linear-gradient-43);}.cls-50{fill:url(#linear-gradient-44);}.cls-51{fill:#f0811d;}.cls-52{fill:url(#linear-gradient-45);}.cls-53{fill:url(#linear-gradient-46);}.cls-54{fill:url(#linear-gradient-47);}.cls-55{fill:url(#linear-gradient-48);}.cls-56{fill:url(#linear-gradient-49);}.cls-57{fill:url(#linear-gradient-50);}.cls-58{fill:#4daf4c;}.cls-59{fill:url(#linear-gradient-51);}.cls-60{fill:url(#linear-gradient-52);}.cls-61{fill:url(#linear-gradient-53);}.cls-62{fill:url(#linear-gradient-54);}.cls-63{fill:url(#linear-gradient-55);}.cls-64{fill:url(#linear-gradient-56);}.cls-65{fill:url(#linear-gradient-57);}.cls-66{fill:url(#linear-gradient-58);}</style><linearGradient id="linear-gradient" x1="225.042" y1="280.954" x2="247.354" y2="226.875" gradientUnits="userSpaceOnUse"><stop offset="0" stop-color="#25214b"/><stop offset="1" stop-color="#4b4a75"/></linearGradient><linearGradient id="linear-gradient-2" x1="262.887" y1="511.131" x2="262.887" y2="647.89" xlink:href="#linear-gradient"/><linearGradient id="linear-gradient-3" x1="243.505" y1="617.902" x2="169.153" y2="617.902" xlink:href="#linear-gradient"/><linearGradient id="linear-gradient-4" x1="277.541" y1="617.902" x2="326.205" y2="617.902" xlink:href="#linear-gradient"/><linearGradient id="linear-gradient-5" x1="191.349" y1="624.079" x2="206.98" y2="624.079" gradientUnits="userSpaceOnUse"><stop offset="0" stop-color="#68769f"/><stop offset="1" stop-color="#7986b0"/></linearGradient><linearGradient id="linear-gradient-6" x1="330.422" y1="633.47" x2="330.422" y2="613.572" xlink:href="#linear-gradient-5"/><linearGradient id="linear-gradient-7" x1="260.978" y1="504.894" x2="260.978" y2="540.726" xlink:href="#linear-gradient-5"/><linearGradient id="linear-gradient-8" x1="172.569" y1="295.725" x2="169.292" y2="276.312" xlink:href="#linear-gradient"/><linearGradient id="linear-gradient-9" x1="308.244" y1="435.739" x2="143.36" y2="372.709" xlink:href="#linear-gradient"/><linearGradient id="linear-gradient-10" x1="194.783" y1="457.091" x2="95.701" y2="590.965" xlink:href="#linear-gradient"/><linearGradient id="linear-gradient-11" x1="369.492" y1="650.08" x2="397.603" y2="627.263" gradientUnits="userSpaceOnUse"><stop offset="0" stop-color="#52b99e"/><stop offset="1" stop-color="#8eccbb"/></linearGradient><linearGradient id="linear-gradient-12" x1="336.519" y1="501.439" x2="423.247" y2="438.914" gradientUnits="userSpaceOnUse"><stop offset="0" stop-color="#108761"/><stop offset="1" stop-color="#52b99e"/></linearGradient><linearGradient id="linear-gradient-13" x1="219.799" y1="595.035" x2="334.386" y2="456.623" xlink:href="#linear-gradient-12"/><linearGradient id="linear-gradient-14" x1="168.019" y1="483.173" x2="305.674" y2="450.398" gradientUnits="userSpaceOnUse"><stop offset="0" stop-color="#108761"/><stop offset="1" stop-color="#108761" stop-opacity="0"/></linearGradient><linearGradient id="linear-gradient-15" x1="219.588" y1="458.905" x2="248.33" y2="323.266" xlink:href="#linear-gradient-12"/><linearGradient id="linear-gradient-16" x1="215.919" y1="609.595" x2="285.504" y2="360.756" gradientUnits="userSpaceOnUse"><stop offset="0" stop-color="#d6d6ed"/><stop offset="1" stop-color="#faf1f8"/></linearGradient><linearGradient id="linear-gradient-17" x1="202.326" y1="366.636" x2="361.411" y2="421.345" gradientUnits="userSpaceOnUse"><stop offset="0" stop-color="#d6d6ed"/><stop offset="1" stop-color="#d6d6ed" stop-opacity="0"/></linearGradient><linearGradient id="linear-gradient-18" x1="194.445" y1="603.59" x2="264.029" y2="354.751" xlink:href="#linear-gradient-16"/><linearGradient id="linear-gradient-19" x1="234.762" y1="414.581" x2="261.716" y2="309.424" gradientUnits="userSpaceOnUse"><stop offset="0" stop-color="#bdc1de"/><stop offset="1" stop-color="#d6d6ed"/></linearGradient><linearGradient id="linear-gradient-20" x1="149.932" y1="591.143" x2="219.516" y2="342.304" xlink:href="#linear-gradient-16"/><linearGradient id="linear-gradient-21" x1="213.233" y1="342.093" x2="234.411" y2="266.459" gradientUnits="userSpaceOnUse"><stop offset="0" stop-color="#f8bead"/><stop offset="1" stop-color="#fbd6c9"/></linearGradient><linearGradient id="linear-gradient-22" x1="223.702" y1="290.018" x2="258.242" y2="266.067" xlink:href="#linear-gradient"/><linearGradient id="linear-gradient-23" x1="293.291" y1="441.53" x2="309.553" y2="409.007" xlink:href="#linear-gradient-21"/><linearGradient id="linear-gradient-24" x1="194.947" y1="436.16" x2="225.201" y2="477.003" xlink:href="#linear-gradient-17"/><linearGradient id="linear-gradient-25" x1="166.469" y1="595.767" x2="236.053" y2="346.928" xlink:href="#linear-gradient-16"/><linearGradient id="linear-gradient-26" x1="358.436" y1="330.826" x2="344.255" y2="350.113" xlink:href="#linear-gradient-21"/><linearGradient id="linear-gradient-27" x1="318.855" y1="674.484" x2="340.789" y2="629.607" xlink:href="#linear-gradient-11"/><linearGradient id="linear-gradient-28" x1="156.266" y1="282.076" x2="140.194" y2="287.181" xlink:href="#linear-gradient"/><linearGradient id="linear-gradient-29" x1="372.753" y1="661.251" x2="396.427" y2="624.014" xlink:href="#linear-gradient-12"/><linearGradient id="linear-gradient-30" x1="202.988" y1="414.703" x2="229.839" y2="309.948" xlink:href="#linear-gradient-19"/><linearGradient id="linear-gradient-31" x1="180.708" y1="401.277" x2="240.711" y2="364.972" xlink:href="#linear-gradient-17"/><linearGradient id="linear-gradient-32" x1="262.887" y1="632.714" x2="262.887" y2="612.975" xlink:href="#linear-gradient-5"/><linearGradient id="linear-gradient-33" x1="230.878" y1="298.339" x2="226.088" y2="322.417" gradientUnits="userSpaceOnUse"><stop offset="0" stop-color="#f39986"/><stop offset="1" stop-color="#f39986" stop-opacity="0"/></linearGradient><linearGradient id="linear-gradient-34" x1="369.267" y1="261.899" x2="317.303" y2="332.571" gradientUnits="userSpaceOnUse"><stop offset="0" stop-color="#c13d18"/><stop offset="1" stop-color="#ed6933"/></linearGradient><linearGradient id="linear-gradient-35" x1="359.765" y1="268.355" x2="347.697" y2="284.768" xlink:href="#linear-gradient-19"/><linearGradient id="linear-gradient-36" x1="386.166" y1="345.271" x2="358.37" y2="332.224" xlink:href="#linear-gradient-21"/><linearGradient id="linear-gradient-37" x1="448.473" y1="605.559" x2="264.68" y2="335.542" xlink:href="#linear-gradient-34"/><linearGradient id="linear-gradient-38" x1="361.1" y1="771.414" x2="254.244" y2="443.131" gradientUnits="userSpaceOnUse"><stop offset="0" stop-color="#f0811d"/><stop offset="1" stop-color="#fbc680"/></linearGradient><linearGradient id="linear-gradient-39" x1="130.809" y1="514.712" x2="-20.185" y2="514.712" xlink:href="#linear-gradient-38"/><linearGradient id="linear-gradient-40" x1="78.621" y1="416.304" x2="10.131" y2="416.304" xlink:href="#linear-gradient-34"/><linearGradient id="linear-gradient-41" x1="65.464" y1="630.724" x2="65.464" y2="704.215" xlink:href="#linear-gradient-34"/><linearGradient id="linear-gradient-42" x1="124.443" y1="621.528" x2="124.443" y2="668.808" xlink:href="#linear-gradient-34"/><linearGradient id="linear-gradient-43" x1="435.051" y1="633.023" x2="435.051" y2="707.534" xlink:href="#linear-gradient-34"/><linearGradient id="linear-gradient-44" x1="494.03" y1="598.538" x2="494.03" y2="651.875" xlink:href="#linear-gradient-34"/><linearGradient id="linear-gradient-45" x1="84.294" y1="469.172" x2="12.738" y2="469.172" xlink:href="#linear-gradient-34"/><linearGradient id="linear-gradient-46" x1="84.294" y1="516.339" x2="12.738" y2="516.339" xlink:href="#linear-gradient-34"/><linearGradient id="linear-gradient-47" x1="84.294" y1="563.508" x2="12.738" y2="563.508" xlink:href="#linear-gradient-34"/><linearGradient id="linear-gradient-48" x1="171.585" y1="439.364" x2="177.131" y2="396.757" xlink:href="#linear-gradient-38"/><linearGradient id="linear-gradient-49" x1="135.599" y1="403.672" x2="125.502" y2="403.672" xlink:href="#linear-gradient-38"/><linearGradient id="linear-gradient-50" x1="78.336" y1="384.681" x2="96.993" y2="324.173" gradientUnits="userSpaceOnUse"><stop offset="0" stop-color="#4daf4c"/><stop offset="1" stop-color="#dbdf60"/></linearGradient><linearGradient id="linear-gradient-51" x1="96.301" y1="310.292" x2="96.487" y2="309.689" xlink:href="#linear-gradient-50"/><linearGradient id="linear-gradient-52" x1="91.856" y1="388.849" x2="110.513" y2="328.342" xlink:href="#linear-gradient-50"/><linearGradient id="linear-gradient-53" x1="71.131" y1="382.459" x2="89.787" y2="321.951" xlink:href="#linear-gradient-50"/><linearGradient id="linear-gradient-54" x1="75.466" y1="328.971" x2="75.628" y2="328.445" xlink:href="#linear-gradient-50"/><linearGradient id="linear-gradient-55" x1="91.933" y1="377.13" x2="91.933" y2="362.73" xlink:href="#linear-gradient-16"/><linearGradient id="linear-gradient-56" x1="85.574" y1="377.13" x2="85.574" y2="362.73" xlink:href="#linear-gradient-19"/><linearGradient id="linear-gradient-57" x1="64.771" y1="433.574" x2="90.912" y2="406.91" xlink:href="#linear-gradient-16"/><linearGradient id="linear-gradient-58" x1="104.845" y1="404.08" x2="68.801" y2="404.08" xlink:href="#linear-gradient-17"/></defs><rect class="cls-1" x="28.5" y="534" width="1867.5" height="13.5"/><rect class="cls-2" x="28.5" y="415.5" width="1867.5" height="45"/><rect class="cls-3" x="28.5" y="208.5" width="1867.5" height="144"/><rect class="cls-4" x="28.5" width="1867.5" height="159"/><polygon class="cls-5" points="1908 654 0 654 19.5 597 1888 597 1908 654"/><g id="Doctor"><path class="cls-6" d="M249.807,272.569s9.33-6.429,11.5-13.709-4.979-10.242-8.95-11.692-6.03-2.08-3.015-3.53,4.149-4.475,3.456-5.987-3.656,1.827-12.038.693-16.23-2.08-21.43,8.887c0,0-6.681-1.576-9.077,3.593s-.945,15.442,2.206,19.161S249.807,272.569,249.807,272.569Z" transform="translate(-1.166 -22)"/><rect class="cls-7" x="257.687" y="495.248" width="10.4" height="125.05"/><path class="cls-8" d="M206,611.725h51.684a0,0,0,0,1,0,0v12.354a0,0,0,0,1,0,0H199.164a0,0,0,0,1,0,0v-5.515A6.838,6.838,0,0,1,206,611.725Z"/><path class="cls-9" d="M268.086,611.725h55.5a6.838,6.838,0,0,1,6.838,6.838v5.515a0,0,0,0,1,0,0H268.086a0,0,0,0,1,0,0V611.725a0,0,0,0,1,0,0Z"/><circle class="cls-10" cx="199.164" cy="624.079" r="7.816"/><circle class="cls-11" cx="330.422" cy="624.079" r="7.816"/><path class="cls-12" d="M322.161,501.621,313.283,512.2a14.12,14.12,0,0,1-10.817,5.045H219.489a14.116,14.116,0,0,1-10.816-5.045L199.8,501.621Z" transform="translate(-1.166 -22)"/><path class="cls-13" d="M190.153,291.291l-3.723-15.322a6.431,6.431,0,0,0-6.25-4.913H156.03a5.036,5.036,0,0,0-4.894,6.225l3.4,14.01Z" transform="translate(-1.166 -22)"/><path class="cls-14" d="M344.328,501.621H184.06a17.55,17.55,0,0,1-17.18-13.967l-39.042-187.19a7.621,7.621,0,0,1,7.46-9.176h92.88a10.621,10.621,0,0,1,10.324,8.129l45.39,188.144h60.436a7.03,7.03,0,0,1,7.031,7.03h0A7.03,7.03,0,0,1,344.328,501.621Z" transform="translate(-1.166 -22)"/><path class="cls-15" d="M351.355,494.586a7.03,7.03,0,0,1-7.024,7.035H184.063a17.544,17.544,0,0,1-17.178-13.965L127.836,300.468a7.615,7.615,0,0,1,7.459-9.177h0a2.865,2.865,0,0,1,2.805,2.28l37.868,181.555a17.567,17.567,0,0,0,17.189,13.965H345.638a5.636,5.636,0,0,1,5.717,5.428Z" transform="translate(-1.166 -22)"/><path class="cls-16" d="M402.523,655.407H356.579a4.9,4.9,0,0,1-4.824-4.129,5.314,5.314,0,0,1-.059-.753V631.712h17.3c1.517,3.941,18.918,12.318,28.178,15.154,3.847,1.176,5.906,2.859,7,4.412.153.235.294.459.412.682A2.338,2.338,0,0,1,402.523,655.407Z" transform="translate(-1.166 -22)"/><path class="cls-17" d="M260.353,438.3l93.852,10.454a17.571,17.571,0,0,1,15.626,17.481l-.173,165.469H350.371L334.11,487.561H233.8a23.542,23.542,0,0,1-23.542-23.541V438.3Z" transform="translate(-1.166 -22)"/><path class="cls-18" d="M227.548,445.394l82.794,11.014a18.183,18.183,0,0,1,15.786,18l.229,157.3H306.44L289.8,493.3H224.331a17.568,17.568,0,0,1-17.568-17.568V445.394Z" transform="translate(-1.166 -22)"/><path class="cls-19" d="M206.763,445.394v30.335A17.568,17.568,0,0,0,224.331,493.3h21.1c-21.934-16.766-17.88-47.9-17.88-47.9Z" transform="translate(-1.166 -22)"/><path class="cls-20" d="M260.353,438.3s-13.791,8.792-34.023,3.309l-10.489-136.8,24.67-1.608s10.4,7.942,15.7,43.112S260.353,438.3,260.353,438.3Z" transform="translate(-1.166 -22)"/><path class="cls-21" d="M348.673,353.306l-45.568,80.17A14.306,14.306,0,0,1,278,433.064l-2.542-4.824-4.388-8.353a90.808,90.808,0,0,1-10.212-35.555c-1.754-23.66-6.6-63.992-19.508-78.734-.235-.271-.47-.53-.717-.789l-.118-1.611,21.237,3.529a23.439,23.439,0,0,1,5.271,1.53,22.955,22.955,0,0,1,13.636,17.6l10.718,69.992,45.568-52.756Z" transform="translate(-1.166 -22)"/><path class="cls-22" d="M285.7,418.907c-8.887-8.336.757-21.163-5.861-30.806S268.8,344.974,268.8,344.974l-10.688,13.32c1.325,9.454,2.187,18.575,2.74,26.038a90.808,90.808,0,0,0,10.212,35.555l4.388,8.353L278,433.064a14.157,14.157,0,0,0,12.879,7.633C287.8,433.676,292.918,425.673,285.7,418.907Z" transform="translate(-1.166 -22)"/><path class="cls-23" d="M278.127,440.276,260.35,438.3c-.365-4.271-1.177-13.942-2.212-25.637-1.659-18.731-3.871-42.626-5.648-57.78-2.659-22.707-9.612-43.391-11.859-50.074-.412-1.2-.259-1.506-.165-1.588a.042.042,0,0,1,.024-.012.035.035,0,0,1,.023-.011l1.965.329,19.272,3.2a23.439,23.439,0,0,1,5.271,1.53c1.117,23.519,3.341,69.51,4.623,88.982a268.351,268.351,0,0,0,3.812,31C276.7,434.853,277.8,439.041,278.127,440.276Z" transform="translate(-1.166 -22)"/><path class="cls-24" d="M258.138,412.663c-1.659-18.731-3.871-42.626-5.648-57.78-2.659-22.707-9.612-43.391-11.859-50.074-.412-1.2-.259-1.506-.165-1.588a.042.042,0,0,1,.024-.012,2.444,2.444,0,0,1,1.035-.517l.953.835,9.377,8.177s-4.447,0-6.424,2.365c0,0,6.047.094,7.753,1.894C253.184,315.963,260.256,377.661,258.138,412.663Z" transform="translate(-1.166 -22)"/><path class="cls-25" d="M214.664,501.621a71.576,71.576,0,0,1-30.178-15.012,17.441,17.441,0,0,1-5.8-16.084c1.329-8.247,3.235-22.389,4.635-42.332.412-5.941.789-12.389,1.095-19.354,1.47-34.072,3.211-76.875,4.047-97.453l21.813-5.235,5.565-1.342s3.871,24.143,6.895,63.2c1.211,15.625,2.223,31.143,3,44.121l.035.529c.412,7.095.777,13.413,1.047,18.554.483,8.8.73,14.177.73,14.177S206.346,463.8,214.664,501.621Z" transform="translate(-1.166 -22)"/><path class="cls-26" d="M215.836,304.808V278.62s-5.437-1.75-4.728-6.571,6.382-4.917,6.9-.993c0,0,8.414-4.444,7.374-12.2,0,0,7.375,11.062,24.393,7.658,0,0,.283,19.192-.851,25.621s-4.822,7-8.415,7.091V303.2s1.009,6.3-2.773,8.572-10.4,1.449-14.812-1.387A44.245,44.245,0,0,1,215.836,304.808Z" transform="translate(-1.166 -22)"/><path class="cls-27" d="M240.511,299.23c3.593-.1,7.28-.662,8.415-7.091.17-.965.308-2.222.42-3.654a2.679,2.679,0,0,0-1.649,1.228s-1.324-4.223-4.98-4.16-6.176,4.349-6.176,4.349-8.194-.883-10.715-3.341-4.276-9.233-3.777-18.656v0a17.765,17.765,0,0,1-4.039,3.153s1.607,14.654,3.215,18.72S230.773,298.757,240.511,299.23Z" transform="translate(-1.166 -22)"/><path class="cls-28" d="M290.175,421.569a32.832,32.832,0,0,1,7.63-2.584c3.845-.693,8.32,3.341,12.417,6.3s6.176,4.6,5.105,5.925H284.563S281.032,423.649,290.175,421.569Z" transform="translate(-1.166 -22)"/><path class="cls-29" d="M183.321,428.193c-1.065,15.169-2.422,26.972-3.6,35.388,15.862-7.015,8.176-21.13,21.078-25.277,13.236-4.255,26.015-7.087,26.015-7.087l-42.425-21.9Q183.94,419.486,183.321,428.193Z" transform="translate(-1.166 -22)"/><path class="cls-30" d="M290.175,421.569c-4.918,2.648-5.612,9.648-5.612,9.648H192.5a15.461,15.461,0,0,1-15.271-13.095L165.2,340.341a24.755,24.755,0,0,1,18.671-27.849l4.589-1.106,27.378-6.577-6.436,12.648a51.762,51.762,0,0,0-5.612,24.319l1.165,67.31,20.778,3.048Z" transform="translate(-1.166 -22)"/><path class="cls-31" d="M336.943,343.094s-1.132-6.551,4.037-10.269,7.752-10.211,8.509-12.1,3.277-.945,3.214,3.277a45.254,45.254,0,0,1-1.008,8.32l16.167,8.226s-17.171,9.21-19.189,12.76Z" transform="translate(-1.166 -22)"/><path class="cls-32" d="M358.65,655.407H312.706a4.875,4.875,0,0,1-4.812-4.129,3.988,3.988,0,0,1-.071-.753V631.712H325.13c1.506,3.941,18.907,12.318,28.166,15.154,3.86,1.176,5.919,2.859,7,4.412a6.228,6.228,0,0,1,.423.682A2.343,2.343,0,0,1,358.65,655.407Z" transform="translate(-1.166 -22)"/><path class="cls-33" d="M151.136,277.281l3.4,14.01h6.23l-4.105-16.9a2.747,2.747,0,0,0-5.09-.649A4.986,4.986,0,0,0,151.136,277.281Z" transform="translate(-1.166 -22)"/><path class="cls-34" d="M402.523,655.407H356.579a4.9,4.9,0,0,1-4.824-4.129H404.17c.153.235.294.459.412.682A2.338,2.338,0,0,1,402.523,655.407Z" transform="translate(-1.166 -22)"/><path class="cls-35" d="M358.65,655.407H312.706a4.875,4.875,0,0,1-4.812-4.129h52.4a6.228,6.228,0,0,1,.423.682A2.343,2.343,0,0,1,358.65,655.407Z" transform="translate(-1.166 -22)"/><path class="cls-36" d="M225.771,412.663a23.293,23.293,0,0,1-1.471-6.4c-5.341-38.885-19.526-80.277-19.526-80.277,2.655-2.41,9.36-5.2,9.36-5.2-3.243-2.836-8.509-3.215-8.509-3.215,1.929-3.988,5.022-9.4,6.116-11.777l4.1-.985s3.871,24.143,6.895,63.2c1.211,15.625,2.223,31.143,3,44.121Z" transform="translate(-1.166 -22)"/><path class="cls-37" d="M225.771,412.663l-20.813-3.577-1.047-60.5s2.061,13.908,7.229,23.15-2.556,16.8,3.7,23.864S225.771,412.663,225.771,412.663Z" transform="translate(-1.166 -22)"/><circle class="cls-38" cx="262.887" cy="624.079" r="7.816"/><path class="cls-39" d="M237.736,311.774a9.209,9.209,0,0,1-2.647,1.012c-12.6-9.883-13.859-23.013-13.859-23.013,1.6,4.071,9.541,8.989,19.283,9.46V303.2S241.525,309.5,237.736,311.774Z" transform="translate(-1.166 -22)"/><polygon class="cls-40" points="325.809 260.25 376.5 246.75 367.541 325 318.5 333.25 325.809 260.25"/><path class="cls-41" d="M366.416,269.25l-5.943,1.471a5.268,5.268,0,0,0,.568-1.471c.622-2.9-1.673-5.25-5.125-5.25s-6.753,2.35-7.375,5.25a3.992,3.992,0,0,0,1.431,4.069l-7.806,1.931-2.25,3.75,1.25-.25,29-7.5Zm-14.159,0a3.065,3.065,0,0,1,2.99-2.129c1.4,0,2.331.953,2.079,2.129a3.065,3.065,0,0,1-2.991,2.129C352.935,271.379,352.005,270.426,352.257,269.25Z" transform="translate(-1.166 -22)"/><path class="cls-42" d="M367.862,340.546s-7.091,1.481-10.369-.347-1.953-9.959,1.387-11.345,12.447.025,13.866,2.08C375.142,334.4,372.872,339.127,367.862,340.546Z" transform="translate(-1.166 -22)"/></g><g id="Doctor_s_Desk" data-name="Doctor&apos;s Desk"><g id="Desk"><rect class="cls-43" x="129.564" y="409.213" width="380.176" height="14.182"/><rect class="cls-44" x="55.936" y="423.394" width="443.215" height="182.635"/><rect class="cls-45" x="55.936" y="423.394" width="73.628" height="182.635"/><rect class="cls-46" x="44.396" y="409.213" width="85.167" height="14.182"/><path class="cls-47" d="M59.177,628.03v33.886a2.144,2.144,0,0,0,2.144,2.144h4.271a2.144,2.144,0,0,0,2.092-1.674l4.067-34.356Z" transform="translate(-1.166 -22)"/><path class="cls-48" d="M118.156,628.03v33.886a2.144,2.144,0,0,0,2.144,2.144h4.271a2.144,2.144,0,0,0,2.092-1.674l4.067-34.356Z" transform="translate(-1.166 -22)"/><path class="cls-49" d="M428.764,628.03v33.886a2.144,2.144,0,0,0,2.145,2.144h4.27a2.144,2.144,0,0,0,2.092-1.674l4.067-34.356Z" transform="translate(-1.166 -22)"/><path class="cls-50" d="M487.743,628.03v33.886a2.144,2.144,0,0,0,2.144,2.144h4.271a2.144,2.144,0,0,0,2.092-1.674l4.067-34.356Z" transform="translate(-1.166 -22)"/><rect class="cls-51" x="129.564" y="468.289" width="369.587" height="1.765"/><rect class="cls-51" x="129.564" y="515.457" width="369.587" height="1.765"/><rect class="cls-51" x="129.564" y="562.625" width="369.587" height="1.765"/><rect class="cls-52" x="55.936" y="468.289" width="73.628" height="1.765"/><rect class="cls-53" x="55.936" y="515.457" width="73.628" height="1.765"/><rect class="cls-54" x="55.936" y="562.625" width="73.628" height="1.765"/></g><g id="Nametag"><polygon class="cls-55" points="218.822 409.217 213.603 398.128 137.415 398.128 132.196 409.217 218.822 409.217"/><polygon class="cls-56" points="137.415 398.128 142.633 409.217 132.196 409.217 137.415 398.128"/><path class="cls-51" d="M199.1,427.437a5.57,5.57,0,0,1-3.634-1.286,4.609,4.609,0,0,0-5.9,0,5.766,5.766,0,0,1-7.261,0,4.6,4.6,0,0,0-5.891,0,5.768,5.768,0,0,1-7.261,0,4.6,4.6,0,0,0-5.89,0,5.768,5.768,0,0,1-7.261,0,4.393,4.393,0,0,0-2.945-1.067v-1.176a5.565,5.565,0,0,1,3.63,1.286,4.6,4.6,0,0,0,5.891,0,5.766,5.766,0,0,1,7.26,0,4.6,4.6,0,0,0,5.891,0,5.768,5.768,0,0,1,7.261,0,4.6,4.6,0,0,0,5.892,0,5.775,5.775,0,0,1,7.266,0,4.612,4.612,0,0,0,5.9,0,5.57,5.57,0,0,1,3.633-1.286v1.176a4.412,4.412,0,0,0-2.95,1.067A5.57,5.57,0,0,1,199.1,427.437Z" transform="translate(-1.166 -22)"/></g><g id="Plant_Decor" data-name="Plant Decor"><path class="cls-57" d="M98.774,334.437v.008l-4.334,35.63L94,375.119c-.008.008-.008.023-.015.03-.423.023-.861.031-1.307.031-.634,0-1.246-.023-1.843-.061l-.181-5.022L87.5,348.574v-.015s-3.079-26.024-.059-34.61,10.748-6.321,11.33,1.321S98.774,334.437,98.774,334.437Z" transform="translate(-1.166 -22)"/><path class="cls-58" d="M90.833,375.12l-.188-5.024L87.5,348.577v-.012s-3.083-26.025-.059-34.614c1.929-5.494,5.788-6.553,8.459-4.588-3.553,10.871-4.106,36.92-4.106,36.92v.011l.062,21.563q.009,2.989-.269,5.97l-.122,1.316Z" transform="translate(-1.166 -22)"/><path class="cls-59" d="M96.963,310.363a6.4,6.4,0,0,0-1.059-1A4.985,4.985,0,0,1,96.963,310.363Z" transform="translate(-1.166 -22)"/><path class="cls-60" d="M108.558,345.959v.006l-9.686,26.254-1.37,3.717c-.007,0-.011.016-.018.02-.324-.07-.656-.154-.992-.245-.479-.13-.936-.273-1.379-.423L96,371.459l3.812-16.413,0-.011s3.9-20.038,7.937-25.9,5.856-3.534,4.729,2.355S108.558,345.959,108.558,345.959Z" transform="translate(-1.166 -22)"/><path class="cls-58" d="M112.646,326.94a16.4,16.4,0,0,0-1.764,2.188c-4.048,5.871-7.942,25.908-7.942,25.908v.012L99.128,371.46l-.035.142-.012.058-.212.553L97.5,375.931c-.011.012-.011.024-.023.024-.318-.071-.659-.153-.988-.247q-.724-.2-1.377-.424L96,371.46l3.824-16.412v-.012s3.894-20.037,7.93-25.908C110.446,325.222,112.152,324.952,112.646,326.94Z" transform="translate(-1.166 -22)"/><path class="cls-61" d="M75.818,346.946l0,.006,9.685,26.254,1.371,3.718c.007,0,.01.015.017.019.324-.069.657-.153.993-.245.479-.13.936-.272,1.379-.423l-.893-3.829L84.56,356.034l0-.012s-3.9-20.038-7.937-25.9-5.857-3.534-4.73,2.355S75.818,346.946,75.818,346.946Z" transform="translate(-1.166 -22)"/><path class="cls-62" d="M75.774,328.976c-.157-.2-.305-.368-.453-.539C75.468,328.6,75.618,328.78,75.774,328.976Z" transform="translate(-1.166 -22)"/><path class="cls-58" d="M89.269,376.273c-.448.153-.906.294-1.389.423q-.493.141-.988.247a.042.042,0,0,1-.012-.023L85.5,373.2l-9.683-26.249v-.012a148.928,148.928,0,0,1-3.93-14.471c-1-5.211.311-7.63,3.43-4.033-.11-.125-.218-.245-.324-.356a12.078,12.078,0,0,0,.2,4.389,149.24,149.24,0,0,0,3.93,14.471v.012l8.965,24.307.282,1.189Z" transform="translate(-1.166 -22)"/><path class="cls-63" d="M103.964,375.12a1.818,1.818,0,0,1-1.824,1.823H81.727a1.818,1.818,0,1,1,0-3.635H102.14A1.815,1.815,0,0,1,103.964,375.12Z" transform="translate(-1.166 -22)"/><path class="cls-64" d="M91.245,376.943H81.727a1.818,1.818,0,1,1,0-3.635h9.518a1.818,1.818,0,0,0,0,3.635Z" transform="translate(-1.166 -22)"/><path class="cls-65" d="M102.234,431.217h-20.6s-8.318-9.706-2.4-26.307,5.906-27.967,5.906-27.967H98.728s0,11.377,5.906,27.967S102.234,431.217,102.234,431.217Z" transform="translate(-1.166 -22)"/><path class="cls-66" d="M91.151,431.217H81.633s-8.318-9.706-2.4-26.307,5.906-27.967,5.906-27.967h9.53s0,11.377-5.906,27.967S91.151,431.217,91.151,431.217Z" transform="translate(-1.166 -22)"/></g></g></svg>