<svg id="_1" data-name="1" xmlns="http://www.w3.org/2000/svg" viewBox="0 0 128 128"><defs><style>.cls-1{fill:#284666;isolation:isolate;}</style></defs><path class="cls-1" d="M32.705,116.232a4.47,4.47,0,0,1-3.132-5.86c1.515-4.189,6.9-12.132,6.146-17.829-.5-3.785-3.306-7.6-5.376-10.751-6.462-9.856-13.5-20.016-13.171-35.749.259-12.449,5.388-23.47,12.594-29.721C44.436,3.591,80.2,2.809,93.539,18.984a39.35,39.35,0,0,1,9.8,23.924c-.292,6.419-.294,7.571-2.029,11.549-2.026,5.192,12.153,16.71,7.706,21.921-2.469,2.473-3.35,1.444-5.936,3.068-2.518,2.207.8,6.033-1.288,9.968,1.162,5.7-1.984,3.673-2.535,6.61-.4,2.126,1.612,3.518.709,7.809-.771,3.663-3.249,4.767-7.258,5.376a61.148,61.148,0,0,1-13.207.6h0s-7.7,8.8-9.473,14.009a4.455,4.455,0,0,1-5.3,2.856Z"/></svg>