<svg xmlns="http://www.w3.org/2000/svg" viewBox="0 0 143.27796 143.27796"><defs><style>.cls-1{fill:#284666;}.cls-1,.cls-2{isolation:isolate;}.cls-2,.cls-3{fill:#fff;}</style></defs><g id="_1" data-name="1"><circle class="cls-1" cx="71.63898" cy="71.63898" r="67.83691"/><path class="cls-1" d="M71.639,143.278a71.639,71.639,0,1,1,71.639-71.639A71.72,71.72,0,0,1,71.639,143.278Zm0-141.67709A70.03811,70.03811,0,1,0,141.67708,71.639,70.11754,70.11754,0,0,0,71.639,1.60087Z"/><path class="cls-2" d="M71.639,135.67382A64.03484,64.03484,0,1,1,135.67382,71.639,64.1072,64.1072,0,0,1,71.639,135.67382Zm0-127.26925A63.23441,63.23441,0,1,0,134.87338,71.639,63.30624,63.30624,0,0,0,71.639,8.40457Z"/><path class="cls-3" d="M64.80679,59.14371h-9.71V41.798H84.131v68.91064H64.80679Z"/></g></svg>