<svg id="_1" data-name="1" xmlns="http://www.w3.org/2000/svg" xmlns:xlink="http://www.w3.org/1999/xlink" viewBox="0 0 1024.875 352.125"><defs><style>.cls-1,.cls-2{fill:#cce3f1;}.cls-1,.cls-2,.cls-3,.cls-4,.cls-6,.cls-7{isolation:isolate;}.cls-1{opacity:0.5;}.cls-3{fill:url(#Gradiente_sem_nome_5);}.cls-5{fill:#284666;}.cls-6{fill:#808181;}.cls-7{fill:#f7a613;}</style><linearGradient id="Gradiente_sem_nome_5" x1="512.4375" y1="237.75" x2="512.4375" y2="339.8492" gradientUnits="userSpaceOnUse"><stop offset="0" stop-color="#fff"/><stop offset="1" stop-color="#cce3f1"/></linearGradient></defs><path class="cls-1" d="M538.9163,312a34.875,34.875,0,1,0,34.875,34.875A34.875,34.875,0,0,0,538.9163,312Zm0,64.0171a29.1421,29.1421,0,1,1,29.1421-29.1421A29.1422,29.1422,0,0,1,538.9163,376.0171Z" transform="translate(0.2087 -128.75)"/><path class="cls-1" d="M491.6663,192.75a15.75,15.75,0,1,0,15.75,15.75A15.75,15.75,0,0,0,491.6663,192.75Zm0,28.911A13.161,13.161,0,1,1,504.8272,208.5,13.161,13.161,0,0,1,491.6663,221.661Z" transform="translate(0.2087 -128.75)"/><path class="cls-2" d="M745.7427,168.453a65.8709,65.8709,0,1,0,65.8709,65.8709A65.8709,65.8709,0,0,0,745.7427,168.453Zm0,120.9137a55.0428,55.0428,0,1,1,55.0428-55.0428A55.0428,55.0428,0,0,1,745.7427,289.3667Z" transform="translate(0.2087 -128.75)"/><path class="cls-2" d="M856.28,128.75a44.6659,44.6659,0,1,0,44.6658,44.6659A44.6659,44.6659,0,0,0,856.28,128.75Zm0,81.9894a37.3236,37.3236,0,1,1,37.3235-37.3235A37.3236,37.3236,0,0,1,856.28,210.7394Z" transform="translate(0.2087 -128.75)"/><path class="cls-2" d="M946.0624,131.457a20.7539,20.7539,0,1,0,20.7538,20.7539A20.7539,20.7539,0,0,0,946.0624,131.457Zm0,38.0961a17.3423,17.3423,0,1,1,17.3422-17.3422A17.3423,17.3423,0,0,1,946.0624,169.5531Z" transform="translate(0.2087 -128.75)"/><path class="cls-2" d="M942.453,195.5232a72.1873,72.1873,0,1,0,72.1873,72.1873A72.1874,72.1874,0,0,0,942.453,195.5232Zm0,132.5082a60.3209,60.3209,0,1,1,60.3209-60.3209A60.3209,60.3209,0,0,1,942.453,328.0314Z" transform="translate(0.2087 -128.75)"/><path class="cls-2" d="M968.38,335.75a15.75,15.75,0,1,0,15.75,15.75A15.75,15.75,0,0,0,968.38,335.75Zm0,28.911a13.161,13.161,0,1,1,13.161-13.161A13.161,13.161,0,0,1,968.38,364.661Z" transform="translate(0.2087 -128.75)"/><rect class="cls-3" y="311.625" width="1024.875" height="40.5"/><rect class="cls-3" y="285.75" width="1024.875" height="13.5"/><rect class="cls-3" y="271.875" width="1024.875" height="6"/><rect class="cls-3" y="264.75" width="1024.875" height="3"/><rect class="cls-3" y="259.875" width="1024.875" height="1.5"/><rect class="cls-3" y="256.5" width="1024.875" height="0.75"/><g class="cls-4"><path class="cls-5" d="M928.3037,216.3155c.77.48,1.513.95,2.4316.2272.3027-.2381,3.0165.3814,3.5488.76.949.6747,1.8132,1.0006,2.8146.0206.2647-.259.8527-.9255,1.3719.2543.24.5462,1.9294.455,3.0385.6676-.2292.4925-.6768,1.14.67,1.1211,1.4759-.0208,1.8206,1.5359,2.636,2.416.6582.71,1.1834,1.5742,2.3267.866a.2965.2965,0,0,1,.4762.1807c-.2025,1.2122.8988,1.6127,1.4351,2.3566.1991.2762.44.6154.2723.8841-1.493,2.3947.742,1.3857,1.61,1.79-.7771.9243-.1944,1.3851.6464,1.9321.853.5549,1.6266,1.325.8216,2.5655-.1479-.1217-.31-.194-.3707-.3165-.1908-.384-.3485-.9479-.8829-.52-.3823.3064-.2294.8141.1472,1.13.3282.2752.7088.4874,1.062.7336.5345.3726,1.0851.737,1.0427,1.5156-.5021.4811-.6062-.5424-1.1254-.21.0759,1.1735.4958,2.1032,1.8624,2.2681-.1826.67-.76.415-1.1619.6625.4886.9193,1.5556,1.6554,1.0637,3.0722-.5177-.6961-.2082-1.7879-1.2708-1.9424-.3184,2.1006-.0464,2.6271,1.9378,3.2773-2.5884.1087-.3631,2.21-1.647,2.85-.3829-.1046-.3053-.6845-.764-1.1047.0207,1.3138-.4366,2.46.88,3.4781-1.1438-.1037-1.7146.1166-1.1856,1.1484a1.0236,1.0236,0,0,1,.1066.6322c-.0753.3429-.0866.8731-.6.7988-.6188-.09.1172-.6757-.3776-.9306a2.6294,2.6294,0,0,0-1.2106,2.4748c.0224.19-.89,1.6848-2.1008,1.308a1.3866,1.3866,0,0,0-1.9264,1.0187c-.1436,1.2515-.7426.6606-1.1446.431-.819-.4679-1.5072-.5448-2.1022.2918a2.1443,2.1443,0,0,0-.0453,2.7024,3.0619,3.0619,0,0,0,.8444.7377,49.4728,49.4728,0,0,0,6.8236,3.7033,8.877,8.877,0,0,0,3.75.8913,6.8225,6.8225,0,0,1,7.02,5.6282,46.492,46.492,0,0,1,.6155,7.431c.3083,6.0526.3784,12.1183.741,18.167a83.2718,83.2718,0,0,0,2.0243,13.607c.6442,2.8111,1.2042,5.5692.2447,8.4533a9.7749,9.7749,0,0,0-.3132,3.5388c.2543,4.6749.1811,9.3822.2673,14.0365.089,4.7953,1.5081,9.2272,1.8735,13.8724a13.2112,13.2112,0,0,1,.1024,2.4293c-.4579,4.2183.7814,8.0945,2.1426,12,1.9864,5.7,4.4157,11.32,5.2119,17.3282,1.01,7.6215,2.8146,15.0777,4.4446,22.5529.7218,3.31,1.5312,6.6565,2.3848,9.9644,1.6356,6.3383,4.3058,12.31,6.7148,18.3728,1.2116,3.0494,2.6833,5.9961,3.9435,8.99,1.0933,2.5974,3.4929,3.6068,4.8055,5.7543.665,1.088,2.0712,1.3042,3.3154,1.4682a33.1087,33.1087,0,0,1,4.25.9875,6.1789,6.1789,0,0,1,4.0279,2.9466v2.599a5.0556,5.0556,0,0,1-2.3747.4117c-5.2795.04-10.543.3485-15.6022-1.94a13.0434,13.0434,0,0,0-9.5045-.5694c-1.754.5559-3.6574.1155-5.4881.0447-.8867-.0342-.8819-.9374-.8009-1.5213a1.7241,1.7241,0,0,0-1.7675-2.171c-2.4841-.1354-3.4264-2.1232-4.3507-3.759-1.9311-3.4175-2.5682-7.3136-3.1811-11.1534-1.2779-8.0058-3.013-15.9163-4.7691-23.8253-.492-2.2161-.9123-4.3755-2.335-6.2988-1.0361-1.4006-.7594-3.3318-1.1163-5.0162-.7273-3.4323-1.29-6.9047-2.1526-10.3018a49.7578,49.7578,0,0,0-5.44-12.4012,82.779,82.779,0,0,1-5.5062-11.5013,82.4189,82.4189,0,0,0-3.7793-8.4083,9.9052,9.9052,0,0,0-3.1312-3.5819c-.9815-.6978-1.6327-.6867-2.0562.5688a19.5118,19.5118,0,0,0-.9677,5.2463c-.37,7.1891-.6841,14.3811-1.0027,21.5727-.1989,4.4883-.37,8.9779-.5518,13.467a16.6588,16.6588,0,0,0,1.34,6.6254,60.9562,60.9562,0,0,1,3.77,19.8,153.67,153.67,0,0,0,2.0181,18.2052c.4509,2.9051,1.2114,5.804,1.2014,8.7831-.0053,1.5774.8254,2.8776,1.3376,4.291.5058,1.3955,2.2058,3.0073-.4636,4.1059-.4066.1673-.0268.571.039.8529a30.1977,30.1977,0,0,1,.7919,2.9653c.1706,1.3093-.3021,2.15-1.5741,2.3821a22.3947,22.3947,0,0,1-8.8538-.05,4.2508,4.2508,0,0,1-2.739-2.5979,2.99,2.99,0,0,0-3.0645-1.7787c-2.88-.0489-2.8022-.1615-3.7356-2.79-2.6082-7.344-3.4472-15.032-4.5044-22.6775a74.0167,74.0167,0,0,1-1.1435-9.9856c-.0032-6.3018-1.001-12.4889-1.8625-18.6713-.9909-7.112-.831-14.2406-1.1789-21.3625-.2377-4.8643-1.768-9.6046-1.7145-14.48.0311-2.8257-.7869-4.5455-3.4924-5.6564a19.0094,19.0094,0,0,1-3.6593-2.1689c-1.4835-1.0627-1.8108-2.5609-1.9078-4.2223a38.5426,38.5426,0,0,1,.6621-7.095c.7116-5.6383.0294-11.2429-.4613-16.841a102.2166,102.2166,0,0,1-.2132-12.7917c.3065-8.2133,1.047-16.4239.7335-24.6485a156.4267,156.4267,0,0,1,.9321-21.5566,7.5167,7.5167,0,0,1,3.4558-5.5684c2.5348-1.8225,5.6206-2.3676,8.2523-3.9324a30.1962,30.1962,0,0,0,5.267-3.458c.7021-.6459,1.1469-1.3586.7126-2.2672-.4577-.9575-1.1757-.2813-1.8176-.1753-.5911.0976-1.1707.3379-.9693-.8731.1933-1.1624-1.0551-1.0729-1.8562-1.0667-.2235-.7126.5319-.9657.5269-1.5415-.7279-.1212-1.5368.0832-2.1644-.5729.5779-.8067,1.1771-1.6514.4993-2.6849-.6279-.0017-.2068,1.0649-.9.8483-.59-.1845-.7286-.7782-.7034-1.3379.0359-.7973.14-1.5916.2286-2.5354-1.16.2919-1.8316.24-1.37-1.3583.3291-1.1395.6688-2.6906-1.3638-3.2857a2.3483,2.3483,0,0,0,2.1746-2.1473c.1644-.8474-.8286-.35-1.148-.77.5311-.5815,1.43-.933,1.4917-1.88a.6778.6778,0,0,0-.8065-.0831c-.3776.1367-.8135.22-.9917-.2064-.2091-.5007.4973-.26.5718-.5412.3063-1.1569,1.7957-2.1945.2312-3.5618.6471-.1729,1.2795.1511,1.6995-.4585.4036-.5859.3881-.728-.3675-.9447-.5451-.1564-.5173-.7623.3278-1.4461.7667-.62.9454-1.0168-.2346-1.52.7984-.3205,1.6394.1405,2.0121-.6993-.197-.5806-1.048.1913-1.0887-.4313-.0433-.6612.63-.8209,1.1244-.9868a18.2588,18.2588,0,0,1,1.8269-.4154c-.2277-.5837-1.0264-.1447-1.0972-.82a5.3161,5.3161,0,0,0,2.2261-1.4163c.7319-.7818.7453-.7693-.2315-1.5939,1.2334-.4255,2.5551-.422,3.6459-1.0968-.3405-.7843-1.0559-.2741-1.7118-.4516,1.0613-1.222,2.3235-.6369,3.3955-.7724.1633-.4055-.3938-.695-.0341-1.1349a6.0553,6.0553,0,0,0,.6688.2149c.58.1207,1.1818.1625,1.7436.3368,1.3436.4167.9179-.2319.5537-.8691Z" transform="translate(0.2087 -128.75)"/><path class="cls-6" d="M805.6162,250.6958c-1.0272,1.3292-2.4729,1.5413-4.1525,1.4049.805,1.3126,1.67,2.2712,3.1991,2.3586-.5514,1.5164-1.82,1.45-3.16,1.5659a13.7346,13.7346,0,0,1,4.5142,9.5564c-.9249-2.636-1.8735-5.2518-4.07-7.2265a23.5678,23.5678,0,0,1,1.22,14.8764c.0637-3.9818-.0215-7.9356-1.4809-11.9341a1.5257,1.5257,0,0,0-.4435,1.6909,22.5216,22.5216,0,0,1,.2245,10.1057,2.7614,2.7614,0,0,0,1.2545,3.1789c2.1193,1.5625,3.9049,3.39,3.9772,6.3275a7.9074,7.9074,0,0,0,1.3022,3.2882c.5545,1.0638.2644,1.5569-.877,1.7743a3.8721,3.8721,0,0,1-1.7622.0936c-1.2064-.3361-1.5043.023-.9946,1.1424a7.7023,7.7023,0,0,0,.3628.8995c4.6494,7.4711,5.9279,16.019,7.7857,24.3794a13.9869,13.9869,0,0,0,1.7209,4.68,7.6352,7.6352,0,0,1,.85,4.2355,64.5819,64.5819,0,0,1-.45,10.031,11.5175,11.5175,0,0,1-4.8235,7.929c-.4682.3165-.8912.45-.85,1.155.214,3.6351-.3406,7.2378-.5075,10.8575a15.2879,15.2879,0,0,0,.0963,2.429c.08.7026.2263,1.31-.8443,1.2322-.7528-.0544-.5931.612-.67,1.0537a110.2274,110.2274,0,0,1-2.5781,11.8664,19.6508,19.6508,0,0,1-.951,2.7389,14.5121,14.5121,0,0,0-1.31,6.4542,32.8793,32.8793,0,0,1-.809,8.8373,23.9967,23.9967,0,0,0-.2863,6.464,113.3918,113.3918,0,0,1-1.7135,20.6718c-1.4487,9.3037-.0012,17.97,5.7222,25.6929a7.0822,7.0822,0,0,0,3.0551,2.5338,13.4142,13.4142,0,0,1,2.4473,1.2523,8.85,8.85,0,0,0,4.9476,1.7011,5.2019,5.2019,0,0,1,1.5719.3326c.6359.2138,1.2493.6111,1.2174,1.3385-.0286.65-.7547.7317-1.2428.8629a40.6353,40.6353,0,0,1-16.0711,1.1423,2.7927,2.7927,0,0,1-2.0143-1.7035c-.8114-1.4-1.5336-2.8518-2.3426-4.2532a13.1961,13.1961,0,0,0-3.8144-4.1446c-.9964-.715-1.5156-.7362-1.8209.6267a37.1545,37.1545,0,0,0-.3923,5.8128c-.0518.7886.2571,2.2036-.5248,2.2006-1.0484-.004-.6675-1.38-.7056-2.172-.1837-3.8207-.77-7.4465-3.0025-10.7622-1.6238-2.4117-.8839-5.3381,1.61-7.9329a4.1867,4.1867,0,0,0,1.1917-2.8449c.6483-8.5932-.3421-17.0636-1.7811-25.5072-.6117-3.59.1124-7.1181.5593-10.653a19.2247,19.2247,0,0,0-.1262-7.4072c-.5813-2.213-.1112-4.4242.1279-6.6169a56.2734,56.2734,0,0,0-.0679-9.9084c-.3269,2.6785-.7127,5.3515-.9614,8.0372a35.52,35.52,0,0,0-.3179,6.1528c.1566,1.9413-.903,3.56-1.6961,5.17-2.6124,5.3058-3.8008,10.9969-4.769,16.7454-1.0049,5.9657-1.7339,11.9794-2.8108,17.9309-.8724,4.8217.19,9.444.7734,14.1572a69.8954,69.8954,0,0,0,5.5805,18.8563c1.3755,3.2244,3.81,4.5994,7.1529,4.7069a22.7194,22.7194,0,0,1,4.2041.2792c.824.1811,1.7089.3915,1.8158,1.3306.1114.9783-.7813,1.37-1.5364,1.64a46.5885,46.5885,0,0,1-10.2508,2.2916c-.292.0345-.67-.1291-.8139.3076h-8.1221a6.1828,6.1828,0,0,1-3.0625-3.7067,18.085,18.085,0,0,0-3.5256-5.961c-.3522-.3846-.673-1.1037-1.18-.9662-.589.16-.5434.9679-.6647,1.5188-.5413,2.4581-.232,4.9628-.3661,7.4441-.0238.44.1508,1.01-.6533,1.041s-.8469-.4324-.86-1.0283c-.0328-1.515-.0244-3.0357-.161-4.5425-.2439-2.6884-.4354-5.4181-1.9867-7.7648-2.2358-3.3822-2.152-6.8979.623-9.8264a11.2183,11.2183,0,0,0,3.0313-8.12c.0071-5.1437-.5038-10.264-.8021-15.394-.2822-4.8523-1.2361-9.6922-.5244-14.5656a98.8719,98.8719,0,0,1,3.7715-14.5484c1.3892-4.54,3.0289-9.0386,2.15-13.9393a34.6989,34.6989,0,0,1-.6616-5.1386c-.0407-1.4928-.6508-1.6926-1.85-1.3014a3.5818,3.5818,0,0,0-.7695.24c-.81.4984-1.1139.1739-1.2684-.6517-.367-1.9619-.8244-3.9076-1.159-5.8744-.1408-.8278-.4619-1.0462-1.2742-.9208a16.3648,16.3648,0,0,1-3.7054.3695c-.51-.0374-1.01-.0569-1.1524-.6539-.5632-2.3667-2.2049-4.5337-2.2863-6.8483-.1613-4.588-.5507-9.1232-1.0123-13.6851-.2852-2.8193-.2583-5.7054-.69-8.5319-1.22-7.9836-2.08-15.9848-1.4572-24.0772.2432-3.1586-.7511-6.1332-1.1595-9.2908-.7917.4422-1.4022.7845-2.0139,1.1245-.9217.5122-1.4689.364-1.7108-.78a9.746,9.746,0,0,1-.0624-3.5413,13.4075,13.4075,0,0,0-1.8224-9.0921v-5.523c1.0182-2.2462,1.9762-4.3584.7122-6.9962-1.0183-2.125.7629-6.1544,2.8177-7.5034a18.3057,18.3057,0,0,1,5.8356-2.1662l-1.7228-2.0057c1.3411.0452,2.4892.0546,3.4268-.7644a4.5434,4.5434,0,0,0,1.5651-2.8978c-5.314,1.1115-6.6.74-6.7241-1.9,1.712,1.3953,3.8348,1.4606,5.0734.1084.3938-.43,1.0869-.9862-.1928-1.2914-.7347-.1752-1.1706-.74-1.0871-1.7777.4831.406.8365,1.1546,1.4953.6955.7213-.5028.4789-1.2252.3185-1.92a33.5091,33.5091,0,0,0-2.4711-6.0891,13.1263,13.1263,0,0,1-.0354-10.5378,28.3646,28.3646,0,0,1,4.9655-8.842c1.5756-1.7847,5.5285-5.0718,7.822-5.9792,1.7876-.7072,3.6142-1.2352,5.3778.0592a.6245.6245,0,0,0,.8493-.0318c1.7066-1.1227,3.17-.3156,4.6541.55a9.4144,9.4144,0,0,1,3.2422,3.9085c.714,1.2865,2.6649,2.0738,1.8759,4.0585,2.558,6.9611,5.2887,13.8251,10.4215,19.4091a49.5743,49.5743,0,0,0,5.7168,4.7735,2.8475,2.8475,0,0,0,3.4791.0842ZM763.1522,290.3c.2629,1.856.2447,1.84-.797,3.0573a1.4658,1.4658,0,0,0-.1562.9235,15.1905,15.1905,0,0,0,.2292,3.0613,52.3438,52.3438,0,0,1,.89,19.3013,98.7648,98.7648,0,0,0-.76,17.6436,18.96,18.96,0,0,0,1.453,6.8771c.237-4.6428,1.6459-9.0616,2.242-13.6059.5324-4.0579.63-8.1809,2.1914-12.0551a18.6575,18.6575,0,0,0,.8871-10.9648c-.6537-3.2061-.68-6.5645-2.7715-9.3508C765.436,293.6889,764.4121,292.1145,763.1522,290.3Zm38.0715,13.1939c1.4886,6.8206,4.2754,13.1845,6.3364,19.9728,1.5084-1.4234.8925-2.8049.3078-3.9229a70.2472,70.2472,0,0,1-5.6707-15.108C802.08,303.981,802.0736,303.4172,801.2237,303.4939Zm-36.087,51.2491a4.4314,4.4314,0,0,0-.8737-2.8422C763.4159,353.2278,763.94,354.0285,765.1367,354.743Z" transform="translate(0.2087 -128.75)"/><path class="cls-7" d="M861.7134,187.5663l3.9518.9773c.2652.4682-1.3.1019-.2748.811a2.322,2.322,0,0,0,1.0121.48c1.6881.146,2.6911,1.39,3.8887,2.3264l-.2816.2611-.1466.2607c1.2341.6695,1.4474,2.13,2.4523,3.1385-.3972.2071-1.3445-.3332-.9208.9542a8.0454,8.0454,0,0,1-.507,6.0087c-.8093,1.7537-1.6232,3.5264-1.3375,5.6878a14.3064,14.3064,0,0,1-3.3234,11.48,11.1917,11.1917,0,0,0-1.1242,1.5837c-1.1139,1.9254-.76,3.1669,1.17,4.3242a18.2382,18.2382,0,0,0,8.8094,2.4693c10.1857.39,15.7527,6.9224,17.4564,15.4384,1.6663,8.3284,2.8681,16.7218,4.06,25.1185a233.83,233.83,0,0,1,2.7631,34.9182,102.646,102.646,0,0,1-1.5535,18.2265c-.3993,2.1155.1547,4.2852.0345,6.4467-.1664,2.9923-.1,6.0943-2.3338,8.373-1.709,1.743-2.9189,3.8749-4.7114,5.5178a2.7587,2.7587,0,0,0-.9589,2.6018c.8748,6.0678.8682,12.1854,1.1409,18.2931.1563,3.501.046,7.0228.51,10.5242.5,3.7714-.746,7.392-1.3825,11.0547a52.4126,52.4126,0,0,0-.8079,7.8948c-.1468,6.9889-1.045,13.9138-1.8437,20.847-.6558,5.6935-1.2106,11.41-1.9848,17.0738-.335,2.4508.1242,5.0775-1.1678,7.5507-.5625,1.0767.7232,2.8658,1.75,4.0658a7.2763,7.2763,0,0,1,1.2349,1.4842c1.3323,2.9124,3.8208,4.3187,6.6826,5.2139,2.3145.7241,4.6869,1.2655,6.9936,2.0118,1.7348.5613,3.2485,1.4446,3.6843,3.4853a2.0378,2.0378,0,0,1-1.3023,2.606,13.8365,13.8365,0,0,1-5.4028.9261,58.2976,58.2976,0,0,1-11.1333-.9993,12.033,12.033,0,0,1-5.2953-2.302,17.716,17.716,0,0,0-2.61-1.63c-2.3764-1.2477-3.5576-1.0855-5.5178.7615a2.3694,2.3694,0,0,1-2.1444.7512c-2.4628-.3329-4.9669-.1767-7.4352-.577a1.9816,1.9816,0,0,1-1.8276-2.0819,7.4876,7.4876,0,0,1,.4548-3.6706,8.4871,8.4871,0,0,0,.428-4.5221,1.5762,1.5762,0,0,1,.0624-.6084c.9843-3.19.9945-6.622,2.0909-9.7252a9.8128,9.8128,0,0,0,.1587-5.1953c-.6644-4.2255.0171-8.4009.43-12.6044.3347-3.41.9409-6.8165.5557-10.2952a12.4084,12.4084,0,0,1,.6656-6.5435,4.9261,4.9261,0,0,0,.3214-1.7344c.2513-5.2464.5873-10.6766-.5405-15.6713-1.5992-7.0818-.5452-14.0806-1.0313-21.0912-.143-2.0626-.8523-4.0326-.9519-6.0739-.2149-4.4067-1.9767-8.323-3.8457-12.3084-.073,1.484-.201,2.9678-.2084,4.4522a89.1257,89.1257,0,0,1-1.0418,12.5929,72.5361,72.5361,0,0,0-.4,9.8822c-.0327,3.5628.3034,7.154-1.5467,10.45a2.6132,2.6132,0,0,0-.1173,2.0675c1.6709,5.2544,1.2981,10.7052,1.4876,16.09.0646,1.8374-.9865,3.5724-.6472,5.5562,1.2675,7.4127,1.3051,14.9719,2.59,22.3929a14.382,14.382,0,0,1-.6953,6.6687c-.7061,2.3469-1.632,4.8776.32,7.4886,1.7007,2.2746-.2615,5.3545-3.3848,5.4889-1.5029.0648-1.8318.6813-1.9244,1.8538a3.319,3.319,0,0,1-2.6874,3.0823,21.7027,21.7027,0,0,1-12.9261-.24c-1.7327-.589-1.9591-1.6074-.92-3.1241a23.4789,23.4789,0,0,1,4.6907-5.3295,8.002,8.002,0,0,0,3.0063-4.54c-1.599.5486-1.7171-.5691-1.8521-1.5815a14.1483,14.1483,0,0,0-.7092-2.8178A15.9636,15.9636,0,0,1,843,426.2576c.147-3.4594.0812-6.9281.0869-10.393.0049-2.9327-1.4643-5.424-2.6826-7.91a17.1945,17.1945,0,0,1-1.4186-10.1117c.5775-4.4055.5658-8.8657,1.215-13.2474a24.936,24.936,0,0,0-.6238-10.55c-.7307-2.6261-.378-5.3845-.56-8.0793a34.5155,34.5155,0,0,0-1.7808-9.1569c-1.8258-5.26-2.0315-10.8123-1.96-16.3472a5.73,5.73,0,0,0-1.062-3.6359c-1.552-2.1572-1.1567-4.64-.742-7.0279a2.5607,2.5607,0,0,0-.2606-1.973,7.8786,7.8786,0,0,1-.7471-7.1555,6.0977,6.0977,0,0,0-.9764-6.516,3.2938,3.2938,0,0,1-.7634-2.5748,8.5989,8.5989,0,0,0-.4883-3.0229c-.2762-1.1036-.7943-2.2954-.4129-3.3383.6885-1.8829-.4979-2.7656-1.5715-3.7893a23.5015,23.5015,0,0,1-4.6634-6.1888,8.4846,8.4846,0,0,0-3.7382-3.9346,10.7148,10.7148,0,0,1-5.3227-6.4464c-.7415-2.0256-1.21-4.2249-2.3246-6.0215a39.7125,39.7125,0,0,1-3.3782-7.0945,5.5819,5.5819,0,0,1-.3058-3.4354,36.0621,36.0621,0,0,1,3.9483-9.1878,23.27,23.27,0,0,0,2.4478-5.6277c.7417-2.94,2.7771-5.21,4.0825-7.86.7841-1.5921,1.9093-3.0122,2.7918-4.5606a11.5719,11.5719,0,0,1,5.9277-5.5068,7.5123,7.5123,0,0,0,1.4037-.7987c4.4339-2.9134,8.9606-5.6221,14.1757-6.9586,2.7285-.6992,4.0238-2.5867,4.4456-5.3392.5611-3.6618.3444-7.4235-1.7993-10.251-2.6432-3.4861-1.6015-7.2577-1.9831-10.8965-.0857-.8171-.2548-1.7445-.29-2.6252-.0364-.9025,1.0446-1.61.2924-2.6689-.2222-.3129.8-.6293,1.0667-1.25.6237-1.4536,1.8887-2.9942,3.0756-3.3466,1.9591-.5816,3.074-2.411,4.9427-2.7495,1.8566-.3363,3.39-1.9577,5.5543-1.2a4.1692,4.1692,0,0,0,2.8671-.23Zm-29.4312,99.8149c0-.9083.0475-1.5524-.0078-2.1875a79.351,79.351,0,0,1-.2361-11.6653c.1752-2.9144-.4959-5.8153-.33-8.748.081-1.4325-1.0488-1.9462-2.1813-2.211-1.1511-.2692-2.2819-.2475-2.7614,1.2159a5.8044,5.8044,0,0,1-2.3194,2.6311,2.687,2.687,0,0,0-.956,1.8951c-.3182,1.7929,1.5382,3.4518.2274,5.25-.0387.0533.2883.4047.475.5859a23.8084,23.8084,0,0,1,5.8352,10.33A4.548,4.548,0,0,0,832.2822,287.3812Zm52.4061-8.5356-.67-.0147c.1832,7.8571-.5242,15.7424,1.1357,23.55,1.1855,5.5761,1.78,11.1963.5676,16.8754-.09.42-.7054.9.0561,1.6162.6594-1.5649,1.6814-2.9608,1.3277-4.5745a14.0109,14.0109,0,0,1,.32-6.3976c.467-1.9575.6218-3.8132-.7539-5.539a3.5765,3.5765,0,0,1-.6215-1.8087c-.576-5.8605-1.3081-11.7105-1.36-17.6111C884.6734,282.91,884.6883,280.8776,884.6883,278.8456Z" transform="translate(0.2087 -128.75)"/><path class="cls-5" d="M805.3318,250.4183c.1666-.2463.3775-.7046.6465-.4669.2889.2554-.1752.5135-.3622.7444Z" transform="translate(0.2087 -128.75)"/><path class="cls-5" d="M870.2912,192.1607l.3624.4264c-.2574.1113-.4919.1336-.644-.1654Z" transform="translate(0.2087 -128.75)"/><path class="cls-5" d="M927.9851,216.5824l-.3144-.4522a.432.432,0,0,1,.633.1853Z" transform="translate(0.2087 -128.75)"/><path class="cls-5" d="M861.468,187.2508c.1283-.0516.3359-.1792.3717-.142.18.1875.0708.3454-.1263.4575Z" transform="translate(0.2087 -128.75)"/></g></svg>