<svg id="_1" data-name="1" xmlns="http://www.w3.org/2000/svg" viewBox="0 0 685.7695 696.8949"><defs><style>.cls-1{fill:#2f5579;}.cls-2,.cls-4{fill:#284666;}.cls-3{fill:#cce3f1;}.cls-3,.cls-4{isolation:isolate;}.cls-4{opacity:0.3;}</style></defs><path class="cls-1" d="M532.57,210.6291H522.3022l-16.5739-28.8224h-.2348q.4948,7.636.4953,10.8931v17.9293H498.77v-38.1H508.96l16.5483,28.5355h.1825q-.3915-7.4266-.3912-10.5022V172.5294h7.271Z" transform="translate(-47.0528 -7.1775)"/><path class="cls-1" d="M564.1028,210.6291H542.16v-38.1h21.9427v6.6193H550.2386v8.3651h12.9v6.6193h-12.9v9.8246h13.8642Z" transform="translate(-47.0528 -7.1775)"/><path class="cls-1" d="M249.5722,211.2284H239.3043L222.73,182.406h-.2348q.4949,7.6361.4953,10.8932v17.9292h-7.2187v-38.1h10.1894L242.51,201.6643h.1825q-.3915-7.4266-.3912-10.5022V173.1288h7.271Z" transform="translate(-47.0528 -7.1775)"/><path class="cls-1" d="M293.7441,192.1266q0,9.46-4.6909,14.5414T275.6059,211.75q-8.7561,0-13.4468-5.0816t-4.6909-14.5937q0-9.5115,4.7037-14.5284t13.4863-5.0165q8.7816,0,13.4339,5.0555T293.7441,192.1266Zm-27.8062,0q0,6.385,2.4237,9.6159t7.2443,3.2314q9.6687,0,9.6685-12.8473,0-12.8736-9.6162-12.8738-4.8212,0-7.2705,3.2445T265.9379,192.1266Z" transform="translate(-47.0528 -7.1775)"/><path class="cls-1" d="M535.2542,529.773a9.8484,9.8484,0,0,1-3.7137,8.1308q-3.7131,2.9706-10.3324,2.9707a24.2668,24.2668,0,0,1-10.7888-2.2931v-7.5053a44.4429,44.4429,0,0,0,6.528,2.4234,19.3146,19.3146,0,0,0,4.8863.7037,6.9484,6.9484,0,0,0,4.0782-1.0162,3.476,3.476,0,0,0,1.42-3.0231,3.3389,3.3389,0,0,0-.6256-1.9937,7.0024,7.0024,0,0,0-1.837-1.6807,47.3862,47.3862,0,0,0-4.9386-2.58,23.3884,23.3884,0,0,1-5.238-3.1532,11.82,11.82,0,0,1-2.7882-3.5181,10.0311,10.0311,0,0,1-1.0424-4.6907,9.8471,9.8471,0,0,1,3.4265-7.9483q3.4266-2.8929,9.4732-2.8928a22.3644,22.3644,0,0,1,5.6676.7037,39.0039,39.0039,0,0,1,5.6421,1.98l-2.6057,6.2807a38.1389,38.1389,0,0,0-5.0427-1.7461,16.2461,16.2461,0,0,0-3.9223-.495,5.1947,5.1947,0,0,0-3.5178,1.0682,3.5251,3.5251,0,0,0-1.2249,2.7885,3.4471,3.4471,0,0,0,.4953,1.8632,5.436,5.436,0,0,0,1.5766,1.5377,48.6534,48.6534,0,0,0,5.1206,2.6711q5.3424,2.5542,7.3227,5.1208A9.9939,9.9939,0,0,1,535.2542,529.773Z" transform="translate(-47.0528 -7.1775)"/><path class="cls-1" d="M564.1028,540.3533H542.16v-38.1h21.9427v6.6193H550.2386v8.3651h12.9v6.6193h-12.9v9.8246h13.8642Z" transform="translate(-47.0528 -7.1775)"/><path class="cls-1" d="M240.6072,529.773a9.8486,9.8486,0,0,1-3.7137,8.1308q-3.7132,2.9706-10.3325,2.9707a24.2668,24.2668,0,0,1-10.7888-2.2931v-7.5053A44.4394,44.4394,0,0,0,222.3,533.5a19.3139,19.3139,0,0,0,4.8862.7037,6.9489,6.9489,0,0,0,4.0783-1.0162,3.4762,3.4762,0,0,0,1.42-3.0231,3.34,3.34,0,0,0-.6255-1.9937,7.0046,7.0046,0,0,0-1.8371-1.6807,47.3862,47.3862,0,0,0-4.9386-2.58,23.393,23.393,0,0,1-5.238-3.1532,11.8217,11.8217,0,0,1-2.7882-3.5181,10.0311,10.0311,0,0,1-1.0424-4.6907,9.8468,9.8468,0,0,1,3.4266-7.9483q3.4264-2.8929,9.4731-2.8928a22.3652,22.3652,0,0,1,5.6677.7037,39.0028,39.0028,0,0,1,5.642,1.98l-2.6056,6.2807a38.1389,38.1389,0,0,0-5.0427-1.7461,16.2469,16.2469,0,0,0-3.9224-.495,5.1947,5.1947,0,0,0-3.5178,1.0682,3.5251,3.5251,0,0,0-1.2249,2.7885,3.4471,3.4471,0,0,0,.4953,1.8632,5.4373,5.4373,0,0,0,1.5766,1.5377,48.6644,48.6644,0,0,0,5.1206,2.6711q5.3424,2.5542,7.3228,5.1208A9.9945,9.9945,0,0,1,240.6072,529.773Z" transform="translate(-47.0528 -7.1775)"/><path class="cls-1" d="M282.0949,521.2515q0,9.46-4.6909,14.5414t-13.4473,5.0816q-8.7561,0-13.4467-5.0816t-4.691-14.5937q0-9.5115,4.7038-14.5284t13.4862-5.0165q8.7817,0,13.434,5.0555T282.0949,521.2515Zm-27.8062,0q0,6.385,2.4237,9.6159t7.2443,3.2314q9.6687,0,9.6685-12.8473,0-12.8736-9.6162-12.8738-4.8212,0-7.27,3.2445T254.2887,521.2515Z" transform="translate(-47.0528 -7.1775)"/><polygon class="cls-2" points="479.896 214.348 432.871 282.111 385.845 349.873 346.066 348.179 344.372 308.4 412.134 261.374 479.896 214.348"/><polygon class="cls-3" points="432.871 282.111 479.896 214.348 346.066 348.179 385.845 349.873 432.871 282.111"/><polygon class="cls-2" points="212.235 482.01 259.26 414.248 306.286 346.486 346.066 348.179 347.759 387.959 279.997 434.985 212.235 482.01"/><polygon class="cls-3" points="259.26 414.248 212.235 482.01 346.066 348.179 306.286 346.486 259.26 414.248"/><polygon class="cls-2" points="479.896 482.01 412.134 434.985 344.372 387.959 346.066 348.179 385.845 346.486 432.871 414.248 479.896 482.01"/><polygon class="cls-3" points="412.134 434.985 479.896 482.01 346.066 348.179 344.372 387.959 412.134 434.985"/><polygon class="cls-2" points="213.928 212.655 281.691 259.68 349.453 306.706 347.759 346.486 307.98 348.179 260.954 280.417 213.928 212.655"/><polygon class="cls-3" points="281.691 259.68 213.928 212.655 347.759 346.486 349.453 306.706 281.691 259.68"/><path class="cls-4" d="M434.0733,355.3569l45.85-66.0686,47.0257-67.7623-67.7623,47.0257-64.0014,44.4157-66.442-46.11-67.7623-47.0256,47.0257,67.7623,45.8661,66.0913-.5341-.0227-47.0257,67.7622-47.0257,67.7624L327.05,442.1621l66.0685-45.85,66.0686,45.85,67.7623,47.0257-47.0257-67.7624Zm-59.9978-.8108,18.9739-.8079.0689,1.6187Z" transform="translate(-47.0528 -7.1775)"/><polygon class="cls-2" points="347.759 40.929 371.432 171.968 395.104 303.008 347.759 346.486 300.414 303.008 324.087 171.968 347.759 40.929"/><polygon class="cls-3" points="371.432 171.968 347.759 40.929 347.759 346.486 395.104 303.008 371.432 171.968"/><polygon class="cls-2" points="347.759 652.043 324.087 521.003 300.414 389.964 347.759 346.486 395.104 389.964 371.432 521.003 347.759 652.043"/><polygon class="cls-3" points="324.087 521.003 347.759 652.043 347.759 346.486 300.414 389.964 324.087 521.003"/><polygon class="cls-2" points="653.316 346.486 522.277 370.158 391.237 393.831 347.759 346.486 391.237 299.141 522.277 322.813 653.316 346.486"/><polygon class="cls-3" points="522.277 370.158 653.316 346.486 347.759 346.486 391.237 393.831 522.277 370.158"/><polygon class="cls-2" points="42.202 346.486 173.242 322.813 304.281 299.141 347.759 346.486 304.281 393.831 173.242 370.158 42.202 346.486"/><polygon class="cls-3" points="173.242 322.813 42.202 346.486 347.759 346.486 304.281 299.141 173.242 322.813"/><path class="cls-1" d="M411.7119,45.2772H401.4443L384.87,16.4548h-.2348q.4948,7.6361.4953,10.8931V45.2772h-7.2187v-38.1h10.1894L404.65,35.7131h.1825q-.3915-7.4268-.3912-10.5022V7.1775h7.2707Z" transform="translate(-47.0528 -7.1775)"/><path class="cls-1" d="M407.2508,692.9709a9.8482,9.8482,0,0,1-3.7137,8.1308q-3.7131,2.9706-10.3324,2.9708a24.2654,24.2654,0,0,1-10.7888-2.2932V694.274a44.4314,44.4314,0,0,0,6.528,2.4234,19.3146,19.3146,0,0,0,4.8863.7037,6.9476,6.9476,0,0,0,4.0782-1.0162,3.4759,3.4759,0,0,0,1.42-3.023,3.339,3.339,0,0,0-.6256-1.9938,7.0041,7.0041,0,0,0-1.837-1.6807,47.3717,47.3717,0,0,0-4.9386-2.58,23.3881,23.3881,0,0,1-5.238-3.1533,11.8176,11.8176,0,0,1-2.7882-3.5181,10.0309,10.0309,0,0,1-1.0424-4.6906,9.8469,9.8469,0,0,1,3.4265-7.9483q3.4266-2.8931,9.4732-2.8928a22.36,22.36,0,0,1,5.6676.7037,38.9918,38.9918,0,0,1,5.6421,1.98l-2.6057,6.2806a38.1683,38.1683,0,0,0-5.0427-1.7461,16.2461,16.2461,0,0,0-3.9223-.495,5.1947,5.1947,0,0,0-3.5178,1.0683,3.5249,3.5249,0,0,0-1.2249,2.7884,3.4475,3.4475,0,0,0,.4953,1.8633,5.4371,5.4371,0,0,0,1.5766,1.5376,48.6333,48.6333,0,0,0,5.1206,2.6711q5.3424,2.5543,7.3227,5.1208A9.9941,9.9941,0,0,1,407.2508,692.9709Z" transform="translate(-47.0528 -7.1775)"/><path class="cls-1" d="M709.29,373.8656v-38.1h8.0785v31.4283h15.4535v6.6713Z" transform="translate(-47.0528 -7.1775)"/><path class="cls-1" d="M83.3287,353.0579q0,9.46-4.691,14.5414T65.19,372.6809q-8.7559,0-13.4467-5.0816t-4.6909-14.5937q0-9.5115,4.7037-14.5284t13.4863-5.0165q8.7816,0,13.4339,5.0555T83.3287,353.0579Zm-27.8062,0q0,6.385,2.4237,9.6159t7.2442,3.2314q9.6689,0,9.6685-12.8473,0-12.8736-9.6161-12.8738-4.8213,0-7.2705,3.2445T55.5225,353.0579Z" transform="translate(-47.0528 -7.1775)"/></svg>