<svg xmlns="http://www.w3.org/2000/svg" viewBox="0 0 143.27796 143.27796"><defs><style>.cls-1{fill:#355f78;}.cls-2{fill:#284666;}.cls-2,.cls-3{isolation:isolate;}.cls-3,.cls-4{fill:#fff;}</style></defs><g id="_1" data-name="1"><circle class="cls-1" cx="71.63898" cy="71.63898" r="67.83691"/><path class="cls-2" d="M71.639,143.278a71.639,71.639,0,1,1,71.639-71.639A71.72,71.72,0,0,1,71.639,143.278Zm0-141.67709A70.03811,70.03811,0,1,0,141.67708,71.639,70.11754,70.11754,0,0,0,71.639,1.60087Z"/><path class="cls-3" d="M71.639,135.67382A64.03484,64.03484,0,1,1,135.67382,71.639,64.1072,64.1072,0,0,1,71.639,135.67382Zm0-127.26925A63.23441,63.23441,0,1,0,134.87338,71.639,63.30624,63.30624,0,0,0,71.639,8.40457Z"/><path class="cls-4" d="M71.35924,40.28926c14.89453,0,22.81347,8.38964,22.81347,18.94824,0,9.42676-5.84472,13.95215-10.18164,15.36621v.37695c6.59961,2.4502,11.40723,7.35254,11.40723,16.21387,0,11.87793-8.48438,20.0791-23.002,20.0791-14.89454,0-25.3584-6.78711-25.73536-23.18945H64.66588c-.18848,4.90137,2.07422,7.918,6.97656,7.918,3.67676,0,5.84473-2.54493,5.84473-6.22168,0-4.71387-2.82813-6.97559-9.80469-6.97559H64.38365V67.81562h3.20508c3.582.09473,8.57812-.4707,8.57812-6.31543,0-3.96-2.168-5.84472-5.27832-5.84472-4.05371,0-5.27929,3.4873-5.46777,6.69238H47.4149C47.88658,48.11347,56.65318,40.28926,71.35924,40.28926Z"/></g></svg>