<svg id="_1" data-name="1" xmlns="http://www.w3.org/2000/svg" viewBox="0 0 1137.1042 139.5"><defs><style>.cls-1{fill:#294667;}.cls-2{fill:#fff;}.cls-3{fill:#ef7100;}</style></defs><polygon class="cls-1" points="1077.104 139.5 812.729 139.5 872.729 69.75 812.729 0 1077.104 0 1137.104 69.75 1077.104 139.5"/><path class="cls-2" d="M1075.4982,136H821.2l56.4873-66.25L821.2,3.5h254.2978l56.9893,66.25ZM823.62,135h251.419l56.1289-65.25L1075.0393,4.5H823.62l55.4844,65.25Z"/><path class="cls-2" d="M902.7471,76.7654a3.1923,3.1923,0,0,1-2.7207-1.3447,6.182,6.182,0,0,1-.9883-3.7266,6.188,6.188,0,0,1,1.0058-3.7661,3.27,3.27,0,0,1,2.7735-1.3491,3.2057,3.2057,0,0,1,2.83,1.4414h.0879a10.9558,10.9558,0,0,1-.2022-1.96V62.9139h2.69V76.59H906.166l-.5185-1.2744h-.1143A3.0676,3.0676,0,0,1,902.7471,76.7654Zm.94-2.1357a1.8153,1.8153,0,0,0,1.5068-.5977,3.4756,3.4756,0,0,0,.5235-2.03v-.29a4.0174,4.0174,0,0,0-.4883-2.2676,1.8108,1.8108,0,0,0-1.5859-.6855,1.5744,1.5744,0,0,0-1.3936.76,4.0564,4.0564,0,0,0-.4961,2.21,3.8438,3.8438,0,0,0,.501,2.1753A1.6367,1.6367,0,0,0,903.6875,74.63Z"/><path class="cls-2" d="M914.999,71.659a13.2446,13.2446,0,0,1-.6816,4.3066,10.3,10.3,0,0,1-1.9639,3.4717h-2.18a12.6887,12.6887,0,0,0,1.8369-3.6255,13.4511,13.4511,0,0,0,.65-4.17,13.9481,13.9481,0,0,0-.6328-4.1748,12.6567,12.6567,0,0,0-1.8721-3.7266h2.1973a10.7827,10.7827,0,0,1,1.9688,3.5728A13.6859,13.6859,0,0,1,914.999,71.659Z"/><path class="cls-2" d="M929.8789,76.59l-.9316-3.0586h-4.6846l-.9316,3.0586h-2.9356l4.5352-12.9023h3.331L932.8145,76.59Zm-1.582-5.3437q-1.2921-4.1573-1.4551-4.7022t-.2324-.8613q-.29,1.125-1.6612,5.5635Z"/><path class="cls-2" d="M943.291,76.59H940.61V70.85a2.7562,2.7562,0,0,0-.378-1.5952,1.3749,1.3749,0,0,0-1.2041-.5318,1.81,1.81,0,0,0-1.626.7515,4.6614,4.6614,0,0,0-.5009,2.4917V76.59h-2.6807V66.7635h2.0479l.36,1.2568h.1494a2.832,2.832,0,0,1,1.2344-1.0767,4.2082,4.2082,0,0,1,1.7891-.3647,3.4365,3.4365,0,0,1,2.6015.9272,3.7211,3.7211,0,0,1,.8877,2.6763Z"/><path class="cls-2" d="M952.291,76.59l-.5185-1.3359h-.07a3.9591,3.9591,0,0,1-1.3935,1.1821,4.4982,4.4982,0,0,1-1.8672.33,3.021,3.021,0,0,1-2.2285-.8086,3.1048,3.1048,0,0,1-.8125-2.3027,2.5924,2.5924,0,0,1,1.0937-2.3071,6.3414,6.3414,0,0,1,3.3008-.8218l1.7051-.0527v-.4307a1.3364,1.3364,0,0,0-1.5293-1.4941,6.9693,6.9693,0,0,0-2.7686.7119l-.8876-1.8106a7.9879,7.9879,0,0,1,3.7617-.8877,4.6853,4.6853,0,0,1,3.0322.8614,3.1831,3.1831,0,0,1,1.0547,2.6191V76.59Zm-.791-4.5527-1.0371.0352a3.3208,3.3208,0,0,0-1.74.4218,1.3251,1.3251,0,0,0-.5713,1.1778q0,1.1337,1.3007,1.1338a2.0588,2.0588,0,0,0,1.4893-.5362,1.8833,1.8833,0,0,0,.5586-1.4238Zm-2.98-6.3545v-.2373A24.7421,24.7421,0,0,0,950.5859,62.8h3.0059v.1846q-.4571.457-1.5606,1.3579t-1.7265,1.34Z"/><path class="cls-2" d="M959.6035,76.59h-2.6806V62.9139h2.6806Z"/><path class="cls-2" d="M962.3018,64.2234q0-1.3095,1.4589-1.3095t1.459,1.31a1.2768,1.2768,0,0,1-.3652.9712,1.5317,1.5317,0,0,1-1.0938.3472Q962.3018,65.5418,962.3018,64.2234ZM965.0967,76.59H962.416V66.7635h2.6807Z"/><path class="cls-2" d="M974.7646,73.6717a2.7055,2.7055,0,0,1-1.0507,2.3027,5.1876,5.1876,0,0,1-3.1416.791,9.8677,9.8677,0,0,1-1.8282-.145,6.9168,6.9168,0,0,1-1.415-.4263V73.9793a9.3363,9.3363,0,0,0,1.6826.5889,6.8186,6.8186,0,0,0,1.6485.2373q1.4589,0,1.4589-.8438a.7041.7041,0,0,0-.1933-.5141,2.8019,2.8019,0,0,0-.668-.4483q-.4746-.2505-1.2656-.5845a7.9521,7.9521,0,0,1-1.666-.8789,2.4747,2.4747,0,0,1-.7735-.9272,3.0614,3.0614,0,0,1-.2412-1.2876,2.3337,2.3337,0,0,1,1.0147-2.0259,4.9467,4.9467,0,0,1,2.8789-.7163,8.1708,8.1708,0,0,1,3.4541.7734l-.8086,1.9336q-.7383-.3163-1.38-.5185a4.3322,4.3322,0,0,0-1.31-.2022q-1.1865,0-1.1865.6416a.7539.7539,0,0,0,.3818.6241,10.4192,10.4192,0,0,0,1.6748.7822,7.78,7.78,0,0,1,1.6876.87,2.5745,2.5745,0,0,1,.791.9316A2.8634,2.8634,0,0,1,974.7646,73.6717Z"/><path class="cls-2" d="M981.3037,76.7654a5.0721,5.0721,0,0,1-3.709-1.3095,4.9587,4.9587,0,0,1-1.3359-3.709,5.4533,5.4533,0,0,1,1.2344-3.8189,4.3981,4.3981,0,0,1,3.415-1.3491,4.3282,4.3282,0,0,1,3.2432,1.1865,4.489,4.489,0,0,1,1.16,3.2783v1.3008h-6.3369a2.58,2.58,0,0,0,.6768,1.7842,2.3811,2.3811,0,0,0,1.7754.6416,7.3675,7.3675,0,0,0,1.6787-.1846,8.3985,8.3985,0,0,0,1.6523-.5888v2.0742a6.29,6.29,0,0,1-1.5029.5229A9.473,9.473,0,0,1,981.3037,76.7654Zm-.3779-8.2793a1.7,1.7,0,0,0-1.336.5406,2.5018,2.5018,0,0,0-.5537,1.5336h3.7618a2.2346,2.2346,0,0,0-.5186-1.5336A1.7557,1.7557,0,0,0,980.9258,68.4861Z"/><path class="cls-2" d="M999.7783,76.59h-7.4V63.74h7.4v2.2325h-4.6758v2.8212h4.3506v2.2325h-4.3506V74.34h4.6758Z"/><path class="cls-2" d="M1007.7324,66.5789a4.3253,4.3253,0,0,1,.9053.0791l-.2022,2.5137a3.07,3.07,0,0,0-.791-.0879,2.844,2.844,0,0,0-2,.6592,2.3826,2.3826,0,0,0-.7158,1.8457V76.59h-2.6807V66.7635h2.03l.3955,1.6523h.1319a3.6925,3.6925,0,0,1,1.2343-1.3315A3.0467,3.0467,0,0,1,1007.7324,66.5789Z"/><path class="cls-2" d="M1018.9736,66.7635v1.3623l-1.5381.3955a2.6806,2.6806,0,0,1,.4219,1.4765,2.9814,2.9814,0,0,1-1.1035,2.4654,4.7763,4.7763,0,0,1-3.0625.8833l-.4834-.0264-.3955-.0439a.8913.8913,0,0,0-.4131.7031q0,.58,1.4766.58h1.67a3.8078,3.8078,0,0,1,2.4648.6943,2.482,2.482,0,0,1,.8487,2.0391,3.0243,3.0243,0,0,1-1.4375,2.6718,7.4813,7.4813,0,0,1-4.126.9493,5.7152,5.7152,0,0,1-3.1426-.7163,2.2741,2.2741,0,0,1-1.0849-2.0083,2.1022,2.1022,0,0,1,.5537-1.4854,3.144,3.144,0,0,1,1.6259-.8525,1.795,1.795,0,0,1-.7207-.5757,1.4148,1.4148,0,0,1,.0176-1.7842,3.7593,3.7593,0,0,1,.9405-.7339,2.6377,2.6377,0,0,1-1.2266-1.0723,3.2622,3.2622,0,0,1-.4522-1.74,3.069,3.069,0,0,1,1.0459-2.4873,4.5229,4.5229,0,0,1,2.9883-.8789,7.6417,7.6417,0,0,1,.98.0747q.5669.0747.7256.11Zm-7.5849,11.2148a.9708.9708,0,0,0,.5312.87,2.9273,2.9273,0,0,0,1.49.3164,5.2761,5.2761,0,0,0,2.2587-.3955,1.2052,1.2052,0,0,0,.8174-1.081.7653.7653,0,0,0-.4834-.7647,3.9589,3.9589,0,0,0-1.4941-.2109H1013.12a2.1038,2.1038,0,0,0-1.2353.3472A1.07,1.07,0,0,0,1011.3887,77.9783Zm.9756-7.998a2.001,2.001,0,0,0,.3642,1.2656,1.326,1.326,0,0,0,1.1123.4658,1.2975,1.2975,0,0,0,1.1074-.4658A2.0541,2.0541,0,0,0,1015.3,69.98q0-1.7754-1.459-1.7754Q1012.3642,68.2049,1012.3643,69.98Z"/><path class="cls-2" d="M1029.5205,71.659a5.28,5.28,0,0,1-1.2656,3.7529,4.5889,4.5889,0,0,1-3.5244,1.3535,4.93,4.93,0,0,1-2.4961-.62,4.1241,4.1241,0,0,1-1.6612-1.78,5.9807,5.9807,0,0,1-.58-2.707,5.2514,5.2514,0,0,1,1.2568-3.7442,4.6156,4.6156,0,0,1,3.5332-1.3359,4.9586,4.9586,0,0,1,2.4961.6152,4.1069,4.1069,0,0,1,1.6611,1.7666A5.9256,5.9256,0,0,1,1029.5205,71.659Zm-6.7939,0a4.1238,4.1238,0,0,0,.4785,2.206,1.7137,1.7137,0,0,0,1.56.7471,1.685,1.685,0,0,0,1.542-.7427,4.1826,4.1826,0,0,0,.4707-2.21,4.0587,4.0587,0,0,0-.4746-2.1885,2.018,2.018,0,0,0-3.1025-.0044A4.0554,4.0554,0,0,0,1022.7266,71.659Z"/><path class="cls-2" d="M1040.8057,76.59h-2.6807V70.85a2.7571,2.7571,0,0,0-.3779-1.5952,1.3751,1.3751,0,0,0-1.2041-.5318,1.81,1.81,0,0,0-1.626.7515,4.66,4.66,0,0,0-.501,2.4917V76.59h-2.6806V66.7635h2.0478l.36,1.2568h.1494a2.8317,2.8317,0,0,1,1.2343-1.0767,4.2085,4.2085,0,0,1,1.7891-.3647,3.4366,3.4366,0,0,1,2.6016.9272,3.7211,3.7211,0,0,1,.8877,2.6763Z"/><path class="cls-2" d="M1052.4951,71.659a5.28,5.28,0,0,1-1.2656,3.7529,4.5889,4.5889,0,0,1-3.5244,1.3535,4.93,4.93,0,0,1-2.4961-.62,4.1233,4.1233,0,0,1-1.6611-1.78,5.9794,5.9794,0,0,1-.58-2.707,5.2514,5.2514,0,0,1,1.2568-3.7442,4.6156,4.6156,0,0,1,3.5332-1.3359,4.9586,4.9586,0,0,1,2.4961.6152,4.1069,4.1069,0,0,1,1.6611,1.7666A5.9243,5.9243,0,0,1,1052.4951,71.659Zm-2.7422-5.9766a9.3055,9.3055,0,0,1-2.0566-1.5469,10.8652,10.8652,0,0,1-2.0127,1.5469h-1.7842v-.2373a15.5049,15.5049,0,0,0,2.25-2.6455h3.1377a9.9939,9.9939,0,0,0,.9443,1.2437q.6725.7866,1.3057,1.4018v.2373Zm-4.0517,5.9766a4.1248,4.1248,0,0,0,.4785,2.206,1.7137,1.7137,0,0,0,1.5605.7471,1.6849,1.6849,0,0,0,1.542-.7427,4.1826,4.1826,0,0,0,.4707-2.21,4.0587,4.0587,0,0,0-.4746-2.1885,2.018,2.018,0,0,0-3.1025-.0044A4.0554,4.0554,0,0,0,1045.7012,71.659Z"/><path class="cls-2" d="M1063.5078,76.59h-2.6807V70.85a2.8906,2.8906,0,0,0-.3564-1.5952,1.2511,1.2511,0,0,0-1.12-.5318,1.6232,1.6232,0,0,0-1.4942.7559,4.9584,4.9584,0,0,0-.4658,2.4873V76.59H1054.71V66.7635h2.0478l.36,1.2568h.1494a2.7229,2.7229,0,0,1,1.1426-1.0591,3.7093,3.7093,0,0,1,1.7138-.3823,3.0872,3.0872,0,0,1,2.9883,1.4414h.2373a2.6542,2.6542,0,0,1,1.1641-1.0635,3.8866,3.8866,0,0,1,1.7363-.3779,3.4252,3.4252,0,0,1,2.5264.8569,3.7631,3.7631,0,0,1,.8574,2.7466V76.59h-2.6895V70.85a2.8906,2.8906,0,0,0-.3564-1.5952,1.2512,1.2512,0,0,0-1.12-.5318,1.6727,1.6727,0,0,0-1.4727.7032,3.99,3.99,0,0,0-.4873,2.2324Z"/><path class="cls-2" d="M1072.2705,64.2234q0-1.3095,1.459-1.3095t1.459,1.31a1.2769,1.2769,0,0,1-.3653.9712,1.5314,1.5314,0,0,1-1.0937.3472Q1072.27,65.5418,1072.2705,64.2234Zm2.7949,12.3662h-2.6806V66.7635h2.6806Z"/><path class="cls-2" d="M1081.8682,76.7654q-4.5879,0-4.5879-5.0361a5.3719,5.3719,0,0,1,1.248-3.8276,4.6817,4.6817,0,0,1,3.5772-1.3228,6.82,6.82,0,0,1,3.0586.668l-.7911,2.0742q-.6327-.2549-1.1777-.4175a3.7944,3.7944,0,0,0-1.09-.1626q-2.0919,0-2.0918,2.9707,0,2.8829,2.0918,2.8828a4.7694,4.7694,0,0,0,1.4326-.2065,5.1714,5.1714,0,0,0,1.3183-.646v2.2939a4.32,4.32,0,0,1-1.3144.5713A7.3827,7.3827,0,0,1,1081.8682,76.7654Z"/><path class="cls-2" d="M1093.373,76.59l-.5185-1.3359h-.07a3.9593,3.9593,0,0,1-1.3936,1.1821,4.4982,4.4982,0,0,1-1.8672.33,3.0212,3.0212,0,0,1-2.2285-.8086,3.1048,3.1048,0,0,1-.8125-2.3027,2.5925,2.5925,0,0,1,1.0938-2.3071,6.3412,6.3412,0,0,1,3.3008-.8218l1.705-.0527v-.4307a1.3363,1.3363,0,0,0-1.5293-1.4941,6.9689,6.9689,0,0,0-2.7685.7119l-.8877-1.8106a7.9879,7.9879,0,0,1,3.7617-.8877,4.6851,4.6851,0,0,1,3.0322.8614,3.1828,3.1828,0,0,1,1.0547,2.6191V76.59Zm-.791-4.5527-1.0371.0352a3.3208,3.3208,0,0,0-1.74.4218,1.3251,1.3251,0,0,0-.5713,1.1778q0,1.1337,1.3008,1.1338a2.0584,2.0584,0,0,0,1.4892-.5362,1.8833,1.8833,0,0,0,.5586-1.4238Z"/><polygon class="cls-1" points="806.194 139.5 541.819 139.5 601.819 69.75 541.819 0 806.194 0 866.194 69.75 806.194 139.5"/><path class="cls-2" d="M804.5885,136H550.2907L606.778,69.75,550.2907,3.5H804.5885l56.9893,66.25Zm-251.8779-1H804.13l56.1289-65.25L804.13,4.5H552.7106L608.195,69.75Z"/><path class="cls-2" d="M632.7158,76.7654q-4.5879,0-4.5879-5.0361a5.3715,5.3715,0,0,1,1.2481-3.8276,4.6815,4.6815,0,0,1,3.5771-1.3228,6.82,6.82,0,0,1,3.0586.668l-.791,2.0742q-.6328-.2549-1.1777-.4175a3.7951,3.7951,0,0,0-1.09-.1626q-2.0918,0-2.0918,2.9707,0,2.8829,2.0918,2.8828a4.7685,4.7685,0,0,0,1.4326-.2065,5.172,5.172,0,0,0,1.3184-.646v2.2939a4.3161,4.3161,0,0,1-1.3135.5713A7.3922,7.3922,0,0,1,632.7158,76.7654Z"/><path class="cls-2" d="M641.9531,71.659a13.2445,13.2445,0,0,1-.6806,4.3066,10.3023,10.3023,0,0,1-1.9649,3.4717h-2.18a12.6887,12.6887,0,0,0,1.8369-3.6255,13.4511,13.4511,0,0,0,.65-4.17,13.9481,13.9481,0,0,0-.6328-4.1748A12.6588,12.6588,0,0,0,637.11,63.74h2.1972a10.7827,10.7827,0,0,1,1.9688,3.5728A13.6859,13.6859,0,0,1,641.9531,71.659Z"/><path class="cls-2" d="M654.4072,76.59l-3.0937-10.081h-.0791q.1669,3.0762.167,4.1045V76.59h-2.4346V63.74h3.709l3.041,9.8262h.0527l3.2256-9.8262h3.709V76.59h-2.54v-6.082q0-.4306.0136-.9932t.1182-2.9882h-.0791L656.9033,76.59Z"/><path class="cls-2" d="M671.9678,76.59l-.5186-1.3359h-.07a3.957,3.957,0,0,1-1.3926,1.1821,4.503,4.503,0,0,1-1.8681.33,3.0188,3.0188,0,0,1-2.2276-.8086,3.1053,3.1053,0,0,1-.8135-2.3027,2.5932,2.5932,0,0,1,1.0948-2.3071,6.3374,6.3374,0,0,1,3.3-.8218l1.7051-.0527v-.4307a1.3364,1.3364,0,0,0-1.5293-1.4941,6.9693,6.9693,0,0,0-2.7686.7119l-.8877-1.8106a7.9884,7.9884,0,0,1,3.7617-.8877,4.6856,4.6856,0,0,1,3.0323.8614,3.1831,3.1831,0,0,1,1.0546,2.6191V76.59Zm-.791-4.5527-1.0372.0352a3.3213,3.3213,0,0,0-1.74.4218,1.3253,1.3253,0,0,0-.5713,1.1778q0,1.1337,1.3008,1.1338a2.0608,2.0608,0,0,0,1.49-.5362,1.8827,1.8827,0,0,0,.5577-1.4238Z"/><path class="cls-2" d="M681.9961,76.7654a3.2587,3.2587,0,0,1-2.7158-1.2568H679.14q.1407,1.23.1407,1.4238v3.9815H676.6v-14.15h2.18l.3779,1.2744h.1231a3.1009,3.1009,0,0,1,2.7861-1.459,3.1885,3.1885,0,0,1,2.7246,1.3447,6.2191,6.2191,0,0,1,.9844,3.7354,7.3769,7.3769,0,0,1-.4609,2.7334A3.8355,3.8355,0,0,1,684,76.159,3.3671,3.3671,0,0,1,681.9961,76.7654Zm-.791-8.042a1.6925,1.6925,0,0,0-1.45.6109,3.5069,3.5069,0,0,0-.4746,2.0171v.29a4.1391,4.1391,0,0,0,.4707,2.2676,1.6773,1.6773,0,0,0,1.4892.6855q1.8018,0,1.8018-2.9707a4.2427,4.2427,0,0,0-.4434-2.1753A1.5156,1.5156,0,0,0,681.2051,68.7234Z"/><path class="cls-2" d="M694.2305,76.59l-.5186-1.3359h-.07a3.957,3.957,0,0,1-1.3926,1.1821,4.503,4.503,0,0,1-1.8681.33,3.0188,3.0188,0,0,1-2.2276-.8086,3.1053,3.1053,0,0,1-.8135-2.3027,2.5932,2.5932,0,0,1,1.0948-2.3071,6.3374,6.3374,0,0,1,3.3-.8218l1.7051-.0527v-.4307a1.3364,1.3364,0,0,0-1.5293-1.4941,6.9689,6.9689,0,0,0-2.7686.7119l-.8877-1.8106a7.9884,7.9884,0,0,1,3.7617-.8877,4.6856,4.6856,0,0,1,3.0323.8614,3.1831,3.1831,0,0,1,1.0546,2.6191V76.59Zm-.791-4.5527-1.0372.0352a3.321,3.321,0,0,0-1.74.4218,1.3251,1.3251,0,0,0-.5713,1.1778q0,1.1337,1.3008,1.1338a2.0608,2.0608,0,0,0,1.49-.5362,1.8827,1.8827,0,0,0,.5577-1.4238Z"/><path class="cls-2" d="M706.6494,76.7654a3.1906,3.1906,0,0,1-2.72-1.3447,6.182,6.182,0,0,1-.9893-3.7266,6.188,6.188,0,0,1,1.0069-3.7661,3.2676,3.2676,0,0,1,2.7724-1.3491,3.2056,3.2056,0,0,1,2.83,1.4414h.0879a10.9558,10.9558,0,0,1-.2022-1.96V62.9139h2.6895V76.59h-2.0566l-.5186-1.2744h-.1143A3.0674,3.0674,0,0,1,706.6494,76.7654Zm.94-2.1357a1.8176,1.8176,0,0,0,1.5079-.5977,3.4772,3.4772,0,0,0,.5224-2.03v-.29a4.0185,4.0185,0,0,0-.4873-2.2676,1.8128,1.8128,0,0,0-1.5869-.6855,1.5728,1.5728,0,0,0-1.3926.76,4.0566,4.0566,0,0,0-.4971,2.21,3.8438,3.8438,0,0,0,.501,2.1753A1.6369,1.6369,0,0,0,707.59,74.63Z"/><path class="cls-2" d="M719.376,76.7654a5.0717,5.0717,0,0,1-3.709-1.3095,4.9587,4.9587,0,0,1-1.3359-3.709,5.4541,5.4541,0,0,1,1.2353-3.8189,4.3959,4.3959,0,0,1,3.4141-1.3491,4.3279,4.3279,0,0,1,3.2431,1.1865,4.4886,4.4886,0,0,1,1.16,3.2783v1.3008h-6.3369a2.5806,2.5806,0,0,0,.6767,1.7842,2.3814,2.3814,0,0,0,1.7754.6416,7.3669,7.3669,0,0,0,1.6787-.1846,8.397,8.397,0,0,0,1.6524-.5888v2.0742a6.2906,6.2906,0,0,1-1.503.5229A9.472,9.472,0,0,1,719.376,76.7654Zm-.378-8.2793a1.7,1.7,0,0,0-1.3359.5406,2.5012,2.5012,0,0,0-.5537,1.5336H720.87a2.2345,2.2345,0,0,0-.5185-1.5336A1.7558,1.7558,0,0,0,718.998,68.4861Z"/><path class="cls-2" d="M733.1748,71.659V76.59H730.45V63.74h3.7441a6.4085,6.4085,0,0,1,3.876.9536,3.8022,3.8022,0,0,1,.6328,4.9131,4.1289,4.1289,0,0,1-1.7666,1.3843q2.9,4.3331,3.7793,5.5986h-3.0234L734.625,71.659Zm0-2.2149h.8789a3.3624,3.3624,0,0,0,1.9072-.4306,1.5372,1.5372,0,0,0,.6153-1.3535,1.4057,1.4057,0,0,0-.628-1.3008,3.8152,3.8152,0,0,0-1.9472-.3867h-.8262Z"/><path class="cls-2" d="M742.0078,64.2234q0-1.3095,1.459-1.3095t1.459,1.31a1.2764,1.2764,0,0,1-.3643.9712,1.5341,1.5341,0,0,1-1.0947.3472Q742.0078,65.5418,742.0078,64.2234ZM744.8027,76.59h-2.6806V66.7635h2.6806Z"/><path class="cls-2" d="M754.4707,73.6717a2.7049,2.7049,0,0,1-1.05,2.3027,5.1907,5.1907,0,0,1-3.1426.791,9.8673,9.8673,0,0,1-1.8281-.145,6.9149,6.9149,0,0,1-1.415-.4263V73.9793a9.3448,9.3448,0,0,0,1.6836.5889,6.8112,6.8112,0,0,0,1.6474.2373q1.459,0,1.459-.8438a.7041.7041,0,0,0-.1934-.5141,2.8009,2.8009,0,0,0-.6679-.4483q-.4746-.2505-1.2657-.5845a7.9421,7.9421,0,0,1-1.665-.8789,2.4734,2.4734,0,0,1-.7734-.9272,3.0592,3.0592,0,0,1-.2422-1.2876,2.3344,2.3344,0,0,1,1.0156-2.0259,4.9434,4.9434,0,0,1,2.8779-.7163,8.17,8.17,0,0,1,3.4541.7734l-.8086,1.9336q-.7382-.3163-1.38-.5185a4.3327,4.3327,0,0,0-1.31-.2022q-1.1865,0-1.1865.6416a.7549.7549,0,0,0,.3828.6241,10.394,10.394,0,0,0,1.6738.7822,7.7767,7.7767,0,0,1,1.6875.87,2.5736,2.5736,0,0,1,.791.9316A2.8634,2.8634,0,0,1,754.4707,73.6717Z"/><path class="cls-2" d="M760.5527,76.7654q-4.5879,0-4.5879-5.0361a5.372,5.372,0,0,1,1.2481-3.8276,4.6815,4.6815,0,0,1,3.5771-1.3228,6.8193,6.8193,0,0,1,3.0586.668l-.791,2.0742q-.6328-.2549-1.1777-.4175a3.7951,3.7951,0,0,0-1.09-.1626q-2.0918,0-2.0918,2.9707,0,2.8829,2.0918,2.8828a4.77,4.77,0,0,0,1.4327-.2065,5.1714,5.1714,0,0,0,1.3183-.646v2.2939a4.3161,4.3161,0,0,1-1.3135.5713A7.391,7.391,0,0,1,760.5527,76.7654Z"/><path class="cls-2" d="M774.7471,71.659a5.28,5.28,0,0,1-1.2657,3.7529,4.5886,4.5886,0,0,1-3.5244,1.3535,4.93,4.93,0,0,1-2.4961-.62,4.1233,4.1233,0,0,1-1.6611-1.78,5.9807,5.9807,0,0,1-.58-2.707,5.2515,5.2515,0,0,1,1.2569-3.7442,4.6156,4.6156,0,0,1,3.5332-1.3359,4.9588,4.9588,0,0,1,2.4961.6152,4.1069,4.1069,0,0,1,1.6611,1.7666A5.9256,5.9256,0,0,1,774.7471,71.659Zm-6.794,0a4.1239,4.1239,0,0,0,.48,2.206,1.7123,1.7123,0,0,0,1.56.7471,1.6868,1.6868,0,0,0,1.543-.7427,4.1844,4.1844,0,0,0,.47-2.21,4.0587,4.0587,0,0,0-.4746-2.1885,2.0181,2.0181,0,0,0-3.1026-.0044A4.0554,4.0554,0,0,0,767.9531,71.659Z"/><polygon class="cls-1" points="535.285 139.5 270.91 139.5 330.91 69.75 270.91 0 535.285 0 595.285 69.75 535.285 139.5"/><path class="cls-2" d="M533.6788,136H279.3809l56.4873-66.25L279.3809,3.5H533.6788L590.668,69.75Zm-251.878-1H533.22l56.1289-65.25L533.22,4.5H281.8008l55.4844,65.25Z"/><path class="cls-2" d="M363.2827,23.3792a3.1782,3.1782,0,0,1,2.7246,1.3579,6.23,6.23,0,0,1,.9844,3.7222,6.1217,6.1217,0,0,1-1.0151,3.77,3.5448,3.5448,0,0,1-5.48.0791h-.1846l-.4482,1.081h-2.0479V19.7142h2.6807v3.1816q0,.6064-.1055,1.9424h.1055A3.1009,3.1009,0,0,1,363.2827,23.3792Zm-.8613,2.1445a1.6925,1.6925,0,0,0-1.45.6109,3.5069,3.5069,0,0,0-.4746,2.0171v.29a4.14,4.14,0,0,0,.47,2.2676,1.6783,1.6783,0,0,0,1.49.6855,1.4949,1.4949,0,0,0,1.314-.76,4.1154,4.1154,0,0,0,.4878-2.21,3.8988,3.8988,0,0,0-.4922-2.1753A1.5432,1.5432,0,0,0,362.4214,25.5237Z"/><path class="cls-2" d="M373.1792,28.4593a13.2446,13.2446,0,0,1-.6812,4.3066,10.3011,10.3011,0,0,1-1.9643,3.4717h-2.18a12.6887,12.6887,0,0,0,1.8369-3.6255,13.4511,13.4511,0,0,0,.65-4.17,13.9481,13.9481,0,0,0-.6328-4.1748,12.6567,12.6567,0,0,0-1.8721-3.7266h2.1973a10.7807,10.7807,0,0,1,1.9687,3.5728A13.6832,13.6832,0,0,1,373.1792,28.4593Z"/><path class="cls-2" d="M389.07,24.5481a3.9272,3.9272,0,0,1-1.2964,3.1729,5.5443,5.5443,0,0,1-3.687,1.0986h-1.1689v4.57h-2.7246V20.54h4.1045a5.4591,5.4591,0,0,1,3.5551,1.0064A3.6691,3.6691,0,0,1,389.07,24.5481Zm-6.1523,2.0391h.8965a2.985,2.985,0,0,0,1.8808-.4966,1.7379,1.7379,0,0,0,.624-1.4458,1.782,1.782,0,0,0-.5229-1.415,2.45,2.45,0,0,0-1.6392-.4571h-1.2392Z"/><path class="cls-2" d="M396.769,23.3792a4.3253,4.3253,0,0,1,.9053.0791l-.2021,2.5137a3.0707,3.0707,0,0,0-.791-.0879,2.8428,2.8428,0,0,0-2,.6592,2.3828,2.3828,0,0,0-.7163,1.8457V33.39h-2.6806V23.5638h2.03l.3955,1.6523h.1319a3.6938,3.6938,0,0,1,1.2348-1.3315A3.0453,3.0453,0,0,1,396.769,23.3792Z"/><path class="cls-2" d="M408.3882,28.4593a5.28,5.28,0,0,1-1.2656,3.7529,4.5894,4.5894,0,0,1-3.5245,1.3535,4.93,4.93,0,0,1-2.496-.62,4.1229,4.1229,0,0,1-1.6612-1.78,5.9807,5.9807,0,0,1-.58-2.707,5.2515,5.2515,0,0,1,1.2569-3.7442,4.6156,4.6156,0,0,1,3.5332-1.3359,4.9588,4.9588,0,0,1,2.4961.6152,4.1069,4.1069,0,0,1,1.6611,1.7666A5.9256,5.9256,0,0,1,408.3882,28.4593Zm-6.794,0a4.1243,4.1243,0,0,0,.479,2.206,1.7131,1.7131,0,0,0,1.56.7471,1.686,1.686,0,0,0,1.5425-.7427,4.183,4.183,0,0,0,.47-2.21,4.0587,4.0587,0,0,0-.4746-2.1885,2.0181,2.0181,0,0,0-3.1026-.0044A4.0554,4.0554,0,0,0,401.5942,28.4593Z"/><path class="cls-2" d="M419.1548,23.5638v1.3623l-1.5381.3955a2.6814,2.6814,0,0,1,.4219,1.4765,2.9811,2.9811,0,0,1-1.1031,2.4654,4.7775,4.7775,0,0,1-3.0629.8833l-.4834-.0264-.3955-.0439a.8913.8913,0,0,0-.4131.7031q0,.58,1.4765.58h1.67a3.8093,3.8093,0,0,1,2.4653.6943,2.482,2.482,0,0,1,.8481,2.0391,3.0238,3.0238,0,0,1-1.437,2.6718,7.4838,7.4838,0,0,1-4.1264.9493,5.7121,5.7121,0,0,1-3.1421-.7164A2.2742,2.2742,0,0,1,409.25,34.99a2.1024,2.1024,0,0,1,.5537-1.4853,3.1447,3.1447,0,0,1,1.626-.8525,1.7944,1.7944,0,0,1-.7207-.5757,1.4148,1.4148,0,0,1,.0176-1.7842,3.7585,3.7585,0,0,1,.94-.7339,2.6381,2.6381,0,0,1-1.2261-1.0723,3.2633,3.2633,0,0,1-.4526-1.74,3.0687,3.0687,0,0,1,1.0459-2.4873,4.5229,4.5229,0,0,1,2.9883-.8789,7.65,7.65,0,0,1,.98.0747q.5668.0747.7251.11ZM411.57,34.7786a.9715.9715,0,0,0,.5318.87,2.9249,2.9249,0,0,0,1.49.3164A5.2766,5.2766,0,0,0,415.85,35.57a1.2054,1.2054,0,0,0,.8174-1.081.7653.7653,0,0,0-.4834-.7647,3.96,3.96,0,0,0-1.4942-.2109h-1.3886a2.1027,2.1027,0,0,0-1.2349.3472A1.0706,1.0706,0,0,0,411.57,34.7786Zm.9756-7.998a2.0005,2.0005,0,0,0,.3648,1.2656,1.3247,1.3247,0,0,0,1.1118.4658,1.2977,1.2977,0,0,0,1.1074-.4658,2.0541,2.0541,0,0,0,.3516-1.2656q0-1.7754-1.459-1.7754Q412.5454,25.0052,412.5454,26.7806Z"/><path class="cls-2" d="M426.2563,23.3792a4.3253,4.3253,0,0,1,.9053.0791L426.96,25.972a3.0707,3.0707,0,0,0-.791-.0879,2.8428,2.8428,0,0,0-2,.6592,2.3828,2.3828,0,0,0-.7163,1.8457V33.39H420.772V23.5638h2.03l.3956,1.6523h.1318a3.6932,3.6932,0,0,1,1.2349-1.3315A3.0448,3.0448,0,0,1,426.2563,23.3792Z"/><path class="cls-2" d="M435.186,33.39l-.5185-1.3359h-.07a3.959,3.959,0,0,1-1.3931,1.1821,4.5007,4.5007,0,0,1-1.8677.33,3.02,3.02,0,0,1-2.228-.8086,3.105,3.105,0,0,1-.813-2.3027,2.593,2.593,0,0,1,1.0942-2.3071,6.3394,6.3394,0,0,1,3.3-.8218l1.7051-.0528v-.4306a1.3364,1.3364,0,0,0-1.5293-1.4942,6.9676,6.9676,0,0,0-2.7685.712l-.8877-1.8106a7.9879,7.9879,0,0,1,3.7617-.8877,4.6857,4.6857,0,0,1,3.0322.8613,3.1835,3.1835,0,0,1,1.0547,2.6192V33.39Zm-.791-4.5527-1.0371.0352a3.3208,3.3208,0,0,0-1.74.4218,1.325,1.325,0,0,0-.5713,1.1778q0,1.1337,1.3008,1.1338a2.06,2.06,0,0,0,1.49-.5362,1.8829,1.8829,0,0,0,.5581-1.4238Z"/><path class="cls-2" d="M448.6157,33.39h-2.6806V27.6507a2.8909,2.8909,0,0,0-.356-1.5952,1.252,1.252,0,0,0-1.1206-.5318,1.623,1.623,0,0,0-1.4941.7559,4.9571,4.9571,0,0,0-.4659,2.4873V33.39h-2.6806V23.5638h2.0478l.36,1.2568h.1494a2.7235,2.7235,0,0,1,1.1426-1.0591,3.7093,3.7093,0,0,1,1.7138-.3823,3.0872,3.0872,0,0,1,2.9883,1.4414h.2373a2.6555,2.6555,0,0,1,1.1646-1.0635,3.8844,3.8844,0,0,1,1.7358-.3779,3.4264,3.4264,0,0,1,2.5269.8569,3.7629,3.7629,0,0,1,.8569,2.7466V33.39h-2.6895V27.6507a2.891,2.891,0,0,0-.3559-1.5952,1.2521,1.2521,0,0,0-1.1206-.5318,1.6719,1.6719,0,0,0-1.4722.7031,3.99,3.99,0,0,0-.4878,2.2325Z"/><path class="cls-2" d="M463.7329,33.39l-.5185-1.3359h-.07a3.9579,3.9579,0,0,1-1.393,1.1821,4.501,4.501,0,0,1-1.8677.33,3.02,3.02,0,0,1-2.228-.8086,3.105,3.105,0,0,1-.813-2.3027,2.5928,2.5928,0,0,1,1.0942-2.3071,6.3394,6.3394,0,0,1,3.3-.8218l1.7051-.0528v-.4306a1.3365,1.3365,0,0,0-1.5293-1.4942,6.968,6.968,0,0,0-2.7686.712l-.8877-1.8106a7.9886,7.9886,0,0,1,3.7618-.8877,4.6859,4.6859,0,0,1,3.0322.8613,3.1835,3.1835,0,0,1,1.0547,2.6192V33.39Zm-.791-4.5527-1.0371.0352a3.3208,3.3208,0,0,0-1.74.4218,1.325,1.325,0,0,0-.5713,1.1778q0,1.1337,1.3007,1.1338a2.06,2.06,0,0,0,1.49-.5362,1.8829,1.8829,0,0,0,.5581-1.4238Z"/><path class="cls-2" d="M476.1519,33.5657a3.1917,3.1917,0,0,1-2.72-1.3447,6.1827,6.1827,0,0,1-.9887-3.7266,6.188,6.188,0,0,1,1.0063-3.7661,3.2686,3.2686,0,0,1,2.773-1.3491,3.2054,3.2054,0,0,1,2.83,1.4414h.0879a10.9641,10.9641,0,0,1-.2021-1.96V19.7142h2.6894V33.39h-2.0566l-.5186-1.2744h-.1142A3.0676,3.0676,0,0,1,476.1519,33.5657Zm.94-2.1357a1.8163,1.8163,0,0,0,1.5073-.5977,3.4768,3.4768,0,0,0,.523-2.03v-.29a4.018,4.018,0,0,0-.4878-2.2676,1.8119,1.8119,0,0,0-1.5865-.6855,1.5734,1.5734,0,0,0-1.393.76,4.056,4.056,0,0,0-.4966,2.21,3.8438,3.8438,0,0,0,.501,2.1753A1.6367,1.6367,0,0,0,477.0923,31.43Z"/><path class="cls-2" d="M488.8784,33.5657a5.0717,5.0717,0,0,1-3.709-1.31,4.9583,4.9583,0,0,1-1.3359-3.7089,5.4535,5.4535,0,0,1,1.2349-3.8189,4.397,4.397,0,0,1,3.4145-1.3491,4.3282,4.3282,0,0,1,3.2432,1.1865,4.489,4.489,0,0,1,1.16,3.2783v1.3008h-6.3369a2.58,2.58,0,0,0,.6768,1.7842,2.3811,2.3811,0,0,0,1.7754.6416,7.3675,7.3675,0,0,0,1.6787-.1846,8.3985,8.3985,0,0,0,1.6523-.5888v2.0742a6.29,6.29,0,0,1-1.5029.5229A9.473,9.473,0,0,1,488.8784,33.5657Zm-.3779-8.2793a1.7,1.7,0,0,0-1.3359.54,2.5018,2.5018,0,0,0-.5538,1.5337h3.7618a2.235,2.235,0,0,0-.5186-1.5337A1.756,1.756,0,0,0,488.5005,25.2864Z"/><path class="cls-2" d="M366.9038,46.1477a3.9272,3.9272,0,0,1-1.2964,3.1729,5.5443,5.5443,0,0,1-3.687,1.0986h-1.1689v4.57h-2.7246V42.14h4.1044a5.4594,5.4594,0,0,1,3.5552,1.0064A3.6694,3.6694,0,0,1,366.9038,46.1477Zm-6.1523,2.0391h.8964a2.9854,2.9854,0,0,0,1.8809-.4966,1.7379,1.7379,0,0,0,.624-1.4458,1.7822,1.7822,0,0,0-.5229-1.415,2.45,2.45,0,0,0-1.6392-.457h-1.2392Z"/><path class="cls-2" d="M374.603,44.9788a4.3253,4.3253,0,0,1,.9053.0791l-.2021,2.5137a3.071,3.071,0,0,0-.7911-.0879,2.8427,2.8427,0,0,0-2,.6592,2.3829,2.3829,0,0,0-.7163,1.8457V54.99h-2.6806V45.1634h2.03l.3955,1.6523h.1319a3.6938,3.6938,0,0,1,1.2348-1.3315A3.0453,3.0453,0,0,1,374.603,44.9788Z"/><path class="cls-2" d="M381.74,55.1653a5.0716,5.0716,0,0,1-3.7089-1.3095,4.9584,4.9584,0,0,1-1.336-3.709,5.4535,5.4535,0,0,1,1.2349-3.8189,4.397,4.397,0,0,1,3.4145-1.3491,4.328,4.328,0,0,1,3.2432,1.1865,4.489,4.489,0,0,1,1.16,3.2783v1.3008h-6.337a2.58,2.58,0,0,0,.6768,1.7842,2.3814,2.3814,0,0,0,1.7754.6416,7.3669,7.3669,0,0,0,1.6787-.1846,8.3985,8.3985,0,0,0,1.6523-.5888V54.471a6.29,6.29,0,0,1-1.5029.5229A9.473,9.473,0,0,1,381.74,55.1653Zm-.3779-8.2793a1.7,1.7,0,0,0-1.3359.5406,2.5006,2.5006,0,0,0-.5537,1.5336h3.7617a2.2341,2.2341,0,0,0-.5186-1.5336A1.7555,1.7555,0,0,0,381.3618,46.886Z"/><path class="cls-2" d="M390.2651,54.99l-3.7441-9.8261h2.8037l1.8984,5.5986a9.9913,9.9913,0,0,1,.3956,2.0127h.0527a8.7512,8.7512,0,0,1,.3955-2.0127l1.89-5.5986H396.76L393.0161,54.99Z"/><path class="cls-2" d="M402.6138,55.1653a5.0717,5.0717,0,0,1-3.709-1.3095,4.9588,4.9588,0,0,1-1.336-3.709,5.454,5.454,0,0,1,1.2349-3.8189,4.3972,4.3972,0,0,1,3.4146-1.3491,4.3279,4.3279,0,0,1,3.2431,1.1865,4.4886,4.4886,0,0,1,1.16,3.2783v1.3008h-6.3369a2.5806,2.5806,0,0,0,.6767,1.7842,2.3814,2.3814,0,0,0,1.7754.6416,7.3669,7.3669,0,0,0,1.6787-.1846,8.397,8.397,0,0,0,1.6524-.5888V54.471a6.2921,6.2921,0,0,1-1.503.5229A9.4727,9.4727,0,0,1,402.6138,55.1653Zm-.378-8.2793a1.7,1.7,0,0,0-1.3359.5406,2.5012,2.5012,0,0,0-.5537,1.5336h3.7617a2.2345,2.2345,0,0,0-.5185-1.5336A1.7558,1.7558,0,0,0,402.2358,46.886Z"/><path class="cls-2" d="M417.8716,54.99h-2.6807V49.25a2.7571,2.7571,0,0,0-.3779-1.5952,1.3751,1.3751,0,0,0-1.2041-.5318,1.81,1.81,0,0,0-1.626.7515,4.66,4.66,0,0,0-.501,2.4917V54.99h-2.6806V45.1634h2.0478l.36,1.2568h.1494a2.8327,2.8327,0,0,1,1.2349-1.0767,4.2057,4.2057,0,0,1,1.7885-.3647,3.4366,3.4366,0,0,1,2.6016.9272,3.7211,3.7211,0,0,1,.8877,2.6763Z"/><path class="cls-2" d="M424.6216,55.1653q-4.5879,0-4.5879-5.0361a5.3719,5.3719,0,0,1,1.248-3.8276,4.6819,4.6819,0,0,1,3.5772-1.3228,6.82,6.82,0,0,1,3.0586.668l-.791,2.0742q-.6329-.2548-1.1778-.4175a3.7944,3.7944,0,0,0-1.09-.1626q-2.0917,0-2.0918,2.9707,0,2.8828,2.0918,2.8828a4.769,4.769,0,0,0,1.4326-.2065,5.172,5.172,0,0,0,1.3184-.646v2.2939a4.3186,4.3186,0,0,1-1.314.5713A7.3875,7.3875,0,0,1,424.6216,55.1653ZM426.3,57.1868a1.9062,1.9062,0,0,1-.6636,1.626,3.4079,3.4079,0,0,1-2.0522.501,4.328,4.328,0,0,1-1.2832-.1846V57.6526q.2373.0615.6372.1231a4.3726,4.3726,0,0,0,.62.0615q.6329,0,.6328-.5449,0-.7294-1.459-.9492l.6856-1.3536h1.6963l-.2373.5362a2.2657,2.2657,0,0,1,1.0371.6548A1.49,1.49,0,0,1,426.3,57.1868Z"/><path class="cls-2" d="M436.1265,54.99l-.5186-1.3359h-.07a3.9582,3.9582,0,0,1-1.3931,1.1821,4.5005,4.5005,0,0,1-1.8676.33,3.02,3.02,0,0,1-2.2281-.8086,3.105,3.105,0,0,1-.813-2.3027,2.5928,2.5928,0,0,1,1.0943-2.3071,6.34,6.34,0,0,1,3.3-.8218l1.705-.0527v-.4307a1.3363,1.3363,0,0,0-1.5292-1.4941,6.9689,6.9689,0,0,0-2.7686.7119l-.8877-1.8106a7.9884,7.9884,0,0,1,3.7617-.8877,4.6851,4.6851,0,0,1,3.0322.8614,3.1828,3.1828,0,0,1,1.0547,2.6191V54.99Zm-3.542-11.83a.7638.7638,0,0,0-.523.2329,1.3829,1.3829,0,0,0-.3647.7075h-1.31a3.3374,3.3374,0,0,1,.7251-1.9951,2.1007,2.1007,0,0,1,1.6655-.7207,1.82,1.82,0,0,1,.7076.145q.3471.145.6855.3164t.6636.312a1.6067,1.6067,0,0,0,.6416.1406.7706.7706,0,0,0,.5229-.2285,1.3561,1.3561,0,0,0,.3648-.7031h1.3095a3.3033,3.3033,0,0,1-.7338,1.9951,2.1078,2.1078,0,0,1-1.6568.7207,1.82,1.82,0,0,1-.7075-.145q-.3471-.145-.6856-.3164t-.6635-.3164A1.5665,1.5665,0,0,0,432.5845,43.16Zm2.7509,7.2773-1.0371.0352a3.321,3.321,0,0,0-1.74.4218,1.3251,1.3251,0,0,0-.5713,1.1778q0,1.1337,1.3008,1.1338a2.06,2.06,0,0,0,1.49-.5362,1.8829,1.8829,0,0,0,.5581-1.4238Z"/><path class="cls-2" d="M449.688,50.0589a5.28,5.28,0,0,1-1.2656,3.7529,4.589,4.589,0,0,1-3.5245,1.3535,4.93,4.93,0,0,1-2.496-.62,4.1235,4.1235,0,0,1-1.6612-1.78,5.9807,5.9807,0,0,1-.58-2.707,5.2515,5.2515,0,0,1,1.2569-3.7442,4.6156,4.6156,0,0,1,3.5332-1.3359,4.9588,4.9588,0,0,1,2.4961.6152,4.1069,4.1069,0,0,1,1.6611,1.7666A5.9256,5.9256,0,0,1,449.688,50.0589Zm-6.794,0a4.1243,4.1243,0,0,0,.479,2.206,1.7131,1.7131,0,0,0,1.56.7471,1.686,1.686,0,0,0,1.5425-.7427,4.183,4.183,0,0,0,.47-2.21,4.0587,4.0587,0,0,0-.4746-2.1885,2.018,2.018,0,0,0-3.1025-.0044A4.0544,4.0544,0,0,0,442.894,50.0589Z"/><path class="cls-2" d="M459.69,55.1653a3.1915,3.1915,0,0,1-2.72-1.3447,6.182,6.182,0,0,1-.9887-3.7266,6.188,6.188,0,0,1,1.0063-3.7661,3.2686,3.2686,0,0,1,2.773-1.3491,3.2055,3.2055,0,0,1,2.83,1.4414h.0879a10.9641,10.9641,0,0,1-.2021-1.96V41.3138h2.6894V54.99h-2.0566l-.5186-1.2744h-.1142A3.0676,3.0676,0,0,1,459.69,55.1653Zm.94-2.1357a1.8163,1.8163,0,0,0,1.5073-.5977,3.4768,3.4768,0,0,0,.5229-2.03v-.29a4.0189,4.0189,0,0,0-.4877-2.2676,1.812,1.812,0,0,0-1.5865-.6855,1.5734,1.5734,0,0,0-1.393.76,4.056,4.056,0,0,0-.4966,2.21,3.8438,3.8438,0,0,0,.501,2.1753A1.6366,1.6366,0,0,0,460.63,53.03Z"/><path class="cls-2" d="M472.4165,55.1653a5.0719,5.0719,0,0,1-3.709-1.3095,4.9587,4.9587,0,0,1-1.3359-3.709,5.4539,5.4539,0,0,1,1.2348-3.8189,4.3973,4.3973,0,0,1,3.4146-1.3491,4.3282,4.3282,0,0,1,3.2432,1.1865,4.489,4.489,0,0,1,1.16,3.2783v1.3008h-6.3369a2.58,2.58,0,0,0,.6768,1.7842,2.3811,2.3811,0,0,0,1.7754.6416,7.3681,7.3681,0,0,0,1.6787-.1846,8.3985,8.3985,0,0,0,1.6523-.5888V54.471a6.29,6.29,0,0,1-1.5029.5229A9.473,9.473,0,0,1,472.4165,55.1653Zm-.3779-8.2793a1.7,1.7,0,0,0-1.336.5406,2.5018,2.5018,0,0,0-.5537,1.5336h3.7617a2.2341,2.2341,0,0,0-.5185-1.5336A1.7557,1.7557,0,0,0,472.0386,46.886Z"/><path class="cls-2" d="M360.7515,71.659V76.59h-2.7246V63.74h3.7441a6.4085,6.4085,0,0,1,3.876.9536,3.8022,3.8022,0,0,1,.6328,4.9131,4.1289,4.1289,0,0,1-1.7666,1.3843q2.9,4.3331,3.7793,5.5986H365.269l-3.0673-4.9306Zm0-2.2149h.8789a3.3626,3.3626,0,0,0,1.9072-.4306,1.5371,1.5371,0,0,0,.6152-1.3535,1.4059,1.4059,0,0,0-.6284-1.3008,3.8135,3.8135,0,0,0-1.9468-.3867h-.8261Z"/><path class="cls-2" d="M369.5845,64.2234q0-1.3095,1.459-1.3095t1.4589,1.31a1.2766,1.2766,0,0,1-.3647.9712,1.5329,1.5329,0,0,1-1.0942.3472Q369.5845,65.5418,369.5845,64.2234ZM372.3794,76.59h-2.6807V66.7635h2.6807Z"/><path class="cls-2" d="M382.0474,73.6717a2.7052,2.7052,0,0,1-1.05,2.3027,5.1893,5.1893,0,0,1-3.1421.791,9.8666,9.8666,0,0,1-1.8281-.145,6.9158,6.9158,0,0,1-1.4151-.4263V73.9793a9.3446,9.3446,0,0,0,1.6831.5889,6.8156,6.8156,0,0,0,1.648.2373q1.4589,0,1.459-.8438a.7041.7041,0,0,0-.1934-.5141,2.8019,2.8019,0,0,0-.668-.4483q-.4746-.2505-1.2656-.5845a7.9458,7.9458,0,0,1-1.6655-.8789,2.4747,2.4747,0,0,1-.7735-.9272,3.0611,3.0611,0,0,1-.2417-1.2876,2.3341,2.3341,0,0,1,1.0152-2.0259,4.9449,4.9449,0,0,1,2.8784-.7163,8.17,8.17,0,0,1,3.4541.7734l-.8086,1.9336q-.7383-.3163-1.38-.5185a4.3317,4.3317,0,0,0-1.31-.2022q-1.1865,0-1.1865.6416a.7545.7545,0,0,0,.3823.6241,10.4047,10.4047,0,0,0,1.6744.7822,7.7815,7.7815,0,0,1,1.6875.87,2.5736,2.5736,0,0,1,.791.9316A2.8634,2.8634,0,0,1,382.0474,73.6717Z"/><path class="cls-2" d="M388.1294,76.7654q-4.5879,0-4.5879-5.0361a5.3715,5.3715,0,0,1,1.2481-3.8276,4.6815,4.6815,0,0,1,3.5771-1.3228,6.82,6.82,0,0,1,3.0586.668l-.791,2.0742q-.6329-.2549-1.1778-.4175a3.7939,3.7939,0,0,0-1.09-.1626q-2.0917,0-2.0918,2.9707,0,2.8829,2.0918,2.8828a4.769,4.769,0,0,0,1.4326-.2065,5.172,5.172,0,0,0,1.3184-.646v2.2939a4.3186,4.3186,0,0,1-1.314.5713A7.3875,7.3875,0,0,1,388.1294,76.7654Z"/><path class="cls-2" d="M402.3237,71.659a5.28,5.28,0,0,1-1.2656,3.7529,4.5886,4.5886,0,0,1-3.5244,1.3535,4.93,4.93,0,0,1-2.4961-.62,4.1233,4.1233,0,0,1-1.6611-1.78,5.9794,5.9794,0,0,1-.58-2.707,5.2514,5.2514,0,0,1,1.2568-3.7442,4.6156,4.6156,0,0,1,3.5332-1.3359,4.9586,4.9586,0,0,1,2.4961.6152,4.1077,4.1077,0,0,1,1.6612,1.7666A5.9256,5.9256,0,0,1,402.3237,71.659Zm-6.7939,0a4.1243,4.1243,0,0,0,.479,2.206,1.7128,1.7128,0,0,0,1.56.7471,1.6858,1.6858,0,0,0,1.5425-.7427,4.183,4.183,0,0,0,.47-2.21,4.0587,4.0587,0,0,0-.4746-2.1885,2.018,2.018,0,0,0-3.1025-.0044A4.0554,4.0554,0,0,0,395.53,71.659Z"/><path class="cls-2" d="M411.394,73.6717a2.7054,2.7054,0,0,1-1.05,2.3027,5.1893,5.1893,0,0,1-3.1421.791,9.8677,9.8677,0,0,1-1.8282-.145,6.9149,6.9149,0,0,1-1.415-.4263V73.9793a9.3419,9.3419,0,0,0,1.6831.5889,6.8149,6.8149,0,0,0,1.648.2373q1.4589,0,1.4589-.8438a.7041.7041,0,0,0-.1933-.5141,2.8019,2.8019,0,0,0-.668-.4483q-.4746-.2505-1.2656-.5845a7.9432,7.9432,0,0,1-1.6655-.8789,2.4747,2.4747,0,0,1-.7735-.9272,3.0611,3.0611,0,0,1-.2417-1.2876,2.3341,2.3341,0,0,1,1.0152-2.0259,4.9449,4.9449,0,0,1,2.8784-.7163,8.1708,8.1708,0,0,1,3.4541.7734l-.8086,1.9336q-.7383-.3163-1.38-.5185a4.3322,4.3322,0,0,0-1.31-.2022q-1.1865,0-1.1865.6416a.7543.7543,0,0,0,.3823.6241,10.4066,10.4066,0,0,0,1.6743.7822,7.7767,7.7767,0,0,1,1.6875.87,2.5739,2.5739,0,0,1,.7911.9316A2.8634,2.8634,0,0,1,411.394,73.6717Z"/><path class="cls-2" d="M426.2388,76.59l-.9317-3.0586h-4.6845l-.9317,3.0586h-2.9355l4.5351-12.9023h3.3311L429.1743,76.59Zm-1.5821-5.3437q-1.292-4.1573-1.4546-4.7022t-.2329-.8613q-.29,1.125-1.6611,5.5635Z"/><path class="cls-2" d="M439.3784,76.59h-2.6806V70.85a2.8909,2.8909,0,0,0-.356-1.5952,1.252,1.252,0,0,0-1.1206-.5318,1.623,1.623,0,0,0-1.4941.7559,4.9571,4.9571,0,0,0-.4659,2.4873V76.59h-2.6806V66.7635h2.0478l.36,1.2568h.1494a2.7235,2.7235,0,0,1,1.1426-1.0591,3.7093,3.7093,0,0,1,1.7138-.3823,3.0872,3.0872,0,0,1,2.9883,1.4414h.2373a2.6555,2.6555,0,0,1,1.1646-1.0635,3.8844,3.8844,0,0,1,1.7358-.3779,3.4264,3.4264,0,0,1,2.5269.8569,3.7631,3.7631,0,0,1,.8569,2.7466V76.59h-2.6895V70.85a2.891,2.891,0,0,0-.3559-1.5952,1.2521,1.2521,0,0,0-1.1206-.5318,1.6718,1.6718,0,0,0-1.4722.7032,3.9892,3.9892,0,0,0-.4878,2.2324Z"/><path class="cls-2" d="M453.7222,66.5789a3.1784,3.1784,0,0,1,2.7246,1.3579,6.2311,6.2311,0,0,1,.9844,3.7222,6.121,6.121,0,0,1-1.0152,3.77,3.5448,3.5448,0,0,1-5.48.0791h-.1845l-.4483,1.081h-2.0478V62.9139h2.6806v3.1816q0,.6064-.1054,1.9424h.1054A3.1011,3.1011,0,0,1,453.7222,66.5789Zm-.8614,2.1445a1.6925,1.6925,0,0,0-1.45.6109,3.5085,3.5085,0,0,0-.4746,2.0171v.29a4.1407,4.1407,0,0,0,.47,2.2676,1.6784,1.6784,0,0,0,1.49.6855,1.4949,1.4949,0,0,0,1.314-.76,4.1154,4.1154,0,0,0,.4878-2.21,3.8988,3.8988,0,0,0-.4922-2.1753A1.5433,1.5433,0,0,0,452.8608,68.7234Z"/><path class="cls-2" d="M459.5317,64.2234q0-1.3095,1.459-1.3095t1.459,1.31a1.2769,1.2769,0,0,1-.3647.9712,1.533,1.533,0,0,1-1.0943.3472Q459.5318,65.5418,459.5317,64.2234Zm2.795,12.3662H459.646V66.7635h2.6807Z"/><path class="cls-2" d="M469.5864,76.7654a5.0721,5.0721,0,0,1-3.709-1.3095,4.9587,4.9587,0,0,1-1.3359-3.709,5.4535,5.4535,0,0,1,1.2349-3.8189,4.397,4.397,0,0,1,3.4145-1.3491,4.3282,4.3282,0,0,1,3.2432,1.1865,4.489,4.489,0,0,1,1.16,3.2783v1.3008h-6.3369a2.58,2.58,0,0,0,.6768,1.7842,2.3814,2.3814,0,0,0,1.7754.6416,7.3675,7.3675,0,0,0,1.6787-.1846,8.3985,8.3985,0,0,0,1.6523-.5888v2.0742a6.29,6.29,0,0,1-1.5029.5229A9.473,9.473,0,0,1,469.5864,76.7654Zm-.3779-8.2793a1.7,1.7,0,0,0-1.3359.5406,2.5013,2.5013,0,0,0-.5538,1.5336h3.7618a2.2346,2.2346,0,0,0-.5186-1.5336A1.7555,1.7555,0,0,0,469.2085,68.4861Z"/><path class="cls-2" d="M484.8442,76.59h-2.6806V70.85a2.7562,2.7562,0,0,0-.378-1.5952,1.3749,1.3749,0,0,0-1.2041-.5318,1.81,1.81,0,0,0-1.6259.7515,4.66,4.66,0,0,0-.501,2.4917V76.59h-2.6807V66.7635h2.0479l.36,1.2568h.1494a2.8338,2.8338,0,0,1,1.2349-1.0767,4.2059,4.2059,0,0,1,1.7886-.3647,3.4364,3.4364,0,0,1,2.6015.9272,3.7211,3.7211,0,0,1,.8877,2.6763Z"/><path class="cls-2" d="M491.7437,74.63a5.8141,5.8141,0,0,0,1.6875-.3076v1.9951a6.0175,6.0175,0,0,1-2.461.4482,3.012,3.012,0,0,1-2.3423-.813,3.5388,3.5388,0,0,1-.7339-2.4389V68.7762h-1.2832V67.6424l1.4766-.8965.7734-2.0742h1.7139v2.0918h2.751v2.0127h-2.751v4.7373a1.0463,1.0463,0,0,0,.3208.8437A1.2656,1.2656,0,0,0,491.7437,74.63Z"/><path class="cls-2" d="M501.6577,76.59l-.5185-1.3359h-.07a3.9579,3.9579,0,0,1-1.393,1.1821,4.501,4.501,0,0,1-1.8677.33,3.02,3.02,0,0,1-2.228-.8086,3.105,3.105,0,0,1-.813-2.3027,2.5928,2.5928,0,0,1,1.0942-2.3071,6.3394,6.3394,0,0,1,3.3-.8218l1.7051-.0527v-.4307a1.3364,1.3364,0,0,0-1.5293-1.4941,6.9693,6.9693,0,0,0-2.7686.7119l-.8876-1.8106a7.9879,7.9879,0,0,1,3.7617-.8877,4.6853,4.6853,0,0,1,3.0322.8614,3.1831,3.1831,0,0,1,1.0547,2.6191V76.59Zm-.791-4.5527-1.0371.0352a3.3208,3.3208,0,0,0-1.74.4218,1.3251,1.3251,0,0,0-.5713,1.1778q0,1.1337,1.3007,1.1338a2.06,2.06,0,0,0,1.49-.5362,1.8829,1.8829,0,0,0,.5581-1.4238Z"/><path class="cls-2" d="M506.1753,64.2234q0-1.3095,1.459-1.3095t1.459,1.31a1.2766,1.2766,0,0,1-.3648.9712,1.5327,1.5327,0,0,1-1.0942.3472Q506.1753,65.5418,506.1753,64.2234ZM508.97,76.59H506.29V66.7635H508.97Z"/><path class="cls-2" d="M518.6382,73.6717a2.7052,2.7052,0,0,1-1.05,2.3027,5.1893,5.1893,0,0,1-3.1421.791,9.8673,9.8673,0,0,1-1.8281-.145,6.9177,6.9177,0,0,1-1.4151-.4263V73.9793a9.3446,9.3446,0,0,0,1.6831.5889,6.8163,6.8163,0,0,0,1.648.2373q1.4589,0,1.459-.8438a.7041.7041,0,0,0-.1934-.5141,2.8,2.8,0,0,0-.668-.4483q-.4746-.2505-1.2656-.5845a7.9484,7.9484,0,0,1-1.6655-.8789,2.4734,2.4734,0,0,1-.7734-.9272,3.06,3.06,0,0,1-.2417-1.2876A2.334,2.334,0,0,1,512.2,67.2952a4.9452,4.9452,0,0,1,2.8784-.7163,8.17,8.17,0,0,1,3.4541.7734l-.8086,1.9336q-.7383-.3163-1.38-.5185a4.3315,4.3315,0,0,0-1.3095-.2022q-1.1865,0-1.1866.6416a.7544.7544,0,0,0,.3824.6241,10.4066,10.4066,0,0,0,1.6743.7822,7.7767,7.7767,0,0,1,1.6875.87,2.5736,2.5736,0,0,1,.791.9316A2.8634,2.8634,0,0,1,518.6382,73.6717Z"/><path class="cls-2" d="M357.13,93.2591a13.62,13.62,0,0,1,.6811-4.3594,10.838,10.838,0,0,1,1.9644-3.56h2.1972a12.6564,12.6564,0,0,0-1.872,3.7266,13.9481,13.9481,0,0,0-.6328,4.1748,13.5055,13.5055,0,0,0,.646,4.1616,12.6,12.6,0,0,0,1.8413,3.6343h-2.18a10.3586,10.3586,0,0,1-1.9688-3.4893A13.2679,13.2679,0,0,1,357.13,93.2591Z"/><path class="cls-2" d="M373.0034,89.3479a3.9272,3.9272,0,0,1-1.2964,3.1729,5.5443,5.5443,0,0,1-3.687,1.0986h-1.1689v4.57h-2.7246V85.34h4.1045a5.4591,5.4591,0,0,1,3.5551,1.0064A3.6691,3.6691,0,0,1,373.0034,89.3479Zm-6.1523,2.0391h.8965a2.9852,2.9852,0,0,0,1.8808-.4966,1.7379,1.7379,0,0,0,.624-1.4458,1.7822,1.7822,0,0,0-.5229-1.415,2.45,2.45,0,0,0-1.6392-.457h-1.2392Z"/><path class="cls-2" d="M384.3062,89.3479a3.9275,3.9275,0,0,1-1.2964,3.1729,5.5447,5.5447,0,0,1-3.687,1.0986h-1.169v4.57h-2.7246V85.34h4.1045a5.46,5.46,0,0,1,3.5552,1.0064A3.6694,3.6694,0,0,1,384.3062,89.3479Zm-6.1524,2.0391h.8965a2.9856,2.9856,0,0,0,1.8809-.4966,1.7379,1.7379,0,0,0,.624-1.4458,1.7819,1.7819,0,0,0-.523-1.415,2.45,2.45,0,0,0-1.6391-.457h-1.2393Z"/><path class="cls-2" d="M389.4565,93.2591V98.19h-2.7246V85.34h3.7442a6.4085,6.4085,0,0,1,3.876.9536,3.8022,3.8022,0,0,1,.6328,4.9131,4.13,4.13,0,0,1-1.7666,1.3843q2.9,4.3331,3.7793,5.5986h-3.0235l-3.0674-4.9306Zm0-2.2149h.8789a3.3628,3.3628,0,0,0,1.9073-.4306,1.5373,1.5373,0,0,0,.6152-1.3535,1.4061,1.4061,0,0,0-.6284-1.3008,3.8138,3.8138,0,0,0-1.9468-.3867h-.8262Z"/><path class="cls-2" d="M406.481,98.19l-.9317-3.0586h-4.6846l-.9316,3.0586h-2.9355l4.5351-12.9023h3.3311L409.4165,98.19Zm-1.5821-5.3437q-1.292-4.1573-1.4546-4.7022t-.2329-.8613q-.29,1.125-1.6611,5.5635Z"/><path class="cls-2" d="M414.7954,93.2591a13.2446,13.2446,0,0,1-.6811,4.3066,10.3013,10.3013,0,0,1-1.9644,3.4717h-2.18a12.6887,12.6887,0,0,0,1.8369-3.6255,13.4511,13.4511,0,0,0,.65-4.17,13.9481,13.9481,0,0,0-.6328-4.1748,12.6567,12.6567,0,0,0-1.8721-3.7266H412.15a10.7827,10.7827,0,0,1,1.9688,3.5728A13.6859,13.6859,0,0,1,414.7954,93.2591Z"/><polygon class="cls-3" points="264.375 139.5 0 139.5 60 69.75 0 0 264.375 0 324.375 69.75 264.375 139.5"/><path class="cls-2" d="M262.769,136H8.4712L64.9585,69.75,8.4712,3.5H262.769l56.9893,66.25ZM10.8911,135H262.31L318.439,69.75,262.31,4.5H10.8911L66.3755,69.75Z"/><path class="cls-2" d="M93.1465,33.39l-.5186-1.3359h-.07a3.9588,3.9588,0,0,1-1.393,1.1821,4.501,4.501,0,0,1-1.8677.33,3.02,3.02,0,0,1-2.2281-.8086,3.1054,3.1054,0,0,1-.8129-2.3027A2.5928,2.5928,0,0,1,87.35,28.1473a6.3394,6.3394,0,0,1,3.3-.8218l1.7051-.0528v-.4306a1.3365,1.3365,0,0,0-1.5293-1.4942,6.968,6.968,0,0,0-2.7686.712L87.17,24.2493a7.9884,7.9884,0,0,1,3.7617-.8877,4.6862,4.6862,0,0,1,3.0323.8613,3.1835,3.1835,0,0,1,1.0547,2.6192V33.39Zm-.791-4.5527-1.0371.0352a3.3214,3.3214,0,0,0-1.74.4218,1.3252,1.3252,0,0,0-.5713,1.1778q0,1.1337,1.3008,1.1338a2.06,2.06,0,0,0,1.49-.5362,1.8833,1.8833,0,0,0,.5581-1.4238Z"/><path class="cls-2" d="M101.751,28.4593a13.2446,13.2446,0,0,1-.6812,4.3066,10.3028,10.3028,0,0,1-1.9643,3.4717h-2.18a12.6887,12.6887,0,0,0,1.8369-3.6255,13.4511,13.4511,0,0,0,.65-4.17,13.9513,13.9513,0,0,0-.6328-4.1748A12.6567,12.6567,0,0,0,96.9082,20.54h2.1973a10.7825,10.7825,0,0,1,1.9687,3.5728A13.6832,13.6832,0,0,1,101.751,28.4593Z"/><path class="cls-2" d="M117.6416,24.5481a3.9272,3.9272,0,0,1-1.2964,3.1729,5.5443,5.5443,0,0,1-3.687,1.0986h-1.1689v4.57h-2.7247V20.54h4.1045a5.4594,5.4594,0,0,1,3.5552,1.0064A3.6694,3.6694,0,0,1,117.6416,24.5481Zm-6.1523,2.0391h.8964a2.9854,2.9854,0,0,0,1.8809-.4966,1.7379,1.7379,0,0,0,.624-1.4458,1.782,1.782,0,0,0-.5229-1.415,2.45,2.45,0,0,0-1.6392-.4571h-1.2392Z"/><path class="cls-2" d="M125.3408,23.3792a4.3253,4.3253,0,0,1,.9053.0791l-.2022,2.5137a3.07,3.07,0,0,0-.791-.0879,2.8427,2.8427,0,0,0-1.9995.6592,2.3828,2.3828,0,0,0-.7163,1.8457V33.39h-2.6807V23.5638h2.03l.3955,1.6523h.1319a3.6938,3.6938,0,0,1,1.2348-1.3315A3.0451,3.0451,0,0,1,125.3408,23.3792Z"/><path class="cls-2" d="M136.96,28.4593a5.28,5.28,0,0,1-1.2657,3.7529,4.589,4.589,0,0,1-3.5244,1.3535,4.93,4.93,0,0,1-2.4961-.62,4.1233,4.1233,0,0,1-1.6611-1.78,5.9807,5.9807,0,0,1-.58-2.707,5.2515,5.2515,0,0,1,1.2569-3.7442,4.6154,4.6154,0,0,1,3.5332-1.3359,4.9591,4.9591,0,0,1,2.4961.6152A4.1069,4.1069,0,0,1,136.38,25.761,5.9256,5.9256,0,0,1,136.96,28.4593Zm-6.794,0a4.1243,4.1243,0,0,0,.479,2.206,1.7131,1.7131,0,0,0,1.56.7471,1.686,1.686,0,0,0,1.5425-.7427,4.184,4.184,0,0,0,.47-2.21,4.0587,4.0587,0,0,0-.4746-2.1885,2.0181,2.0181,0,0,0-3.1026-.0044A4.0554,4.0554,0,0,0,130.166,28.4593Z"/><path class="cls-2" d="M147.7266,23.5638v1.3623l-1.5381.3955a2.6814,2.6814,0,0,1,.4219,1.4765,2.9811,2.9811,0,0,1-1.1031,2.4654,4.7777,4.7777,0,0,1-3.063.8833l-.4834-.0264-.3955-.0439a.8913.8913,0,0,0-.4131.7031q0,.58,1.4766.58h1.67a3.81,3.81,0,0,1,2.4654.6943,2.482,2.482,0,0,1,.8481,2.0391,3.0238,3.0238,0,0,1-1.437,2.6718,7.484,7.484,0,0,1-4.1265.9493,5.7124,5.7124,0,0,1-3.1421-.7164,2.2743,2.2743,0,0,1-1.0854-2.0083,2.1024,2.1024,0,0,1,.5537-1.4853,3.1439,3.1439,0,0,1,1.626-.8525,1.7944,1.7944,0,0,1-.7207-.5757,1.4148,1.4148,0,0,1,.0176-1.7842,3.7567,3.7567,0,0,1,.94-.7339,2.6381,2.6381,0,0,1-1.2261-1.0723,3.2624,3.2624,0,0,1-.4526-1.74,3.0687,3.0687,0,0,1,1.0459-2.4873,4.5225,4.5225,0,0,1,2.9883-.8789,7.6487,7.6487,0,0,1,.98.0747q.567.0747.7251.11Zm-7.585,11.2148a.9714.9714,0,0,0,.5317.87,2.9253,2.9253,0,0,0,1.49.3164,5.2766,5.2766,0,0,0,2.2588-.3955,1.2054,1.2054,0,0,0,.8174-1.081.7653.7653,0,0,0-.4834-.7647,3.96,3.96,0,0,0-1.4942-.2109H141.873a2.1024,2.1024,0,0,0-1.2348.3472A1.07,1.07,0,0,0,140.1416,34.7786Zm.9756-7.998a2.0011,2.0011,0,0,0,.3647,1.2656,1.3251,1.3251,0,0,0,1.1119.4658,1.2977,1.2977,0,0,0,1.1074-.4658,2.0547,2.0547,0,0,0,.3515-1.2656q0-1.7754-1.4589-1.7754Q141.1172,25.0052,141.1172,26.7806Z"/><path class="cls-2" d="M154.8281,23.3792a4.3253,4.3253,0,0,1,.9053.0791l-.2022,2.5137a3.07,3.07,0,0,0-.791-.0879,2.8427,2.8427,0,0,0-1.9995.6592,2.3828,2.3828,0,0,0-.7163,1.8457V33.39h-2.6806V23.5638h2.03l.3955,1.6523h.1319a3.6938,3.6938,0,0,1,1.2348-1.3315A3.0453,3.0453,0,0,1,154.8281,23.3792Z"/><path class="cls-2" d="M163.7578,33.39l-.5185-1.3359h-.07a3.9579,3.9579,0,0,1-1.393,1.1821,4.501,4.501,0,0,1-1.8677.33,3.02,3.02,0,0,1-2.228-.8086,3.105,3.105,0,0,1-.813-2.3027,2.5928,2.5928,0,0,1,1.0942-2.3071,6.3394,6.3394,0,0,1,3.3-.8218l1.7051-.0528v-.4306a1.3365,1.3365,0,0,0-1.5293-1.4942,6.968,6.968,0,0,0-2.7686.712l-.8877-1.8106a7.9886,7.9886,0,0,1,3.7618-.8877,4.6859,4.6859,0,0,1,3.0322.8613,3.1835,3.1835,0,0,1,1.0547,2.6192V33.39Zm-.791-4.5527-1.0371.0352a3.3208,3.3208,0,0,0-1.74.4218,1.325,1.325,0,0,0-.5713,1.1778q0,1.1337,1.3007,1.1338a2.06,2.06,0,0,0,1.49-.5362,1.8829,1.8829,0,0,0,.5581-1.4238Z"/><path class="cls-2" d="M177.1875,33.39h-2.6807V27.6507a2.891,2.891,0,0,0-.3559-1.5952,1.2521,1.2521,0,0,0-1.1206-.5318,1.6232,1.6232,0,0,0-1.4942.7559,4.9584,4.9584,0,0,0-.4658,2.4873V33.39H168.39V23.5638h2.0479l.36,1.2568h.1494a2.7232,2.7232,0,0,1,1.1425-1.0591,3.71,3.71,0,0,1,1.7139-.3823,3.0872,3.0872,0,0,1,2.9883,1.4414h.2373a2.6557,2.6557,0,0,1,1.1645-1.0635,3.8849,3.8849,0,0,1,1.7359-.3779,3.426,3.426,0,0,1,2.5268.8569,3.7629,3.7629,0,0,1,.857,2.7466V33.39h-2.69V27.6507a2.891,2.891,0,0,0-.3559-1.5952,1.2521,1.2521,0,0,0-1.1206-.5318,1.6719,1.6719,0,0,0-1.4722.7031,3.99,3.99,0,0,0-.4878,2.2325Z"/><path class="cls-2" d="M192.3047,33.39l-.5186-1.3359h-.07a3.9588,3.9588,0,0,1-1.393,1.1821,4.501,4.501,0,0,1-1.8677.33,3.02,3.02,0,0,1-2.228-.8086,3.105,3.105,0,0,1-.813-2.3027,2.5928,2.5928,0,0,1,1.0942-2.3071,6.3394,6.3394,0,0,1,3.3-.8218l1.7051-.0528v-.4306a1.3365,1.3365,0,0,0-1.5293-1.4942,6.968,6.968,0,0,0-2.7686.712l-.8877-1.8106a7.9884,7.9884,0,0,1,3.7617-.8877,4.6862,4.6862,0,0,1,3.0323.8613,3.1835,3.1835,0,0,1,1.0547,2.6192V33.39Zm-.791-4.5527-1.0371.0352a3.3214,3.3214,0,0,0-1.74.4218,1.3252,1.3252,0,0,0-.5713,1.1778q0,1.1337,1.3008,1.1338a2.06,2.06,0,0,0,1.49-.5362,1.8833,1.8833,0,0,0,.5581-1.4238Z"/><path class="cls-2" d="M204.7236,33.5657a3.1915,3.1915,0,0,1-2.72-1.3447,6.182,6.182,0,0,1-.9888-3.7266,6.188,6.188,0,0,1,1.0064-3.7661,3.2685,3.2685,0,0,1,2.7729-1.3491,3.2056,3.2056,0,0,1,2.83,1.4414h.0879a10.9549,10.9549,0,0,1-.2021-1.96V19.7142h2.6894V33.39h-2.0566l-.5186-1.2744H207.51A3.0676,3.0676,0,0,1,204.7236,33.5657Zm.94-2.1357a1.8163,1.8163,0,0,0,1.5073-.5977,3.4769,3.4769,0,0,0,.5229-2.03v-.29a4.018,4.018,0,0,0-.4878-2.2676,1.8118,1.8118,0,0,0-1.5864-.6855,1.5734,1.5734,0,0,0-1.393.76,4.056,4.056,0,0,0-.4966,2.21,3.8447,3.8447,0,0,0,.5009,2.1753A1.6369,1.6369,0,0,0,205.6641,31.43Z"/><path class="cls-2" d="M217.45,33.5657a5.0715,5.0715,0,0,1-3.709-1.31,4.9583,4.9583,0,0,1-1.3359-3.7089,5.4539,5.4539,0,0,1,1.2348-3.8189,4.3973,4.3973,0,0,1,3.4146-1.3491,4.3282,4.3282,0,0,1,3.2432,1.1865,4.489,4.489,0,0,1,1.16,3.2783v1.3008h-6.3369a2.58,2.58,0,0,0,.6768,1.7842,2.381,2.381,0,0,0,1.7753.6416,7.3684,7.3684,0,0,0,1.6788-.1846,8.3985,8.3985,0,0,0,1.6523-.5888v2.0742a6.2913,6.2913,0,0,1-1.5029.5229A9.473,9.473,0,0,1,217.45,33.5657Zm-.3779-8.2793a1.7006,1.7006,0,0,0-1.336.54,2.5024,2.5024,0,0,0-.5537,1.5337h3.7617a2.2345,2.2345,0,0,0-.5185-1.5337A1.756,1.756,0,0,0,217.0723,25.2864Z"/><path class="cls-2" d="M92.5752,44.2229a2.7762,2.7762,0,0,0-2.3818,1.1558A5.3769,5.3769,0,0,0,89.35,48.6q0,4.2978,3.2256,4.2978a10.1955,10.1955,0,0,0,3.2783-.6767v2.2851a9.1033,9.1033,0,0,1-3.5332.6592,5.3888,5.3888,0,0,1-4.2891-1.7007,7.201,7.201,0,0,1-1.4853-4.8823,7.973,7.973,0,0,1,.73-3.5112A5.2715,5.2715,0,0,1,89.3716,42.76a6.2,6.2,0,0,1,3.2036-.8042,8.6467,8.6467,0,0,1,3.7617.9052l-.8789,2.2149a14.5534,14.5534,0,0,0-1.45-.5977A4.3268,4.3268,0,0,0,92.5752,44.2229Z"/><path class="cls-2" d="M107.3057,50.0589a5.28,5.28,0,0,1-1.2657,3.7529,4.5886,4.5886,0,0,1-3.5244,1.3535,4.93,4.93,0,0,1-2.4961-.62,4.1233,4.1233,0,0,1-1.6611-1.78,5.9807,5.9807,0,0,1-.58-2.707,5.2515,5.2515,0,0,1,1.2569-3.7442,4.6154,4.6154,0,0,1,3.5332-1.3359,4.9588,4.9588,0,0,1,2.4961.6152,4.1069,4.1069,0,0,1,1.6611,1.7666A5.9256,5.9256,0,0,1,107.3057,50.0589Zm-6.794,0a4.1243,4.1243,0,0,0,.479,2.206,1.7131,1.7131,0,0,0,1.56.7471,1.686,1.686,0,0,0,1.5425-.7427,4.184,4.184,0,0,0,.47-2.21,4.0587,4.0587,0,0,0-.4746-2.1885,2.0181,2.0181,0,0,0-3.1026-.0044A4.0554,4.0554,0,0,0,100.5117,50.0589Z"/><path class="cls-2" d="M118.5908,54.99H115.91V49.25a2.7562,2.7562,0,0,0-.378-1.5952,1.3749,1.3749,0,0,0-1.2041-.5318,1.81,1.81,0,0,0-1.626.7515,4.6614,4.6614,0,0,0-.5009,2.4917V54.99h-2.6807V45.1634h2.0479l.36,1.2568h.1494a2.8338,2.8338,0,0,1,1.2349-1.0767,4.2059,4.2059,0,0,1,1.7886-.3647,3.4365,3.4365,0,0,1,2.6015.9272,3.7211,3.7211,0,0,1,.8877,2.6763Z"/><path class="cls-2" d="M125.49,53.03a5.8129,5.8129,0,0,0,1.6875-.3076v1.9951a6.0167,6.0167,0,0,1-2.4609.4482,3.012,3.012,0,0,1-2.3423-.813,3.5388,3.5388,0,0,1-.7339-2.4389V47.1761h-1.2832V46.0423l1.4766-.8965.7734-2.0742h1.7139v2.0918h2.751v2.0127h-2.751v4.7373a1.0463,1.0463,0,0,0,.3208.8437A1.2655,1.2655,0,0,0,125.49,53.03Z"/><path class="cls-2" d="M134.6484,44.9788a4.3253,4.3253,0,0,1,.9053.0791l-.2021,2.5137a3.071,3.071,0,0,0-.7911-.0879,2.8427,2.8427,0,0,0-1.9995.6592,2.3829,2.3829,0,0,0-.7163,1.8457V54.99h-2.6806V45.1634h2.03l.3955,1.6523h.1319a3.6938,3.6938,0,0,1,1.2348-1.3315A3.0453,3.0453,0,0,1,134.6484,44.9788Z"/><path class="cls-2" d="M146.2676,50.0589a5.28,5.28,0,0,1-1.2656,3.7529,4.589,4.589,0,0,1-3.5245,1.3535,4.93,4.93,0,0,1-2.4961-.62,4.1233,4.1233,0,0,1-1.6611-1.78,5.9807,5.9807,0,0,1-.58-2.707,5.2515,5.2515,0,0,1,1.2569-3.7442,4.6156,4.6156,0,0,1,3.5332-1.3359,4.9588,4.9588,0,0,1,2.4961.6152,4.1069,4.1069,0,0,1,1.6611,1.7666A5.9256,5.9256,0,0,1,146.2676,50.0589Zm-6.794,0a4.1243,4.1243,0,0,0,.479,2.206,1.7131,1.7131,0,0,0,1.56.7471,1.686,1.686,0,0,0,1.5425-.7427,4.183,4.183,0,0,0,.47-2.21,4.0587,4.0587,0,0,0-.4746-2.1885,2.0181,2.0181,0,0,0-3.1026-.0044A4.0554,4.0554,0,0,0,139.4736,50.0589Z"/><path class="cls-2" d="M151.1631,54.99h-2.6807V41.3138h2.6807Z"/><path class="cls-2" d="M158.4229,55.1653a5.0717,5.0717,0,0,1-3.709-1.3095,4.9584,4.9584,0,0,1-1.336-3.709,5.454,5.454,0,0,1,1.2349-3.8189,4.397,4.397,0,0,1,3.4145-1.3491,4.328,4.328,0,0,1,3.2432,1.1865,4.489,4.489,0,0,1,1.16,3.2783v1.3008h-6.3369a2.58,2.58,0,0,0,.6767,1.7842,2.3814,2.3814,0,0,0,1.7754.6416,7.3669,7.3669,0,0,0,1.6787-.1846,8.3993,8.3993,0,0,0,1.6524-.5888V54.471a6.2921,6.2921,0,0,1-1.503.5229A9.4727,9.4727,0,0,1,158.4229,55.1653Zm-.378-8.2793a1.7,1.7,0,0,0-1.3359.5406,2.5006,2.5006,0,0,0-.5537,1.5336h3.7617a2.2341,2.2341,0,0,0-.5186-1.5336A1.7554,1.7554,0,0,0,158.0449,46.886Z"/><path class="cls-2" d="M174.9375,54.99l-3.0937-10.081h-.0792q.1671,3.0762.167,4.1045V54.99h-2.4345V42.14h3.709l3.041,9.8262H176.3l3.2256-9.8262h3.709V54.99h-2.54v-6.082q0-.4306.0132-.9932t.1187-2.9882h-.0791L177.4336,54.99Z"/><path class="cls-2" d="M190.7051,55.1653a5.0717,5.0717,0,0,1-3.709-1.3095,4.9587,4.9587,0,0,1-1.3359-3.709,5.4539,5.4539,0,0,1,1.2348-3.8189,4.3972,4.3972,0,0,1,3.4146-1.3491,4.3279,4.3279,0,0,1,3.2431,1.1865,4.4886,4.4886,0,0,1,1.16,3.2783v1.3008H188.376a2.5806,2.5806,0,0,0,.6767,1.7842,2.3814,2.3814,0,0,0,1.7754.6416,7.3669,7.3669,0,0,0,1.6787-.1846,8.397,8.397,0,0,0,1.6524-.5888V54.471a6.2906,6.2906,0,0,1-1.503.5229A9.472,9.472,0,0,1,190.7051,55.1653Zm-.378-8.2793a1.7,1.7,0,0,0-1.3359.5406,2.5012,2.5012,0,0,0-.5537,1.5336h3.7617a2.2345,2.2345,0,0,0-.5185-1.5336A1.7558,1.7558,0,0,0,190.3271,46.886ZM188.78,44.0823V43.845A24.7421,24.7421,0,0,0,190.8457,41.2h3.0059v.1846q-.4571.4571-1.56,1.3579t-1.727,1.34Z"/><path class="cls-2" d="M200.0039,55.1653a3.1915,3.1915,0,0,1-2.72-1.3447,6.182,6.182,0,0,1-.9888-3.7266,6.188,6.188,0,0,1,1.0064-3.7661,3.2685,3.2685,0,0,1,2.7729-1.3491,3.2057,3.2057,0,0,1,2.83,1.4414h.0879a10.9558,10.9558,0,0,1-.2022-1.96V41.3138h2.69V54.99h-2.0566l-.5186-1.2744H202.79A3.0674,3.0674,0,0,1,200.0039,55.1653Zm.94-2.1357a1.8165,1.8165,0,0,0,1.5074-.5977,3.4768,3.4768,0,0,0,.5229-2.03v-.29a4.018,4.018,0,0,0-.4878-2.2676,1.8118,1.8118,0,0,0-1.5864-.6855,1.5736,1.5736,0,0,0-1.3931.76,4.0569,4.0569,0,0,0-.4966,2.21,3.8438,3.8438,0,0,0,.501,2.1753A1.6367,1.6367,0,0,0,200.9443,53.03Z"/><path class="cls-2" d="M208.1689,42.6233q0-1.3095,1.459-1.3095t1.459,1.31a1.2769,1.2769,0,0,1-.3647.9712,1.533,1.533,0,0,1-1.0943.3472Q208.169,43.9417,208.1689,42.6233Zm2.795,12.3662h-2.6807V45.1634h2.6807Z"/><path class="cls-2" d="M217.7666,55.1653q-4.5879,0-4.5879-5.0361a5.3715,5.3715,0,0,1,1.2481-3.8276,4.6815,4.6815,0,0,1,3.5771-1.3228,6.82,6.82,0,0,1,3.0586.668l-.791,2.0742q-.6328-.2548-1.1777-.4175a3.7951,3.7951,0,0,0-1.09-.1626q-2.0917,0-2.0918,2.9707,0,2.8828,2.0918,2.8828a4.769,4.769,0,0,0,1.4326-.2065,5.172,5.172,0,0,0,1.3184-.646v2.2939a4.3186,4.3186,0,0,1-1.314.5713A7.3875,7.3875,0,0,1,217.7666,55.1653Z"/><path class="cls-2" d="M231.9609,50.0589a5.28,5.28,0,0,1-1.2656,3.7529,4.5886,4.5886,0,0,1-3.5244,1.3535,4.93,4.93,0,0,1-2.4961-.62,4.1233,4.1233,0,0,1-1.6611-1.78,5.9807,5.9807,0,0,1-.58-2.707,5.2514,5.2514,0,0,1,1.2568-3.7442,4.6157,4.6157,0,0,1,3.5332-1.3359,4.9586,4.9586,0,0,1,2.4961.6152,4.1077,4.1077,0,0,1,1.6612,1.7666A5.9256,5.9256,0,0,1,231.9609,50.0589Zm-6.7939,0a4.1243,4.1243,0,0,0,.479,2.206,1.713,1.713,0,0,0,1.56.7471,1.6857,1.6857,0,0,0,1.5424-.7427,4.1829,4.1829,0,0,0,.47-2.21,4.0586,4.0586,0,0,0-.4747-2.1885,2.018,2.018,0,0,0-3.1025-.0044A4.0554,4.0554,0,0,0,225.167,50.0589Z"/><path class="cls-2" d="M91.3535,76.7654a5.0721,5.0721,0,0,1-3.709-1.3095,4.9587,4.9587,0,0,1-1.3359-3.709,5.4535,5.4535,0,0,1,1.2349-3.8189,4.397,4.397,0,0,1,3.4145-1.3491,4.3282,4.3282,0,0,1,3.2432,1.1865,4.489,4.489,0,0,1,1.16,3.2783v1.3008H89.0244a2.58,2.58,0,0,0,.6768,1.7842,2.3811,2.3811,0,0,0,1.7754.6416,7.3675,7.3675,0,0,0,1.6787-.1846,8.3985,8.3985,0,0,0,1.6523-.5888v2.0742a6.29,6.29,0,0,1-1.5029.5229A9.473,9.473,0,0,1,91.3535,76.7654Zm-.3779-8.2793a1.7,1.7,0,0,0-1.336.5406,2.5018,2.5018,0,0,0-.5537,1.5336h3.7618a2.2346,2.2346,0,0,0-.5186-1.5336A1.7557,1.7557,0,0,0,90.9756,68.4861Z"/><path class="cls-2" d="M106.3389,76.59h-2.6807V70.85a2.89,2.89,0,0,0-.356-1.5952,1.252,1.252,0,0,0-1.1206-.5318,1.6231,1.6231,0,0,0-1.4941.7559,4.9584,4.9584,0,0,0-.4658,2.4873V76.59H97.541V66.7635h2.0479l.36,1.2568h.1494a2.7241,2.7241,0,0,1,1.1426-1.0591,3.71,3.71,0,0,1,1.7139-.3823,3.0872,3.0872,0,0,1,2.9883,1.4414h.2373a2.6547,2.6547,0,0,1,1.1645-1.0635,3.8846,3.8846,0,0,1,1.7359-.3779,3.4263,3.4263,0,0,1,2.5268.8569,3.7631,3.7631,0,0,1,.8569,2.7466V76.59h-2.6894V70.85a2.8909,2.8909,0,0,0-.356-1.5952,1.252,1.252,0,0,0-1.1206-.5318,1.6717,1.6717,0,0,0-1.4721.7032,3.9892,3.9892,0,0,0-.4878,2.2324Z"/><path class="cls-2" d="M127.6875,73.0213a3.3219,3.3219,0,0,1-1.2524,2.7422,5.4411,5.4411,0,0,1-3.4849,1.0019,8.1847,8.1847,0,0,1-3.6387-.7734V73.4607a14.9856,14.9856,0,0,0,2.2017.8174,6.515,6.515,0,0,0,1.6479.2373,2.3431,2.3431,0,0,0,1.3755-.3427,1.1724,1.1724,0,0,0,.479-1.02,1.1254,1.1254,0,0,0-.2109-.6723,2.36,2.36,0,0,0-.62-.5669,15.9391,15.9391,0,0,0-1.6656-.87,7.8964,7.8964,0,0,1-1.7666-1.0634,3.9945,3.9945,0,0,1-.94-1.1866,3.3854,3.3854,0,0,1-.3516-1.582,3.3211,3.3211,0,0,1,1.1558-2.6807,4.8028,4.8028,0,0,1,3.1948-.9755,7.5439,7.5439,0,0,1,1.9116.2373,13.1381,13.1381,0,0,1,1.9029.6679l-.8789,2.1182a12.8828,12.8828,0,0,0-1.7007-.5889,5.4762,5.4762,0,0,0-1.3228-.167,1.7517,1.7517,0,0,0-1.1865.36,1.1886,1.1886,0,0,0-.4131.94,1.1639,1.1639,0,0,0,.167.6284,1.8347,1.8347,0,0,0,.5318.5186,16.43,16.43,0,0,0,1.727.9009,6.8717,6.8717,0,0,1,2.47,1.727A3.3709,3.3709,0,0,1,127.6875,73.0213Z"/><path class="cls-2" d="M136.0459,76.59l-.5186-1.3359h-.07a3.9579,3.9579,0,0,1-1.393,1.1821,4.501,4.501,0,0,1-1.8677.33,3.02,3.02,0,0,1-2.228-.8086,3.105,3.105,0,0,1-.813-2.3027A2.5928,2.5928,0,0,1,130.25,71.347a6.3394,6.3394,0,0,1,3.3-.8218l1.7051-.0527v-.4307a1.3364,1.3364,0,0,0-1.5293-1.4941,6.9693,6.9693,0,0,0-2.7686.7119l-.8877-1.8106a7.9886,7.9886,0,0,1,3.7618-.8877,4.6853,4.6853,0,0,1,3.0322.8614,3.1831,3.1831,0,0,1,1.0547,2.6191V76.59Zm-.791-4.5527-1.0371.0352a3.3214,3.3214,0,0,0-1.74.4218,1.3253,1.3253,0,0,0-.5713,1.1778q0,1.1337,1.3008,1.1338a2.06,2.06,0,0,0,1.49-.5362,1.8833,1.8833,0,0,0,.5581-1.4238Z"/><path class="cls-2" d="M147.6387,76.59l-.36-1.2568h-.1406a2.828,2.828,0,0,1-1.2217,1.0591,4.171,4.171,0,0,1-1.8017.3735,3.4313,3.4313,0,0,1-2.61-.9272,3.7311,3.7311,0,0,1-.8789-2.6675V66.7635h2.6807v5.7392a2.7561,2.7561,0,0,0,.3779,1.5952,1.3749,1.3749,0,0,0,1.2041.5318,1.81,1.81,0,0,0,1.626-.7515,4.66,4.66,0,0,0,.5009-2.4917v-4.623h2.6807V76.59Zm-3.99-10.9072v-.2373A24.76,24.76,0,0,0,145.7139,62.8H148.72v.1846q-.457.457-1.56,1.3579t-1.7271,1.34Z"/><path class="cls-2" d="M155.6191,76.7654a3.1915,3.1915,0,0,1-2.72-1.3447,6.182,6.182,0,0,1-.9887-3.7266,6.188,6.188,0,0,1,1.0063-3.7661,3.2686,3.2686,0,0,1,2.773-1.3491,3.2055,3.2055,0,0,1,2.83,1.4414h.0879a10.9641,10.9641,0,0,1-.2021-1.96V62.9139h2.6894V76.59h-2.0566l-.5186-1.2744h-.1142A3.0676,3.0676,0,0,1,155.6191,76.7654Zm.94-2.1357a1.8163,1.8163,0,0,0,1.5073-.5977,3.4768,3.4768,0,0,0,.5229-2.03v-.29a4.0189,4.0189,0,0,0-.4877-2.2676,1.812,1.812,0,0,0-1.5865-.6855,1.5734,1.5734,0,0,0-1.393.76,4.056,4.056,0,0,0-.4966,2.21,3.8438,3.8438,0,0,0,.501,2.1753A1.6366,1.6366,0,0,0,156.56,74.63Z"/><path class="cls-2" d="M168.3457,76.7654a5.0719,5.0719,0,0,1-3.709-1.3095,4.9587,4.9587,0,0,1-1.3359-3.709,5.4539,5.4539,0,0,1,1.2348-3.8189,4.3973,4.3973,0,0,1,3.4146-1.3491,4.3282,4.3282,0,0,1,3.2432,1.1865,4.489,4.489,0,0,1,1.16,3.2783v1.3008h-6.3369a2.58,2.58,0,0,0,.6768,1.7842,2.3811,2.3811,0,0,0,1.7754.6416,7.3681,7.3681,0,0,0,1.6787-.1846,8.3985,8.3985,0,0,0,1.6523-.5888v2.0742a6.29,6.29,0,0,1-1.5029.5229A9.473,9.473,0,0,1,168.3457,76.7654Zm-.3779-8.2793a1.7,1.7,0,0,0-1.336.5406,2.5018,2.5018,0,0,0-.5537,1.5336H169.84a2.2341,2.2341,0,0,0-.5185-1.5336A1.7557,1.7557,0,0,0,167.9678,68.4861Z"/><path class="cls-2" d="M98.78,91.7474a6.9727,6.9727,0,0,1-1.5821,4.9043,6.8575,6.8575,0,0,1-9.07,0,7,7,0,0,1-1.582-4.9219,6.9046,6.9046,0,0,1,1.5864-4.9,5.9324,5.9324,0,0,1,4.5484-1.6919,5.8494,5.8494,0,0,1,4.5307,1.7051A6.99,6.99,0,0,1,98.78,91.7474Zm-9.378,0a5.3675,5.3675,0,0,0,.8174,3.2431,2.86,2.86,0,0,0,2.4434,1.09q3.2607,0,3.2607-4.333,0-4.3419-3.2431-4.3418A2.88,2.88,0,0,0,90.2285,88.5,5.3448,5.3448,0,0,0,89.4023,91.7474Z"/><path class="cls-2" d="M105.2227,98.3655q-4.5879,0-4.5879-5.0361a5.3719,5.3719,0,0,1,1.248-3.8276A4.6816,4.6816,0,0,1,105.46,88.179a6.82,6.82,0,0,1,3.0586.668l-.7911,2.0742q-.6327-.2549-1.1777-.4175a3.7949,3.7949,0,0,0-1.09-.1626q-2.0919,0-2.0918,2.9707,0,2.8828,2.0918,2.8828a4.7694,4.7694,0,0,0,1.4326-.2065,5.1714,5.1714,0,0,0,1.3183-.646V97.636a4.3206,4.3206,0,0,1-1.3139.5713A7.3875,7.3875,0,0,1,105.2227,98.3655Z"/><path class="cls-2" d="M117.4482,98.19l-.36-1.2568h-.1406a2.8286,2.8286,0,0,1-1.2217,1.0591,4.1715,4.1715,0,0,1-1.8018.3735,3.4311,3.4311,0,0,1-2.61-.9272,3.7307,3.7307,0,0,1-.8789-2.6675V88.3636h2.6806v5.7392a2.7562,2.7562,0,0,0,.378,1.5952,1.3749,1.3749,0,0,0,1.2041.5318,1.81,1.81,0,0,0,1.6259-.7515,4.66,4.66,0,0,0,.501-2.4917v-4.623h2.6807V98.19Z"/><path class="cls-2" d="M127.7139,98.3655a3.259,3.259,0,0,1-2.7159-1.2568h-.1406q.1407,1.23.1406,1.4238v3.9815h-2.6806v-14.15h2.18l.3779,1.2744h.123a3.1011,3.1011,0,0,1,2.7862-1.459,3.1887,3.1887,0,0,1,2.7246,1.3447,6.22,6.22,0,0,1,.9844,3.7354,7.3744,7.3744,0,0,1-.4615,2.7334,3.8345,3.8345,0,0,1-1.3139,1.7666A3.3673,3.3673,0,0,1,127.7139,98.3655Zm-.791-8.042a1.6922,1.6922,0,0,0-1.45.6109,3.5076,3.5076,0,0,0-.4747,2.0171v.29a4.14,4.14,0,0,0,.47,2.2676,1.6781,1.6781,0,0,0,1.49.6855q1.8018,0,1.8018-2.9707a4.2421,4.2421,0,0,0-.4439-2.1753A1.5148,1.5148,0,0,0,126.9229,90.3235Z"/><path class="cls-2" d="M139.9482,98.19l-.5185-1.3359h-.07a3.959,3.959,0,0,1-1.3931,1.1821,4.5007,4.5007,0,0,1-1.8677.33,3.02,3.02,0,0,1-2.228-.8086,3.105,3.105,0,0,1-.813-2.3027,2.5928,2.5928,0,0,1,1.0943-2.3071,6.3387,6.3387,0,0,1,3.3-.8218l1.7051-.0527v-.4307a1.3364,1.3364,0,0,0-1.5293-1.4942,6.9693,6.9693,0,0,0-2.7685.712l-.8877-1.8106a7.9879,7.9879,0,0,1,3.7617-.8877,4.6857,4.6857,0,0,1,3.0322.8613,3.1832,3.1832,0,0,1,1.0547,2.6192V98.19Zm-.791-4.5527-1.0371.0352a3.3208,3.3208,0,0,0-1.74.4218,1.325,1.325,0,0,0-.5713,1.1778q0,1.1337,1.3008,1.1338a2.06,2.06,0,0,0,1.49-.5362,1.8829,1.8829,0,0,0,.5581-1.4238Z"/><path class="cls-2" d="M148.57,98.3655q-4.5879,0-4.5879-5.0361a5.3715,5.3715,0,0,1,1.2481-3.8276,4.6815,4.6815,0,0,1,3.5771-1.3228,6.82,6.82,0,0,1,3.0586.668l-.791,2.0742q-.6328-.2549-1.1777-.4175a3.7951,3.7951,0,0,0-1.09-.1626q-2.0918,0-2.0918,2.9707,0,2.8828,2.0918,2.8828a4.769,4.769,0,0,0,1.4326-.2065,5.172,5.172,0,0,0,1.3184-.646V97.636a4.3211,4.3211,0,0,1-1.314.5713A7.3875,7.3875,0,0,1,148.57,98.3655Z"/><path class="cls-2" d="M153.7207,85.8235q0-1.3095,1.459-1.3095t1.459,1.31a1.2766,1.2766,0,0,1-.3648.9712,1.5327,1.5327,0,0,1-1.0942.3472Q153.7206,87.1419,153.7207,85.8235ZM156.5156,98.19H153.835V88.3636h2.6806Z"/><path class="cls-2" d="M168.2578,93.2591a5.28,5.28,0,0,1-1.2656,3.7529,4.5893,4.5893,0,0,1-3.5244,1.3535,4.93,4.93,0,0,1-2.4961-.62,4.1241,4.1241,0,0,1-1.6612-1.78,5.9807,5.9807,0,0,1-.58-2.707,5.2514,5.2514,0,0,1,1.2568-3.7442,4.6156,4.6156,0,0,1,3.5332-1.3359,4.9586,4.9586,0,0,1,2.4961.6152,4.1069,4.1069,0,0,1,1.6611,1.7666A5.9243,5.9243,0,0,1,168.2578,93.2591Zm-6.7939,0a4.1234,4.1234,0,0,0,.479,2.206,1.7128,1.7128,0,0,0,1.56.7471,1.6859,1.6859,0,0,0,1.5425-.7427,4.183,4.183,0,0,0,.47-2.21,4.0587,4.0587,0,0,0-.4746-2.1885,2.018,2.018,0,0,0-3.1025-.0044A4.0554,4.0554,0,0,0,161.4639,93.2591Z"/><path class="cls-2" d="M179.543,98.19h-2.6807V92.4505a2.7571,2.7571,0,0,0-.3779-1.5952,1.3751,1.3751,0,0,0-1.2041-.5318,1.81,1.81,0,0,0-1.626.7515,4.66,4.66,0,0,0-.501,2.4917V98.19h-2.6806V88.3636h2.0478l.36,1.2568h.1494a2.833,2.833,0,0,1,1.2348-1.0767,4.2062,4.2062,0,0,1,1.7886-.3647,3.4366,3.4366,0,0,1,2.6016.9272,3.7211,3.7211,0,0,1,.8877,2.6763Z"/><path class="cls-2" d="M188.543,98.19l-.5186-1.3359h-.07a3.9582,3.9582,0,0,1-1.3931,1.1821,4.5005,4.5005,0,0,1-1.8676.33,3.02,3.02,0,0,1-2.2281-.8086,3.105,3.105,0,0,1-.813-2.3027,2.5928,2.5928,0,0,1,1.0943-2.3071,6.3394,6.3394,0,0,1,3.3-.8218l1.7051-.0527v-.4307a1.3365,1.3365,0,0,0-1.5293-1.4942,6.9693,6.9693,0,0,0-2.7686.712l-.8877-1.8106a7.9884,7.9884,0,0,1,3.7617-.8877,4.6862,4.6862,0,0,1,3.0323.8613,3.1834,3.1834,0,0,1,1.0546,2.6192V98.19Zm-.791-4.5527-1.0372.0352a3.321,3.321,0,0,0-1.74.4218,1.3252,1.3252,0,0,0-.5713,1.1778q0,1.1337,1.3008,1.1338a2.06,2.06,0,0,0,1.49-.5362,1.883,1.883,0,0,0,.5582-1.4238Z"/><path class="cls-2" d="M195.8555,98.19h-2.6807V84.514h2.6807Z"/><path class="cls-2" d="M86.2207,114.8592a13.62,13.62,0,0,1,.6812-4.3594,10.8378,10.8378,0,0,1,1.9643-3.56h2.1973a12.6567,12.6567,0,0,0-1.8721,3.7266,13.9481,13.9481,0,0,0-.6328,4.1748,13.5059,13.5059,0,0,0,.646,4.1616,12.6027,12.6027,0,0,0,1.8413,3.6343h-2.18a10.3567,10.3567,0,0,1-1.9687-3.4893A13.2652,13.2652,0,0,1,86.2207,114.8592Z"/><path class="cls-2" d="M102.0938,110.948a3.9275,3.9275,0,0,1-1.2964,3.1729A5.5447,5.5447,0,0,1,97.11,115.22h-1.169v4.57H93.2168V106.94h4.1045a5.46,5.46,0,0,1,3.5552,1.0064A3.6694,3.6694,0,0,1,102.0938,110.948Zm-6.1524,2.0391h.8965a2.9856,2.9856,0,0,0,1.8809-.4966,1.7379,1.7379,0,0,0,.624-1.4458,1.7817,1.7817,0,0,0-.523-1.415,2.45,2.45,0,0,0-1.6391-.457H95.9414Z"/><path class="cls-2" d="M109.9775,109.0232a2.7762,2.7762,0,0,0-2.3818,1.1558,5.3769,5.3769,0,0,0-.8437,3.2212q0,4.2978,3.2255,4.2978a10.1955,10.1955,0,0,0,3.2784-.6767v2.2851a9.1037,9.1037,0,0,1-3.5332.6592,5.3886,5.3886,0,0,1-4.2891-1.7007,7.2012,7.2012,0,0,1-1.4854-4.8823,7.973,7.973,0,0,1,.73-3.5112,5.2727,5.2727,0,0,1,2.0962-2.3115,6.2006,6.2006,0,0,1,3.2036-.8042,8.6468,8.6468,0,0,1,3.7618.9052l-.8789,2.2149a14.5534,14.5534,0,0,0-1.45-.5977A4.3274,4.3274,0,0,0,109.9775,109.0232Z"/><path class="cls-2" d="M121.43,119.79l-3.0938-10.081h-.0791q.1671,3.0762.167,4.1045V119.79h-2.4345V106.94h3.7089l3.0411,9.8262h.0527l3.2256-9.8262h3.709v12.85h-2.54v-6.082q0-.4307.0132-.9932t.1187-2.9882h-.0791L123.9258,119.79Z"/><path class="cls-2" d="M140.5459,116.2215a3.3219,3.3219,0,0,1-1.2524,2.7422,5.4411,5.4411,0,0,1-3.4849,1.0019,8.1847,8.1847,0,0,1-3.6387-.7734v-2.5313a14.9856,14.9856,0,0,0,2.2017.8174,6.515,6.515,0,0,0,1.6479.2373,2.3423,2.3423,0,0,0,1.3755-.3428,1.1721,1.1721,0,0,0,.479-1.0195,1.1254,1.1254,0,0,0-.2109-.6723,2.36,2.36,0,0,0-.62-.5669,15.9391,15.9391,0,0,0-1.6656-.87,7.8964,7.8964,0,0,1-1.7666-1.0634,3.9945,3.9945,0,0,1-.94-1.1866,3.3854,3.3854,0,0,1-.3516-1.582,3.3211,3.3211,0,0,1,1.1558-2.6807,4.8028,4.8028,0,0,1,3.1948-.9755,7.5439,7.5439,0,0,1,1.9116.2373,13.1381,13.1381,0,0,1,1.9029.6679l-.8789,2.1182a12.8681,12.8681,0,0,0-1.7007-.5889,5.4762,5.4762,0,0,0-1.3228-.167,1.7517,1.7517,0,0,0-1.1865.36,1.1886,1.1886,0,0,0-.4131.94,1.1639,1.1639,0,0,0,.167.6284,1.8359,1.8359,0,0,0,.5318.5186,16.43,16.43,0,0,0,1.727.9009,6.8717,6.8717,0,0,1,2.47,1.727A3.3709,3.3709,0,0,1,140.5459,116.2215Z"/><path class="cls-2" d="M154.5381,113.3475a6.9731,6.9731,0,0,1-1.582,4.9043,6.8576,6.8576,0,0,1-9.07,0,7.0005,7.0005,0,0,1-1.582-4.9219,6.9046,6.9046,0,0,1,1.5864-4.9,5.9325,5.9325,0,0,1,4.5484-1.6919,5.8494,5.8494,0,0,1,4.5307,1.7051A6.99,6.99,0,0,1,154.5381,113.3475Zm-9.3779,0a5.3675,5.3675,0,0,0,.8173,3.2431,2.86,2.86,0,0,0,2.4434,1.09q3.2607,0,3.2607-4.333,0-4.3419-3.2431-4.3418a2.88,2.88,0,0,0-2.4522,1.0942A5.3448,5.3448,0,0,0,145.16,113.3475Z"/><path class="cls-2" d="M160.9629,114.8592a13.2446,13.2446,0,0,1-.6812,4.3066,10.3011,10.3011,0,0,1-1.9643,3.4717h-2.18a12.6887,12.6887,0,0,0,1.8369-3.6255,13.4511,13.4511,0,0,0,.65-4.17,13.9481,13.9481,0,0,0-.6328-4.1748A12.6567,12.6567,0,0,0,156.12,106.94h2.1973a10.7807,10.7807,0,0,1,1.9687,3.5728A13.6832,13.6832,0,0,1,160.9629,114.8592Z"/></svg>