<svg xmlns="http://www.w3.org/2000/svg" width="90.691" height="97.666" viewBox="0 0 90.691 97.666">
  <g id="Grupo_1700" data-name="Grupo 1700" transform="translate(-641.313 -1862.895)">
    <g id="Grupo_1621" data-name="Grupo 1621" transform="translate(641.313 1862.894)">
      <path id="__TEMP__SVG__" d="M6.975,90.694h15.7V75H6.975Zm19.184,0H43.6V75H26.162v15.7ZM6.975,71.51h15.7V54.068H6.975Zm19.184,0H43.6V54.068H26.162V71.51ZM6.975,50.579h15.7v-15.7H6.975ZM47.09,90.694H64.532V75H47.09ZM26.162,50.579H43.6v-15.7H26.162ZM68.021,90.694h15.7V75h-15.7ZM47.093,71.51H64.535V54.068H47.09V71.51ZM27.906,24.417V8.72a1.77,1.77,0,0,0-1.744-1.744H22.673A1.77,1.77,0,0,0,20.928,8.72v15.7a1.77,1.77,0,0,0,1.744,1.744h3.489a1.77,1.77,0,0,0,1.744-1.744Zm40.115,47.09h15.7V54.068h-15.7V71.51ZM47.09,50.579H64.532v-15.7H47.09Zm20.928,0h15.7v-15.7h-15.7Zm1.744-26.162V8.72a1.77,1.77,0,0,0-1.744-1.744H64.529A1.765,1.765,0,0,0,62.788,8.72v15.7a1.77,1.77,0,0,0,1.744,1.744h3.489a1.77,1.77,0,0,0,1.744-1.744Zm20.928-3.489V90.691a7.07,7.07,0,0,1-6.975,6.975H6.975A6.7,6.7,0,0,1,2.07,95.6,6.7,6.7,0,0,1,0,90.691V20.928a6.7,6.7,0,0,1,2.07-4.905,6.7,6.7,0,0,1,4.905-2.07H13.95V8.72a8.4,8.4,0,0,1,2.561-6.159A8.4,8.4,0,0,1,22.673,0h3.489A8.4,8.4,0,0,1,32.32,2.561,8.4,8.4,0,0,1,34.881,8.72v5.233H55.81V8.72a8.4,8.4,0,0,1,2.561-6.159A8.4,8.4,0,0,1,64.53,0h3.489a8.4,8.4,0,0,1,6.159,2.561A8.4,8.4,0,0,1,76.738,8.72v5.233h6.975a6.7,6.7,0,0,1,4.905,2.07,6.7,6.7,0,0,1,2.07,4.905Z" transform="translate(0)" fill="#294667"/>
      <path id="calendar-check-o" d="M48.375,59.3l-6.187,6.187-5.052,5.052a.743.743,0,0,1-1.01,0L29.8,64.217a.732.732,0,0,1-.2-.5.657.657,0,0,1,.2-.483l1.01-1.01a.657.657,0,0,1,.483-.2.732.732,0,0,1,.5.2l4.829,4.829L46.378,57.3a.732.732,0,0,1,.5-.2,6.8,6.8,0,0,1,1.493,2.2Z" transform="translate(-3.038 -2.107)" fill="#294667"/>
      <path id="calendar-check-o-2" data-name="calendar-check-o" d="M48.375,59.3l-6.187,6.187-5.052,5.052a.743.743,0,0,1-1.01,0L29.8,64.217a.732.732,0,0,1-.2-.5.657.657,0,0,1,.2-.483l1.01-1.01a.657.657,0,0,1,.483-.2.732.732,0,0,1,.5.2l4.829,4.829L46.378,57.3a.732.732,0,0,1,.5-.2,6.8,6.8,0,0,1,1.493,2.2Z" transform="translate(-3.038 18.482)" fill="#294667"/>
      <path id="calendar-check-o-3" data-name="calendar-check-o" d="M48.375,59.3l-6.187,6.187-5.052,5.052a.743.743,0,0,1-1.01,0L29.8,64.217a.732.732,0,0,1-.2-.5.657.657,0,0,1,.2-.483l1.01-1.01a.657.657,0,0,1,.483-.2.732.732,0,0,1,.5.2l4.829,4.829L46.378,57.3a.732.732,0,0,1,.5-.2,6.8,6.8,0,0,1,1.493,2.2Z" transform="translate(-21.815 18.482)" fill="#294667"/>
      <path id="calendar-check-o-4" data-name="calendar-check-o" d="M48.375,59.3l-6.187,6.187-5.052,5.052a.743.743,0,0,1-1.01,0L29.8,64.217a.732.732,0,0,1-.2-.5.657.657,0,0,1,.2-.483l1.01-1.01a.657.657,0,0,1,.483-.2.732.732,0,0,1,.5.2l4.829,4.829L46.378,57.3a.732.732,0,0,1,.5-.2,6.8,6.8,0,0,1,1.493,2.2Z" transform="translate(18.446 -2.107)" fill="#294667"/>
      <path id="calendar-check-o-5" data-name="calendar-check-o" d="M48.375,59.3l-6.187,6.187-5.052,5.052a.743.743,0,0,1-1.01,0L29.8,64.217a.732.732,0,0,1-.2-.5.657.657,0,0,1,.2-.483l1.01-1.01a.657.657,0,0,1,.483-.2.732.732,0,0,1,.5.2l4.829,4.829L46.378,57.3a.732.732,0,0,1,.5-.2,6.8,6.8,0,0,1,1.493,2.2Z" transform="translate(18.446 18.482)" fill="#294667"/>
      <path id="calendar-check-o-6" data-name="calendar-check-o" d="M48.375,59.3l-6.187,6.187-5.052,5.052a.743.743,0,0,1-1.01,0L29.8,64.217a.732.732,0,0,1-.2-.5.657.657,0,0,1,.2-.483l1.01-1.01a.657.657,0,0,1,.483-.2.732.732,0,0,1,.5.2l4.829,4.829L46.378,57.3a.732.732,0,0,1,.5-.2,6.8,6.8,0,0,1,1.493,2.2Z" transform="translate(39.93 -2.107)" fill="#294667"/>
      <path id="calendar-check-o-7" data-name="calendar-check-o" d="M48.375,59.3l-6.187,6.187-5.052,5.052a.743.743,0,0,1-1.01,0L29.8,64.217a.732.732,0,0,1-.2-.5.657.657,0,0,1,.2-.483l1.01-1.01a.657.657,0,0,1,.483-.2.732.732,0,0,1,.5.2l4.829,4.829L46.378,57.3a.732.732,0,0,1,.5-.2,6.8,6.8,0,0,1,1.493,2.2Z" transform="translate(39.93 18.482)" fill="#294667"/>
    </g>
  </g>
</svg>
