<svg id="_1" data-name="1" xmlns="http://www.w3.org/2000/svg" viewBox="0 0 741.9377 605.5527"><defs><style>.cls-1{fill:#d5e5b6;}.cls-2,.cls-4{fill:#cce3f1;}.cls-2,.cls-3,.cls-7{isolation:isolate;}.cls-5{fill:#284666;}.cls-6{fill:#77bc6d;}.cls-7{fill:#f7a613;}.cls-8{fill:#8361a6;}</style></defs><path class="cls-1" d="M665.7063,617.3116l.4346.2459a3.6522,3.6522,0,0,1,.8678.682q2.3564-2.0906,4.6441-4.3953-1.6944-.4989-3.3289-1.1575Z" transform="translate(-12.901 -51.9473)"/><path class="cls-2" d="M749.0508,377.8216c-.6018-.75-7.0185-8.5065-17.4565-9.7852-20.0787-2.4595-37.0734,21.2523-43.6967,34.5955a74.3914,74.3914,0,0,0-7.6044,29.4246q-.0524,1.4023-.0415,2.7593c.0763,8.3478,1.9729,15.2585,5.3906,18.9189a30.338,30.338,0,0,0,4.1939,3.6907,34.5615,34.5615,0,0,0,5.727,3.4417,34.1524,34.1524,0,0,0,9.2543,2.4447c11.4279,1.1442,36.9353-16.6158,45.9707-45.7567C753.4791,408.8764,759.19,390.4571,749.0508,377.8216Z" transform="translate(-12.901 -51.9473)"/><g class="cls-3"><path class="cls-4" d="M648.8814,455.8177c101.84-270.3547-66.8155-452.1293-358.97-392.5263-.1386.0358-.2789.0737-.4178.11l1.0718,1.2453a3.8741,3.8741,0,0,1,.5727.893,3.9086,3.9086,0,0,1-6.502,4.21l-.3461-.4021-4.2759,3.68a38.313,38.313,0,0,1,6.19,18.823l5.6287.4219.04-.529a3.9066,3.9066,0,0,1,7.525-1.159,3.8688,3.8688,0,0,1,.2756,1.7436l-.141,1.8812-.6989,9.3238v0a3.8737,3.8737,0,0,1-.2212,1.0211,3.9085,3.9085,0,0,1-7.5793-1.606v0l.04-.529-5.6288-.4219a38.3125,38.3125,0,0,1-8.9271,17.69l3.68,4.276.4021-.3461a3.9227,3.9227,0,0,1,5.5158.4135h0a3.9222,3.9222,0,0,1-.0293,5.129c-.0153.0174-.0294.0355-.045.0527a3.6952,3.6952,0,0,1-.3391.3341l-3.3791,2.9079-5.1378,4.4213a3.9228,3.9228,0,0,1-5.5158-.4134v0c-.07-.0807-.1321-.165-.1937-.25a3.8733,3.8733,0,0,1-.6965-1.6868c-.005-.03-.0107-.06-.015-.0912-.007-.0525-.0121-.105-.017-.1577-.0065-.0668-.0108-.135-.0138-.2042-.0016-.039-.0038-.0779-.0042-.117-.0012-.1126.0009-.2252.0093-.3374a3.953,3.953,0,0,1,.0758-.5082c.007-.0334.014-.0662.0218-.0989a3.8809,3.8809,0,0,1,1.0436-1.8712c.0661-.0657.1314-.1318.203-.1935l.4021-.346-3.68-4.276a38.312,38.312,0,0,1-18.823,6.19l-.4219,5.6288.4075.03.1215.0091a3.926,3.926,0,0,1,3.523,3.0476c.0185.0806.0311.1633.0443.2459.0062.0391.0153.0773.02.1167.0147.114.0229.23.0271.347,0,.013.0024.0256.0028.0385.0009.0352-.0025.0712-.0026.1066,0,.0964,0,.1928-.0069.29l-.0028.0215c-.0043.0538-.0136.1056-.02.1586-.01.0834-.0195.167-.0349.2485-.0105.0563-.0254.1107-.0384.166-.0177.0758-.0348.1517-.0568.2257-.0168.0562-.0372.1105-.0564.1656-.0245.07-.0488.1407-.0771.2091-.0226.0546-.0482.1074-.0732.1607-.0307.0657-.0617.1311-.096.1947-.0281.0522-.0585.1026-.0889.1533-.0367.0614-.0739.1221-.1138.1811-.0333.0492-.0681.0968-.1035.1443-.0422.0567-.0852.1124-.13.1667-.0379.0456-.0769.09-.1168.1338-.0474.0521-.0959.1028-.1461.1523-.042.0415-.0847.0821-.1286.1217-.0522.0472-.1058.0924-.1605.1367-.0459.0373-.092.0739-.1395.109-.0569.042-.1152.0816-.1742.1205-.0491.0324-.098.0646-.1485.0948-.0614.0367-.1245.07-.1879.1035-.0515.0271-.1025.0546-.1553.0794-.066.031-.1338.0583-.2017.0857-.0531.0214-.1056.0439-.16.063-.0709.025-.1436.0455-.2161.0664-.0538.0156-.1068.0328-.1614.046-.0771.0187-.1558.0319-.2344.0459-.0523.0093-.1038.0211-.1567.0283-.0881.0119-.1779.0173-.2675.0232-.0451.003-.0893.0091-.1346.0105a3.9025,3.9025,0,0,1-.411-.0086l-11.205-.84a3.9226,3.9226,0,0,1-3.6079-4.1926h0a3.9226,3.9226,0,0,1,4.1925-3.6079l.5291.04.4218-5.6288a38.313,38.313,0,0,1-17.69-8.9271l-4.2759,3.68.346.4021a3.9227,3.9227,0,0,1-.4134,5.5158h0A3.9166,3.9166,0,0,1,212.37,132.1c-.0322-.0333-.0615-.0641-.0852-.0893l-7.3291-8.5169a3.9226,3.9226,0,0,1,.4134-5.5158h0c.0808-.07.1652-.1322.25-.1939a3.8717,3.8717,0,0,1,1.6865-.6962c.03-.005.06-.0108.0912-.0151.0526-.007.1051-.0121.1578-.0169.0667-.0065.1347-.0109.2038-.0139.0392-.0016.0783-.0038.1176-.0041.11-.0014.2211,0,.3363.0091a3.9718,3.9718,0,0,1,.5094.076c.0331.007.0657.0139.0982.0216a3.88,3.88,0,0,1,1.8715,1.0438c.0656.0661.1319.1313.1935.203l.3461.402,4.2759-3.68a37.5255,37.5255,0,0,1-3.06-5.6649A38.6514,38.6514,0,0,1,209.31,93.9491q-14.4194,7.4655-28.9719,16.71-9.2609,5.9219-17.7047,12.0652a23.6052,23.6052,0,0,1,6.7569,8.4156l3.3059-1.0751a2.3238,2.3238,0,0,1,.1281-2.2917,2.3992,2.3992,0,0,1,1.0813-.9639l.0186-.0077c.07-.0306.1423-.0587.2166-.0829l.01-.0026c.0291-.0094.0585-.0155.0877-.0237.0524-.0146.1046-.03.1572-.0405.0335-.007.067-.011.1-.0165.0485-.0079.0968-.0162.1452-.0211.0354-.0036.07-.0046.1056-.0065.0466-.0027.093-.0054.1393-.0053.0362,0,.0719.0023.1079.0041.0449.0021.09.0043.1342.0089.0364.0038.0724.0094.1084.0149.0435.0065.0868.0134.13.0222.0359.0075.0713.0163.1068.0253l.02.0055a2.1858,2.1858,0,0,1,1.4633,1.098l.016.0251c.0274.0474.0515.0972.0758.1469.0122.0251.0262.049.0376.0746a2.44,2.44,0,0,1,.091.2357l0,.0008s.397,1.2208.849,2.6105l.0345.1062.1651.5076.1574.4841.2993.92.0976.3.1081.3324.029.0893.1062.3263.1955.6011.0108.0335.0765.2352.0111.0339a2.4166,2.4166,0,0,1,.064.2377,2.1482,2.1482,0,0,1-.4428,1.9666,2.39,2.39,0,0,1-1.1669.8313h0a2.3958,2.3958,0,0,1-1.7451-.1055,2.2285,2.2285,0,0,1-1.3916-1.7509L171.3287,137.1a23.5954,23.5954,0,0,1-.9523,12.1658l3.0959,1.5764a2.32,2.32,0,0,1,1.7945-1.544,2.4136,2.4136,0,0,1,.8289-.0371c.0156.002.031.0031.0465.0055a2.3934,2.3934,0,0,1,.381.0937c.0253.0084.0508.0158.0759.025.0473.0174.0938.0379.14.0585.0321.0142.0649.0274.096.0428l.0245.011c.04.02.0778.0444.1164.0669.0276.016.0562.0307.0829.0477.0524.0333.1017.07.1507.1065.0179.0133.0371.0252.0545.0391a2.3681,2.3681,0,0,1,.1857.1641c.0137.0134.0255.0282.0389.0419.0437.0451.0868.0907.1266.1387.0194.0235.0365.0484.0551.0725.031.04.0621.0807.09.1229.0186.0278.035.0566.0524.085l.0219.0373a2.1857,2.1857,0,0,1,.2631,1.8213l-.0049.0222c-.0143.0541-.0327.1076-.051.1611-.0089.0259-.0158.0522-.0257.0779a2.3634,2.3634,0,0,1-.103.2332l0,.0014-.0019.0036-1.3368,2.6254c-.7269,1.4363-1.51,2.9854-1.8,3.5357l-.0009.0016a2.4064,2.4064,0,0,1-.123.2137,2.1479,2.1479,0,0,1-1.7038,1.0772,2.39,2.39,0,0,1-1.4126-.2374h0a2.3963,2.3963,0,0,1-1.1594-1.3088,2.228,2.228,0,0,1,.2541-2.2218l-3.0959-1.5764a23.5952,23.5952,0,0,1-9.2784,7.9263l1.0751,3.3057a2.248,2.248,0,0,1,2.0068-.0187,2.408,2.408,0,0,1,1.249,1.2284l.0064.0151c.0312.0713.06.1444.0841.22l.0026.01c.0093.0288.0153.0577.0234.0866.0148.0527.03.1054.0409.1584.0069.0332.0108.0664.0163.1.0079.0487.0164.0973.0212.1459.0036.0353.0046.07.0065.1057.0027.0465.0054.093.0054.1392,0,.0361-.0024.0718-.0042.1078s-.0042.0737-.0073.1105l-.0014.0206,0,.0034,0,.0023a2.2053,2.2053,0,0,1-.984,1.7066l-.0011.0009h0l0,0c.0092.0185-.0519.0563-.1666.1089-.0129.0084-.0255.0171-.0389.0247-.0469.0272-.0961.051-.1452.075-.0256.0125-.05.0267-.0762.0384a2.4012,2.4012,0,0,1-.2363.0912l-1.13.3674c-1.2414.4211-2.8685.94-4.0235,1.3085l-1.4271.4641,0,0a2.4092,2.4092,0,0,1-.2373.064,2.3826,2.3826,0,0,1-.4291.0506c-.0154,0-.0311.0027-.0466.0029a2.4293,2.4293,0,0,1-1.6909-.6639,2.3894,2.3894,0,0,1-.6319-.9993h0A2.4367,2.4367,0,0,1,153.37,168.02l-1.0751-3.3058a23.5954,23.5954,0,0,1-12.1658-.9523l-1.5764,3.0959a2.32,2.32,0,0,1,1.5441,1.7943,2.4142,2.4142,0,0,1,.0371.829c-.002.0155-.0031.0308-.0055.0463a2.369,2.369,0,0,1-.0938.3814c-.0083.0251-.0156.05-.0248.0753-.0174.0475-.038.0943-.0587.1411-.0142.032-.0274.0646-.0427.0957l-.011.0246c-.02.04-.0444.0776-.0668.1161-.016.0276-.0307.0563-.0477.083-.0332.0522-.0694.1013-.106.15-.0135.0181-.0257.0376-.04.0552a2.3639,2.3639,0,0,1-.1638.1855c-.0137.014-.0288.0261-.0428.04-.0449.0437-.09.0866-.1382.1263-.0232.0192-.0479.0361-.0717.0544-.0406.0312-.0812.0625-.1236.0909-.0277.0186-.0564.0349-.0848.0523l-.0374.0219a2.185,2.185,0,0,1-1.8213.2633l-.0222-.0049c-.0539-.0143-.107-.0324-.16-.0506-.0263-.009-.0529-.0161-.0791-.0262a2.3577,2.3577,0,0,1-.2329-.1029l-.0013,0-.0035-.0018-2.6754-1.3623c-1.4222-.7195-2.9421-1.4876-3.4859-1.775l-.0016-.0008a2.4161,2.4161,0,0,1-.2137-.1229,2.1482,2.1482,0,0,1-1.0772-1.704,2.39,2.39,0,0,1,.2374-1.4126h0a2.3947,2.3947,0,0,1,1.3086-1.1593,2.2279,2.2279,0,0,1,2.222.2541l1.5764-3.096a23.55,23.55,0,0,1-6.9529-7.4741c-38.7528,37.6564-54.09,97.38-33.5735,142.9569-36.71,17.5261-106.2879,109.6137-71.7824,194.984C69.38,599.656,159.4643,615.167,221.7554,632.45c4.0894-6.0226,20.18-37.2851,26.5721-51.5821-.0178-.32-.0341-.6628-.0482-1.0366a28.72,28.72,0,0,1,2.5411-13.2164,26.7466,26.7466,0,0,1,2.2786-4.0116c.3968-.576.8028-1.09,1.2129-1.5782.2186-.9375.4317-1.8667.6356-2.7807a766.5131,766.5131,0,0,1,11.1452-93.6649q.1019-.5568.2054-1.1135c-.9878.0457-2.1051.1342-3.3248.2621-5.803,2.4045-11.6306,4.793-17.43,7.1264a26.0429,26.0429,0,0,1-14.2389,1.475c-.9931,1.7467-2.1418,3.8271-3.42,6.141-.9229,1.6712-1.9371,3.5078-3.0647,5.5322a50.7841,50.7841,0,0,1-7.3613,10.8338,49.3971,49.3971,0,0,1-17.8571,12.1943c-8.846,3.6373-20.7239,8.0316-34.1729,9.7391a27.1578,27.1578,0,0,1-17.3629-3.7575,85.2855,85.2855,0,0,1-14.888-11.1282,63.7052,63.7052,0,0,1-16.7719-17.8877c-10.3454-11.861-13.7491-26.6117-10.0966-43.8577.3645-1.7212.6913-3.569,1.0367-5.5253,1.1408-6.4521,2.4332-13.7649,5.8664-21.3706a36.1718,36.1718,0,0,1,12.0569-14.4651,71.4927,71.4927,0,0,1,10.1625-6.6171c4.6571-2.3324,16.95-8.3937,33.9588-16.5844,3.3661-3.9041,3.7917-8.2021,1.9535-11.1226l-8.5423,1.4872a25.135,25.135,0,0,1-4.3571.3813,24.5339,24.5339,0,0,1-21.5808-12.6544c-4.6562-6.5227-5.4157-15.48-.8383-22.4423.301-.6423.6285-1.2763.99-1.898a24.6827,24.6827,0,0,1,18.227-12.0172l9.8883-1.5612-2.6624-.5575a26.113,26.113,0,0,1-19.9826-16.491,25.422,25.422,0,0,1,5.0926-25.8386c6.5076-7.0792,16.5244-9.7327,26.2129-6.9669l8.3945,2.26-25.4238-17.5563q-.38-.2628-.7482-.5427a25.2225,25.2225,0,0,1-10.0909-18.8629,25.4653,25.4653,0,0,1,41.0765-21.04L255.39,259.86a52.8526,52.8526,0,0,1,6.5723-17.2548,55.4,55.4,0,0,1,3.3213-4.8929c-4.1973-10.0661,2.4873-22.7067,10.5918-31.7331.6666-.8677,1.36-1.7619,2.0692-2.6706.0115-.6685.0205-1.3371.0652-2.007a43.76,43.76,0,0,1,4.8811-17.4361,48.4984,48.4984,0,0,1-1.3543-6.1822,50.0332,50.0332,0,0,1,12.6546-41.9985,51.1066,51.1066,0,0,1,20.2642-13.236,70.25,70.25,0,0,1,8.3078-15.9788c12.8739-18.46,33.5277-29.8335,55.2492-30.4242a72.728,72.728,0,0,1,38.0059,9.7224c7.9423-4.9042,17.6215-8.0414,28.6437-9.2229,16.3291-1.7488,32.0871,1.598,44.3707,9.428A55.825,55.825,0,0,1,509.39,109.01q.5366-.081,1.0745-.1541a74.132,74.132,0,0,1,42.5622,6.6744c16.3621,7.9612,29.1522,22.2951,36.1,39.2127a2.0595,2.0595,0,0,1,1.68-1.2846,2.1064,2.1064,0,0,1,1.9662.8706l3.4874,4.9269a2.0825,2.0825,0,0,1,.2825.5634c.0213.0655.039.1317.0536.1983a2.1008,2.1008,0,0,1-3.7661,1.6662l-.1646-.2327-.9355.6622a76.5,76.5,0,0,1,2.5321,11.763l1.2741.218.0481-.2809a2.1012,2.1012,0,1,1,4.1422.7086l-1.0179,5.95a2.0913,2.0913,0,0,1-3.8476.7474c.0378,1.14.0588,2.2827.0432,3.4278a76.087,76.087,0,0,1-4.4925,24.5928,52.2446,52.2446,0,0,1,9.4894,23.9353c.49.21.9685.4442,1.4521.6681.0018-.0093.0008-.019.0026-.0283a3.4794,3.4794,0,0,1,.6752-1.6313c.0143-.0184.0272-.0378.0419-.056a3.3594,3.3594,0,0,1,.3986-.4143c.0292-.0259.0572-.0526.0873-.0777.058-.0479.1176-.0918.1774-.1354.0416-.03.0819-.0618.1252-.09.0657-.0436.1333-.082.2007-.1206.0411-.0235.0814-.0494.1231-.0711.08-.0417.162-.0774.2441-.1123.0306-.0131.06-.0289.0912-.041a3.4739,3.4739,0,0,1,.3442-.1151c.0287-.0079.0579-.0124.0868-.0195.0853-.0214.1708-.0414.2569-.0562a3.2418,3.2418,0,0,1,2.8131.7239l.0179.0134,0,0,0,0c.0248-.0178.1023.0544.22.196.0168.0152.034.03.05.0461.0576.0575.1116.1194.1656.1815.027.0309.0557.06.0816.0917a3.502,3.502,0,0,1,.2211.3031l.9192,1.4184c1.0612,1.5908,2.41,3.7,3.3754,5.2082l1.2235,1.8879,0,0a3.4927,3.4927,0,0,1,.18.312c.03.0582.0535.1182.08.1774.0215.0485.0462.0962.0653.1452.0078.02.0135.04.02.06a51.5889,51.5889,0,0,1,16.6739,25.1446c3.9577,13.8091.5545,28.546-8.88,39.7865a58.84,58.84,0,0,1,5.302,10.8078c6.1274,16.5725,4.9174,35.4751-3.4071,53.2261-9.0193,19.2348-25.4455,34.6209-43.9414,41.158-1.7894.6323-3.6425,1.1938-5.5445,1.6884q.71,1.5344,1.405,3.1346c.3768.777.769,1.542,1.1357,2.3268,17.2456,36.9177,21.694,78.4848,25.6182,115.1586.6045,5.6485,1.1344,11.398,1.5751,17.0877a20.1019,20.1019,0,0,1-.02,3.2556,831.4342,831.4342,0,0,1,2.3841,91.18c3.35-.3622,30.5112-3.758,55.1006-22.46l-2.9032-1.6432c-1.7906-1.0036-3.782-2.1155-4.8319-2.7348l-.0018-.001a3.6608,3.6608,0,0,1-.3852-.2552l-.0208-.0162c-.0832-.0631-.1641-.128-.2407-.1969a3.3343,3.3343,0,0,1-1.2147-2.6822,3.6472,3.6472,0,0,1,.4705-1.8679h0a3.6611,3.6611,0,0,1,1.9973-1.6564,3.5427,3.5427,0,0,1,3.4558.5116l2.6175-4.6249a36.2742,36.2742,0,0,1-5.1338-4.715q-.3906-.4352-.7679-.8838c-.36-.4282-.7072-.8688-1.0482-1.3151a35.9894,35.9894,0,0,1-4.5351-7.7865l-2.5591.7092-2.5591.7093,0,0a3.8831,3.8831,0,0,1,.2554,1.188,3.6922,3.6922,0,0,1-.7282,2.4775c-.0268.0367-.055.0721-.0832.1078-.0385.0479-.0776.095-.1185.1409-.0524.06-.1067.1177-.1632.1741-.0191.0189-.0385.0373-.0581.0558-.0746.0713-.1519.14-.233.2047l-.0084.0064a3.559,3.559,0,0,1-1.269.6493l-.0256.0085h0a3.6458,3.6458,0,0,1-1.7528.0478,3.7214,3.7214,0,0,1-1.8814-1.0442,3.6491,3.6491,0,0,1-.8978-1.5687l-.0223-.0807-.0438-.1578-.0708-.2556-.1637-.59c-.6911-2.4938-2.3485-8.4738-2.5112-9.061l-.0135-.0489a3.62,3.62,0,0,1-.121-1.1519,3.3686,3.3686,0,0,1,1.1378-2.496c.0215-.02.0424-.0409.0642-.0608.05-.046.1-.091.1529-.1343.0252-.02.0511-.04.077-.06q.1062-.0826.2192-.1575c.02-.0133.0407-.0261.0611-.0391q.1158-.073.2384-.1376c.0291-.0154.0583-.03.0879-.045.0632-.0313.1286-.0595.1942-.0874.0686-.0291.1384-.0559.21-.0811.0541-.0191.1082-.0377.1625-.054.0275-.0084.0534-.0194.0813-.0271.0471-.0131.0942-.02.1414-.0316.0544-.0127.1084-.0261.1628-.0363.0765-.0143.1527-.0243.2291-.0336.052-.0064.104-.0143.1559-.0185.0816-.0064.1627-.0076.2438-.0086.046-.0006.0923-.0036.1381-.0024.0985.0026.196.0112.2932.0216.0279.003.0561.0033.0837.0069a3.6723,3.6723,0,0,1,.3689.0674c.0327.0077.0643.019.0967.0275.088.0233.1757.0474.2615.077.0443.0153.0868.0341.13.051.0722.028.1442.0561.2144.0885.02.0092.0392.02.0587.03a3.641,3.641,0,0,1,2.0866,2.8072l0,.0007,5.1182-1.4186a36.1109,36.1109,0,0,1-.3217-3.6019q-.0232-.598-.0266-1.1939a36.1257,36.1257,0,0,1,2.6277-13.7193l-1.6715-.9462-2.9533-1.6714a3.5417,3.5417,0,0,1-2.6963,2.2163,3.66,3.66,0,0,1-2.5681-.3909h0a3.6466,3.6466,0,0,1-1.36-1.35,3.3335,3.3335,0,0,1-.3436-2.9363c.0292-.0952.0642-.1893.1016-.2829l.0127-.0335a3.675,3.675,0,0,1,.1982-.4151l0-.0005.056-.0989.1206-.2129.0015-.0027.0814-.144,4.9512-8.7476.0014-.0023a3.55,3.55,0,0,1,.5578-.7378c.0245-.0251.048-.0513.073-.0757.0427-.0413.0872-.08.1317-.1192.046-.0406.0922-.0807.14-.1189.0324-.0256.0653-.05.0985-.0746q.099-.0738.202-.14c.021-.0134.0419-.0267.0631-.04q.13-.08.2656-.1491l.023-.0119a3.7232,3.7232,0,0,1,1.3432-.38c.018-.0016.036-.0018.0539-.0031.09-.0064.18-.01.27-.01.0465,0,.093.0023.14.004.0606.0024.1212.0053.1818.0108s.1218.0126.1827.0211q.0678.0095.1354.0216c.07.0123.1392.0261.2085.0427.0356.0086.0709.0186.1063.0283.0745.02.1486.0412.2222.0664.032.011.0635.0243.0953.0362.0739.0278.1478.0551.22.088q.1488.0669.2937.1485l.0093.0047v0a3.5615,3.5615,0,0,1,1.0969.9522l.0062.0077c.0631.0828.1217.1681.1769.2556.0143.0224.0286.0447.0423.0674q.0621.1029.1167.2092c.0283.0542.0547.1089.08.1643.0188.0419.0379.0835.0552.1261a3.6924,3.6924,0,0,1,.1059,2.58,3.8875,3.8875,0,0,1-.5356,1.0907l2.9533,1.6715,1.6715.9461q.7376-.9766,1.5426-1.9027.7185-.8292,1.487-1.617.7854-.8022,1.6232-1.5564c.059-.0533.1188-.1057.1782-.1585q.8165-.7267,1.6783-1.4077.9239-.7266,1.8995-1.3959t2.0007-1.2768q1.0253-.6075,2.0985-1.1512t2.1925-1.0189l-1.4185-5.1181h0a3.5424,3.5424,0,0,1-3.461-.3309,3.6612,3.6612,0,0,1-1.5521-2.1007v0a3.6454,3.6454,0,0,1-.0126-1.8964,3.3338,3.3338,0,0,1,1.839-2.3391c.0876-.0465.1785-.0881.2707-.1277l.0338-.0152a3.6475,3.6475,0,0,1,.4319-.1529l.0024-.0008.1593-.0441.9574-.2654,4.8742-1.3509c1.5566-.4316,3.0568-.8476,4.2032-1.1649l.0012,0a3.6207,3.6207,0,0,1,1.1493-.121,3.37,3.37,0,0,1,2.4977,1.1383c.0205.0219.0417.0433.062.0656.0452.049.0894.0987.132.15.0212.0258.0414.0525.0619.079q.0819.1053.1561.2174c.0137.0207.0268.0416.04.0626q.0726.115.1368.237.0234.0441.0455.089c.0313.063.0593.128.087.1932.0293.0689.0562.139.0815.21.019.054.0375.1078.0539.1621.0083.0276.0193.0535.027.0813.0131.0471.02.0944.0316.1415.0128.0543.0261.1084.0363.1628.0144.0767.0243.1532.0337.23.0064.0517.0143.1032.0184.1547.0065.0817.0076.1627.0086.2438.0006.0463.0036.0928.0024.1388-.0026.098-.0111.1952-.0215.292-.003.0281-.0033.0567-.0071.0847a3.6217,3.6217,0,0,1-.0674.3689c-.0076.0327-.0188.0641-.0274.0965-.0232.088-.0474.1756-.077.2614-.0153.0444-.0342.0872-.0511.131-.028.0721-.0561.144-.0884.2143-.0091.02-.0195.0387-.0294.058a3.6408,3.6408,0,0,1-2.8073,2.0869l-.0008,0,.5952,2.1474.8234,2.9707a36.0637,36.0637,0,0,1,4.7958-.3483c.0043,0,.0086,0,.0129,0q1.159-.0061,2.3078.0624c.0475.0028.0949.0062.1424.0092a36.1715,36.1715,0,0,1,11.2563,2.5561l.7923-1.4,1.8253-3.2251,0,0a3.56,3.56,0,0,1-2.16-2.4928,3.7134,3.7134,0,0,1-.1241-1.2756c.0017-.0228.0022-.0455.0044-.0683.0056-.0547.0146-.1089.0227-.1634.01-.0683.02-.1363.0336-.2044.007-.0341.0163-.0677.0243-.1016.0193-.0819.04-.1636.0656-.2448.0115-.0366.0251-.0726.0378-.1091.0253-.073.0522-.1458.0826-.2178.02-.0474.0423-.0941.0644-.1409.03-.0627.06-.1248.0925-.1849.0109-.02.0192-.0409.03-.0607.0188-.0331.04-.0636.06-.096.0244-.04.0488-.0806.0747-.12.0355-.0538.0731-.1054.111-.1568.0266-.036.0526-.0726.08-.1074.0417-.0523.0857-.1018.13-.1512.0271-.03.0532-.062.0813-.0913.0519-.0544.1063-.1056.1612-.1562.0228-.0212.0444-.0439.0677-.0644q.1188-.1044.245-.1976l.0116-.0079a3.4314,3.4314,0,0,1,2.7512-.6688l.03.0037c.104.017.2078.0379.3109.0641C700.2108,498.4877,664.6926,461.7666,648.8814,455.8177ZM90.08,420.6839a2.2084,2.2084,0,0,1-.0531.2153l-1.8014,5.9817a2.1743,2.1743,0,0,1-4.2563-.6083,2.1575,2.1575,0,0,1,.0919-.6457l.0851-.2825-3.0032-.9044q-.2952.6546-.63,1.2811a21.2916,21.2916,0,0,1-6.3428,7.2478l1.4849,2.7646.26-.1394a2.1571,2.1571,0,0,1,1.2454-.246,2.196,2.196,0,0,1,1.1485.47,2.1627,2.1627,0,0,1,.7653,2.1152,2.2072,2.2072,0,0,1-.12.4q-.0395.0967-.0882.19a2.1725,2.1725,0,0,1-.23.3519q-.0661.0827-.141.1591a2.1638,2.1638,0,0,1-.5216.3916l-5.5035,2.9559a2.1625,2.1625,0,0,1-1.4525.2146,2.2042,2.2042,0,0,1-.59-.2086q-.0928-.0486-.1811-.1063a2.1549,2.1549,0,0,1-.7215-.7865v0a2.1862,2.1862,0,0,1-.0949-.2,2.1458,2.1458,0,0,1-.1237-.414q-.02-.105-.03-.2105c-.0064-.07-.0094-.1407-.0089-.2108a2.1991,2.1991,0,0,1,.1631-.8164,2.1629,2.1629,0,0,1,.981-1.0924l.26-.14-1.4849-2.7647q-.6405.2418-1.2967.4429a21.3278,21.3278,0,0,1-5.4359.9219q-.6978.0266-1.4016.0071a21.2927,21.2927,0,0,1-2.8269-.2683l-.9044,3.0031.2824.085a2.17,2.17,0,0,1,.7483,3.7639,2.1986,2.1986,0,0,1-.9361.4465,2.1563,2.1563,0,0,1-1.0663-.046L50.3674,442.2a2.1753,2.1753,0,0,1,.3962-4.2435,2.1535,2.1535,0,0,1,.8579.0792l.2824.085.9044-3.0031a21.3307,21.3307,0,0,1-8.5289-6.9731l-2.7646,1.485.1395.26a2.1562,2.1562,0,0,1,.2573,1.0358,2.1938,2.1938,0,0,1-.0934.6193,2.1745,2.1745,0,0,1-3.9954.4027l-2.9558-5.5036a2.1531,2.1531,0,0,1-.2186-.6144,2.1832,2.1832,0,0,1,1.1054-2.33,2.1564,2.1564,0,0,1,1.0358-.2574,2.18,2.18,0,0,1,1.9088,1.1442l.1395.26,2.7648-1.4849a21.361,21.361,0,0,1-1.3648-6.7327q-.0134-.3487-.0152-.6994t.008-.7022q.01-.3517.0314-.7045A21.3347,21.3347,0,0,1,40.499,412.2l-1.5015-.4522-1.5016-.4522-.085.2824a2.1984,2.1984,0,0,1-.0747.2089,2.172,2.172,0,0,1-.98,1.0775,2.208,2.208,0,0,1-.3852.1619,2.16,2.16,0,0,1-1.0542.06,2.1388,2.1388,0,0,1-.2153-.0531,2.1831,2.1831,0,0,1-1.5471-2.0634,2.1543,2.1543,0,0,1,.0919-.6457l1.8014-5.9819a2.158,2.158,0,0,1,.7068-1.0545,2.1953,2.1953,0,0,1,1.3567-.4924,2.1648,2.1648,0,0,1,1.4048.5,2.1739,2.1739,0,0,1,.6961,2.3015l-.0425.1412-.0426.1412,3.0033.9044a21.3315,21.3315,0,0,1,6.9729-8.5289L47.6185,395.49l-.13.07-.13.07a2.1587,2.1587,0,0,1-1.2455.2459q-.1043-.0107-.207-.0312a2.1658,2.1658,0,0,1-1.7495-2.1374q.0006-.1052.0114-.21a2.2029,2.2029,0,0,1,.082-.41,2.1676,2.1676,0,0,1,1.0507-1.2894l2.7517-1.478,2.7518-1.4779a2.1542,2.1542,0,0,1,.825-.2484,2.1959,2.1959,0,0,1,1.569.4725,2.1648,2.1648,0,0,1,.7146,2.3179,2.2008,2.2008,0,0,1-.1579.3868,2.1582,2.1582,0,0,1-.8928.9026l-.26.1395,1.4849,2.7648a21.44,21.44,0,0,1,3.2946-.9515q1.0128-.2064,2.0494-.3147.69-.0717,1.3886-.0986.3489-.0132.6994-.0152.701-.0036,1.4067.0393t1.4139.1339q.3541.0456.7084.1032l.9045-3.0031-.2824-.0851a2.1673,2.1673,0,0,1-1.2863-1.0545,2.1936,2.1936,0,0,1-.2148-.5884,2.161,2.161,0,0,1,.7528-2.121,2.2043,2.2043,0,0,1,.3477-.2317q.0921-.0495.1886-.09a2.1631,2.1631,0,0,1,1.4661-.0788l5.9817,1.8014a2.1811,2.1811,0,0,1,1.4552,2.7092v0a2.1678,2.1678,0,0,1-1.0545,1.2864,2.2,2.2,0,0,1-.3852.1618,2.16,2.16,0,0,1-1.27.0069l-.2824-.0851-.9044,3.0033q.6545.2952,1.2811.63a21.3328,21.3328,0,0,1,7.2477,6.3428l1.3824-.7425,1.3823-.7425-.1394-.26a2.1686,2.1686,0,0,1-.1677-.4058,2.1686,2.1686,0,0,1-.09-.63A2.2,2.2,0,0,1,81.72,399.11a2.16,2.16,0,0,1,1.8223-.9788,2.2008,2.2008,0,0,1,1.0063.2513,2.1711,2.1711,0,0,1,.5109.3713q.0763.0747.1459.1577a2.1617,2.1617,0,0,1,.2457.3638l2.9559,5.5035a2.1808,2.1808,0,0,1-.8867,2.9446v0a2.154,2.154,0,0,1-.825.2483,2.197,2.197,0,0,1-1.3982-.3486,2.16,2.16,0,0,1-.33-.2649q-.0764-.0748-.1458-.1578a2.1562,2.1562,0,0,1-.2458-.3638l-.1395-.26L81.671,408.062a21.3011,21.3011,0,0,1,1.1035,10.9611l3.0032.9045.0851-.2825a2.1611,2.1611,0,0,1,.8752-1.1788q.0871-.0581.1792-.1075a2.1927,2.1927,0,0,1,.3852-.1619,2.1761,2.1761,0,0,1,2.7778,2.487Z" transform="translate(-12.901 -51.9473)"/></g><g class="cls-3"><path class="cls-5" d="M154.3937,339.4219a4.6135,4.6135,0,0,0,.7462,5.45,4.9454,4.9454,0,0,0,4.1923,1.2736L235.18,332.94a4.0759,4.0759,0,0,0,2.5024-1.7616,3.96,3.96,0,0,0-.1087-4.296,4.1769,4.1769,0,0,0-3.5537-1.6643L157.967,337.2259A4.8008,4.8008,0,0,0,154.3937,339.4219Z" transform="translate(-12.901 -51.9473)"/><path class="cls-5" d="M162.3747,286.462a5.4551,5.4551,0,0,0-1.2063,2.3746,5.7512,5.7512,0,0,0,.1979,2.9787,6.0811,6.0811,0,0,0,4.9019,3.6384l51.056,10.69a3.5642,3.5642,0,0,0,3.9873-3.2059,3.7282,3.7282,0,0,0-.2305-2.1534,3.8244,3.8244,0,0,0-2.3325-1.9754l-50.3706-13.5583A5.8509,5.8509,0,0,0,162.3747,286.462Z" transform="translate(-12.901 -51.9473)"/><path class="cls-5" d="M248.2356,284.5282a3.4451,3.4451,0,0,0,.7013-1.9087c.2018-2.672-2.4771-4.4192-2.6264-4.5134l-71.4162-51.9067a5.5855,5.5855,0,0,0-3.7949-1.3034c-2.6563.1824-5.2291,2.6165-5.1011,5.3606a5.4017,5.4017,0,0,0,2.1837,3.804l73.9223,51.0471C244.611,286.2012,247.1042,285.9193,248.2356,284.5282Z" transform="translate(-12.901 -51.9473)"/><path class="cls-5" d="M354.2537,594.5034a42.0115,42.0115,0,0,0-6.5876-12.4588,84.8924,84.8924,0,0,1-14.0522-27.1839c-.2306-.7611-.5273-1.7582-.8525-2.9509-2.0021-7.3446-5.1219-22.3856-1.0659-39.2034,1.752-7.2644,2.2878-10.2121,9.6033-29.5461,1.8456-4.8776,3.6889-9.7948,4.3556-15.0885-.2377-1.5876-.0236-3.5114-1.8172-4.3333a3.2773,3.2773,0,0,0-3.8177.5325,11.9281,11.9281,0,0,0-2.069,2.7232c-5.35,10.1638-10.9729,20.2145-14.6436,31.1592-3.62,10.7925-5.2825,17.0638-5.9412,26.26-1.0564,14.75,2.5586,28.37,3.5975,31.92.1075.3677.1875.6274.2317.7691a88.9657,88.9657,0,0,0,17.77,31.7756A257.1993,257.1993,0,0,1,317.6766,652.16q6.753.8926,13.527,1.6892a242.2675,242.2675,0,0,0,8.9031-23.8978c2.501-7.9745,4.4212-15.5424,5.9023-22.572q1.1652,4.873,2.2638,9.8546c2.9527,13.3976,5.3174,26.4646,7.1987,39.164q6.39.5922,12.7738,1.1019a321.9044,321.9044,0,0,0-9.9394-49.7935Q356.3743,600.8925,354.2537,594.5034Z" transform="translate(-12.901 -51.9473)"/><path class="cls-5" d="M569.3209,652.5374q6.8948-1.046,13.4894-2.2187c.9891-10.8423,1.6367-21.2671,2.0154-31.25a43.1255,43.1255,0,0,1-13.4337,7.9088Q570.6611,639.32,569.3209,652.5374Z" transform="translate(-12.901 -51.9473)"/><path class="cls-5" d="M387.1427,267.1987c7.8232-.8856,18.1694-7.1,20.6793-8.6271,1.1944-.7266,2.649-1.6212,4.3026-2.6577-.0446-.0276-.0845-.062-.1287-.09.2853-.1827.5731-.3618.8526-.5524,2.1054-1.4359,4.2829-3.1335,3.9-5.98a3.8313,3.8313,0,0,0-2.7476-3.2085,7.738,7.738,0,0,0-3.8184.2106,12.4211,12.4211,0,0,0-4.0186,1.8654c-1.33.3007-2.6505.63-3.9625,1.0255-5.2369,1.58-10.2977,4.1532-15.5489,5.8035-4.2568,2.27-6.7125,4.8887-6.498,7.1635a6.287,6.287,0,0,0,2.9262,4.3723A6.4659,6.4659,0,0,0,387.1427,267.1987Z" transform="translate(-12.901 -51.9473)"/><path class="cls-5" d="M355.3082,255.8024c-7.1156-5.3486-14.9563-9.0514-22.4274-9.6316-5.829-.103-8.1879,1.17-8.8406,3.8969-.7866,3.2866.608,5.9254,4.5036,7.5948a102.8657,102.8657,0,0,0,22.6537,6.9839c2.538.4472,5.0894.3238,6.3755-2.594C358.8057,259.256,357.211,257.2326,355.3082,255.8024Z" transform="translate(-12.901 -51.9473)"/><path class="cls-5" d="M354.5358,282.9259c-5.0918-6.52-13.3941-8.9518-18.5111-10.4506a28.5763,28.5763,0,0,0-10.5488-.5919c-1.98.2705-3.7018,1.0923-3.9482,3.3513a3.8827,3.8827,0,0,0,.4644,2.5278c.55.8085,1.4519,1.071,3.7445,1.4629a37.0654,37.0654,0,0,0,4.5534.6387c6.0691.1838,17.3349,6.5066,16.93,7.5532-.0917.2369-.8295.3273-3.7217-.3484-1.2865-.1829-5.9875-.7958-9.273.0332a3.9727,3.9727,0,0,0-2.2863,1.3053,3.4367,3.4367,0,0,0-.6806,2.5751,3.5708,3.5708,0,0,0,.867,1.6122c2.2445,2.3967,11.3948,3.5,20.29,2.783a5.0171,5.0171,0,0,0,3.07-1.207c1.9452-1.7963,1.5584-5.0223,1.4664-5.7909A10.911,10.911,0,0,0,354.5358,282.9259Z" transform="translate(-12.901 -51.9473)"/><path class="cls-5" d="M419.963,276.3676c-9.315-2.2648-18.4275-1.7107-27.02,2.7824-4.3641,2.2822-7.84,5.4975-8.5078,10.8743-.4884,3.9318,1.8621,6.1852,5.7727,5.4215a57.8134,57.8134,0,0,1,17.7043-.3342c1.8685.2122,3.3969.0963,4.0981-1.837a3.2035,3.2035,0,0,0,.1493-1.8638,4.03,4.03,0,0,0-2.0045-2.3186c-1.98-1.2186-7.1706-2.0546-14.06-2.0755a29.4884,29.4884,0,0,1,13.2115-3.2919c4.9169.0037,11.7175,1.4015,13.3295-.85a4.9583,4.9583,0,0,0,.8085-2.0423C423.6952,278.193,422.1438,276.8978,419.963,276.3676Z" transform="translate(-12.901 -51.9473)"/><path class="cls-5" d="M473.8757,302.8071a7.5414,7.5414,0,0,0-4.58-1.2073,13.4142,13.4142,0,0,0-10.9169,4.7751c-2.9018,3.3658-2.32,5.3884,1.918,6.7189,1.1931.3746,2.1288.9522,2.359,2.2046.2413,1.3128-.7159,1.7309-1.7547,2.1716-1.9538.8288-3.1539,2.3127-2.1364,4.4526.9631,2.0254,2.8722,2.2426,4.8419,1.5766,6.9861-2.3622,8.2754-6.268,4.06-12.2057a9.7893,9.7893,0,0,0-.7594-.9931c-1.566-1.6959-.509-2.6244,1.0252-3.256a3.5816,3.5816,0,0,1,3.5788.2987c1.1439.8023,2.3455,1.2429,3.1072-.3673C475.3214,305.49,475.5176,303.9293,473.8757,302.8071Z" transform="translate(-12.901 -51.9473)"/><path class="cls-5" d="M589.91,303.9163a37.0119,37.0119,0,0,0,13.53-7.5621c6.6979-6.0821,10.1-15.1634,7.5578-24.03-4.0315-14.0625-18.5188-23.8741-32.7419-23.3017,5.0723-11.4993.0837-26.2661-9.9749-34.0791-.6665-.5178-1.3524-1.0017-2.0469-1.47a57.8173,57.8173,0,0,0,8.5764-29.099c.2815-20.7371-11.78-41.6267-30.5756-50.7718a54.4,54.4,0,0,0-31.0632-4.8324,53.8182,53.8182,0,0,0-14.9063,4.2825q-1.744.7857-3.421,1.7106a40.0608,40.0608,0,0,0-.4432-6.8362,36.1587,36.1587,0,0,0-16.17-25.0068c-9.1972-5.862-20.7232-7.5393-31.4265-6.392-9.9292,1.0643-20.6263,4.4983-27.3038,12.3472a26.862,26.862,0,0,0-2.2954,3.1248A51.8753,51.8753,0,0,0,378.5586,96.136c-15.8817.4316-30.2908,8.8964-39.3109,21.8305a50.2355,50.2355,0,0,0-8.5116,21.686,31.0812,31.0812,0,0,0-21.8646,9.7584A30.0725,30.0725,0,0,0,301.407,174.67a29.7475,29.7475,0,0,0,4.5835,11.806,23.617,23.617,0,0,0-7.928,16.1652,22.3506,22.3506,0,0,0,8.0083,18.308,25.2182,25.2182,0,0,0,2.8724,2.0735,21.5509,21.5509,0,0,0-10.7,14.4775,35.8085,35.8085,0,0,0-19.0267,15.41c-4.9923,8.36-6.5283,19.4157-1.63,28.1713a21.5993,21.5993,0,0,0,4.488,5.596c-5.0143,3.7586-8.64,9.181-11.1131,14.9648-4.8792,11.4091-7.5787,28.5987,2.59,36.932a4.7324,4.7324,0,0,0,.8257,1.0218,9.7491,9.7491,0,0,1-1.4327-.1019c-3.4981,2.0211-7.0233,4.0353-10.6077,6.0328-23.848,13.29-47.2965,24.7322-70.0513,34.6068a6.94,6.94,0,0,0-3.7967,8.57c-22.3308,10.678-38.6793,18.7338-44.0584,21.4278a65.6218,65.6218,0,0,0-7.2787,4.8549,16.2815,16.2815,0,0,0-5.6214,6.5246c-3.2772,7.2614-3.9392,15.1434-5.5592,22.7918-2.0563,9.7074-1.35,18.6785,5.7359,26.6756,8.06,9.0966,15.775,18.4514,26.4552,24.6566a7.2753,7.2753,0,0,0,4.7356,1.1974c10.1251-1.2855,19.6867-4.5339,29.061-8.3887a29.1866,29.1866,0,0,0,10.6863-7.1879c1.7349-1.8928,2.6089-3.424,4.6159-7.0289,8.5167-15.2967,10.5046-19.7159,15.6288-23.5544a26.85,26.85,0,0,1,5.1976-3.0426q.934.8462,1.8739,1.7222.86.8016,1.695,1.6013a5.9914,5.9914,0,0,0,6.3854,1.2565q13.319-5.3589,26.9215-11.0849,14.9172-6.283,29.2821-12.6392c-3.01,12.5394-5.8381,25.7886-8.38,39.6953a742.866,742.866,0,0,0-10.966,93.0229q-.2445,4.5135-.432,8.9907c-.3964.3-.9722.7367-1.6638,1.2682a25.9186,25.9186,0,0,0-3.1624,2.554,6.6971,6.6971,0,0,0-.5639,1.0008,8.8228,8.8228,0,0,0-.7144,4.0592c.0737,1.9571.2184,2.3942.4356,5.9449,0,0,.0992,1.7193.1212,3.5375.0258,2.1254-8.8065,23.0549-23.8318,50.9041q2.1807.4858,4.39.96,3.9149.84,7.7627,1.6095l.6272-1.0973c19.9806-37.52,23.5322-49.8811,21.6186-52.67-.2481-.3616-1.9562-2.5561-1.3334-4.6749.4677-1.5911,2.0223-2.4751,3.2735-3.04,6.2682-2.8318,12.4164-6.038,19.484-6.45.7206-.042,2.1812.0413,2.777-.8416.7776-1.1523-.15-3.5278-1.7145-4.7658-1.1008-.8712-2.2431-1.1065-4.1673-1.1291-3.0975-.0363-4.3975.202-7.2257.0519-.194-.01-.3947-.0224-.6043-.0365a25.1177,25.1177,0,0,1-3.5528-.4968q.2382-5.3634.5666-10.7924a672.6515,672.6515,0,0,1,10.6614-85.1673c3.2256-16.8716,6.9284-32.7184,10.8786-47.47q6.0445-2.6955,12.533-5.3c8.686-3.4762,17.0832-6.4335,25.1061-8.9565a53.1108,53.1108,0,0,0,15.5006,24.2217c17.2,14.885,44.1845,16.6883,69.1234,5.234,8.1042,5.0071,16.4778,10.53,25.0276,16.6224q7.4016,5.2746,14.194,10.534c2.4108.4681,5.6984.804,6.66-.7315,1.3518-2.1583-2.6035-6.8755-4.0762-8.6321-8.3644-9.9759-59.8974-41.5375-91.6121-60.5233a28.2892,28.2892,0,0,0-23.1431-2.6976c-9.8026,3.1313-21.9573,7.2648-35.7312,12.5188-10.7607,4.1047-17.3084,6.7841-33.07,13.3775-11.8365,4.9514-28.7924,11.91-49.907,20.1124a5.0292,5.0292,0,0,1-5.6707-1.45c-3.9259-4.6591-7.9029-9.6729-11.8678-15.0552a294.4051,294.4051,0,0,1-19.8507-30.7969,3.7463,3.7463,0,0,1,1.5566-5.1623c5.1188-2.6236,11.4285-5.8333,18.6592-9.4573,6.3-3.1574,14.4276-7.4363,23.623-11.6586,9.8019-4.5009,19.283-9.092,29.8133-13.786,49.15-21.9087,73.7244-32.8631,85.72-32.9354,19.3421-.1167,36.4538,6.3689,60.9852,15.6666a299.07,299.07,0,0,1,28.3634,12.5242c9.9015,5,51.6724,26.805,76.87,54.1656a124.0928,124.0928,0,0,1,23.2528,36.0918c11.395,26.7286,15.1445,58.7217,19.19,100.4469q.361,3.7236.6937,7.7167a43.067,43.067,0,0,1,13.07,7.1678q-.678-8.7468-1.5208-16.5014c-4.0725-38.0559-8.4879-75.9176-23.8435-108.79a144.8974,144.8974,0,0,0-21.1637-33.13c11.5562,2.64,25.1848,2.2342,35.678-1.4744,25.7275-9.0928,44.99-41.9753,35.1963-68.4655A37.503,37.503,0,0,0,589.91,303.9163ZM380.4226,407.6149q11.8594,6.8075,23.3162,12.6923a34.158,34.158,0,0,1-11.716.0691,27.8406,27.8406,0,0,1-10.066-3.411c-5.7141-3.4457-9.1147-8.9832-11.6316-15.2808Q375.2772,404.66,380.4226,407.6149Zm-18.5729-3.85a38.96,38.96,0,0,0,18.1224,20.8673c15.3385,8.0132,30.2212,2.1214,32.3559,1.2343l9.6083,6.8763c-1.2621.5611-30.8184,13.1464-53.1368-4.0965a46.859,46.859,0,0,1-15.2858-21.7995ZM135.5166,447.4576c.4216-.7141.8418-.6912,1.525-.3474,9.1654,4.6136,17.8091,1.7882,26.3855-1.9128a35.1261,35.1261,0,0,1,4.5963-1.9212c1.3224-.3575,2.8466-.1819,3.404,1.415a2.6719,2.6719,0,0,1-1.3218,3.23,56.04,56.04,0,0,1-23.8648,8.5,28.1451,28.1451,0,0,1-9.1178-2.23C135.3081,453.5205,134.4636,449.2414,135.5166,447.4576Zm1.4024,13.8385c10.1634,3.17,19.3159.1923,28.1916-4.6126a16.992,16.992,0,0,1,5.1437-2.1991c1.5789-.2743,3.0292-.3673,3.6627,1.3607.61,1.6628-.4467,2.8312-1.7655,3.5972-2.5174,1.462-5.037,2.9531-7.68,4.1573a76.1818,76.1818,0,0,1-17.5762,5.2866C141.799,469.8473,138.1532,466.8829,136.919,461.2961Zm37.9294,5.3044c.9953,1.4653-.2269,2.2414-1.16,3.0769a14.5792,14.5792,0,0,1-6.6921,3.6257,5.2351,5.2351,0,0,1-1.32-.1443c-1.6239-.7875-4.2957-.6518-4.6233-2.4476-.2194-1.2026,2.4908-1.2357,3.8268-1.9286,2.0257-1.05,4.1168-1.9732,6.1476-3.0144A2.6693,2.6693,0,0,1,174.8484,466.6005Zm36.2881-38.32c2.8855,3.8757,5.7873,7.5039,8.6661,10.8945C205.0742,454.2653,200.64,461.72,199.527,465.74a19.7467,19.7467,0,0,1-3.8948,7.7494,20.1055,20.1055,0,0,1-5.3189,4.3724s-9.3434,7.2788-25.8557,9.9246c-2.1692.3476-3.9813.4779-5.7967-1.074-2.4593-2.1021-5.1305-3.9576-7.3142-6.3763-.7466-.8268-1.9232-1.6786-1.221-2.9317.7479-1.3348,2.2187-.9993,3.4151-.7193,3.4457.8067,6.8549,1.77,10.2985,2.5867a8.6459,8.6459,0,0,0,8.5783-2.537,21.6755,21.6755,0,0,1,4.117-2.8c5.3912-3.5143,6.5981-6.9219,4.3516-12.8261a2.6344,2.6344,0,0,1,.0389-2.1038,8.0369,8.0369,0,0,0-1.68-9.0059,2.6807,2.6807,0,0,1-.531-3.07c1.4047-4.4544-.1828-8.3213-4.301-10.6311a5.8936,5.8936,0,0,1-3.1005-3.6017c-1.3782-4.2589-6.1837-6.4963-11.3238-5.6067a32.2126,32.2126,0,0,0-3.3386.8169c-2.3318.6662-4.5036,1.5893-5.738-1.8923-.55-1.55-2.5013-2.0661-4.3574-1.3813-1.7391.6417-2.0088,2.0349-1.8268,3.57a22.9005,22.9005,0,0,0,.9,4.6151c1.0621,3.1468,3.29,4.2614,6.5991,3.5342,3.1485-.6918,6.28-1.4813,9.4536-2.0273,1.3847-.2383,3.22-.4057,3.6192,1.5251.3948,1.9092-1.4059,2.0212-2.641,2.41-5.7582,1.8141-11.4406,3.8928-17.5245,4.4769-4.59.4406-9.4493-3.538-9.2606-8.26.2161-1.7225.5039-3.9025.7581-6.0862.1645-1.4134,1.1647-2.03,2.2047-2.82a95.5969,95.5969,0,0,1,18.4419-10.5776c5.8727-2.6822,11.818-5.2009,17.7453-7.7588,7.7015-3.3238,13.8928-6.14,17.8647-7.9737A218.8068,218.8068,0,0,0,211.1365,428.2809ZM344.1891,199.3085c.0337-.0664.0491-.1314.0767-.1975.2568.0213.5137.0413.7708.0567q-.5969.3186-1.1935.6384A3.2426,3.2426,0,0,0,344.1891,199.3085ZM480.23,307.81a38.3519,38.3519,0,0,1-5.1665,13.9095c-.0319.0518-.0669.1067-.0993.1592q-.693.86-1.4177,1.6951c-2.19,2.5133-4.4851,5.3932-7.356,7.1446-.0151.0092-.0251.0208-.04.03a7.63,7.63,0,0,1-2.23.4809,2.419,2.419,0,0,0-2.1078,1.3476,13.6114,13.6114,0,0,1-7.3906-2.4932,1.6592,1.6592,0,0,0-2.3858.5433q-.7835,1.3691-1.5666,2.7382A443.4453,443.4453,0,0,0,408.0765,317.77c-13.57-4.2206-26.4416-7.5078-38.4035-10.0811a24.1935,24.1935,0,0,0,2.2384-2.5237,14.6387,14.6387,0,0,0,2.7842-4.883,11.53,11.53,0,0,0,.4884-3.1234c-.1576-13.4045-.4544-23.2322-.6428-25.6352a5.19,5.19,0,0,0-1.1217-3.06,4.5549,4.5549,0,0,0-1.9521-1.3048,4.4447,4.4447,0,0,0-5.0477,1.54,8.3346,8.3346,0,0,0-2.1359,5.7424c-.0422,4.3546.411,13.0776.4916,16.0208a61.3289,61.3289,0,0,1-.2541,7.4547,21.3627,21.3627,0,0,1-1.3447,1.8714,31.122,31.122,0,0,1-3.2756,3.3467c-.7381.6992-1.7914,1.7121-3.0544,2.9821-4.2175.8679-8.718,1.996-13.4336,3.4646a140.9972,140.9972,0,0,0-25.2846,10.6817c-.5918-2.8347-1.4481-7.36-2.1018-12.9658-1.54-13.2046-.6793-21.4777.094-44.672a85.445,85.445,0,0,1,8.19-24.1939c1.0158.3417,2.0289.6984,3.0365,1.0856a10.5172,10.5172,0,0,1-.6764-1.9292,2.6548,2.6548,0,0,0,.9513-1.9524,2.3564,2.3564,0,0,0-.7711-1.7653c.2154-.3629.42-.7314.6412-1.0914a2.6619,2.6619,0,0,0,.2748-.6207c.2757-.0319.5556-.0511.8276-.0886,4.9508-.6823,9.8675-2.1866,13.8531-5.2978a19.145,19.145,0,0,0,2.31-2.1354,10.7322,10.7322,0,0,0,2.4137,1.2051c3.7266,1.31,7.6692.2349,11.1579-1.2527a83.5217,83.5217,0,0,0,8.6437-4.269c-.9447,4.0084-.2514,7.9544,3.6929,10.579,3.91,2.6018,9.0925,2.0819,13.4479,1.1253a10.7421,10.7421,0,0,0,1.4444-.4271c1.65,2.1947,4.4624,3.105,7.1126,3.3495a18.6047,18.6047,0,0,0,13.9005-4.8383c3.773,2.3577,8.1147,4.4393,12.6019,3.2923a10.3163,10.3163,0,0,0,3.8075-1.89,11.9064,11.9064,0,0,0,3.5895,3.3272,14.4505,14.4505,0,0,0,9.7237,1.5066c-1.744,4.2119-2.4707,8.8643-.1742,12.9763a11.6248,11.6248,0,0,0,4.4124,4.377,2.9959,2.9959,0,0,0,.3078.4223,10.42,10.42,0,0,0,2.5087,2.06,18.5673,18.5673,0,0,0-.7232,2.92,22.1959,22.1959,0,0,0-.0341,7.9647,16.1633,16.1633,0,0,0,5.2068,8.61,18.4661,18.4661,0,0,0,2.46,1.8055,18.3665,18.3665,0,0,0-7.4679,10.8979c-.7409,3.5458-.0771,7.505,2.7517,9.9974a10.27,10.27,0,0,0,9.0866,2.2338c.2274-.0519.44-.1377.6609-.2063a2.25,2.25,0,0,0,.4989.2134,2.5724,2.5724,0,0,0,3.09-1.7546c.1448-.363.3224-.7112.5022-1.0579a9.2625,9.2625,0,0,0,1.5006-2.2423,12.5621,12.5621,0,0,1,6.8138-4.2465,10.8941,10.8941,0,0,1,10.4989,3.6514,9.2356,9.2356,0,0,1,1.0036,1.5153,2.1077,2.1077,0,0,0-.0509,2.6134,12.7826,12.7826,0,0,1,1.4631,2.9428A27.0162,27.0162,0,0,1,480.23,307.81Z" transform="translate(-12.901 -51.9473)"/></g><path class="cls-6" d="M215.5072,115.1133l-4.276,3.68-.346-.4021c-.0616-.0717-.1278-.1369-.1935-.203a3.8806,3.8806,0,0,0-1.8716-1.0437c-.0324-.0078-.065-.0147-.0981-.0217a3.9718,3.9718,0,0,0-.5094-.076c-.1152-.0086-.2268-.01-.3363-.0091-.0393,0-.0784.0026-.1176.0042-.0691.0029-.1371.0073-.2038.0138-.0527.0048-.1052.01-.1578.0169-.031.0043-.0607.01-.0912.0151a3.8741,3.8741,0,0,0-1.6865.6962c-.0848.0617-.1692.1243-.25.1939h0a3.9226,3.9226,0,0,0-.4134,5.5158l7.3291,8.5169c.0237.0252.053.056.0852.0893a3.9153,3.9153,0,0,0,5.4307.3241h0a3.9227,3.9227,0,0,0,.4134-5.5158l-.346-.4021,4.2759-3.68a38.3142,38.3142,0,0,0,17.69,8.9272l-.4219,5.6288-.529-.04a3.9227,3.9227,0,0,0-4.1926,3.6079h0a3.9228,3.9228,0,0,0,3.608,4.1927l11.2048.84a3.9049,3.9049,0,0,0,.4111.0086c.0454-.0014.0895-.0075.1346-.0105.09-.0058.1793-.0113.2675-.0232.0529-.0072.1044-.019.1567-.0283.0786-.0139.1573-.0272.2344-.0458.0546-.0133.1076-.03.1614-.046.0725-.021.1452-.0415.2161-.0665.0542-.0191.1067-.0416.16-.063.0679-.0274.1357-.0547.2017-.0857.0528-.0248.1038-.0523.1553-.0793.0634-.0334.1265-.0669.1879-.1036.05-.03.0994-.0624.1485-.0948.059-.0389.1174-.0785.1742-.1205.0475-.0351.0936-.0717.1395-.1089.0547-.0444.1083-.09.1605-.1368.0439-.04.0866-.08.1286-.1217q.0751-.0743.1461-.1523c.04-.0439.0789-.0882.1168-.1338.0451-.0543.088-.11.13-.1667.0354-.0475.07-.0951.1035-.1443.04-.059.0771-.12.1138-.181.03-.0507.0608-.1012.0889-.1534.0343-.0636.0652-.129.096-.1947.025-.0533.0506-.106.0732-.1607.0283-.0684.0526-.1387.0771-.2091.0192-.0551.04-.1094.0564-.1656.022-.074.0391-.15.0568-.2257.013-.0553.0279-.11.0384-.1659.0153-.0816.0247-.1652.0349-.2485.0064-.053.0157-.105.02-.1586l.0028-.0216c.0073-.0976.0069-.194.0069-.29,0-.0354.0035-.0714.0026-.1066,0-.0129-.0024-.0255-.0029-.0385-.0041-.117-.0124-.2329-.027-.347-.005-.0394-.0141-.0776-.02-.1167-.0133-.0825-.0258-.1653-.0443-.246a3.9258,3.9258,0,0,0-3.523-3.0474l-.1216-.0092-.4074-.03.4219-5.6288a38.312,38.312,0,0,0,18.823-6.19l3.68,4.276-.4021.346c-.0716.0617-.1369.1279-.203.1935a3.8808,3.8808,0,0,0-1.0436,1.8713c-.0078.0326-.0148.0654-.0218.0988a3.9706,3.9706,0,0,0-.0758.5082c-.0084.1122-.01.2249-.0093.3375,0,.039.0026.0779.0042.1169.003.0693.0074.1374.0138.2042.0049.0527.01.1052.017.1577.0042.0311.01.0608.015.0912a3.8744,3.8744,0,0,0,.6964,1.6868c.0617.0847.1243.169.1937.25v0a3.9228,3.9228,0,0,0,5.5158.4134l5.1379-4.4213,3.3791-2.9079a3.6952,3.6952,0,0,0,.3391-.3341c.0156-.0172.03-.0353.045-.0527a3.9221,3.9221,0,0,0,.0293-5.129h0a3.9228,3.9228,0,0,0-5.5159-.4135l-.402.3461-3.68-4.276a38.3125,38.3125,0,0,0,8.9271-17.69l5.6288.4219-.04.529v0a3.9226,3.9226,0,0,0,3.6079,4.1925h0a3.9234,3.9234,0,0,0,3.9713-2.5865,3.87,3.87,0,0,0,.2213-1.0211l0,0,.6988-9.3238.141-1.8812a3.8706,3.8706,0,0,0-.2756-1.7436,3.9191,3.9191,0,0,0-3.3324-2.4489h0a3.9227,3.9227,0,0,0-4.1926,3.608l-.04.5289-5.6288-.4219a38.3132,38.3132,0,0,0-6.19-18.823l4.2759-3.68.3461.4021a3.9227,3.9227,0,0,0,5.5158.4134h0a3.9238,3.9238,0,0,0,.9862-4.6229,3.8747,3.8747,0,0,0-.5727-.8929l-1.0717-1.2454-.0944-.11q-7.5121,2.0039-14.98,4.3343-5.028,1.5678-10.0207,3.277a25.6966,25.6966,0,0,1,5.1159,2.6594,7.6789,7.6789,0,0,1,3.0979,3.3447,6.7777,6.7777,0,0,1-.4826,6.2107,7.6255,7.6255,0,0,1-4.2791,2.9029c-2.5074.887-4.7116.8065-7.7436.4853-2.6077-.2762-4.81-.4736-7.1559-.9069a36.4507,36.4507,0,0,1-4.1747-1.0058,50.0662,50.0662,0,0,1-5.6734-1.8142,26.4169,26.4169,0,0,1-4.3563-2.479q-2.619,1.0783-5.2945,2.2294c-.1063.0457-.2122.0909-.3186.1367q-1.58.6809-3.1779,1.3875-.2061.091-.4128.183-1.6067.7125-3.2291,1.449l-.1082.0495q-1.5195.6918-3.0545,1.4085c-.1892.0882-.3779.1756-.5675.2643-.121.0567-.2411.1118-.3622.1687-.5272.2476-1.0438.4966-1.5662.7449-.5334.2535-1.071.5064-1.5993.7606-.6334.3047-1.2564.6105-1.8824.916-.5072.2475-1.02.4944-1.5223.7424q-1.65.8143-3.2646,1.6316c-.3827.1936-.7567.3877-1.1366.5815-.6484.3308-1.3.6614-1.94.9926l0,.0032a38.6513,38.6513,0,0,0,3.1368,15.4992A37.5344,37.5344,0,0,0,215.5072,115.1133Zm51.9991-13.2626c.9928-2.8867,3.948-6.5426,6.68-5.8863a3.6851,3.6851,0,0,1,2.4516,2.2953c1.339,3.6577-3.5852,9.33-6.8923,8.8265a3.3569,3.3569,0,0,1-2.3114-1.59A4.4226,4.4226,0,0,1,267.5063,101.8507ZM252.69,117.1038a21.6362,21.6362,0,0,1,3.5571-3.2145c.9861-.75,7.6651-5.8342,11.625-3.0909a4.5861,4.5861,0,0,1,1.86,2.6993c.7127,3.4708-3.6808,6.9746-7.3564,9.0616-.8912.506-1.7407.93-2.4644,1.2484-4.1273,1.817-5.8882,1.0013-6.3752.7426a4.9438,4.9438,0,0,1-2.3822-3.0873A5.386,5.386,0,0,1,252.69,117.1038Z" transform="translate(-12.901 -51.9473)"/><path class="cls-7" d="M88.572,418.19a2.1588,2.1588,0,0,0-1.27.0069,2.2,2.2,0,0,0-.3852.1618q-.0921.05-.1792.1076a2.1594,2.1594,0,0,0-.8752,1.1788l-.0851.2825-3.0032-.9045A21.3011,21.3011,0,0,0,81.671,408.062l2.7647-1.4849.1395.26a2.1611,2.1611,0,0,0,.2458.3639q.0693.0828.1458.1577a2.16,2.16,0,0,0,.33.2649,2.1972,2.1972,0,0,0,1.3982.3486,2.154,2.154,0,0,0,.825-.2483h0v0a2.1809,2.1809,0,0,0,.8868-2.9446l-2.956-5.5035a2.1657,2.1657,0,0,0-.2457-.3638q-.0695-.0829-.1459-.1577a2.1739,2.1739,0,0,0-.5109-.3713,2.2008,2.2008,0,0,0-1.0063-.2513,2.1589,2.1589,0,0,0-1.8223.9789,2.1879,2.1879,0,0,0-.3189,1.6086q.02.1048.0511.2087a2.1521,2.1521,0,0,0,.1676.4058l.1394.26h0l-1.3823.7425-1.3824.7425a21.3328,21.3328,0,0,0-7.2477-6.3428q-.6264-.3347-1.2811-.63h0l.9044-3.0033.2824.0851a2.16,2.16,0,0,0,1.27-.0069,2.2,2.2,0,0,0,.3852-.1618,2.1682,2.1682,0,0,0,1.0545-1.2864h0v0a2.1808,2.1808,0,0,0-1.4552-2.7091l-5.9817-1.8014a2.1625,2.1625,0,0,0-1.4661.0787q-.0965.0405-.1886.09a2.198,2.198,0,0,0-.3477.2318,2.16,2.16,0,0,0-.7528,2.121,2.1942,2.1942,0,0,0,.2148.5883,2.1673,2.1673,0,0,0,1.2863,1.0545l.2824.0851-.9044,3.0031q-.3544-.0576-.7085-.1031-.7081-.091-1.4139-.1339t-1.4067-.0394q-.35.0019-.6994.0152-.6978.0267-1.3885.0986-1.0354.1077-2.05.3147a21.4533,21.4533,0,0,0-3.2945.9515l-1.4849-2.7648.26-.1395a2.1582,2.1582,0,0,0,.8928-.9026,2.2008,2.2008,0,0,0,.1579-.3868,2.1627,2.1627,0,0,0-.7146-2.3179,2.1953,2.1953,0,0,0-1.569-.4724,2.154,2.154,0,0,0-.825.2483l-2.7517,1.478-2.7518,1.4779a2.1678,2.1678,0,0,0-1.0507,1.29,2.1922,2.1922,0,0,0-.082.41q-.0108.1044-.0114.21a2.1658,2.1658,0,0,0,1.7495,2.1373q.1026.02.207.0312a2.1587,2.1587,0,0,0,1.2455-.2459l.13-.07.13-.07,1.4849,2.7647a21.2877,21.2877,0,0,0-6.9729,8.5288l-3.0033-.9044h0l.0426-.1412.0425-.1412a2.1714,2.1714,0,0,0-3.11-2.54,2.202,2.202,0,0,0-.3477.2317,2.1583,2.1583,0,0,0-.7068,1.0546l-1.8014,5.9818a2.1543,2.1543,0,0,0-.0919.6457,2.1737,2.1737,0,0,0,1.7624,2.1165,2.16,2.16,0,0,0,1.0542-.06,2.208,2.208,0,0,0,.3852-.1619,2.1638,2.1638,0,0,0,1.0545-1.2864l.085-.2824,1.5016.4522,1.5016.4522h0a21.3421,21.3421,0,0,0-.2371,2.1224q-.0215.3528-.0313.7045t-.008.7022q.0018.35.0152.7a21.3637,21.3637,0,0,0,1.3647,6.7326l-2.7647,1.4849-.1395-.26a2.18,2.18,0,0,0-1.9088-1.1441,2.1569,2.1569,0,0,0-1.0359.2573,2.1832,2.1832,0,0,0-1.1053,2.33,2.1562,2.1562,0,0,0,.2186.6144l2.9558,5.5036a2.1719,2.1719,0,0,0,3.9954-.4026,2.1951,2.1951,0,0,0,.0934-.6194,2.1562,2.1562,0,0,0-.2573-1.0358l-.1395-.26,2.7647-1.485a21.3861,21.3861,0,0,0,3.7561,4.0067,21.2609,21.2609,0,0,0,4.7727,2.9664l-.9044,3.0031-.2824-.085a2.1537,2.1537,0,0,0-.858-.0792,2.174,2.174,0,0,0-.3961,4.2435l5.9817,1.8014a2.1679,2.1679,0,0,0,1.4661-.0787,2.2,2.2,0,0,0,.5363-.3218,2.1755,2.1755,0,0,0-.7483-3.7639l-.2823-.085.9043-3.0032a21.2762,21.2762,0,0,0,2.8269.2684q.7035.02,1.4016-.0071a21.332,21.332,0,0,0,5.4359-.9218q.6559-.201,1.2967-.443l1.485,2.7647-.26.14a2.1629,2.1629,0,0,0-.981,1.0924,2.2,2.2,0,0,0-.1631.8164c0,.07.0025.1405.0089.2108s.0164.1406.03.2105a2.1529,2.1529,0,0,0,.1237.414,2.1879,2.1879,0,0,0,.0949.2h0a2.1538,2.1538,0,0,0,.7216.7865q.088.0576.181.1063a2.2042,2.2042,0,0,0,.59.2086,2.1624,2.1624,0,0,0,1.4525-.2146l5.5035-2.9559a2.2075,2.2075,0,0,0,.19-.1147,2.1547,2.1547,0,0,0,.3318-.2769q.0747-.0764.141-.1591a2.1748,2.1748,0,0,0,.23-.3519q.0487-.0928.0882-.19a2.2024,2.2024,0,0,0,.12-.4,2.1769,2.1769,0,0,0-2.5447-2.5579q-.105.02-.2087.0511a2.1557,2.1557,0,0,0-.4059.1676l-.26.1395L74.17,432.9689a21.2916,21.2916,0,0,0,6.3428-7.2478q.3346-.6262.63-1.2811l3.0032.9044h0l-.0851.2825a2.1543,2.1543,0,0,0-.0919.6457,2.1743,2.1743,0,0,0,4.2562.6084l1.8015-5.9818a2.2013,2.2013,0,0,0,.0531-.2153A2.1816,2.1816,0,0,0,88.572,418.19Zm-39.78,4.5869a3.8655,3.8655,0,0,1,.5627-3.3159,2.91,2.91,0,0,1,1.88-.9385,3.5871,3.5871,0,0,1,2.6327,1.1963c2.1173,1.9527,3.2345,5.81,1.7226,7.2727a2.6176,2.6176,0,0,1-1.7888.6173C51.3709,427.6784,49.2481,425.1444,48.7918,422.7769Zm10.0354-10.6123a3.1187,3.1187,0,0,1-4.478,1.5661,2.4941,2.4941,0,0,1-.983-2.3463c.2777-1.7577,2.7459-3.0644,4.3187-2.1379A2.6833,2.6833,0,0,1,58.8272,412.1646Zm1.5034,18.45a2.7831,2.7831,0,0,1-1.0886-1.5281c-.5718-1.9113.9818-4.13,2.6972-5.163,1.53-.9209,4.107-1.4506,5.634-.07a3.2906,3.2906,0,0,1,1.0615,2.3628C68.5173,429.29,62.7653,432.19,60.3306,430.6144Z" transform="translate(-12.901 -51.9473)"/><path class="cls-7" d="M134.5452,160.9183l-1.5764,3.096-.2912-.1483a2.4224,2.4224,0,0,0-3.24,1.0535v0a2.39,2.39,0,0,0-.2373,1.4126,2.3984,2.3984,0,0,0,1.2909,1.8268l.0016.0009.6763.3443,2.81,1.4306,2.6754,1.3623.0036.0018.0012,0a2.3823,2.3823,0,0,0,.2329.103c.0262.01.0528.0171.0791.0261.0533.0182.1064.0364.16.0506l.0222.005.0733.0162c.0489.0108.0977.0217.1469.0294.0343.0054.0686.0084.103.0123.0469.0052.0938.01.1407.0128.0355.0019.0708.0019.1062.0022.046,0,.0918,0,.1375-.002.0357-.0018.0711-.0049.1066-.0082.0452-.0042.09-.0093.135-.0161.0352-.0052.07-.0114.1051-.0182.0443-.0087.0882-.0187.132-.03.0346-.0088.069-.0179.1032-.0282.0433-.0131.086-.0278.1285-.0432.0332-.012.0662-.0239.0988-.0374.0427-.0176.0844-.0373.126-.0573.0311-.0149.0623-.0293.0928-.0456s.0574-.0331.0857-.05l.0374-.0219c.0284-.0174.0571-.0337.0848-.0523.0424-.0284.083-.06.1236-.0909.0239-.0183.0486-.0352.0717-.0544.0479-.04.0933-.0826.1382-.1262.014-.0136.0291-.0257.0427-.04a2.3642,2.3642,0,0,0,.1639-.1856c.014-.0176.0261-.0371.04-.0552.0366-.0488.0728-.0979.106-.15.017-.0267.0317-.0554.0477-.083.0224-.0386.0463-.0759.0668-.1161l.011-.0246c.0153-.031.0285-.0637.0427-.0957.0207-.0468.0412-.0936.0587-.141.0092-.025.0165-.05.0248-.0754a2.38,2.38,0,0,0,.0938-.3814c.0024-.0155.0035-.0308.0055-.0463a2.45,2.45,0,0,0-1.29-2.475l-.0807-.0411-.21-.1072,1.5764-3.0959a23.5954,23.5954,0,0,0,12.1658.9523L153.37,168.02l-.3106.101a2.3859,2.3859,0,0,0-.5088.2372,2.4118,2.4118,0,0,0-1.1534,2.06,2.3836,2.3836,0,0,0,.1165.7381h0a2.3884,2.3884,0,0,0,.6319.9993,2.4293,2.4293,0,0,0,1.6909.6639c.0155,0,.0311-.0024.0466-.0029a2.3736,2.3736,0,0,0,.4291-.0506,2.4074,2.4074,0,0,0,.2372-.064l0,0,1.427-.4641,4.0235-1.3085,1.13-.3674a2.3916,2.3916,0,0,0,.2363-.0912c.0262-.0116.0506-.0259.0762-.0384.0491-.024.0984-.0478.1452-.0749.0134-.0077.026-.0164.0388-.0248l.045-.0286c.0412-.0262.0826-.0519.1218-.08l0,0,.0011-.0008c.0278-.02.0538-.0423.0806-.0635.0364-.0289.0729-.0575.1074-.0883.0264-.0236.0511-.0487.0764-.0734.0322-.0314.0644-.0628.0947-.0958.0245-.0267.0474-.0545.0705-.0822.0283-.0337.0562-.0675.0825-.1027.0217-.029.0421-.0587.0624-.0887.0246-.036.0486-.0723.0712-.11.0189-.0312.0366-.0629.0541-.0949.0208-.0381.0407-.0764.0593-.1155q.0237-.0494.0449-.1.0255-.06.0476-.1214c.0124-.0341.0243-.0683.0352-.1031.013-.0417.0245-.0839.0353-.1263.0089-.0351.0177-.07.025-.1058.009-.0433.016-.0868.0225-.1307.0053-.035.0107-.07.0144-.1053l0-.0023,0-.0033.0014-.0207c.0031-.0368.0056-.0736.0073-.1105s.0041-.0717.0042-.1078c0-.0463-.0027-.0927-.0054-.1392-.002-.0352-.0029-.07-.0065-.1057-.0049-.0486-.0133-.0972-.0212-.1459-.0055-.0332-.0094-.0665-.0163-.1-.011-.053-.0261-.1056-.0409-.1584-.0081-.0289-.0141-.0578-.0234-.0866l-.0026-.01c-.0245-.0755-.0529-.1486-.0841-.22l-.0064-.0151a2.4208,2.4208,0,0,0-2.9451-1.3107l-.108.0351-.2027.0659-1.0751-3.3057a23.5952,23.5952,0,0,0,9.2784-7.9263l3.0959,1.5764-.1482.2912a2.4223,2.4223,0,0,0,1.0535,3.2394h0a2.4089,2.4089,0,0,0,3.2394-1.0535l.0009-.0017.3443-.6762.3448-.6772,1.1111-2.1822,1.3369-2.6254.0019-.0038,0-.0012a2.4216,2.4216,0,0,0,.1031-.2331c.01-.0258.0167-.0521.0256-.078.0183-.0535.0366-.107.051-.161l.0049-.0223.0163-.0738c.0108-.0488.0217-.0974.0294-.1464.0053-.0343.0084-.0686.0122-.103.0053-.0471.01-.094.0129-.1411.0018-.0352.0019-.07.0021-.1054,0-.0462,0-.0922-.0019-.1382-.0018-.0356-.0049-.0709-.0082-.1063-.0042-.0452-.0093-.09-.016-.1349-.0053-.0353-.0115-.07-.0183-.1055q-.013-.0664-.03-.1319c-.0087-.0345-.0178-.0687-.0281-.1028-.0131-.0435-.0278-.0862-.0433-.1289-.012-.0331-.0239-.0661-.0374-.0987-.0176-.0426-.0372-.0842-.0571-.1257-.015-.0312-.0295-.0626-.0458-.0931s-.033-.0572-.05-.0855l-.0219-.0374c-.0174-.0284-.0338-.0572-.0524-.0849-.0283-.0422-.0594-.0826-.09-.123-.0184-.0241-.0356-.049-.055-.0724-.04-.0481-.0829-.0937-.1266-.1388-.0134-.0137-.0252-.0285-.0389-.0419a2.3681,2.3681,0,0,0-.1857-.1641c-.0174-.0138-.0366-.0258-.0545-.0391-.049-.0368-.0983-.0732-.1507-.1065-.0267-.017-.0554-.0316-.0829-.0476-.0386-.0225-.076-.0465-.1164-.067l-.0245-.0109c-.0311-.0155-.0639-.0287-.096-.0429-.0466-.0206-.0931-.041-.14-.0585-.0251-.0092-.0506-.0166-.0759-.025a2.3934,2.3934,0,0,0-.381-.0937c-.0155-.0023-.0309-.0035-.0465-.0055a2.4507,2.4507,0,0,0-2.4751,1.29l-.1483.2912-3.0959-1.5765a23.5953,23.5953,0,0,0,.9523-12.1658l3.3058-1.0751.101.3107a2.4226,2.4226,0,0,0,3.0356,1.5458h0a2.42,2.42,0,0,0,1.61-2.798,2.4166,2.4166,0,0,0-.064-.2377l-.0111-.0339-.0764-.2352-.0109-.0335-.1955-.6011-.1062-.3263-.029-.0893-.1081-.3324-.0976-.3-.2993-.92-.1574-.4842-.1651-.5075-.0346-.1063-.849-2.6106,0-.0007a2.4145,2.4145,0,0,0-.091-.2357c-.0115-.0256-.0254-.05-.0376-.0745-.0243-.05-.0484-.1-.0758-.147l-.016-.0251-.0364-.0571c-.0265-.0418-.0527-.0838-.0815-.1236-.02-.0279-.0424-.054-.0637-.0809-.029-.0365-.0577-.0731-.0885-.1077-.0238-.0267-.0492-.0516-.0741-.0771-.0313-.032-.0625-.064-.0954-.0942-.0266-.0244-.0543-.0472-.0819-.07-.0338-.0283-.0677-.0563-.1029-.0827-.029-.0217-.0588-.0421-.0887-.0624-.0361-.0246-.0724-.0486-.11-.0712-.0311-.0188-.0627-.0365-.0946-.054-.0382-.0208-.0766-.0407-.1158-.0594q-.0492-.0237-.1-.0449c-.04-.017-.08-.0327-.1211-.0475-.0343-.0125-.0687-.0244-.1036-.0353s-.07-.02-.1059-.03l-.02-.0055c-.0355-.0091-.0708-.0179-.1067-.0253-.043-.0089-.0862-.0158-.13-.0223-.036-.0055-.072-.0111-.1084-.0149-.0445-.0046-.0894-.0068-.1343-.0089-.0359-.0017-.0717-.004-.1078-.0041-.0462,0-.0927.0027-.1392.0053-.0353.002-.07.0029-.1056.0065-.0485.0049-.0969.0132-.1453.0211-.0336.0055-.067.01-.1.0164-.0526.011-.1049.026-.1572.0406-.0292.0082-.0586.0143-.0878.0237l-.01.0026c-.0743.0242-.1463.0523-.2166.0828l-.0186.0078a2.4234,2.4234,0,0,0-1.31,2.9449l.0351.1079.0659.2028-3.3058,1.0752a23.6066,23.6066,0,0,0-6.7569-8.4157,256.5459,256.5459,0,0,0-35.0414,30.7194A23.55,23.55,0,0,0,134.5452,160.9183Zm22.2886-30.7446a2.899,2.899,0,0,1,2.0714-.3211c2.6632.4021,4.479,3.5818,4.511,6.2523a4.2822,4.2822,0,0,1-1.2653,3.5041,3.2255,3.2255,0,0,1-2.2346.6533,3.9736,3.9736,0,0,1-2.6347-1.8218C155.3575,135.8955,154.8981,131.47,156.8338,130.1737ZM150.39,145.7a3.4546,3.4546,0,0,1,5.1895-.8267,2.7629,2.7629,0,0,1,.61,2.751c-.6484,1.8614-3.596,2.8-5.1283,1.4813A2.9721,2.9721,0,0,1,150.39,145.7Z" transform="translate(-12.901 -51.9473)"/><path class="cls-6" d="M700.2953,533.7806c-.1031-.0262-.2069-.0471-.3109-.064l-.03-.0037-.074-.0094c-.07-.0093-.1392-.0184-.2091-.0237-.0415-.0031-.0829-.0036-.1244-.0054-.0629-.0026-.1258-.0051-.1887-.0045-.0439,0-.0876.0028-.1314.0048-.06.0027-.1206.006-.1807.0116-.0446.0042-.0889.01-.1332.0156-.0589.0077-.1174.0163-.1758.0268-.0445.008-.0887.0168-.133.0264-.0575.0125-.1146.0266-.1714.0417-.0436.0117-.087.0236-.13.0368-.0569.0174-.1132.0369-.1693.0571-.0415.015-.0831.03-.1242.046-.0572.0229-.1132.0483-.1692.0741-.0383.0176-.0771.0343-.1149.0532-.0595.03-.1174.0629-.1753.096-.0324.0185-.0656.0356-.0975.0551-.0722.0441-.1423.092-.2115.1412l-.0373.0253-.0117.0079q-.1263.093-.245.1976c-.0233.0205-.0449.0433-.0677.0644-.0548.0507-.1093.1018-.1612.1562-.0281.0293-.0542.0608-.0813.0912-.0441.0495-.0881.0991-.13.1513-.0278.0348-.0538.0714-.08.1074-.038.0514-.0755.103-.111.1568-.0259.0391-.05.0794-.0747.12-.02.0322-.0411.0628-.06.0959-.0112.02-.0195.0406-.03.0607-.0327.06-.0629.1222-.0925.1849-.0221.0468-.0445.0935-.0644.1409-.03.072-.0573.1448-.0826.2178-.0127.0365-.0264.0726-.0378.1091-.0255.0812-.0463.1629-.0656.2449-.008.0339-.0173.0675-.0243.1015-.0139.0681-.0239.1361-.0336.2044-.0081.0545-.0171.1088-.0227.1634-.0023.0228-.0027.0455-.0045.0683a3.711,3.711,0,0,0,.1242,1.2756,3.6536,3.6536,0,0,0,1.7251,2.2469l.4344.2459,0,0-1.8254,3.2252-.7922,1.4h0a36.1749,36.1749,0,0,0-11.2563-2.5561c-.0475-.003-.0948-.0064-.1424-.0092q-1.1484-.0677-2.3078-.0623l-.0129,0a36.0661,36.0661,0,0,0-4.7958.3483h0l-.8234-2.9707-.5952-2.1474.0008,0,.4806-.1333a3.6942,3.6942,0,0,0,.3733-.1262c.04-.0159.0779-.0356.1173-.0528.0791-.0346.1582-.07.234-.1093.0448-.0236.0872-.05.1309-.0756.0667-.0386.133-.0774.1967-.12.0443-.03.0865-.0614.1292-.0928.059-.0432.1173-.0868.1734-.1333.0416-.0345.0816-.07.1216-.1068.053-.048.105-.0969.155-.1479.0379-.0385.0745-.0778.1105-.1178q.0714-.08.1379-.1626c.0335-.0419.0665-.0838.0981-.1271.0423-.0577.082-.1169.1209-.1769.0287-.0443.0575-.0884.0844-.1339.0371-.0631.0708-.1279.1042-.1931l.0393-.0778c.01-.0193.02-.0383.0293-.058.0324-.07.06-.1422.0885-.2143.0169-.0437.0358-.0866.0511-.1311.03-.0857.0538-.1733.077-.2613.0086-.0324.02-.0638.0274-.0965a3.65,3.65,0,0,0,.0675-.3689c.0037-.028.004-.0565.007-.0847.01-.0968.019-.194.0215-.292.0012-.046-.0018-.0925-.0024-.1388-.001-.0811-.0021-.1621-.0086-.2437-.0041-.0516-.012-.1031-.0183-.1548-.01-.0767-.0194-.1532-.0338-.23-.01-.0544-.0235-.1085-.0363-.1628-.0111-.0471-.0185-.0943-.0316-.1414-.0077-.0279-.0187-.0539-.027-.0814-.0164-.0542-.0349-.1081-.054-.1621-.0252-.0714-.0521-.1415-.0814-.21-.0277-.0652-.0557-.13-.087-.1931q-.0222-.045-.0455-.0891-.0642-.122-.1368-.237c-.0133-.0209-.0264-.0419-.04-.0626q-.0741-.1123-.1561-.2174c-.02-.0265-.0408-.0531-.0619-.079-.0426-.0517-.0868-.1014-.132-.15-.02-.0224-.0415-.0437-.0621-.0656s-.0427-.0466-.065-.0689c-.0148-.0144-.03-.028-.045-.0421A3.7123,3.7123,0,0,0,675.12,530.67a3.6174,3.6174,0,0,0-1.1492.1209l-.0012,0-3.8029,1.054-.4.111-4.8741,1.3508-.9574.2654-.1595.0442-.0022.0007a3.6832,3.6832,0,0,0-.4319.1528l-.0338.0153c-.0922.04-.1831.0812-.2707.1276a3.7027,3.7027,0,0,0-1.839,2.3392,3.6454,3.6454,0,0,0,.0126,1.8964v0a3.7027,3.7027,0,0,0,4.532,2.565l.4811-.1334h0l1.4185,5.1181q-1.1192.4752-2.1925,1.0189t-2.0985,1.1512q-1.0251.6075-2.0008,1.2768t-1.8994,1.3959q-.8631.6791-1.6783,1.4077c-.0594.0528-.1192.1052-.1782.1585q-.8367.7546-1.6232,1.5564-.77.7863-1.487,1.617-.8032.9266-1.5425,1.9027h0l-1.6716-.9461-2.9533-1.6715h0l.2461-.4347a3.674,3.674,0,0,0,.1836-3.2358c-.0177-.0423-.036-.0844-.0553-.1261-.0255-.0554-.0519-.11-.08-.1642-.037-.0708-.0751-.1409-.1168-.2093-.0137-.0227-.028-.045-.0423-.0674-.0557-.0871-.1137-.173-.1769-.2556l-.0062-.0078a3.6489,3.6489,0,0,0-1.0969-.9521v0l-.0093-.0047q-.1447-.0815-.2937-.1485c-.0727-.0327-.1465-.06-.22-.0879-.0319-.0119-.0634-.0253-.0954-.0363-.0735-.0251-.1478-.0462-.2222-.0664-.0354-.01-.0707-.02-.1063-.0283-.0692-.0166-.1388-.03-.2085-.0427q-.0676-.0121-.1354-.0216-.0912-.0129-.1827-.0211c-.0606-.0055-.1212-.0084-.1817-.0108-.0467-.0019-.0932-.004-.14-.004-.09,0-.18.0039-.27.01-.018.0012-.036.0015-.054.003a3.725,3.725,0,0,0-1.3432.38l-.023.012q-.1358.069-.2656.1491-.0316.0195-.0631.04-.1032.0666-.202.14c-.0331.0246-.0662.0489-.0985.0747-.0478.0381-.094.0782-.14.1189-.0443.0392-.0891.0776-.1317.1191-.025.0245-.0486.0506-.073.0757-.0559.0578-.1118.1155-.1642.1774q-.0869.1023-.1671.2118c-.0183.0249-.0358.0507-.0536.0763-.0606.088-.1194.1778-.173.2723l-.0014.0023-4.9511,8.7477-.0814.1439-.0016.0027-.12.2129-.056.0991,0,0a3.6579,3.6579,0,0,0-.1982.4151l-.0127.0335c-.0374.0937-.0724.1877-.1016.2829a3.7016,3.7016,0,0,0,.3436,2.9363,3.6459,3.6459,0,0,0,1.36,1.35h0a3.7023,3.7023,0,0,0,5.0113-1.38l.0071-.0112.0029-.0053.2431-.4293,2.9533,1.6715,1.6715.946a36.1266,36.1266,0,0,0-2.6277,13.7194q.0034.5958.0266,1.1938a36.1122,36.1122,0,0,0,.3217,3.6021l-5.1182,1.4185,0-.0007-.1332-.4806a3.6676,3.6676,0,0,0-.1262-.3732c-.016-.0405-.0358-.0786-.0532-.1183-.0346-.0789-.0693-.1577-.109-.2332-.0235-.0448-.05-.0871-.0754-.1306-.0387-.0668-.0775-.1333-.12-.197-.0295-.0442-.0615-.0862-.0927-.1289-.0433-.0592-.087-.1177-.1336-.1739-.0345-.0415-.07-.0813-.1065-.1212-.0481-.0531-.097-.105-.1479-.155-.0387-.0379-.0781-.0747-.1183-.1109q-.0791-.0711-.162-.1373c-.042-.0337-.0843-.0669-.1277-.0987-.0576-.0421-.1166-.0818-.1765-.12-.0444-.0287-.0884-.0576-.134-.0844-.0629-.0372-.1276-.0709-.1927-.1042l-.0778-.0392c-.0195-.01-.0388-.0205-.0587-.03-.07-.0324-.1422-.06-.2144-.0885-.0436-.0169-.0862-.0356-.13-.0509-.0858-.03-.1735-.0538-.2615-.0771-.0325-.0085-.064-.02-.0967-.0275a3.6807,3.6807,0,0,0-.3688-.0674c-.0277-.0035-.0559-.0039-.0838-.0069-.0972-.01-.1947-.019-.2932-.0215-.0458-.0013-.0921.0017-.1381.0023-.0811.001-.1622.0022-.2438.0086-.0519.0042-.1039.0121-.1559.0185-.0764.0093-.1526.0193-.229.0336-.0544.01-.1086.0236-.1629.0363-.0472.0111-.0943.0185-.1414.0316-.0279.0077-.0538.0187-.0813.0271-.0543.0163-.1084.035-.1625.054-.0711.0252-.1409.052-.21.0812-.0656.0278-.131.056-.1942.0873-.03.0147-.0588.03-.0878.045q-.1229.0647-.2385.1376c-.02.013-.0409.0258-.0611.0391q-.1132.075-.2192.1575c-.0259.02-.0517.04-.077.06-.0526.0433-.1031.0883-.1529.1343-.0218.02-.0428.0406-.0642.0608s-.0457.0419-.0675.0638c-.0154.0158-.03.0321-.0452.0481a3.7132,3.7132,0,0,0-1.0252,2.3841,3.6228,3.6228,0,0,0,.1211,1.1519l.0136.0489.0162.0583,2.495,9.0027.1636.59.0708.2555.0438.1578.0223.0808a3.65,3.65,0,0,0,.8978,1.5686,3.72,3.72,0,0,0,1.8814,1.0441,3.6461,3.6461,0,0,0,1.7529-.0476v0l.0255-.0085a3.649,3.649,0,0,0,1.2691-.6493l.0083-.0065c.0811-.0646.1581-.1337.233-.2046.02-.0185.039-.0369.0581-.0558.0567-.056.11-.1147.1632-.174.0409-.046.08-.0931.1185-.141q.0426-.0531.0832-.1078a3.6751,3.6751,0,0,0,.6062-3.1845l-.1334-.481,0,0,2.5591-.7092,2.5591-.7093h0a35.9894,35.9894,0,0,0,4.5351,7.7865c.341.4463.6882.887,1.0482,1.3152q.3773.4487.7679.8838a36.28,36.28,0,0,0,5.1338,4.715h0l-2.6176,4.6248-.4346-.246a3.7021,3.7021,0,0,0-5.0184,1.3908v0a3.6455,3.6455,0,0,0-.4705,1.8679,3.7015,3.7015,0,0,0,1.2147,2.6821c.0766.0689.1575.1338.2407.1969l.0208.0163a3.65,3.65,0,0,0,.3852.2551l.0018.0011,1.11.6279,3.7223,2.1069,2.9032,1.6431h0q3.015-2.2932,5.9647-4.8956a3.6522,3.6522,0,0,0-.8678-.682l-.4346-.2459,2.6176-4.6249q1.6324.6582,3.3289,1.1575a97.4445,97.4445,0,0,0,16.6958-22.6,105.0072,105.0072,0,0,0,8.7233-22.6055,65.5905,65.5905,0,0,1-7.4642-1.755c-13.6724-3.96-15.1667-6.5591-15.392-7.9513a6.2594,6.2594,0,0,1,.3578-3.1468,6.6182,6.6182,0,0,1,2.2215-2.5374c2.2829-1.56,8.2577-2.5242,16.1243.0315a33.4938,33.4938,0,0,1,6.6649,2.9705,100.8332,100.8332,0,0,0,.7111-22.47Zm-34.833,28.9388c-2.719,2.2891-4.5589,2.426-5.26,2.17a2.8425,2.8425,0,0,1-.7644-.4391,3.1853,3.1853,0,0,1-.89-1.55c-.2665-1.0382.1363-3.3794,2.0806-5.6415,2.5675-2.987,7.18-5.0887,9.0224-3.5951a2.0636,2.0636,0,0,1,.541.7047C671.6647,557.41,665.9343,562.3221,665.4623,562.7194Z" transform="translate(-12.901 -51.9473)"/><path class="cls-7" d="M590.777,577.6964a2.6643,2.6643,0,0,0-3.0047-2.2551h0a2.6643,2.6643,0,0,0-2.2552,3.0047l.0509.3567-.603.0859-3.1925.4549a26.0418,26.0418,0,0,0-5.33-9.9557c-.4813-.56-.9864-1.1043-1.5209-1.6279l2.3-3.0644.2882.2162h0a2.6643,2.6643,0,0,0,3.7191-.53,3.1714,3.1714,0,0,0-.8411-3.9528l-5.7927-4.3475a2.666,2.666,0,0,0-3.34.1235,2.6313,2.6313,0,0,0-.3791.4065,2.6643,2.6643,0,0,0,.53,3.7193l.103.0773.1851.1389-.1642.2188-2.1356,2.8457a26.0207,26.0207,0,0,0-13.0365-3.3424l-.5408-3.7954.3567-.0509a2.6644,2.6644,0,0,0,2.2551-3.0047l0,0a2.6642,2.6642,0,0,0-3.0047-2.255l-7.5552,1.0767h0a2.6565,2.6565,0,1,0,.75,5.26l.3568-.0508.5408,3.7954a26.0213,26.0213,0,0,0-11.5837,6.8511l-3.0644-2.3.2163-.2881h0a2.6565,2.6565,0,0,0-4.2493-3.1892l-4.581,6.1038a2.6171,2.6171,0,0,0-.1568.2346c-.0159.0267-.0287.0544-.0436.0814-.03.0542-.0595.1084-.0851.1641-.0153.0331-.0277.0669-.0415.1-.0209.0509-.0419.1016-.0595.1532-.0124.0364-.0222.0732-.0329.11-.0146.05-.0291.1-.0406.15-.0088.0381-.0155.0764-.0226.1148-.0091.05-.0175.1-.0238.15-.0049.0392-.0083.0784-.0115.1177-.004.05-.0068.0995-.008.1493q-.0015.0589,0,.118.0015.0744.0071.1487c.003.0393.0065.0786.0112.1177.0059.0493.0138.0983.0224.1472.0068.0386.0136.0772.0222.1155.0108.0492.0242.0979.038.1464.01.0369.02.0739.0322.11.0163.0495.0355.0981.0547.1468.0136.0342.026.069.0411.1028.0226.0507.0485.1.0743.1494.0157.03.03.0609.0467.09.0336.0588.071.1154.1092.1718.0126.0184.0233.0379.0364.0561a2.6123,2.6123,0,0,0,.17.2132c.0166.0186.0355.0355.0526.0538.0459.0488.0924.0974.1426.1432.0262.0238.0549.0455.0821.0684.0448.0377.0894.0754.1372.1105.0315.0231.0642.0434.0964.0649.0462.0309.0927.0616.1415.09.0255.0147.0517.0275.0775.0414a2.523,2.523,0,0,0,.3959.174c.0167.0057.0337.01.05.0151a2.7621,2.7621,0,0,0,2.9928-1.0117l.1566-.2086,3.0644,2.3a26.0217,26.0217,0,0,0-3.3424,13.0365l-3.7953.5409-.0509-.3567a2.6644,2.6644,0,0,0-3.0047-2.2552h0a2.6643,2.6643,0,0,0-2.255,3.0047l.321,2.2531.7557,5.3022a2.6643,2.6643,0,0,0,3.0046,2.2552h0a2.6644,2.6644,0,0,0,2.2551-3.0048l-.0508-.3566,3.7955-.541a26.02,26.02,0,0,0,6.851,11.5838l-2.3,3.0644-.2882-.2163a2.6642,2.6642,0,0,0-3.7192.53h0a2.6642,2.6642,0,0,0,.53,3.7192l6.1038,4.5811a2.6643,2.6643,0,0,0,3.7192-.53h0a2.6642,2.6642,0,0,0-.53-3.7192l-.2881-.2164,2.3-3.0643a26.0231,26.0231,0,0,0,13.0364,3.3424l.5409,3.7954-.3567.0508a2.6565,2.6565,0,0,0,.75,5.26l7.5553-1.0767a2.6643,2.6643,0,0,0,2.2552-3.0047h0a2.6643,2.6643,0,0,0-3.0047-2.2552l-.3567.0509L563.673,611.6a26.1168,26.1168,0,0,0,11.5838-6.8511l3.0644,2.3-.2163.2882a2.6565,2.6565,0,0,0,4.2493,3.1892l2.8087-3.7424,1.7723-2.3613a2.6643,2.6643,0,0,0-.53-3.7193,2.63,2.63,0,0,0-1.1676-.494,2.6626,2.6626,0,0,0-2.5517,1.0241l-.2163.2881-3.0644-2.3a26.0227,26.0227,0,0,0,3.3425-13.0364l2.3929-.3411,1.4024-.2.0509.3567a2.6641,2.6641,0,0,0,3.0047,2.255v0a2.6644,2.6644,0,0,0,2.2551-3.0048Zm-25.5281,25.8727c-.8891,2.1223-4.3014,2.9582-6.2485,1.3592-1.9065-1.5658-1.8131-4.9776.0258-6.3014a4.0649,4.0649,0,0,1,4.5441.3049C564.9792,599.9425,565.9286,601.9468,565.2489,603.5691Zm7.1632-12.2806c-.5236,2.3131-1.7567,4.1959-3.2484,4.4107-2.0555.2959-4.5712-2.5784-5.1148-5.4344-.7561-3.9726,2.1959-8.4727,4.6334-8.3682,1.8461.0789,3.1707,2.79,3.6313,4.3275.0237.0792.0443.16.0656.24A10.32,10.32,0,0,1,572.4121,591.2885Z" transform="translate(-12.901 -51.9473)"/><path class="cls-7" d="M598.01,172.097a2.1075,2.1075,0,0,0-2.4255,1.7168l-.0479.2809-2.9872-.511a20.5806,20.5806,0,0,0-.078-2.7427q-.097-1.0154-.2923-2.0062-.13-.66-.3014-1.3068-.2572-.97-.6058-1.9052-.2318-.623-.5025-1.2284t-.5787-1.1908l2.475-1.752h0l.1647.2326a2.09,2.09,0,0,0,.2789.32,2.115,2.115,0,0,0,1.6873.551,2.0945,2.0945,0,0,0,1.8475-2.1334,2.1116,2.1116,0,0,0-.0476-.4035q-.0219-.1-.0535-.1983a2.0857,2.0857,0,0,0-.2826-.5634l-3.4874-4.9269a2.1064,2.1064,0,0,0-1.9662-.8706,2.0911,2.0911,0,0,0-1.4165.807,2.1034,2.1034,0,0,0-.3574.7265,2.1347,2.1347,0,0,0-.0681.3976,2.09,2.09,0,0,0,.3781,1.3674l.1647.2327-2.475,1.7519h0a20.6408,20.6408,0,0,0-5.2359-4.08q-.2961-.1617-.5984-.3143a20.5741,20.5741,0,0,0-3.1716-1.2808l.5109-2.9871.2811.0481a2.0867,2.0867,0,0,0,.8321-.0259,2.1024,2.1024,0,0,0,.3844-.1314,2.1257,2.1257,0,0,0,.6561-.4644,2.0983,2.0983,0,0,0-1.1642-3.52l-5.95-1.0178a2.0872,2.0872,0,0,0-.4233-.0289c-.0695.0023-.1386.0082-.2068.0173a2.1191,2.1191,0,0,0-1.3758.7862,2.0987,2.0987,0,0,0,1.2974,3.3675l.2808.0481-.5109,2.9872h0q-.3466-.0133-.6916-.0149a20.5284,20.5284,0,0,0-5.3641.6865q-.97.2573-1.9053.6057-.623.2318-1.2283.5026t-1.1909.5787h0l-1.752-2.4751.2326-.1646a2.0908,2.0908,0,0,0,.32-.2789q.0712-.0763.1339-.1585a2.0888,2.0888,0,0,0,.215-.3478,2.1252,2.1252,0,0,0,.202-1.181q-.0119-.1009-.0336-.2011a2.08,2.08,0,0,0-.2213-.5807,2.0928,2.0928,0,0,0-1.4758-1.0356,2.127,2.127,0,0,0-.4026-.03q-.1012.0021-.2025.0139t-.201.0336a2.0814,2.0814,0,0,0-.7617.336l-4.9269,3.4875a2.0861,2.0861,0,0,0-.4537.4374,2.12,2.12,0,0,0-.417,1.5288,2.0841,2.0841,0,0,0,.2548.7818,2.1224,2.1224,0,0,0,.1148.181h0a2.0821,2.0821,0,0,0,.6066.57,2.12,2.12,0,0,0,.9549.3091c.0672.005.1347.0068.2021.0054a2.0867,2.0867,0,0,0,1.1653-.3836l.2326-.1647,1.7519,2.4751a20.6224,20.6224,0,0,0-4.69,6.4451q-.143.3086-.2763.6229-.4.9432-.7089,1.9379h0l-2.9872-.511.0481-.2809a2.1088,2.1088,0,0,0-.9406-2.1244,2.0823,2.0823,0,0,0-.7761-.3009h0a2.09,2.09,0,0,0-1.3966.2494,2.1259,2.1259,0,0,0-.4761.3721,2.0855,2.0855,0,0,0-.5058.8861,2.0666,2.0666,0,0,0-.0468.2091l-1.0179,5.95a2.0845,2.0845,0,0,0,.0824,1.0281,2.115,2.115,0,0,0,1.2256,1.2839,2.0858,2.0858,0,0,0,.4088.1134h0a2.0765,2.0765,0,0,0,.2128.0253,2.1115,2.1115,0,0,0,2.0991-1.3332,2.0879,2.0879,0,0,0,.1135-.4088l.048-.281,2.9872.511a20.5835,20.5835,0,0,0,2.3585,10.38l-2.475,1.752-.1646-.2326a2.0827,2.0827,0,0,0-.7852-.6687,2.1192,2.1192,0,0,0-1.382-.1684,2.09,2.09,0,0,0-1.3319.9427,2.1174,2.1174,0,0,0-.14,1.953,2.0875,2.0875,0,0,0,.2088.3692l3.4875,4.927a2.0976,2.0976,0,0,0,3.5976-.2842,2.12,2.12,0,0,0,.1149-1.58,2.0811,2.0811,0,0,0-.1678-.3824,2.1212,2.1212,0,0,0-.1147-.181l-.1647-.2326,2.4751-1.7519h0a20.7475,20.7475,0,0,0,1.9222,1.8239q.7658.6387,1.5956,1.2046a20.5374,20.5374,0,0,0,5.4881,2.6464l-.511,2.9871h0l-.14-.024-.14-.024a2.0827,2.0827,0,0,0-1.028.0824q-.0963.0328-.1886.0748a2.1267,2.1267,0,0,0-.35.201q-.0825.0583-.1592.1243a2.0877,2.0877,0,0,0-.617,2.2623q.0328.0963.0748.1886a2.1255,2.1255,0,0,0,.4644.6561,2.0848,2.0848,0,0,0,1.0952.5526l5.95,1.0179a2.101,2.101,0,0,0,2.4507-1.93,2.0805,2.0805,0,0,0-.1078-.8152,2.12,2.12,0,0,0-1.0362-1.1988,2.0921,2.0921,0,0,0-.5981-.1986l-.2809-.0481.5109-2.9871q.3466.0133.6916.0149a20.5782,20.5782,0,0,0,9.6886-2.3735l1.752,2.4751-.1163.0823-.1163.0823a2.0881,2.0881,0,0,0-.7491.9715,2.1252,2.1252,0,0,0-.13.59q-.0075.1008-.0055.2022a2.0924,2.0924,0,0,0,1.9452,2.0443q.1008.0075.2022.0055a2.1116,2.1116,0,0,0,.4035-.0476q.1-.0218.1984-.0535a2.0834,2.0834,0,0,0,.5633-.2825l4.9269-3.4875a2.0973,2.0973,0,0,0-.47-3.678,2.128,2.128,0,0,0-.7923-.1355,2.0855,2.0855,0,0,0-1.1653.3835l-.2325.1647-1.752-2.475a20.622,20.622,0,0,0,4.3942-5.8343q.3049-.6048.5718-1.2337a20.5847,20.5847,0,0,0,.7089-1.9379l2.9872.5109-.0481.281a2.1012,2.1012,0,0,0,4.1422.7085l1.0178-5.95A2.1074,2.1074,0,0,0,598.01,172.097Zm-18.4414,11.5084c-.4359.2134-3.4742,1.7016-5.364.2695a3.3229,3.3229,0,0,1-1.116-1.6622,4.3528,4.3528,0,0,1,1.0695-4.0293,12.8323,12.8323,0,0,1,5.3325-4.17,3.4489,3.4489,0,0,1,2.8565.0373,3.6932,3.6932,0,0,1,1.6854,2.4558C584.6234,179.219,582.2246,182.3045,579.5687,183.6054Z" transform="translate(-12.901 -51.9473)"/><path class="cls-8" d="M582.3472,174.0505a3.4489,3.4489,0,0,0-2.8565-.0373,12.8323,12.8323,0,0,0-5.3325,4.17,4.3528,4.3528,0,0,0-1.0695,4.0293,3.3229,3.3229,0,0,0,1.116,1.6622c1.89,1.4321,4.9281-.0561,5.364-.2695,2.6559-1.3009,5.0547-4.3864,4.4639-7.0991A3.6932,3.6932,0,0,0,582.3472,174.0505Z" transform="translate(-12.901 -51.9473)"/><path class="cls-7" d="M559.7792,324.0706a1.18,1.18,0,0,0-1.3575.9609l-.0269.1572-1.6719-.286a11.518,11.518,0,0,0-.0436-1.535q-.0543-.5684-.1636-1.1229-.0726-.3695-.1687-.7314-.144-.5427-.339-1.0663-.13-.3487-.2813-.6875t-.3239-.6665l1.3853-.9806h0l.0921.13a1.17,1.17,0,0,0,.1561.1789,1.184,1.184,0,0,0,.9444.3084,1.1721,1.1721,0,0,0,1.034-1.194,1.1826,1.1826,0,0,0-.0266-.2259c-.0082-.0373-.0181-.0743-.03-.111a1.17,1.17,0,0,0-.1581-.3153l-1.9519-2.7575a1.179,1.179,0,0,0-1.1-.4873,1.17,1.17,0,0,0-.7929.4516,1.1813,1.1813,0,0,0-.0265,1.3945l.0922.13-1.3852.9806h0a11.5562,11.5562,0,0,0-2.9305-2.2835q-.1658-.09-.335-.1759a11.4968,11.4968,0,0,0-1.7751-.7168l.286-1.6719.1573.0269a1.189,1.189,0,0,0,.1191.0142,1.163,1.163,0,0,0,.3466-.0287,1.179,1.179,0,0,0,.8282-.7176,1.1659,1.1659,0,0,0,.0635-.2288,1.1794,1.1794,0,0,0-.9609-1.3574l-3.33-.57a1.1757,1.1757,0,0,0-.237-.0162q-.0583.002-.1157.01a1.1859,1.1859,0,0,0-.77.44,1.166,1.166,0,0,0-.2348.5273,1.1794,1.1794,0,0,0,.9609,1.3574l.1572.0269-.286,1.6719h0q-.194-.0073-.3871-.0083a11.49,11.49,0,0,0-3.0022.3842q-.5428.144-1.0664.339-.3486.13-.6875.2813t-.6665.3239h0l-.9805-1.3852.13-.0922a1.17,1.17,0,0,0,.179-.1561q.04-.0428.075-.0887a1.1714,1.1714,0,0,0,.12-.1947,1.1885,1.1885,0,0,0,.113-.6609,1.14,1.14,0,0,0-.0188-.1126,1.16,1.16,0,0,0-.0711-.22,1.1769,1.1769,0,0,0-.0527-.1054,1.1956,1.1956,0,0,0-.0642-.1013,1.1723,1.1723,0,0,0-.7618-.4783,1.1884,1.1884,0,0,0-.2253-.0168c-.0378.0008-.0756.0033-.1134.0078s-.0752.0107-.1125.0188a1.1646,1.1646,0,0,0-.4263.188l-2.7575,1.9519a1.1672,1.1672,0,0,0-.254.2449,1.1867,1.1867,0,0,0-.2334.8556,1.174,1.174,0,0,0,.0488.2236,1.16,1.16,0,0,0,.0939.214,1.1473,1.1473,0,0,0,.0642.1013h0a1.1661,1.1661,0,0,0,.34.319,1.1856,1.1856,0,0,0,.5344.173c.0376.0028.0754.0039.1132.0031a1.168,1.168,0,0,0,.6521-.2147l.13-.0922.9805,1.3853a11.5435,11.5435,0,0,0-2.6247,3.6073q-.08.1727-.1547.3486a11.539,11.539,0,0,0-.3967,1.0846h0l-1.6719-.286.0269-.1572a1.18,1.18,0,0,0-.5265-1.189,1.16,1.16,0,0,0-.2056-.105,1.1729,1.1729,0,0,0-.2288-.0635h0a1.1685,1.1685,0,0,0-.4658.0145,1.1847,1.1847,0,0,0-.78.6116,1.1669,1.1669,0,0,0-.1111.3348l-.57,3.33a1.1649,1.1649,0,0,0,.0461.5754,1.1833,1.1833,0,0,0,.6859.7186,1.1679,1.1679,0,0,0,.2288.0635h0a1.1755,1.1755,0,0,0,1.2939-.732,1.1659,1.1659,0,0,0,.0635-.2288l.0269-.1573,1.6719.286a11.52,11.52,0,0,0,1.32,5.81l-1.3852.9806-.0922-.13a1.1661,1.1661,0,0,0-.4394-.3743,1.1906,1.1906,0,0,0-.5477-.1208,1.1692,1.1692,0,0,0-.9712.5542,1.1748,1.1748,0,0,0,.0386,1.3l1.9519,2.7576a1.1646,1.1646,0,0,0,.1561.1789,1.1762,1.1762,0,0,0,1.8279-1.4365,1.1956,1.1956,0,0,0-.0642-.1013l-.0922-.13,1.3853-.9805h0a11.6165,11.6165,0,0,0,1.0758,1.0208q.4287.3575.8931.6742a11.4936,11.4936,0,0,0,3.0716,1.4812l-.286,1.6718h0l-.0786-.0134-.0787-.0134a1.1648,1.1648,0,0,0-.5753.0461c-.0359.0123-.0712.0262-.1056.0419a1.1967,1.1967,0,0,0-.196.1124q-.0461.0327-.089.07a1.1685,1.1685,0,0,0-.3454,1.2662q.0185.0538.0419.1055a1.1884,1.1884,0,0,0,.1124.196,1.2024,1.2024,0,0,0,.1475.1713,1.1676,1.1676,0,0,0,.613.3093l3.33.57a1.18,1.18,0,0,0,1.3575-.9609,1.1925,1.1925,0,0,0,.0142-.1191,1.1691,1.1691,0,0,0-.06-.4563,1.1869,1.1869,0,0,0-.58-.6709,1.1658,1.1658,0,0,0-.2177-.085q-.0573-.0159-.1171-.0262l-.1572-.0269.286-1.6718q.1939.0073.3871.0083a11.52,11.52,0,0,0,5.4226-1.3284l.9805,1.3852-.0651.0461-.065.046a1.169,1.169,0,0,0-.4193.5438,1.19,1.19,0,0,0-.0728.33c-.0028.0376-.0039.0753-.0031.1131a1.1711,1.1711,0,0,0,1.0887,1.1442c.0376.0028.0754.0039.1132.0031a1.1825,1.1825,0,0,0,.2258-.0266c.0373-.0082.0744-.0181.1111-.03a1.1639,1.1639,0,0,0,.3152-.1581l2.7575-1.9519a1.1683,1.1683,0,0,0,.4193-.5437,1.1713,1.1713,0,0,0-.6825-1.5149,1.1924,1.1924,0,0,0-.4435-.0758,1.1687,1.1687,0,0,0-.6522.2147l-.13.0921-.9806-1.3852a11.5393,11.5393,0,0,0,2.4594-3.2654q.1707-.3385.32-.69a11.532,11.532,0,0,0,.3968-1.0846l1.6719.2859-.0269.1573a1.176,1.176,0,0,0,2.3184.3966l.57-3.33A1.1794,1.1794,0,0,0,559.7792,324.0706Zm-10.3215,6.4411c-.2439.1195-1.9445.9524-3.0021.1509a1.86,1.86,0,0,1-.6247-.93,2.4364,2.4364,0,0,1,.5986-2.2552,7.1815,7.1815,0,0,1,2.9846-2.334,1.93,1.93,0,0,1,1.5987.0209,2.067,2.067,0,0,1,.9433,1.3744C552.2868,328.0567,550.9442,329.7836,549.4577,330.5117Z" transform="translate(-12.901 -51.9473)"/><path class="cls-8" d="M551.0128,325.164a1.93,1.93,0,0,0-1.5987-.0209,7.1815,7.1815,0,0,0-2.9846,2.334,2.4364,2.4364,0,0,0-.5986,2.2552,1.86,1.86,0,0,0,.6247.93c1.0576.8015,2.7582-.0314,3.0021-.1509,1.4865-.7281,2.8291-2.455,2.4984-3.9733A2.067,2.067,0,0,0,551.0128,325.164Z" transform="translate(-12.901 -51.9473)"/><path class="cls-6" d="M276.5605,598.5519a2.2888,2.2888,0,0,0-3.2229.17l-.207.23-2.4467-2.2018a22.3436,22.3436,0,0,0,1.5192-2.5637q.5-.9886.8952-2.0118.2637-.6813.4811-1.3748.3262-1.04.5488-2.1008.1485-.7065.2509-1.4195t.1593-1.4291l3.2889-.1733h0l.0163.3091a2.273,2.273,0,0,0,.0707.4554,2.2972,2.2972,0,0,0,1.23,1.4845,2.2745,2.2745,0,0,0,2.9338-.8875,2.2888,2.2888,0,0,0,.19-.3981q.0381-.1046.0659-.2132a2.2622,2.2622,0,0,0,.0673-.6811l-.3448-6.5469a2.288,2.288,0,0,0-1.3-1.94,2.27,2.27,0,0,0-2.5184.3793,2.3172,2.3172,0,0,0-.2931.3257,2.27,2.27,0,0,0-.4459,1.4749l.0163.3091-3.2888.1733h0a22.418,22.418,0,0,0-2.4416-6.7831q-.178-.32-.3673-.6358a22.3392,22.3392,0,0,0-2.17-3.0156l2.2017-2.4466.23.2072a2.2851,2.2851,0,0,0,.1807.1467,2.2681,2.2681,0,0,0,1.0276.4144,2.3086,2.3086,0,0,0,.8718-.0459,2.279,2.279,0,0,0,.9729-3.908L269.86,559.47a2.268,2.268,0,0,0-.372-.272q-.0978-.0573-.2-.1041a2.3015,2.3015,0,0,0-1.7193-.076,2.2793,2.2793,0,0,0-.7619,3.8447l.23.207-2.2018,2.4467h0q-.3107-.2132-.6264-.4147a22.297,22.297,0,0,0-5.3238-2.4808q-1.04-.3263-2.1008-.5488-.7065-.1483-1.4195-.2509t-1.4292-.1594h0l-.1733-3.2888.3091-.0163a2.2658,2.2658,0,0,0,.4554-.0706q.11-.0288.215-.0679a2.2716,2.2716,0,0,0,.3991-.1947,2.3065,2.3065,0,0,0,.87-.9673q.0477-.1.0858-.2041a2.2718,2.2718,0,0,0-.621-2.4685,2.3068,2.3068,0,0,0-.3522-.2611q-.0944-.0569-.194-.1046t-.2042-.0858a2.2605,2.2605,0,0,0-.8943-.1332l-6.5468.3449a2.2648,2.2648,0,0,0-.67.1385,2.2958,2.2958,0,0,0-1.4213,1.5793,2.2545,2.2545,0,0,0-.0677.4483,2.2889,2.2889,0,0,0,0,.2328l0,0h0a2.26,2.26,0,0,0,.2264.8753,2.302,2.302,0,0,0,.6976.8377q.088.0653.1824.1222a2.2651,2.2651,0,0,0,1.2925.3236l.3091-.0164.1732,3.2889a22.4,22.4,0,0,0-8.0445,3.1984q-.31.2-.6149.4117a22.3714,22.3714,0,0,0-1.775,1.3684h0l-2.4467-2.2018.2072-.23a2.2824,2.2824,0,0,0-.17-3.2228h0a2.2713,2.2713,0,0,0-1.4271-.581,2.31,2.31,0,0,0-.653.0656,2.27,2.27,0,0,0-1.1427.6851l-4.3855,4.8732a2.2642,2.2642,0,0,0-.5206.9918,2.297,2.297,0,0,0,.3808,1.89,2.2679,2.2679,0,0,0,.31.3412l0,0h0a2.2806,2.2806,0,0,0,2.8814.14,2.2577,2.2577,0,0,0,.3413-.3095l.2071-.23,2.4466,2.2017a22.3553,22.3553,0,0,0-3.8546,10.9l-3.2888.1733-.0163-.3091a2.262,2.262,0,0,0-.3332-1.0694,2.3032,2.3032,0,0,0-1.1714-.9563,2.27,2.27,0,0,0-1.77.0932,2.2808,2.2808,0,0,0-1.2835,2.1726l.3449,6.5469a2.2782,2.2782,0,0,0,3.4684,1.8256,2.3015,2.3015,0,0,0,1.0221-1.3846,2.2616,2.2616,0,0,0,.0677-.4484,2.287,2.287,0,0,0,0-.2327l-.0163-.3091,3.2889-.1732h0a22.5227,22.5227,0,0,0,.7073,2.79q.3327,1.03.7664,2.0315a22.3076,22.3076,0,0,0,3.5047,5.6132l-2.2017,2.4465h0l-.1151-.1035-.1151-.1035a2.2634,2.2634,0,0,0-.9917-.5206q-.1075-.0257-.2166-.0407a2.31,2.31,0,0,0-.4381-.0185c-.073.0038-.1459.0111-.2182.0219a2.2677,2.2677,0,0,0-1.8788,1.72q-.0256.1074-.0407.2165a2.31,2.31,0,0,0,.0459.8718,2.2656,2.2656,0,0,0,.6852,1.1427l4.8732,4.3855a2.2888,2.2888,0,0,0,3.2228-.17,2.2617,2.2617,0,0,0,.5206-.9917,2.3049,2.3049,0,0,0-.2563-1.7018,2.2642,2.2642,0,0,0-.4341-.5293l-.23-.2071,2.2017-2.4466q.31.2132.6265.4147a22.3478,22.3478,0,0,0,10.2732,3.44l.1733,3.2888-.1545.0081-.1546.0082a2.2626,2.2626,0,0,0-.8754.2264,2.3019,2.3019,0,0,0-.8376.6976q-.0654.0882-.1223.1825a2.2726,2.2726,0,0,0,.6005,3.0055q.0882.0652.1825.1222a2.2858,2.2858,0,0,0,.3981.19q.1044.038.2132.0659a2.2619,2.2619,0,0,0,.6811.0673l6.5469-.3448a2.278,2.278,0,0,0,1.7013-3.65,2.3131,2.3131,0,0,0-.649-.584,2.2651,2.2651,0,0,0-1.2925-.3236l-.309.0163-.1733-3.2888a22.3987,22.3987,0,0,0,7.4189-2.8089q.6308-.3783,1.2406-.8012a22.3923,22.3923,0,0,0,1.7749-1.3683l2.4467,2.2017-.2071.23a2.2821,2.2821,0,0,0,3.3927,3.0531l4.3854-4.8732A2.2889,2.2889,0,0,0,276.5605,598.5519Zm-23.6088-.1281c-.524-.0567-4.1772-.4524-5.0818-2.8635a3.6088,3.6088,0,0,1-.0608-2.1736,4.7273,4.7273,0,0,1,3.319-3.08,13.9369,13.9369,0,0,1,7.3154-.7366,3.746,3.746,0,0,1,2.6013,1.691,4.0114,4.0114,0,0,1,.1234,3.2326C260.1373,597.3276,256.145,598.77,252.9517,598.4238Z" transform="translate(-12.901 -51.9473)"/><path class="cls-8" d="M261.0448,591.2614a3.746,3.746,0,0,0-2.6013-1.691,13.9369,13.9369,0,0,0-7.3154.7366,4.7273,4.7273,0,0,0-3.319,3.08,3.6088,3.6088,0,0,0,.0608,2.1736c.9046,2.4111,4.5578,2.8068,5.0818,2.8635,3.1933.3459,7.1856-1.0962,8.2165-3.93A4.0114,4.0114,0,0,0,261.0448,591.2614Z" transform="translate(-12.901 -51.9473)"/><path class="cls-6" d="M141.9588,543.2682a.9635.9635,0,0,0-1.3567.0714l-.0872.0969-1.03-.9268a9.4262,9.4262,0,0,0,.6395-1.0793q.21-.4161.3769-.8469.1109-.2868.2025-.5787.1372-.4377.231-.8844.0625-.2975.1056-.5975t.0671-.6017l1.3845-.0729h0l.0069.13a.951.951,0,0,0,.03.1917.9671.9671,0,0,0,.5177.6249.9514.9514,0,0,0,.4625.0922.9667.9667,0,0,0,.8527-.6333c.0106-.0294.02-.0593.0277-.09a.9529.9529,0,0,0,.0283-.2867l-.1451-2.756a.9631.9631,0,0,0-.5475-.8166.9558.9558,0,0,0-.7446-.0339.9613.9613,0,0,0-.3155.1935.9728.9728,0,0,0-.1234.1371.9554.9554,0,0,0-.1877.6209l.0068.13-1.3844.073h0a9.4379,9.4379,0,0,0-1.0279-2.8555q-.075-.1349-.1546-.2676a9.4075,9.4075,0,0,0-.9133-1.2695l.9269-1.03.0969.0872a.9524.9524,0,0,0,.5086.2362.97.97,0,0,0,.5422-.0811.96.96,0,0,0,.2344-1.5833l-2.0515-1.8461a.9556.9556,0,0,0-.1566-.1146q-.0411-.024-.0841-.0437a.9663.9663,0,0,0-.8932.047.96.96,0,0,0-.1513,1.5394l.0968.0872-.9268,1.03h0q-.1308-.09-.2637-.1746a9.3907,9.3907,0,0,0-2.2412-1.0444q-.4377-.1372-.8843-.231-.2974-.0624-.5976-.1056t-.6016-.0671h0l-.073-1.3845.13-.0068a.9583.9583,0,0,0,.1916-.03.9423.9423,0,0,0,.09-.0285.9616.9616,0,0,0,.1681-.082.9714.9714,0,0,0,.3664-.4072q.02-.0419.0361-.0859a.9569.9569,0,0,0-.2614-1.0392.9729.9729,0,0,0-.1483-.11q-.04-.0238-.0817-.044a.927.927,0,0,0-.0859-.0361.9508.9508,0,0,0-.3765-.0561l-2.756.1452a.9522.9522,0,0,0-.2822.0583.9692.9692,0,0,0-.5344.4891.9511.9511,0,0,0-.0924.3645.9406.9406,0,0,0,0,.0979v0h0a.9537.9537,0,0,0,.0953.3685.9692.9692,0,0,0,.2937.3526c.0247.0183.05.0355.0768.0514a.9529.9529,0,0,0,.5441.1362l.13-.0068.0729,1.3845a9.4257,9.4257,0,0,0-3.3864,1.3464q-.1306.0843-.2589.1733a9.4014,9.4014,0,0,0-.7472.576h0l-1.03-.9269.0872-.0968a.9639.9639,0,0,0,.1551-1.0508.95.95,0,0,0-.0962-.1622.9623.9623,0,0,0-.13-.1437h0a.9539.9539,0,0,0-.328-.1932.9648.9648,0,0,0-.2727-.0514.9753.9753,0,0,0-.2749.0276.9525.9525,0,0,0-.4811.2885l-1.8461,2.0514a.95.95,0,0,0-.1583.2408.96.96,0,0,0,.23,1.1159h0a.9427.9427,0,0,0,.0761.0618.9611.9611,0,0,0,1.2806-.1332l.0871-.0969,1.03.9269a9.41,9.41,0,0,0-1.6227,4.5883l-1.3845.073-.0068-.13a.9528.9528,0,0,0-.14-.45.97.97,0,0,0-.4931-.4026.9551.9551,0,0,0-.745.0393.9607.9607,0,0,0-.54.9145l.1452,2.7561a.9592.9592,0,0,0,1.46.7685.9689.9689,0,0,0,.43-.5829.9426.9426,0,0,0,.0285-.1887.9709.9709,0,0,0,0-.098l-.0069-.13,1.3845-.073h0a9.469,9.469,0,0,0,.2978,1.1744q.14.4338.3226.8552a9.3913,9.3913,0,0,0,1.4754,2.363l-.9269,1.03h0l-.0484-.0436-.0485-.0436a.9511.9511,0,0,0-.4175-.2191c-.03-.0072-.0606-.0129-.0912-.0171a.9722.9722,0,0,0-.1844-.0079c-.0307.0017-.0614.0047-.0918.0093a.9541.9541,0,0,0-.7909.7238q-.0108.0453-.0171.0912a.97.97,0,0,0,.0193.367.9544.9544,0,0,0,.2884.481l2.0514,1.8461a.9635.9635,0,0,0,1.3567-.0714.9789.9789,0,0,0,.0618-.0761.949.949,0,0,0,.0965-.1647.9593.9593,0,0,0,.0609-.1767.97.97,0,0,0-.1079-.7164.9494.9494,0,0,0-.1827-.2228l-.0969-.0872.9269-1.03q.1306.09.2637.1746a9.4081,9.4081,0,0,0,4.3247,1.4481l.0729,1.3845-.065.0034-.0651.0034a.9548.9548,0,0,0-.5267.1927.97.97,0,0,0-.1944.1963q-.0276.0372-.0515.0768a.9567.9567,0,0,0,.2528,1.2652c.0247.0184.05.0356.0768.0515a.959.959,0,0,0,.1676.08c.0293.0107.0593.02.09.0278a.9535.9535,0,0,0,.2868.0283l2.756-.1452a.9517.9517,0,0,0,.3685-.0953.9579.9579,0,0,0,.3477-1.4413.974.974,0,0,0-.2732-.2458.9546.9546,0,0,0-.5441-.1363l-.13.0069-.073-1.3845a9.428,9.428,0,0,0,3.1231-1.1824q.2655-.1593.5223-.3373a9.42,9.42,0,0,0,.7472-.576l1.03.9268-.0872.0969a.9607.9607,0,0,0,1.4282,1.2852l1.8462-2.0514A.9636.9636,0,0,0,141.9588,543.2682Zm-9.9385-.0539c-.2206-.0239-1.7584-.19-2.1392-1.2055a1.5186,1.5186,0,0,1-.0256-.915,1.99,1.99,0,0,1,1.3972-1.2964,5.8666,5.8666,0,0,1,3.0795-.31,1.5768,1.5768,0,0,1,1.095.7118,1.6886,1.6886,0,0,1,.052,1.3609C135.0452,542.7528,133.3646,543.36,132.02,543.2143Z" transform="translate(-12.901 -51.9473)"/><path class="cls-8" d="M135.4272,540.1991a1.5768,1.5768,0,0,0-1.095-.7118,5.8666,5.8666,0,0,0-3.0795.31,1.99,1.99,0,0,0-1.3972,1.2964,1.5186,1.5186,0,0,0,.0256.915c.3808,1.015,1.9186,1.1816,2.1392,1.2055,1.3443.1455,3.0249-.4615,3.4589-1.6543A1.6886,1.6886,0,0,0,135.4272,540.1991Z" transform="translate(-12.901 -51.9473)"/><path class="cls-8" d="M243.7827,82.6306a49.8676,49.8676,0,0,0,5.6465,1.8055,36.2891,36.2891,0,0,0,4.1548,1.0011c1.9841.3571,4.1062.5831,7.1219.9026,3.0176.32,5.2113.4,7.7069-.483a7.5907,7.5907,0,0,0,4.2588-2.8891,6.7458,6.7458,0,0,0,.48-6.1812,7.6414,7.6414,0,0,0-3.0832-3.3288,25.57,25.57,0,0,0-5.0915-2.6468q-5.4582,1.7295-11.2028,3.79c-.0879.0316-.1744.0615-.2624.0932-4.92,1.7752-9.61,3.61-14.0648,5.4691A26.2937,26.2937,0,0,0,243.7827,82.6306Z" transform="translate(-12.901 -51.9473)"/><path class="cls-8" d="M253.5343,124.5554c.4869.2587,2.2481,1.0745,6.3758-.7426.7237-.3187,1.5733-.7425,2.4646-1.2486,3.6759-2.0872,8.07-5.5913,7.3571-9.0625a4.5864,4.5864,0,0,0-1.86-2.7c-3.96-2.7436-10.64,2.3407-11.6261,3.0912a21.6356,21.6356,0,0,0-3.5574,3.2148,5.386,5.386,0,0,0-1.5361,4.36A4.9438,4.9438,0,0,0,253.5343,124.5554Z" transform="translate(-12.901 -51.9473)"/><path class="cls-8" d="M270.299,106.819c3.2911.5012,8.1914-5.1437,6.8588-8.7837a3.6673,3.6673,0,0,0-2.44-2.2842c-2.7192-.6531-5.66,2.9851-6.6481,5.8578a4.4014,4.4014,0,0,0-.0713,3.628A3.34,3.34,0,0,0,270.299,106.819Z" transform="translate(-12.901 -51.9473)"/><path class="cls-8" d="M67.5732,423.8531c-1.527-1.38-4.1039-.8507-5.634.07-1.7154,1.0326-3.269,3.2517-2.6972,5.163a2.7831,2.7831,0,0,0,1.0886,1.5281c2.4347,1.5758,8.1867-1.324,8.3041-4.3985A3.2906,3.2906,0,0,0,67.5732,423.8531Z" transform="translate(-12.901 -51.9473)"/><path class="cls-8" d="M55.59,426.9915c1.5119-1.4622.3947-5.32-1.7226-7.2727a3.5871,3.5871,0,0,0-2.6327-1.1963,2.91,2.91,0,0,0-1.88.9385,3.8655,3.8655,0,0,0-.5627,3.3159c.4563,2.3675,2.5791,4.9015,5.01,4.8319A2.6176,2.6176,0,0,0,55.59,426.9915Z" transform="translate(-12.901 -51.9473)"/><path class="cls-8" d="M57.6849,409.2465c-1.5728-.9265-4.041.38-4.3187,2.1379a2.4941,2.4941,0,0,0,.983,2.3463,3.1187,3.1187,0,0,0,4.478-1.5661A2.6833,2.6833,0,0,0,57.6849,409.2465Z" transform="translate(-12.901 -51.9473)"/><path class="cls-8" d="M159.9055,140.2689a3.2251,3.2251,0,0,0,2.2348-.6534,4.283,4.283,0,0,0,1.2655-3.5044c-.032-2.6707-1.848-5.8508-4.5115-6.2529a2.8987,2.8987,0,0,0-2.0716.3212c-1.9358,1.2968-1.4764,5.7223.4478,8.2676A3.9744,3.9744,0,0,0,159.9055,140.2689Z" transform="translate(-12.901 -51.9473)"/><path class="cls-8" d="M156.19,147.6245a2.7629,2.7629,0,0,0-.61-2.751,3.4546,3.4546,0,0,0-5.1895.8267,2.9721,2.9721,0,0,0,.6714,3.4056C152.5935,150.425,155.5411,149.4859,156.19,147.6245Z" transform="translate(-12.901 -51.9473)"/><path class="cls-8" d="M676.795,553.2484a6.6182,6.6182,0,0,0-2.2215,2.5374,6.2594,6.2594,0,0,0-.3578,3.1468c.2253,1.3922,1.72,3.9915,15.392,7.9513a65.5905,65.5905,0,0,0,7.4642,1.755,109.3851,109.3851,0,0,0,2.5123-12.3885,33.4938,33.4938,0,0,0-6.6649-2.9705C685.0527,550.7242,679.0779,551.6887,676.795,553.2484Z" transform="translate(-12.901 -51.9473)"/><path class="cls-8" d="M669.651,553.6638c-1.8423-1.4936-6.4549.6081-9.0224,3.5951-1.9443,2.2621-2.3471,4.6033-2.0806,5.6415a3.1853,3.1853,0,0,0,.89,1.55,2.8425,2.8425,0,0,0,.7644.4391c.7008.2563,2.5407.1194,5.26-2.17.472-.3973,6.2024-5.3092,4.73-8.3509A2.0636,2.0636,0,0,0,669.651,553.6638Z" transform="translate(-12.901 -51.9473)"/><path class="cls-8" d="M572.3136,586.2241c-.4606-1.5379-1.7852-4.2486-3.6313-4.3275-2.4375-.1045-5.3895,4.3956-4.6334,8.3682.5436,2.856,3.0593,5.73,5.1148,5.4344,1.4917-.2148,2.7248-2.0976,3.2484-4.4107a10.32,10.32,0,0,0-.0329-4.8245C572.3579,586.3839,572.3373,586.3033,572.3136,586.2241Z" transform="translate(-12.901 -51.9473)"/><path class="cls-8" d="M563.57,598.9318a4.0649,4.0649,0,0,0-4.5441-.3049c-1.8389,1.3238-1.9323,4.7356-.0258,6.3014,1.9471,1.599,5.3594.7631,6.2485-1.3592C565.9286,601.9468,564.9792,599.9425,563.57,598.9318Z" transform="translate(-12.901 -51.9473)"/><path class="cls-8" d="M249.39,302.2126c-4.5261,0-4.5336,7.0341,0,7.0341C253.9157,309.2467,253.9232,302.2126,249.39,302.2126Z" transform="translate(-12.901 -51.9473)"/></svg>