<svg id="_1" data-name="1" xmlns="http://www.w3.org/2000/svg" viewBox="0 0 324.375 139.5"><defs><style>.cls-1{fill:#ef7100;}.cls-2{fill:#fff;}</style></defs><polygon class="cls-1" points="264.375 139.5 0 139.5 60 69.75 0 0 264.375 0 324.375 69.75 264.375 139.5"/><path class="cls-2" d="M262.769,136H8.4712L64.9585,69.75,8.4712,3.5H262.769l56.9893,66.25ZM10.8911,135H262.31L318.439,69.75,262.31,4.5H10.8911L66.3755,69.75Z"/><path class="cls-2" d="M90.0176,76.7656a3.1906,3.1906,0,0,1-2.72-1.3447,6.182,6.182,0,0,1-.9892-3.7266,6.188,6.188,0,0,1,1.0068-3.7661,3.2676,3.2676,0,0,1,2.7724-1.3491,3.2056,3.2056,0,0,1,2.83,1.4414h.0879a10.9641,10.9641,0,0,1-.2021-1.96V62.9141h2.6894V76.59H93.4366l-.5186-1.2744h-.1142A3.0676,3.0676,0,0,1,90.0176,76.7656Zm.9405-2.1357a1.8175,1.8175,0,0,0,1.5078-.5977,3.4772,3.4772,0,0,0,.5224-2.03v-.29a4.0185,4.0185,0,0,0-.4873-2.2676,1.8128,1.8128,0,0,0-1.5869-.6855,1.5729,1.5729,0,0,0-1.3926.76,4.0567,4.0567,0,0,0-.497,2.21,3.8447,3.8447,0,0,0,.5009,2.1753A1.6369,1.6369,0,0,0,90.9581,74.63Z"/><path class="cls-2" d="M102.27,71.6592a13.2445,13.2445,0,0,1-.6807,4.3066,10.3038,10.3038,0,0,1-1.9648,3.4717h-2.18a12.6887,12.6887,0,0,0,1.8369-3.6255,13.4511,13.4511,0,0,0,.65-4.17,13.9481,13.9481,0,0,0-.6328-4.1748A12.6567,12.6567,0,0,0,97.4268,63.74h2.1973a10.7807,10.7807,0,0,1,1.9687,3.5728A13.6832,13.6832,0,0,1,102.27,71.6592Z"/><path class="cls-2" d="M117.15,76.59l-.9317-3.0586h-4.6845l-.9317,3.0586h-2.9355l4.5351-12.9023h3.3311L120.085,76.59Zm-1.5821-5.3437q-1.2919-4.1573-1.4541-4.7022t-.2334-.8613q-.29,1.125-1.6611,5.5635Z"/><path class="cls-2" d="M130.5616,76.59h-2.6807V70.8506a2.7571,2.7571,0,0,0-.3779-1.5952,1.3751,1.3751,0,0,0-1.2041-.5318,1.81,1.81,0,0,0-1.626.7515,4.66,4.66,0,0,0-.501,2.4917V76.59h-2.6806V66.7637h2.0478l.36,1.2568h.1494a2.8343,2.8343,0,0,1,1.2353-1.0767,4.2042,4.2042,0,0,1,1.7881-.3647,3.4366,3.4366,0,0,1,2.6016.9272,3.7211,3.7211,0,0,1,.8877,2.6763Z"/><path class="cls-2" d="M139.5616,76.59l-.5186-1.3359h-.07A3.957,3.957,0,0,1,137.58,76.436a4.503,4.503,0,0,1-1.8681.33,3.0188,3.0188,0,0,1-2.2276-.8086,3.1052,3.1052,0,0,1-.8134-2.3027,2.5931,2.5931,0,0,1,1.0947-2.3071,6.3384,6.3384,0,0,1,3.3-.8218l1.7051-.0527V70.042a1.3364,1.3364,0,0,0-1.5293-1.4941,6.9693,6.9693,0,0,0-2.7686.7119l-.8877-1.8106a7.9884,7.9884,0,0,1,3.7617-.8877,4.6856,4.6856,0,0,1,3.0323.8614,3.1831,3.1831,0,0,1,1.0547,2.6191V76.59Zm-.791-4.5527-1.0371.0352a3.3214,3.3214,0,0,0-1.74.4218,1.3253,1.3253,0,0,0-.5713,1.1778q0,1.1337,1.3008,1.1338a2.0608,2.0608,0,0,0,1.49-.5362,1.8827,1.8827,0,0,0,.5577-1.4238Zm-2.98-6.3545v-.2373A24.7421,24.7421,0,0,0,137.8565,62.8h3.0059v.1846q-.4571.457-1.56,1.3579t-1.7275,1.34Z"/><path class="cls-2" d="M146.8741,76.59h-2.6807V62.9141h2.6807Z"/><path class="cls-2" d="M149.5723,64.2236q0-1.31,1.459-1.31t1.459,1.31a1.2764,1.2764,0,0,1-.3643.9712,1.5341,1.5341,0,0,1-1.0947.3472Q149.5724,65.542,149.5723,64.2236ZM152.3672,76.59h-2.6806V66.7637h2.6806Z"/><path class="cls-2" d="M162.0352,73.6719a2.7049,2.7049,0,0,1-1.05,2.3027,5.1907,5.1907,0,0,1-3.1426.791,9.8673,9.8673,0,0,1-1.8281-.145,6.9149,6.9149,0,0,1-1.415-.4263V73.98a9.3448,9.3448,0,0,0,1.6836.5889,6.8112,6.8112,0,0,0,1.6474.2373q1.459,0,1.459-.8438a.7037.7037,0,0,0-.1934-.5141A2.8009,2.8009,0,0,0,158.5284,73q-.4746-.2505-1.2656-.5845a7.9407,7.9407,0,0,1-1.6651-.8789,2.4734,2.4734,0,0,1-.7734-.9272,3.0592,3.0592,0,0,1-.2422-1.2876,2.3346,2.3346,0,0,1,1.0156-2.0259,4.9436,4.9436,0,0,1,2.8779-.7163,8.17,8.17,0,0,1,3.4541.7734l-.8085,1.9336q-.7383-.3164-1.38-.5185a4.3327,4.3327,0,0,0-1.31-.2022q-1.1865,0-1.1865.6416a.7549.7549,0,0,0,.3828.6241,10.394,10.394,0,0,0,1.6738.7822,7.7767,7.7767,0,0,1,1.6875.87,2.5736,2.5736,0,0,1,.791.9316A2.862,2.862,0,0,1,162.0352,73.6719Z"/><path class="cls-2" d="M168.5743,76.7656a5.0717,5.0717,0,0,1-3.709-1.3095,4.9587,4.9587,0,0,1-1.3359-3.709,5.4541,5.4541,0,0,1,1.2353-3.8189,4.3959,4.3959,0,0,1,3.4141-1.3491,4.3279,4.3279,0,0,1,3.2431,1.1865,4.4886,4.4886,0,0,1,1.16,3.2783v1.3008h-6.3369a2.5806,2.5806,0,0,0,.6767,1.7842,2.3814,2.3814,0,0,0,1.7754.6416,7.3669,7.3669,0,0,0,1.6787-.1846,8.397,8.397,0,0,0,1.6524-.5888v2.0742a6.2906,6.2906,0,0,1-1.503.5229A9.472,9.472,0,0,1,168.5743,76.7656Zm-.378-8.2793a1.7,1.7,0,0,0-1.3359.5406,2.5012,2.5012,0,0,0-.5537,1.5336h3.7617a2.2345,2.2345,0,0,0-.5185-1.5336A1.7558,1.7558,0,0,0,168.1963,68.4863Z"/><path class="cls-2" d="M187.0489,76.59h-7.4V63.74h7.4v2.2325h-4.6758v2.8212h4.3506v2.2325h-4.3506V74.34h4.6758Z"/><path class="cls-2" d="M195.003,66.5791a4.326,4.326,0,0,1,.9053.0791l-.2022,2.5137a3.0707,3.0707,0,0,0-.791-.0879,2.841,2.841,0,0,0-1.999.6592,2.3829,2.3829,0,0,0-.7168,1.8457V76.59h-2.6807V66.7637h2.03l.3955,1.6523h.1318a3.6945,3.6945,0,0,1,1.2354-1.3315A3.0433,3.0433,0,0,1,195.003,66.5791Z"/><path class="cls-2" d="M206.2442,66.7637V68.126l-1.5381.3955a2.6806,2.6806,0,0,1,.4219,1.4765,2.9807,2.9807,0,0,1-1.1026,2.4654,4.779,4.779,0,0,1-3.0634.8833l-.4834-.0264-.3955-.0439a.8913.8913,0,0,0-.4131.7031q0,.58,1.4765.58h1.67a3.8108,3.8108,0,0,1,2.4658.6943,2.4817,2.4817,0,0,1,.8476,2.0391,3.0234,3.0234,0,0,1-1.4365,2.6718,7.4848,7.4848,0,0,1-4.1269.9493,5.7112,5.7112,0,0,1-3.1416-.7163,2.2749,2.2749,0,0,1-1.086-2.0083,2.1026,2.1026,0,0,1,.5537-1.4854,3.1447,3.1447,0,0,1,1.626-.8525,1.7944,1.7944,0,0,1-.7207-.5757,1.4148,1.4148,0,0,1,.0176-1.7842,3.76,3.76,0,0,1,.94-.7339,2.6364,2.6364,0,0,1-1.2256-1.0723,3.2635,3.2635,0,0,1-.4531-1.74,3.0687,3.0687,0,0,1,1.0459-2.4873,4.5229,4.5229,0,0,1,2.9883-.8789,7.6571,7.6571,0,0,1,.9805.0747q.5668.0747.7246.11Zm-7.585,11.2148a.9719.9719,0,0,0,.5323.87,2.9229,2.9229,0,0,0,1.4892.3164A5.2763,5.2763,0,0,0,202.94,78.77a1.2054,1.2054,0,0,0,.8174-1.081.7653.7653,0,0,0-.4834-.7647,3.9593,3.9593,0,0,0-1.4941-.2109h-1.3887a2.1011,2.1011,0,0,0-1.2344.3472A1.0712,1.0712,0,0,0,198.6592,77.9785Zm.9756-7.998A2.0006,2.0006,0,0,0,200,71.2461a1.3237,1.3237,0,0,0,1.1113.4658,1.2977,1.2977,0,0,0,1.1074-.4658,2.0541,2.0541,0,0,0,.3516-1.2656q0-1.7754-1.459-1.7754Q199.6348,68.2051,199.6348,69.9805Z"/><path class="cls-2" d="M216.7911,71.6592a5.28,5.28,0,0,1-1.2657,3.7529,4.5886,4.5886,0,0,1-3.5244,1.3535,4.93,4.93,0,0,1-2.4961-.62,4.1233,4.1233,0,0,1-1.6611-1.78,5.9807,5.9807,0,0,1-.58-2.707,5.2515,5.2515,0,0,1,1.2569-3.7442,4.6156,4.6156,0,0,1,3.5332-1.3359,4.9588,4.9588,0,0,1,2.4961.6152,4.1069,4.1069,0,0,1,1.6611,1.7666A5.9256,5.9256,0,0,1,216.7911,71.6592Zm-6.794,0a4.1239,4.1239,0,0,0,.48,2.206,1.7123,1.7123,0,0,0,1.56.7471,1.6868,1.6868,0,0,0,1.543-.7427,4.1844,4.1844,0,0,0,.47-2.21,4.0587,4.0587,0,0,0-.4746-2.1885,2.0181,2.0181,0,0,0-3.1026-.0044A4.0554,4.0554,0,0,0,209.9971,71.6592Z"/><path class="cls-2" d="M228.0762,76.59h-2.6806V70.8506a2.7562,2.7562,0,0,0-.378-1.5952,1.3749,1.3749,0,0,0-1.2041-.5318,1.81,1.81,0,0,0-1.6259.7515,4.66,4.66,0,0,0-.501,2.4917V76.59h-2.6807V66.7637h2.0479l.36,1.2568h.1494a2.8351,2.8351,0,0,1,1.2354-1.0767,4.2036,4.2036,0,0,1,1.7881-.3647,3.4365,3.4365,0,0,1,2.6015.9272,3.7211,3.7211,0,0,1,.8877,2.6763Z"/><path class="cls-2" d="M239.7657,71.6592A5.28,5.28,0,0,1,238.5,75.4121a4.589,4.589,0,0,1-3.5245,1.3535,4.93,4.93,0,0,1-2.4961-.62,4.1233,4.1233,0,0,1-1.6611-1.78,5.9807,5.9807,0,0,1-.58-2.707,5.2515,5.2515,0,0,1,1.2569-3.7442,4.6156,4.6156,0,0,1,3.5332-1.3359,4.9588,4.9588,0,0,1,2.4961.6152,4.1069,4.1069,0,0,1,1.6611,1.7666A5.9256,5.9256,0,0,1,239.7657,71.6592Zm-2.7422-5.9766a9.3031,9.3031,0,0,1-2.0566-1.5469,10.8721,10.8721,0,0,1-2.0127,1.5469H231.17v-.2373A15.5049,15.5049,0,0,0,233.42,62.8h3.1377a10.0031,10.0031,0,0,0,.9453,1.2437q.6723.7866,1.3047,1.4018v.2373Zm-4.0518,5.9766a4.1239,4.1239,0,0,0,.48,2.206,1.7123,1.7123,0,0,0,1.56.7471,1.6868,1.6868,0,0,0,1.543-.7427,4.1844,4.1844,0,0,0,.47-2.21,4.0587,4.0587,0,0,0-.4746-2.1885,2.0181,2.0181,0,0,0-3.1026-.0044A4.0554,4.0554,0,0,0,232.9717,71.6592Z"/><path class="cls-2" d="M250.7784,76.59h-2.6807V70.8506a2.8913,2.8913,0,0,0-.3555-1.5952,1.2528,1.2528,0,0,0-1.121-.5318,1.6232,1.6232,0,0,0-1.4942.7559,4.9584,4.9584,0,0,0-.4658,2.4873V76.59h-2.6807V66.7637h2.0479l.36,1.2568h.1494a2.7241,2.7241,0,0,1,1.1426-1.0591,3.71,3.71,0,0,1,1.7139-.3823,3.0872,3.0872,0,0,1,2.9883,1.4414h.2373a2.6559,2.6559,0,0,1,1.165-1.0635,3.8824,3.8824,0,0,1,1.7354-.3779,3.4276,3.4276,0,0,1,2.5273.8569,3.763,3.763,0,0,1,.8565,2.7466V76.59h-2.69V70.8506a2.8913,2.8913,0,0,0-.3555-1.5952,1.2529,1.2529,0,0,0-1.1211-.5318,1.6708,1.6708,0,0,0-1.4716.7032,3.9888,3.9888,0,0,0-.4883,2.2324Z"/><path class="cls-2" d="M259.5411,64.2236q0-1.31,1.459-1.31t1.4589,1.31a1.2767,1.2767,0,0,1-.3642.9712A1.5342,1.5342,0,0,1,261,65.542Q259.5411,65.542,259.5411,64.2236ZM262.336,76.59h-2.6807V66.7637h2.6807Z"/><path class="cls-2" d="M269.1387,76.7656q-4.5879,0-4.5879-5.0361a5.372,5.372,0,0,1,1.2481-3.8276,4.6815,4.6815,0,0,1,3.5771-1.3228,6.8193,6.8193,0,0,1,3.0586.668l-.791,2.0742q-.6328-.2548-1.1777-.4175a3.7951,3.7951,0,0,0-1.09-.1626q-2.0917,0-2.0918,2.9707,0,2.8828,2.0918,2.8828a4.77,4.77,0,0,0,1.4327-.2065,5.1714,5.1714,0,0,0,1.3183-.646v2.2939a4.3161,4.3161,0,0,1-1.3135.5713A7.391,7.391,0,0,1,269.1387,76.7656Z"/><path class="cls-2" d="M280.6436,76.59l-.5185-1.3359h-.07a3.9568,3.9568,0,0,1-1.3925,1.1821,4.5035,4.5035,0,0,1-1.8682.33,3.0186,3.0186,0,0,1-2.2275-.8086,3.1053,3.1053,0,0,1-.8135-2.3027,2.5931,2.5931,0,0,1,1.0947-2.3071,6.3384,6.3384,0,0,1,3.3-.8218l1.7051-.0527V70.042a1.3364,1.3364,0,0,0-1.5293-1.4941,6.9693,6.9693,0,0,0-2.7686.7119l-.8877-1.8106a7.9886,7.9886,0,0,1,3.7618-.8877,4.6853,4.6853,0,0,1,3.0322.8614,3.1831,3.1831,0,0,1,1.0547,2.6191V76.59Zm-.791-4.5527-1.0371.0352a3.3208,3.3208,0,0,0-1.74.4218,1.3251,1.3251,0,0,0-.5713,1.1778q0,1.1337,1.3007,1.1338a2.0612,2.0612,0,0,0,1.49-.5362,1.883,1.883,0,0,0,.5576-1.4238Z"/></svg>