<svg id="_1" data-name="1" xmlns="http://www.w3.org/2000/svg" xmlns:xlink="http://www.w3.org/1999/xlink" viewBox="0 0 687.0239 656.86984"><defs><style>.cls-1{fill:url(#Gradiente_sem_nome_124);}.cls-2{fill:url(#Gradiente_sem_nome_86);}.cls-3{fill:#5072a4;}.cls-4{fill:url(#Gradiente_sem_nome_85);}.cls-5{fill:#111022;}.cls-6{fill:#fff;}.cls-7{fill:url(#Gradiente_sem_nome_5);}.cls-8{fill:url(#Gradiente_sem_nome_5-2);}.cls-9{fill:url(#Gradiente_sem_nome_3);}.cls-10{fill:url(#Gradiente_sem_nome_65);}.cls-11{fill:url(#Gradiente_sem_nome_67);}.cls-12{fill:url(#Gradiente_sem_nome_3-2);}.cls-13{fill:url(#Gradiente_sem_nome_124-2);}.cls-14{fill:none;}.cls-15{fill:#a8aeba;}</style><linearGradient id="Gradiente_sem_nome_124" x1="492.0827" y1="241.06136" x2="464.27052" y2="102.00046" gradientTransform="matrix(0.99866, -0.05167, 0.05167, 0.99866, -17.71747, 29.53491)" gradientUnits="userSpaceOnUse"><stop offset="0" stop-color="#aa8d71"/><stop offset="1" stop-color="#fcd29f"/></linearGradient><linearGradient id="Gradiente_sem_nome_86" x1="618.34918" y1="395.97515" x2="440.35123" y2="517.55411" gradientTransform="matrix(0.99866, -0.05167, 0.05167, 0.99866, -17.71747, 29.53491)" gradientUnits="userSpaceOnUse"><stop offset="0" stop-color="#6e91cb"/><stop offset="0.35579" stop-color="#678cc7"/><stop offset="0.87317" stop-color="#547cbe"/><stop offset="0.99441" stop-color="#4e78bb"/></linearGradient><linearGradient id="Gradiente_sem_nome_85" x1="322.91658" y1="368.69919" x2="387.28191" y2="642.84782" gradientTransform="matrix(0.99866, -0.05167, 0.05167, 0.99866, -17.71747, 29.53491)" gradientUnits="userSpaceOnUse"><stop offset="0" stop-color="#6e91cb"/><stop offset="0.99441" stop-color="#4e78bb"/></linearGradient><linearGradient id="Gradiente_sem_nome_5" x1="165.45282" y1="59.9121" x2="162.31881" y2="34.10873" gradientTransform="matrix(0.99866, -0.05167, 0.05167, 0.99866, -17.71747, 29.53491)" gradientUnits="userSpaceOnUse"><stop offset="0.09724" stop-color="#aa8d71"/><stop offset="0.31478" stop-color="#c1a07e"/><stop offset="0.7684" stop-color="#ecc496"/><stop offset="1" stop-color="#fcd29f"/></linearGradient><linearGradient id="Gradiente_sem_nome_5-2" x1="142.91939" y1="159.86109" x2="127.02672" y2="29.01141" xlink:href="#Gradiente_sem_nome_5"/><linearGradient id="Gradiente_sem_nome_3" x1="247.15907" y1="67.4938" x2="259.34345" y2="8.6909" gradientTransform="matrix(0.99866, -0.05167, 0.05167, 0.99866, -17.71747, 29.53491)" gradientUnits="userSpaceOnUse"><stop offset="0.09724" stop-color="#aa8d71"/><stop offset="0.35542" stop-color="#cdaa85"/><stop offset="0.60247" stop-color="#e7c093"/><stop offset="0.82453" stop-color="#f7cd9c"/><stop offset="1" stop-color="#fcd29f"/></linearGradient><linearGradient id="Gradiente_sem_nome_65" x1="221.99323" y1="96.77255" x2="244.87449" y2="164.84428" gradientTransform="matrix(0.99866, -0.05167, 0.05167, 0.99866, -17.71747, 29.53491)" gradientUnits="userSpaceOnUse"><stop offset="0" stop-color="#e52421"/><stop offset="0.99441" stop-color="#a73517"/></linearGradient><linearGradient id="Gradiente_sem_nome_67" x1="335.49042" y1="676.71562" x2="104.252" y2="172.52052" gradientTransform="matrix(0.99866, -0.05167, 0.05167, 0.99866, -17.71747, 29.53491)" gradientUnits="userSpaceOnUse"><stop offset="0.09724" stop-color="#aa8d71"/><stop offset="0.19285" stop-color="#b69778"/><stop offset="0.54348" stop-color="#dcb78d"/><stop offset="0.82488" stop-color="#f3cb9a"/><stop offset="1" stop-color="#fcd29f"/></linearGradient><linearGradient id="Gradiente_sem_nome_3-2" x1="271.28963" y1="139.6986" x2="332.21155" y2="110.03228" xlink:href="#Gradiente_sem_nome_3"/><linearGradient id="Gradiente_sem_nome_124-2" x1="719.92527" y1="448.65041" x2="383.37012" y2="321.27363" xlink:href="#Gradiente_sem_nome_124"/></defs><path class="cls-1" d="M542.78545,37.47634l-147.9897,7.65619a146.60631,146.60631,0,0,1,.85132,19.16547c-.90273,28.69177-27.10943,59.8968-29.49839,60.40762s.41152,100.23646.93171,125.67184,20.67442,45.8765,32.94751,52.40283,26.21542,14.55768,52.12945-7.47108,81.58678-68.67227,94.7626-90.83772,30.97589-77.98938,30.97589-77.98938-24.2042-21.823-32.236-54.031C542.96266,61.63548,542.43767,49.3636,542.78545,37.47634Z" transform="translate(-88.32144 -37.47634)"/><path class="cls-2" d="M400.74285,645.25111c5.78073,12.0137,11.02814,22.43019,19.90452,32.473,4.32508,4.89342,7.93712,11.10787,12.22326,14.93305,50.58217-2.01593,101.07763-5.97731,151.24469-12.64642,27.4003-3.64255,55.07513-7.701,82.36795-13.23565a36.95839,36.95839,0,0,1-4.62319-5.15463c-12.20547-17.92011-15.52665-42.57177-22.70261-62.69936-2.38248-6.68238-6.51935-13.82318-6.1163-20.93083.44993-7.93388,5.65063-16.50925,7.31727-23.96777,14.23247,6.53743,27.27052,3.513,42.54334.68454,18.84364-3.48979,40.319-4.7454,58.405-10.9841,10.21021-3.522,8.214-8.05075,7.23872-17.87845-1.14017-11.48981-1.81072-23.18821-.6166-34.60485,3.8238-36.56053,12.76334-72.22274,18.09936-108.57632,3.79344-25.8438,5.5106-51.744,7.10861-77.812,1.52058-24.80483,3.50644-50.9935,1.05222-75.77453-2.04653-20.66446-14.16532-53.73254-36.63562-59.13416-10.9518-2.63271-22.77538-3.38681-33.89361-5.34906-8.80208-1.55349-16.44957-4.86126-25.51842-7.53232-15.90425-4.68433-32.32949-7.27806-47.99938-12.61662-15.27808-5.20509-28.74466-13.41771-42.56761-21.54836-2.05835-1.21074-7.65293-5.253-10.12281-5.00078-7.52177.7682-18.58286,21.14116-22.93992,26.17468C517.55706,186.76137,481.551,230.3212,444.0038,272.49162c-10.869,12.20739-21.62471,25.10458-30.00318,39.209-10.01954,16.86679-10.52681,35.48278-10.86591,54.55469-.65689,36.95079-2.02547,71.85688-15.32631,106.84348-11.71082,30.8043-24.11828,62.06652-17.0894,95.39747C376.385,595.36425,388.91223,620.66462,400.74285,645.25111Z" transform="translate(-88.32144 -37.47634)"/><path class="cls-3" d="M662.1797,217.60529c-19.36979,11.91183-34.3052,22.93176-49.43941,39.72176-10.80087,11.98254-18.03474,24.13093-27.01573,37.20438.98064-8.63633,3.565-17.1951,6.027-25.56455,3.5731-12.14652,7.68138-24.01918,11.85613-35.97757,2.88422-8.26178,8.77754-19.67832,8.48047-28.62347-9.11624,11.67963-15.7612,26.92011-22.26752,40.13575C579.212,266.05,574.67106,287.65347,567.44551,310.06233c-1.11606,3.46147-2.86379,6.28974-3.468,9.34786-29.68946-21.06749-72.75471-49.73143-99.123-70.655q-10.36744,11.92038-20.85076,23.73643c-10.869,12.20739-21.62471,25.10458-30.00318,39.209-.67018,1.12817-1.2912,2.26546-1.87906,3.40892,8.138,20.85435,25.78264,36.07431,49.97988,42.87819,30.43856,8.55874,61.51154,7.98467,91.99935.25648,1.34741-.34154,2.68456-.725,4.01721-1.12636q-.78264,1.60584-1.54321,3.21554c-6.99124,14.84942-11.205,31.41066-15.38342,47.24075-3.67431,13.92026-8.0839,29.82428-9.3692,44.06548,5.74822-7.00518,6.38448-18.21275,8.98974-26.42578,3.66247-11.54557,9.34471-22.56227,14.67451-33.39976,5.69371-11.57736,11.18544-23.42031,16.7758-35.23546a158.98306,158.98306,0,0,1,11.23426-22.85216c-.03474-.02689-.066-.05188-.10089-.07883,2.72033-5.39817,5.49652-10.75656,8.38712-16.02626,9.21426-16.79793,19.67924-32.4968,27.46384-50.08867,3.13789-7.09107,4.6591-16.10018,9.35518-22.26216,4.62853-6.07339,23.82391-20.06989,42.56135-31.92842Z" transform="translate(-88.32144 -37.47634)"/><path class="cls-3" d="M671.16308,213.34207l39.94425-18.95614C708.81228,191.4273,690.22462,201.27841,671.16308,213.34207Z" transform="translate(-88.32144 -37.47634)"/><path class="cls-3" d="M535.81234,435.7981c3.77856-3.68778,20.01659-7.56295,26.612-8.538,11.22235-1.65913,21.93773,2.45678,32.67937,4.50068,25.36884,4.82713,43.9681,18.894,66.9519,29.531,9.19938,4.25752,19.06084,6.62333,27.50578,12.10663,8.255,5.36,14.5162,13.35571,22.32834,19.33323,3.50756,2.68384,6.79961,4.33761,9.48068,7.87354,4.31271,5.68781,1.69141,6.58669,2.23226,13.0043.39544,4.69211,5.66877,8.3692,5.64137,12.24386-.0439,6.20823-11.35154,6.18586-16.91984,6.64065-11.32358.92484-22.74416,1.66114-33.97828,3.50636-7.06508,1.16045-16.16445,5.35583-22.9384,5.73582-11.51494.64594-22.264-11.24656-31.77464-16.5481-24.04229-13.40194-49.34-22.39651-73.0162-36.67144-22.88649-13.79881-17.92263-34.00944-2.77756-50.95361" transform="translate(-88.32144 -37.47634)"/><path class="cls-4" d="M236.25162,590.00744c13.21919,8.39591.97795,22.936-1.73076,37.22509-3.31949,17.5118-4.822,35.30634-5.941,53.075,27.665,7.38223,55.53031,13.51632,84.52645,13.855,47.90516.55951,95.90191-.11571,143.7875-2.62822.98294-6.7681,1.19677-14.34909,2.06271-18.1932,10.2384-45.44968,19.878-91.24364,27.92741-137.1251,2.80911-16.012,1.995-32.16807,4.81727-45.61985,11.79352-23.00509,23.41-46.5581,35.99436-69.35337,8.88979-16.103,19.04662-31.16706,24.14228-48.97239,2.94542-10.29194,8.96175-22.52854-.558-28.38114-35.92981-22.08908-79.84244-31.58669-112.47645-59.82461-7.96481-6.89193-15.80046-14.3111-19.87929-24.036-5.40329-12.88261-2.47407-26.90975-4.13529-41.0577-3.94747-33.61819-29.77154-59.48882-37.50564-92.47913-1.04535-4.45894-1.10551-12.48208-4.68387-15.46971-8.26231-6.89836-30.79159,4.261-38.56852,7.14884-12.59016,4.67509-32.33242,8.70776-42.94008,16.78614-6.58573,5.01542-11.773,14.002-18.43843,19.8085-27.35935,23.83343-58.55664,44.57709-83.30179,71.25208-7.29524,7.86414-12.79589,15.339-17.14827,24.86787-9.24627,20.24327-6.92508,41.29027-8.088,63.25864C161.38727,365.65571,146.5658,414.31,134.446,463.93772c-3.462,14.17593-8.86609,28.11878-7.95413,42.36318.58481,9.13366-1.13424,18.40548.5935,27.20921,1.52507,7.77116,5.00052,15.95031,7.63179,23.29624,3.92534,10.9585,21.66812,27.24655,33.85837,28.52315C189.45508,587.516,217.7151,578.23444,236.25162,590.00744Z" transform="translate(-88.32144 -37.47634)"/><path class="cls-3" d="M260.179,687.91549c27.054-11.62744,57.63347-18.90256,79.97282-37.37795-18.53325-.09312-36.46977.47511-54.971-.585,2.38591-6.73792,10.46615-14.04168,15.07752-20.00735,1.6382-2.11925,9.02037-9.36094,8.67406-12.49764-.19264-1.74474-2.56951-2.63-2.64533-4.13425-.19081-3.78588-2.807-3.40576-1.13195-10.1069,3.10876-12.43669,11.46052-25.37016,17.056-36.93544,6.67136-13.789,18.17186-25.17641,22.57984-39.87256,7.93389-26.45164-.0136-56.55727-4.47452-82.87379-5.71051-33.68815-7.67-70.45424-20.46638-102.49917-6.74189-16.883-12.7071-29.20713-14.19635-47.50822-.75629-9.29412-5.52907-18.92988-3.78716-28.04262,3.31087-17.32039,30.19354-51.38911,14.04416-68.22271-7.45222,2.44672-22.2251,34.19031-20.70345,48.09125-3.67535,13.76465,3.655,33.50925,5.60989,47.35372,3.65818,25.90743,4.59185,51.66247,7.228,77.69937,2.46525,24.34854,7.9648,47.922,12.30876,72.21321,1.91371,10.701,3.27326,21.10679,5.06424,31.63242,1.73244,10.18107,3.54623,20.13121,4.67037,30.42255,2.4382,22.3212-3.15453,37.73279-15.334,57.71143-12.45546,20.43137-26.31861,40.33938-44.37685,56.635C266.9641,622.09118,263,624.142,259.65457,627.216c-4.14973,3.813-4.89373,6.42811-8.87759,9.41339-6.77694,5.07822-14.10036,5.13443-20.11753,12.63108a63.91248,63.91248,0,0,0-9.779,17.64712,47.76927,47.76927,0,0,0-2.54474,10.617C232.22228,681.35519,246.13109,685.00976,260.179,687.91549Z" transform="translate(-88.32144 -37.47634)"/><path class="cls-5" d="M386.48976,97.14127c.96894-2.35122-1.82788-5.3559-4.70636-3.83828-17.49582,9.2244-23.65472,30.2279-26.59645,48.38771-1.30134,8.03348-2.36177,16.164-3.14769,24.33847a164.94834,164.94834,0,0,0-2.81241,29.24592c-.04421,13.25664,1.44385,26.45551,3.07955,39.592.68386,5.49221,1.39231,10.98516,2.03538,16.48492-.50942,20.18044-1.74858,40.30654-4.17127,60.387a629.39762,629.39762,0,0,1-14.51364,78.46238c-2.44594,9.70171-5.43507,19.47432-8.06567,29.33289-.95064,3.31841-1.86988,6.64531-2.72365,9.99-2.32606,9.11266-4.12678,18.55188-4.31021,28.00107a18.973,18.973,0,0,0-7.62723,8.70155,20.69486,20.69486,0,0,0-1.91352,4.40008c-1.99264,6.6231-.30187,14.58066,4.89708,19.34431,4.34382,3.98007,10.21021,4.95792,15.71861,3.80207a18.822,18.822,0,0,0,5.96356-1.79262,18.43812,18.43812,0,0,0,11.054-12.34653c1.45452-5.33677-.045-10.939-3.11133-15.39216a17.33091,17.33091,0,0,0-6.15866-6.11158,15.63488,15.63488,0,0,0-11.41026-3.16976c-.13767.01755-.27083.047-.40751.06732.73067-13.44556,4.2-26.826,7.87244-39.91936,1.42357-4.65965,2.85421-9.2689,4.14416-13.80884,3.63929-12.80837,6.85384-25.73243,9.96779-38.67712,3.04263-12.64851,6.18343-25.29186,8.72369-38.05328a216.328,216.328,0,0,0,4.58445-38.86892c.18406-12.09546-.96327-24.15545-2.3921-36.15458.02367-1.3562.06024-2.712.07586-4.0684.29169-25.31789-.47507-50.72037,1.78219-75.97242a240.80473,240.80473,0,0,1,5.96356-36.86556c2.50874-10.05741,5.32254-20.36643,12.48206-28.19421a21.23978,21.23978,0,0,1,5.56522-4.32066A1.82322,1.82322,0,0,0,386.48976,97.14127Z" transform="translate(-88.32144 -37.47634)"/><path class="cls-6" d="M345.0118,471.13332a11.40475,11.40475,0,0,0-8.01531-7.40093,12.14879,12.14879,0,0,0-9.28388-1.30886,13.26111,13.26111,0,0,0-9.8222,6.545c-4.42839,8.16826.8786,18.47094,9.95175,19.92584C337.63291,490.46434,348.87934,481.49169,345.0118,471.13332Z" transform="translate(-88.32144 -37.47634)"/><path class="cls-5" d="M337.446,472.07994a6.86858,6.86858,0,0,0-1.92231-2.9381q-.72243-.50073-1.44493-1.00158a6.8424,6.8424,0,0,0-3.51353-.758,7.06516,7.06516,0,0,0-6.51005,7.2204q.16985.90618.33963,1.81238a6.86821,6.86821,0,0,0,1.9223,2.938q.72244.50083,1.44494,1.00159a6.84311,6.84311,0,0,0,3.51352.75807,7.06523,7.06523,0,0,0,6.51006-7.2204Q337.61582,472.98613,337.446,472.07994Z" transform="translate(-88.32144 -37.47634)"/><path class="cls-3" d="M176.76162,432.094c-7.34279,8.41695-20.48437,13.62541-26.34465,26.07342-3.82169,8.11776-4.86366,16.32225-8.66549,24.29371-5.34778,11.21288-12.443,27.6036-8.95374,39.89974,1.21,4.26386,3.1665,6.8568,3.86215,11.26983.64386,4.08453-.37919,8.74163.83621,12.68788,2.15507,6.99723,8.80418,11.57686,13.57725,16.76459,6.87455,7.47176,13.09534,12.85915,23.08246,16.36939,13.36588,4.69779,23.57991-3.33095,34.272-10.72264,15.399-10.6457,25.88641-20.15305,30.27466-39.14723,7.16175-30.99911-12.73818-65.69331-35.48686-86.14454C196.85823,437.72276,189.37107,427.76352,176.76162,432.094Z" transform="translate(-88.32144 -37.47634)"/><path class="cls-7" d="M130.45694,67.67345c1.313-1.6894,28.64372-15.40656,32.92626-17.2195S167.105,68.56242,156.385,76.67613,123.36961,76.79277,130.45694,67.67345Z" transform="translate(-88.32144 -37.47634)"/><path class="cls-8" d="M98.633,167.721c-1.75137-3.09218-13.51859-45.98148-9.46877-59.98307s36.24834-58.10451,43.74614-66.97983,14.72223,7.72578,12.3143,22.70335-21.15227,52.54934-21.15227,52.54934,7.10625,55.33111,8.32856,58.45066S98.633,167.721,98.633,167.721Z" transform="translate(-88.32144 -37.47634)"/><path class="cls-9" d="M242.43269,55.78009l-19.34681-4.8342s-.465,21.77309,12.53326,26.93573S255.64988,65.17513,242.43269,55.78009Z" transform="translate(-88.32144 -37.47634)"/><path class="cls-10" d="M306.33146,136.15128c-17.3442,63.3321-67.77289,107.18234-77.00183,105.94141s-79.88912-27.37077-99.53925-75.04187-.06989-89.92541,21.9731-95.64816,56.50645,18.27012,56.50645,18.27012,34.81741-35.59625,69.40881-20.20193S306.33146,136.15128,306.33146,136.15128Z" transform="translate(-88.32144 -37.47634)"/><path class="cls-11" d="M232.40137,282.27684c-3.16559-40.682,16.36347-52.832,5.31721-61.27847-2.79143-23.196-75.38052-21.56251-85.19545-36.96866s-38.32911-43.637-35.95757-49.06432.38286-23.36024,7.07791-37.49868,2.417-25.05686-1.7607-23.7798-24.637,26.2064-26.00516,30.5209-7.99014,30.11937-2.88191,46.82995,9.62366,42.46973,17.90617,59.0161c7.2844,14.55242,41.70425,52.62434,50.95264,62.34547,1.86909,46.11282,5.49566,118.03234-.01524,204.49516,0,0-14.05569,56.42591,1.88918,98.03816s50.02324,74.85985,65.08292,78.85492,19.59314,9.59564,29.92778,4.28681,37.14254-30.56663,42.0859-78.56416S235.567,322.95882,232.40137,282.27684Z" transform="translate(-88.32144 -37.47634)"/><path class="cls-12" d="M294.45491,261.56121c.94861-2.17094,38.87523-68.8497,41.22842-84.88537s-31.49754-85.89709-31.49754-85.89709S243.363,43.00082,236.48532,43.35663s-4.94368,17.23062,5.6009,26.23346,41.72236,47.70515,42.33352,49.26493-12.21255,112.55977-12.21255,112.55977Z" transform="translate(-88.32144 -37.47634)"/><path class="cls-13" d="M661.91474,464.01156c-29.85267-18.33932-95.67586-40.97866-110.95159-32.71053-21.67262,11.73051-22.904,18.69025-22.904,18.69025-26.85395-16.64651-185.2049-134.70478-218.71784-177.53a105.12488,105.12488,0,0,0-11.19187-12.24869c3.82815-21.47166,14.7922-85.44788,12.267-100.26536-3.04678-17.87817-11.26554-43.44572-20.6609-60.99544s-18.84545-36.15754-18.84545-36.15754c-16.04469,7.7261,4.79846,51.73725,5.49173,54.88417s4.75274,40.59987,4.75274,40.59987c-4.15929,11.8854-7.77118,34.35175-7.77118,34.35175-6.50052,3.41821-29.77979,28.59349-39.23226,52.7526a15.62559,15.62559,0,0,0-6.4021,8.48982c-4.91632,17.75966,19.41754,51.25478,65.32055,124.46256,64.75481,103.27325,147.8089,178.26962,165.0196,195.69152,31.90744,32.299,42.8806,29.079,78.72805,14.49329,26.10712-10.62257,97.76741-68.11969,127.71864-94.66455A18.64444,18.64444,0,0,0,661.91474,464.01156Z" transform="translate(-88.32144 -37.47634)"/><path class="cls-14" d="M532.50136,448.70054c14.93125-36.53843,36.32974-70.59291,50.12071-107.82034,13.59817-36.707,28.815-73.46041,45.29733-108.77133" transform="translate(-88.32144 -37.47634)"/><path class="cls-14" d="M681.21481,508.6411a4.89354,4.89354,0,0,0,1.75136,3.09218" transform="translate(-88.32144 -37.47634)"/><path class="cls-3" d="M534.32249,377.15812c-.60042-1.22957-1.23311-2.44192-1.90961-3.63142a64.36735,64.36735,0,0,0-4.29853-6.578c-1.35748-1.82577-2.80747-3.55849-4.30761-5.23915a34.35918,34.35918,0,0,0-9.38776-10.99313,3.196,3.196,0,0,0-2.68774-.54565c-1.60422-1.35578-3.45032-2.38634-5.07426-3.70775a2.40891,2.40891,0,0,0-1.31463-.55175c-9.48063-6.39112-19.87067-11.59824-30.06542-16.41742-11.96051-5.65388-23.97463-11.17-35.79541-17.1167-5.98412-3.01048-12.07184-5.93951-17.81974-9.38829a38.51867,38.51867,0,0,1-13.12412-12.24462c-6.83681-10.76838-7.80633-23.8362-9.04715-36.189a146.04345,146.04345,0,0,0-3.24186-20.8566,123.78959,123.78959,0,0,0-6.853-19.40337c-2.76185-6.33154-5.52968-12.65831-8.17769-19.03731a147.05125,147.05125,0,0,1-6.23316-19.625,344.0208,344.0208,0,0,1-7.67442-41.4469c-.148-1.13117-.32-2.2721-.49121-3.41554.08011.83377.16273,1.66488.26009,2.48785.34359,2.90522.67225,5.81218,1.01571,8.71741.69821,5.90725,1.47583,11.80606,2.41034,17.68088a265.06892,265.06892,0,0,0,7.75286,33.94868c3.28013,11.04633,8.16744,21.5216,11.5727,32.53064a88.79774,88.79774,0,0,1,3.543,17.49958c.59636,5.96115.82278,11.95368,1.39408,17.91619,1.01277,10.56926,2.85885,21.29239,8.15988,30.64511a39.1984,39.1984,0,0,0,9.97383,11.576,89.84159,89.84159,0,0,0,13.90333,8.44767q16.21787,8.46213,32.7799,16.24209c8.56538,4.02392,17.18867,7.9316,25.58129,12.31108a151.5492,151.5492,0,0,1,23.15,14.43466c1.34769,1.38122,2.73265,2.71926,4.02306,4.16108a71.91563,71.91563,0,0,1,5.07229,6.41566q1.25756,1.86435,2.515,3.72876a2.945,2.945,0,0,0,1.383,1.13864,53.15947,53.15947,0,0,1,2.37386,9.15287c.38505,2.25605.65042,4.52794.86205,6.80611a2.99633,2.99633,0,0,0-.39221,1.481q-.094,11.52245.35684,23.04c.00685.43538.01565.87078.0225,1.30616q-.8665-3.38516-1.733-6.77018c-.92857-3.62746-1.726-7.36538-3.72346-10.58864a29.49876,29.49876,0,0,0-7.28325-7.41589c-3.11611-2.4149-6.28326-4.76492-9.41055-7.16545Q492.52285,372.93,482.622,365.41653c-7.28982-5.55893-14.70548-10.97056-21.91708-16.62594-.19931-.1563-.46188.12666-.266.29512,6.12547,5.26839,12.06621,10.75983,18.1212,16.11274,5.99011,5.29546,11.96187,10.61169,17.969,15.888q4.45593,3.91386,8.894,7.84754c2.52646,2.24713,5.27692,4.42944,7.28574,7.176,2.06777,2.82722,2.98115,6.06209,3.81782,9.41864q1.4395,5.77554,2.87088,11.5531,3.28508,13.21963,6.628,26.42489a2.59951,2.59951,0,0,0,.97976,1.4226c.07359.67889.13822,1.3587.21516,2.03729a3.08486,3.08486,0,0,0,5.40693,1.64541,2.90332,2.90332,0,0,0,1.15808-2.30007,28.47574,28.47574,0,0,0-.99059-7.84388c-.46006-11.71007-.42-23.42639.25045-35.13686q.60625-10.58958,1.87055-21.12529a16.7014,16.7014,0,0,0,.29995-2.71083A6.43494,6.43494,0,0,0,534.32249,377.15812Z" transform="translate(-88.32144 -37.47634)"/><path class="cls-3" d="M365.94918,123.9409c.07626.38018.12793.7681.19126,1.15238-.02869-.3906-.0722-.78238-.08808-1.17183C366.04936,123.84707,365.93355,123.86291,365.94918,123.9409Z" transform="translate(-88.32144 -37.47634)"/><path class="cls-3" d="M366.81912,130.77057c-.18247-1.89854-.37035-3.80664-.67868-5.67729C366.27938,126.9828,366.53613,128.88034,366.81912,130.77057Z" transform="translate(-88.32144 -37.47634)"/><path class="cls-3" d="M418.85319,327.12309c-3.13336-2.17765-7.01264-3.179-10.43793-4.80492a53.90371,53.90371,0,0,1-9.90921-6.08008,52.97,52.97,0,0,1-14.78818-17.74343,48.05536,48.05536,0,0,1-4.34276-13.028c-.04807-.26074-.46349-.24986-.42159.02181a56.854,56.854,0,0,0,26.1237,39.127c3.74764,2.2895,8.499,4.96778,13.06241,4.51833C419.02265,329.04684,419.73814,327.73805,418.85319,327.12309Z" transform="translate(-88.32144 -37.47634)"/><path class="cls-3" d="M691.43966,178.10014a113.4203,113.4203,0,0,0-11.684,4.977q-2.502,1.13786-4.96228,2.36712-5.91424,2.82457-11.76852,5.77239-10.5372,5.33106-20.83218,11.11732a43.25988,43.25988,0,0,1,5.22171-7.06037c3.66367-4.06111,8.30943-7.18553,11.516-11.63606a1.34036,1.34036,0,0,0-1.40557-2.15074c-5.65406,1.855-10.20946,6.39922-14.07322,10.77963a42.999,42.999,0,0,0-8.93333,15.36761c-.69382,2.17951,2.04954,3.55995,3.73358,2.57469q3.92214-2.29462,7.88328-4.52211c-.07123.06753-.14492.1326-.216.20032a113.473,113.473,0,0,0-10.32356,11.21169c-.01983.02479.01512.057.03688.03325A128.84664,128.84664,0,0,1,650.76326,203.101q7.25967-4.01011,14.6311-7.81246,6.7306-3.46377,13.55522-6.74113c4.73418-2.2688,9.61992-4.34685,14.218-6.87618C695.13683,180.588,693.54109,177.23976,691.43966,178.10014Z" transform="translate(-88.32144 -37.47634)"/><path class="cls-3" d="M728.69094,477.32023a30.51345,30.51345,0,0,0-2.8-8.23508c-1.30643-2.41864-2.7318-4.76313-4.17959-7.099-2.967-4.787-6.05374-9.50306-9.35961-14.06386-6.44166-8.88686-13.73724-17.28074-22.48346-23.97528a78.55643,78.55643,0,0,0-32.31382-14.41987,171.71112,171.71112,0,0,0-19.83-2.66844c-6.96781-.60624-13.9578-1.04419-20.951-1.19966a349.53288,349.53288,0,0,0-47.48536,2.33063.13666.13666,0,0,0,.01411.27279,343.2234,343.2234,0,0,1,41.6309-.16646,299.6108,299.6108,0,0,1,40.49274,4.5641c11.592,2.23211,22.60839,6.19217,32.22589,13.15478,8.563,6.19926,15.79681,14.08025,22.109,22.51671,3.69948,4.94451,7.1125,10.09809,10.368,15.34375,1.59313,2.567,3.12865,5.1681,4.74449,7.72083a34.11915,34.11915,0,0,0,6.14955,7.0144A1.03969,1.03969,0,0,0,728.69094,477.32023Z" transform="translate(-88.32144 -37.47634)"/><path class="cls-3" d="M737.35882,494.60285a37.10739,37.10739,0,0,0-2.00582-4.99172,62.15839,62.15839,0,0,0-5.39982-8.98919.03725.03725,0,0,0-.06225.04084,43.98816,43.98816,0,0,1,4.65874,9.39165c.56567,1.5767,1.08936,3.17914,1.5514,4.7893q.34705,1.20919.71293,2.41425a9.94842,9.94842,0,0,0,.81623,2.28567.33878.33878,0,0,0,.60784-.11167A12.2652,12.2652,0,0,0,737.35882,494.60285Z" transform="translate(-88.32144 -37.47634)"/><path class="cls-3" d="M737.64052,465.0441a24.2643,24.2643,0,0,0-.922-3.37662,62.2676,62.2676,0,0,0-2.59665-6.08845c-1.68416-3.62671-3.48583-7.20679-5.31151-10.76427A102.63831,102.63831,0,0,0,716.47083,425.409a65.75012,65.75012,0,0,0-9.01079-8.91959c-.09886-.07991-.22981.06252-.133.14752,11.40522,10.01665,16.67724,24.96277,21.829,38.79317.82477,2.2142,1.67579,4.41513,2.40241,6.66458.35012,1.08387.70357,2.16576,1.045,3.25234a15.90074,15.90074,0,0,0,.66689,1.82847c.27533.60584.75439,1.1055,1.01663,1.70476a1.685,1.685,0,0,0,3.26513-.61514A13.14056,13.14056,0,0,0,737.64052,465.0441Z" transform="translate(-88.32144 -37.47634)"/><path class="cls-3" d="M745.65917,416.84609a28.6563,28.6563,0,0,0-1.42568-3.48453,9.306,9.306,0,0,0-1.003-1.74121,17.57448,17.57448,0,0,1-1.29838-1.52584c-.48434-.80179-1.89726-.15957-1.50749.72941a7.70507,7.70507,0,0,1,.35694,1.72011,15.38482,15.38482,0,0,0,.5144,1.925c.35689,1.11331.66081,2.24651.94686,3.37993a33.64136,33.64136,0,0,0,.93473,3.37078c.40047,1.09091.56228,2.53141,1.31478,3.4399a.90761.90761,0,0,0,1.54174-.07977c.60227-1.0891.3882-2.52081.38036-3.72A13.54731,13.54731,0,0,0,745.65917,416.84609Z" transform="translate(-88.32144 -37.47634)"/><path class="cls-3" d="M436.28489,592.64941c-.43457.209-.87341.40923-1.30891.61631-19.24969,9.18537-40.41312,12.68457-61.5558,14.19151a20.00012,20.00012,0,0,0,11.01427-6.26545,2.21312,2.21312,0,0,0-1.30255-3.6254q.7797-1.00193,1.49507-2.06957a3.04893,3.04893,0,0,0-.41761-3.40718,2.92514,2.92514,0,0,0-1.34571-.88737,189.17389,189.17389,0,0,0,17.071-15.83479c3.63011-3.77,7.12576-7.663,10.56843-11.60413,2.52914-2.89539-1.78288-6.77408-4.42656-3.99114-9.71322,10.22479-19.55556,20.54725-30.54526,29.40055-2.88067,2.17472-5.8507,4.23583-8.93729,6.14271-.03295.02035-.06682.03894-.09977.05923a80.5334,80.5334,0,0,0-13.69169,7.0583,2.79728,2.79728,0,0,0-1.28415,2.05121,89.17481,89.17481,0,0,1-11.298,4.35771c-2.82329.86709-1.92035,5.08656.94453,5.01346,15.70865-.40071,31.58978-.81942,47.2309-2.77695a309.2584,309.2584,0,0,1-31.99876,7.6097c-3.77572.68617-7.64064,1.124-11.38348,1.95024-2.43087.53669-5.27476,1.12958-6.59171,3.47666-.04773.085.08146.1477.13234.06847,1.865-2.90558,5.62805-2.44527,8.6118-2.70519,3.36015-.29272,6.71392-.64139,10.05872-1.07571q10.09257-1.31055,20.07346-3.33939a270.61593,270.61593,0,0,0,39.008-11.07565c2.70868-.98589,5.39893-2.02275,8.07852-3.08639a123.9399,123.9399,0,0,0,13.29447-5.67435c.03643-.01678.07338-.03236.10981-.0492l-.00131-.00272c.18463-.09224.37365-.17363.55791-.26683C440.72866,595.70286,438.72585,591.47535,436.28489,592.64941ZM362.364,608.0919c-2.28069.10024-4.56246.1659-6.844.2403,2.01447-.97931,3.99912-2.01314,5.94439-3.11714,2.57162-1.28709,5.07565-2.68769,7.524-4.17684.68228-.27113,1.37561-.51363,2.06573-.76464a25.073,25.073,0,0,1-3.17359,1.58968,3.09821,3.09821,0,0,0,.38313,5.92633Q365.31088,607.95848,362.364,608.0919Z" transform="translate(-88.32144 -37.47634)"/><path class="cls-3" d="M380.57873,540.7716a9.65625,9.65625,0,0,0-1.47215.28842,6.10854,6.10854,0,0,0-1.42912.74964,18.20875,18.20875,0,0,0-2.28244,1.63488l-.0564.04883c-.01661.01193-.03713.027-.077.05773-.07061.05442-.13984.11071-.209.16681-.26791.21725-.535.43841-.78384.67721-.32789.3147-.63848.64949-.93776.99139a5.44142,5.44142,0,0,0-1.64526,3.41717,1.82748,1.82748,0,0,0,1.82281,1.7583c.23387.03466.47181.068.69863.12024a5.67182,5.67182,0,0,1,.85155.19333c.483.19835.99994.47213,1.4929.69839a1.1556,1.1556,0,0,0,1.061-2.0517c-.47193-.28285-.9474-.57658-1.42189-.84517l-.00673.04762-.09371-.10912.004-.00572c.19379-.27713.374-.55888.55693-.84277.061-.09478.12358-.18841.18574-.28248.05212-.07885.057-.09179.04882-.08521.083-.11379.1789-.22554.25371-.324.26295-.34592.49642-.71324.78549-1.03856.27162-.3057.56121-.5922.84735-.88389.142-.14475.278-.29522.41928-.44065.07827-.08052.15784-.15956.23693-.23928.02357-.02376.02224-.02181.03532-.03447a11.93548,11.93548,0,0,0,1.15147-.95466c.28-.30154.54195-.62041.81164-.931A1.07969,1.07969,0,0,0,380.57873,540.7716Z" transform="translate(-88.32144 -37.47634)"/><path class="cls-3" d="M602.27428,589.80038c2.516-5.25414,5.01045-10.52181,7.11379-15.94524a.19882.19882,0,0,0-.353-.18254c-5.9619,9.02549-10.9241,18.74755-16.21247,28.188q-2.0021,3.57407-4.03142,7.13251c-1.31446,2.314-2.86665,4.5813-4.03106,6.97054-1.24268,2.54981-.73233,5.36287,2.08376,6.47308a17.93786,17.93786,0,0,0,4.83751,1.00279,15.19425,15.19425,0,0,0,6.33005,3.34872,21.13249,21.13249,0,0,0,10.269.3209c2.26031-.43423,2.76038-3.873,1.08925-5.20144-3.36508-2.675-7.3101-3.49274-11.502-3.80958-.691-.05225-1.38329-.08041-2.07549-.11143a12.436,12.436,0,0,1,.53766-2.3666,32.80825,32.80825,0,0,1,1.12932-3.41682c.87-2.27092,1.99226-4.55147,2.01733-7.01957a1.57787,1.57787,0,0,0-2.05561-1.40423,7.20033,7.20033,0,0,0-2.57311,1.55233c.31127-.64726.62454-1.29449.93184-1.942Q599.00839,596.58615,602.27428,589.80038Z" transform="translate(-88.32144 -37.47634)"/><path class="cls-5" d="M615.22793,256.33311c-3.47935-9.36738-9.32279-18.45647-17.21012-24.71425-4.30077-3.41221-9.46451-6.0507-15.08353-5.91043-.15857.004-.3148.01694-.47137.02821-.00173-.08338-.01583-.16579-.01549-.24934.00062-.17073.00829-.34156.01656-.51222.01149-.08206.03538-.31123.044-.36995a12.312,12.312,0,0,1,.31311-1.479c.06058-.2209.12724-.4407.19485-.6595.05164-.16715.19746-.59041.06173-.20749.20365-.57461.35324-1.15257.53126-1.73447a8.053,8.053,0,0,0,.30363-1.56209,6.52834,6.52834,0,0,0-.02738-1.31905,1.37073,1.37073,0,0,0-.64916-1.01251c.30106-.38772.60265-.77514.91114-1.15936a73.4203,73.4203,0,0,0,10.6773-13.167,57.02676,57.02676,0,0,0,7.26091-12.72079c.18054-.45672.33121-.92129.50092-1.38089.78371-1.47452,1.53745-2.97022,2.21814-4.51867,4.20966-9.57615,6.56891-20.10009,5.75487-30.59059a49.09881,49.09881,0,0,0-9.58222-25.615c-6.12342-8.13877-14.833-14.34114-24.94693-16.24818a3.1502,3.1502,0,0,0-1.35839,6.15223c.79833.275,1.5791.58352,2.34647.91577a5.03336,5.03336,0,0,0,1.41893,2.14253c3.20964,3.22376,7.1491,5.4648,11.022,7.77009q.765.45531,1.528.92613a50.40573,50.40573,0,0,1,9.5727,19.36667c.30933,1.22546.55439,2.46389.76894,3.71336.11563,9.77128-.44941,19.622-3.08553,29.07356-.167.59861-.37132,1.18484-.55714,1.77737-.59884,1.56325-1.25894,3.103-1.95814,4.62637-1.14413,2.02907-2.3697,4.0123-3.6869,5.92911-2.61892,3.81105-5.627,7.34365-8.53246,10.93519-5.39211,6.66531-10.535,13.65141-12.76769,21.83584a25.432,25.432,0,0,0-8.88619,7.078c-.221.264-.42953.53786-.6473.80445-3.464,3.24414-6.2397,7.22693-8.97933,11.07162a92.51418,92.51418,0,0,0-8.34835,13.68282c-5.07449,10.623-7.23066,23.54408-2.06171,34.56308a3.26376,3.26376,0,0,0,3.99906,2.00485,3.22975,3.22975,0,0,0,2.00478-3.99906c-2.28692-9.42752-.78625-19.58611,3.147-28.36982,3.93747-8.79331,10.13742-16.313,17.31822-22.66428a51.3275,51.3275,0,0,1,8.44905-6.48947,23.93364,23.93364,0,0,1,8.5584,1.16158c7.01745,2.23793,12.32717,7.97486,15.907,14.26783a63.60063,63.60063,0,0,1,2.32543,6.22559,91.76007,91.76007,0,0,1,3.43748,14.54708,3.25436,3.25436,0,0,0-2.08622,2.9931,10.75073,10.75073,0,0,0,1.79905,6.46832,22.61019,22.61019,0,0,0,6.41959,8.5516c1.72107,1.40756,4.8153.80994,5.19835-1.664A60.62125,60.62125,0,0,0,615.22793,256.33311Z" transform="translate(-88.32144 -37.47634)"/><path class="cls-15" d="M611.79307,275.96931a14.67654,14.67654,0,0,1-.37722-1.70158c-.01145-.07737-.12751-.05272-.10318.01945a10.1482,10.1482,0,0,1,.39144,1.65863,6.55427,6.55427,0,0,0-1.80769-.23569,2.426,2.426,0,0,0-1.88986,3.7271c.49559.69009,1.05582,1.522,1.522,2.23822.08287.12723.16256.26466.23953.40061.03514.08845.14652.33633.16917.40982.08029.26036.16893.51544.23554.78046.03261.12957.04987.18657.06059.21606-.00014.03485.00445.111.02193.27634a15.69381,15.69381,0,0,1-.474,5.817,138.24641,138.24641,0,0,1-4.09038,14.0799,149.25461,149.25461,0,0,1-12.12057,26.186,164.35148,164.35148,0,0,1-22.94656,30.27577q-4.29615-8.03289-8.37218-16.193c-5.11759-10.25134-10.05182-20.676-12.797-31.83756a122.09488,122.09488,0,0,1-2.04334-15.65747c-.00781-.57034-.01866-1.14039-.01556-1.71136.00962-1.80292.09238-3.77048-1.09894-5.22577a2.00472,2.00472,0,0,0-3.09748-.23728,5.92268,5.92268,0,0,0-1.62291,3.85556,4.17245,4.17245,0,0,0-.50789,1.768c-1.05309,15.32664,3.11337,31.14242,10.73811,44.40806.52928.92087,1.08283,1.82514,1.6293,2.73418a111.00094,111.00094,0,0,0,13.601,21.78716q-5.22969,5.21422-10.8388,10.03139c-2.14578,1.84577-4.35889,3.63273-6.609,5.37161-.85592.58821-1.71485,1.17205-2.58939,1.73073-2.12011,1.35438-4.30006,2.617-6.53949,3.76393-1.07739.55182-2.17225,1.06491-3.28184,1.54878a18.1919,18.1919,0,0,0-1.96751.87929,7.876,7.876,0,0,0-1.7848,1.62616,2.58776,2.58776,0,0,0-.549,2.12041c-1.13034.6921-2.26983,1.3677-3.42253,2.017a.237.237,0,0,0,.20381.42124q1.79-.69968,3.57531-1.41717a1.94211,1.94211,0,0,0,1.50772.96719,7.54057,7.54057,0,0,0,4.01681-.44941c1.20624-.51561,2.393-1.07225,3.57261-1.64587q3.196-1.554,6.24575-3.38119a97.28312,97.28312,0,0,0,11.6033-8.27512c3.92828-3.232,7.65495-6.68513,11.25-10.27329.13229.14015.25671.28841.38993.4276.82315.86,1.70628,1.6663,2.61259,2.44768a43.46936,43.46936,0,0,0,10.7227,8.66571,41.96061,41.96061,0,0,0,4.47407,2.64024c2.74383,1.37712,5.908,2.844,8.96828,3.20273a2.55186,2.55186,0,0,0,2.89076-1.60924,2.51634,2.51634,0,0,0-1.19114-3.08639c-2.57426-1.25366-5.39409-2.00941-8.03359-3.14223a86.213,86.213,0,0,1-7.80092-3.72507c-1.86223-1.03083-3.69936-2.1448-5.49049-3.31445-1.21794-1.31645-2.35637-2.70053-3.50241-4.103-.37462-.45844-.72854-.93738-1.09621-1.40291q3.46977-3.59978,6.81115-7.322c13.44026-14.91989,25.84505-31.32275,30.95738-51.0862a56.9709,56.9709,0,0,0,1.3591-7.26506A92.85033,92.85033,0,0,0,616.18447,289.93C617.06152,285.43309,617,277.44459,611.79307,275.96931Z" transform="translate(-88.32144 -37.47634)"/><path class="cls-5" d="M604.92762,369.31193a8.0358,8.0358,0,0,0-8.57839.44354,9.56109,9.56109,0,0,0-3.29109,3.73542,8.18731,8.18731,0,0,0-.543,5.61881,2.72234,2.72234,0,0,0,2.021,1.82214,2.60282,2.60282,0,0,0,1.13578-.01881,2.3886,2.3886,0,0,0,.75908,3.6043,5.21747,5.21747,0,0,0,5.1272-.50108,8.49542,8.49542,0,0,0,3.97279-1.25649,7.48634,7.48634,0,0,0,3.21053-6.59066A8.23416,8.23416,0,0,0,604.92762,369.31193Z" transform="translate(-88.32144 -37.47634)"/><path class="cls-5" d="M542.79982,381.83433a2.5306,2.5306,0,0,0-.82339-2.13494,4.97371,4.97371,0,0,0-5.389-.70948,2.4468,2.4468,0,0,0-2.22049-.36839,9.96129,9.96129,0,0,0-2.51781,1.22454,12.05753,12.05753,0,0,0-2.70748,1.95525,7.1972,7.1972,0,0,0-1.9172,3.39646,6.519,6.519,0,0,0-.42428,1.90862,4.83591,4.83591,0,0,0,3.0464,4.66585,5.63989,5.63989,0,0,0,.99273.44284,5.37292,5.37292,0,0,0,2.82544.0795,18.40453,18.40453,0,0,0,7.79353-2.23165,2.53335,2.53335,0,0,0,1.011-2.906,2.83684,2.83684,0,0,0-.41552-.73088,4.59543,4.59543,0,0,0,.41083-1.68167,1.51223,1.51223,0,0,0-.52126-1.22019A2.50655,2.50655,0,0,0,542.79982,381.83433Z" transform="translate(-88.32144 -37.47634)"/></svg>