<svg id="_1" data-name="1" xmlns="http://www.w3.org/2000/svg" xmlns:xlink="http://www.w3.org/1999/xlink" viewBox="0 0 866.03788 690.25"><defs><style>.cls-1{fill:url(#Gradiente_sem_nome_124);}.cls-2{fill:#204c26;}.cls-3{fill:url(#linear-gradient);}.cls-4{fill:url(#linear-gradient-2);}.cls-5{fill:url(#linear-gradient-3);}.cls-6{fill:#fff;stroke:#010101;stroke-miterlimit:10;stroke-width:0.5px;}.cls-7{fill:url(#linear-gradient-4);}.cls-8{fill:url(#linear-gradient-5);}.cls-9{fill:#2b2828;}.cls-10{fill:#555454;}.cls-11{fill:url(#linear-gradient-6);}.cls-12{fill:#2f5579;isolation:isolate;}.cls-13{fill:#476d4e;}.cls-14{fill:url(#linear-gradient-7);}.cls-15{fill:url(#linear-gradient-8);}.cls-16{fill:url(#linear-gradient-9);}.cls-17{fill:url(#linear-gradient-10);}.cls-18{fill:url(#linear-gradient-11);}.cls-19{fill:url(#Gradiente_sem_nome_124-2);}.cls-20{fill:url(#Gradiente_sem_nome_419);}.cls-21{fill:url(#linear-gradient-12);}.cls-22{fill:url(#linear-gradient-13);}.cls-23{fill:#724577;}.cls-24{fill:url(#Gradiente_sem_nome_124-3);}.cls-25{fill:url(#Gradiente_sem_nome_215);}.cls-26{fill:url(#Gradiente_sem_nome_43);}.cls-27{fill:url(#Gradiente_sem_nome_2);}.cls-28{fill:#e2dede;}.cls-29{fill:url(#Gradiente_sem_nome_2-2);}.cls-30{fill:url(#Gradiente_sem_nome_289);}.cls-31{fill:#dbdddb;}.cls-32{fill:#644c31;}.cls-33{fill:#20232b;}.cls-34{fill:#35373d;}.cls-35{fill:#e52421;}.cls-36{fill:#4285c6;}.cls-37{fill:#4594d1;}</style><linearGradient id="Gradiente_sem_nome_124" x1="345.16626" y1="363.54912" x2="440.53246" y2="363.54912" gradientUnits="userSpaceOnUse"><stop offset="0" stop-color="#aa8d71"/><stop offset="1" stop-color="#fcd29f"/></linearGradient><linearGradient id="linear-gradient" x1="706.60492" y1="447.20886" x2="964.03123" y2="447.20886" gradientTransform="matrix(1, 0, 0, -1, -676.29569, 894.41771)" gradientUnits="userSpaceOnUse"><stop offset="0" stop-color="#6175b8"/><stop offset="1" stop-color="#9fcbee"/></linearGradient><linearGradient id="linear-gradient-2" x1="935.42753" y1="447.65221" x2="1015.36152" y2="447.65221" gradientTransform="matrix(-1, 0, 0, 1, 994.34046, 0)" xlink:href="#linear-gradient"/><linearGradient id="linear-gradient-3" x1="858.69941" y1="260.87534" x2="704.55722" y2="728.06917" gradientTransform="matrix(-1, 0, 0, 1, 994.34046, 0)" gradientUnits="userSpaceOnUse"><stop offset="0" stop-color="#25214b"/><stop offset="1" stop-color="#4b4a75"/></linearGradient><linearGradient id="linear-gradient-4" x1="794.79265" y1="687.5395" x2="981.89125" y2="687.5395" gradientTransform="matrix(1, 0, 0, -1, -399.78619, 1375.07899)" xlink:href="#linear-gradient"/><linearGradient id="linear-gradient-5" x1="527.82475" y1="687.53945" x2="731.83164" y2="687.53945" gradientTransform="matrix(-1, 0, 0, 1, 994.34046, 0)" xlink:href="#linear-gradient"/><linearGradient id="linear-gradient-6" x1="113.81491" y1="405.7565" x2="318.21484" y2="405.7565" gradientTransform="matrix(1, 0, 0, 1, 0, 0)" xlink:href="#linear-gradient"/><linearGradient id="linear-gradient-7" x1="949.82492" y1="441.34337" x2="695.56977" y2="447.69975" gradientTransform="matrix(-1, 0, 0, 1, 994.34046, 0)" gradientUnits="userSpaceOnUse"><stop offset="0" stop-color="#d92c46"/><stop offset="1" stop-color="#d92c46" stop-opacity="0"/></linearGradient><linearGradient id="linear-gradient-8" x1="840.93498" y1="343.99557" x2="855.23683" y2="254.74142" xlink:href="#linear-gradient-7"/><linearGradient id="linear-gradient-9" x1="815.19391" y1="514.01177" x2="812.01572" y2="611.47624" gradientTransform="matrix(-1, 0, 0, 1, 981.21208, -23.5)" xlink:href="#linear-gradient-7"/><linearGradient id="linear-gradient-10" x1="666.47832" y1="528.64385" x2="705.34685" y2="644.19893" gradientTransform="matrix(-1, 0, 0, 1, 994.34046, 0)" gradientUnits="userSpaceOnUse"><stop offset="0" stop-color="#21254e"/><stop offset="1" stop-color="#21254e" stop-opacity="0"/></linearGradient><linearGradient id="linear-gradient-11" x1="80.90454" y1="150.63636" x2="301.98822" y2="150.63636" gradientTransform="matrix(1, 0, 0, 1, 0, 0)" xlink:href="#linear-gradient-3"/><linearGradient id="Gradiente_sem_nome_124-2" x1="780.11142" y1="290.58393" x2="755.21561" y2="175.10972" gradientTransform="matrix(-0.98019, 0.19806, 0.19806, 0.98019, 913.10326, -151.96542)" xlink:href="#Gradiente_sem_nome_124"/><linearGradient id="Gradiente_sem_nome_419" x1="220.23179" y1="215.67931" x2="227.73179" y2="275.67931" gradientUnits="userSpaceOnUse"><stop offset="0.00559" stop-color="#805626"/><stop offset="1" stop-color="#f39986" stop-opacity="0"/></linearGradient><linearGradient id="linear-gradient-12" x1="192.69353" y1="165.9107" x2="214.66208" y2="165.9107" gradientTransform="matrix(1, 0, 0, 1, 0, 0)" xlink:href="#linear-gradient-3"/><linearGradient id="linear-gradient-13" x1="206.16596" y1="185.57392" x2="224.39399" y2="185.57392" gradientTransform="matrix(-0.66964, -0.00635, -0.01334, 1.40735, 376.6321, -95.83004)" xlink:href="#linear-gradient-3"/><linearGradient id="Gradiente_sem_nome_124-3" x1="907.83573" y1="510.23924" x2="649.60785" y2="565.06301" gradientTransform="matrix(-1, 0, 0, 1, 994.34046, 0)" xlink:href="#Gradiente_sem_nome_124"/><linearGradient id="Gradiente_sem_nome_215" x1="196.82761" y1="338.67298" x2="276.32761" y2="395.67298" gradientUnits="userSpaceOnUse"><stop offset="0.04469" stop-color="#a03816"/><stop offset="0.99441" stop-color="#480e14"/></linearGradient><linearGradient id="Gradiente_sem_nome_43" x1="228.0002" y1="261.53702" x2="280.1252" y2="275.03702" gradientUnits="userSpaceOnUse"><stop offset="0" stop-color="#8e1918"/><stop offset="0.99441" stop-color="#5f1918"/></linearGradient><linearGradient id="Gradiente_sem_nome_2" x1="280.49541" y1="208.07915" x2="296.99541" y2="191.57915" xlink:href="#Gradiente_sem_nome_124"/><linearGradient id="Gradiente_sem_nome_2-2" x1="324.46674" y1="307.91843" x2="367.11758" y2="265.26758" xlink:href="#Gradiente_sem_nome_124"/><linearGradient id="Gradiente_sem_nome_289" x1="401.01223" y1="719.65104" x2="444.88723" y2="584.65104" gradientUnits="userSpaceOnUse"><stop offset="0" stop-color="#5b4229"/><stop offset="0.99441" stop-color="#45381e"/></linearGradient></defs><g id="Patient"><path class="cls-1" d="M345.16626,382s68,13,76,9.5,25-22,17.5-28.5-72.5-28-72.5-28Z" transform="translate(-13.12838 -23.5)"/><path class="cls-2" d="M283.31287,349.19818c-1.76868,1.22736-3.5196,2.47711-5.27826,3.7171l-33.187-106.07422,33.28588,5.33051a40.20816,40.20816,0,0,1,11.84052,4.20227S325.66626,310.5,366.16626,322l4.5-7.5,17.5,8.5-41,69.5-27.5-11.5Z" transform="translate(-13.12838 -23.5)"/><path class="cls-3" d="M30.30923,345.7423H268.4341a19.30144,19.30144,0,0,1,19.30144,19.30144V534.0543a14.62112,14.62112,0,0,1-14.62112,14.62112H30.30923a0,0,0,0,1,0,0V345.7423a0,0,0,0,1,0,0Z" transform="translate(304.91639 870.91771) rotate(180)"/><path class="cls-4" d="M47.60576,346.6291,67.76982,548.67532h-6.25A31.21059,31.21059,0,0,1,30.30923,517.4647v-148.08A23.63363,23.63363,0,0,1,47.60576,346.6291Z" transform="translate(-13.12838 -23.5)"/><path class="cls-5" d="M47.50069,694.36638a29.65267,29.65267,0,0,0,9.54868,19.0096H515.21285a10.14508,10.14508,0,0,0-9.88018-12.59407H94.78648a29.728,29.728,0,0,1-29.581-26.77578l-32.486-325.51276a9.81953,9.81953,0,1,0-19.542,1.95033Z" transform="translate(-13.12838 -23.5)"/><path class="cls-6" d="M515.5128,710.9621" transform="translate(-13.12838 -23.5)"/><rect class="cls-7" x="100.22939" y="674.29704" width="394.09548" height="26.48491" rx="8.18946" transform="translate(581.42588 1351.57899) rotate(180)"/><path class="cls-8" d="M217.192,687.53945a13.24244,13.24244,0,0,1,13.24254-13.24239h250.648a13.24239,13.24239,0,0,1,0,26.48478h-250.648A13.24243,13.24243,0,0,1,217.192,687.53945Z" transform="translate(-13.12838 -23.5)"/><path class="cls-9" d="M252.78277,674.297H452.47869l9.32094,39.079h79.22989l-9.8438-103.19584a40.80132,40.80132,0,0,0-35.39228-36.591l-180.224-23.26975H182.86229l.00071,54.0588A69.91984,69.91984,0,0,0,252.78277,674.297Z" transform="translate(-13.12838 -23.5)"/><path class="cls-10" d="M206.169,674.297H356.47089l8.69957,39.079H440.742l-9.34557-86.53744a41.94537,41.94537,0,0,0-33.23862-36.57876L217.29269,552.99613H134.13005V602.258A72.039,72.039,0,0,0,206.169,674.297Z" transform="translate(-13.12838 -23.5)"/><path class="cls-11" d="M315.09974,539.93727l-1.92813-1.11238-2.69436-82.16682-1.63645-50.10021a5.7255,5.7255,0,0,1-2.26514-4.18c-1.31141-14.65516-.57813-29.32829-.73249-44.01467a173.9,173.9,0,0,0-3.1651-30.39843,5.26535,5.26535,0,0,1-3.81611-3.83243c-3.6011-12.44444-5.94149-25.22616-9.65951-37.63437-1.82053-6.07566-3.31874-12.40871-5.76193-18.26951-1.01759-2.44112-2.18782-4.8032-3.35647-7.16528a53.30379,53.30379,0,0,0-4.69437-3.01545,5.13823,5.13823,0,0,1-2.59476-5.98481l-27.94736-5.22189v-3.13939l-55.22273-2.94157v6.99559l-31.40556,9.574a169.30645,169.30645,0,0,0-20.055,17.48676,163.28119,163.28119,0,0,0-9.85333,16.20964c-7.88688,14.95013-16.749,35.44319-13.14421,52.64715a5.59721,5.59721,0,0,1-1.35186,5.14241l14.0365,178.61363,1.77972,22.51921-5.68539,4.12805a5.76821,5.76821,0,0,0,2.20005,10.3328,323.8499,323.8499,0,0,0,106.49045,3.48534h.04947c26.49913-3.63361,44.643-6.25386,57.47225-8.84949,12.681-2.57077,20.171-5.14155,25.41145-8.72584A6.13322,6.13322,0,0,0,315.09974,539.93727Z" transform="translate(-13.12838 -23.5)"/><path class="cls-12" d="M253.358,251.05832s.87976,36.07037-19.35484,40.46919-50.1466-40.46919-50.1466-40.46919Z" transform="translate(-13.12838 -23.5)"/><path class="cls-13" d="M310.47725,456.65807l.4532,13.8205-1.57009,12.83771,2.14078,4.56708,1.67047,50.94153,1.92813,1.11238a6.13322,6.13322,0,0,1,.46967,10.38212c-5.24043,3.58429-12.73046,6.15507-25.41145,8.72584-1.02632.20763-2.09982.41569-3.19573.62417-7.91288-42.43692,1.84029-129.72209,2.16354-131.33843.43988-2.19941,3.95894-58.50437,3.95894-58.50437L244.84756,246.84106l33.28594,5.3305c.17033.03186.33371.08083.50318.11477.33091.90661,7.09733,2.257,7.40991,3.17082,0,0,34.31084,101.173,37.39,116.129S310.47725,456.65807,310.47725,456.65807Z" transform="translate(-13.12838 -23.5)"/><path class="cls-14" d="M157.2567,353.59406s7.0662,40.75749,27.72437,68.56665c20.65831,27.80915-6.09155,45.45225,13.24254,61.79133,19.33394,16.33909,10.59392,25.38666,32.84125,46.44223,22.24732,21.05542-59.32618-18.0436-59.32618-18.0436l-50.72984-71.99256-1.441-18.337Z" transform="translate(-13.12838 -23.5)"/><path class="cls-15" d="M110.57256,272.32666c1.21137,6.05624,4.79554,12.28554,14.68324,11.445,18.66316-1.58207,24.843,4.17756,33.76658,8.94836a20.26628,20.26628,0,0,0,3.80671,1.55732,22.21908,22.21908,0,0,0,13.86747-.56849l-6.62474-12.50794-12.50794-23.68108-40.2676,12.28539A52.20178,52.20178,0,0,0,110.57256,272.32666Z" transform="translate(-13.12838 -23.5)"/><polygon class="cls-16" points="116.503 526.449 219.508 544.395 199.931 502.614 114.723 503.929 116.503 526.449"/><path class="cls-17" d="M370.37549,613.39876s-33.30856-2.91073-63.96106-2.66551-22.80739-27.01461-60.85592-37.684C219.04969,565.6157,367.92329,577.20894,370.37549,613.39876Z" transform="translate(-13.12838 -23.5)"/><path class="cls-18" d="M114.16626,86c-15.889.16572-25.30771,25.164-11.677,34.41109C90.26591,112.3116,69.5,155.84943,96.542,161.98563c-12.17259,5.63512-19.73448,23.33212-13.27429,35.67458,5.56324,10.62881,18.05631,11.05587,28.33456,9.52661-2.48023,8.13784-4.23639,15.4357,4.3512,21.69749,11.17065,8.14528,21.70447,2.04191,32.66131-1.84437-8.60745,22.234,31.24335,22.69262,40.20015,8.43945,3.92447,14.89421,26.79758,8.31861,35.31569,2.60712,4.16893-2.79532,23.76912-18.66651,16.23851-25.535,1.8513,3.92877,9.55938,4.25386,13.332,3.91918,10.58955-.93943,19.56234-9.32984,25.14518-17.832,5.60945-8.5427,10.164-22.45216,2.49878-31.26326,11.19563-9.90079,23.39514-18.91855,20.09411-36.18289-1.89269-9.89875-12.024-19.22429-22.241-15.26989,16.39784-4.69139,2.13107-29.49995-6.04868-34.87121-11.24076-7.38127-26.21264-8.3599-37.88-1.59489-.448-27.65973-39.87978-29.28171-54.95628-12.45453-7.4745-20.32717-54.35046-7.62247-47.1333,7.84235C125.47352,69.04532,112.59778,73.60077,114.16626,86Z" transform="translate(-13.12838 -23.5)"/><path class="cls-19" d="M176.66,203.22409l11.83811,58.58709c11.69273,7.1954,29.57647,12.08054,39.62606,9.64633,14.88062-3.612,14.89928-18.621,14.89928-18.621l-3.26551-16.16109s14.97189-4.034,13.70425-22.41448c-1.29208-18.37567-8.19181-53.27144-8.19181-53.27144s-3.64569,4.79684-12.50084,5.77909c-8.83087.9775-13.51052-4.70949-15.96881-4.89373-2.4775-.15511,6.34447,6.68712.7879,8.64214-5.53722,1.92588-17.08933-.32975-23.60487-5.2422-6.53492-4.88344-6.11879-2.824-6.09876-.10435-.00927,2.7003-1.15171,15.76759-10.99807,20.45543,0,0-3.73847-7.76843-11.58327-5.77988S158.51772,202.42613,176.66,203.22409Z" transform="translate(-13.12838 -23.5)"/><path class="cls-20" d="M242.5509,256.489a19.198,19.198,0,0,0,.47254-3.65252l-2.6612-13.17017c-7.68432-.97864-23.8457-4.32385-37.239-15.67908C203.12329,223.98724,209.363,255.10034,242.5509,256.489Z" transform="translate(-13.12838 -23.5)"/><polygon class="cls-21" points="193.301 161.554 214.038 164.375 214.662 170.268 192.694 162.769 193.301 161.554"/><polygon class="cls-22" points="235.733 159.75 223.881 165.196 224.87 168.199 236.124 161.464 235.733 159.75"/><path class="cls-13" d="M186.056,239.62138l57.322,132.84451-24.19354,41.349,34.31084,196.18759S149.24313,586.68867,132.5276,580.53032s-10.99706-19.35483-10.99706-19.35483l15.39588-59.38414L143.534,256.48354Z" transform="translate(-13.12838 -23.5)"/><path class="cls-2" d="M241.71526,542.64486c-26.9519-13.49266-70.03812-36.89457-70.03812-36.89457l7.478-25.95307L151.00266,304.2841l7.03812,168.475L133.71845,514.165l-6.35532,24.51328,124.09355,59.66737Z" transform="translate(-13.12838 -23.5)"/><path class="cls-23" d="M252.631,605.06057l-.87247-4.989L204.66833,428.331l21.55424-71.261L191.032,324.07882s-1.46455-48.33037-2.51787-78.76066l-2.45816-5.69678L175.74369,244.09l.33228.37007,7.03812,102.93251L219.18445,361.029l-20.23459,70.3812Z" transform="translate(-13.12838 -23.5)"/><path class="cls-13" d="M131.36339,261.85714q1.29763-.66735,2.66958-1.26073a52.20179,52.20179,0,0,1,6.72368-2.52138l23.47114-7.1609c9.3833,9.93337-8.728,34.8768-3.14727,47.4191A76.23213,76.23213,0,0,0,155.809,331.6776l10.06073,152.29521s-31.9867-1.73032-59.96893,28.37787a33.48125,33.48125,0,0,1-5.38877-13.89239l-.76464-175.594A58.727,58.727,0,0,1,131.36339,261.85714Z" transform="translate(-13.12838 -23.5)"/><path class="cls-24" d="M121.7952,525.081A33.81756,33.81756,0,0,1,105.905,512.35187c27.98689-30.10621,59.97029-28.38157,59.97029-28.38157h0l.291,4.40266L290.158,559.04522l30.75075,17.526c23.85414,1.97751,51.86094,14.28765,53.6408,28.4024,1.77972,14.11474-8.75071,7.93493-26.42488,0a66.3192,66.3192,0,0,0-26.7215-5.75963,43.86362,43.86362,0,0,1-15.499-3.01568l-73.2679-28.30357-104.78478-40.4654Z" transform="translate(-13.12838 -23.5)"/><path class="cls-13" d="M171.04965,475.02074l.49018,12.25449s-18.03518.87976-32.99119,8.35776-32.5513,24.63342-32.5513,24.63342-11.43695-8.35776-11.87683-16.71553c-.41119-7.81256,21.08639-28.30914,66.64847-36.69868A8.68429,8.68429,0,0,1,171.04965,475.02074Z" transform="translate(-13.12838 -23.5)"/><path class="cls-25" d="M225.91626,245s-37.125-3-38.25-3.375l-24.75,37.125s24.375,66.75,24.375,68.25c0,1.28973,5.82214,79.09808,7.45416,100.8844-3.67517,7.342-9.43194,18.71228-6.99975,25.95459,3.42871-5.2182,5.03955-12.23267,7.10443-18.08386-1.84711,6.85473-4.55847,14.05835-3.93573,21.31433,4.24957-5.89276,4.78045-14.22681,8.34228-20.505-2.30255,5.46961-4.19122,14.03791-3.2724,19.84626,4.37976-4.6117,4.18457-14.56733,9.63745-18.39631a69.82539,69.82539,0,0,0,.13062,22.171c6.54925-3.04681,4.32812-17.68023,8.95673-22.89422.65374,1.62817.319,3.84582.32354,5.68567.01429,5.80737.40137,11.59088.385,17.39727,1.28644-8.52777,2.16675-16.95623,4.24188-25.40588,1.01911,1.55164.59424,3.98871.66077,5.96619a137.357,137.357,0,0,0,1.56183,16.19159c1.91138-7.33948.07928-16.69037,3.38568-23.97712,2.04938,5.76661.52521,14.50635,4.70679,19.76722,2.231-7.29779-.55463-15.329,1.09021-22.71051,4.05237,8.38311,2.04816,20.1181,5.37085,29.05816,1.58026-8.63342-2.50562-18.43066-.11145-26.78271,3.06994,7.77453,1.97577,17.82226,6.00738,24.98767.67224-9.02509-1.44586-18.09436-1.03894-27.04761.30677.697,1.1178,3.097,1.50733,4.46552.07318-1.89-.41053-3.51129-.38233-5.39954,1.08563,6.55463,3.29181,16.21429,6.67389,21.89954a60.47086,60.47086,0,0,0-1.64172-10.75049c-1.456-7.177-2.67029-14.77673-4.46155-21.9494-.50226-23.07764-1.97412-85.65815-3.197-87.18671-.913-1.1413-9.8844-22.98425-16.76587-39.90442L240.16626,323.75s34.5-7.5,45.75-13.125,21-34.5,21-35.625S225.91626,245,225.91626,245Z" transform="translate(-13.12838 -23.5)"/><path class="cls-26" d="M178.29126,236l-17.625,22.5s15,16.875,16.875,18,53.625,32.25,69,27.75,34.125-8.25,37.5-13.875,12.375-31.875,11.625-34.875-6.75-18.375-15.375-20.625-29.625,10.875-30.75,11.25.375,18.75-6.75,21.75.375,6-20.25-.375-25.125-33.75-34.875-34.125S178.29126,236,178.29126,236Z" transform="translate(-13.12838 -23.5)"/><path class="cls-27" d="M302.41626,218.375c.85261-1.04937,0-16.125-1.875-19.125s-19.5-8.625-19.5-8.625l-10.5-4.875s-1.125,9.375,1.875,10.875,11.25,4.875,11.25,4.875l4.5,18.75S297.54126,224.375,302.41626,218.375Z" transform="translate(-13.12838 -23.5)"/><path class="cls-28" d="M330.0658,257.38873c-3.20545-10.76025-15.54328-11.79614-23.50727-17.47412-7.10559-5.0661-4.60193-13.97516-9.78766-19.71405-.37536-3.64068-3.66528-7.74127-1.47961-9.70056-1.34491-2.2229-.81659-5.79517-2.71783-8.17657-1.52875-1.91492-3.76612-2.55994-5.91584-3.45783-1.49328-.62372-3.60717-1.89233-5.222-2.26129-3.11035-.71069-5.34278,1.04126-8.26935,1.52069-3.65875.59937-10.28967,1.2597-13.48932-.46912-4.91077-2.65344-8.104-5.1806-14.26068-2.81048-8.76532,3.37445-10.805,8.08111-14.60034,16.92877-2.48322,5.78882-2.07776,8.59589-2.72571,14.74982-.56232,5.34039-2.49854,7.92755-.043,10.60815-.36932,5.49567-1.14105,9.07636,4.99451,12.99243,8.52655,5.44208,6.39782,5.28943,4.12457,14.37543-2.52393,10.08777,9.64685,6.68634,16.02582,9.50171,7.4527,3.28931,4.92462,12.32538,13.97595,15.02588,4.9707,1.483,15.27179,5.259,20.10773,3.58191,10.11071-3.50653-3.131-10.34888-3.13532-15.58368-.00683-8.19592,12.92011.84448,17.02582.47241,5.19043-.47034,7.05334-5.87024,12.0116-6.89685,4.32147-.89471,8.35443,2.64923,12.4884.79718C330.661,269.16089,331.43829,261.99615,330.0658,257.38873Z" transform="translate(-13.12838 -23.5)"/><path class="cls-29" d="M435.16626,347.5c-12.056-21.81555-108.20532-105.644-124.22528-119.53192.15161-.589.22528-.96808.22528-.96808l-15.5-21.5-47.5-4-8.5,18.5s3.231.09515,7.935.51038c-2.31684,1.79138-10.06,12.11462-10.06,12.11462l4.125,3,9-8.625,24.174-.90649A18.56375,18.56375,0,0,1,282.16626,231a17.7132,17.7132,0,0,0,16.49475,6.99719C310.1319,255.2489,367.77014,342.15759,377.66626,361.5c11,21.5,39.5,27,47.5,26S445.66626,366.5,435.16626,347.5Z" transform="translate(-13.12838 -23.5)"/></g><polygon class="cls-30" points="850.288 482.125 850.288 690.25 14.413 690.25 26.788 518.125 850.288 482.125"/><path class="cls-31" d="M478.66626,492.125c-3.375,0-454.5,34.875-454.5,34.875l342,25.875,513-60.75Z" transform="translate(-13.12838 -23.5)"/><polygon class="cls-32" points="355.288 529.375 355.288 547.375 866.038 488.875 866.038 468.625 355.288 529.375"/><polygon class="cls-32" points="17.181 505.874 17.788 519.25 355.288 547.375 355.288 529.375 17.181 505.874"/><polygon class="cls-33" points="320.413 500.125 320.413 464.125 454.288 474.25 446.413 512.5 320.413 500.125"/><polygon class="cls-33" points="454.288 474.25 691.663 446.125 684.913 481 446.413 512.5 454.288 474.25"/><polygon class="cls-34" points="546.538 437.125 320.413 464.125 454.288 474.25 691.663 446.125 546.538 437.125"/><polygon class="cls-34" points="679.481 392.064 401.49 411.318 424.086 232.742 702.078 213.489 679.481 392.064"/><polygon class="cls-33" points="602.762 344.205 491.785 351.891 500.806 280.602 611.783 272.916 602.762 344.205"/><polygon class="cls-33" points="558.68 460.172 507.037 463.749 530.473 278.547 582.115 274.97 558.68 460.172"/><path class="cls-35" d="M475.236,501.58734a.74859.74859,0,0,0-.83105-.19421,1.00535,1.00535,0,0,0-.20612.16089.95636.95636,0,0,0-.27295.04461,1.2882,1.2882,0,0,0-.68774.58142.92035.92035,0,0,0-.5481.23059.79494.79494,0,0,0-.24652.53315.61178.61178,0,0,0,.07373.33679.769.769,0,0,0,.27136.24249,1.69,1.69,0,0,0,.566.20648,1.7737,1.7737,0,0,0,1.93366-.35333,1.33349,1.33349,0,0,0,.3208-.9187A1.24284,1.24284,0,0,0,475.236,501.58734Z" transform="translate(-13.12838 -23.5)"/><path class="cls-35" d="M474.88116,511.31885l-.05041-.11945a.50326.50326,0,0,0-.17938-.17938l-.001-.00043a.40666.40666,0,0,0-.0553-.27612l-.07818-.1012a.4995.4995,0,0,0-.22065-.1286l-.13293-.01788a.49776.49776,0,0,0-.25232.0683c-.03815.02734-.07684.05682-.11279.08691l-.014.01245a.86083.86083,0,0,0-.09869.12525.62011.62011,0,0,0-.07874.17834.68049.68049,0,0,0-.01532.0965.75541.75541,0,0,0-.01123.10205.29059.29059,0,0,0,.00208.03174,1.37691,1.37691,0,0,0,.024.167.34686.34686,0,0,0,.01.03369,1.61213,1.61213,0,0,0,.064.15216.36918.36918,0,0,0,.03808.06244.87184.87184,0,0,0,.12616.15118,1.29879,1.29879,0,0,0,.12665.09681.2641.2641,0,0,0,.03119.01684.91143.91143,0,0,0,.15241.062l.01709.00354a1.30677,1.30677,0,0,0,.15032.01984.52582.52582,0,0,0,.10212-.01.55117.55117,0,0,0,.1076-.01892.51553.51553,0,0,0,.34924-.615Z" transform="translate(-13.12838 -23.5)"/><path class="cls-36" d="M494.82843,499.30811a1.66391,1.66391,0,0,0-1.5177-.40888,1.41953,1.41953,0,0,0-.69122.3822c-.02106.02155-.02948.049-.04853.07148a1.67014,1.67014,0,0,0-.39624.57171,1.64439,1.64439,0,0,0-.28827.55011.50617.50617,0,0,0,.32929.60388,1.20765,1.20765,0,0,0,.53967.559.97161.97161,0,0,0,1.11945-.13769c.00781-.00806.01074-.01874.01813-.027a1.04344,1.04344,0,0,0,.37744-.23236,1.37036,1.37036,0,0,0,.3797-.91327,2.27887,2.27887,0,0,0,.30688-.53271A.4894.4894,0,0,0,494.82843,499.30811Z" transform="translate(-13.12838 -23.5)"/><path class="cls-36" d="M495.13641,509.5506a.51355.51355,0,0,0-.615-.34918l-3.23511.58245a.50241.50241,0,0,0-.34924.61506.51361.51361,0,0,0,.615.34924q1.61756-.29123,3.23517-.58252A.5024.5024,0,0,0,495.13641,509.5506Z" transform="translate(-13.12838 -23.5)"/><path d="M509.16626,527.25a1.00072,1.00072,0,0,1-.99756-1.06934l1.75-25.25a.99606.99606,0,0,1,.291-.63818,1.01264,1.01264,0,0,1-.03565-.16846.99981.99981,0,0,1,.86817-1.11621l134.25-16.75a.99989.99989,0,0,1,1.11718,1.10791l-3,25.74951a1.00148,1.00148,0,0,1-.86474.877l-133.25,17.25A1.14058,1.14058,0,0,1,509.16626,527.25Zm2.74658-26.33545a.96274.96274,0,0,1,.001.15479l-1.66553,24.03222L641.51343,508.1084l2.7622-23.7085Z" transform="translate(-13.12838 -23.5)"/><path d="M512.02661,505.92578l-.24853-.85156-.94385-.62891c.39111-.58691.56982-.855,67.28125-8.47021,32.74756-3.73828,65.85937-7.43213,66.18994-7.46875l.22168,1.9873C599.95044,495.46533,514.89087,505.08887,512.02661,505.92578Z" transform="translate(-13.12838 -23.5)"/><path d="M512.02661,510.67578l-.24853-.85156-.94385-.62891c.39111-.58691.56982-.855,67.28125-8.47021,32.74756-3.73828,65.85937-7.43213,66.18994-7.46875l.22168,1.9873C599.95044,500.21533,514.89087,509.83887,512.02661,510.67578Z" transform="translate(-13.12838 -23.5)"/><path d="M512.02661,515.42578l-.24853-.85156-.94385-.62891c.39111-.58691.56982-.855,67.28125-8.47021,32.74756-3.73828,65.85937-7.43213,66.18994-7.46875l.22168,1.9873C599.95044,504.96533,514.89087,514.58887,512.02661,515.42578Z" transform="translate(-13.12838 -23.5)"/><path d="M512.02661,520.17578l-.24853-.85156-.94385-.62891c.39111-.58691.56982-.855,67.28125-8.47021,32.74756-3.73828,65.85937-7.43213,66.18994-7.46875l.22168,1.9873C599.95044,509.71533,514.89087,519.33887,512.02661,520.17578Z" transform="translate(-13.12838 -23.5)"/><path d="M512.02661,524.92578l-.24853-.85156-.94385-.62891c.39111-.58691.56982-.855,67.28125-8.47021,32.74756-3.73828,65.85937-7.43213,66.18994-7.46875l.22168,1.9873C599.95044,514.46533,514.89087,524.08887,512.02661,524.92578Z" transform="translate(-13.12838 -23.5)"/><path class="cls-37" d="M318.32458,176.39189c1.14906-1.86035,82.78-55.4529,82.78-55.4529l1.62855,8.8673Z" transform="translate(-13.12838 -23.5)"/><path class="cls-37" d="M330.55031,200.044c-.19471-2.01,100.04774-31.0299,100.04774-31.0299l.9623,9.21169Z" transform="translate(-13.12838 -23.5)"/><polygon class="cls-37" points="328.267 209.775 423.562 212.017 423.641 217.886 328.267 209.775"/><circle class="cls-37" cx="342.53788" cy="87.5" r="12"/><circle class="cls-37" cx="44.28788" cy="178.75" r="14.75"/><circle class="cls-37" cx="314.53788" cy="20" r="20"/><circle class="cls-37" cx="308.03788" cy="74.5" r="7"/><circle class="cls-37" cx="65.03788" cy="144.44975" r="3.5"/><circle class="cls-37" cx="75.53788" cy="218" r="7"/></svg>