<svg xmlns="http://www.w3.org/2000/svg" viewBox="0 0 143.27796 143.27796"><defs><style>.cls-1{fill:#355f78;}.cls-2{fill:#284666;}.cls-2,.cls-3{isolation:isolate;}.cls-3,.cls-4{fill:#fff;}</style></defs><g id="_1" data-name="1"><circle class="cls-1" cx="71.63898" cy="71.63898" r="67.83691"/><path class="cls-2" d="M71.639,143.278a71.639,71.639,0,1,1,71.639-71.639A71.72,71.72,0,0,1,71.639,143.278Zm0-141.67709A70.03811,70.03811,0,1,0,141.67708,71.639,70.11754,70.11754,0,0,0,71.639,1.60087Z"/><path class="cls-3" d="M71.639,135.67382A64.03484,64.03484,0,1,1,135.67382,71.639,64.1072,64.1072,0,0,1,71.639,135.67382Zm0-127.26925A63.23441,63.23441,0,1,0,134.87338,71.639,63.30624,63.30624,0,0,0,71.639,8.40457Z"/><path class="cls-4" d="M78.09949,61.59389c-.84863-4.05371-2.5459-6.22168-6.59863-6.22168-6.12793,0-7.919,5.93945-8.01367,17.15722,2.5459-3.86523,7.542-6.3164,13.38672-6.3164,11.7832,0,20.17382,7.44726,20.17382,21.87109,0,13.95117-8.95605,23.09571-23.94433,23.09571-20.92774,0-26.01856-14.89454-26.01856-34.87989,0-24.415,7.44727-35.82226,25.45215-35.82226,15.55469,0,21.96485,10.46386,22.71973,21.11621Zm-13.292,26.207c0,4.99609,2.82813,7.63574,7.63574,7.63574,4.43067,0,7.25879-2.54492,7.25879-7.44726,0-4.61915-2.73437-7.44727-7.35351-7.44727C68.1073,80.54213,64.8075,82.9933,64.8075,87.80092Z"/></g></svg>