<svg id="_1" data-name="1" xmlns="http://www.w3.org/2000/svg" viewBox="0 0 324.375 139.5"><defs><style>.cls-1{fill:#294667;}.cls-2{fill:#fff;}</style></defs><polygon class="cls-1" points="264.375 139.5 0 139.5 60 69.75 0 0 264.375 0 324.375 69.75 264.375 139.5"/><path class="cls-2" d="M262.769,136H8.4712L64.9585,69.75,8.4712,3.5H262.769l56.9893,66.25ZM10.8911,135H262.31L318.439,69.75,262.31,4.5H10.8911L66.3755,69.75Z"/><path class="cls-2" d="M92.3733,34.1791a3.1782,3.1782,0,0,1,2.7246,1.3579,6.23,6.23,0,0,1,.9844,3.7222,6.1219,6.1219,0,0,1-1.0151,3.77,3.5448,3.5448,0,0,1-5.48.0791h-.1846l-.4482,1.081H86.9065V30.514h2.6807v3.1817q0,.6064-.1055,1.9424h.1055A3.1009,3.1009,0,0,1,92.3733,34.1791Zm-.8613,2.1445a1.6925,1.6925,0,0,0-1.45.6109,3.5065,3.5065,0,0,0-.4746,2.017v.29a4.14,4.14,0,0,0,.47,2.2676,1.6782,1.6782,0,0,0,1.49.6855,1.4949,1.4949,0,0,0,1.314-.76,4.1154,4.1154,0,0,0,.4878-2.2105,3.8988,3.8988,0,0,0-.4922-2.1753A1.5432,1.5432,0,0,0,91.512,36.3236Z"/><path class="cls-2" d="M102.27,39.2592a13.2446,13.2446,0,0,1-.6812,4.3066,10.3011,10.3011,0,0,1-1.9643,3.4717h-2.18a12.6887,12.6887,0,0,0,1.8369-3.6255,13.4511,13.4511,0,0,0,.65-4.17,13.9481,13.9481,0,0,0-.6328-4.1748A12.6567,12.6567,0,0,0,97.427,31.34h2.1973a10.7807,10.7807,0,0,1,1.9687,3.5728A13.6827,13.6827,0,0,1,102.27,39.2592Z"/><path class="cls-2" d="M118.16,35.348a3.9274,3.9274,0,0,1-1.2964,3.1729,5.5443,5.5443,0,0,1-3.687,1.0986h-1.1689v4.57h-2.7246V31.34h4.1045a5.4593,5.4593,0,0,1,3.5551,1.0064A3.6691,3.6691,0,0,1,118.16,35.348Zm-6.1523,2.0391h.8965a2.9852,2.9852,0,0,0,1.8808-.4966,1.7379,1.7379,0,0,0,.624-1.4458,1.782,1.782,0,0,0-.5229-1.415,2.45,2.45,0,0,0-1.6392-.4571h-1.2392Z"/><path class="cls-2" d="M125.86,34.1791a4.3253,4.3253,0,0,1,.9053.0791l-.2021,2.5137a3.071,3.071,0,0,0-.7911-.0879,2.8431,2.8431,0,0,0-1.9995.6591,2.3831,2.3831,0,0,0-.7163,1.8457V44.19h-2.6806V34.3637h2.03l.3955,1.6523h.1319a3.6938,3.6938,0,0,1,1.2348-1.3315A3.0445,3.0445,0,0,1,125.86,34.1791Z"/><path class="cls-2" d="M137.4788,39.2592a5.28,5.28,0,0,1-1.2657,3.7529,4.589,4.589,0,0,1-3.5244,1.3535,4.93,4.93,0,0,1-2.4961-.62,4.1233,4.1233,0,0,1-1.6611-1.78,5.9807,5.9807,0,0,1-.58-2.707,5.2513,5.2513,0,0,1,1.2569-3.7442,4.6156,4.6156,0,0,1,3.5332-1.3359,4.9588,4.9588,0,0,1,2.4961.6152,4.1064,4.1064,0,0,1,1.6611,1.7666A5.9256,5.9256,0,0,1,137.4788,39.2592Zm-6.794,0a4.1243,4.1243,0,0,0,.479,2.206,1.7131,1.7131,0,0,0,1.56.7471,1.686,1.686,0,0,0,1.5425-.7427,4.184,4.184,0,0,0,.47-2.21,4.0587,4.0587,0,0,0-.4746-2.1885,2.0181,2.0181,0,0,0-3.1026-.0044A4.0551,4.0551,0,0,0,130.6848,39.2592Z"/><path class="cls-2" d="M148.2454,34.3637V35.726l-1.5381.3955a2.6814,2.6814,0,0,1,.4219,1.4765,2.9811,2.9811,0,0,1-1.1031,2.4654,4.7777,4.7777,0,0,1-3.063.8833L142.48,40.92l-.3956-.044a.8918.8918,0,0,0-.413.7032q0,.58,1.4765.58h1.67a3.81,3.81,0,0,1,2.4654.6943,2.482,2.482,0,0,1,.8481,2.0391,3.0238,3.0238,0,0,1-1.437,2.6718,7.484,7.484,0,0,1-4.1265.9492,5.7118,5.7118,0,0,1-3.142-.7163,2.2742,2.2742,0,0,1-1.0855-2.0083,2.1024,2.1024,0,0,1,.5537-1.4853,3.1444,3.1444,0,0,1,1.626-.8526,1.7932,1.7932,0,0,1-.7207-.5756,1.4148,1.4148,0,0,1,.0176-1.7842,3.7585,3.7585,0,0,1,.94-.7339,2.6381,2.6381,0,0,1-1.2261-1.0723,3.2635,3.2635,0,0,1-.4526-1.74,3.0687,3.0687,0,0,1,1.0459-2.4873,4.5225,4.5225,0,0,1,2.9883-.8789,7.6474,7.6474,0,0,1,.98.0747q.567.0747.7251.11ZM140.66,45.5785a.9715.9715,0,0,0,.5318.87,2.9246,2.9246,0,0,0,1.49.3164,5.2766,5.2766,0,0,0,2.2588-.3955,1.2055,1.2055,0,0,0,.8174-1.081.7653.7653,0,0,0-.4834-.7647,3.96,3.96,0,0,0-1.4942-.2109h-1.3886a2.1034,2.1034,0,0,0-1.2349.3471A1.0707,1.0707,0,0,0,140.66,45.5785Zm.9756-7.998a2.0011,2.0011,0,0,0,.3647,1.2656,1.3251,1.3251,0,0,0,1.1119.4658,1.2977,1.2977,0,0,0,1.1074-.4658,2.0541,2.0541,0,0,0,.3515-1.2656q0-1.7754-1.4589-1.7754Q141.636,35.8051,141.636,37.5805Z"/><path class="cls-2" d="M155.3469,34.1791a4.3253,4.3253,0,0,1,.9053.0791l-.2021,2.5137a3.071,3.071,0,0,0-.7911-.0879,2.8431,2.8431,0,0,0-1.9995.6591,2.3831,2.3831,0,0,0-.7163,1.8457V44.19h-2.6806V34.3637h2.03l.3955,1.6523h.1319a3.6938,3.6938,0,0,1,1.2348-1.3315A3.0445,3.0445,0,0,1,155.3469,34.1791Z"/><path class="cls-2" d="M164.2766,44.19l-.5185-1.3359h-.07a3.96,3.96,0,0,1-1.3931,1.1821,4.5023,4.5023,0,0,1-1.8677.33,3.02,3.02,0,0,1-2.228-.8086,3.105,3.105,0,0,1-.813-2.3027,2.5928,2.5928,0,0,1,1.0942-2.3071,6.3394,6.3394,0,0,1,3.3-.8218l1.7051-.0528V37.642a1.3365,1.3365,0,0,0-1.5293-1.4942,6.9689,6.9689,0,0,0-2.7685.7119l-.8877-1.81a7.9879,7.9879,0,0,1,3.7617-.8877,4.6859,4.6859,0,0,1,3.0322.8613,3.1835,3.1835,0,0,1,1.0547,2.6192V44.19Zm-.791-4.5527-1.0371.0351a3.3216,3.3216,0,0,0-1.74.4219,1.325,1.325,0,0,0-.5713,1.1778q0,1.1337,1.3008,1.1337a2.06,2.06,0,0,0,1.49-.5361,1.8829,1.8829,0,0,0,.5581-1.4238Z"/><path class="cls-2" d="M177.7063,44.19h-2.6807V38.4506a2.8907,2.8907,0,0,0-.3559-1.5952,1.252,1.252,0,0,0-1.1206-.5318,1.6232,1.6232,0,0,0-1.4942.7559,4.9584,4.9584,0,0,0-.4658,2.4873V44.19h-2.6806V34.3637h2.0478l.36,1.2568h.1494a2.7235,2.7235,0,0,1,1.1426-1.0591,3.7093,3.7093,0,0,1,1.7138-.3823,3.0872,3.0872,0,0,1,2.9883,1.4414h.2373a2.6555,2.6555,0,0,1,1.1646-1.0635,3.8844,3.8844,0,0,1,1.7358-.3779,3.4264,3.4264,0,0,1,2.5269.8569,3.7633,3.7633,0,0,1,.8569,2.7466V44.19h-2.69V38.4506a2.8907,2.8907,0,0,0-.3559-1.5952,1.2521,1.2521,0,0,0-1.1206-.5318,1.6719,1.6719,0,0,0-1.4722.7031,3.99,3.99,0,0,0-.4878,2.2325Z"/><path class="cls-2" d="M192.8235,44.19l-.5186-1.3359h-.07a3.959,3.959,0,0,1-1.393,1.1821,4.5026,4.5026,0,0,1-1.8677.33,3.02,3.02,0,0,1-2.228-.8086,3.105,3.105,0,0,1-.813-2.3027,2.5928,2.5928,0,0,1,1.0942-2.3071,6.3394,6.3394,0,0,1,3.3-.8218l1.7051-.0528V37.642a1.3365,1.3365,0,0,0-1.5293-1.4942,6.9693,6.9693,0,0,0-2.7686.7119l-.8877-1.81a7.9886,7.9886,0,0,1,3.7618-.8877,4.6859,4.6859,0,0,1,3.0322.8613,3.1835,3.1835,0,0,1,1.0547,2.6192V44.19Zm-.791-4.5527-1.0371.0351a3.3223,3.3223,0,0,0-1.74.4219,1.3251,1.3251,0,0,0-.5712,1.1778q0,1.1337,1.3007,1.1337a2.06,2.06,0,0,0,1.49-.5361,1.8833,1.8833,0,0,0,.5581-1.4238Z"/><path class="cls-2" d="M205.2424,44.3656a3.1915,3.1915,0,0,1-2.72-1.3447,6.1827,6.1827,0,0,1-.9887-3.7266,6.188,6.188,0,0,1,1.0063-3.7661,3.2686,3.2686,0,0,1,2.773-1.3491,3.2055,3.2055,0,0,1,2.83,1.4414h.0879a10.965,10.965,0,0,1-.2021-1.96V30.514h2.6894V44.19h-2.0566l-.5186-1.2744h-.1142A3.0676,3.0676,0,0,1,205.2424,44.3656Zm.94-2.1357a1.8166,1.8166,0,0,0,1.5073-.5977,3.4762,3.4762,0,0,0,.5229-2.03v-.29a4.0178,4.0178,0,0,0-.4877-2.2676,1.8119,1.8119,0,0,0-1.5865-.6855,1.5734,1.5734,0,0,0-1.393.76,4.056,4.056,0,0,0-.4966,2.2105,3.8438,3.8438,0,0,0,.501,2.1753A1.6366,1.6366,0,0,0,206.1829,42.23Z"/><path class="cls-2" d="M217.969,44.3656a5.0715,5.0715,0,0,1-3.709-1.31,4.9583,4.9583,0,0,1-1.3359-3.7089,5.4539,5.4539,0,0,1,1.2348-3.8189,4.3973,4.3973,0,0,1,3.4146-1.3491,4.3282,4.3282,0,0,1,3.2432,1.1865,4.489,4.489,0,0,1,1.16,3.2783v1.3008H215.64a2.58,2.58,0,0,0,.6768,1.7842,2.3811,2.3811,0,0,0,1.7754.6416,7.3675,7.3675,0,0,0,1.6787-.1846,8.3985,8.3985,0,0,0,1.6523-.5888v2.0742a6.2942,6.2942,0,0,1-1.5029.5229A9.473,9.473,0,0,1,217.969,44.3656Zm-.3779-8.2793a1.7006,1.7006,0,0,0-1.336.5405,2.5024,2.5024,0,0,0-.5537,1.5337h3.7617a2.2345,2.2345,0,0,0-.5185-1.5337A1.756,1.756,0,0,0,217.5911,36.0863Z"/><path class="cls-2" d="M95.9944,56.9481A3.9274,3.9274,0,0,1,94.698,60.121,5.5443,5.5443,0,0,1,91.011,61.22H89.8421v4.57H87.1174V52.94h4.1045a5.4594,5.4594,0,0,1,3.5552,1.0064A3.6693,3.6693,0,0,1,95.9944,56.9481Zm-6.1523,2.0391h.8964a2.9854,2.9854,0,0,0,1.8809-.4966,1.7379,1.7379,0,0,0,.624-1.4458,1.782,1.782,0,0,0-.5229-1.415,2.45,2.45,0,0,0-1.6392-.4571H89.8421Z"/><path class="cls-2" d="M103.6936,55.7792a4.3186,4.3186,0,0,1,.9053.0791l-.2022,2.5137a3.07,3.07,0,0,0-.791-.0879,2.8431,2.8431,0,0,0-1.9995.6591,2.3831,2.3831,0,0,0-.7163,1.8457V65.79H98.2092V55.9638h2.03l.3955,1.6523h.1319a3.6929,3.6929,0,0,1,1.2348-1.3315A3.0443,3.0443,0,0,1,103.6936,55.7792Z"/><path class="cls-2" d="M110.83,65.9657a5.0713,5.0713,0,0,1-3.7089-1.31,4.958,4.958,0,0,1-1.336-3.7089,5.4535,5.4535,0,0,1,1.2349-3.8189,4.397,4.397,0,0,1,3.4145-1.3491,4.328,4.328,0,0,1,3.2432,1.1865,4.489,4.489,0,0,1,1.16,3.2783v1.3008h-6.3369a2.58,2.58,0,0,0,.6768,1.7842,2.3814,2.3814,0,0,0,1.7754.6416,7.3669,7.3669,0,0,0,1.6787-.1846,8.3985,8.3985,0,0,0,1.6523-.5888v2.0742a6.2942,6.2942,0,0,1-1.5029.5229A9.473,9.473,0,0,1,110.83,65.9657Zm-.3779-8.2793a1.7,1.7,0,0,0-1.3359.5405,2.5012,2.5012,0,0,0-.5537,1.5337h3.7617a2.2345,2.2345,0,0,0-.5186-1.5337A1.7558,1.7558,0,0,0,110.4524,57.6864Z"/><path class="cls-2" d="M119.3557,65.79l-3.7441-9.8261h2.8037l1.8984,5.5986a9.9839,9.9839,0,0,1,.3955,2.0127h.0528a8.7512,8.7512,0,0,1,.3955-2.0127l1.89-5.5986h2.8037L122.1067,65.79Z"/><path class="cls-2" d="M131.7044,65.9657a5.0714,5.0714,0,0,1-3.709-1.31,4.9584,4.9584,0,0,1-1.336-3.7089,5.454,5.454,0,0,1,1.2349-3.8189,4.397,4.397,0,0,1,3.4146-1.3491,4.3279,4.3279,0,0,1,3.2431,1.1865,4.4886,4.4886,0,0,1,1.16,3.2783v1.3008h-6.3369a2.58,2.58,0,0,0,.6767,1.7842,2.3814,2.3814,0,0,0,1.7754.6416,7.3669,7.3669,0,0,0,1.6787-.1846,8.3993,8.3993,0,0,0,1.6524-.5888v2.0742a6.2965,6.2965,0,0,1-1.503.5229A9.4727,9.4727,0,0,1,131.7044,65.9657Zm-.378-8.2793a1.7,1.7,0,0,0-1.3359.5405,2.5018,2.5018,0,0,0-.5537,1.5337h3.7617a2.2345,2.2345,0,0,0-.5186-1.5337A1.7557,1.7557,0,0,0,131.3264,57.6864Z"/><path class="cls-2" d="M146.9622,65.79h-2.6807V60.0507a2.7569,2.7569,0,0,0-.3779-1.5952,1.3751,1.3751,0,0,0-1.2041-.5318,1.81,1.81,0,0,0-1.626.7515,4.66,4.66,0,0,0-.501,2.4917V65.79h-2.6806V55.9638H139.94l.36,1.2568h.1494a2.833,2.833,0,0,1,1.2348-1.0767,4.2062,4.2062,0,0,1,1.7886-.3647,3.4366,3.4366,0,0,1,2.6016.9272,3.7211,3.7211,0,0,1,.8877,2.6763Z"/><path class="cls-2" d="M153.7122,65.9657q-4.5879,0-4.5879-5.0361a5.3724,5.3724,0,0,1,1.248-3.8277,4.6821,4.6821,0,0,1,3.5772-1.3227,6.8186,6.8186,0,0,1,3.0586.668l-.791,2.0742q-.6328-.255-1.1778-.4175a3.7944,3.7944,0,0,0-1.09-.1626q-2.0919,0-2.0918,2.9707,0,2.8828,2.0918,2.8828a4.7694,4.7694,0,0,0,1.4326-.2065,5.1769,5.1769,0,0,0,1.3184-.646v2.2939a4.3211,4.3211,0,0,1-1.314.5713A7.3875,7.3875,0,0,1,153.7122,65.9657Zm1.6787,2.0215a1.9062,1.9062,0,0,1-.6636,1.626,3.4082,3.4082,0,0,1-2.0522.5009,4.328,4.328,0,0,1-1.2832-.1845V68.453q.2373.0615.6372.1231a4.3726,4.3726,0,0,0,.62.0615q.6329,0,.6328-.5449,0-.73-1.459-.9493l.6856-1.3535h1.6963l-.2373.5362a2.2661,2.2661,0,0,1,1.0371.6547A1.49,1.49,0,0,1,155.3909,67.9872Z"/><path class="cls-2" d="M165.2171,65.79l-.5186-1.3359h-.07a3.9592,3.9592,0,0,1-1.3931,1.1821,4.5023,4.5023,0,0,1-1.8677.33,3.02,3.02,0,0,1-2.228-.8086,3.1052,3.1052,0,0,1-.813-2.3027,2.5931,2.5931,0,0,1,1.0943-2.3072,6.34,6.34,0,0,1,3.3-.8217l1.705-.0528v-.4306a1.3364,1.3364,0,0,0-1.5293-1.4942,6.9689,6.9689,0,0,0-2.7685.7119l-.8877-1.8105a7.9884,7.9884,0,0,1,3.7617-.8877,4.6857,4.6857,0,0,1,3.0322.8613,3.1832,3.1832,0,0,1,1.0547,2.6192V65.79Zm-3.542-11.83a.7639.7639,0,0,0-.523.233,1.3825,1.3825,0,0,0-.3647.7075h-1.31a3.3368,3.3368,0,0,1,.7251-1.9951,2.1007,2.1007,0,0,1,1.6655-.7207,1.8192,1.8192,0,0,1,.7075.145q.3473.145.6856.3164t.6636.312a1.6084,1.6084,0,0,0,.6416.1406.7711.7711,0,0,0,.5229-.2285,1.3561,1.3561,0,0,0,.3648-.7031h1.31a3.3033,3.3033,0,0,1-.7339,1.9951,2.1075,2.1075,0,0,1-1.6567.7207,1.82,1.82,0,0,1-.7075-.145q-.3472-.145-.6856-.3164t-.6635-.3164A1.5666,1.5666,0,0,0,161.6751,53.96Zm2.7509,7.2774-1.0371.0351a3.3219,3.3219,0,0,0-1.74.4219,1.325,1.325,0,0,0-.5713,1.1778q0,1.1337,1.3008,1.1337a2.06,2.06,0,0,0,1.49-.5361,1.8829,1.8829,0,0,0,.5581-1.4238Z"/><path class="cls-2" d="M178.7786,60.8593a5.28,5.28,0,0,1-1.2656,3.7529,4.5894,4.5894,0,0,1-3.5245,1.3535,4.93,4.93,0,0,1-2.4961-.62,4.1233,4.1233,0,0,1-1.6611-1.78,5.9807,5.9807,0,0,1-.58-2.707,5.2513,5.2513,0,0,1,1.2569-3.7442,4.6156,4.6156,0,0,1,3.5332-1.3359,4.9588,4.9588,0,0,1,2.4961.6152,4.1064,4.1064,0,0,1,1.6611,1.7666A5.9256,5.9256,0,0,1,178.7786,60.8593Zm-6.794,0a4.1243,4.1243,0,0,0,.479,2.206,1.7131,1.7131,0,0,0,1.56.7471,1.686,1.686,0,0,0,1.5425-.7427,4.183,4.183,0,0,0,.47-2.21,4.0587,4.0587,0,0,0-.4746-2.1885,2.0181,2.0181,0,0,0-3.1026-.0044A4.0551,4.0551,0,0,0,171.9846,60.8593Z"/><path class="cls-2" d="M188.7805,65.9657a3.1915,3.1915,0,0,1-2.72-1.3447,6.182,6.182,0,0,1-.9888-3.7266,6.188,6.188,0,0,1,1.0064-3.7661,3.2685,3.2685,0,0,1,2.7729-1.3491,3.2056,3.2056,0,0,1,2.83,1.4414h.0879a10.9558,10.9558,0,0,1-.2021-1.96V52.1141h2.6894V65.79H192.2l-.5186-1.2744h-.1142A3.0676,3.0676,0,0,1,188.7805,65.9657Zm.9405-2.1357a1.8167,1.8167,0,0,0,1.5073-.5977,3.4769,3.4769,0,0,0,.5229-2.03v-.29a4.0177,4.0177,0,0,0-.4878-2.2676,1.8118,1.8118,0,0,0-1.5864-.6855,1.5737,1.5737,0,0,0-1.3931.76,4.057,4.057,0,0,0-.4965,2.2105,3.8447,3.8447,0,0,0,.5009,2.1753A1.6369,1.6369,0,0,0,189.721,63.83Z"/><path class="cls-2" d="M201.5071,65.9657a5.0715,5.0715,0,0,1-3.709-1.31,4.9583,4.9583,0,0,1-1.3359-3.7089,5.4539,5.4539,0,0,1,1.2348-3.8189,4.3973,4.3973,0,0,1,3.4146-1.3491,4.3282,4.3282,0,0,1,3.2432,1.1865,4.489,4.489,0,0,1,1.16,3.2783v1.3008H199.178a2.58,2.58,0,0,0,.6768,1.7842,2.381,2.381,0,0,0,1.7753.6416,7.3684,7.3684,0,0,0,1.6788-.1846,8.3985,8.3985,0,0,0,1.6523-.5888v2.0742a6.2957,6.2957,0,0,1-1.5029.5229A9.473,9.473,0,0,1,201.5071,65.9657Zm-.3779-8.2793a1.7006,1.7006,0,0,0-1.336.5405,2.5024,2.5024,0,0,0-.5537,1.5337h3.7617a2.2345,2.2345,0,0,0-.5185-1.5337A1.756,1.756,0,0,0,201.1292,57.6864Z"/><path class="cls-2" d="M89.8421,82.4594V87.39H87.1174V74.54h3.7442a6.4085,6.4085,0,0,1,3.876.9536,3.8022,3.8022,0,0,1,.6328,4.9131,4.1289,4.1289,0,0,1-1.7666,1.3843q2.9,4.3331,3.7793,5.5986H94.36l-3.0673-4.9306Zm0-2.2149h.8789a3.3617,3.3617,0,0,0,1.9072-.4307,1.5372,1.5372,0,0,0,.6152-1.3535A1.4061,1.4061,0,0,0,92.615,77.16a3.8123,3.8123,0,0,0-1.9468-.3868h-.8261Z"/><path class="cls-2" d="M98.6751,75.0238q0-1.3095,1.4589-1.31t1.459,1.31a1.2769,1.2769,0,0,1-.3647.9712,1.5335,1.5335,0,0,1-1.0943.3472Q98.6751,76.3422,98.6751,75.0238ZM101.47,87.39H98.7893V77.5638H101.47Z"/><path class="cls-2" d="M111.138,84.4721a2.7053,2.7053,0,0,1-1.05,2.3027,5.19,5.19,0,0,1-3.1421.791,9.8685,9.8685,0,0,1-1.8282-.145,6.9168,6.9168,0,0,1-1.415-.4263V84.78a9.3524,9.3524,0,0,0,1.6831.5888,6.8156,6.8156,0,0,0,1.648.2373q1.4589,0,1.4589-.8437a.7045.7045,0,0,0-.1933-.5142,2.8052,2.8052,0,0,0-.668-.4482q-.4746-.2505-1.2656-.5845a7.9505,7.9505,0,0,1-1.6655-.8789,2.4747,2.4747,0,0,1-.7735-.9272,3.0617,3.0617,0,0,1-.2417-1.2876A2.3341,2.3341,0,0,1,104.7,78.0956a4.9442,4.9442,0,0,1,2.8784-.7163,8.1708,8.1708,0,0,1,3.4541.7734l-.8086,1.9336q-.7383-.3163-1.38-.5185a4.3317,4.3317,0,0,0-1.31-.2022q-1.1865,0-1.1865.6416a.7544.7544,0,0,0,.3823.624,10.3931,10.3931,0,0,0,1.6744.7823,7.777,7.777,0,0,1,1.6875.87,2.5745,2.5745,0,0,1,.791.9316A2.8634,2.8634,0,0,1,111.138,84.4721Z"/><path class="cls-2" d="M117.22,87.5658q-4.5879,0-4.5879-5.0361a5.3722,5.3722,0,0,1,1.248-3.8277,4.6822,4.6822,0,0,1,3.5772-1.3227,6.82,6.82,0,0,1,3.0586.6679l-.791,2.0743q-.6329-.255-1.1778-.4175a3.7939,3.7939,0,0,0-1.09-.1626q-2.0918,0-2.0918,2.9707,0,2.8828,2.0918,2.8828a4.769,4.769,0,0,0,1.4326-.2065,5.1753,5.1753,0,0,0,1.3184-.646v2.2939a4.3211,4.3211,0,0,1-1.314.5713A7.3875,7.3875,0,0,1,117.22,87.5658Z"/><path class="cls-2" d="M131.4143,82.4594a5.28,5.28,0,0,1-1.2656,3.7529,4.5893,4.5893,0,0,1-3.5244,1.3535,4.93,4.93,0,0,1-2.4961-.62,4.1233,4.1233,0,0,1-1.6611-1.78,5.9794,5.9794,0,0,1-.58-2.707,5.2513,5.2513,0,0,1,1.2568-3.7442,4.6156,4.6156,0,0,1,3.5332-1.3359,4.9586,4.9586,0,0,1,2.4961.6152,4.1064,4.1064,0,0,1,1.6611,1.7666A5.9243,5.9243,0,0,1,131.4143,82.4594Zm-6.7939,0a4.1234,4.1234,0,0,0,.479,2.206,1.7128,1.7128,0,0,0,1.56.7471,1.6859,1.6859,0,0,0,1.5425-.7427,4.183,4.183,0,0,0,.47-2.21,4.0587,4.0587,0,0,0-.4746-2.1885,2.018,2.018,0,0,0-3.1025-.0044A4.0551,4.0551,0,0,0,124.62,82.4594Z"/><path class="cls-2" d="M140.4846,84.4721a2.7053,2.7053,0,0,1-1.05,2.3027,5.19,5.19,0,0,1-3.142.791,9.8677,9.8677,0,0,1-1.8282-.145,6.9149,6.9149,0,0,1-1.415-.4263V84.78a9.35,9.35,0,0,0,1.6831.5888,6.8149,6.8149,0,0,0,1.6479.2373q1.4591,0,1.459-.8437a.7045.7045,0,0,0-.1933-.5142,2.8052,2.8052,0,0,0-.668-.4482q-.4746-.2505-1.2656-.5845a7.9518,7.9518,0,0,1-1.6656-.8789,2.4744,2.4744,0,0,1-.7734-.9272,3.0617,3.0617,0,0,1-.2417-1.2876,2.3342,2.3342,0,0,1,1.0151-2.0259,4.9447,4.9447,0,0,1,2.8785-.7163,8.1708,8.1708,0,0,1,3.4541.7734l-.8086,1.9336q-.7383-.3163-1.38-.5185a4.3322,4.3322,0,0,0-1.31-.2022q-1.1865,0-1.1865.6416a.7541.7541,0,0,0,.3823.624,10.395,10.395,0,0,0,1.6743.7823,7.7722,7.7722,0,0,1,1.6875.87,2.5739,2.5739,0,0,1,.7911.9316A2.8634,2.8634,0,0,1,140.4846,84.4721Z"/><path class="cls-2" d="M155.3294,87.39l-.9317-3.0586h-4.6846l-.9316,3.0586H145.846l4.5351-12.9023h3.3311L158.2649,87.39Zm-1.5821-5.3437q-1.2919-4.1573-1.4546-4.7022t-.2329-.8613q-.29,1.125-1.6611,5.5635Z"/><path class="cls-2" d="M168.469,87.39h-2.6807V81.6508a2.8914,2.8914,0,0,0-.3559-1.5953,1.2522,1.2522,0,0,0-1.1206-.5317,1.6232,1.6232,0,0,0-1.4942.7559,4.9584,4.9584,0,0,0-.4658,2.4873V87.39h-2.6806V77.5638h2.0478l.36,1.2569h.1494a2.7229,2.7229,0,0,1,1.1426-1.0591,3.7093,3.7093,0,0,1,1.7138-.3823,3.0871,3.0871,0,0,1,2.9883,1.4414h.2373a2.6555,2.6555,0,0,1,1.1646-1.0635,3.8844,3.8844,0,0,1,1.7358-.3779,3.4264,3.4264,0,0,1,2.5269.8569,3.7633,3.7633,0,0,1,.8569,2.7466V87.39h-2.69V81.6508a2.8914,2.8914,0,0,0-.3559-1.5953,1.2522,1.2522,0,0,0-1.1206-.5317,1.6719,1.6719,0,0,0-1.4722.7031,3.99,3.99,0,0,0-.4878,2.2325Z"/><path class="cls-2" d="M182.8128,77.3793a3.1784,3.1784,0,0,1,2.7246,1.3579,6.2311,6.2311,0,0,1,.9843,3.7222,6.1212,6.1212,0,0,1-1.0151,3.77,3.5448,3.5448,0,0,1-5.48.0791h-.1845l-.4483,1.081H177.346V73.7142h2.6806v3.1817q0,.6065-.1054,1.9424h.1054A3.1011,3.1011,0,0,1,182.8128,77.3793Zm-.8614,2.1445a1.6925,1.6925,0,0,0-1.45.6109,3.5065,3.5065,0,0,0-.4746,2.017v.29a4.1407,4.1407,0,0,0,.47,2.2676,1.6784,1.6784,0,0,0,1.49.6855,1.4949,1.4949,0,0,0,1.314-.76,4.1164,4.1164,0,0,0,.4877-2.21,3.8988,3.8988,0,0,0-.4921-2.1753A1.5433,1.5433,0,0,0,181.9514,79.5238Z"/><path class="cls-2" d="M188.6223,75.0238q0-1.3095,1.459-1.31t1.459,1.31a1.2769,1.2769,0,0,1-.3647.9712,1.5336,1.5336,0,0,1-1.0943.3472Q188.6224,76.3422,188.6223,75.0238Zm2.795,12.3662h-2.6807V77.5638h2.6807Z"/><path class="cls-2" d="M198.677,87.5658a5.0717,5.0717,0,0,1-3.709-1.31,4.9584,4.9584,0,0,1-1.3359-3.709,5.4534,5.4534,0,0,1,1.2349-3.8188,4.397,4.397,0,0,1,3.4145-1.3491,4.3282,4.3282,0,0,1,3.2432,1.1865,4.489,4.489,0,0,1,1.16,3.2783v1.3008h-6.3369a2.58,2.58,0,0,0,.6768,1.7842,2.3811,2.3811,0,0,0,1.7754.6416,7.3675,7.3675,0,0,0,1.6787-.1846,8.3927,8.3927,0,0,0,1.6523-.5889v2.0743a6.2942,6.2942,0,0,1-1.5029.5229A9.473,9.473,0,0,1,198.677,87.5658Zm-.3779-8.2793a1.7006,1.7006,0,0,0-1.336.54,2.5024,2.5024,0,0,0-.5537,1.5337h3.7618a2.235,2.235,0,0,0-.5186-1.5337A1.756,1.756,0,0,0,198.2991,79.2865Z"/><path class="cls-2" d="M213.9348,87.39h-2.6806V81.6508a2.7566,2.7566,0,0,0-.378-1.5953,1.3751,1.3751,0,0,0-1.2041-.5317,1.81,1.81,0,0,0-1.6259.7515,4.66,4.66,0,0,0-.501,2.4917V87.39h-2.6807V77.5638h2.0479l.36,1.2569h.1494a2.8338,2.8338,0,0,1,1.2349-1.0767,4.2059,4.2059,0,0,1,1.7886-.3647,3.4365,3.4365,0,0,1,2.6015.9272,3.7211,3.7211,0,0,1,.8877,2.6763Z"/><path class="cls-2" d="M220.8342,85.43a5.81,5.81,0,0,0,1.6875-.3077v1.9952a6.0167,6.0167,0,0,1-2.4609.4482,3.012,3.012,0,0,1-2.3423-.813,3.539,3.539,0,0,1-.7339-2.439V79.5765h-1.2832V78.4428l1.4766-.8965.7734-2.0742h1.7139v2.0917h2.751v2.0127h-2.751v4.7373a1.0464,1.0464,0,0,0,.3208.8438A1.266,1.266,0,0,0,220.8342,85.43Z"/><path class="cls-2" d="M230.7483,87.39l-.5185-1.3359h-.07a3.959,3.959,0,0,1-1.393,1.1821,4.5026,4.5026,0,0,1-1.8677.33,3.02,3.02,0,0,1-2.228-.8086,3.1052,3.1052,0,0,1-.813-2.3027,2.5931,2.5931,0,0,1,1.0942-2.3072,6.34,6.34,0,0,1,3.3-.8217l1.7051-.0528v-.4306a1.3365,1.3365,0,0,0-1.5293-1.4942,6.9693,6.9693,0,0,0-2.7686.7119l-.8877-1.8105a7.9886,7.9886,0,0,1,3.7618-.8877,4.6859,4.6859,0,0,1,3.0322.8613,3.1834,3.1834,0,0,1,1.0547,2.6192V87.39Zm-.791-4.5527-1.0371.0351a3.3223,3.3223,0,0,0-1.74.4219,1.3251,1.3251,0,0,0-.5712,1.1778q0,1.1337,1.3007,1.1337a2.06,2.06,0,0,0,1.49-.5361,1.8829,1.8829,0,0,0,.5581-1.4238Z"/><path class="cls-2" d="M235.2659,75.0238q0-1.3095,1.459-1.31t1.459,1.31a1.2766,1.2766,0,0,1-.3648.9712,1.5333,1.5333,0,0,1-1.0942.3472Q235.2659,76.3422,235.2659,75.0238ZM238.0608,87.39H235.38V77.5638h2.6807Z"/><path class="cls-2" d="M247.7288,84.4721a2.7053,2.7053,0,0,1-1.05,2.3027,5.19,5.19,0,0,1-3.1421.791,9.8666,9.8666,0,0,1-1.8281-.145,6.9177,6.9177,0,0,1-1.4151-.4263V84.78a9.3524,9.3524,0,0,0,1.6831.5888,6.8163,6.8163,0,0,0,1.648.2373q1.4589,0,1.459-.8437a.7045.7045,0,0,0-.1934-.5142,2.8052,2.8052,0,0,0-.668-.4482q-.4746-.2505-1.2656-.5845a7.9531,7.9531,0,0,1-1.6655-.8789,2.4747,2.4747,0,0,1-.7735-.9272,3.0617,3.0617,0,0,1-.2417-1.2876,2.3341,2.3341,0,0,1,1.0152-2.0259,4.9442,4.9442,0,0,1,2.8784-.7163,8.17,8.17,0,0,1,3.4541.7734l-.8086,1.9336q-.7383-.3163-1.38-.5185a4.3315,4.3315,0,0,0-1.3095-.2022q-1.1867,0-1.1866.6416a.7543.7543,0,0,0,.3824.624,10.3861,10.3861,0,0,0,1.6743.7823,7.7722,7.7722,0,0,1,1.6875.87,2.5736,2.5736,0,0,1,.791.9316A2.8634,2.8634,0,0,1,247.7288,84.4721Z"/><path class="cls-2" d="M86.221,104.059A13.62,13.62,0,0,1,86.9021,99.7a10.838,10.838,0,0,1,1.9644-3.56h2.1972a12.6564,12.6564,0,0,0-1.872,3.7266,13.9481,13.9481,0,0,0-.6328,4.1748,13.5088,13.5088,0,0,0,.6459,4.1616,12.603,12.603,0,0,0,1.8414,3.6343h-2.18a10.3569,10.3569,0,0,1-1.9688-3.4893A13.2652,13.2652,0,0,1,86.221,104.059Z"/><path class="cls-2" d="M102.094,100.1478a3.9274,3.9274,0,0,1-1.2964,3.1729,5.5443,5.5443,0,0,1-3.687,1.0986H95.9417v4.57H93.2171V96.14h4.1044a5.4594,5.4594,0,0,1,3.5552,1.0064A3.6694,3.6694,0,0,1,102.094,100.1478Zm-6.1523,2.0391h.8964a2.9854,2.9854,0,0,0,1.8809-.4966,1.7379,1.7379,0,0,0,.624-1.4458A1.782,1.782,0,0,0,98.82,98.83a2.45,2.45,0,0,0-1.6392-.4571H95.9417Z"/><path class="cls-2" d="M113.3967,100.1478a3.9276,3.9276,0,0,1-1.2963,3.1729,5.5448,5.5448,0,0,1-3.6871,1.0986h-1.1689v4.57H104.52V96.14h4.1045a5.46,5.46,0,0,1,3.5552,1.0064A3.6694,3.6694,0,0,1,113.3967,100.1478Zm-6.1523,2.0391h.8965a2.985,2.985,0,0,0,1.8808-.4966,1.7377,1.7377,0,0,0,.6241-1.4458,1.7821,1.7821,0,0,0-.523-1.415,2.45,2.45,0,0,0-1.6391-.4571h-1.2393Z"/><path class="cls-2" d="M118.5471,104.059V108.99h-2.7246V96.14h3.7442a6.4079,6.4079,0,0,1,3.8759.9536,3.802,3.802,0,0,1,.6329,4.9131,4.13,4.13,0,0,1-1.7666,1.3843q2.9,4.3331,3.7792,5.5986h-3.0234l-3.0674-4.9306Zm0-2.2149h.8789a3.3628,3.3628,0,0,0,1.9073-.4306,1.5375,1.5375,0,0,0,.6152-1.3536,1.4061,1.4061,0,0,0-.6284-1.3007,3.8126,3.8126,0,0,0-1.9468-.3868h-.8262Z"/><path class="cls-2" d="M135.5715,108.99l-.9316-3.0586h-4.6846l-.9316,3.0586h-2.9356l4.5352-12.9023h3.3311l4.5527,12.9023Zm-1.582-5.3437q-1.292-4.1573-1.4546-4.7022t-.2329-.8613q-.29,1.125-1.6611,5.5635Z"/><path class="cls-2" d="M143.886,104.059a13.2446,13.2446,0,0,1-.6812,4.3066,10.3011,10.3011,0,0,1-1.9643,3.4717h-2.18a12.6887,12.6887,0,0,0,1.8369-3.6255,13.4511,13.4511,0,0,0,.65-4.17,13.9481,13.9481,0,0,0-.6328-4.1748,12.6567,12.6567,0,0,0-1.8721-3.7266h2.1973a10.7807,10.7807,0,0,1,1.9687,3.5728A13.6832,13.6832,0,0,1,143.886,104.059Z"/></svg>