<svg id="_1" data-name="1" xmlns="http://www.w3.org/2000/svg" viewBox="0 0 324.375 139.5"><defs><style>.cls-1{fill:#ef7100;}.cls-2{fill:#fff;}</style></defs><polygon class="cls-1" points="264.375 139.5 0 139.5 60 69.75 0 0 264.375 0 324.375 69.75 264.375 139.5"/><path class="cls-2" d="M262.769,136H8.4712L64.9585,69.75,8.4712,3.5H262.769l56.9893,66.25ZM10.8911,135H262.31L318.439,69.75,262.31,4.5H10.8911L66.3755,69.75Z"/><path class="cls-2" d="M93.1465,33.39l-.5186-1.3359h-.07a3.9588,3.9588,0,0,1-1.393,1.1821,4.501,4.501,0,0,1-1.8677.33,3.02,3.02,0,0,1-2.2281-.8086,3.1054,3.1054,0,0,1-.8129-2.3027A2.5928,2.5928,0,0,1,87.35,28.1475a6.3394,6.3394,0,0,1,3.3-.8218l1.7051-.0528v-.4306a1.3365,1.3365,0,0,0-1.5293-1.4942,6.968,6.968,0,0,0-2.7686.712L87.17,24.25a7.9884,7.9884,0,0,1,3.7617-.8877,4.6862,4.6862,0,0,1,3.0323.8613,3.1835,3.1835,0,0,1,1.0547,2.6192V33.39Zm-.791-4.5527-1.0371.0352a3.3214,3.3214,0,0,0-1.74.4218,1.3252,1.3252,0,0,0-.5713,1.1778q0,1.1337,1.3008,1.1338a2.06,2.06,0,0,0,1.49-.5362,1.8833,1.8833,0,0,0,.5581-1.4238Z"/><path class="cls-2" d="M101.751,28.46a13.2446,13.2446,0,0,1-.6812,4.3066,10.3028,10.3028,0,0,1-1.9643,3.4717h-2.18a12.6887,12.6887,0,0,0,1.8369-3.6255,13.4511,13.4511,0,0,0,.65-4.17,13.9513,13.9513,0,0,0-.6328-4.1748,12.6567,12.6567,0,0,0-1.8721-3.7266h2.1973a10.7825,10.7825,0,0,1,1.9687,3.5728A13.6832,13.6832,0,0,1,101.751,28.46Z"/><path class="cls-2" d="M117.6416,24.5483a3.9272,3.9272,0,0,1-1.2964,3.1729,5.5443,5.5443,0,0,1-3.687,1.0986h-1.1689v4.57h-2.7247v-12.85h4.1045a5.4594,5.4594,0,0,1,3.5552,1.0064A3.6694,3.6694,0,0,1,117.6416,24.5483Zm-6.1523,2.0391h.8964a2.9854,2.9854,0,0,0,1.8809-.4966,1.7379,1.7379,0,0,0,.624-1.4458,1.782,1.782,0,0,0-.5229-1.415,2.45,2.45,0,0,0-1.6392-.4571h-1.2392Z"/><path class="cls-2" d="M125.3408,23.3794a4.3253,4.3253,0,0,1,.9053.0791l-.2022,2.5137a3.07,3.07,0,0,0-.791-.0879,2.8427,2.8427,0,0,0-1.9995.6592,2.3828,2.3828,0,0,0-.7163,1.8457V33.39h-2.6807V23.564h2.03l.3955,1.6523h.1319a3.6938,3.6938,0,0,1,1.2348-1.3315A3.0451,3.0451,0,0,1,125.3408,23.3794Z"/><path class="cls-2" d="M136.96,28.46a5.28,5.28,0,0,1-1.2657,3.7529,4.589,4.589,0,0,1-3.5244,1.3535,4.93,4.93,0,0,1-2.4961-.62,4.1233,4.1233,0,0,1-1.6611-1.78,5.9807,5.9807,0,0,1-.58-2.707,5.2515,5.2515,0,0,1,1.2569-3.7442,4.6154,4.6154,0,0,1,3.5332-1.3359,4.9591,4.9591,0,0,1,2.4961.6152,4.1069,4.1069,0,0,1,1.6611,1.7666A5.9256,5.9256,0,0,1,136.96,28.46Zm-6.794,0a4.1243,4.1243,0,0,0,.479,2.206,1.7131,1.7131,0,0,0,1.56.7471,1.686,1.686,0,0,0,1.5425-.7427,4.184,4.184,0,0,0,.47-2.21,4.0587,4.0587,0,0,0-.4746-2.1885,2.0181,2.0181,0,0,0-3.1026-.0044A4.0554,4.0554,0,0,0,130.166,28.46Z"/><path class="cls-2" d="M147.7266,23.564v1.3623l-1.5381.3955a2.6814,2.6814,0,0,1,.4219,1.4765,2.9811,2.9811,0,0,1-1.1031,2.4654,4.7777,4.7777,0,0,1-3.063.8833l-.4834-.0264-.3955-.0439a.8913.8913,0,0,0-.4131.7031q0,.58,1.4766.58h1.67a3.81,3.81,0,0,1,2.4654.6943,2.482,2.482,0,0,1,.8481,2.0391,3.0238,3.0238,0,0,1-1.437,2.6718,7.484,7.484,0,0,1-4.1265.9493,5.7124,5.7124,0,0,1-3.1421-.7164,2.2743,2.2743,0,0,1-1.0854-2.0083,2.1024,2.1024,0,0,1,.5537-1.4853,3.1439,3.1439,0,0,1,1.626-.8525,1.7944,1.7944,0,0,1-.7207-.5757,1.4148,1.4148,0,0,1,.0176-1.7842,3.7567,3.7567,0,0,1,.94-.7339,2.6381,2.6381,0,0,1-1.2261-1.0723,3.2624,3.2624,0,0,1-.4526-1.74,3.0687,3.0687,0,0,1,1.0459-2.4873,4.5225,4.5225,0,0,1,2.9883-.8789,7.6487,7.6487,0,0,1,.98.0747q.567.0747.7251.11Zm-7.585,11.2148a.9714.9714,0,0,0,.5317.87,2.9253,2.9253,0,0,0,1.49.3164,5.2766,5.2766,0,0,0,2.2588-.3955,1.2054,1.2054,0,0,0,.8174-1.081.7653.7653,0,0,0-.4834-.7647,3.96,3.96,0,0,0-1.4942-.2109H141.873a2.1024,2.1024,0,0,0-1.2348.3472A1.07,1.07,0,0,0,140.1416,34.7788Zm.9756-7.998a2.0011,2.0011,0,0,0,.3647,1.2656,1.3251,1.3251,0,0,0,1.1119.4658,1.2977,1.2977,0,0,0,1.1074-.4658,2.0547,2.0547,0,0,0,.3515-1.2656q0-1.7754-1.4589-1.7754Q141.1172,25.0054,141.1172,26.7808Z"/><path class="cls-2" d="M154.8281,23.3794a4.3253,4.3253,0,0,1,.9053.0791l-.2022,2.5137a3.07,3.07,0,0,0-.791-.0879,2.8427,2.8427,0,0,0-1.9995.6592,2.3828,2.3828,0,0,0-.7163,1.8457V33.39h-2.6806V23.564h2.03l.3955,1.6523h.1319a3.6938,3.6938,0,0,1,1.2348-1.3315A3.0453,3.0453,0,0,1,154.8281,23.3794Z"/><path class="cls-2" d="M163.7578,33.39l-.5185-1.3359h-.07a3.9579,3.9579,0,0,1-1.393,1.1821,4.501,4.501,0,0,1-1.8677.33,3.02,3.02,0,0,1-2.228-.8086,3.105,3.105,0,0,1-.813-2.3027,2.5928,2.5928,0,0,1,1.0942-2.3071,6.3394,6.3394,0,0,1,3.3-.8218l1.7051-.0528v-.4306a1.3365,1.3365,0,0,0-1.5293-1.4942,6.968,6.968,0,0,0-2.7686.712l-.8877-1.8106a7.9886,7.9886,0,0,1,3.7618-.8877,4.6859,4.6859,0,0,1,3.0322.8613,3.1835,3.1835,0,0,1,1.0547,2.6192V33.39Zm-.791-4.5527-1.0371.0352a3.3208,3.3208,0,0,0-1.74.4218,1.325,1.325,0,0,0-.5713,1.1778q0,1.1337,1.3007,1.1338a2.06,2.06,0,0,0,1.49-.5362,1.8829,1.8829,0,0,0,.5581-1.4238Z"/><path class="cls-2" d="M177.1875,33.39h-2.6807V27.6509a2.891,2.891,0,0,0-.3559-1.5952,1.2521,1.2521,0,0,0-1.1206-.5318,1.6232,1.6232,0,0,0-1.4942.7559,4.9584,4.9584,0,0,0-.4658,2.4873V33.39H168.39V23.564h2.0479l.36,1.2568h.1494a2.7232,2.7232,0,0,1,1.1425-1.0591,3.71,3.71,0,0,1,1.7139-.3823,3.0872,3.0872,0,0,1,2.9883,1.4414h.2373a2.6557,2.6557,0,0,1,1.1645-1.0635,3.8849,3.8849,0,0,1,1.7359-.3779,3.426,3.426,0,0,1,2.5268.8569,3.7629,3.7629,0,0,1,.857,2.7466V33.39h-2.69V27.6509a2.891,2.891,0,0,0-.3559-1.5952,1.2521,1.2521,0,0,0-1.1206-.5318,1.6718,1.6718,0,0,0-1.4722.7032,3.9892,3.9892,0,0,0-.4878,2.2324Z"/><path class="cls-2" d="M192.3047,33.39l-.5186-1.3359h-.07a3.9588,3.9588,0,0,1-1.393,1.1821,4.501,4.501,0,0,1-1.8677.33,3.02,3.02,0,0,1-2.228-.8086,3.105,3.105,0,0,1-.813-2.3027,2.5928,2.5928,0,0,1,1.0942-2.3071,6.3394,6.3394,0,0,1,3.3-.8218l1.7051-.0528v-.4306a1.3365,1.3365,0,0,0-1.5293-1.4942,6.968,6.968,0,0,0-2.7686.712l-.8877-1.8106a7.9884,7.9884,0,0,1,3.7617-.8877,4.6862,4.6862,0,0,1,3.0323.8613,3.1835,3.1835,0,0,1,1.0547,2.6192V33.39Zm-.791-4.5527-1.0371.0352a3.3214,3.3214,0,0,0-1.74.4218,1.3252,1.3252,0,0,0-.5713,1.1778q0,1.1337,1.3008,1.1338a2.06,2.06,0,0,0,1.49-.5362,1.8833,1.8833,0,0,0,.5581-1.4238Z"/><path class="cls-2" d="M204.7236,33.5659a3.1915,3.1915,0,0,1-2.72-1.3447,6.182,6.182,0,0,1-.9888-3.7266,6.188,6.188,0,0,1,1.0064-3.7661,3.2685,3.2685,0,0,1,2.7729-1.3491,3.2056,3.2056,0,0,1,2.83,1.4414h.0879a10.9549,10.9549,0,0,1-.2021-1.96V19.7144h2.6894V33.39h-2.0566l-.5186-1.2744H207.51A3.0676,3.0676,0,0,1,204.7236,33.5659Zm.94-2.1357a1.8163,1.8163,0,0,0,1.5073-.5977,3.4769,3.4769,0,0,0,.5229-2.03v-.29a4.018,4.018,0,0,0-.4878-2.2676,1.8118,1.8118,0,0,0-1.5864-.6855,1.5734,1.5734,0,0,0-1.393.76,4.056,4.056,0,0,0-.4966,2.2105,3.8447,3.8447,0,0,0,.5009,2.1753A1.6369,1.6369,0,0,0,205.6641,31.43Z"/><path class="cls-2" d="M217.45,33.5659a5.0715,5.0715,0,0,1-3.709-1.31,4.9583,4.9583,0,0,1-1.3359-3.7089,5.4539,5.4539,0,0,1,1.2348-3.8189,4.3973,4.3973,0,0,1,3.4146-1.3491,4.3282,4.3282,0,0,1,3.2432,1.1865,4.489,4.489,0,0,1,1.16,3.2783V29.145h-6.3369a2.58,2.58,0,0,0,.6768,1.7842,2.381,2.381,0,0,0,1.7753.6416,7.3684,7.3684,0,0,0,1.6788-.1846,8.3985,8.3985,0,0,0,1.6523-.5888v2.0742a6.2913,6.2913,0,0,1-1.5029.5229A9.473,9.473,0,0,1,217.45,33.5659Zm-.3779-8.2793a1.7006,1.7006,0,0,0-1.336.5405,2.5024,2.5024,0,0,0-.5537,1.5337h3.7617a2.2345,2.2345,0,0,0-.5185-1.5337A1.756,1.756,0,0,0,217.0723,25.2866Z"/><path class="cls-2" d="M92.5752,44.2231a2.7762,2.7762,0,0,0-2.3818,1.1558A5.3769,5.3769,0,0,0,89.35,48.6q0,4.2978,3.2256,4.2978a10.1955,10.1955,0,0,0,3.2783-.6767v2.2851a9.1033,9.1033,0,0,1-3.5332.6592,5.3888,5.3888,0,0,1-4.2891-1.7007,7.201,7.201,0,0,1-1.4853-4.8823,7.973,7.973,0,0,1,.73-3.5112A5.2715,5.2715,0,0,1,89.3716,42.76a6.2,6.2,0,0,1,3.2036-.8042,8.6467,8.6467,0,0,1,3.7617.9052l-.8789,2.2149a14.5534,14.5534,0,0,0-1.45-.5977A4.3268,4.3268,0,0,0,92.5752,44.2231Z"/><path class="cls-2" d="M107.3057,50.0591A5.28,5.28,0,0,1,106.04,53.812a4.5886,4.5886,0,0,1-3.5244,1.3535,4.93,4.93,0,0,1-2.4961-.62,4.1227,4.1227,0,0,1-1.6611-1.78,5.9807,5.9807,0,0,1-.58-2.707,5.2515,5.2515,0,0,1,1.2569-3.7442,4.6154,4.6154,0,0,1,3.5332-1.3359,4.9588,4.9588,0,0,1,2.4961.6152,4.1069,4.1069,0,0,1,1.6611,1.7666A5.9256,5.9256,0,0,1,107.3057,50.0591Zm-6.794,0a4.1243,4.1243,0,0,0,.479,2.206,1.7131,1.7131,0,0,0,1.56.7471,1.686,1.686,0,0,0,1.5425-.7427,4.184,4.184,0,0,0,.47-2.21,4.0587,4.0587,0,0,0-.4746-2.1885,2.0181,2.0181,0,0,0-3.1026-.0044A4.0554,4.0554,0,0,0,100.5117,50.0591Z"/><path class="cls-2" d="M118.5908,54.99H115.91V49.2505a2.7562,2.7562,0,0,0-.378-1.5952,1.3749,1.3749,0,0,0-1.2041-.5318,1.81,1.81,0,0,0-1.626.7515,4.6614,4.6614,0,0,0-.5009,2.4917V54.99h-2.6807V45.1636h2.0479l.36,1.2568h.1494a2.833,2.833,0,0,1,1.2349-1.0766,4.2044,4.2044,0,0,1,1.7886-.3648,3.4365,3.4365,0,0,1,2.6015.9272,3.7211,3.7211,0,0,1,.8877,2.6763Z"/><path class="cls-2" d="M125.49,53.03a5.8129,5.8129,0,0,0,1.6875-.3076v1.9951a6.0167,6.0167,0,0,1-2.4609.4482,3.012,3.012,0,0,1-2.3423-.813,3.5388,3.5388,0,0,1-.7339-2.4389V47.1763h-1.2832V46.0425l1.4766-.8965.7734-2.0742h1.7139v2.0918h2.751v2.0127h-2.751v4.7373a1.0463,1.0463,0,0,0,.3208.8437A1.2655,1.2655,0,0,0,125.49,53.03Z"/><path class="cls-2" d="M134.6484,44.979a4.3253,4.3253,0,0,1,.9053.0791l-.2021,2.5137a3.071,3.071,0,0,0-.7911-.0879,2.8427,2.8427,0,0,0-1.9995.6592,2.3829,2.3829,0,0,0-.7163,1.8457V54.99h-2.6806V45.1636h2.03l.3955,1.6523h.1319a3.6938,3.6938,0,0,1,1.2348-1.3315A3.0453,3.0453,0,0,1,134.6484,44.979Z"/><path class="cls-2" d="M146.2676,50.0591a5.28,5.28,0,0,1-1.2656,3.7529,4.589,4.589,0,0,1-3.5245,1.3535,4.93,4.93,0,0,1-2.4961-.62,4.1227,4.1227,0,0,1-1.6611-1.78,5.9807,5.9807,0,0,1-.58-2.707,5.2515,5.2515,0,0,1,1.2569-3.7442A4.6156,4.6156,0,0,1,141.53,44.979a4.9588,4.9588,0,0,1,2.4961.6152,4.1069,4.1069,0,0,1,1.6611,1.7666A5.9256,5.9256,0,0,1,146.2676,50.0591Zm-6.794,0a4.1243,4.1243,0,0,0,.479,2.206,1.7131,1.7131,0,0,0,1.56.7471,1.686,1.686,0,0,0,1.5425-.7427,4.183,4.183,0,0,0,.47-2.21,4.0587,4.0587,0,0,0-.4746-2.1885,2.0181,2.0181,0,0,0-3.1026-.0044A4.0554,4.0554,0,0,0,139.4736,50.0591Z"/><path class="cls-2" d="M151.1631,54.99h-2.6807V41.314h2.6807Z"/><path class="cls-2" d="M158.4229,55.1655a5.0717,5.0717,0,0,1-3.709-1.3095,4.9584,4.9584,0,0,1-1.336-3.709,5.454,5.454,0,0,1,1.2349-3.8189,4.397,4.397,0,0,1,3.4145-1.3491,4.328,4.328,0,0,1,3.2432,1.1865,4.489,4.489,0,0,1,1.16,3.2783v1.3008h-6.3369a2.58,2.58,0,0,0,.6767,1.7842,2.3814,2.3814,0,0,0,1.7754.6416,7.3669,7.3669,0,0,0,1.6787-.1846,8.3993,8.3993,0,0,0,1.6524-.5888v2.0742a6.2921,6.2921,0,0,1-1.503.5229A9.4727,9.4727,0,0,1,158.4229,55.1655Zm-.378-8.2793a1.7,1.7,0,0,0-1.3359.5406,2.5006,2.5006,0,0,0-.5537,1.5336h3.7617a2.2341,2.2341,0,0,0-.5186-1.5336A1.7554,1.7554,0,0,0,158.0449,46.8862Z"/><path class="cls-2" d="M174.9375,54.99l-3.0937-10.081h-.0792q.1671,3.0762.167,4.1045V54.99h-2.4345V42.14h3.709l3.041,9.8262H176.3l3.2256-9.8262h3.709V54.99h-2.54v-6.082q0-.4306.0132-.9931t.1187-2.9883h-.0791L177.4336,54.99Z"/><path class="cls-2" d="M190.7051,55.1655a5.0717,5.0717,0,0,1-3.709-1.3095,4.9587,4.9587,0,0,1-1.3359-3.709,5.4539,5.4539,0,0,1,1.2348-3.8189A4.3972,4.3972,0,0,1,190.31,44.979a4.3279,4.3279,0,0,1,3.2431,1.1865,4.4886,4.4886,0,0,1,1.16,3.2783v1.3008H188.376a2.5806,2.5806,0,0,0,.6767,1.7842,2.3814,2.3814,0,0,0,1.7754.6416,7.3669,7.3669,0,0,0,1.6787-.1846,8.397,8.397,0,0,0,1.6524-.5888v2.0742a6.2906,6.2906,0,0,1-1.503.5229A9.472,9.472,0,0,1,190.7051,55.1655Zm-.378-8.2793a1.7,1.7,0,0,0-1.3359.5406,2.5012,2.5012,0,0,0-.5537,1.5336h3.7617a2.2345,2.2345,0,0,0-.5185-1.5336A1.7558,1.7558,0,0,0,190.3271,46.8862ZM188.78,44.0825v-.2373A24.7421,24.7421,0,0,0,190.8457,41.2h3.0059v.1846q-.4571.457-1.56,1.3579t-1.727,1.34Z"/><path class="cls-2" d="M200.0039,55.1655a3.1915,3.1915,0,0,1-2.72-1.3447,6.182,6.182,0,0,1-.9888-3.7266,6.188,6.188,0,0,1,1.0064-3.7661,3.2685,3.2685,0,0,1,2.7729-1.3491,3.2057,3.2057,0,0,1,2.83,1.4414h.0879a10.9558,10.9558,0,0,1-.2022-1.96V41.314h2.69V54.99h-2.0566l-.5186-1.2744H202.79A3.0674,3.0674,0,0,1,200.0039,55.1655Zm.94-2.1357a1.8165,1.8165,0,0,0,1.5074-.5977,3.4768,3.4768,0,0,0,.5229-2.03v-.29a4.018,4.018,0,0,0-.4878-2.2676,1.8118,1.8118,0,0,0-1.5864-.6855,1.5736,1.5736,0,0,0-1.3931.76,4.0569,4.0569,0,0,0-.4966,2.21,3.8438,3.8438,0,0,0,.501,2.1753A1.6367,1.6367,0,0,0,200.9443,53.03Z"/><path class="cls-2" d="M208.1689,42.6235q0-1.3095,1.459-1.3095t1.459,1.31a1.2768,1.2768,0,0,1-.3647.9712,1.533,1.533,0,0,1-1.0943.3472Q208.169,43.9419,208.1689,42.6235Zm2.795,12.3662h-2.6807V45.1636h2.6807Z"/><path class="cls-2" d="M217.7666,55.1655q-4.5879,0-4.5879-5.0361a5.3715,5.3715,0,0,1,1.2481-3.8276,4.6815,4.6815,0,0,1,3.5771-1.3228,6.82,6.82,0,0,1,3.0586.668l-.791,2.0742q-.6328-.2549-1.1777-.4175a3.7951,3.7951,0,0,0-1.09-.1626q-2.0917,0-2.0918,2.9707,0,2.8829,2.0918,2.8828a4.769,4.769,0,0,0,1.4326-.2065,5.172,5.172,0,0,0,1.3184-.646V54.436a4.3186,4.3186,0,0,1-1.314.5713A7.3875,7.3875,0,0,1,217.7666,55.1655Z"/><path class="cls-2" d="M231.9609,50.0591a5.28,5.28,0,0,1-1.2656,3.7529,4.5886,4.5886,0,0,1-3.5244,1.3535,4.93,4.93,0,0,1-2.4961-.62,4.1227,4.1227,0,0,1-1.6611-1.78,5.9807,5.9807,0,0,1-.58-2.707,5.2514,5.2514,0,0,1,1.2568-3.7442,4.6157,4.6157,0,0,1,3.5332-1.3359,4.9586,4.9586,0,0,1,2.4961.6152,4.1077,4.1077,0,0,1,1.6612,1.7666A5.9256,5.9256,0,0,1,231.9609,50.0591Zm-6.7939,0a4.1243,4.1243,0,0,0,.479,2.206,1.713,1.713,0,0,0,1.56.7471,1.6857,1.6857,0,0,0,1.5424-.7427,4.1829,4.1829,0,0,0,.47-2.21,4.0586,4.0586,0,0,0-.4747-2.1885,2.018,2.018,0,0,0-3.1025-.0044A4.0554,4.0554,0,0,0,225.167,50.0591Z"/><path class="cls-2" d="M91.3535,76.7656a5.0721,5.0721,0,0,1-3.709-1.3095,4.9587,4.9587,0,0,1-1.3359-3.709,5.4535,5.4535,0,0,1,1.2349-3.8189,4.397,4.397,0,0,1,3.4145-1.3491,4.3282,4.3282,0,0,1,3.2432,1.1865,4.489,4.489,0,0,1,1.16,3.2783v1.3008H89.0244a2.58,2.58,0,0,0,.6768,1.7842,2.3811,2.3811,0,0,0,1.7754.6416,7.3675,7.3675,0,0,0,1.6787-.1846,8.3985,8.3985,0,0,0,1.6523-.5888v2.0742a6.29,6.29,0,0,1-1.5029.5229A9.473,9.473,0,0,1,91.3535,76.7656Zm-.3779-8.2793a1.7,1.7,0,0,0-1.336.5406,2.5018,2.5018,0,0,0-.5537,1.5336h3.7618a2.2346,2.2346,0,0,0-.5186-1.5336A1.7557,1.7557,0,0,0,90.9756,68.4863Z"/><path class="cls-2" d="M106.3389,76.59h-2.6807V70.8506a2.89,2.89,0,0,0-.356-1.5952,1.252,1.252,0,0,0-1.1206-.5318,1.6231,1.6231,0,0,0-1.4941.7559,4.9584,4.9584,0,0,0-.4658,2.4873V76.59H97.541V66.7637h2.0479l.36,1.2568h.1494a2.7241,2.7241,0,0,1,1.1426-1.0591,3.71,3.71,0,0,1,1.7139-.3823,3.0872,3.0872,0,0,1,2.9883,1.4414h.2373a2.6547,2.6547,0,0,1,1.1645-1.0635,3.8846,3.8846,0,0,1,1.7359-.3779,3.4263,3.4263,0,0,1,2.5268.8569,3.7631,3.7631,0,0,1,.8569,2.7466V76.59h-2.6894V70.8506a2.8909,2.8909,0,0,0-.356-1.5952,1.252,1.252,0,0,0-1.1206-.5318,1.6717,1.6717,0,0,0-1.4721.7032,3.9892,3.9892,0,0,0-.4878,2.2324Z"/><path class="cls-2" d="M127.6875,73.0215a3.3219,3.3219,0,0,1-1.2524,2.7422,5.4411,5.4411,0,0,1-3.4849,1.0019,8.1847,8.1847,0,0,1-3.6387-.7734V73.4609a14.9856,14.9856,0,0,0,2.2017.8174,6.515,6.515,0,0,0,1.6479.2373,2.3431,2.3431,0,0,0,1.3755-.3427,1.1724,1.1724,0,0,0,.479-1.02,1.1254,1.1254,0,0,0-.2109-.6723,2.36,2.36,0,0,0-.62-.5669,15.9391,15.9391,0,0,0-1.6656-.87,7.8964,7.8964,0,0,1-1.7666-1.0634,3.9945,3.9945,0,0,1-.94-1.1866,3.3854,3.3854,0,0,1-.3516-1.582,3.3211,3.3211,0,0,1,1.1558-2.6807,4.8028,4.8028,0,0,1,3.1948-.9755,7.5439,7.5439,0,0,1,1.9116.2373,13.1381,13.1381,0,0,1,1.9029.6679l-.8789,2.1182a12.8828,12.8828,0,0,0-1.7007-.5889,5.4762,5.4762,0,0,0-1.3228-.167,1.7517,1.7517,0,0,0-1.1865.36,1.1886,1.1886,0,0,0-.4131.94,1.1639,1.1639,0,0,0,.167.6284,1.8347,1.8347,0,0,0,.5318.5186,16.43,16.43,0,0,0,1.727.9009,6.8717,6.8717,0,0,1,2.47,1.727A3.3709,3.3709,0,0,1,127.6875,73.0215Z"/><path class="cls-2" d="M136.0459,76.59l-.5186-1.3359h-.07a3.9579,3.9579,0,0,1-1.393,1.1821,4.501,4.501,0,0,1-1.8677.33,3.02,3.02,0,0,1-2.228-.8086,3.105,3.105,0,0,1-.813-2.3027,2.5928,2.5928,0,0,1,1.0942-2.3071,6.34,6.34,0,0,1,3.3-.8218l1.7051-.0527V70.042a1.3364,1.3364,0,0,0-1.5293-1.4941,6.9693,6.9693,0,0,0-2.7686.7119l-.8877-1.8106a7.9886,7.9886,0,0,1,3.7618-.8877,4.6853,4.6853,0,0,1,3.0322.8614,3.1831,3.1831,0,0,1,1.0547,2.6191V76.59Zm-.791-4.5527-1.0371.0352a3.3214,3.3214,0,0,0-1.74.4218,1.3253,1.3253,0,0,0-.5713,1.1778q0,1.1337,1.3008,1.1338a2.06,2.06,0,0,0,1.49-.5362,1.8833,1.8833,0,0,0,.5581-1.4238Z"/><path class="cls-2" d="M147.6387,76.59l-.36-1.2568h-.1406a2.828,2.828,0,0,1-1.2217,1.0591,4.171,4.171,0,0,1-1.8017.3735,3.4313,3.4313,0,0,1-2.61-.9272,3.7311,3.7311,0,0,1-.8789-2.6675V66.7637h2.6807v5.7392a2.7561,2.7561,0,0,0,.3779,1.5952,1.3749,1.3749,0,0,0,1.2041.5318,1.81,1.81,0,0,0,1.626-.7515,4.66,4.66,0,0,0,.5009-2.4917v-4.623h2.6807V76.59Zm-3.99-10.9072v-.2373A24.76,24.76,0,0,0,145.7139,62.8H148.72v.1846q-.457.457-1.56,1.3579t-1.7271,1.34Z"/><path class="cls-2" d="M155.6191,76.7656a3.1915,3.1915,0,0,1-2.72-1.3447,6.182,6.182,0,0,1-.9887-3.7266,6.188,6.188,0,0,1,1.0063-3.7661,3.2686,3.2686,0,0,1,2.773-1.3491,3.2055,3.2055,0,0,1,2.83,1.4414h.0879a10.9641,10.9641,0,0,1-.2021-1.96V62.9141h2.6894V76.59h-2.0566l-.5186-1.2744h-.1142A3.0676,3.0676,0,0,1,155.6191,76.7656Zm.94-2.1357a1.8163,1.8163,0,0,0,1.5073-.5977,3.4768,3.4768,0,0,0,.5229-2.03v-.29a4.0189,4.0189,0,0,0-.4877-2.2676,1.812,1.812,0,0,0-1.5865-.6855,1.5734,1.5734,0,0,0-1.393.76,4.056,4.056,0,0,0-.4966,2.21,3.8438,3.8438,0,0,0,.501,2.1753A1.6366,1.6366,0,0,0,156.56,74.63Z"/><path class="cls-2" d="M168.3457,76.7656a5.0719,5.0719,0,0,1-3.709-1.3095,4.9587,4.9587,0,0,1-1.3359-3.709,5.4539,5.4539,0,0,1,1.2348-3.8189,4.3973,4.3973,0,0,1,3.4146-1.3491,4.3282,4.3282,0,0,1,3.2432,1.1865,4.489,4.489,0,0,1,1.16,3.2783v1.3008h-6.3369a2.58,2.58,0,0,0,.6768,1.7842,2.3811,2.3811,0,0,0,1.7754.6416,7.3681,7.3681,0,0,0,1.6787-.1846,8.3985,8.3985,0,0,0,1.6523-.5888v2.0742a6.29,6.29,0,0,1-1.5029.5229A9.473,9.473,0,0,1,168.3457,76.7656Zm-.3779-8.2793a1.7,1.7,0,0,0-1.336.5406,2.5018,2.5018,0,0,0-.5537,1.5336H169.84a2.2341,2.2341,0,0,0-.5185-1.5336A1.7557,1.7557,0,0,0,167.9678,68.4863Z"/><path class="cls-2" d="M98.78,91.7476a6.9727,6.9727,0,0,1-1.5821,4.9043,6.8575,6.8575,0,0,1-9.07,0,7,7,0,0,1-1.582-4.9219,6.9046,6.9046,0,0,1,1.5864-4.9,5.9324,5.9324,0,0,1,4.5484-1.6919,5.8494,5.8494,0,0,1,4.5307,1.7051A6.99,6.99,0,0,1,98.78,91.7476Zm-9.378,0a5.3675,5.3675,0,0,0,.8174,3.2431,2.86,2.86,0,0,0,2.4434,1.09q3.2607,0,3.2607-4.333,0-4.3419-3.2431-4.3418A2.88,2.88,0,0,0,90.2285,88.5,5.3448,5.3448,0,0,0,89.4023,91.7476Z"/><path class="cls-2" d="M105.2227,98.3657q-4.5879,0-4.5879-5.0361a5.3719,5.3719,0,0,1,1.248-3.8276,4.6816,4.6816,0,0,1,3.5772-1.3228,6.82,6.82,0,0,1,3.0586.668l-.7911,2.0742q-.6327-.2549-1.1777-.4175a3.7949,3.7949,0,0,0-1.09-.1626q-2.0919,0-2.0918,2.9707,0,2.8829,2.0918,2.8828a4.7694,4.7694,0,0,0,1.4326-.2065,5.1714,5.1714,0,0,0,1.3183-.646v2.2939a4.3181,4.3181,0,0,1-1.3139.5713A7.3875,7.3875,0,0,1,105.2227,98.3657Z"/><path class="cls-2" d="M117.4482,98.19l-.36-1.2568h-.1406a2.8286,2.8286,0,0,1-1.2217,1.0591,4.1715,4.1715,0,0,1-1.8018.3735,3.4311,3.4311,0,0,1-2.61-.9272,3.7307,3.7307,0,0,1-.8789-2.6675V88.3638h2.6806V94.103a2.756,2.756,0,0,0,.378,1.5952,1.3749,1.3749,0,0,0,1.2041.5318,1.81,1.81,0,0,0,1.6259-.7515,4.66,4.66,0,0,0,.501-2.4917v-4.623h2.6807V98.19Z"/><path class="cls-2" d="M127.7139,98.3657a3.259,3.259,0,0,1-2.7159-1.2568h-.1406q.1407,1.23.1406,1.4238v3.9815h-2.6806v-14.15h2.18l.3779,1.2744h.123a3.1011,3.1011,0,0,1,2.7862-1.459,3.1887,3.1887,0,0,1,2.7246,1.3447,6.22,6.22,0,0,1,.9844,3.7354,7.3744,7.3744,0,0,1-.4615,2.7334,3.8345,3.8345,0,0,1-1.3139,1.7666A3.3673,3.3673,0,0,1,127.7139,98.3657Zm-.791-8.042a1.6922,1.6922,0,0,0-1.45.6109,3.5076,3.5076,0,0,0-.4747,2.0171v.29a4.14,4.14,0,0,0,.47,2.2676,1.6781,1.6781,0,0,0,1.49.6855q1.8018,0,1.8018-2.9707a4.2421,4.2421,0,0,0-.4439-2.1753A1.5148,1.5148,0,0,0,126.9229,90.3237Z"/><path class="cls-2" d="M139.9482,98.19,139.43,96.854h-.07a3.959,3.959,0,0,1-1.3931,1.1821,4.5007,4.5007,0,0,1-1.8677.33,3.02,3.02,0,0,1-2.228-.8086,3.105,3.105,0,0,1-.813-2.3027,2.5928,2.5928,0,0,1,1.0943-2.3071,6.3387,6.3387,0,0,1,3.3-.8218l1.7051-.0527v-.4307a1.3364,1.3364,0,0,0-1.5293-1.4942,6.9693,6.9693,0,0,0-2.7685.712l-.8877-1.8106a7.9879,7.9879,0,0,1,3.7617-.8877,4.6857,4.6857,0,0,1,3.0322.8613,3.1832,3.1832,0,0,1,1.0547,2.6192V98.19Zm-.791-4.5527-1.0371.0352a3.3208,3.3208,0,0,0-1.74.4218,1.3251,1.3251,0,0,0-.5713,1.1778q0,1.1337,1.3008,1.1338a2.06,2.06,0,0,0,1.49-.5362,1.8829,1.8829,0,0,0,.5581-1.4238Z"/><path class="cls-2" d="M148.57,98.3657q-4.5879,0-4.5879-5.0361a5.3715,5.3715,0,0,1,1.2481-3.8276,4.6815,4.6815,0,0,1,3.5771-1.3228,6.82,6.82,0,0,1,3.0586.668l-.791,2.0742q-.6328-.2549-1.1777-.4175a3.7951,3.7951,0,0,0-1.09-.1626q-2.0918,0-2.0918,2.9707,0,2.8829,2.0918,2.8828a4.769,4.769,0,0,0,1.4326-.2065,5.172,5.172,0,0,0,1.3184-.646v2.2939a4.3186,4.3186,0,0,1-1.314.5713A7.3875,7.3875,0,0,1,148.57,98.3657Z"/><path class="cls-2" d="M153.7207,85.8237q0-1.31,1.459-1.3095t1.459,1.31a1.2766,1.2766,0,0,1-.3648.9712,1.5327,1.5327,0,0,1-1.0942.3472Q153.7206,87.1421,153.7207,85.8237ZM156.5156,98.19H153.835V88.3638h2.6806Z"/><path class="cls-2" d="M168.2578,93.2593a5.28,5.28,0,0,1-1.2656,3.7529,4.5889,4.5889,0,0,1-3.5244,1.3535,4.93,4.93,0,0,1-2.4961-.62,4.1241,4.1241,0,0,1-1.6612-1.78,5.9807,5.9807,0,0,1-.58-2.707,5.2514,5.2514,0,0,1,1.2568-3.7442,4.6156,4.6156,0,0,1,3.5332-1.3359,4.9586,4.9586,0,0,1,2.4961.6152,4.1069,4.1069,0,0,1,1.6611,1.7666A5.9243,5.9243,0,0,1,168.2578,93.2593Zm-6.7939,0a4.1234,4.1234,0,0,0,.479,2.206,1.7128,1.7128,0,0,0,1.56.7471,1.6859,1.6859,0,0,0,1.5425-.7427,4.183,4.183,0,0,0,.47-2.21,4.0587,4.0587,0,0,0-.4746-2.1885,2.018,2.018,0,0,0-3.1025-.0044A4.0554,4.0554,0,0,0,161.4639,93.2593Z"/><path class="cls-2" d="M179.543,98.19h-2.6807V92.4507a2.7571,2.7571,0,0,0-.3779-1.5952,1.3751,1.3751,0,0,0-1.2041-.5318,1.81,1.81,0,0,0-1.626.7515,4.66,4.66,0,0,0-.501,2.4917V98.19h-2.6806V88.3638h2.0478l.36,1.2568h.1494a2.833,2.833,0,0,1,1.2348-1.0767,4.2062,4.2062,0,0,1,1.7886-.3647,3.4366,3.4366,0,0,1,2.6016.9272,3.7211,3.7211,0,0,1,.8877,2.6763Z"/><path class="cls-2" d="M188.543,98.19l-.5186-1.3359h-.07a3.9582,3.9582,0,0,1-1.3931,1.1821,4.5005,4.5005,0,0,1-1.8676.33,3.02,3.02,0,0,1-2.2281-.8086,3.105,3.105,0,0,1-.813-2.3027,2.5928,2.5928,0,0,1,1.0943-2.3071,6.3394,6.3394,0,0,1,3.3-.8218l1.7051-.0527v-.4307a1.3365,1.3365,0,0,0-1.5293-1.4942,6.9693,6.9693,0,0,0-2.7686.712l-.8877-1.8106a7.9884,7.9884,0,0,1,3.7617-.8877,4.6862,4.6862,0,0,1,3.0323.8613,3.1834,3.1834,0,0,1,1.0546,2.6192V98.19Zm-.791-4.5527-1.0372.0352a3.321,3.321,0,0,0-1.74.4218,1.3253,1.3253,0,0,0-.5713,1.1778q0,1.1337,1.3008,1.1338a2.06,2.06,0,0,0,1.49-.5362,1.883,1.883,0,0,0,.5582-1.4238Z"/><path class="cls-2" d="M195.8555,98.19h-2.6807V84.5142h2.6807Z"/><path class="cls-2" d="M86.2207,114.8594a13.62,13.62,0,0,1,.6812-4.3594,10.8378,10.8378,0,0,1,1.9643-3.56h2.1973a12.6567,12.6567,0,0,0-1.8721,3.7266,13.9481,13.9481,0,0,0-.6328,4.1748,13.5055,13.5055,0,0,0,.646,4.1616,12.6027,12.6027,0,0,0,1.8413,3.6343h-2.18a10.3567,10.3567,0,0,1-1.9687-3.4893A13.2652,13.2652,0,0,1,86.2207,114.8594Z"/><path class="cls-2" d="M102.0938,110.9482a3.9275,3.9275,0,0,1-1.2964,3.1729A5.5447,5.5447,0,0,1,97.11,115.22h-1.169v4.57H93.2168V106.94h4.1045a5.46,5.46,0,0,1,3.5552,1.0064A3.6694,3.6694,0,0,1,102.0938,110.9482Zm-6.1524,2.0391h.8965a2.9856,2.9856,0,0,0,1.8809-.4966,1.7379,1.7379,0,0,0,.624-1.4458,1.7817,1.7817,0,0,0-.523-1.415,2.45,2.45,0,0,0-1.6391-.457H95.9414Z"/><path class="cls-2" d="M109.9775,109.0234a2.7762,2.7762,0,0,0-2.3818,1.1558,5.3769,5.3769,0,0,0-.8437,3.2212q0,4.2978,3.2255,4.2978a10.1955,10.1955,0,0,0,3.2784-.6767v2.2851a9.1037,9.1037,0,0,1-3.5332.6592,5.3886,5.3886,0,0,1-4.2891-1.7007,7.2012,7.2012,0,0,1-1.4854-4.8823,7.973,7.973,0,0,1,.73-3.5112,5.2727,5.2727,0,0,1,2.0962-2.3115,6.2006,6.2006,0,0,1,3.2036-.8042,8.6468,8.6468,0,0,1,3.7618.9052l-.8789,2.2149a14.5534,14.5534,0,0,0-1.45-.5977A4.3274,4.3274,0,0,0,109.9775,109.0234Z"/><path class="cls-2" d="M121.43,119.79l-3.0938-10.081h-.0791q.1671,3.0762.167,4.1045V119.79h-2.4345V106.94h3.7089l3.0411,9.8262h.0527l3.2256-9.8262h3.709v12.85h-2.54v-6.082q0-.4306.0132-.9932t.1187-2.9882h-.0791L123.9258,119.79Z"/><path class="cls-2" d="M140.5459,116.2217a3.3219,3.3219,0,0,1-1.2524,2.7422,5.4411,5.4411,0,0,1-3.4849,1.0019,8.1847,8.1847,0,0,1-3.6387-.7734v-2.5313a14.9856,14.9856,0,0,0,2.2017.8174,6.515,6.515,0,0,0,1.6479.2373,2.3423,2.3423,0,0,0,1.3755-.3428,1.1721,1.1721,0,0,0,.479-1.02,1.1254,1.1254,0,0,0-.2109-.6723,2.36,2.36,0,0,0-.62-.5669,15.9391,15.9391,0,0,0-1.6656-.87,7.8964,7.8964,0,0,1-1.7666-1.0634,3.9945,3.9945,0,0,1-.94-1.1866,3.3854,3.3854,0,0,1-.3516-1.582,3.3211,3.3211,0,0,1,1.1558-2.6807,4.8028,4.8028,0,0,1,3.1948-.9755,7.5439,7.5439,0,0,1,1.9116.2373,13.1381,13.1381,0,0,1,1.9029.6679l-.8789,2.1182a12.8681,12.8681,0,0,0-1.7007-.5889,5.4762,5.4762,0,0,0-1.3228-.167,1.7517,1.7517,0,0,0-1.1865.36,1.1886,1.1886,0,0,0-.4131.94,1.1639,1.1639,0,0,0,.167.6284,1.8359,1.8359,0,0,0,.5318.5186,16.43,16.43,0,0,0,1.727.9009,6.8717,6.8717,0,0,1,2.47,1.727A3.3709,3.3709,0,0,1,140.5459,116.2217Z"/><path class="cls-2" d="M154.5381,113.3477a6.9731,6.9731,0,0,1-1.582,4.9043,6.8576,6.8576,0,0,1-9.07,0,7,7,0,0,1-1.582-4.9219,6.9046,6.9046,0,0,1,1.5864-4.9,5.9325,5.9325,0,0,1,4.5484-1.6919,5.8494,5.8494,0,0,1,4.5307,1.7051A6.99,6.99,0,0,1,154.5381,113.3477Zm-9.3779,0a5.3675,5.3675,0,0,0,.8173,3.2431,2.86,2.86,0,0,0,2.4434,1.09q3.2607,0,3.2607-4.333,0-4.3419-3.2431-4.3418a2.88,2.88,0,0,0-2.4522,1.0942A5.3448,5.3448,0,0,0,145.16,113.3477Z"/><path class="cls-2" d="M160.9629,114.8594a13.2446,13.2446,0,0,1-.6812,4.3066,10.3011,10.3011,0,0,1-1.9643,3.4717h-2.18a12.6887,12.6887,0,0,0,1.8369-3.6255,13.4511,13.4511,0,0,0,.65-4.17,13.9481,13.9481,0,0,0-.6328-4.1748A12.6567,12.6567,0,0,0,156.12,106.94h2.1973a10.7807,10.7807,0,0,1,1.9687,3.5728A13.6832,13.6832,0,0,1,160.9629,114.8594Z"/></svg>