<svg id="_1" data-name="1" xmlns="http://www.w3.org/2000/svg" viewBox="0 0 324.375 139.5"><defs><style>.cls-1{fill:#ef7100;}.cls-2{fill:#fff;}</style></defs><polygon class="cls-1" points="264.375 139.5 0 139.5 60 69.75 0 0 264.375 0 324.375 69.75 264.375 139.5"/><path class="cls-2" d="M262.769,136H8.4712L64.9585,69.75,8.4712,3.5H262.769l56.9893,66.25ZM10.8911,135H262.31L318.439,69.75,262.31,4.5H10.8911L66.3755,69.75Z"/><path class="cls-2" d="M90.8964,76.7656q-4.5879,0-4.5879-5.0361a5.3719,5.3719,0,0,1,1.248-3.8276,4.6817,4.6817,0,0,1,3.5772-1.3228,6.82,6.82,0,0,1,3.0586.668l-.791,2.0742q-.6329-.2548-1.1778-.4175a3.7944,3.7944,0,0,0-1.09-.1626q-2.0919,0-2.0918,2.9707,0,2.8828,2.0918,2.8828a4.7694,4.7694,0,0,0,1.4326-.2065,5.1736,5.1736,0,0,0,1.3184-.646v2.2939a4.3161,4.3161,0,0,1-1.3135.5713A7.3922,7.3922,0,0,1,90.8964,76.7656Z"/><path class="cls-2" d="M100.1337,71.6592a13.2445,13.2445,0,0,1-.6807,4.3066,10.3038,10.3038,0,0,1-1.9648,3.4717h-2.18a12.6887,12.6887,0,0,0,1.8369-3.6255,13.4511,13.4511,0,0,0,.65-4.17,13.9513,13.9513,0,0,0-.6328-4.1748A12.6567,12.6567,0,0,0,95.2909,63.74h2.1973a10.7825,10.7825,0,0,1,1.9687,3.5728A13.6832,13.6832,0,0,1,100.1337,71.6592Z"/><path class="cls-2" d="M112.5878,76.59l-3.0938-10.081h-.0791q.1671,3.0762.167,4.1045V76.59h-2.4346V63.74h3.709l3.041,9.8262h.0528l3.2256-9.8262h3.709V76.59h-2.54v-6.082q0-.4307.0137-.9932t.1181-2.9882h-.0791L115.0839,76.59Z"/><path class="cls-2" d="M130.1483,76.59l-.5185-1.3359h-.07a3.9579,3.9579,0,0,1-1.3926,1.1821,4.5035,4.5035,0,0,1-1.8682.33,3.0188,3.0188,0,0,1-2.2275-.8086,3.1053,3.1053,0,0,1-.8135-2.3027,2.5931,2.5931,0,0,1,1.0947-2.3071,6.3384,6.3384,0,0,1,3.3-.8218l1.7051-.0527V70.042a1.3364,1.3364,0,0,0-1.5293-1.4941,6.9689,6.9689,0,0,0-2.7685.7119l-.8877-1.8106a7.9879,7.9879,0,0,1,3.7617-.8877,4.6853,4.6853,0,0,1,3.0322.8614A3.1831,3.1831,0,0,1,132.02,70.042V76.59Zm-.791-4.5527-1.0371.0352a3.3208,3.3208,0,0,0-1.74.4218,1.3251,1.3251,0,0,0-.5713,1.1778q0,1.1337,1.3008,1.1338a2.0611,2.0611,0,0,0,1.49-.5362,1.8826,1.8826,0,0,0,.5576-1.4238Z"/><path class="cls-2" d="M140.1766,76.7656a3.2588,3.2588,0,0,1-2.7158-1.2568H137.32q.1406,1.23.1406,1.4238v3.9815H134.78v-14.15h2.18l.378,1.2744h.123a3.1011,3.1011,0,0,1,2.7862-1.459,3.1887,3.1887,0,0,1,2.7246,1.3447,6.22,6.22,0,0,1,.9843,3.7354,7.3769,7.3769,0,0,1-.4609,2.7334,3.8348,3.8348,0,0,1-1.3145,1.7666A3.3669,3.3669,0,0,1,140.1766,76.7656Zm-.791-8.042a1.6925,1.6925,0,0,0-1.45.6109,3.5069,3.5069,0,0,0-.4746,2.0171v.29a4.1391,4.1391,0,0,0,.4707,2.2676,1.6775,1.6775,0,0,0,1.4893.6855q1.8018,0,1.8017-2.9707a4.2428,4.2428,0,0,0-.4433-2.1753A1.5158,1.5158,0,0,0,139.3856,68.7236Z"/><path class="cls-2" d="M152.411,76.59l-.5185-1.3359h-.07A3.9579,3.9579,0,0,1,150.43,76.436a4.5035,4.5035,0,0,1-1.8682.33,3.0186,3.0186,0,0,1-2.2275-.8086,3.1053,3.1053,0,0,1-.8135-2.3027,2.5931,2.5931,0,0,1,1.0947-2.3071,6.3384,6.3384,0,0,1,3.3-.8218l1.7051-.0527V70.042a1.3364,1.3364,0,0,0-1.5293-1.4941,6.9685,6.9685,0,0,0-2.7685.7119l-.8877-1.8106a7.9879,7.9879,0,0,1,3.7617-.8877,4.6853,4.6853,0,0,1,3.0322.8614,3.1831,3.1831,0,0,1,1.0547,2.6191V76.59Zm-.791-4.5527-1.0371.0352a3.3208,3.3208,0,0,0-1.74.4218,1.3251,1.3251,0,0,0-.5713,1.1778q0,1.1337,1.3008,1.1338a2.0611,2.0611,0,0,0,1.49-.5362,1.8826,1.8826,0,0,0,.5576-1.4238Z"/><path class="cls-2" d="M164.83,76.7656a3.1908,3.1908,0,0,1-2.72-1.3447,6.1827,6.1827,0,0,1-.9892-3.7266,6.188,6.188,0,0,1,1.0068-3.7661A3.2677,3.2677,0,0,1,164.9,66.5791a3.2057,3.2057,0,0,1,2.83,1.4414h.0878a10.9641,10.9641,0,0,1-.2021-1.96V62.9141h2.6894V76.59h-2.0566l-.5185-1.2744h-.1143A3.0676,3.0676,0,0,1,164.83,76.7656Zm.94-2.1357a1.8174,1.8174,0,0,0,1.5078-.5977,3.4771,3.4771,0,0,0,.5225-2.03v-.29a4.0185,4.0185,0,0,0-.4873-2.2676,1.8128,1.8128,0,0,0-1.587-.6855,1.5726,1.5726,0,0,0-1.3925.76,4.0557,4.0557,0,0,0-.4971,2.21,3.8438,3.8438,0,0,0,.501,2.1753A1.6367,1.6367,0,0,0,165.77,74.63Z"/><path class="cls-2" d="M177.5565,76.7656a5.0721,5.0721,0,0,1-3.709-1.3095,4.9587,4.9587,0,0,1-1.3359-3.709,5.4536,5.4536,0,0,1,1.2354-3.8189,4.3958,4.3958,0,0,1,3.414-1.3491,4.3282,4.3282,0,0,1,3.2432,1.1865,4.489,4.489,0,0,1,1.16,3.2783v1.3008h-6.3369a2.58,2.58,0,0,0,.6768,1.7842,2.3814,2.3814,0,0,0,1.7754.6416,7.3675,7.3675,0,0,0,1.6787-.1846,8.3985,8.3985,0,0,0,1.6523-.5888v2.0742a6.29,6.29,0,0,1-1.5029.5229A9.473,9.473,0,0,1,177.5565,76.7656Zm-.3779-8.2793a1.7,1.7,0,0,0-1.3359.5406,2.5013,2.5013,0,0,0-.5538,1.5336h3.7618a2.2346,2.2346,0,0,0-.5186-1.5336A1.7555,1.7555,0,0,0,177.1786,68.4863Z"/><path class="cls-2" d="M191.3554,71.6592V76.59h-2.7247V63.74h3.7442a6.4085,6.4085,0,0,1,3.876.9536,3.8022,3.8022,0,0,1,.6328,4.9131,4.1289,4.1289,0,0,1-1.7666,1.3843q2.9,4.3331,3.7793,5.5986h-3.0235l-3.0674-4.9306Zm0-2.2149h.8789a3.3626,3.3626,0,0,0,1.9072-.4306,1.5373,1.5373,0,0,0,.6152-1.3535,1.4058,1.4058,0,0,0-.6279-1.3008,3.8159,3.8159,0,0,0-1.9473-.3867h-.8261Z"/><path class="cls-2" d="M200.1884,64.2236q0-1.31,1.4589-1.31t1.459,1.31a1.2767,1.2767,0,0,1-.3642.9712,1.5343,1.5343,0,0,1-1.0948.3472Q200.1884,65.542,200.1884,64.2236ZM202.9833,76.59h-2.6807V66.7637h2.6807Z"/><path class="cls-2" d="M212.6513,73.6719a2.7049,2.7049,0,0,1-1.05,2.3027,5.19,5.19,0,0,1-3.1425.791,9.8685,9.8685,0,0,1-1.8282-.145,6.9168,6.9168,0,0,1-1.415-.4263V73.98a9.35,9.35,0,0,0,1.6836.5889,6.8119,6.8119,0,0,0,1.6475.2373q1.4589,0,1.4589-.8438a.7041.7041,0,0,0-.1933-.5141,2.8019,2.8019,0,0,0-.668-.4483q-.4746-.2505-1.2656-.5845a7.9369,7.9369,0,0,1-1.665-.8789,2.4737,2.4737,0,0,1-.7735-.9272,3.0607,3.0607,0,0,1-.2422-1.2876,2.3345,2.3345,0,0,1,1.0157-2.0259,4.9432,4.9432,0,0,1,2.8779-.7163,8.1708,8.1708,0,0,1,3.4541.7734l-.8086,1.9336q-.7383-.3164-1.38-.5185a4.3322,4.3322,0,0,0-1.31-.2022q-1.1865,0-1.1865.6416a.7549.7549,0,0,0,.3828.6241,10.3921,10.3921,0,0,0,1.6739.7822,7.7815,7.7815,0,0,1,1.6875.87,2.5745,2.5745,0,0,1,.791.9316A2.8634,2.8634,0,0,1,212.6513,73.6719Z"/><path class="cls-2" d="M218.7333,76.7656q-4.5879,0-4.5879-5.0361a5.3719,5.3719,0,0,1,1.248-3.8276,4.6819,4.6819,0,0,1,3.5772-1.3228,6.82,6.82,0,0,1,3.0586.668l-.791,2.0742q-.6328-.2548-1.1778-.4175a3.7939,3.7939,0,0,0-1.09-.1626q-2.0917,0-2.0918,2.9707,0,2.8828,2.0918,2.8828a4.769,4.769,0,0,0,1.4326-.2065,5.172,5.172,0,0,0,1.3184-.646v2.2939a4.3161,4.3161,0,0,1-1.3135.5713A7.3922,7.3922,0,0,1,218.7333,76.7656Z"/><path class="cls-2" d="M232.9276,71.6592a5.28,5.28,0,0,1-1.2656,3.7529,4.5889,4.5889,0,0,1-3.5244,1.3535,4.93,4.93,0,0,1-2.4961-.62,4.1233,4.1233,0,0,1-1.6611-1.78,5.9794,5.9794,0,0,1-.58-2.707,5.2514,5.2514,0,0,1,1.2568-3.7442,4.6156,4.6156,0,0,1,3.5332-1.3359,4.9586,4.9586,0,0,1,2.4961.6152,4.1069,4.1069,0,0,1,1.6611,1.7666A5.9243,5.9243,0,0,1,232.9276,71.6592Zm-6.7939,0a4.123,4.123,0,0,0,.48,2.206,1.712,1.712,0,0,0,1.5595.7471,1.6867,1.6867,0,0,0,1.543-.7427,4.1835,4.1835,0,0,0,.47-2.21,4.0587,4.0587,0,0,0-.4746-2.1885,2.018,2.018,0,0,0-3.1025-.0044A4.0554,4.0554,0,0,0,226.1337,71.6592Z"/></svg>