<svg xmlns="http://www.w3.org/2000/svg" viewBox="0 0 143.27796 143.27796"><defs><style>.cls-1{fill:#2d506d;}.cls-2{fill:#284666;}.cls-2,.cls-3{isolation:isolate;}.cls-3,.cls-4{fill:#fff;}</style></defs><g id="_1" data-name="1"><circle class="cls-1" cx="71.63898" cy="71.63898" r="67.83691"/><path class="cls-2" d="M71.639,143.278a71.639,71.639,0,1,1,71.639-71.639A71.72,71.72,0,0,1,71.639,143.278Zm0-141.67709A70.03811,70.03811,0,1,0,141.67708,71.639,70.11754,70.11754,0,0,0,71.639,1.60087Z"/><path class="cls-3" d="M71.639,135.67382A64.03484,64.03484,0,1,1,135.67382,71.639,64.1072,64.1072,0,0,1,71.639,135.67382Zm0-127.26925A63.23441,63.23441,0,1,0,134.87338,71.639,63.30624,63.30624,0,0,0,71.639,8.40457Z"/><path class="cls-4" d="M47.93339,95.90828c14.0459-11.03027,28.752-22.81347,28.752-33.56054,0-3.959-1.791-6.41016-5.37305-6.41016-3.48828,0-5.84473,2.92285-5.65625,9.04981H47.74492c.56543-17.53321,11.97265-24.60352,24.69824-24.60352,16.40332,0,22.9082,9.332,22.9082,20.64453,0,14.3291-11.87793,26.11231-22.9082,33.74805H96.01054v14.98926H47.93339Z"/></g></svg>