<svg id="BG" xmlns="http://www.w3.org/2000/svg" xmlns:xlink="http://www.w3.org/1999/xlink" viewBox="0 0 1272 357.375"><defs><style>.cls-1{fill:#002342;}.cls-1,.cls-3{isolation:isolate;}.cls-2{fill:url(#linear-gradient);}.cls-4{fill:#fff;}.cls-5{fill:url(#linear-gradient-2);}.cls-6{fill:url(#linear-gradient-3);}.cls-7{fill:url(#linear-gradient-4);}</style><linearGradient id="linear-gradient" x1="648.731" y1="380.779" x2="593.606" y2="105.154" gradientUnits="userSpaceOnUse"><stop offset="0" stop-color="#0041bc"/><stop offset="0.994" stop-color="#d46800"/></linearGradient><linearGradient id="linear-gradient-2" x1="665.197" y1="377.486" x2="610.072" y2="101.861" xlink:href="#linear-gradient"/><linearGradient id="linear-gradient-3" x1="681.663" y1="374.192" x2="626.538" y2="98.567" xlink:href="#linear-gradient"/><linearGradient id="linear-gradient-4" x1="698.13" y1="370.899" x2="643.005" y2="95.274" xlink:href="#linear-gradient"/></defs><rect class="cls-1" y="256.875" width="1272" height="80.5" rx="14.375"/><rect class="cls-2" x="2" y="278.875" width="1268" height="76.5" rx="12.375"/><path class="cls-1" d="M1262.041,365.125H18.791A14.392,14.392,0,0,1,4.416,350.75V299a14.392,14.392,0,0,1,14.375-14.375h1243.25A14.391,14.391,0,0,1,1276.416,299v51.75A14.391,14.391,0,0,1,1262.041,365.125Zm-1243.25-76.5A10.387,10.387,0,0,0,8.416,299v51.75a10.387,10.387,0,0,0,10.375,10.375h1243.25a10.386,10.386,0,0,0,10.375-10.375V299a10.386,10.386,0,0,0-10.375-10.375Z" transform="translate(-4.416 -7.75)"/><g class="cls-3"><path class="cls-4" d="M139.307,334.862a8.9,8.9,0,1,1,8.747-8.9A8.593,8.593,0,0,1,139.307,334.862Zm0-1.974c3.674,0,6.423-2.675,6.423-6.923,0-4.275-2.749-6.923-6.423-6.923s-6.424,2.648-6.424,6.923C132.883,330.213,135.633,332.888,139.307,332.888Z" transform="translate(-4.416 -7.75)"/><path class="cls-4" d="M153.333,334.688h-2.275v-13.7h2.275v2.224a4.612,4.612,0,0,1,4.424-2.474v2.349h-.6c-2.174,0-3.824.975-3.824,4.149Z" transform="translate(-4.416 -7.75)"/><path class="cls-4" d="M166.032,320.766a5.647,5.647,0,0,1,5.1,2.724v-2.5h2.3v14a6.14,6.14,0,0,1-6.548,6.449c-3.6,0-6.174-1.825-6.624-4.749h2.25c.5,1.649,2.124,2.774,4.374,2.774,2.424,0,4.249-1.549,4.249-4.474v-2.874a5.724,5.724,0,0,1-5.1,2.8c-3.674,0-6.5-2.875-6.5-7.124C159.533,323.515,162.358,320.766,166.032,320.766Zm.45,1.974c-2.5,0-4.624,1.825-4.624,5.049s2.124,5.124,4.624,5.124,4.649-1.874,4.649-5.1C171.131,324.64,168.981,322.74,166.482,322.74Z" transform="translate(-4.416 -7.75)"/><path class="cls-4" d="M182.932,320.766a5.684,5.684,0,0,1,5.1,2.724v-2.5h2.3v13.7h-2.3v-2.55a5.721,5.721,0,0,1-5.124,2.775c-3.649,0-6.474-2.875-6.474-7.124C176.433,323.515,179.258,320.766,182.932,320.766Zm.45,1.974c-2.5,0-4.624,1.825-4.624,5.049s2.124,5.124,4.624,5.124,4.649-1.874,4.649-5.1C188.031,324.64,185.881,322.74,183.382,322.74Z" transform="translate(-4.416 -7.75)"/><path class="cls-4" d="M204.206,326.939c0-2.8-1.525-4.224-3.824-4.224-2.325,0-3.925,1.45-3.925,4.4v7.574h-2.274v-13.7h2.274v1.949a5.063,5.063,0,0,1,4.4-2.2c3.174,0,5.6,1.949,5.6,5.873v8.074h-2.249Z" transform="translate(-4.416 -7.75)"/><path class="cls-4" d="M209.808,317.217a1.525,1.525,0,1,1,1.55,1.55A1.526,1.526,0,0,1,209.808,317.217Zm.375,3.774h2.274v13.7h-2.274Z" transform="translate(-4.416 -7.75)"/><path class="cls-4" d="M224.706,322.84l-6.674,9.973h6.724v1.875h-9.323v-1.875l6.649-9.973h-6.6v-1.849h9.223Z" transform="translate(-4.416 -7.75)"/><path class="cls-4" d="M233.356,320.766a5.683,5.683,0,0,1,5.1,2.724v-2.5h2.3v13.7h-2.3v-2.55a5.72,5.72,0,0,1-5.124,2.775c-3.649,0-6.473-2.875-6.473-7.124C226.858,323.515,229.682,320.766,233.356,320.766Zm.45,1.974c-2.5,0-4.624,1.825-4.624,5.049s2.124,5.124,4.624,5.124,4.649-1.874,4.649-5.1C238.455,324.64,236.305,322.74,233.806,322.74Z" transform="translate(-4.416 -7.75)"/><path class="cls-4" d="M250.431,320.766c3.4,0,5.623,1.75,6.324,4.624h-2.45a3.732,3.732,0,0,0-3.874-2.7c-2.5,0-4.349,1.775-4.349,5.124,0,3.4,1.849,5.174,4.349,5.174a3.675,3.675,0,0,0,3.874-2.7h2.45a6.02,6.02,0,0,1-5.624,4.6v1.249c1.924-.025,3.224.825,3.224,2.474,0,1.575-1.275,2.575-3.049,2.575h-2.875v-1.475h2.425c1.074,0,1.6-.3,1.6-1.1,0-.774-.525-1.074-1.6-1.074h-1.25v-2.675c-3.449-.349-5.848-3.024-5.848-7.048C243.758,323.515,246.532,320.766,250.431,320.766Z" transform="translate(-4.416 -7.75)"/><path class="cls-4" d="M265.431,320.766a5.684,5.684,0,0,1,5.1,2.724v-2.5h2.3v13.7h-2.3v-2.55a5.721,5.721,0,0,1-5.124,2.775c-3.649,0-6.474-2.875-6.474-7.124C258.932,323.515,261.757,320.766,265.431,320.766Zm.45,1.974c-2.5,0-4.624,1.825-4.624,5.049s2.124,5.124,4.624,5.124,4.649-1.874,4.649-5.1C270.53,324.64,268.38,322.74,265.881,322.74Zm-.725-5.848c1.325,0,1.824,1.15,2.849,1.15a1.1,1.1,0,0,0,1.1-1.075h1.3c-.2,1.7-1.2,2.6-2.5,2.6-1.35,0-1.849-1.149-2.849-1.149-.55,0-.975.35-1.075,1.1h-1.325C262.906,317.792,263.856,316.892,265.156,316.892Z" transform="translate(-4.416 -7.75)"/><path class="cls-4" d="M282.656,334.913c-3.875,0-6.824-2.75-6.824-7.1a6.925,6.925,0,1,1,13.847,0A6.792,6.792,0,0,1,282.656,334.913Zm0-2c2.374,0,4.7-1.625,4.7-5.1,0-3.449-2.275-5.074-4.624-5.074-2.4,0-4.575,1.625-4.575,5.074C278.156,331.288,280.281,332.913,282.656,332.913Z" transform="translate(-4.416 -7.75)"/><path class="cls-4" d="M305.031,320.766a5.973,5.973,0,0,1,5.073,2.674v-7.248h2.3v18.5h-2.3v-2.575a5.623,5.623,0,0,1-5.1,2.8c-3.675,0-6.5-2.875-6.5-7.124C298.507,323.515,301.331,320.766,305.031,320.766Zm.424,1.974c-2.5,0-4.624,1.825-4.624,5.049s2.125,5.124,4.624,5.124,4.649-1.874,4.649-5.1C310.1,324.64,307.955,322.74,305.455,322.74Z" transform="translate(-4.416 -7.75)"/><path class="cls-4" d="M322.18,334.913c-3.9,0-6.773-2.75-6.773-7.1,0-4.324,2.774-7.048,6.773-7.048a6.278,6.278,0,0,1,6.574,6.548,12.332,12.332,0,0,1-.075,1.375H317.732a4.3,4.3,0,0,0,4.448,4.3,3.765,3.765,0,0,0,3.85-2.525h2.449A6.16,6.16,0,0,1,322.18,334.913Zm-4.423-8.074H326.4a4.02,4.02,0,0,0-4.325-4.149A4.241,4.241,0,0,0,317.757,326.839Z" transform="translate(-4.416 -7.75)"/><path class="cls-4" d="M344.355,334.913c-3.9,0-6.773-2.75-6.773-7.1,0-4.324,2.774-7.048,6.773-7.048a6.278,6.278,0,0,1,6.573,6.548,12.335,12.335,0,0,1-.074,1.375H339.906a4.306,4.306,0,0,0,4.449,4.3,3.764,3.764,0,0,0,3.849-2.525h2.45A6.16,6.16,0,0,1,344.355,334.913Zm-4.424-8.074h8.648a4.019,4.019,0,0,0-4.324-4.149A4.242,4.242,0,0,0,339.931,326.839Z" transform="translate(-4.416 -7.75)"/><path class="cls-4" d="M358.781,334.913c-3.2,0-5.449-1.75-5.6-4.249h2.349c.125,1.324,1.3,2.324,3.225,2.324,1.8,0,2.8-.9,2.8-2.025,0-3.049-8.1-1.275-8.1-6.373,0-2.1,1.974-3.824,5.024-3.824,3.024,0,5.023,1.625,5.173,4.3H361.38c-.1-1.375-1.15-2.375-2.974-2.375-1.675,0-2.675.8-2.675,1.9,0,3.249,7.948,1.474,8.048,6.373C363.779,333.213,361.805,334.913,358.781,334.913Z" transform="translate(-4.416 -7.75)"/><path class="cls-4" d="M372.805,320.766c3.4,0,5.623,1.75,6.324,4.624h-2.45a3.732,3.732,0,0,0-3.874-2.7c-2.5,0-4.349,1.775-4.349,5.124,0,3.4,1.849,5.174,4.349,5.174a3.675,3.675,0,0,0,3.874-2.7h2.45a6.1,6.1,0,0,1-6.324,4.624c-3.9,0-6.673-2.75-6.673-7.1C366.132,323.515,368.906,320.766,372.805,320.766Z" transform="translate(-4.416 -7.75)"/><path class="cls-4" d="M387.805,320.766a5.684,5.684,0,0,1,5.1,2.724v-2.5h2.3v13.7h-2.3v-2.55a5.721,5.721,0,0,1-5.124,2.775c-3.649,0-6.474-2.875-6.474-7.124C381.306,323.515,384.131,320.766,387.805,320.766Zm.45,1.974c-2.5,0-4.624,1.825-4.624,5.049s2.124,5.124,4.624,5.124,4.649-1.874,4.649-5.1C392.9,324.64,390.754,322.74,388.255,322.74Z" transform="translate(-4.416 -7.75)"/><path class="cls-4" d="M399.056,316.192h2.274v18.5h-2.274Z" transform="translate(-4.416 -7.75)"/><path class="cls-4" d="M410.855,320.766a5.681,5.681,0,0,1,5.1,2.724v-2.5h2.3v13.7h-2.3v-2.55a5.718,5.718,0,0,1-5.123,2.775c-3.65,0-6.474-2.875-6.474-7.124C404.356,323.515,407.18,320.766,410.855,320.766Zm.449,1.974c-2.5,0-4.623,1.825-4.623,5.049s2.124,5.124,4.623,5.124,4.649-1.874,4.649-5.1C415.953,324.64,413.8,322.74,411.3,322.74Z" transform="translate(-4.416 -7.75)"/><path class="cls-4" d="M436.179,320.766c3.674,0,6.5,2.749,6.5,7.023,0,4.249-2.824,7.124-6.5,7.124a5.924,5.924,0,0,1-5.124-2.75v9.023h-2.274V320.991h2.274v2.524A5.785,5.785,0,0,1,436.179,320.766Zm-.475,1.974c-2.474,0-4.649,1.9-4.649,5.074,0,3.225,2.175,5.1,4.649,5.1,2.524,0,4.649-1.9,4.649-5.124S438.228,322.74,435.7,322.74Z" transform="translate(-4.416 -7.75)"/><path class="cls-4" d="M451.329,320.766a5.683,5.683,0,0,1,5.1,2.724v-2.5h2.3v13.7h-2.3v-2.55a5.72,5.72,0,0,1-5.124,2.775c-3.649,0-6.473-2.875-6.473-7.124C444.831,323.515,447.655,320.766,451.329,320.766Zm.45,1.974c-2.5,0-4.623,1.825-4.623,5.049s2.124,5.124,4.623,5.124,4.649-1.874,4.649-5.1C456.428,324.64,454.279,322.74,451.779,322.74Z" transform="translate(-4.416 -7.75)"/><path class="cls-4" d="M464.855,334.688H462.58v-13.7h2.275v2.224a4.612,4.612,0,0,1,4.424-2.474v2.349h-.6c-2.174,0-3.824.975-3.824,4.149Z" transform="translate(-4.416 -7.75)"/><path class="cls-4" d="M477.554,320.766a5.684,5.684,0,0,1,5.1,2.724v-2.5h2.3v13.7h-2.3v-2.55a5.721,5.721,0,0,1-5.124,2.775c-3.649,0-6.474-2.875-6.474-7.124C471.055,323.515,473.88,320.766,477.554,320.766Zm.45,1.974c-2.5,0-4.624,1.825-4.624,5.049s2.124,5.124,4.624,5.124,4.649-1.874,4.649-5.1C482.653,324.64,480.5,322.74,478,322.74Z" transform="translate(-4.416 -7.75)"/><path class="cls-4" d="M495.105,317.217a1.525,1.525,0,1,1,1.55,1.55A1.526,1.526,0,0,1,495.105,317.217Zm.375,3.774h2.274v13.7H495.48Z" transform="translate(-4.416 -7.75)"/><path class="cls-4" d="M511.653,326.939c0-2.8-1.525-4.224-3.825-4.224-2.324,0-3.923,1.45-3.923,4.4v7.574H501.63v-13.7h2.275v1.949a5.059,5.059,0,0,1,4.4-2.2c3.174,0,5.6,1.949,5.6,5.873v8.074h-2.249Z" transform="translate(-4.416 -7.75)"/><path class="cls-4" d="M518.13,322.865h-1.775v-1.874h1.775v-3.449H520.4v3.449h3.574v1.874H520.4v8.073c0,1.35.5,1.825,1.9,1.825h1.674v1.925h-2.049c-2.425,0-3.8-1-3.8-3.75Z" transform="translate(-4.416 -7.75)"/><path class="cls-4" d="M532.654,334.913c-3.9,0-6.774-2.75-6.774-7.1,0-4.324,2.775-7.048,6.774-7.048a6.278,6.278,0,0,1,6.573,6.548,12.332,12.332,0,0,1-.075,1.375H528.2a4.307,4.307,0,0,0,4.45,4.3,3.765,3.765,0,0,0,3.849-2.525h2.449A6.159,6.159,0,0,1,532.654,334.913Zm-4.424-8.074h8.648a4.02,4.02,0,0,0-4.325-4.149A4.241,4.241,0,0,0,528.23,326.839Z" transform="translate(-4.416 -7.75)"/><path class="cls-4" d="M547.879,320.766a5.646,5.646,0,0,1,5.1,2.724v-2.5h2.3v14a6.14,6.14,0,0,1-6.549,6.449c-3.6,0-6.173-1.825-6.623-4.749h2.249c.5,1.649,2.125,2.774,4.374,2.774,2.425,0,4.249-1.549,4.249-4.474v-2.874a5.721,5.721,0,0,1-5.1,2.8c-3.675,0-6.5-2.875-6.5-7.124C541.38,323.515,544.2,320.766,547.879,320.766Zm.449,1.974c-2.5,0-4.624,1.825-4.624,5.049s2.125,5.124,4.624,5.124,4.649-1.874,4.649-5.1C552.977,324.64,550.828,322.74,548.328,322.74Z" transform="translate(-4.416 -7.75)"/><path class="cls-4" d="M561.405,334.688H559.13v-13.7h2.275v2.224a4.61,4.61,0,0,1,4.423-2.474v2.349h-.6c-2.174,0-3.823.975-3.823,4.149Z" transform="translate(-4.416 -7.75)"/><path class="cls-4" d="M574.1,320.766a5.683,5.683,0,0,1,5.1,2.724v-2.5h2.3v13.7h-2.3v-2.55a5.72,5.72,0,0,1-5.124,2.775c-3.649,0-6.473-2.875-6.473-7.124C567.605,323.515,570.429,320.766,574.1,320.766Zm.45,1.974c-2.5,0-4.624,1.825-4.624,5.049s2.124,5.124,4.624,5.124,4.649-1.874,4.649-5.1C579.2,324.64,577.052,322.74,574.553,322.74Z" transform="translate(-4.416 -7.75)"/><path class="cls-4" d="M591.178,320.766c3.4,0,5.624,1.75,6.324,4.624h-2.45a3.732,3.732,0,0,0-3.874-2.7c-2.5,0-4.349,1.775-4.349,5.124,0,3.4,1.849,5.174,4.349,5.174a3.675,3.675,0,0,0,3.874-2.7h2.45a6.02,6.02,0,0,1-5.624,4.6v1.249c1.924-.025,3.224.825,3.224,2.474,0,1.575-1.275,2.575-3.049,2.575h-2.875v-1.475H591.6c1.074,0,1.6-.3,1.6-1.1,0-.774-.525-1.074-1.6-1.074h-1.25v-2.675c-3.449-.349-5.848-3.024-5.848-7.048C584.505,323.515,587.279,320.766,591.178,320.766Z" transform="translate(-4.416 -7.75)"/><path class="cls-4" d="M606.178,320.766a5.684,5.684,0,0,1,5.1,2.724v-2.5h2.3v13.7h-2.3v-2.55a5.721,5.721,0,0,1-5.124,2.775c-3.649,0-6.474-2.875-6.474-7.124C599.679,323.515,602.5,320.766,606.178,320.766Zm.45,1.974c-2.5,0-4.624,1.825-4.624,5.049s2.124,5.124,4.624,5.124,4.649-1.874,4.649-5.1C611.277,324.64,609.127,322.74,606.628,322.74Zm-.725-5.848c1.325,0,1.824,1.15,2.849,1.15a1.1,1.1,0,0,0,1.1-1.075h1.3c-.2,1.7-1.2,2.6-2.5,2.6-1.35,0-1.849-1.149-2.849-1.149-.55,0-.975.35-1.075,1.1H603.4C603.654,317.792,604.6,316.892,605.9,316.892Z" transform="translate(-4.416 -7.75)"/><path class="cls-4" d="M623.4,334.913c-3.874,0-6.824-2.75-6.824-7.1a6.925,6.925,0,1,1,13.847,0A6.792,6.792,0,0,1,623.4,334.913Zm0-2c2.374,0,4.7-1.625,4.7-5.1,0-3.449-2.275-5.074-4.624-5.074-2.4,0-4.574,1.625-4.574,5.074C618.9,331.288,621.028,332.913,623.4,332.913Z" transform="translate(-4.416 -7.75)"/><path class="cls-4" d="M645.778,320.766a5.973,5.973,0,0,1,5.073,2.674v-7.248h2.3v18.5h-2.3v-2.575a5.623,5.623,0,0,1-5.1,2.8c-3.675,0-6.5-2.875-6.5-7.124C639.254,323.515,642.078,320.766,645.778,320.766Zm.424,1.974c-2.5,0-4.624,1.825-4.624,5.049s2.125,5.124,4.624,5.124,4.649-1.874,4.649-5.1C650.851,324.64,648.7,322.74,646.2,322.74Z" transform="translate(-4.416 -7.75)"/><path class="cls-4" d="M662.927,334.913c-3.9,0-6.773-2.75-6.773-7.1,0-4.324,2.774-7.048,6.773-7.048a6.278,6.278,0,0,1,6.574,6.548,12.332,12.332,0,0,1-.075,1.375H658.479a4.305,4.305,0,0,0,4.448,4.3,3.765,3.765,0,0,0,3.85-2.525h2.449A6.16,6.16,0,0,1,662.927,334.913Zm-4.423-8.074h8.648a4.02,4.02,0,0,0-4.325-4.149A4.241,4.241,0,0,0,658.5,326.839Z" transform="translate(-4.416 -7.75)"/><path class="cls-4" d="M679.678,322.865H677.9v-1.874h1.774v-3.449h2.275v3.449h3.574v1.874h-3.574v8.073c0,1.35.5,1.825,1.9,1.825h1.674v1.925h-2.049c-2.425,0-3.8-1-3.8-3.75Z" transform="translate(-4.416 -7.75)"/><path class="cls-4" d="M694.252,334.913c-3.874,0-6.823-2.75-6.823-7.1a6.925,6.925,0,1,1,13.847,0A6.792,6.792,0,0,1,694.252,334.913Zm0-2c2.375,0,4.7-1.625,4.7-5.1,0-3.449-2.274-5.074-4.624-5.074-2.4,0-4.574,1.625-4.574,5.074C689.753,331.288,691.878,332.913,694.252,332.913Z" transform="translate(-4.416 -7.75)"/><path class="cls-4" d="M709.952,320.766a5.975,5.975,0,0,1,5.074,2.674v-7.248h2.3v18.5h-2.3v-2.575a5.625,5.625,0,0,1-5.1,2.8c-3.674,0-6.5-2.875-6.5-7.124C703.429,323.515,706.253,320.766,709.952,320.766Zm.425,1.974c-2.5,0-4.624,1.825-4.624,5.049s2.125,5.124,4.624,5.124,4.649-1.874,4.649-5.1C715.026,324.64,712.877,322.74,710.377,322.74Z" transform="translate(-4.416 -7.75)"/><path class="cls-4" d="M727.152,334.913c-3.874,0-6.823-2.75-6.823-7.1a6.925,6.925,0,1,1,13.847,0A6.792,6.792,0,0,1,727.152,334.913Zm0-2c2.375,0,4.7-1.625,4.7-5.1,0-3.449-2.275-5.074-4.624-5.074-2.4,0-4.573,1.625-4.573,5.074C722.654,331.288,724.778,332.913,727.152,332.913Z" transform="translate(-4.416 -7.75)"/><path class="cls-4" d="M742.028,334.913c-3.2,0-5.449-1.75-5.6-4.249h2.349c.125,1.324,1.3,2.324,3.225,2.324,1.8,0,2.8-.9,2.8-2.025,0-3.049-8.1-1.275-8.1-6.373,0-2.1,1.974-3.824,5.024-3.824,3.024,0,5.023,1.625,5.173,4.3h-2.274c-.1-1.375-1.15-2.375-2.974-2.375-1.675,0-2.675.8-2.675,1.9,0,3.249,7.949,1.474,8.048,6.373C747.026,333.213,745.052,334.913,742.028,334.913Z" transform="translate(-4.416 -7.75)"/><path class="cls-4" d="M762.877,334.913c-3.874,0-6.824-2.75-6.824-7.1a6.925,6.925,0,1,1,13.847,0A6.792,6.792,0,0,1,762.877,334.913Zm0-2c2.374,0,4.7-1.625,4.7-5.1,0-3.449-2.274-5.074-4.623-5.074-2.4,0-4.574,1.625-4.574,5.074C758.378,331.288,760.5,332.913,762.877,332.913Z" transform="translate(-4.416 -7.75)"/><path class="cls-4" d="M777.752,334.913c-3.2,0-5.449-1.75-5.6-4.249H774.5c.125,1.324,1.3,2.324,3.224,2.324,1.8,0,2.8-.9,2.8-2.025,0-3.049-8.1-1.275-8.1-6.373,0-2.1,1.975-3.824,5.024-3.824,3.024,0,5.024,1.625,5.174,4.3h-2.275c-.1-1.375-1.149-2.375-2.974-2.375-1.675,0-2.674.8-2.674,1.9,0,3.249,7.948,1.474,8.048,6.373C782.751,333.213,780.777,334.913,777.752,334.913Z" transform="translate(-4.416 -7.75)"/><path class="cls-4" d="M800.026,320.766c3.674,0,6.5,2.749,6.5,7.023,0,4.249-2.825,7.124-6.5,7.124a5.922,5.922,0,0,1-5.123-2.75v9.023h-2.275V320.991H794.9v2.524A5.783,5.783,0,0,1,800.026,320.766Zm-.475,1.974c-2.474,0-4.648,1.9-4.648,5.074,0,3.225,2.174,5.1,4.648,5.1,2.524,0,4.649-1.9,4.649-5.124S802.075,322.74,799.551,322.74Z" transform="translate(-4.416 -7.75)"/><path class="cls-4" d="M811.8,334.688h-2.274v-13.7H811.8v2.224a4.613,4.613,0,0,1,4.424-2.474v2.349h-.6c-2.174,0-3.824.975-3.824,4.149Z" transform="translate(-4.416 -7.75)"/><path class="cls-4" d="M824.826,334.913c-3.874,0-6.823-2.75-6.823-7.1a6.924,6.924,0,1,1,13.846,0A6.792,6.792,0,0,1,824.826,334.913Zm0-2c2.374,0,4.7-1.625,4.7-5.1,0-3.449-2.275-5.074-4.624-5.074-2.4,0-4.574,1.625-4.574,5.074C820.327,331.288,822.451,332.913,824.826,332.913Z" transform="translate(-4.416 -7.75)"/><path class="cls-4" d="M835.278,322.865H833.5v-1.874h1.775v-.975c0-3.049,1.5-4.424,5-4.424v1.9c-2.049,0-2.724.75-2.724,2.524v.975h2.874v1.874h-2.874v11.823h-2.274Z" transform="translate(-4.416 -7.75)"/><path class="cls-4" d="M842.7,317.217a1.525,1.525,0,1,1,1.549,1.55A1.526,1.526,0,0,1,842.7,317.217Zm.374,3.774h2.275v13.7h-2.275Z" transform="translate(-4.416 -7.75)"/><path class="cls-4" d="M854.076,334.913c-3.2,0-5.448-1.75-5.6-4.249h2.349c.125,1.324,1.3,2.324,3.225,2.324,1.8,0,2.8-.9,2.8-2.025,0-3.049-8.1-1.275-8.1-6.373,0-2.1,1.974-3.824,5.024-3.824,3.024,0,5.023,1.625,5.173,4.3h-2.274c-.1-1.375-1.15-2.375-2.975-2.375-1.674,0-2.674.8-2.674,1.9,0,3.249,7.948,1.474,8.048,6.373C859.075,333.213,857.1,334.913,854.076,334.913Z" transform="translate(-4.416 -7.75)"/><path class="cls-4" d="M867.126,334.913c-3.2,0-5.449-1.75-5.6-4.249h2.349c.125,1.324,1.3,2.324,3.224,2.324,1.8,0,2.8-.9,2.8-2.025,0-3.049-8.1-1.275-8.1-6.373,0-2.1,1.975-3.824,5.024-3.824,3.025,0,5.024,1.625,5.174,4.3h-2.274c-.1-1.375-1.151-2.375-2.975-2.375-1.675,0-2.675.8-2.675,1.9,0,3.249,7.949,1.474,8.049,6.373C872.125,333.213,870.151,334.913,867.126,334.913Z" transform="translate(-4.416 -7.75)"/><path class="cls-4" d="M874.952,317.217a1.525,1.525,0,1,1,1.55,1.55A1.526,1.526,0,0,1,874.952,317.217Zm.375,3.774H877.6v13.7h-2.275Z" transform="translate(-4.416 -7.75)"/><path class="cls-4" d="M887.45,334.913c-3.874,0-6.823-2.75-6.823-7.1a6.924,6.924,0,1,1,13.846,0A6.792,6.792,0,0,1,887.45,334.913Zm0-2c2.374,0,4.7-1.625,4.7-5.1,0-3.449-2.275-5.074-4.624-5.074-2.4,0-4.574,1.625-4.574,5.074C882.951,331.288,885.075,332.913,887.45,332.913Z" transform="translate(-4.416 -7.75)"/><path class="cls-4" d="M907.5,326.939c0-2.8-1.524-4.224-3.824-4.224-2.324,0-3.924,1.45-3.924,4.4v7.574h-2.274v-13.7h2.274v1.949a5.061,5.061,0,0,1,4.4-2.2c3.174,0,5.6,1.949,5.6,5.873v8.074H907.5Z" transform="translate(-4.416 -7.75)"/><path class="cls-4" d="M919.125,320.766a5.684,5.684,0,0,1,5.1,2.724v-2.5h2.3v13.7h-2.3v-2.55a5.721,5.721,0,0,1-5.124,2.775c-3.649,0-6.473-2.875-6.473-7.124C912.627,323.515,915.451,320.766,919.125,320.766Zm.45,1.974c-2.5,0-4.624,1.825-4.624,5.049s2.124,5.124,4.624,5.124,4.649-1.874,4.649-5.1C924.224,324.64,922.074,322.74,919.575,322.74Z" transform="translate(-4.416 -7.75)"/><path class="cls-4" d="M930,317.217a1.525,1.525,0,1,1,1.55,1.55A1.526,1.526,0,0,1,930,317.217Zm.375,3.774h2.275v13.7h-2.275Z" transform="translate(-4.416 -7.75)"/><path class="cls-4" d="M941.374,334.913c-3.2,0-5.449-1.75-5.6-4.249h2.349c.125,1.324,1.3,2.324,3.224,2.324,1.8,0,2.8-.9,2.8-2.025,0-3.049-8.1-1.275-8.1-6.373,0-2.1,1.975-3.824,5.024-3.824,3.025,0,5.024,1.625,5.174,4.3h-2.274c-.1-1.375-1.151-2.375-2.975-2.375-1.675,0-2.675.8-2.675,1.9,0,3.249,7.949,1.474,8.049,6.373C946.373,333.213,944.4,334.913,941.374,334.913Z" transform="translate(-4.416 -7.75)"/><path class="cls-4" d="M966.273,326.939c0-2.8-1.525-4.224-3.825-4.224-2.324,0-3.923,1.45-3.923,4.4v7.574H956.25v-13.7h2.275v1.949a5.058,5.058,0,0,1,4.4-2.2c3.175,0,5.6,1.949,5.6,5.873v8.074h-2.249Z" transform="translate(-4.416 -7.75)"/><path class="cls-4" d="M978.224,334.913c-3.874,0-6.823-2.75-6.823-7.1a6.924,6.924,0,1,1,13.845,0A6.791,6.791,0,0,1,978.224,334.913Zm0-2c2.374,0,4.7-1.625,4.7-5.1,0-3.449-2.274-5.074-4.624-5.074-2.4,0-4.573,1.625-4.573,5.074C973.725,331.288,975.849,332.913,978.224,332.913Z" transform="translate(-4.416 -7.75)"/><path class="cls-4" d="M1000.573,320.766a5.684,5.684,0,0,1,5.1,2.724v-2.5h2.3v13.7h-2.3v-2.55a5.72,5.72,0,0,1-5.124,2.775c-3.648,0-6.473-2.875-6.473-7.124C994.075,323.515,996.9,320.766,1000.573,320.766Zm.451,1.974c-2.5,0-4.624,1.825-4.624,5.049s2.124,5.124,4.624,5.124,4.648-1.874,4.648-5.1C1005.672,324.64,1003.523,322.74,1001.024,322.74Z" transform="translate(-4.416 -7.75)"/><path class="cls-4" d="M1017.648,320.766c3.4,0,5.624,1.75,6.323,4.624h-2.449a3.732,3.732,0,0,0-3.874-2.7c-2.5,0-4.349,1.775-4.349,5.124,0,3.4,1.85,5.174,4.349,5.174a3.675,3.675,0,0,0,3.874-2.7h2.449a6.092,6.092,0,0,1-6.323,4.624c-3.9,0-6.673-2.75-6.673-7.1C1010.975,323.515,1013.748,320.766,1017.648,320.766Z" transform="translate(-4.416 -7.75)"/><path class="cls-4" d="M1032.973,334.913c-3.874,0-6.823-2.75-6.823-7.1a6.924,6.924,0,1,1,13.845,0A6.791,6.791,0,0,1,1032.973,334.913Zm0-2c2.374,0,4.7-1.625,4.7-5.1,0-3.449-2.274-5.074-4.624-5.074-2.4,0-4.573,1.625-4.573,5.074C1028.474,331.288,1030.6,332.913,1032.973,332.913Z" transform="translate(-4.416 -7.75)"/><path class="cls-4" d="M1043,316.192h2.275v18.5H1043Z" transform="translate(-4.416 -7.75)"/><path class="cls-4" d="M1049.149,316.192h2.274v6.773a5.155,5.155,0,0,1,4.524-2.224c3.049,0,5.473,1.949,5.473,5.873v8.074h-2.249v-7.749c0-2.8-1.524-4.224-3.824-4.224-2.324,0-3.924,1.45-3.924,4.4v7.574h-2.274Z" transform="translate(-4.416 -7.75)"/><path class="cls-4" d="M1064.774,317.217a1.525,1.525,0,1,1,1.549,1.55A1.526,1.526,0,0,1,1064.774,317.217Zm.375,3.774h2.274v13.7h-2.274Z" transform="translate(-4.416 -7.75)"/><path class="cls-4" d="M1091.068,326.939c0-2.8-1.5-4.224-3.749-4.224-2.3,0-3.874,1.475-3.874,4.424v7.549H1081.2v-7.749c0-2.8-1.5-4.224-3.749-4.224-2.3,0-3.874,1.475-3.874,4.424v7.549H1071.3v-13.7h2.275v1.974a4.951,4.951,0,0,1,4.323-2.224,5.154,5.154,0,0,1,5.024,3.049,5.069,5.069,0,0,1,4.849-3.049c3.124,0,5.549,1.949,5.549,5.873v8.074h-2.25Z" transform="translate(-4.416 -7.75)"/><path class="cls-4" d="M1102.971,334.913c-3.9,0-6.773-2.75-6.773-7.1,0-4.324,2.774-7.048,6.773-7.048a6.278,6.278,0,0,1,6.574,6.548,12.332,12.332,0,0,1-.075,1.375h-10.947a4.305,4.305,0,0,0,4.448,4.3,3.765,3.765,0,0,0,3.85-2.525h2.449A6.16,6.16,0,0,1,1102.971,334.913Zm-4.424-8.074h8.649a4.02,4.02,0,0,0-4.325-4.149A4.242,4.242,0,0,0,1098.547,326.839Z" transform="translate(-4.416 -7.75)"/><path class="cls-4" d="M1122.571,326.939c0-2.8-1.525-4.224-3.825-4.224-2.324,0-3.923,1.45-3.923,4.4v7.574h-2.275v-13.7h2.275v1.949a5.058,5.058,0,0,1,4.4-2.2c3.175,0,5.6,1.949,5.6,5.873v8.074h-2.249Z" transform="translate(-4.416 -7.75)"/><path class="cls-4" d="M1129.048,322.865h-1.775v-1.874h1.775v-3.449h2.275v3.449h3.574v1.874h-3.574v8.073c0,1.35.5,1.825,1.9,1.825h1.675v1.925h-2.05c-2.425,0-3.8-1-3.8-3.75Z" transform="translate(-4.416 -7.75)"/><path class="cls-4" d="M1143.621,334.913c-3.874,0-6.823-2.75-6.823-7.1a6.924,6.924,0,1,1,13.846,0A6.792,6.792,0,0,1,1143.621,334.913Zm0-2c2.374,0,4.7-1.625,4.7-5.1,0-3.449-2.275-5.074-4.624-5.074-2.4,0-4.574,1.625-4.574,5.074C1139.122,331.288,1141.246,332.913,1143.621,332.913Z" transform="translate(-4.416 -7.75)"/><path class="cls-4" d="M1154.372,334.837a1.55,1.55,0,1,1,1.5-1.549A1.525,1.525,0,0,1,1154.372,334.837Z" transform="translate(-4.416 -7.75)"/></g><rect class="cls-1" y="171.25" width="1272" height="80.5" rx="14.375"/><rect class="cls-5" x="2" y="193.25" width="1268" height="76.5" rx="12.375"/><path class="cls-1" d="M1262.041,279.5H18.791A14.392,14.392,0,0,1,4.416,265.125v-51.75A14.392,14.392,0,0,1,18.791,199h1243.25a14.391,14.391,0,0,1,14.375,14.375v51.75A14.391,14.391,0,0,1,1262.041,279.5ZM18.791,203A10.387,10.387,0,0,0,8.416,213.375v51.75A10.387,10.387,0,0,0,18.791,275.5h1243.25a10.386,10.386,0,0,0,10.375-10.375v-51.75A10.386,10.386,0,0,0,1262.041,203Z" transform="translate(-4.416 -7.75)"/><g class="cls-3"><path class="cls-4" d="M58.4,216.767h2.45l6.4,14.3,6.4-14.3h2.424v17.3H73.793v-12.9l-5.749,12.9h-1.6l-5.774-12.921v12.921H58.4Z" transform="translate(-4.416 -7.75)"/><path class="cls-4" d="M85.57,220.141a5.684,5.684,0,0,1,5.1,2.724v-2.5h2.3v13.7h-2.3v-2.549a5.72,5.72,0,0,1-5.124,2.775c-3.649,0-6.473-2.875-6.473-7.124C79.072,222.89,81.9,220.141,85.57,220.141Zm.45,1.974c-2.5,0-4.624,1.825-4.624,5.049s2.124,5.124,4.624,5.124,4.649-1.874,4.649-5.1C90.669,224.015,88.519,222.115,86.02,222.115Z" transform="translate(-4.416 -7.75)"/><path class="cls-4" d="M97.321,222.24H95.547v-1.874h1.774v-3.449H99.6v3.449h3.575v1.874H99.6v8.073c0,1.35.5,1.825,1.9,1.825h1.675v1.924h-2.05c-2.424,0-3.8-1-3.8-3.749Z" transform="translate(-4.416 -7.75)"/><path class="cls-4" d="M108.2,234.062h-2.275v-13.7H108.2v2.224a4.611,4.611,0,0,1,4.424-2.474v2.349h-.6c-2.175,0-3.824.975-3.824,4.149Z" transform="translate(-4.416 -7.75)"/><path class="cls-4" d="M114.871,216.592a1.525,1.525,0,1,1,1.55,1.55A1.526,1.526,0,0,1,114.871,216.592Zm.375,3.774h2.275v13.7h-2.275Z" transform="translate(-4.416 -7.75)"/><path class="cls-4" d="M127.219,220.141c3.4,0,5.624,1.75,6.324,4.624h-2.449a3.732,3.732,0,0,0-3.875-2.7c-2.5,0-4.349,1.775-4.349,5.124,0,3.4,1.85,5.174,4.349,5.174a3.676,3.676,0,0,0,3.875-2.7h2.449a6.093,6.093,0,0,1-6.324,4.624c-3.9,0-6.673-2.75-6.673-7.1C120.546,222.89,123.321,220.141,127.219,220.141Z" transform="translate(-4.416 -7.75)"/><path class="cls-4" d="M136.2,216.592a1.525,1.525,0,1,1,1.549,1.55A1.526,1.526,0,0,1,136.2,216.592Zm.375,3.774h2.274v13.7h-2.274Z" transform="translate(-4.416 -7.75)"/><path class="cls-4" d="M148.369,220.141a5.683,5.683,0,0,1,5.1,2.724v-2.5h2.3v13.7h-2.3v-2.549a5.72,5.72,0,0,1-5.124,2.775c-3.649,0-6.473-2.875-6.473-7.124C141.871,222.89,144.7,220.141,148.369,220.141Zm.45,1.974c-2.5,0-4.623,1.825-4.623,5.049s2.124,5.124,4.623,5.124,4.649-1.874,4.649-5.1C153.468,224.015,151.319,222.115,148.819,222.115Z" transform="translate(-4.416 -7.75)"/><path class="cls-4" d="M179.391,226.314c0-2.8-1.5-4.224-3.749-4.224-2.3,0-3.874,1.475-3.874,4.424v7.548h-2.25v-7.748c0-2.8-1.5-4.224-3.749-4.224-2.3,0-3.874,1.475-3.874,4.424v7.548H159.62v-13.7H161.9v1.974a4.952,4.952,0,0,1,4.324-2.224,5.154,5.154,0,0,1,5.024,3.049,5.069,5.069,0,0,1,4.849-3.049c3.124,0,5.548,1.949,5.548,5.873v8.073h-2.249Z" transform="translate(-4.416 -7.75)"/><path class="cls-4" d="M191.294,234.288c-3.9,0-6.773-2.75-6.773-7.1,0-4.324,2.774-7.048,6.773-7.048a6.278,6.278,0,0,1,6.573,6.548,12.335,12.335,0,0,1-.074,1.375H186.845a4.306,4.306,0,0,0,4.449,4.3,3.764,3.764,0,0,0,3.849-2.525h2.45A6.16,6.16,0,0,1,191.294,234.288Zm-4.424-8.074h8.648a4.019,4.019,0,0,0-4.324-4.149A4.242,4.242,0,0,0,186.87,226.214Z" transform="translate(-4.416 -7.75)"/><path class="cls-4" d="M210.893,226.314c0-2.8-1.525-4.224-3.824-4.224-2.325,0-3.924,1.45-3.924,4.4v7.573H200.87v-13.7h2.275v1.949a5.062,5.062,0,0,1,4.4-2.2c3.174,0,5.6,1.949,5.6,5.873v8.073h-2.25Z" transform="translate(-4.416 -7.75)"/><path class="cls-4" d="M217.37,222.24H215.6v-1.874h1.774v-3.449h2.275v3.449h3.574v1.874h-3.574v8.073c0,1.35.5,1.825,1.9,1.825h1.675v1.924H221.17c-2.425,0-3.8-1-3.8-3.749Z" transform="translate(-4.416 -7.75)"/><path class="cls-4" d="M231.944,234.288c-3.874,0-6.823-2.75-6.823-7.1a6.925,6.925,0,1,1,13.847,0A6.792,6.792,0,0,1,231.944,234.288Zm0-2c2.375,0,4.7-1.625,4.7-5.1,0-3.449-2.275-5.074-4.624-5.074-2.4,0-4.573,1.625-4.573,5.074C227.446,230.663,229.57,232.288,231.944,232.288Z" transform="translate(-4.416 -7.75)"/><path class="cls-4" d="M254.469,220.141c3.4,0,5.624,1.75,6.324,4.624h-2.45a3.732,3.732,0,0,0-3.874-2.7c-2.5,0-4.349,1.775-4.349,5.124,0,3.4,1.849,5.174,4.349,5.174a3.675,3.675,0,0,0,3.874-2.7h2.45a6.094,6.094,0,0,1-6.324,4.624c-3.9,0-6.673-2.75-6.673-7.1C247.8,222.89,250.57,220.141,254.469,220.141Z" transform="translate(-4.416 -7.75)"/><path class="cls-4" d="M269.794,234.288c-3.874,0-6.824-2.75-6.824-7.1a6.925,6.925,0,1,1,13.847,0A6.792,6.792,0,0,1,269.794,234.288Zm0-2c2.374,0,4.7-1.625,4.7-5.1,0-3.449-2.274-5.074-4.623-5.074-2.4,0-4.574,1.625-4.574,5.074C265.3,230.663,267.419,232.288,269.794,232.288Z" transform="translate(-4.416 -7.75)"/><path class="cls-4" d="M289.843,226.314c0-2.8-1.525-4.224-3.824-4.224-2.324,0-3.924,1.45-3.924,4.4v7.573H279.82v-13.7H282.1v1.949a5.059,5.059,0,0,1,4.4-2.2c3.175,0,5.6,1.949,5.6,5.873v8.073h-2.249Z" transform="translate(-4.416 -7.75)"/><path class="cls-4" d="M301.494,220.141a5.976,5.976,0,0,1,5.074,2.674v-7.248h2.3v18.5h-2.3v-2.574a5.625,5.625,0,0,1-5.1,2.8c-3.674,0-6.5-2.875-6.5-7.124C294.97,222.89,297.8,220.141,301.494,220.141Zm.425,1.974c-2.5,0-4.624,1.825-4.624,5.049s2.124,5.124,4.624,5.124,4.649-1.874,4.649-5.1C306.568,224.015,304.418,222.115,301.919,222.115Z" transform="translate(-4.416 -7.75)"/><path class="cls-4" d="M324.867,234.062h-2.274v-2.024a5.036,5.036,0,0,1-4.374,2.225c-3.149,0-5.624-1.95-5.624-5.874v-8.023h2.249v7.723c0,2.774,1.525,4.2,3.825,4.2,2.349,0,3.924-1.45,3.924-4.4v-7.523h2.274Z" transform="translate(-4.416 -7.75)"/><path class="cls-4" d="M337.093,222.215l-6.673,9.973h6.723v1.874h-9.322v-1.874l6.648-9.973h-6.6v-1.849h9.223Z" transform="translate(-4.416 -7.75)"/><path class="cls-4" d="M339.72,216.592a1.525,1.525,0,1,1,1.549,1.55A1.526,1.526,0,0,1,339.72,216.592Zm.374,3.774h2.275v13.7h-2.275Z" transform="translate(-4.416 -7.75)"/><path class="cls-4" d="M351.918,220.141a5.975,5.975,0,0,1,5.074,2.674v-7.248h2.3v18.5h-2.3v-2.574a5.625,5.625,0,0,1-5.1,2.8c-3.674,0-6.5-2.875-6.5-7.124C345.4,222.89,348.219,220.141,351.918,220.141Zm.425,1.974c-2.5,0-4.624,1.825-4.624,5.049s2.125,5.124,4.624,5.124,4.649-1.874,4.649-5.1C356.992,224.015,354.843,222.115,352.343,222.115Z" transform="translate(-4.416 -7.75)"/><path class="cls-4" d="M369.118,234.288c-3.874,0-6.823-2.75-6.823-7.1a6.924,6.924,0,1,1,13.846,0A6.792,6.792,0,0,1,369.118,234.288Zm0-2c2.374,0,4.7-1.625,4.7-5.1,0-3.449-2.275-5.074-4.624-5.074-2.4,0-4.574,1.625-4.574,5.074C364.619,230.663,366.743,232.288,369.118,232.288Z" transform="translate(-4.416 -7.75)"/><path class="cls-4" d="M393.218,220.141c3.674,0,6.5,2.749,6.5,7.023,0,4.249-2.824,7.124-6.5,7.124a5.924,5.924,0,0,1-5.124-2.75v9.023h-2.275V220.366h2.275v2.524A5.785,5.785,0,0,1,393.218,220.141Zm-.476,1.974c-2.474,0-4.648,1.9-4.648,5.074,0,3.225,2.174,5.1,4.648,5.1,2.525,0,4.649-1.9,4.649-5.124S395.267,222.115,392.742,222.115Z" transform="translate(-4.416 -7.75)"/><path class="cls-4" d="M408.643,234.288c-3.9,0-6.774-2.75-6.774-7.1,0-4.324,2.775-7.048,6.774-7.048a6.278,6.278,0,0,1,6.573,6.548,12.332,12.332,0,0,1-.075,1.375H404.194a4.306,4.306,0,0,0,4.449,4.3,3.765,3.765,0,0,0,3.849-2.525h2.449A6.159,6.159,0,0,1,408.643,234.288Zm-4.424-8.074h8.648a4.019,4.019,0,0,0-4.324-4.149A4.242,4.242,0,0,0,404.219,226.214Z" transform="translate(-4.416 -7.75)"/><path class="cls-4" d="M418.219,215.567h2.274v18.5h-2.274Z" transform="translate(-4.416 -7.75)"/><path class="cls-4" d="M430.343,234.288c-3.874,0-6.824-2.75-6.824-7.1a6.925,6.925,0,1,1,13.847,0A6.792,6.792,0,0,1,430.343,234.288Zm0-2c2.374,0,4.7-1.625,4.7-5.1,0-3.449-2.274-5.074-4.623-5.074-2.4,0-4.574,1.625-4.574,5.074C425.844,230.663,427.968,232.288,430.343,232.288Z" transform="translate(-4.416 -7.75)"/><path class="cls-4" d="M452.867,220.141c3.4,0,5.624,1.75,6.324,4.624h-2.45a3.73,3.73,0,0,0-3.874-2.7c-2.5,0-4.348,1.775-4.348,5.124,0,3.4,1.849,5.174,4.348,5.174a3.674,3.674,0,0,0,3.874-2.7h2.45a6.093,6.093,0,0,1-6.324,4.624c-3.9,0-6.673-2.75-6.673-7.1C446.194,222.89,448.969,220.141,452.867,220.141Z" transform="translate(-4.416 -7.75)"/><path class="cls-4" d="M461.844,216.592a1.525,1.525,0,1,1,1.549,1.55A1.526,1.526,0,0,1,461.844,216.592Zm.375,3.774h2.274v13.7h-2.274Z" transform="translate(-4.416 -7.75)"/><path class="cls-4" d="M470.643,234.062h-2.275v-13.7h2.275v2.224a4.612,4.612,0,0,1,4.424-2.474v2.349h-.6c-2.174,0-3.824.975-3.824,4.149Z" transform="translate(-4.416 -7.75)"/><path class="cls-4" d="M489.841,234.062h-2.275v-2.024a5.036,5.036,0,0,1-4.374,2.225c-3.149,0-5.623-1.95-5.623-5.874v-8.023h2.249v7.723c0,2.774,1.525,4.2,3.824,4.2,2.349,0,3.924-1.45,3.924-4.4v-7.523h2.275Z" transform="translate(-4.416 -7.75)"/><path class="cls-4" d="M495.968,234.062h-2.275v-13.7h2.275v2.224a4.611,4.611,0,0,1,4.424-2.474v2.349h-.6c-2.175,0-3.824.975-3.824,4.149Z" transform="translate(-4.416 -7.75)"/><path class="cls-4" d="M508.667,220.141a5.644,5.644,0,0,1,5.1,2.724v-2.5h2.3v14a6.14,6.14,0,0,1-6.549,6.449c-3.6,0-6.173-1.825-6.623-4.749h2.249c.5,1.649,2.125,2.774,4.374,2.774,2.425,0,4.249-1.549,4.249-4.474v-2.874a5.721,5.721,0,0,1-5.1,2.8c-3.675,0-6.5-2.875-6.5-7.124C502.168,222.89,504.992,220.141,508.667,220.141Zm.449,1.974c-2.5,0-4.624,1.825-4.624,5.049s2.125,5.124,4.624,5.124,4.649-1.874,4.649-5.1C513.765,224.015,511.616,222.115,509.116,222.115Z" transform="translate(-4.416 -7.75)"/><path class="cls-4" d="M519.543,216.592a1.525,1.525,0,1,1,1.55,1.55A1.526,1.526,0,0,1,519.543,216.592Zm.375,3.774h2.275v13.7h-2.275Z" transform="translate(-4.416 -7.75)"/><path class="cls-4" d="M531.717,220.141a5.683,5.683,0,0,1,5.1,2.724v-2.5h2.3v13.7h-2.3v-2.549a5.719,5.719,0,0,1-5.123,2.775c-3.65,0-6.474-2.875-6.474-7.124C525.218,222.89,528.042,220.141,531.717,220.141Zm.449,1.974c-2.5,0-4.624,1.825-4.624,5.049s2.125,5.124,4.624,5.124,4.649-1.874,4.649-5.1C536.815,224.015,534.666,222.115,532.166,222.115Zm-.724-5.848c1.324,0,1.824,1.15,2.849,1.15a1.1,1.1,0,0,0,1.1-1.075h1.3c-.2,1.7-1.2,2.6-2.5,2.6-1.35,0-1.85-1.149-2.849-1.149-.55,0-.975.35-1.075,1.1h-1.325C529.192,217.167,530.142,216.267,531.442,216.267Z" transform="translate(-4.416 -7.75)"/><path class="cls-4" d="M548.941,234.288c-3.874,0-6.823-2.75-6.823-7.1a6.925,6.925,0,1,1,13.847,0A6.792,6.792,0,0,1,548.941,234.288Zm0-2c2.375,0,4.7-1.625,4.7-5.1,0-3.449-2.275-5.074-4.624-5.074-2.4,0-4.573,1.625-4.573,5.074C544.443,230.663,546.567,232.288,548.941,232.288Z" transform="translate(-4.416 -7.75)"/><path class="cls-4" d="M558.493,223.94h9.973v1.924h-9.973Z" transform="translate(-4.416 -7.75)"/><path class="cls-4" d="M578.416,220.141a5.975,5.975,0,0,1,5.074,2.674v-7.248h2.3v18.5h-2.3v-2.574a5.625,5.625,0,0,1-5.1,2.8c-3.674,0-6.5-2.875-6.5-7.124C571.893,222.89,574.717,220.141,578.416,220.141Zm.425,1.974c-2.5,0-4.624,1.825-4.624,5.049s2.125,5.124,4.624,5.124,4.649-1.874,4.649-5.1C583.49,224.015,581.341,222.115,578.841,222.115Z" transform="translate(-4.416 -7.75)"/><path class="cls-4" d="M595.566,234.288c-3.9,0-6.773-2.75-6.773-7.1,0-4.324,2.774-7.048,6.773-7.048a6.278,6.278,0,0,1,6.573,6.548,12.335,12.335,0,0,1-.074,1.375H591.117a4.306,4.306,0,0,0,4.449,4.3,3.765,3.765,0,0,0,3.849-2.525h2.45A6.16,6.16,0,0,1,595.566,234.288Zm-4.424-8.074h8.648a4.019,4.019,0,0,0-4.324-4.149A4.242,4.242,0,0,0,591.142,226.214Z" transform="translate(-4.416 -7.75)"/><path class="cls-4" d="M615.165,226.314c0-2.8-1.525-4.224-3.824-4.224-2.324,0-3.924,1.45-3.924,4.4v7.573h-2.275v-13.7h2.275v1.949a5.062,5.062,0,0,1,4.4-2.2c3.174,0,5.6,1.949,5.6,5.873v8.073h-2.249Z" transform="translate(-4.416 -7.75)"/><path class="cls-4" d="M621.642,222.24h-1.774v-1.874h1.774v-3.449h2.275v3.449h3.574v1.874h-3.574v8.073c0,1.35.5,1.825,1.9,1.825h1.674v1.924h-2.049c-2.425,0-3.8-1-3.8-3.749Z" transform="translate(-4.416 -7.75)"/><path class="cls-4" d="M629.868,216.592a1.525,1.525,0,1,1,1.549,1.55A1.526,1.526,0,0,1,629.868,216.592Zm.374,3.774h2.275v13.7h-2.275Z" transform="translate(-4.416 -7.75)"/><path class="cls-4" d="M641.241,234.288c-3.2,0-5.448-1.75-5.6-4.249h2.349c.125,1.324,1.3,2.324,3.225,2.324,1.8,0,2.8-.9,2.8-2.025,0-3.049-8.1-1.275-8.1-6.373,0-2.1,1.974-3.824,5.024-3.824,3.024,0,5.023,1.625,5.173,4.3h-2.274c-.1-1.375-1.15-2.375-2.975-2.375-1.674,0-2.674.8-2.674,1.9,0,3.249,7.948,1.474,8.048,6.373C646.24,232.588,644.266,234.288,641.241,234.288Z" transform="translate(-4.416 -7.75)"/><path class="cls-4" d="M649.942,222.24h-1.774v-1.874h1.774v-3.449h2.275v3.449h3.574v1.874h-3.574v8.073c0,1.35.5,1.825,1.9,1.825h1.675v1.924h-2.05c-2.424,0-3.8-1-3.8-3.749Z" transform="translate(-4.416 -7.75)"/><path class="cls-4" d="M664.191,220.141a5.684,5.684,0,0,1,5.1,2.724v-2.5h2.3v13.7h-2.3v-2.549a5.72,5.72,0,0,1-5.124,2.775c-3.649,0-6.473-2.875-6.473-7.124C657.693,222.89,660.517,220.141,664.191,220.141Zm.45,1.974c-2.5,0-4.624,1.825-4.624,5.049s2.124,5.124,4.624,5.124,4.649-1.874,4.649-5.1C669.29,224.015,667.14,222.115,664.641,222.115Z" transform="translate(-4.416 -7.75)"/><path class="cls-4" d="M689.515,220.141c3.675,0,6.5,2.749,6.5,7.023,0,4.249-2.824,7.124-6.5,7.124a5.922,5.922,0,0,1-5.123-2.75v9.023h-2.275V220.366h2.275v2.524A5.784,5.784,0,0,1,689.515,220.141Zm-.475,1.974c-2.474,0-4.648,1.9-4.648,5.074,0,3.225,2.174,5.1,4.648,5.1,2.525,0,4.649-1.9,4.649-5.124S691.565,222.115,689.04,222.115Z" transform="translate(-4.416 -7.75)"/><path class="cls-4" d="M704.666,220.141a5.681,5.681,0,0,1,5.1,2.724v-2.5h2.3v13.7h-2.3v-2.549a5.718,5.718,0,0,1-5.123,2.775c-3.65,0-6.474-2.875-6.474-7.124C698.167,222.89,700.991,220.141,704.666,220.141Zm.449,1.974c-2.5,0-4.624,1.825-4.624,5.049s2.125,5.124,4.624,5.124,4.649-1.874,4.649-5.1C709.764,224.015,707.615,222.115,705.115,222.115Z" transform="translate(-4.416 -7.75)"/><path class="cls-4" d="M718.192,234.062h-2.275v-13.7h2.275v2.224a4.61,4.61,0,0,1,4.423-2.474v2.349h-.6c-2.174,0-3.823.975-3.823,4.149Z" transform="translate(-4.416 -7.75)"/><path class="cls-4" d="M730.89,220.141a5.683,5.683,0,0,1,5.1,2.724v-2.5h2.3v13.7h-2.3v-2.549a5.72,5.72,0,0,1-5.124,2.775c-3.649,0-6.473-2.875-6.473-7.124C724.392,222.89,727.216,220.141,730.89,220.141Zm.45,1.974c-2.5,0-4.624,1.825-4.624,5.049s2.125,5.124,4.624,5.124,4.649-1.874,4.649-5.1C735.989,224.015,733.84,222.115,731.34,222.115Z" transform="translate(-4.416 -7.75)"/><path class="cls-4" d="M754.465,220.141a5.684,5.684,0,0,1,5.1,2.724v-2.5h2.3v13.7h-2.3v-2.549a5.72,5.72,0,0,1-5.124,2.775c-3.649,0-6.473-2.875-6.473-7.124C747.967,222.89,750.791,220.141,754.465,220.141Zm.45,1.974c-2.5,0-4.624,1.825-4.624,5.049s2.124,5.124,4.624,5.124,4.649-1.874,4.649-5.1C759.564,224.015,757.414,222.115,754.915,222.115Z" transform="translate(-4.416 -7.75)"/><path class="cls-4" d="M771.54,220.141c3.4,0,5.623,1.75,6.324,4.624h-2.45a3.732,3.732,0,0,0-3.874-2.7c-2.5,0-4.349,1.775-4.349,5.124,0,3.4,1.849,5.174,4.349,5.174a3.675,3.675,0,0,0,3.874-2.7h2.45a6.1,6.1,0,0,1-6.324,4.624c-3.9,0-6.674-2.75-6.674-7.1C764.866,222.89,767.641,220.141,771.54,220.141Z" transform="translate(-4.416 -7.75)"/><path class="cls-4" d="M786.865,234.288c-3.875,0-6.824-2.75-6.824-7.1a6.925,6.925,0,1,1,13.847,0A6.792,6.792,0,0,1,786.865,234.288Zm0-2c2.374,0,4.7-1.625,4.7-5.1,0-3.449-2.275-5.074-4.624-5.074-2.4,0-4.575,1.625-4.575,5.074C782.365,230.663,784.49,232.288,786.865,232.288Z" transform="translate(-4.416 -7.75)"/><path class="cls-4" d="M796.891,215.567h2.274v18.5h-2.274Z" transform="translate(-4.416 -7.75)"/><path class="cls-4" d="M803.041,215.567h2.275v6.773a5.153,5.153,0,0,1,4.523-2.224c3.049,0,5.474,1.949,5.474,5.873v8.073h-2.249v-7.748c0-2.8-1.525-4.224-3.824-4.224-2.325,0-3.924,1.45-3.924,4.4v7.573h-2.275Z" transform="translate(-4.416 -7.75)"/><path class="cls-4" d="M824.965,234.288c-3.9,0-6.774-2.75-6.774-7.1,0-4.324,2.775-7.048,6.774-7.048a6.278,6.278,0,0,1,6.573,6.548,12.332,12.332,0,0,1-.075,1.375H820.516a4.306,4.306,0,0,0,4.449,4.3,3.765,3.765,0,0,0,3.849-2.525h2.449A6.159,6.159,0,0,1,824.965,234.288Zm-4.424-8.074h8.648a4.019,4.019,0,0,0-4.324-4.149A4.242,4.242,0,0,0,820.541,226.214Z" transform="translate(-4.416 -7.75)"/><path class="cls-4" d="M836.816,234.062h-2.275v-13.7h2.275v2.224a4.611,4.611,0,0,1,4.424-2.474v2.349h-.6c-2.174,0-3.823.975-3.823,4.149Z" transform="translate(-4.416 -7.75)"/><path class="cls-4" d="M856.189,220.141a5.683,5.683,0,0,1,5.1,2.724v-2.5h2.3v13.7h-2.3v-2.549a5.72,5.72,0,0,1-5.124,2.775c-3.649,0-6.473-2.875-6.473-7.124C849.691,222.89,852.515,220.141,856.189,220.141Zm.45,1.974c-2.5,0-4.624,1.825-4.624,5.049s2.124,5.124,4.624,5.124,4.649-1.874,4.649-5.1C861.288,224.015,859.138,222.115,856.639,222.115Z" transform="translate(-4.416 -7.75)"/><path class="cls-4" d="M872.289,234.288c-3.2,0-5.449-1.75-5.6-4.249h2.349c.125,1.324,1.3,2.324,3.224,2.324,1.8,0,2.8-.9,2.8-2.025,0-3.049-8.1-1.275-8.1-6.373,0-2.1,1.975-3.824,5.025-3.824,3.024,0,5.023,1.625,5.173,4.3h-2.274c-.1-1.375-1.15-2.375-2.975-2.375-1.674,0-2.674.8-2.674,1.9,0,3.249,7.948,1.474,8.048,6.373C877.288,232.588,875.314,234.288,872.289,234.288Z" transform="translate(-4.416 -7.75)"/><path class="cls-4" d="M892.838,220.141a5.973,5.973,0,0,1,5.074,2.674v-7.248h2.3v18.5h-2.3v-2.574a5.625,5.625,0,0,1-5.1,2.8c-3.674,0-6.5-2.875-6.5-7.124C886.316,222.89,889.14,220.141,892.838,220.141Zm.426,1.974c-2.5,0-4.624,1.825-4.624,5.049s2.124,5.124,4.624,5.124,4.648-1.874,4.648-5.1C897.912,224.015,895.763,222.115,893.264,222.115Z" transform="translate(-4.416 -7.75)"/><path class="cls-4" d="M909.988,234.288c-3.9,0-6.773-2.75-6.773-7.1,0-4.324,2.774-7.048,6.773-7.048a6.279,6.279,0,0,1,6.574,6.548,12.577,12.577,0,0,1-.075,1.375H905.539a4.306,4.306,0,0,0,4.449,4.3,3.765,3.765,0,0,0,3.849-2.525h2.449A6.159,6.159,0,0,1,909.988,234.288Zm-4.424-8.074h8.648a4.019,4.019,0,0,0-4.324-4.149A4.242,4.242,0,0,0,905.564,226.214Z" transform="translate(-4.416 -7.75)"/><path class="cls-4" d="M939.334,226.314c0-2.8-1.5-4.224-3.749-4.224-2.3,0-3.874,1.475-3.874,4.424v7.548h-2.249v-7.748c0-2.8-1.5-4.224-3.749-4.224-2.3,0-3.874,1.475-3.874,4.424v7.548h-2.274v-13.7h2.274v1.974a4.953,4.953,0,0,1,4.323-2.224,5.156,5.156,0,0,1,5.025,3.049,5.069,5.069,0,0,1,4.848-3.049c3.124,0,5.549,1.949,5.549,5.873v8.073h-2.25Z" transform="translate(-4.416 -7.75)"/><path class="cls-4" d="M950.963,220.141a5.684,5.684,0,0,1,5.1,2.724v-2.5h2.3v13.7h-2.3v-2.549a5.721,5.721,0,0,1-5.124,2.775c-3.649,0-6.473-2.875-6.473-7.124C944.465,222.89,947.289,220.141,950.963,220.141Zm.45,1.974c-2.5,0-4.624,1.825-4.624,5.049s2.124,5.124,4.624,5.124,4.649-1.874,4.649-5.1C956.062,224.015,953.912,222.115,951.413,222.115Z" transform="translate(-4.416 -7.75)"/><path class="cls-4" d="M972.237,226.314c0-2.8-1.525-4.224-3.825-4.224-2.324,0-3.923,1.45-3.923,4.4v7.573h-2.275v-13.7h2.275v1.949a5.058,5.058,0,0,1,4.4-2.2c3.175,0,5.6,1.949,5.6,5.873v8.073h-2.249Z" transform="translate(-4.416 -7.75)"/><path class="cls-4" d="M983.887,220.141a5.975,5.975,0,0,1,5.074,2.674v-7.248h2.3v18.5h-2.3v-2.574a5.625,5.625,0,0,1-5.1,2.8c-3.674,0-6.5-2.875-6.5-7.124C977.365,222.89,980.189,220.141,983.887,220.141Zm.426,1.974c-2.5,0-4.624,1.825-4.624,5.049s2.124,5.124,4.624,5.124,4.648-1.874,4.648-5.1C988.961,224.015,986.812,222.115,984.313,222.115Z" transform="translate(-4.416 -7.75)"/><path class="cls-4" d="M1000.762,220.141a5.684,5.684,0,0,1,5.1,2.724v-2.5h2.3v13.7h-2.3v-2.549a5.722,5.722,0,0,1-5.124,2.775c-3.649,0-6.473-2.875-6.473-7.124C994.264,222.89,997.088,220.141,1000.762,220.141Zm.45,1.974c-2.5,0-4.624,1.825-4.624,5.049s2.124,5.124,4.624,5.124,4.649-1.874,4.649-5.1C1005.861,224.015,1003.711,222.115,1001.212,222.115Z" transform="translate(-4.416 -7.75)"/><path class="cls-4" d="M1016.862,234.288c-3.2,0-5.45-1.75-5.6-4.249h2.35c.125,1.324,1.3,2.324,3.223,2.324,1.8,0,2.8-.9,2.8-2.025,0-3.049-8.1-1.275-8.1-6.373,0-2.1,1.975-3.824,5.025-3.824,3.024,0,5.023,1.625,5.174,4.3h-2.275c-.1-1.375-1.15-2.375-2.974-2.375-1.675,0-2.675.8-2.675,1.9,0,3.249,7.948,1.474,8.049,6.373C1021.861,232.588,1019.886,234.288,1016.862,234.288Z" transform="translate(-4.416 -7.75)"/><path class="cls-4" d="M1037.41,220.141a5.976,5.976,0,0,1,5.075,2.674v-7.248h2.3v18.5h-2.3v-2.574a5.627,5.627,0,0,1-5.1,2.8c-3.674,0-6.5-2.875-6.5-7.124C1030.888,222.89,1033.712,220.141,1037.41,220.141Zm.426,1.974c-2.5,0-4.624,1.825-4.624,5.049s2.124,5.124,4.624,5.124,4.649-1.874,4.649-5.1C1042.485,224.015,1040.335,222.115,1037.836,222.115Z" transform="translate(-4.416 -7.75)"/><path class="cls-4" d="M1054.56,234.288c-3.9,0-6.773-2.75-6.773-7.1,0-4.324,2.774-7.048,6.773-7.048a6.279,6.279,0,0,1,6.574,6.548,12.332,12.332,0,0,1-.075,1.375h-10.947a4.3,4.3,0,0,0,4.448,4.3,3.764,3.764,0,0,0,3.849-2.525h2.45A6.161,6.161,0,0,1,1054.56,234.288Zm-4.424-8.074h8.648a4.019,4.019,0,0,0-4.324-4.149A4.242,4.242,0,0,0,1050.136,226.214Z" transform="translate(-4.416 -7.75)"/><path class="cls-4" d="M1075.66,234.288c-3.2,0-5.449-1.75-5.6-4.249h2.349c.125,1.324,1.3,2.324,3.224,2.324,1.8,0,2.8-.9,2.8-2.025,0-3.049-8.1-1.275-8.1-6.373,0-2.1,1.975-3.824,5.025-3.824,3.024,0,5.023,1.625,5.173,4.3h-2.274c-.1-1.375-1.15-2.375-2.975-2.375-1.674,0-2.674.8-2.674,1.9,0,3.249,7.948,1.474,8.048,6.373C1080.659,232.588,1078.685,234.288,1075.66,234.288Z" transform="translate(-4.416 -7.75)"/><path class="cls-4" d="M1089.51,220.141a5.684,5.684,0,0,1,5.1,2.724v-2.5h2.3v13.7h-2.3v-2.549a5.722,5.722,0,0,1-5.124,2.775c-3.649,0-6.473-2.875-6.473-7.124C1083.012,222.89,1085.836,220.141,1089.51,220.141Zm.45,1.974c-2.5,0-4.624,1.825-4.624,5.049s2.124,5.124,4.624,5.124,4.649-1.874,4.649-5.1C1094.609,224.015,1092.459,222.115,1089.96,222.115Z" transform="translate(-4.416 -7.75)"/><path class="cls-4" d="M1112.907,234.062h-2.274v-2.024a5.035,5.035,0,0,1-4.374,2.225c-3.148,0-5.623-1.95-5.623-5.874v-8.023h2.249v7.723c0,2.774,1.524,4.2,3.824,4.2,2.35,0,3.924-1.45,3.924-4.4v-7.523h2.274Zm-3.624-19.545v1.975l-5.323,2.849v-1.7Z" transform="translate(-4.416 -7.75)"/><path class="cls-4" d="M1122.434,220.141a5.975,5.975,0,0,1,5.074,2.674v-7.248h2.3v18.5h-2.3v-2.574a5.626,5.626,0,0,1-5.1,2.8c-3.673,0-6.5-2.875-6.5-7.124C1115.911,222.89,1118.736,220.141,1122.434,220.141Zm.426,1.974c-2.5,0-4.624,1.825-4.624,5.049s2.124,5.124,4.624,5.124,4.648-1.874,4.648-5.1C1127.508,224.015,1125.359,222.115,1122.86,222.115Z" transform="translate(-4.416 -7.75)"/><path class="cls-4" d="M1139.583,234.288c-3.9,0-6.772-2.75-6.772-7.1,0-4.324,2.773-7.048,6.772-7.048a6.278,6.278,0,0,1,6.574,6.548,12.332,12.332,0,0,1-.075,1.375h-10.947a4.305,4.305,0,0,0,4.448,4.3,3.765,3.765,0,0,0,3.85-2.525h2.449A6.159,6.159,0,0,1,1139.583,234.288Zm-4.424-8.074h8.649a4.02,4.02,0,0,0-4.324-4.149A4.243,4.243,0,0,0,1135.159,226.214Z" transform="translate(-4.416 -7.75)"/><path class="cls-4" d="M1163.233,220.141c3.7,0,6.5,2.749,6.5,7.023,0,4.249-2.825,7.124-6.5,7.124a5.713,5.713,0,0,1-5.123-2.75v2.524h-2.275v-18.5h2.275v7.348A5.8,5.8,0,0,1,1163.233,220.141Zm-.475,1.974c-2.475,0-4.648,1.9-4.648,5.074,0,3.225,2.173,5.1,4.648,5.1,2.524,0,4.649-1.9,4.649-5.124S1165.282,222.115,1162.758,222.115Z" transform="translate(-4.416 -7.75)"/><path class="cls-4" d="M1184.881,234.062h-2.274v-2.024a5.035,5.035,0,0,1-4.374,2.225c-3.149,0-5.623-1.95-5.623-5.874v-8.023h2.249v7.723c0,2.774,1.524,4.2,3.824,4.2,2.349,0,3.924-1.45,3.924-4.4v-7.523h2.274Z" transform="translate(-4.416 -7.75)"/><path class="cls-4" d="M1194.558,220.141c3.4,0,5.624,1.75,6.323,4.624h-2.449a3.732,3.732,0,0,0-3.874-2.7c-2.5,0-4.349,1.775-4.349,5.124,0,3.4,1.85,5.174,4.349,5.174a3.675,3.675,0,0,0,3.874-2.7h2.449a6.092,6.092,0,0,1-6.323,4.624c-3.9,0-6.673-2.75-6.673-7.1C1187.885,222.89,1190.658,220.141,1194.558,220.141Z" transform="translate(-4.416 -7.75)"/><path class="cls-4" d="M1209.558,220.141a5.681,5.681,0,0,1,5.1,2.724v-2.5h2.3v13.7h-2.3v-2.549a5.72,5.72,0,0,1-5.124,2.775c-3.648,0-6.472-2.875-6.472-7.124C1203.06,222.89,1205.884,220.141,1209.558,220.141Zm.45,1.974c-2.5,0-4.624,1.825-4.624,5.049s2.124,5.124,4.624,5.124,4.648-1.874,4.648-5.1C1214.656,224.015,1212.507,222.115,1210.008,222.115Z" transform="translate(-4.416 -7.75)"/><path class="cls-4" d="M1220.809,215.567h2.274v18.5h-2.274Z" transform="translate(-4.416 -7.75)"/><path class="cls-4" d="M1226.808,230.913h2.5l-2.8,6.724h-1.524Z" transform="translate(-4.416 -7.75)"/><path class="cls-4" d="M297.593,250.141c3.4,0,5.624,1.75,6.324,4.624h-2.45a3.732,3.732,0,0,0-3.874-2.7c-2.5,0-4.349,1.775-4.349,5.124,0,3.4,1.85,5.174,4.349,5.174a3.675,3.675,0,0,0,3.874-2.7h2.45a6.094,6.094,0,0,1-6.324,4.624c-3.9,0-6.673-2.75-6.673-7.1C290.92,252.89,293.694,250.141,297.593,250.141Z" transform="translate(-4.416 -7.75)"/><path class="cls-4" d="M312.918,264.288c-3.874,0-6.824-2.75-6.824-7.1a6.925,6.925,0,1,1,13.847,0A6.792,6.792,0,0,1,312.918,264.288Zm0-2c2.374,0,4.7-1.625,4.7-5.1,0-3.449-2.274-5.074-4.623-5.074-2.4,0-4.574,1.625-4.574,5.074C308.419,260.663,310.543,262.288,312.918,262.288Z" transform="translate(-4.416 -7.75)"/><path class="cls-4" d="M342.715,256.314c0-2.8-1.5-4.224-3.749-4.224-2.3,0-3.874,1.475-3.874,4.424v7.548h-2.25v-7.748c0-2.8-1.5-4.224-3.749-4.224-2.3,0-3.874,1.475-3.874,4.424v7.548h-2.275v-13.7h2.275v1.974a4.951,4.951,0,0,1,4.324-2.224,5.155,5.155,0,0,1,5.024,3.049,5.068,5.068,0,0,1,4.848-3.049c3.124,0,5.549,1.949,5.549,5.873v8.073h-2.249Z" transform="translate(-4.416 -7.75)"/><path class="cls-4" d="M362.767,250.141c3.675,0,6.5,2.749,6.5,7.023,0,4.249-2.824,7.124-6.5,7.124a5.922,5.922,0,0,1-5.123-2.75v9.023h-2.275V250.366h2.275v2.524A5.784,5.784,0,0,1,362.767,250.141Zm-.475,1.974c-2.474,0-4.648,1.9-4.648,5.074,0,3.225,2.174,5.1,4.648,5.1,2.525,0,4.649-1.9,4.649-5.124S364.817,252.115,362.292,252.115Z" transform="translate(-4.416 -7.75)"/><path class="cls-4" d="M377.918,250.141a5.681,5.681,0,0,1,5.1,2.724v-2.5h2.3v13.7h-2.3v-2.549a5.718,5.718,0,0,1-5.123,2.775c-3.65,0-6.474-2.875-6.474-7.124C371.419,252.89,374.243,250.141,377.918,250.141Zm.449,1.974c-2.5,0-4.624,1.825-4.624,5.049s2.125,5.124,4.624,5.124,4.649-1.874,4.649-5.1C383.016,254.015,380.867,252.115,378.367,252.115Z" transform="translate(-4.416 -7.75)"/><path class="cls-4" d="M391.444,264.062h-2.275v-13.7h2.275v2.224a4.61,4.61,0,0,1,4.423-2.474v2.349h-.6c-2.174,0-3.823.975-3.823,4.149Z" transform="translate(-4.416 -7.75)"/><path class="cls-4" d="M398.993,252.24h-1.774v-1.874h1.774v-3.449h2.275v3.449h3.574v1.874h-3.574v8.073c0,1.35.5,1.825,1.9,1.825h1.675v1.924h-2.049c-2.425,0-3.8-1-3.8-3.749Z" transform="translate(-4.416 -7.75)"/><path class="cls-4" d="M407.219,246.592a1.525,1.525,0,1,1,1.549,1.55A1.526,1.526,0,0,1,407.219,246.592Zm.375,3.774h2.274v13.7h-2.274Z" transform="translate(-4.416 -7.75)"/><path class="cls-4" d="M419.567,250.141c3.4,0,5.624,1.75,6.324,4.624h-2.45a3.73,3.73,0,0,0-3.874-2.7c-2.5,0-4.349,1.775-4.349,5.124,0,3.4,1.85,5.174,4.349,5.174a3.674,3.674,0,0,0,3.874-2.7h2.45a6.093,6.093,0,0,1-6.324,4.624c-3.9,0-6.673-2.75-6.673-7.1C412.894,252.89,415.668,250.141,419.567,250.141Z" transform="translate(-4.416 -7.75)"/><path class="cls-4" d="M428.544,246.592a1.525,1.525,0,1,1,1.549,1.55A1.526,1.526,0,0,1,428.544,246.592Zm.374,3.774h2.275v13.7h-2.275Z" transform="translate(-4.416 -7.75)"/><path class="cls-4" d="M442.467,250.141c3.674,0,6.5,2.749,6.5,7.023,0,4.249-2.824,7.124-6.5,7.124a5.924,5.924,0,0,1-5.124-2.75v9.023h-2.275V250.366h2.275v2.524A5.785,5.785,0,0,1,442.467,250.141Zm-.476,1.974c-2.474,0-4.648,1.9-4.648,5.074,0,3.225,2.174,5.1,4.648,5.1,2.525,0,4.649-1.9,4.649-5.124S444.516,252.115,441.991,252.115Z" transform="translate(-4.416 -7.75)"/><path class="cls-4" d="M457.617,250.141a5.684,5.684,0,0,1,5.1,2.724v-2.5h2.3v13.7h-2.3v-2.549a5.721,5.721,0,0,1-5.124,2.775c-3.649,0-6.474-2.875-6.474-7.124C451.118,252.89,453.943,250.141,457.617,250.141Zm.45,1.974c-2.5,0-4.624,1.825-4.624,5.049s2.124,5.124,4.624,5.124,4.649-1.874,4.649-5.1C462.716,254.015,460.566,252.115,458.067,252.115Z" transform="translate(-4.416 -7.75)"/><path class="cls-4" d="M474.692,250.141c3.4,0,5.623,1.75,6.323,4.624h-2.449a3.732,3.732,0,0,0-3.874-2.7c-2.5,0-4.349,1.775-4.349,5.124,0,3.4,1.849,5.174,4.349,5.174a3.675,3.675,0,0,0,3.874-2.7h2.449a6.019,6.019,0,0,1-5.624,4.6v1.249c1.925-.025,3.225.825,3.225,2.474,0,1.575-1.275,2.575-3.049,2.575h-2.875v-1.475h2.424c1.075,0,1.6-.3,1.6-1.1,0-.774-.525-1.074-1.6-1.074h-1.249v-2.675c-3.449-.349-5.849-3.024-5.849-7.048C468.018,252.89,470.793,250.141,474.692,250.141Z" transform="translate(-4.416 -7.75)"/><path class="cls-4" d="M489.692,250.141a5.683,5.683,0,0,1,5.1,2.724v-2.5h2.3v13.7h-2.3v-2.549a5.718,5.718,0,0,1-5.123,2.775c-3.65,0-6.474-2.875-6.474-7.124C483.193,252.89,486.017,250.141,489.692,250.141Zm.449,1.974c-2.5,0-4.623,1.825-4.623,5.049s2.124,5.124,4.623,5.124,4.649-1.874,4.649-5.1C494.79,254.015,492.641,252.115,490.141,252.115Zm-.724-5.848c1.324,0,1.824,1.15,2.849,1.15a1.1,1.1,0,0,0,1.1-1.075h1.3c-.2,1.7-1.2,2.6-2.5,2.6-1.35,0-1.849-1.149-2.849-1.149-.55,0-.975.35-1.075,1.1h-1.325C487.167,247.167,488.117,246.267,489.417,246.267Z" transform="translate(-4.416 -7.75)"/><path class="cls-4" d="M506.916,264.288c-3.874,0-6.823-2.75-6.823-7.1a6.925,6.925,0,1,1,13.847,0A6.792,6.792,0,0,1,506.916,264.288Zm0-2c2.375,0,4.7-1.625,4.7-5.1,0-3.449-2.274-5.074-4.624-5.074-2.4,0-4.574,1.625-4.574,5.074C502.417,260.663,504.542,262.288,506.916,262.288Z" transform="translate(-4.416 -7.75)"/><path class="cls-4" d="M529.291,250.141a5.975,5.975,0,0,1,5.074,2.674v-7.248h2.3v18.5h-2.3v-2.574a5.625,5.625,0,0,1-5.1,2.8c-3.674,0-6.5-2.875-6.5-7.124C522.768,252.89,525.592,250.141,529.291,250.141Zm.425,1.974c-2.5,0-4.624,1.825-4.624,5.049s2.125,5.124,4.624,5.124,4.649-1.874,4.649-5.1C534.365,254.015,532.216,252.115,529.716,252.115Z" transform="translate(-4.416 -7.75)"/><path class="cls-4" d="M546.441,264.288c-3.9,0-6.773-2.75-6.773-7.1,0-4.324,2.774-7.048,6.773-7.048a6.278,6.278,0,0,1,6.573,6.548,12.335,12.335,0,0,1-.074,1.375H541.992a4.306,4.306,0,0,0,4.449,4.3,3.765,3.765,0,0,0,3.849-2.525h2.45A6.16,6.16,0,0,1,546.441,264.288Zm-4.424-8.074h8.648a4.019,4.019,0,0,0-4.324-4.149A4.242,4.242,0,0,0,542.017,256.214Z" transform="translate(-4.416 -7.75)"/><path class="cls-4" d="M563.192,252.24h-1.774v-1.874h1.774v-3.449h2.275v3.449h3.574v1.874h-3.574v8.073c0,1.35.5,1.825,1.9,1.825h1.675v1.924h-2.05c-2.424,0-3.8-1-3.8-3.749Z" transform="translate(-4.416 -7.75)"/><path class="cls-4" d="M577.766,264.288c-3.874,0-6.823-2.75-6.823-7.1a6.924,6.924,0,1,1,13.846,0A6.792,6.792,0,0,1,577.766,264.288Zm0-2c2.374,0,4.7-1.625,4.7-5.1,0-3.449-2.275-5.074-4.624-5.074-2.4,0-4.574,1.625-4.574,5.074C573.267,260.663,575.391,262.288,577.766,262.288Z" transform="translate(-4.416 -7.75)"/><path class="cls-4" d="M593.466,250.141a5.976,5.976,0,0,1,5.074,2.674v-7.248h2.3v18.5h-2.3v-2.574a5.625,5.625,0,0,1-5.1,2.8c-3.674,0-6.5-2.875-6.5-7.124C586.943,252.89,589.767,250.141,593.466,250.141Zm.425,1.974c-2.5,0-4.624,1.825-4.624,5.049s2.124,5.124,4.624,5.124,4.649-1.874,4.649-5.1C598.54,254.015,596.39,252.115,593.891,252.115Z" transform="translate(-4.416 -7.75)"/><path class="cls-4" d="M610.666,264.288c-3.874,0-6.823-2.75-6.823-7.1a6.924,6.924,0,1,1,13.846,0A6.792,6.792,0,0,1,610.666,264.288Zm0-2c2.374,0,4.7-1.625,4.7-5.1,0-3.449-2.275-5.074-4.624-5.074-2.4,0-4.574,1.625-4.574,5.074C606.167,260.663,608.291,262.288,610.666,262.288Z" transform="translate(-4.416 -7.75)"/><path class="cls-4" d="M625.541,264.288c-3.2,0-5.448-1.75-5.6-4.249h2.349c.125,1.324,1.3,2.324,3.224,2.324,1.8,0,2.8-.9,2.8-2.025,0-3.049-8.1-1.275-8.1-6.373,0-2.1,1.974-3.824,5.023-3.824,3.024,0,5.024,1.625,5.174,4.3H628.14c-.1-1.375-1.149-2.375-2.974-2.375-1.675,0-2.674.8-2.674,1.9,0,3.249,7.948,1.474,8.048,6.373C630.54,262.588,628.566,264.288,625.541,264.288Z" transform="translate(-4.416 -7.75)"/><path class="cls-4" d="M646.39,264.288c-3.874,0-6.823-2.75-6.823-7.1a6.925,6.925,0,1,1,13.847,0A6.792,6.792,0,0,1,646.39,264.288Zm0-2c2.375,0,4.7-1.625,4.7-5.1,0-3.449-2.274-5.074-4.623-5.074-2.4,0-4.574,1.625-4.574,5.074C641.892,260.663,644.016,262.288,646.39,262.288Z" transform="translate(-4.416 -7.75)"/><path class="cls-4" d="M661.266,264.288c-3.2,0-5.449-1.75-5.6-4.249h2.349c.125,1.324,1.3,2.324,3.225,2.324,1.8,0,2.8-.9,2.8-2.025,0-3.049-8.1-1.275-8.1-6.373,0-2.1,1.975-3.824,5.024-3.824,3.024,0,5.024,1.625,5.173,4.3h-2.274c-.1-1.375-1.149-2.375-2.974-2.375-1.675,0-2.674.8-2.674,1.9,0,3.249,7.948,1.474,8.047,6.373C666.264,262.588,664.29,264.288,661.266,264.288Z" transform="translate(-4.416 -7.75)"/><path class="cls-4" d="M683.54,250.141c3.674,0,6.5,2.749,6.5,7.023,0,4.249-2.824,7.124-6.5,7.124a5.924,5.924,0,0,1-5.124-2.75v9.023h-2.275V250.366h2.275v2.524A5.785,5.785,0,0,1,683.54,250.141Zm-.475,1.974c-2.474,0-4.649,1.9-4.649,5.074,0,3.225,2.175,5.1,4.649,5.1,2.524,0,4.649-1.9,4.649-5.124S685.589,252.115,683.065,252.115Z" transform="translate(-4.416 -7.75)"/><path class="cls-4" d="M695.316,264.062h-2.275v-13.7h2.275v2.224a4.612,4.612,0,0,1,4.424-2.474v2.349h-.6c-2.174,0-3.824.975-3.824,4.149Z" transform="translate(-4.416 -7.75)"/><path class="cls-4" d="M708.34,264.288c-3.874,0-6.824-2.75-6.824-7.1a6.925,6.925,0,1,1,13.847,0A6.792,6.792,0,0,1,708.34,264.288Zm0-2c2.374,0,4.7-1.625,4.7-5.1,0-3.449-2.274-5.074-4.623-5.074-2.4,0-4.574,1.625-4.574,5.074C703.841,260.663,705.965,262.288,708.34,262.288Z" transform="translate(-4.416 -7.75)"/><path class="cls-4" d="M718.791,252.24h-1.775v-1.874h1.775v-.975c0-3.049,1.5-4.424,5-4.424v1.9c-2.05,0-2.724.75-2.724,2.524v.975h2.874v1.874h-2.874v11.822h-2.275Z" transform="translate(-4.416 -7.75)"/><path class="cls-4" d="M726.217,246.592a1.525,1.525,0,1,1,1.549,1.55A1.526,1.526,0,0,1,726.217,246.592Zm.374,3.774h2.274v13.7h-2.274Z" transform="translate(-4.416 -7.75)"/><path class="cls-4" d="M737.59,264.288c-3.2,0-5.449-1.75-5.6-4.249h2.35c.125,1.324,1.3,2.324,3.224,2.324,1.8,0,2.8-.9,2.8-2.025,0-3.049-8.1-1.275-8.1-6.373,0-2.1,1.975-3.824,5.024-3.824,3.024,0,5.024,1.625,5.174,4.3h-2.275c-.1-1.375-1.149-2.375-2.974-2.375-1.675,0-2.674.8-2.674,1.9,0,3.249,7.948,1.474,8.048,6.373C742.589,262.588,740.615,264.288,737.59,264.288Z" transform="translate(-4.416 -7.75)"/><path class="cls-4" d="M750.64,264.288c-3.2,0-5.449-1.75-5.6-4.249h2.349c.125,1.324,1.3,2.324,3.225,2.324,1.8,0,2.8-.9,2.8-2.025,0-3.049-8.1-1.275-8.1-6.373,0-2.1,1.975-3.824,5.024-3.824,3.024,0,5.024,1.625,5.173,4.3h-2.274c-.1-1.375-1.149-2.375-2.974-2.375-1.675,0-2.674.8-2.674,1.9,0,3.249,7.948,1.474,8.047,6.373C755.638,262.588,753.664,264.288,750.64,264.288Z" transform="translate(-4.416 -7.75)"/><path class="cls-4" d="M758.466,246.592a1.525,1.525,0,1,1,1.549,1.55A1.526,1.526,0,0,1,758.466,246.592Zm.375,3.774h2.274v13.7h-2.274Z" transform="translate(-4.416 -7.75)"/><path class="cls-4" d="M770.964,264.288c-3.874,0-6.823-2.75-6.823-7.1a6.925,6.925,0,1,1,13.847,0A6.792,6.792,0,0,1,770.964,264.288Zm0-2c2.375,0,4.7-1.625,4.7-5.1,0-3.449-2.275-5.074-4.624-5.074-2.4,0-4.574,1.625-4.574,5.074C766.465,260.663,768.59,262.288,770.964,262.288Z" transform="translate(-4.416 -7.75)"/><path class="cls-4" d="M791.013,256.314c0-2.8-1.524-4.224-3.824-4.224-2.324,0-3.924,1.45-3.924,4.4v7.573H780.99v-13.7h2.275v1.949a5.062,5.062,0,0,1,4.4-2.2c3.174,0,5.6,1.949,5.6,5.873v8.073h-2.25Z" transform="translate(-4.416 -7.75)"/><path class="cls-4" d="M802.639,250.141a5.683,5.683,0,0,1,5.1,2.724v-2.5h2.3v13.7h-2.3v-2.549a5.719,5.719,0,0,1-5.123,2.775c-3.65,0-6.474-2.875-6.474-7.124C796.141,252.89,798.965,250.141,802.639,250.141Zm.45,1.974c-2.5,0-4.624,1.825-4.624,5.049s2.125,5.124,4.624,5.124,4.649-1.874,4.649-5.1C807.738,254.015,805.589,252.115,803.089,252.115Z" transform="translate(-4.416 -7.75)"/><path class="cls-4" d="M813.516,246.592a1.525,1.525,0,1,1,1.549,1.55A1.526,1.526,0,0,1,813.516,246.592Zm.374,3.774h2.275v13.7H813.89Z" transform="translate(-4.416 -7.75)"/><path class="cls-4" d="M824.889,264.288c-3.2,0-5.448-1.75-5.6-4.249h2.349c.125,1.324,1.3,2.324,3.225,2.324,1.8,0,2.8-.9,2.8-2.025,0-3.049-8.1-1.275-8.1-6.373,0-2.1,1.974-3.824,5.024-3.824,3.024,0,5.023,1.625,5.173,4.3h-2.274c-.1-1.375-1.15-2.375-2.975-2.375-1.674,0-2.674.8-2.674,1.9,0,3.249,7.948,1.474,8.048,6.373C829.888,262.588,827.913,264.288,824.889,264.288Z" transform="translate(-4.416 -7.75)"/><path class="cls-4" d="M845.439,250.141a5.973,5.973,0,0,1,5.073,2.674v-7.248h2.3v18.5h-2.3v-2.574a5.623,5.623,0,0,1-5.1,2.8c-3.674,0-6.5-2.875-6.5-7.124C838.915,252.89,841.74,250.141,845.439,250.141Zm.425,1.974c-2.5,0-4.624,1.825-4.624,5.049s2.124,5.124,4.624,5.124,4.648-1.874,4.648-5.1C850.512,254.015,848.363,252.115,845.864,252.115Z" transform="translate(-4.416 -7.75)"/><path class="cls-4" d="M862.314,250.141a5.681,5.681,0,0,1,5.1,2.724v-2.5h2.3v13.7h-2.3v-2.549a5.72,5.72,0,0,1-5.124,2.775c-3.649,0-6.473-2.875-6.473-7.124C855.815,252.89,858.639,250.141,862.314,250.141Zm.45,1.974c-2.5,0-4.624,1.825-4.624,5.049s2.124,5.124,4.624,5.124,4.648-1.874,4.648-5.1C867.412,254.015,865.263,252.115,862.764,252.115Z" transform="translate(-4.416 -7.75)"/><path class="cls-4" d="M878.413,264.288c-3.2,0-5.449-1.75-5.6-4.249h2.349c.125,1.324,1.3,2.324,3.224,2.324,1.8,0,2.8-.9,2.8-2.025,0-3.049-8.1-1.275-8.1-6.373,0-2.1,1.975-3.824,5.025-3.824,3.024,0,5.023,1.625,5.173,4.3h-2.274c-.1-1.375-1.15-2.375-2.975-2.375-1.674,0-2.674.8-2.674,1.9,0,3.249,7.948,1.474,8.048,6.373C883.412,262.588,881.438,264.288,878.413,264.288Z" transform="translate(-4.416 -7.75)"/><path class="cls-4" d="M899.212,264.288c-3.9,0-6.772-2.75-6.772-7.1,0-4.324,2.773-7.048,6.772-7.048a6.278,6.278,0,0,1,6.574,6.548,12.332,12.332,0,0,1-.075,1.375H894.764a4.305,4.305,0,0,0,4.448,4.3,3.765,3.765,0,0,0,3.85-2.525h2.449A6.159,6.159,0,0,1,899.212,264.288Zm-4.424-8.074h8.649a4.02,4.02,0,0,0-4.324-4.149A4.243,4.243,0,0,0,894.788,256.214Z" transform="translate(-4.416 -7.75)"/><path class="cls-4" d="M914.463,250.141a5.668,5.668,0,0,1,5.073,2.724v-2.5h2.3v20.195h-2.3v-9.023a5.806,5.806,0,0,1-5.148,2.75c-3.624,0-6.448-2.875-6.448-7.124C907.94,252.89,910.764,250.141,914.463,250.141Zm.425,1.974c-2.5,0-4.624,1.825-4.624,5.049s2.124,5.124,4.624,5.124,4.648-1.874,4.648-5.1C919.536,254.015,917.387,252.115,914.888,252.115Z" transform="translate(-4.416 -7.75)"/><path class="cls-4" d="M937.835,264.062h-2.274v-2.024a5.035,5.035,0,0,1-4.374,2.225c-3.149,0-5.623-1.95-5.623-5.874v-8.023h2.249v7.723c0,2.774,1.524,4.2,3.824,4.2,2.35,0,3.924-1.45,3.924-4.4v-7.523h2.274Z" transform="translate(-4.416 -7.75)"/><path class="cls-4" d="M941.314,246.592a1.525,1.525,0,1,1,1.55,1.55A1.526,1.526,0,0,1,941.314,246.592Zm.375,3.774h2.274v13.7h-2.274Z" transform="translate(-4.416 -7.75)"/><path class="cls-4" d="M955.236,250.141c3.674,0,6.5,2.749,6.5,7.023,0,4.249-2.825,7.124-6.5,7.124a5.922,5.922,0,0,1-5.123-2.75v9.023h-2.275V250.366h2.275v2.524A5.783,5.783,0,0,1,955.236,250.141Zm-.475,1.974c-2.475,0-4.648,1.9-4.648,5.074,0,3.225,2.173,5.1,4.648,5.1,2.524,0,4.649-1.9,4.649-5.124S957.285,252.115,954.761,252.115Z" transform="translate(-4.416 -7.75)"/><path class="cls-4" d="M970.66,264.288c-3.9,0-6.772-2.75-6.772-7.1,0-4.324,2.773-7.048,6.772-7.048a6.279,6.279,0,0,1,6.575,6.548,12.329,12.329,0,0,1-.076,1.375H966.212a4.305,4.305,0,0,0,4.448,4.3,3.765,3.765,0,0,0,3.85-2.525h2.449A6.159,6.159,0,0,1,970.66,264.288Zm-4.423-8.074h8.648a4.02,4.02,0,0,0-4.324-4.149A4.242,4.242,0,0,0,966.237,256.214Z" transform="translate(-4.416 -7.75)"/><path class="cls-4" d="M985.086,264.288c-3.2,0-5.449-1.75-5.6-4.249h2.349c.125,1.324,1.3,2.324,3.224,2.324,1.8,0,2.8-.9,2.8-2.025,0-3.049-8.1-1.275-8.1-6.373,0-2.1,1.975-3.824,5.024-3.824,3.025,0,5.024,1.625,5.174,4.3h-2.274c-.1-1.375-1.151-2.375-2.975-2.375-1.675,0-2.675.8-2.675,1.9,0,3.249,7.949,1.474,8.049,6.373C990.085,262.588,988.111,264.288,985.086,264.288Z" transform="translate(-4.416 -7.75)"/><path class="cls-4" d="M994.012,264.212a1.55,1.55,0,1,1,1.5-1.549A1.526,1.526,0,0,1,994.012,264.212Z" transform="translate(-4.416 -7.75)"/></g><rect class="cls-1" y="85.625" width="1272" height="80.5" rx="14.375"/><rect class="cls-6" x="2" y="107.625" width="1268" height="76.5" rx="12.375"/><path class="cls-1" d="M1262.041,193.875H18.791A14.392,14.392,0,0,1,4.416,179.5V127.75a14.392,14.392,0,0,1,14.375-14.375h1243.25a14.391,14.391,0,0,1,14.375,14.375V179.5A14.391,14.391,0,0,1,1262.041,193.875Zm-1243.25-76.5A10.387,10.387,0,0,0,8.416,127.75V179.5a10.387,10.387,0,0,0,10.375,10.375h1243.25a10.386,10.386,0,0,0,10.375-10.375V127.75a10.386,10.386,0,0,0-10.375-10.375Z" transform="translate(-4.416 -7.75)"/><g class="cls-3"><path class="cls-4" d="M334.743,146.017c4.1,0,6.048,2.274,6.048,5.124a4.912,4.912,0,0,1-4.149,5l4.374,7.3h-2.724l-4.149-7.124h-2.749v7.124h-2.275V146.017Zm0,1.874h-3.349v6.6h3.349c2.574,0,3.7-1.4,3.7-3.349C338.442,149.166,337.342,147.891,334.743,147.891Z" transform="translate(-4.416 -7.75)"/><path class="cls-4" d="M350.242,163.663c-3.9,0-6.773-2.75-6.773-7.1,0-4.324,2.774-7.048,6.773-7.048a6.278,6.278,0,0,1,6.574,6.548,12.332,12.332,0,0,1-.075,1.375H345.793a4.307,4.307,0,0,0,4.449,4.3,3.765,3.765,0,0,0,3.85-2.525h2.449A6.16,6.16,0,0,1,350.242,163.663Zm-4.423-8.074h8.648a4.02,4.02,0,0,0-4.325-4.149A4.241,4.241,0,0,0,345.819,155.589Z" transform="translate(-4.416 -7.75)"/><path class="cls-4" d="M371.966,163.438h-2.274v-2.025a5.036,5.036,0,0,1-4.374,2.225c-3.15,0-5.624-1.95-5.624-5.874v-8.023h2.249v7.723c0,2.774,1.525,4.2,3.824,4.2,2.35,0,3.925-1.45,3.925-4.4v-7.523h2.274Z" transform="translate(-4.416 -7.75)"/><path class="cls-4" d="M385.842,155.689c0-2.8-1.525-4.224-3.825-4.224-2.324,0-3.924,1.45-3.924,4.4v7.574h-2.274v-13.7h2.274v1.949a5.062,5.062,0,0,1,4.4-2.2c3.174,0,5.6,1.949,5.6,5.873v8.074h-2.249Z" transform="translate(-4.416 -7.75)"/><path class="cls-4" d="M391.444,145.967a1.525,1.525,0,1,1,1.549,1.55A1.526,1.526,0,0,1,391.444,145.967Zm.375,3.774h2.274v13.7h-2.274Z" transform="translate(-4.416 -7.75)"/><path class="cls-4" d="M403.617,149.516a5.683,5.683,0,0,1,5.1,2.724v-2.5h2.3v13.7h-2.3v-2.55a5.719,5.719,0,0,1-5.123,2.775c-3.65,0-6.474-2.875-6.474-7.124C397.119,152.265,399.943,149.516,403.617,149.516Zm.45,1.974c-2.5,0-4.623,1.825-4.623,5.049s2.124,5.124,4.623,5.124,4.649-1.874,4.649-5.1C408.716,153.39,406.567,151.49,404.067,151.49Zm-.724-5.848c1.324,0,1.824,1.15,2.849,1.15a1.1,1.1,0,0,0,1.1-1.075h1.3c-.2,1.7-1.2,2.6-2.5,2.6-1.35,0-1.85-1.149-2.85-1.149-.549,0-.974.35-1.074,1.1h-1.325C401.093,146.542,402.043,145.642,403.343,145.642Z" transform="translate(-4.416 -7.75)"/><path class="cls-4" d="M420.842,163.663c-3.874,0-6.823-2.75-6.823-7.1a6.924,6.924,0,1,1,13.846,0A6.792,6.792,0,0,1,420.842,163.663Zm0-2c2.375,0,4.7-1.625,4.7-5.1,0-3.449-2.275-5.074-4.624-5.074-2.4,0-4.574,1.625-4.574,5.074C416.343,160.038,418.468,161.663,420.842,161.663Z" transform="translate(-4.416 -7.75)"/><path class="cls-4" d="M437.169,145.967a1.525,1.525,0,1,1,1.549,1.55A1.526,1.526,0,0,1,437.169,145.967Zm.374,3.774h2.275v13.7h-2.275Z" transform="translate(-4.416 -7.75)"/><path class="cls-4" d="M453.716,155.689c0-2.8-1.525-4.224-3.824-4.224-2.324,0-3.924,1.45-3.924,4.4v7.574h-2.275v-13.7h2.275v1.949a5.059,5.059,0,0,1,4.4-2.2c3.175,0,5.6,1.949,5.6,5.873v8.074h-2.249Z" transform="translate(-4.416 -7.75)"/><path class="cls-4" d="M460.193,151.615h-1.774v-1.874h1.774v-3.449h2.275v3.449h3.574v1.874h-3.574v8.073c0,1.35.5,1.825,1.9,1.825h1.675v1.925h-2.05c-2.424,0-3.8-1-3.8-3.75Z" transform="translate(-4.416 -7.75)"/><path class="cls-4" d="M474.717,163.663c-3.9,0-6.773-2.75-6.773-7.1,0-4.324,2.774-7.048,6.773-7.048a6.278,6.278,0,0,1,6.573,6.548,12.58,12.58,0,0,1-.074,1.375H470.268a4.306,4.306,0,0,0,4.449,4.3,3.765,3.765,0,0,0,3.849-2.525h2.449A6.158,6.158,0,0,1,474.717,163.663Zm-4.424-8.074h8.648a4.019,4.019,0,0,0-4.324-4.149A4.242,4.242,0,0,0,470.293,155.589Z" transform="translate(-4.416 -7.75)"/><path class="cls-4" d="M489.942,149.516a5.646,5.646,0,0,1,5.1,2.724v-2.5h2.3v14a6.14,6.14,0,0,1-6.548,6.449c-3.6,0-6.174-1.825-6.624-4.749h2.25c.5,1.649,2.124,2.774,4.374,2.774,2.424,0,4.249-1.549,4.249-4.474v-2.874a5.723,5.723,0,0,1-5.1,2.8c-3.674,0-6.5-2.875-6.5-7.124C483.444,152.265,486.268,149.516,489.942,149.516Zm.45,1.974c-2.5,0-4.624,1.825-4.624,5.049s2.124,5.124,4.624,5.124,4.649-1.874,4.649-5.1C495.041,153.39,492.891,151.49,490.392,151.49Z" transform="translate(-4.416 -7.75)"/><path class="cls-4" d="M503.468,163.438h-2.275v-13.7h2.275v2.224a4.611,4.611,0,0,1,4.424-2.474v2.349h-.6c-2.175,0-3.824.975-3.824,4.149Z" transform="translate(-4.416 -7.75)"/><path class="cls-4" d="M516.167,149.516a5.681,5.681,0,0,1,5.1,2.724v-2.5h2.3v13.7h-2.3v-2.55a5.718,5.718,0,0,1-5.123,2.775c-3.65,0-6.474-2.875-6.474-7.124C509.668,152.265,512.492,149.516,516.167,149.516Zm.449,1.974c-2.5,0-4.624,1.825-4.624,5.049s2.125,5.124,4.624,5.124,4.649-1.874,4.649-5.1C521.265,153.39,519.116,151.49,516.616,151.49Z" transform="translate(-4.416 -7.75)"/><path class="cls-4" d="M533.092,149.516a5.973,5.973,0,0,1,5.073,2.674v-7.248h2.3v18.5h-2.3v-2.575a5.623,5.623,0,0,1-5.1,2.8c-3.675,0-6.5-2.875-6.5-7.124C526.568,152.265,529.392,149.516,533.092,149.516Zm.424,1.974c-2.5,0-4.623,1.825-4.623,5.049s2.124,5.124,4.623,5.124,4.649-1.874,4.649-5.1C538.165,153.39,536.016,151.49,533.516,151.49Z" transform="translate(-4.416 -7.75)"/><path class="cls-4" d="M549.967,149.516a5.683,5.683,0,0,1,5.1,2.724v-2.5h2.3v13.7h-2.3v-2.55a5.719,5.719,0,0,1-5.123,2.775c-3.65,0-6.474-2.875-6.474-7.124C543.468,152.265,546.292,149.516,549.967,149.516Zm.449,1.974c-2.5,0-4.624,1.825-4.624,5.049s2.125,5.124,4.624,5.124,4.649-1.874,4.649-5.1C555.065,153.39,552.916,151.49,550.416,151.49Z" transform="translate(-4.416 -7.75)"/><path class="cls-4" d="M573.716,149.516c3.4,0,5.624,1.75,6.324,4.624h-2.45a3.732,3.732,0,0,0-3.874-2.7c-2.5,0-4.349,1.775-4.349,5.124,0,3.4,1.85,5.174,4.349,5.174a3.675,3.675,0,0,0,3.874-2.7h2.45a6.094,6.094,0,0,1-6.324,4.624c-3.9,0-6.673-2.75-6.673-7.1C567.043,152.265,569.817,149.516,573.716,149.516Z" transform="translate(-4.416 -7.75)"/><path class="cls-4" d="M589.041,163.663c-3.874,0-6.823-2.75-6.823-7.1a6.924,6.924,0,1,1,13.846,0A6.792,6.792,0,0,1,589.041,163.663Zm0-2c2.374,0,4.7-1.625,4.7-5.1,0-3.449-2.275-5.074-4.624-5.074-2.4,0-4.574,1.625-4.574,5.074C584.542,160.038,586.666,161.663,589.041,161.663Z" transform="translate(-4.416 -7.75)"/><path class="cls-4" d="M618.838,155.689c0-2.8-1.5-4.224-3.749-4.224-2.3,0-3.874,1.475-3.874,4.424v7.549h-2.25v-7.749c0-2.8-1.5-4.224-3.749-4.224-2.3,0-3.874,1.475-3.874,4.424v7.549h-2.275v-13.7h2.275v1.974a4.951,4.951,0,0,1,4.324-2.224,5.155,5.155,0,0,1,5.024,3.049,5.069,5.069,0,0,1,4.848-3.049c3.124,0,5.549,1.949,5.549,5.873v8.074h-2.249Z" transform="translate(-4.416 -7.75)"/><path class="cls-4" d="M638.89,149.516c3.675,0,6.5,2.749,6.5,7.023,0,4.249-2.824,7.124-6.5,7.124a5.922,5.922,0,0,1-5.123-2.75v9.023h-2.275V149.741h2.275v2.524A5.784,5.784,0,0,1,638.89,149.516Zm-.475,1.974c-2.474,0-4.648,1.9-4.648,5.074,0,3.225,2.174,5.1,4.648,5.1,2.525,0,4.649-1.9,4.649-5.124S640.94,151.49,638.415,151.49Z" transform="translate(-4.416 -7.75)"/><path class="cls-4" d="M654.041,149.516a5.681,5.681,0,0,1,5.1,2.724v-2.5h2.3v13.7h-2.3v-2.55a5.718,5.718,0,0,1-5.123,2.775c-3.65,0-6.474-2.875-6.474-7.124C647.542,152.265,650.366,149.516,654.041,149.516Zm.449,1.974c-2.5,0-4.624,1.825-4.624,5.049s2.125,5.124,4.624,5.124,4.649-1.874,4.649-5.1C659.139,153.39,656.99,151.49,654.49,151.49Z" transform="translate(-4.416 -7.75)"/><path class="cls-4" d="M667.567,163.438h-2.275v-13.7h2.275v2.224a4.61,4.61,0,0,1,4.423-2.474v2.349h-.6c-2.174,0-3.823.975-3.823,4.149Z" transform="translate(-4.416 -7.75)"/><path class="cls-4" d="M675.116,151.615h-1.774v-1.874h1.774v-3.449h2.275v3.449h3.574v1.874h-3.574v8.073c0,1.35.5,1.825,1.9,1.825h1.675v1.925h-2.049c-2.425,0-3.8-1-3.8-3.75Z" transform="translate(-4.416 -7.75)"/><path class="cls-4" d="M683.342,145.967a1.525,1.525,0,1,1,1.549,1.55A1.526,1.526,0,0,1,683.342,145.967Zm.375,3.774h2.274v13.7h-2.274Z" transform="translate(-4.416 -7.75)"/><path class="cls-4" d="M695.69,149.516c3.4,0,5.624,1.75,6.324,4.624h-2.45a3.73,3.73,0,0,0-3.874-2.7c-2.5,0-4.349,1.775-4.349,5.124,0,3.4,1.85,5.174,4.349,5.174a3.674,3.674,0,0,0,3.874-2.7h2.45a6.093,6.093,0,0,1-6.324,4.624c-3.9,0-6.673-2.75-6.673-7.1C689.017,152.265,691.791,149.516,695.69,149.516Z" transform="translate(-4.416 -7.75)"/><path class="cls-4" d="M704.667,145.967a1.525,1.525,0,1,1,1.549,1.55A1.526,1.526,0,0,1,704.667,145.967Zm.374,3.774h2.275v13.7h-2.275Z" transform="translate(-4.416 -7.75)"/><path class="cls-4" d="M718.59,149.516c3.674,0,6.5,2.749,6.5,7.023,0,4.249-2.824,7.124-6.5,7.124a5.924,5.924,0,0,1-5.124-2.75v9.023h-2.275V149.741h2.275v2.524A5.785,5.785,0,0,1,718.59,149.516Zm-.475,1.974c-2.475,0-4.649,1.9-4.649,5.074,0,3.225,2.174,5.1,4.649,5.1,2.524,0,4.648-1.9,4.648-5.124S720.639,151.49,718.115,151.49Z" transform="translate(-4.416 -7.75)"/><path class="cls-4" d="M733.74,149.516a5.684,5.684,0,0,1,5.1,2.724v-2.5h2.3v13.7h-2.3v-2.55a5.72,5.72,0,0,1-5.124,2.775c-3.649,0-6.474-2.875-6.474-7.124C727.241,152.265,730.066,149.516,733.74,149.516Zm.45,1.974c-2.5,0-4.624,1.825-4.624,5.049s2.124,5.124,4.624,5.124,4.649-1.874,4.649-5.1C738.839,153.39,736.689,151.49,734.19,151.49Z" transform="translate(-4.416 -7.75)"/><path class="cls-4" d="M750.815,149.516c3.4,0,5.623,1.75,6.323,4.624h-2.449a3.732,3.732,0,0,0-3.874-2.7c-2.5,0-4.349,1.775-4.349,5.124,0,3.4,1.849,5.174,4.349,5.174a3.675,3.675,0,0,0,3.874-2.7h2.449a6.018,6.018,0,0,1-5.624,4.6v1.249c1.925-.025,3.225.825,3.225,2.474,0,1.575-1.275,2.575-3.049,2.575h-2.875v-1.475h2.425c1.074,0,1.6-.3,1.6-1.1,0-.774-.525-1.074-1.6-1.074h-1.25v-2.675c-3.449-.349-5.849-3.024-5.849-7.048C744.141,152.265,746.916,149.516,750.815,149.516Z" transform="translate(-4.416 -7.75)"/><path class="cls-4" d="M765.815,149.516a5.681,5.681,0,0,1,5.1,2.724v-2.5h2.3v13.7h-2.3v-2.55a5.718,5.718,0,0,1-5.123,2.775c-3.65,0-6.474-2.875-6.474-7.124C759.316,152.265,762.14,149.516,765.815,149.516Zm.449,1.974c-2.5,0-4.623,1.825-4.623,5.049s2.124,5.124,4.623,5.124,4.649-1.874,4.649-5.1C770.913,153.39,768.764,151.49,766.264,151.49Zm-.724-5.848c1.325,0,1.824,1.15,2.849,1.15a1.1,1.1,0,0,0,1.1-1.075h1.3c-.2,1.7-1.2,2.6-2.5,2.6-1.35,0-1.849-1.149-2.849-1.149-.55,0-.975.35-1.075,1.1H763.04C763.29,146.542,764.24,145.642,765.54,145.642Z" transform="translate(-4.416 -7.75)"/><path class="cls-4" d="M783.039,163.663c-3.874,0-6.823-2.75-6.823-7.1a6.925,6.925,0,1,1,13.847,0A6.792,6.792,0,0,1,783.039,163.663Zm0-2c2.375,0,4.7-1.625,4.7-5.1,0-3.449-2.275-5.074-4.624-5.074-2.4,0-4.575,1.625-4.575,5.074C778.54,160.038,780.665,161.663,783.039,161.663Z" transform="translate(-4.416 -7.75)"/><path class="cls-4" d="M805.414,149.516a5.975,5.975,0,0,1,5.074,2.674v-7.248h2.3v18.5h-2.3v-2.575a5.625,5.625,0,0,1-5.1,2.8c-3.674,0-6.5-2.875-6.5-7.124C798.891,152.265,801.715,149.516,805.414,149.516Zm.425,1.974c-2.5,0-4.624,1.825-4.624,5.049s2.125,5.124,4.624,5.124,4.649-1.874,4.649-5.1C810.488,153.39,808.339,151.49,805.839,151.49Z" transform="translate(-4.416 -7.75)"/><path class="cls-4" d="M822.564,163.663c-3.9,0-6.773-2.75-6.773-7.1,0-4.324,2.774-7.048,6.773-7.048a6.278,6.278,0,0,1,6.573,6.548,12.335,12.335,0,0,1-.074,1.375H818.115a4.306,4.306,0,0,0,4.449,4.3,3.764,3.764,0,0,0,3.849-2.525h2.45A6.16,6.16,0,0,1,822.564,163.663Zm-4.424-8.074h8.648a4.019,4.019,0,0,0-4.324-4.149A4.242,4.242,0,0,0,818.14,155.589Z" transform="translate(-4.416 -7.75)"/><path class="cls-4" d="M844.739,163.663c-3.9,0-6.773-2.75-6.773-7.1,0-4.324,2.774-7.048,6.773-7.048a6.278,6.278,0,0,1,6.573,6.548,12.58,12.58,0,0,1-.074,1.375H840.29a4.306,4.306,0,0,0,4.449,4.3,3.765,3.765,0,0,0,3.849-2.525h2.449A6.158,6.158,0,0,1,844.739,163.663Zm-4.424-8.074h8.648a4.019,4.019,0,0,0-4.324-4.149A4.242,4.242,0,0,0,840.315,155.589Z" transform="translate(-4.416 -7.75)"/><path class="cls-4" d="M859.839,163.612c-3.5,0-5.974-1.949-6.023-4.823h2.424c.15,1.449,1.175,2.9,3.6,2.9,2.2,0,3.5-1.25,3.5-2.9,0-4.7-9.423-1.7-9.423-8.173,0-2.875,2.325-4.824,5.774-4.824,3.324,0,5.5,1.824,5.774,4.474h-2.5a3.155,3.155,0,0,0-3.374-2.525c-1.874-.05-3.349.925-3.349,2.8,0,4.5,9.4,1.7,9.4,8.147C865.638,161.163,863.614,163.612,859.839,163.612Z" transform="translate(-4.416 -7.75)"/><path class="cls-4" d="M868.99,146.017h9.848v1.849h-7.573v5.874h6.148v1.849h-6.148v7.849H868.99Z" transform="translate(-4.416 -7.75)"/><path class="cls-4" d="M894.188,163.663c-3.9,0-6.773-2.75-6.773-7.1,0-4.324,2.774-7.048,6.773-7.048a6.279,6.279,0,0,1,6.574,6.548,12.332,12.332,0,0,1-.075,1.375H889.74a4.3,4.3,0,0,0,4.448,4.3,3.764,3.764,0,0,0,3.849-2.525h2.45A6.161,6.161,0,0,1,894.188,163.663Zm-4.424-8.074h8.648a4.019,4.019,0,0,0-4.324-4.149A4.242,4.242,0,0,0,889.764,155.589Z" transform="translate(-4.416 -7.75)"/><path class="cls-4" d="M916.363,163.663c-3.9,0-6.773-2.75-6.773-7.1,0-4.324,2.774-7.048,6.773-7.048a6.279,6.279,0,0,1,6.574,6.548,12.577,12.577,0,0,1-.075,1.375H911.914a4.306,4.306,0,0,0,4.449,4.3,3.765,3.765,0,0,0,3.849-2.525h2.449A6.159,6.159,0,0,1,916.363,163.663Zm-4.424-8.074h8.648a4.019,4.019,0,0,0-4.324-4.149A4.242,4.242,0,0,0,911.939,155.589Z" transform="translate(-4.416 -7.75)"/><path class="cls-4" d="M931.463,163.612c-3.5,0-5.973-1.949-6.023-4.823h2.424c.15,1.449,1.174,2.9,3.6,2.9,2.2,0,3.5-1.25,3.5-2.9,0-4.7-9.423-1.7-9.423-8.173,0-2.875,2.325-4.824,5.774-4.824,3.324,0,5.5,1.824,5.774,4.474h-2.5a3.155,3.155,0,0,0-3.374-2.525c-1.875-.05-3.349.925-3.349,2.8,0,4.5,9.4,1.7,9.4,8.147C937.262,161.163,935.238,163.612,931.463,163.612Z" transform="translate(-4.416 -7.75)"/><path class="cls-4" d="M947.113,163.438h-6.5V146.017h6.248c3.673,0,5.523,2,5.523,4.423a4.077,4.077,0,0,1-3.049,4.025,4.348,4.348,0,0,1,3.449,4.3C952.786,161.388,950.712,163.438,947.113,163.438Zm-.451-15.547h-3.773v5.649h3.824c2.124,0,3.349-1.05,3.349-2.824C950.062,148.991,948.887,147.891,946.662,147.891Zm.176,7.524h-3.949v6.148h4.023c2.25,0,3.6-1.125,3.6-3.024C950.512,156.614,949.062,155.415,946.838,155.415Z" transform="translate(-4.416 -7.75)"/><path class="cls-4" d="M956.664,163.587a1.55,1.55,0,1,1,1.5-1.549A1.525,1.525,0,0,1,956.664,163.587Z" transform="translate(-4.416 -7.75)"/></g><rect class="cls-1" width="1272" height="80.5" rx="14.375"/><rect class="cls-7" x="2" y="22" width="1268" height="76.5" rx="12.375"/><path class="cls-1" d="M1262.041,108.25H18.791A14.392,14.392,0,0,1,4.416,93.875V42.125A14.392,14.392,0,0,1,18.791,27.75h1243.25a14.391,14.391,0,0,1,14.375,14.375v51.75A14.391,14.391,0,0,1,1262.041,108.25ZM18.791,31.75A10.387,10.387,0,0,0,8.416,42.125v51.75A10.387,10.387,0,0,0,18.791,104.25h1243.25a10.386,10.386,0,0,0,10.375-10.375V42.125a10.386,10.386,0,0,0-10.375-10.375Z" transform="translate(-4.416 -7.75)"/><g class="cls-3"><path class="cls-4" d="M412.664,69.14c0,5.4-3.524,8.672-9.247,8.672h-5.424V60.392h5.424C409.14,60.392,412.664,63.741,412.664,69.14Zm-9.247,6.8c4.549,0,6.923-2.549,6.923-6.8s-2.374-6.9-6.923-6.9h-3.149v13.7Z" transform="translate(-4.416 -7.75)"/><path class="cls-4" d="M421.592,78.038c-3.9,0-6.774-2.75-6.774-7.1,0-4.324,2.775-7.048,6.774-7.048a6.278,6.278,0,0,1,6.573,6.548,12.332,12.332,0,0,1-.075,1.375H417.143a4.306,4.306,0,0,0,4.449,4.3,3.765,3.765,0,0,0,3.849-2.525h2.449A6.159,6.159,0,0,1,421.592,78.038Zm-4.424-8.074h8.648a4.02,4.02,0,0,0-4.325-4.149A4.241,4.241,0,0,0,417.168,69.964Z" transform="translate(-4.416 -7.75)"/><path class="cls-4" d="M431.593,65.99h-1.775V64.116h1.775v-.975c0-3.049,1.5-4.424,5-4.424v1.9c-2.05,0-2.725.75-2.725,2.524v.975h2.874V65.99h-2.874V77.812h-2.274Z" transform="translate(-4.416 -7.75)"/><path class="cls-4" d="M439.018,60.342a1.525,1.525,0,1,1,1.55,1.55A1.526,1.526,0,0,1,439.018,60.342Zm.375,3.774h2.274v13.7h-2.274Z" transform="translate(-4.416 -7.75)"/><path class="cls-4" d="M455.566,70.064c0-2.8-1.525-4.224-3.825-4.224-2.324,0-3.923,1.45-3.923,4.4v7.573h-2.275v-13.7h2.275v1.949a5.059,5.059,0,0,1,4.4-2.2c3.174,0,5.6,1.949,5.6,5.873v8.073h-2.249Z" transform="translate(-4.416 -7.75)"/><path class="cls-4" d="M461.168,60.342a1.525,1.525,0,1,1,1.55,1.55A1.526,1.526,0,0,1,461.168,60.342Zm.375,3.774h2.275v13.7h-2.275Z" transform="translate(-4.416 -7.75)"/><path class="cls-4" d="M473.516,63.891c3.4,0,5.624,1.75,6.324,4.624h-2.45a3.73,3.73,0,0,0-3.874-2.7c-2.5,0-4.349,1.775-4.349,5.124,0,3.4,1.85,5.174,4.349,5.174a3.674,3.674,0,0,0,3.874-2.7h2.45a6.019,6.019,0,0,1-5.624,4.6v1.249c1.925-.025,3.225.825,3.225,2.474,0,1.575-1.275,2.575-3.05,2.575h-2.874V82.836h2.424c1.075,0,1.6-.3,1.6-1.1,0-.774-.525-1.074-1.6-1.074h-1.249V77.987c-3.45-.349-5.849-3.024-5.849-7.048C466.843,66.64,469.617,63.891,473.516,63.891Z" transform="translate(-4.416 -7.75)"/><path class="cls-4" d="M488.516,63.891a5.683,5.683,0,0,1,5.1,2.724v-2.5h2.3v13.7h-2.3V75.263a5.72,5.72,0,0,1-5.124,2.775c-3.649,0-6.473-2.875-6.473-7.124C482.018,66.64,484.842,63.891,488.516,63.891Zm.45,1.974c-2.5,0-4.624,1.825-4.624,5.049s2.125,5.124,4.624,5.124,4.649-1.874,4.649-5.1C493.615,67.765,491.466,65.865,488.966,65.865Zm-.725-5.848c1.325,0,1.825,1.15,2.85,1.15a1.1,1.1,0,0,0,1.1-1.075h1.3c-.2,1.7-1.2,2.6-2.5,2.6-1.349,0-1.849-1.149-2.849-1.149-.549,0-.974.35-1.074,1.1h-1.325C485.992,60.917,486.942,60.017,488.241,60.017Z" transform="translate(-4.416 -7.75)"/><path class="cls-4" d="M505.741,78.038c-3.874,0-6.823-2.75-6.823-7.1a6.924,6.924,0,1,1,13.846,0A6.792,6.792,0,0,1,505.741,78.038Zm0-2c2.374,0,4.7-1.625,4.7-5.1,0-3.449-2.275-5.074-4.624-5.074-2.4,0-4.574,1.625-4.574,5.074C501.242,74.413,503.366,76.038,505.741,76.038Z" transform="translate(-4.416 -7.75)"/><path class="cls-4" d="M528.116,63.891a5.976,5.976,0,0,1,5.074,2.674V59.317h2.3V77.812h-2.3V75.238a5.625,5.625,0,0,1-5.1,2.8c-3.674,0-6.5-2.875-6.5-7.124C521.593,66.64,524.417,63.891,528.116,63.891Zm.425,1.974c-2.5,0-4.624,1.825-4.624,5.049s2.124,5.124,4.624,5.124,4.649-1.874,4.649-5.1C533.19,67.765,531.04,65.865,528.541,65.865Z" transform="translate(-4.416 -7.75)"/><path class="cls-4" d="M545.266,78.038c-3.9,0-6.774-2.75-6.774-7.1,0-4.324,2.775-7.048,6.774-7.048a6.278,6.278,0,0,1,6.573,6.548,12.332,12.332,0,0,1-.075,1.375H540.817a4.306,4.306,0,0,0,4.449,4.3,3.765,3.765,0,0,0,3.849-2.525h2.449A6.158,6.158,0,0,1,545.266,78.038Zm-4.424-8.074h8.648a4.019,4.019,0,0,0-4.324-4.149A4.242,4.242,0,0,0,540.842,69.964Z" transform="translate(-4.416 -7.75)"/><path class="cls-4" d="M573.664,77.812H571.39V75.788a5.036,5.036,0,0,1-4.374,2.225c-3.15,0-5.624-1.95-5.624-5.874V64.116h2.249v7.723c0,2.774,1.525,4.2,3.825,4.2,2.349,0,3.924-1.45,3.924-4.4V64.116h2.274Z" transform="translate(-4.416 -7.75)"/><path class="cls-4" d="M597.287,70.064c0-2.8-1.5-4.224-3.749-4.224-2.3,0-3.874,1.475-3.874,4.424v7.548h-2.249V70.064c0-2.8-1.5-4.224-3.749-4.224-2.3,0-3.875,1.475-3.875,4.424v7.548h-2.274v-13.7h2.274V66.09a4.954,4.954,0,0,1,4.324-2.224,5.153,5.153,0,0,1,5.024,3.049,5.069,5.069,0,0,1,4.849-3.049c3.124,0,5.549,1.949,5.549,5.873v8.073h-2.25Z" transform="translate(-4.416 -7.75)"/><path class="cls-4" d="M608.916,63.891a5.681,5.681,0,0,1,5.1,2.724v-2.5h2.3v13.7h-2.3V75.263a5.718,5.718,0,0,1-5.123,2.775c-3.65,0-6.474-2.875-6.474-7.124C602.417,66.64,605.241,63.891,608.916,63.891Zm.449,1.974c-2.5,0-4.624,1.825-4.624,5.049s2.125,5.124,4.624,5.124,4.649-1.874,4.649-5.1C614.014,67.765,611.865,65.865,609.365,65.865Z" transform="translate(-4.416 -7.75)"/><path class="cls-4" d="M627.267,65.99h-1.775V64.116h1.775v-.975c0-3.049,1.5-4.424,5-4.424v1.9c-2.049,0-2.724.75-2.724,2.524v.975h2.874V65.99h-2.874V77.812h-2.274Z" transform="translate(-4.416 -7.75)"/><path class="cls-4" d="M640.99,78.038c-3.9,0-6.773-2.75-6.773-7.1,0-4.324,2.774-7.048,6.773-7.048a6.278,6.278,0,0,1,6.574,6.548,12.332,12.332,0,0,1-.075,1.375H636.541a4.307,4.307,0,0,0,4.449,4.3,3.765,3.765,0,0,0,3.85-2.525h2.449A6.16,6.16,0,0,1,640.99,78.038Zm-4.423-8.074h8.648a4.02,4.02,0,0,0-4.325-4.149A4.241,4.241,0,0,0,636.567,69.964Z" transform="translate(-4.416 -7.75)"/><path class="cls-4" d="M652.841,77.812h-2.274v-13.7h2.274V66.34a4.613,4.613,0,0,1,4.424-2.474v2.349h-.6c-2.174,0-3.824.975-3.824,4.149Z" transform="translate(-4.416 -7.75)"/><path class="cls-4" d="M662.166,77.812h-2.275v-13.7h2.275V66.34a4.612,4.612,0,0,1,4.424-2.474v2.349h-.6c-2.174,0-3.824.975-3.824,4.149Z" transform="translate(-4.416 -7.75)"/><path class="cls-4" d="M674.865,63.891a5.684,5.684,0,0,1,5.1,2.724v-2.5h2.3v13.7h-2.3V75.263a5.72,5.72,0,0,1-5.124,2.775c-3.649,0-6.474-2.875-6.474-7.124C668.366,66.64,671.191,63.891,674.865,63.891Zm.45,1.974c-2.5,0-4.624,1.825-4.624,5.049s2.124,5.124,4.624,5.124,4.649-1.874,4.649-5.1C679.964,67.765,677.814,65.865,675.315,65.865Z" transform="translate(-4.416 -7.75)"/><path class="cls-4" d="M705.886,70.064c0-2.8-1.5-4.224-3.749-4.224-2.3,0-3.874,1.475-3.874,4.424v7.548h-2.249V70.064c0-2.8-1.5-4.224-3.749-4.224-2.3,0-3.874,1.475-3.874,4.424v7.548h-2.275v-13.7h2.275V66.09a4.951,4.951,0,0,1,4.324-2.224,5.155,5.155,0,0,1,5.024,3.049,5.068,5.068,0,0,1,4.848-3.049c3.124,0,5.549,1.949,5.549,5.873v8.073h-2.25Z" transform="translate(-4.416 -7.75)"/><path class="cls-4" d="M717.79,78.038c-3.9,0-6.774-2.75-6.774-7.1,0-4.324,2.775-7.048,6.774-7.048a6.278,6.278,0,0,1,6.573,6.548,12.332,12.332,0,0,1-.075,1.375H713.341a4.306,4.306,0,0,0,4.449,4.3,3.765,3.765,0,0,0,3.849-2.525h2.449A6.159,6.159,0,0,1,717.79,78.038Zm-4.424-8.074h8.648a4.019,4.019,0,0,0-4.324-4.149A4.242,4.242,0,0,0,713.366,69.964Z" transform="translate(-4.416 -7.75)"/><path class="cls-4" d="M737.389,70.064c0-2.8-1.525-4.224-3.824-4.224-2.325,0-3.924,1.45-3.924,4.4v7.573h-2.275v-13.7h2.275v1.949a5.059,5.059,0,0,1,4.4-2.2c3.175,0,5.6,1.949,5.6,5.873v8.073h-2.249Z" transform="translate(-4.416 -7.75)"/><path class="cls-4" d="M743.866,65.99h-1.774V64.116h1.774V60.667h2.274v3.449h3.575V65.99H746.14v8.073c0,1.35.5,1.825,1.9,1.825h1.675v1.924h-2.05c-2.425,0-3.8-1-3.8-3.749Z" transform="translate(-4.416 -7.75)"/><path class="cls-4" d="M758.115,63.891a5.684,5.684,0,0,1,5.1,2.724v-2.5h2.3v13.7h-2.3V75.263a5.72,5.72,0,0,1-5.124,2.775c-3.649,0-6.474-2.875-6.474-7.124C751.616,66.64,754.441,63.891,758.115,63.891Zm.45,1.974c-2.5,0-4.624,1.825-4.624,5.049s2.124,5.124,4.624,5.124,4.649-1.874,4.649-5.1C763.214,67.765,761.064,65.865,758.565,65.865Z" transform="translate(-4.416 -7.75)"/><path class="cls-4" d="M781.715,63.891a5.973,5.973,0,0,1,5.073,2.674V59.317h2.3V77.812h-2.3V75.238a5.623,5.623,0,0,1-5.1,2.8c-3.675,0-6.5-2.875-6.5-7.124C775.191,66.64,778.015,63.891,781.715,63.891Zm.424,1.974c-2.5,0-4.623,1.825-4.623,5.049s2.124,5.124,4.623,5.124,4.649-1.874,4.649-5.1C786.788,67.765,784.639,65.865,782.139,65.865Z" transform="translate(-4.416 -7.75)"/><path class="cls-4" d="M798.865,78.038c-3.9,0-6.774-2.75-6.774-7.1,0-4.324,2.774-7.048,6.774-7.048a6.278,6.278,0,0,1,6.573,6.548,12.332,12.332,0,0,1-.075,1.375H794.415a4.307,4.307,0,0,0,4.45,4.3,3.765,3.765,0,0,0,3.849-2.525h2.449A6.159,6.159,0,0,1,798.865,78.038Zm-4.424-8.074h8.648a4.02,4.02,0,0,0-4.325-4.149A4.241,4.241,0,0,0,794.441,69.964Z" transform="translate(-4.416 -7.75)"/><path class="cls-4" d="M820.764,63.891a5.683,5.683,0,0,1,5.1,2.724v-2.5h2.3v13.7h-2.3V75.263a5.719,5.719,0,0,1-5.123,2.775c-3.65,0-6.474-2.875-6.474-7.124C814.266,66.64,817.09,63.891,820.764,63.891Zm.45,1.974c-2.5,0-4.624,1.825-4.624,5.049s2.125,5.124,4.624,5.124,4.649-1.874,4.649-5.1C825.863,67.765,823.714,65.865,821.214,65.865Z" transform="translate(-4.416 -7.75)"/><path class="cls-4" d="M839.414,63.891c3.674,0,6.5,2.749,6.5,7.023,0,4.249-2.824,7.124-6.5,7.124a5.924,5.924,0,0,1-5.124-2.75v9.023h-2.275v-20.2h2.275V66.64A5.785,5.785,0,0,1,839.414,63.891Zm-.475,1.974c-2.474,0-4.649,1.9-4.649,5.074,0,3.225,2.175,5.1,4.649,5.1,2.524,0,4.649-1.9,4.649-5.124S841.463,65.865,838.939,65.865Z" transform="translate(-4.416 -7.75)"/><path class="cls-4" d="M854.889,78.038c-3.874,0-6.823-2.75-6.823-7.1a6.924,6.924,0,1,1,13.846,0A6.792,6.792,0,0,1,854.889,78.038Zm0-2c2.374,0,4.7-1.625,4.7-5.1,0-3.449-2.275-5.074-4.624-5.074-2.4,0-4.574,1.625-4.574,5.074C850.39,74.413,852.514,76.038,854.889,76.038Z" transform="translate(-4.416 -7.75)"/><path class="cls-4" d="M864.54,60.342a1.525,1.525,0,1,1,1.55,1.55A1.526,1.526,0,0,1,864.54,60.342Zm.375,3.774h2.275v13.7h-2.275Z" transform="translate(-4.416 -7.75)"/><path class="cls-4" d="M877.038,78.038c-3.874,0-6.823-2.75-6.823-7.1a6.924,6.924,0,1,1,13.846,0A6.792,6.792,0,0,1,877.038,78.038Zm0-2c2.374,0,4.7-1.625,4.7-5.1,0-3.449-2.275-5.074-4.624-5.074-2.4,0-4.574,1.625-4.574,5.074C872.539,74.413,874.663,76.038,877.038,76.038Z" transform="translate(-4.416 -7.75)"/><path class="cls-4" d="M887.789,77.962a1.55,1.55,0,1,1,1.5-1.549A1.525,1.525,0,0,1,887.789,77.962Z" transform="translate(-4.416 -7.75)"/></g></svg>