<svg id="_1" data-name="1" xmlns="http://www.w3.org/2000/svg" viewBox="0 0 1017 682.85155"><defs><style>.cls-1{fill:#ec681c;}.cls-1,.cls-2,.cls-5{isolation:isolate;}.cls-3{fill:#cce3f1;}.cls-4{fill:#2f5579;}.cls-5{fill:#f7a613;}.cls-6{fill:#fff;}</style></defs><polygon class="cls-1" points="248.625 665.977 0 665.977 48.375 615.352 0 562.477 248.625 562.477 248.625 665.977"/><polygon class="cls-1" points="768.375 665.977 1017 665.977 968.625 615.352 1017 562.477 768.375 562.477 768.375 665.977"/><g class="cls-2"><circle class="cls-3" cx="760.35032" cy="123.40721" r="116.11391"/><path class="cls-3" d="M484.2755,479.39978A31.56776,31.56776,0,0,0,515.84326,447.832v-61.4355A113.22108,113.22108,0,0,1,621.42241,273.43906v-.26228H629.063A65.45761,65.45761,0,0,1,672.39822,289.669a137.06626,137.06626,0,0,0,175.26851,5.15525,64.70566,64.70566,0,0,1,68.25287-6.93648A145.85664,145.85664,0,0,1,997.89543,419.0427V669.18394a43.75973,43.75973,0,0,1-43.75973,43.75972h-.00011a43.75972,43.75972,0,0,1-43.75972-43.75972V427.6635a8.525,8.525,0,0,0-7.7804-8.6028,8.33587,8.33587,0,0,0-8.89,8.3172V692.715H621.42241V428.38051a9.234,9.234,0,0,0-8.42891-9.31841,9.02925,9.02925,0,0,0-9.62808,9.0117l.00927,32.22384a106.591,106.591,0,0,1-106.591,106.6217H376.80745V479.39978Z" transform="translate(-2.77043 -63.52345)"/></g><circle class="cls-4" cx="256.64968" cy="116.11391" r="116.11391"/><path class="cls-4" d="M538.26536,472.10649a31.56777,31.56777,0,0,1-31.56777-31.56777v-61.4355A113.22108,113.22108,0,0,0,401.11844,266.14576v-.26228h-7.64062a65.45765,65.45765,0,0,0-43.33519,16.49223A137.06628,137.06628,0,0,1,174.87412,287.531a64.70564,64.70564,0,0,0-68.25286-6.93648A145.85667,145.85667,0,0,0,24.64543,411.74941V661.89064a43.75971,43.75971,0,0,0,43.75972,43.75972h.00011A43.75971,43.75971,0,0,0,112.165,661.89064V420.3702a8.525,8.525,0,0,1,7.7804-8.6028,8.33588,8.33588,0,0,1,8.89,8.3172V685.42167H401.11844V421.08721a9.234,9.234,0,0,1,8.42891-9.3184,9.02924,9.02924,0,0,1,9.62808,9.01169l-.00927,32.22384a106.591,106.591,0,0,0,106.591,106.6217h96.38824V472.10649Z" transform="translate(-2.77043 -63.52345)"/><rect class="cls-5" x="113.0625" y="579.35155" width="790.875" height="103.5"/><path class="cls-6" d="M899.20825,738.875H123.33276v-88.5H899.20825Zm-774.87549-1H898.20825v-86.5H124.33276Z" transform="translate(-2.77043 -63.52345)"/><path class="cls-6" d="M153.43823,681.55176H159.593v25.26855h-6.15479Z" transform="translate(-2.77043 -63.52345)"/><path class="cls-6" d="M191.73853,695.91406c0-2.62793-1.51172-4.06836-3.85157-4.06836-2.33935,0-3.85156,1.44043-3.85156,4.06836v10.90625h-6.11914V695.91406c0-2.62793-1.51172-4.06836-3.85156-4.06836-2.33936,0-3.85157,1.44043-3.85157,4.06836v10.90625h-6.15478V686.73438h6.15478v2.5205a7.08609,7.08609,0,0,1,5.86768-2.73633,7.50208,7.50208,0,0,1,6.83887,3.74415,8.079,8.079,0,0,1,6.76709-3.74415c4.96777,0,8.1709,3.168,8.1709,8.56739v11.73437h-6.11914Z" transform="translate(-2.77043 -63.52345)"/><path class="cls-6" d="M214.52808,686.44727c4.93164,0,8.855,3.959,8.855,10.29394,0,6.33594-3.92334,10.36719-8.855,10.36719a7.22651,7.22651,0,0,1-6.19141-3.0957v12.38281h-6.15479V686.73438h6.15479v2.84374A7.08164,7.08164,0,0,1,214.52808,686.44727Zm-1.83594,5.36328c-2.30371,0-4.39111,1.76367-4.39111,4.96679,0,3.20411,2.0874,4.96778,4.39111,4.96778,2.33984,0,4.42773-1.79981,4.42773-5.00391C217.11987,693.53809,215.032,691.81055,212.69214,691.81055Z" transform="translate(-2.77043 -63.52345)"/><path class="cls-6" d="M235.76782,707.1084c-5.90332,0-10.3667-3.96-10.3667-10.33106s4.57129-10.33007,10.439-10.33007c5.90283,0,10.43847,3.959,10.43847,10.33007S241.67114,707.1084,235.76782,707.1084Zm0-5.32715c2.1958,0,4.24756-1.62012,4.24756-5.00391,0-3.41894-2.01562-5.00293-4.17529-5.00293-2.23194,0-4.17578,1.584-4.17578,5.00293C231.66431,700.16113,233.53638,701.78125,235.76782,701.78125Z" transform="translate(-2.77043 -63.52345)"/><path class="cls-6" d="M255.71167,706.82031h-6.15479V686.73438h6.15479V690.082a7.48915,7.48915,0,0,1,6.29932-3.56348v6.51563h-1.6919c-2.91553,0-4.60742,1.00781-4.60742,4.46289Z" transform="translate(-2.77043 -63.52345)"/><path class="cls-6" d="M265.93628,691.8457h-2.44775v-5.11132h2.44775v-4.89454h6.15527v4.89454h4.03125v5.11132h-4.03125v8.06348c0,1.1875.50391,1.69141,1.87158,1.69141h2.19581v5.21972h-3.13135c-4.17578,0-7.09131-1.76367-7.09131-6.9834Z" transform="translate(-2.77043 -63.52345)"/><path class="cls-6" d="M287.21118,686.44727a6.99158,6.99158,0,0,1,6.19141,3.13085v-2.84374h6.15478v20.08593h-6.15478v-2.84375a7.1033,7.1033,0,0,1-6.22754,3.13184c-4.89551,0-8.81885-4.03125-8.81885-10.36719C278.3562,690.40625,282.27954,686.44727,287.21118,686.44727Zm8.063-1.08008-5.5791-2.95215-5.57959,2.95215v-4.24805l5.57959-2.84277,5.5791,2.84277Zm-6.26318,6.44336c-2.30371,0-4.39161,1.72754-4.39161,4.93066,0,3.2041,2.0879,5.00391,4.39161,5.00391,2.33984,0,4.3916-1.76367,4.3916-4.96778C293.40259,693.57422,291.35083,691.81055,289.011,691.81055Z" transform="translate(-2.77043 -63.52345)"/><path class="cls-6" d="M317.88159,695.91406c0-2.73633-1.51172-4.248-3.85156-4.248-2.33936,0-3.85156,1.51171-3.85156,4.248v10.90625h-6.15479V686.73438h6.15479v2.66406a7.367,7.367,0,0,1,6.08349-2.87989c4.64356,0,7.73877,3.168,7.73877,8.56739v11.73437h-6.11914Z" transform="translate(-2.77043 -63.52345)"/><path class="cls-6" d="M337.14185,686.44727c5.03955,0,8.603,2.77148,9.647,7.55859h-6.55127a3.17359,3.17359,0,0,0-3.20361-2.30371c-2.19581,0-3.70752,1.72754-3.70752,5.07519s1.51171,5.0752,3.70752,5.0752a3.124,3.124,0,0,0,3.20361-2.30371h6.55127a9.32767,9.32767,0,0,1-9.647,7.55957c-5.90332,0-10.07862-3.96-10.07862-10.33106C327.06323,690.44238,331.23853,686.44727,337.14185,686.44727Z" transform="translate(-2.77043 -63.52345)"/><path class="cls-6" d="M349.491,681.33594a3.67123,3.67123,0,1,1,3.67138,3.31152A3.40552,3.40552,0,0,1,349.491,681.33594Zm.57617,5.39844h6.15478v20.08593h-6.15478Z" transform="translate(-2.77043 -63.52345)"/><path class="cls-6" d="M368.31812,686.44727a6.99156,6.99156,0,0,1,6.1914,3.13085v-2.84374h6.15479v20.08593h-6.15479v-2.84375a7.10329,7.10329,0,0,1-6.22754,3.13184c-4.89551,0-8.81885-4.03125-8.81885-10.36719C359.46313,690.40625,363.38647,686.44727,368.31812,686.44727Zm1.7998,5.36328c-2.30371,0-4.3916,1.72754-4.3916,4.93066,0,3.2041,2.08789,5.00391,4.3916,5.00391,2.33984,0,4.3916-1.76367,4.3916-4.96778C374.50952,693.57422,372.45776,691.81055,370.11792,691.81055Z" transform="translate(-2.77043 -63.52345)"/><path class="cls-6" d="M400.39331,686.44727a7.37341,7.37341,0,0,1,6.19141,3.05957v-9.32325h6.15478v26.63672h-6.15478v-2.87988a6.94772,6.94772,0,0,1-6.19141,3.168c-4.93164,0-8.855-4.03125-8.855-10.36719C391.53833,690.40625,395.46167,686.44727,400.39331,686.44727Zm1.79981,5.36328c-2.30372,0-4.39161,1.72754-4.39161,4.93066,0,3.2041,2.08789,5.00391,4.39161,5.00391,2.33984,0,4.3916-1.76367,4.3916-4.96778C406.58472,693.57422,404.533,691.81055,402.19312,691.81055Z" transform="translate(-2.77043 -63.52345)"/><path class="cls-6" d="M426.34839,707.1084c-5.90332,0-10.3667-3.96-10.3667-10.33106s4.57129-10.33007,10.439-10.33007c5.90284,0,10.43848,3.959,10.43848,10.33007S432.25171,707.1084,426.34839,707.1084Zm0-5.32715c2.1958,0,4.24756-1.62012,4.24756-5.00391,0-3.41894-2.01563-5.00293-4.1753-5.00293-2.23193,0-4.17578,1.584-4.17578,5.00293C422.24487,700.16113,424.11694,701.78125,426.34839,701.78125Z" transform="translate(-2.77043 -63.52345)"/><path class="cls-6" d="M456.696,707.1084c-5.90332,0-10.15087-3.96-10.15087-10.33106s4.17578-10.33007,10.15087-10.33007c5.86719,0,10.00684,3.88671,10.00684,10.00585a15.48448,15.48448,0,0,1-.1084,1.79981H452.66431c.21631,2.62793,1.83593,3.85156,3.81543,3.85156a3.272,3.272,0,0,0,3.20361-1.94336h6.55127C465.26294,704.085,461.69946,707.1084,456.696,707.1084Zm-3.9956-12.27442h7.70312a3.4728,3.4728,0,0,0-3.77978-3.45605A3.80745,3.80745,0,0,0,452.70044,694.834Z" transform="translate(-2.77043 -63.52345)"/><path class="cls-6" d="M483.803,695.91406c0-2.73633-1.51172-4.248-3.85156-4.248-2.33936,0-3.85157,1.51171-3.85157,4.248v10.90625h-6.15478V686.73438h6.15478v2.66406a7.367,7.367,0,0,1,6.0835-2.87989c4.64355,0,7.73877,3.168,7.73877,8.56739v11.73437H483.803Z" transform="translate(-2.77043 -63.52345)"/><path class="cls-6" d="M498.88794,686.73438l4.35547,14.32617,4.35547-14.32617h6.55127l-7.12744,20.08593H499.428l-7.12744-20.08593Z" transform="translate(-2.77043 -63.52345)"/><path class="cls-6" d="M525.887,707.1084c-5.90332,0-10.3667-3.96-10.3667-10.33106s4.57129-10.33007,10.439-10.33007c5.90283,0,10.43848,3.959,10.43848,10.33007S531.79028,707.1084,525.887,707.1084Zm0-5.32715c2.1958,0,4.24756-1.62012,4.24756-5.00391,0-3.41894-2.01562-5.00293-4.17529-5.00293-2.23194,0-4.17578,1.584-4.17578,5.00293C521.78345,700.16113,523.65552,701.78125,525.887,701.78125Z" transform="translate(-2.77043 -63.52345)"/><path class="cls-6" d="M539.676,680.18359h6.15478v26.63672H539.676Z" transform="translate(-2.77043 -63.52345)"/><path class="cls-6" d="M554.97534,686.73438l4.35547,14.32617,4.35547-14.32617h6.55127l-7.12744,20.08593h-7.59473l-7.12744-20.08593Z" transform="translate(-2.77043 -63.52345)"/><path class="cls-6" d="M572.25562,681.33594a3.67122,3.67122,0,1,1,3.67138,3.31152A3.40552,3.40552,0,0,1,572.25562,681.33594Zm.57617,5.39844h6.15478v20.08593h-6.15478Z" transform="translate(-2.77043 -63.52345)"/><path class="cls-6" d="M611.13208,695.91406c0-2.62793-1.51172-4.06836-3.85156-4.06836-2.33936,0-3.85156,1.44043-3.85156,4.06836v10.90625h-6.11915V695.91406c0-2.62793-1.51171-4.06836-3.85156-4.06836-2.33935,0-3.85156,1.44043-3.85156,4.06836v10.90625H583.4519V686.73438h6.15479v2.5205a7.08609,7.08609,0,0,1,5.86768-2.73633,7.50206,7.50206,0,0,1,6.83886,3.74415,8.079,8.079,0,0,1,6.76709-3.74415c4.96778,0,8.1709,3.168,8.1709,8.56739v11.73437h-6.11914Z" transform="translate(-2.77043 -63.52345)"/><path class="cls-6" d="M630.5022,707.1084c-5.90332,0-10.15088-3.96-10.15088-10.33106s4.17529-10.33007,10.15088-10.33007c5.86718,0,10.00683,3.88671,10.00683,10.00585a15.48448,15.48448,0,0,1-.1084,1.79981H626.47046c.21631,2.62793,1.83594,3.85156,3.81592,3.85156a3.2717,3.2717,0,0,0,3.20312-1.94336h6.55127C639.06909,704.085,635.50562,707.1084,630.5022,707.1084ZM626.50659,694.834h7.70313a3.47281,3.47281,0,0,0-3.77979-3.45605A3.80746,3.80746,0,0,0,626.50659,694.834Z" transform="translate(-2.77043 -63.52345)"/><path class="cls-6" d="M657.60913,695.91406c0-2.73633-1.51172-4.248-3.85156-4.248-2.33936,0-3.85156,1.51171-3.85156,4.248v10.90625h-6.15479V686.73438H649.906v2.66406a7.367,7.367,0,0,1,6.08349-2.87989c4.64356,0,7.73877,3.168,7.73877,8.56739v11.73437h-6.11914Z" transform="translate(-2.77043 -63.52345)"/><path class="cls-6" d="M668.98657,691.8457h-2.44775v-5.11132h2.44775v-4.89454h6.15528v4.89454h4.03125v5.11132h-4.03125v8.06348c0,1.1875.5039,1.69141,1.87158,1.69141h2.1958v5.21972h-3.13135c-4.17578,0-7.09131-1.76367-7.09131-6.9834Z" transform="translate(-2.77043 -63.52345)"/><path class="cls-6" d="M691.77319,707.1084c-5.90332,0-10.3667-3.96-10.3667-10.33106s4.57129-10.33007,10.439-10.33007c5.90283,0,10.43848,3.959,10.43848,10.33007S697.67651,707.1084,691.77319,707.1084Zm0-5.32715c2.1958,0,4.24756-1.62012,4.24756-5.00391,0-3.41894-2.01562-5.00293-4.17529-5.00293-2.23193,0-4.17578,1.584-4.17578,5.00293C687.66968,700.16113,689.54175,701.78125,691.77319,701.78125Z" transform="translate(-2.77043 -63.52345)"/><path class="cls-6" d="M720.82495,686.44727a7.3734,7.3734,0,0,1,6.19141,3.05957v-9.32325h6.15478v26.63672h-6.15478v-2.87988a6.94772,6.94772,0,0,1-6.19141,3.168c-4.93164,0-8.855-4.03125-8.855-10.36719C711.97,690.40625,715.89331,686.44727,720.82495,686.44727Zm1.79981,5.36328c-2.30372,0-4.39161,1.72754-4.39161,4.93066,0,3.2041,2.08789,5.00391,4.39161,5.00391,2.33984,0,4.3916-1.76367,4.3916-4.96778C727.01636,693.57422,724.9646,691.81055,722.62476,691.81055Z" transform="translate(-2.77043 -63.52345)"/><path class="cls-6" d="M746.56372,707.1084c-5.90332,0-10.15039-3.96-10.15039-10.33106s4.17578-10.33007,10.15039-10.33007c5.86719,0,10.00684,3.88671,10.00684,10.00585a15.6977,15.6977,0,0,1-.10743,1.79981H742.53247c.21582,2.62793,1.83594,3.85156,3.81543,3.85156a3.27218,3.27218,0,0,0,3.2041-1.94336h6.55078C755.1311,704.085,751.56763,707.1084,746.56372,707.1084ZM742.5686,694.834h7.70313a3.4724,3.4724,0,0,0-3.7793-3.45605A3.80823,3.80823,0,0,0,742.5686,694.834Z" transform="translate(-2.77043 -63.52345)"/><path class="cls-6" d="M768.41626,691.8457H765.969v-5.11132h2.44727v-4.89454h6.15527v4.89454h4.03223v5.11132h-4.03223v8.06348c0,1.1875.50391,1.69141,1.87207,1.69141h2.19629v5.21972h-3.13183c-4.17578,0-7.0918-1.76367-7.0918-6.9834Z" transform="translate(-2.77043 -63.52345)"/><path class="cls-6" d="M791.20337,707.1084c-5.90332,0-10.36719-3.96-10.36719-10.33106s4.57129-10.33007,10.43848-10.33007c5.90332,0,10.43847,3.959,10.43847,10.33007S797.10571,707.1084,791.20337,707.1084Zm0-5.32715c2.19531,0,4.24707-1.62012,4.24707-5.00391,0-3.41894-2.01563-5.00293-4.17578-5.00293-2.23145,0-4.17481,1.584-4.17481,5.00293C787.09985,700.16113,788.971,701.78125,791.20337,701.78125Z" transform="translate(-2.77043 -63.52345)"/><path class="cls-6" d="M812.62231,686.44727a7.3721,7.3721,0,0,1,6.19141,3.05957v-9.32325H824.969v26.63672h-6.15527v-2.87988a6.946,6.946,0,0,1-6.19141,3.168c-4.93066,0-8.85449-4.03125-8.85449-10.36719C803.76782,690.40625,807.69165,686.44727,812.62231,686.44727Zm1.79981,5.36328c-2.30371,0-4.39063,1.72754-4.39063,4.93066,0,3.2041,2.08692,5.00391,4.39063,5.00391,2.33984,0,4.3916-1.76367,4.3916-4.96778C818.81372,693.57422,816.762,691.81055,814.42212,691.81055Z" transform="translate(-2.77043 -63.52345)"/><path class="cls-6" d="M838.57837,707.1084c-5.90332,0-10.36719-3.96-10.36719-10.33106s4.57129-10.33007,10.43848-10.33007c5.90332,0,10.43847,3.959,10.43847,10.33007S844.48071,707.1084,838.57837,707.1084Zm0-5.32715c2.19531,0,4.24707-1.62012,4.24707-5.00391,0-3.41894-2.01563-5.00293-4.17578-5.00293-2.23145,0-4.17481,1.584-4.17481,5.00293C834.47485,700.16113,836.346,701.78125,838.57837,701.78125Z" transform="translate(-2.77043 -63.52345)"/><path class="cls-6" d="M860.53735,707.1084c-5.36328,0-8.96289-2.98731-9.25-6.875h6.083c.14356,1.40332,1.40332,2.33984,3.0957,2.33984,1.583,0,2.41114-.7207,2.41114-1.62012,0-3.23925-10.94239-.90039-10.94239-8.27929,0-3.41895,2.916-6.22656,8.1709-6.22656,5.1836,0,8.06348,2.8789,8.459,6.83886h-5.6875a2.64676,2.64676,0,0,0-2.95117-2.26758c-1.44043,0-2.23243.5752-2.23243,1.54786,0,3.20312,10.8711.93554,10.9795,8.42285C868.6731,704.48047,865.57739,707.1084,860.53735,707.1084Z" transform="translate(-2.77043 -63.52345)"/><path class="cls-6" d="M875.33423,707.1084a3.35908,3.35908,0,1,1,3.63574-3.31152A3.4,3.4,0,0,1,875.33423,707.1084Z" transform="translate(-2.77043 -63.52345)"/></svg>