<svg id="Camada_2" data-name="Camada 2" xmlns="http://www.w3.org/2000/svg" viewBox="0 0 686.6064 239.4687"><defs><style>.cls-1{fill:#f7a717;}.cls-2{fill:#cce3f1;}.cls-3{fill:#307840;}.cls-4{fill:#818282;}.cls-5{fill:#294767;}.cls-6{fill:#1d1d1b;}</style></defs><path class="cls-1" d="M75.6005,200.6246l-16.76,20.1879c.1657.13.3355.2557.5018.385,5.8191-7.0876,12.3058-15.2616,16.4035-20.4611C75.6978,200.699,75.649,200.6624,75.6005,200.6246Z" transform="translate(-13.0318 -6.8843)"/><path class="cls-2" d="M132.7659,33.1036q2.3631,0,4.6976.1174c.0049-8.009-.05-17.6479-.1166-26.2408-1.5207-.0573-3.0461-.0958-4.581-.0958A119.1707,119.1707,0,0,0,64.594,28.1838L78.3118,50.59A93.0852,93.0852,0,0,1,132.7659,33.1036Z" transform="translate(-13.0318 -6.8843)"/><path class="cls-1" d="M137.4634,33.221a93.5119,93.5119,0,0,1,56.0072,164.5262l15.555,21.1817A119.73,119.73,0,0,0,137.3468,6.98C137.4134,15.5729,137.4683,25.212,137.4634,33.221Z" transform="translate(-13.0318 -6.8843)"/><path class="cls-3" d="M132.7659,220.1337a93.1014,93.1014,0,0,1-57.02-19.3971c-4.0977,5.2-10.5844,13.3735-16.4036,20.4611a119.7374,119.7374,0,0,0,149.683-2.2687l-15.5551-21.1817A93.14,93.14,0,0,1,132.7659,220.1337Z" transform="translate(-13.0318 -6.8843)"/><path class="cls-4" d="M39.2511,126.6185H13.0319a119.5232,119.5232,0,0,0,45.8088,94.194l16.76-20.1879A93.3531,93.3531,0,0,1,39.2511,126.6185Z" transform="translate(-13.0318 -6.8843)"/><path class="cls-5" d="M13.0319,126.6185H39.2511A93.391,93.391,0,0,1,78.3118,50.59L64.594,28.1838A119.5912,119.5912,0,0,0,13.0319,126.6185Z" transform="translate(-13.0318 -6.8843)"/><circle class="cls-1" cx="275.7029" cy="33.0067" r="8.1879"/><circle class="cls-3" cx="275.7029" cy="76.3774" r="8.1879"/><circle class="cls-4" cx="275.7029" cy="119.748" r="8.1879"/><circle class="cls-5" cx="275.7029" cy="163.1186" r="8.1879"/><circle class="cls-2" cx="275.7029" cy="206.4893" r="8.1879"/><path class="cls-6" d="M318.5268,45.3066a6.0908,6.0908,0,0,1-6.2-6.3067,6.2011,6.2011,0,1,1,12.4,0A6.08,6.08,0,0,1,318.5268,45.3066Zm0-1.4c2.6045,0,4.5528-1.8955,4.5528-4.9072,0-3.0293-1.9483-4.9072-4.5528-4.9072S313.9741,35.9706,313.9741,39C313.9741,42.0116,315.9233,43.9071,318.5268,43.9071Z" transform="translate(-13.0318 -6.8843)"/><path class="cls-6" d="M335.4624,45.1825H333.85v-1.435a3.5685,3.5685,0,0,1-3.1,1.5766,3.7874,3.7874,0,0,1-3.9864-4.1631V35.4745h1.5948v5.4741c0,1.9664,1.08,2.9761,2.71,2.9761,1.666,0,2.7813-1.0273,2.7813-3.1177V35.4745h1.6123Z" transform="translate(-13.0318 -6.8843)"/><path class="cls-6" d="M338.5454,36.8031h-1.2578V35.4745h1.2578V33.03h1.6113v2.4448h2.5342v1.3286h-2.5342v5.7222c0,.9565.3545,1.293,1.3467,1.293h1.1875v1.3642h-1.4531c-1.7188,0-2.6924-.7085-2.6924-2.6572Z" transform="translate(-13.0318 -6.8843)"/><path class="cls-6" d="M346.2515,45.1825h-1.6124v-9.708h1.6124v1.5767a3.2685,3.2685,0,0,1,3.1357-1.7539v1.665h-.4258c-1.541,0-2.71.6909-2.71,2.9409Z" transform="translate(-13.0318 -6.8843)"/><path class="cls-6" d="M355.48,45.3422a4.7131,4.7131,0,0,1-4.836-5.0313,4.908,4.908,0,1,1,9.8145,0A4.8139,4.8139,0,0,1,355.48,45.3422Zm0-1.4175a3.2956,3.2956,0,0,0,3.331-3.6138,3.2614,3.2614,0,0,0-3.2773-3.5961c-1.7012,0-3.2422,1.1513-3.2422,3.5961C352.2915,42.7734,353.7973,43.9247,355.48,43.9247Z" transform="translate(-13.0318 -6.8843)"/><path class="cls-6" d="M366.02,45.3422c-2.2676,0-3.8623-1.24-3.9678-3.0117h1.6651c.0888.9389.9209,1.6474,2.2851,1.6474,1.2754,0,1.9844-.6377,1.9844-1.435,0-2.1612-5.74-.9033-5.74-4.5176,0-1.4878,1.3994-2.71,3.56-2.71,2.1436,0,3.5615,1.1518,3.668,3.0473h-1.6123a1.8676,1.8676,0,0,0-2.1084-1.6831c-1.1865,0-1.8955.5669-1.8955,1.3462,0,2.3032,5.6338,1.0454,5.7041,4.5176C369.563,44.1371,368.1636,45.3422,366.02,45.3422Z" transform="translate(-13.0318 -6.8843)"/><path class="cls-6" d="M376.9145,36.8031h-1.2578V35.4745h1.2578V33.03h1.6114v2.4448H381.06v1.3286h-2.5341v5.7222c0,.9565.3545,1.293,1.3466,1.293H381.06v1.3642h-1.4531c-1.7187,0-2.6924-.7085-2.6924-2.6572Z" transform="translate(-13.0318 -6.8843)"/><path class="cls-6" d="M384.6206,45.1825h-1.6123v-9.708h1.6123v1.5767a3.2685,3.2685,0,0,1,3.1357-1.7539v1.665h-.4257c-1.5411,0-2.71.6909-2.71,2.9409Z" transform="translate(-13.0318 -6.8843)"/><path class="cls-6" d="M393.62,35.3149a4.0275,4.0275,0,0,1,3.6133,1.9311V35.4745h1.63v9.708h-1.63V43.3754a4.0529,4.0529,0,0,1-3.6318,1.9668c-2.586,0-4.5879-2.0376-4.5879-5.0493C389.0132,37.2636,391.0151,35.3149,393.62,35.3149Zm.3184,1.4a3.2776,3.2776,0,0,0-3.2774,3.5781,3.3018,3.3018,0,1,0,6.5723.018A3.326,3.326,0,0,0,393.938,36.7148Z" transform="translate(-13.0318 -6.8843)"/><path class="cls-6" d="M408.6938,39.6908c0-1.9843-1.08-2.9941-2.71-2.9941-1.6475,0-2.7813,1.0278-2.7813,3.1182v5.3676H401.59v-9.708h1.6123v1.3819a3.5856,3.5856,0,0,1,3.1172-1.5591c2.25,0,3.9688,1.3818,3.9688,4.1631v5.7221h-1.5948Z" transform="translate(-13.0318 -6.8843)"/><path class="cls-6" d="M416.3638,45.3422c-2.2676,0-3.8623-1.24-3.9678-3.0117h1.665c.0889.9389.9209,1.6474,2.2852,1.6474,1.2754,0,1.9844-.6377,1.9844-1.435,0-2.1612-5.74-.9033-5.74-4.5176,0-1.4878,1.3994-2.71,3.5606-2.71,2.1435,0,3.5615,1.1518,3.6679,3.0473h-1.6123a1.8675,1.8675,0,0,0-2.1084-1.6831c-1.1865,0-1.8955.5669-1.8955,1.3462,0,2.3032,5.6338,1.0454,5.7041,4.5176C419.9067,44.1371,418.5073,45.3422,416.3638,45.3422Z" transform="translate(-13.0318 -6.8843)"/><path class="cls-6" d="M422.5288,36.8031H421.271V35.4745h1.2578V33.03H424.14v2.4448h2.5342v1.3286H424.14v5.7222c0,.9565.3545,1.293,1.3467,1.293h1.1875v1.3642h-1.4531c-1.7188,0-2.6924-.7085-2.6924-2.6572Z" transform="translate(-13.0318 -6.8843)"/><path class="cls-6" d="M432.8559,45.3422a4.7131,4.7131,0,0,1-4.8359-5.0313,4.908,4.908,0,1,1,9.8145,0A4.814,4.814,0,0,1,432.8559,45.3422Zm0-1.4175a3.2956,3.2956,0,0,0,3.3311-3.6138,3.2614,3.2614,0,0,0-3.2773-3.5961c-1.7012,0-3.2422,1.1513-3.2422,3.5961C429.6675,42.7734,431.1733,43.9247,432.8559,43.9247Z" transform="translate(-13.0318 -6.8843)"/><path class="cls-6" d="M441.5727,45.1825H439.96v-9.708h1.6123v1.5767a3.2687,3.2687,0,0,1,3.1358-1.7539v1.665h-.4258c-1.541,0-2.71.6909-2.71,2.9409Z" transform="translate(-13.0318 -6.8843)"/><path class="cls-6" d="M453.6714,39.6908c0-1.9843-1.08-2.9941-2.71-2.9941-1.6474,0-2.7812,1.0278-2.7812,3.1182v5.3676h-1.6123v-9.708H448.18v1.3819a3.5854,3.5854,0,0,1,3.1171-1.5591c2.25,0,3.9688,1.3818,3.9688,4.1631v5.7221h-1.5947Z" transform="translate(-13.0318 -6.8843)"/><path class="cls-6" d="M462.1391,45.3422a4.7131,4.7131,0,0,1-4.8359-5.0313,4.908,4.908,0,1,1,9.8145,0A4.814,4.814,0,0,1,462.1391,45.3422Zm0-1.4175a3.2956,3.2956,0,0,0,3.3311-3.6138,3.2614,3.2614,0,0,0-3.2773-3.5961c-1.7012,0-3.2422,1.1513-3.2422,3.5961C458.9507,42.7734,460.4565,43.9247,462.1391,43.9247Z" transform="translate(-13.0318 -6.8843)"/><path class="cls-6" d="M472.68,45.3422c-2.2676,0-3.8623-1.24-3.9678-3.0117h1.665c.0889.9389.9209,1.6474,2.2852,1.6474,1.2754,0,1.9844-.6377,1.9844-1.435,0-2.1612-5.74-.9033-5.74-4.5176,0-1.4878,1.3994-2.71,3.5606-2.71,2.1435,0,3.5615,1.1518,3.6679,3.0473h-1.6123a1.8675,1.8675,0,0,0-2.1084-1.6831c-1.1865,0-1.8955.5669-1.8955,1.3462,0,2.3032,5.6338,1.0454,5.7041,4.5176C476.2231,44.1371,474.8237,45.3422,472.68,45.3422Z" transform="translate(-13.0318 -6.8843)"/><path class="cls-6" d="M487.2241,35.3149a4.0276,4.0276,0,0,1,3.6133,1.9311V35.4745h1.63v9.708h-1.63V43.3754a4.0529,4.0529,0,0,1-3.6318,1.9668c-2.586,0-4.5879-2.0376-4.5879-5.0493C482.6177,37.2636,484.62,35.3149,487.2241,35.3149Zm.3184,1.4a3.2776,3.2776,0,0,0-3.2774,3.5781,3.3018,3.3018,0,1,0,6.5723.018A3.326,3.326,0,0,0,487.5425,36.7148Z" transform="translate(-13.0318 -6.8843)"/><path class="cls-6" d="M502.2983,39.6908c0-1.9843-1.08-2.9941-2.71-2.9941-1.6475,0-2.7813,1.0278-2.7813,3.1182v5.3676h-1.6123v-9.708h1.6123v1.3819a3.5856,3.5856,0,0,1,3.1172-1.5591c2.25,0,3.9688,1.3818,3.9688,4.1631v5.7221h-1.5948Z" transform="translate(-13.0318 -6.8843)"/><path class="cls-6" d="M509.9692,45.3422c-2.2676,0-3.8623-1.24-3.9677-3.0117h1.665c.0889.9389.9209,1.6474,2.2851,1.6474,1.2754,0,1.9844-.6377,1.9844-1.435,0-2.1612-5.74-.9033-5.74-4.5176,0-1.4878,1.3994-2.71,3.56-2.71,2.1436,0,3.5616,1.1518,3.668,3.0473H511.812a1.8675,1.8675,0,0,0-2.1084-1.6831c-1.1865,0-1.8955.5669-1.8955,1.3462,0,2.3032,5.6338,1.0454,5.7041,4.5176C513.5122,44.1371,512.1128,45.3422,509.9692,45.3422Z" transform="translate(-13.0318 -6.8843)"/><path class="cls-6" d="M515.5141,32.7992a1.0808,1.0808,0,1,1,1.0977,1.0987A1.0817,1.0817,0,0,1,515.5141,32.7992Zm.2657,2.6753h1.6123v9.708H515.78Z" transform="translate(-13.0318 -6.8843)"/><path class="cls-6" d="M524.3706,45.3422a4.7131,4.7131,0,0,1-4.8359-5.0313,4.908,4.908,0,1,1,9.8144,0A4.8139,4.8139,0,0,1,524.3706,45.3422Zm0-1.4175a3.2956,3.2956,0,0,0,3.331-3.6138,3.2614,3.2614,0,0,0-3.2773-3.5961c-1.7012,0-3.2422,1.1513-3.2422,3.5961C521.1821,42.7734,522.688,43.9247,524.3706,43.9247Z" transform="translate(-13.0318 -6.8843)"/><path class="cls-6" d="M534.9106,45.3422c-2.2675,0-3.8623-1.24-3.9677-3.0117h1.665c.0889.9389.9209,1.6474,2.2852,1.6474,1.2753,0,1.9843-.6377,1.9843-1.435,0-2.1612-5.74-.9033-5.74-4.5176,0-1.4878,1.3994-2.71,3.5605-2.71,2.1436,0,3.5616,1.1518,3.668,3.0473h-1.6123a1.8675,1.8675,0,0,0-2.1084-1.6831c-1.1865,0-1.8955.5669-1.8955,1.3462,0,2.3032,5.6338,1.0454,5.7041,4.5176C538.4536,44.1371,537.0542,45.3422,534.9106,45.3422Z" transform="translate(-13.0318 -6.8843)"/><path class="cls-6" d="M544.9546,45.3422a4.7132,4.7132,0,0,1-4.836-5.0313,4.908,4.908,0,1,1,9.8145,0A4.8139,4.8139,0,0,1,544.9546,45.3422Zm0-1.4175a3.2956,3.2956,0,0,0,3.331-3.6138,3.2614,3.2614,0,0,0-3.2773-3.5961c-1.7012,0-3.2422,1.1513-3.2422,3.5961C541.7661,42.7734,543.272,43.9247,544.9546,43.9247Z" transform="translate(-13.0318 -6.8843)"/><path class="cls-6" d="M555.4946,45.3422c-2.2676,0-3.8623-1.24-3.9678-3.0117h1.6651c.0888.9389.9209,1.6474,2.2851,1.6474,1.2754,0,1.9844-.6377,1.9844-1.435,0-2.1612-5.74-.9033-5.74-4.5176,0-1.4878,1.3994-2.71,3.5605-2.71,2.1436,0,3.5615,1.1518,3.668,3.0473h-1.6123a1.8675,1.8675,0,0,0-2.1084-1.6831c-1.1865,0-1.8955.5669-1.8955,1.3462,0,2.3032,5.6338,1.0454,5.7041,4.5176C559.0376,44.1371,557.6382,45.3422,555.4946,45.3422Z" transform="translate(-13.0318 -6.8843)"/><path class="cls-6" d="M561.8188,37.7065a1.099,1.099,0,1,1,1.0625-1.0982A1.0816,1.0816,0,0,1,561.8188,37.7065Zm0,7.5825a1.099,1.099,0,1,1,1.0625-1.0987A1.082,1.082,0,0,1,561.8188,45.289Z" transform="translate(-13.0318 -6.8843)"/><path class="cls-6" d="M573.7056,32.1264c2.498,0,3.8613,1.4526,3.8613,3.2949a2.8947,2.8947,0,0,1-2.2676,2.9229v.0888a3.1185,3.1185,0,0,1,2.498,3.2949c0,1.9844-1.3818,3.543-4.0566,3.543-2.4267,0-4.2344-1.293-4.4287-3.7734h1.5586a2.6582,2.6582,0,0,0,2.8525,2.41,2.24,2.24,0,0,0,2.5332-2.3208c0-1.8071-1.2578-2.498-3.5605-2.498h-.4072V37.7421h.4248c2.1435-.0176,3.2949-.6733,3.2949-2.1611,0-1.2227-.8145-2.0728-2.3565-2.0728a2.352,2.352,0,0,0-2.5683,2.09h-1.5772C569.6665,33.4018,571.3315,32.1264,573.7056,32.1264Z" transform="translate(-13.0318 -6.8843)"/><path class="cls-6" d="M587.1147,35.4213a2.2091,2.2091,0,0,0-2.4267-1.9663c-2.0371,0-3.1358,1.3994-3.1182,5.2085a3.6625,3.6625,0,0,1,3.4727-1.9668c2.3916,0,4.0039,1.5767,4.0039,4.27a3.9392,3.9392,0,0,1-4.1807,4.252c-3.792,0-4.6953-2.7285-4.6953-6.6079,0-4.0215,1.2939-6.502,4.5352-6.502a3.6171,3.6171,0,0,1,3.8974,3.313Zm-5.35,5.4209a2.8028,2.8028,0,0,0,3.0117,3.0293,2.5972,2.5972,0,0,0,2.71-2.8521c0-1.8071-.9385-2.9585-2.7812-2.9585A2.7222,2.7222,0,0,0,581.7651,40.8422Z" transform="translate(-13.0318 -6.8843)"/><path class="cls-6" d="M591.3843,42.9506h1.7714l-1.9843,4.7651h-1.08Z" transform="translate(-13.0318 -6.8843)"/><path class="cls-6" d="M595.0161,35.581c0-1.878,1.417-3.4014,4.1982-3.4014s4.2168,1.541,4.2168,3.4014a3.0779,3.0779,0,0,1-2.0556,2.94,3.2255,3.2255,0,0,1,2.3916,3.2065c0,2.3208-1.8418,3.8091-4.5528,3.8091-2.6923,0-4.5175-1.4883-4.5175-3.8091a3.2019,3.2019,0,0,1,2.374-3.2065A2.9782,2.9782,0,0,1,595.0161,35.581Zm1.2227,6.0937c0,1.5059,1.1513,2.5156,2.9755,2.5156s2.959-1.0273,2.959-2.5156c0-1.6474-1.2754-2.4448-2.959-2.4448C597.5669,39.23,596.2388,39.974,596.2388,41.6747Zm5.6328-5.8989c0-1.4707-1.045-2.25-2.6573-2.25-1.5761,0-2.64.7617-2.64,2.2676,0,1.3286,1.081,2.1967,2.64,2.1967C600.7915,37.99,601.8716,37.1044,601.8716,35.7758Z" transform="translate(-13.0318 -6.8843)"/><path class="cls-6" d="M610.3745,32.18c3.5254,0,4.4463,2.7988,4.4463,6.4658,0,3.72-.9209,6.5371-4.4463,6.5371-3.543,0-4.4639-2.8169-4.4639-6.5371C605.9106,34.9784,606.8315,32.18,610.3745,32.18Zm0,1.47c-2.5332,0-2.87,2.3384-2.87,4.9956,0,2.7637.3369,5.0669,2.87,5.0669,2.5156,0,2.8525-2.3032,2.8525-5.0669C613.227,35.9882,612.89,33.65,610.3745,33.65Z" transform="translate(-13.0318 -6.8843)"/><path class="cls-6" d="M619.2671,32.6225a2.4689,2.4689,0,0,1,2.5869,2.64,2.587,2.587,0,1,1-2.5869-2.64Zm-1.293,2.64c0,1.0982.5137,1.6651,1.293,1.6651s1.3115-.5669,1.3115-1.6651c0-1.1162-.5313-1.6479-1.3115-1.6479S617.9741,34.1459,617.9741,35.2621Zm7.458-2.4448h1.5947L619.852,45.1825h-1.5947Zm.62,7.2632a2.6582,2.6582,0,1,1-2.5859,2.6572A2.47,2.47,0,0,1,626.0522,40.0805Zm-1.3281,2.6572c0,1.0986.5313,1.63,1.3106,1.63s1.3115-.5313,1.3115-1.63c0-1.1162-.5322-1.6475-1.3115-1.6475S624.7241,41.6215,624.7241,42.7377Z" transform="translate(-13.0318 -6.8843)"/><path class="cls-6" d="M319.5727,77.977h-5.0312v4.1274h4.499V83.433h-4.499v4.252h5.0312v1.3286h-6.6435V76.6484h6.6435Z" transform="translate(-13.0318 -6.8843)"/><path class="cls-6" d="M327.2593,79.1459c2.6045,0,4.6064,1.9487,4.6064,4.978,0,3.0118-2.0019,5.0494-4.6064,5.0494a4.1979,4.1979,0,0,1-3.6309-1.9488V93.62h-1.6123V79.3056h1.6123v1.789A4.0993,4.0993,0,0,1,327.2593,79.1459Zm-.336,1.4a3.62,3.62,0,1,0,3.2949,3.5781A3.2809,3.2809,0,0,0,326.9233,80.5458Z" transform="translate(-13.0318 -6.8843)"/><path class="cls-6" d="M333.7251,76.63a1.0807,1.0807,0,1,1,1.0976,1.0986A1.0817,1.0817,0,0,1,333.7251,76.63Zm.2656,2.6753h1.6123v9.708h-1.6123Z" transform="translate(-13.0318 -6.8843)"/><path class="cls-6" d="M341.7847,89.1733c-2.2676,0-3.8624-1.24-3.9678-3.0118h1.665c.0889.939.9209,1.6475,2.2852,1.6475,1.2754,0,1.9844-.6377,1.9844-1.4351,0-2.1611-5.74-.9033-5.74-4.5175,0-1.4878,1.3994-2.71,3.5606-2.71,2.1435,0,3.5615,1.1519,3.6679,3.0474h-1.6123A1.8675,1.8675,0,0,0,341.519,80.51c-1.1865,0-1.8955.5669-1.8955,1.3462,0,2.3032,5.6338,1.0454,5.7041,4.5175C345.3276,87.9682,343.9282,89.1733,341.7847,89.1733Z" transform="translate(-13.0318 -6.8843)"/><path class="cls-6" d="M351.8286,89.1733a5.0143,5.0143,0,1,1,4.9785-5.0313A4.8139,4.8139,0,0,1,351.8286,89.1733Zm0-1.4175A3.2957,3.2957,0,0,0,355.16,84.142a3.2616,3.2616,0,0,0-3.2774-3.5962c-1.7012,0-3.2422,1.1514-3.2422,3.5962C348.64,86.6044,350.146,87.7558,351.8286,87.7558Zm1.8076-12.72v1.4l-3.7734,2.0195V77.25Z" transform="translate(-13.0318 -6.8843)"/><path class="cls-6" d="M362.9546,79.1459a4.2335,4.2335,0,0,1,3.5957,1.8955V75.9042h1.63V89.0136h-1.63V87.1889a3.9859,3.9859,0,0,1-3.6133,1.9844c-2.6045,0-4.6064-2.0376-4.6064-5.0494C358.3306,81.0946,360.3325,79.1459,362.9546,79.1459Zm.3008,1.4a3.2777,3.2777,0,0,0-3.2774,3.5781,3.2988,3.2988,0,1,0,3.2774-3.5781Z" transform="translate(-13.0318 -6.8843)"/><path class="cls-6" d="M370.6421,76.63a1.0807,1.0807,0,1,1,1.0976,1.0986A1.0817,1.0817,0,0,1,370.6421,76.63Zm.2656,2.6753H372.52v9.708h-1.6123Z" transform="translate(-13.0318 -6.8843)"/><path class="cls-6" d="M379.4985,89.1733a5.0143,5.0143,0,1,1,4.9785-5.0313A4.8139,4.8139,0,0,1,379.4985,89.1733Zm0-1.4175A3.2957,3.2957,0,0,0,382.83,84.142a3.2615,3.2615,0,0,0-3.2774-3.5962c-1.7011,0-3.2422,1.1514-3.2422,3.5962C376.31,86.6044,377.8159,87.7558,379.4985,87.7558Z" transform="translate(-13.0318 -6.8843)"/><path class="cls-6" d="M390.04,89.1733c-2.2675,0-3.8623-1.24-3.9677-3.0118h1.665c.0889.939.9209,1.6475,2.2852,1.6475,1.2753,0,1.9843-.6377,1.9843-1.4351,0-2.1611-5.74-.9033-5.74-4.5175,0-1.4878,1.3994-2.71,3.56-2.71,2.1436,0,3.5616,1.1519,3.668,3.0474h-1.6123a1.8675,1.8675,0,0,0-2.1084-1.6831c-1.1865,0-1.8955.5669-1.8955,1.3462,0,2.3032,5.6338,1.0454,5.7041,4.5175C393.5825,87.9682,392.1831,89.1733,390.04,89.1733Z" transform="translate(-13.0318 -6.8843)"/><path class="cls-6" d="M404.6011,79.1459a4.2335,4.2335,0,0,1,3.5957,1.8955V75.9042h1.63V89.0136h-1.63V87.1889a3.9859,3.9859,0,0,1-3.6133,1.9844c-2.6045,0-4.6065-2.0376-4.6065-5.0494C399.977,81.0946,401.979,79.1459,404.6011,79.1459Zm.3007,1.4a3.2777,3.2777,0,0,0-3.2773,3.5781,3.2988,3.2988,0,1,0,3.2773-3.5781Z" transform="translate(-13.0318 -6.8843)"/><path class="cls-6" d="M416.7524,89.1733a4.6765,4.6765,0,0,1-4.8008-5.0313,4.62,4.62,0,0,1,4.8008-4.9961,4.45,4.45,0,0,1,4.6592,4.6416,8.8263,8.8263,0,0,1-.0527.9746h-7.76a3.0517,3.0517,0,0,0,3.1533,3.0469,2.6681,2.6681,0,0,0,2.7285-1.79h1.7364A4.3661,4.3661,0,0,1,416.7524,89.1733Zm-3.1357-5.7222h6.13a2.8487,2.8487,0,0,0-3.0645-2.9409A3.0072,3.0072,0,0,0,413.6167,83.4511Z" transform="translate(-13.0318 -6.8843)"/><path class="cls-6" d="M428.7807,79.1459c2.6045,0,4.6065,1.9487,4.6065,4.978,0,3.0118-2.002,5.0494-4.6065,5.0494a4.1978,4.1978,0,0,1-3.6308-1.9488V93.62h-1.6123V79.3056H425.15v1.789A4.0993,4.0993,0,0,1,428.7807,79.1459Zm-.3359,1.4a3.62,3.62,0,1,0,3.2949,3.5781A3.2809,3.2809,0,0,0,428.4448,80.5458Z" transform="translate(-13.0318 -6.8843)"/><path class="cls-6" d="M437.1245,89.0136h-1.6123v-9.708h1.6123v1.5766a3.2686,3.2686,0,0,1,3.1357-1.7539v1.6651h-.4257c-1.5411,0-2.71.6909-2.71,2.9409Z" transform="translate(-13.0318 -6.8843)"/><path class="cls-6" d="M446.3179,89.1733a4.6764,4.6764,0,0,1-4.8008-5.0313,4.62,4.62,0,0,1,4.8008-4.9961,4.45,4.45,0,0,1,4.6591,4.6416,8.8019,8.8019,0,0,1-.0527.9746h-7.76a3.0518,3.0518,0,0,0,3.1534,3.0469,2.6682,2.6682,0,0,0,2.7285-1.79h1.7363A4.3661,4.3661,0,0,1,446.3179,89.1733Zm-3.1358-5.7222h6.13a2.8487,2.8487,0,0,0-3.0645-2.9409A3.0072,3.0072,0,0,0,443.1821,83.4511Z" transform="translate(-13.0318 -6.8843)"/><path class="cls-6" d="M456.54,89.1733c-2.2675,0-3.8623-1.24-3.9677-3.0118h1.665c.0889.939.9209,1.6475,2.2852,1.6475,1.2753,0,1.9843-.6377,1.9843-1.4351,0-2.1611-5.74-.9033-5.74-4.5175,0-1.4878,1.3994-2.71,3.56-2.71,2.1436,0,3.5616,1.1519,3.668,3.0474h-1.6123a1.8675,1.8675,0,0,0-2.1084-1.6831c-1.1865,0-1.8955.5669-1.8955,1.3462,0,2.3032,5.6338,1.0454,5.7041,4.5175C460.0825,87.9682,458.6831,89.1733,456.54,89.1733Z" transform="translate(-13.0318 -6.8843)"/><path class="cls-6" d="M465.7866,89.1733c-2.2676,0-3.8623-1.24-3.9678-3.0118h1.6651c.0888.939.9209,1.6475,2.2851,1.6475,1.2754,0,1.9844-.6377,1.9844-1.4351,0-2.1611-5.74-.9033-5.74-4.5175,0-1.4878,1.3994-2.71,3.56-2.71,2.1436,0,3.5615,1.1519,3.668,3.0474h-1.6123A1.8675,1.8675,0,0,0,465.521,80.51c-1.1865,0-1.8955.5669-1.8955,1.3462,0,2.3032,5.6338,1.0454,5.7041,4.5175C469.33,87.9682,467.93,89.1733,465.7866,89.1733Z" transform="translate(-13.0318 -6.8843)"/><path class="cls-6" d="M471.3315,76.63a1.0807,1.0807,0,1,1,1.0977,1.0986A1.0817,1.0817,0,0,1,471.3315,76.63Zm.2657,2.6753H473.21v9.708h-1.6123Z" transform="translate(-13.0318 -6.8843)"/><path class="cls-6" d="M476.5386,79.3056l3.03,8.22,3.0108-8.22h1.7187l-3.8086,9.708h-1.8779l-3.8086-9.708Z" transform="translate(-13.0318 -6.8843)"/><path class="cls-6" d="M490.1255,89.1733a5.0143,5.0143,0,1,1,4.9785-5.0313A4.814,4.814,0,0,1,490.1255,89.1733Zm0-1.4175a3.2956,3.2956,0,0,0,3.331-3.6138,3.2615,3.2615,0,0,0-3.2773-3.5962c-1.7012,0-3.2422,1.1514-3.2422,3.5962C486.937,86.6044,488.4429,87.7558,490.1255,87.7558Z" transform="translate(-13.0318 -6.8843)"/><path class="cls-6" d="M500.6665,89.1733c-2.2676,0-3.8623-1.24-3.9678-3.0118h1.6651c.0888.939.9209,1.6475,2.2851,1.6475,1.2754,0,1.9844-.6377,1.9844-1.4351,0-2.1611-5.74-.9033-5.74-4.5175,0-1.4878,1.3994-2.71,3.56-2.71,2.1436,0,3.5615,1.1519,3.668,3.0474h-1.6123a1.8676,1.8676,0,0,0-2.1084-1.6831c-1.1866,0-1.8955.5669-1.8955,1.3462,0,2.3032,5.6337,1.0454,5.7041,4.5175C504.21,87.9682,502.81,89.1733,500.6665,89.1733Z" transform="translate(-13.0318 -6.8843)"/><path class="cls-6" d="M506.9907,81.5375a1.099,1.099,0,1,1,1.0625-1.0981A1.0815,1.0815,0,0,1,506.9907,81.5375Zm0,7.5825a1.099,1.099,0,1,1,1.0625-1.0986A1.0819,1.0819,0,0,1,506.9907,89.12Z" transform="translate(-13.0318 -6.8843)"/><path class="cls-6" d="M514.519,87.72c3.3662-2.71,6.5547-5.2612,6.5547-7.8833a2.1632,2.1632,0,0,0-2.3564-2.48c-1.6651,0-2.5147,1.1514-2.586,2.7637h-1.5586A3.9231,3.9231,0,0,1,518.7,75.975c2.4092,0,3.9687,1.417,3.9687,3.791,0,3.189-3.4365,5.8994-5.7226,7.7593H523.04V88.872H514.519Z" transform="translate(-13.0318 -6.8843)"/><path class="cls-6" d="M531.0649,86.1615H524.51V84.9389L530.728,76.33h1.9307v8.4326H534.43v1.3994h-1.7715v2.8521h-1.5938Zm.07-1.3994v-6.75l-4.7656,6.75Z" transform="translate(-13.0318 -6.8843)"/><path class="cls-6" d="M536.2016,86.7817h1.7715l-1.9843,4.7651h-1.08Z" transform="translate(-13.0318 -6.8843)"/><path class="cls-6" d="M546.689,79.2524a2.2093,2.2093,0,0,0-2.4268-1.9664c-2.0371,0-3.1357,1.4-3.1182,5.2085a3.6625,3.6625,0,0,1,3.4727-1.9668c2.3916,0,4.0039,1.5767,4.0039,4.27a3.9391,3.9391,0,0,1-4.1807,4.2519c-3.792,0-4.6953-2.7285-4.6953-6.6079,0-4.0215,1.294-6.5019,4.5352-6.5019a3.6171,3.6171,0,0,1,3.8974,3.313Zm-5.35,5.4209a2.8028,2.8028,0,0,0,3.0118,3.0293,2.5972,2.5972,0,0,0,2.71-2.8521c0-1.8071-.9385-2.9585-2.7812-2.9585A2.7222,2.7222,0,0,0,541.3393,84.6733Z" transform="translate(-13.0318 -6.8843)"/><path class="cls-6" d="M556.9643,86.1615H550.41V84.9389l6.2177-8.6094h1.9307v8.4326H560.33v1.3994h-1.7715v2.8521h-1.5938Zm.07-1.3994v-6.75l-4.7657,6.75Z" transform="translate(-13.0318 -6.8843)"/><path class="cls-6" d="M564.1733,76.4535a2.6492,2.6492,0,1,1-2.5859,2.64A2.4689,2.4689,0,0,1,564.1733,76.4535Zm-1.2929,2.64c0,1.0981.5136,1.665,1.2929,1.665s1.3115-.5669,1.3115-1.665c0-1.1162-.5312-1.648-1.3115-1.648S562.88,77.977,562.88,79.0932Zm7.458-2.4448h1.5947l-7.1748,12.3652h-1.5947Zm.62,7.2631a2.6582,2.6582,0,1,1-2.586,2.6573A2.47,2.47,0,0,1,570.9585,83.9115ZM569.63,86.5688c0,1.0986.5312,1.63,1.3105,1.63s1.3115-.5312,1.3115-1.63c0-1.1162-.5322-1.6475-1.3115-1.6475S569.63,85.4526,569.63,86.5688Z" transform="translate(-13.0318 -6.8843)"/><path class="cls-6" d="M316.9145,109.8676c2.9063,0,4.2871,1.6123,4.2871,3.6318a3.4809,3.4809,0,0,1-2.94,3.543l3.1006,5.1728H319.43l-2.94-5.0488h-1.9482v5.0488h-1.6123V109.8676Zm0,1.3286h-2.373v4.6768h2.373c1.8252,0,2.6221-.9917,2.6221-2.3736C319.5366,112.1,318.7573,111.1962,316.9145,111.1962Z" transform="translate(-13.0318 -6.8843)"/><path class="cls-6" d="M327.8979,122.3749a4.6763,4.6763,0,0,1-4.8007-5.0312,4.62,4.62,0,0,1,4.8007-4.9961,4.45,4.45,0,0,1,4.6592,4.6416,8.81,8.81,0,0,1-.0527.9741h-7.76a3.0518,3.0518,0,0,0,3.1533,3.0474,2.6684,2.6684,0,0,0,2.7286-1.79h1.7363A4.366,4.366,0,0,1,327.8979,122.3749Zm-3.1357-5.7222h6.13a2.8487,2.8487,0,0,0-3.0645-2.9409A3.0072,3.0072,0,0,0,324.7622,116.6527Z" transform="translate(-13.0318 -6.8843)"/><path class="cls-6" d="M338.687,112.3476a4.0278,4.0278,0,0,1,3.6133,1.9311v-1.7715h1.63v9.708H342.3v-1.8071a4.0529,4.0529,0,0,1-3.6319,1.9668c-2.5859,0-4.5878-2.0376-4.5878-5.0493C334.0806,114.2963,336.0825,112.3476,338.687,112.3476Zm.3184,1.4a3.2776,3.2776,0,0,0-3.2774,3.5781,3.2988,3.2988,0,1,0,3.2774-3.5781Z" transform="translate(-13.0318 -6.8843)"/><path class="cls-6" d="M350.7856,112.3476a4.2186,4.2186,0,0,1,4.4815,3.2773h-1.7364a2.6439,2.6439,0,0,0-2.7451-1.9131c-1.7715,0-3.083,1.2578-3.083,3.6319,0,2.4091,1.3115,3.667,3.083,3.667a2.6031,2.6031,0,0,0,2.7451-1.9136h1.7364a4.2653,4.2653,0,0,1-3.9854,3.26v.8858c1.3633-.0176,2.2852.585,2.2852,1.7539a1.91,1.91,0,0,1-2.1612,1.8247h-2.038v-1.0449h1.7187c.7617,0,1.1338-.2129,1.1338-.78,0-.5493-.3721-.7617-1.1338-.7617h-.8857v-1.8955c-2.4444-.2481-4.1455-2.1436-4.1455-4.9956C346.0552,114.2963,348.022,112.3476,350.7856,112.3476Z" transform="translate(-13.0318 -6.8843)"/><path class="cls-6" d="M361.644,122.3749a5.0143,5.0143,0,1,1,4.9785-5.0312A4.8139,4.8139,0,0,1,361.644,122.3749Zm0-1.4175a3.2956,3.2956,0,0,0,3.3311-3.6137,3.2615,3.2615,0,0,0-3.2774-3.5962c-1.7011,0-3.2421,1.1513-3.2421,3.5962C358.4556,119.8061,359.9614,120.9574,361.644,120.9574Zm-.7431-11.48c.9384,0,1.2929.815,2.0195.815a.7778.7778,0,0,0,.7793-.7617h.9209c-.1416,1.2046-.8506,1.8422-1.7715,1.8422-.957,0-1.3105-.8149-2.0195-.8149-.39,0-.6914.2481-.7617.7793h-.94C359.3061,110.1156,359.979,109.4779,360.9009,109.4779Z" transform="translate(-13.0318 -6.8843)"/><path class="cls-6" d="M372.9458,122.3749a4.6763,4.6763,0,0,1-4.8008-5.0312,4.62,4.62,0,0,1,4.8008-4.9961,4.45,4.45,0,0,1,4.6592,4.6416,8.7858,8.7858,0,0,1-.0528.9741h-7.76a3.0518,3.0518,0,0,0,3.1533,3.0474,2.6683,2.6683,0,0,0,2.7285-1.79h1.7363A4.3659,4.3659,0,0,1,372.9458,122.3749Zm-3.1358-5.7222h6.13a2.8486,2.8486,0,0,0-3.0644-2.9409A3.0073,3.0073,0,0,0,369.81,116.6527Z" transform="translate(-13.0318 -6.8843)"/><path class="cls-6" d="M383.1675,122.3749c-2.2676,0-3.8623-1.24-3.9678-3.0117h1.665c.0889.939.9209,1.6475,2.2852,1.6475,1.2754,0,1.9844-.6377,1.9844-1.4351,0-2.1611-5.74-.9033-5.74-4.5176,0-1.4878,1.3994-2.71,3.5606-2.71,2.1435,0,3.5615,1.1518,3.6679,3.0473H385.01a1.8675,1.8675,0,0,0-2.1084-1.6831c-1.1865,0-1.8955.5669-1.8955,1.3462,0,2.3032,5.6338,1.0454,5.7041,4.5176C386.71,121.17,385.311,122.3749,383.1675,122.3749Z" transform="translate(-13.0318 -6.8843)"/><path class="cls-6" d="M397.7114,112.3476a4.0277,4.0277,0,0,1,3.6133,1.9311v-1.7715h1.63v9.708h-1.63v-1.8071a4.0529,4.0529,0,0,1-3.6318,1.9668c-2.586,0-4.5879-2.0376-4.5879-5.0493C393.105,114.2963,395.1069,112.3476,397.7114,112.3476Zm.3184,1.4a3.2776,3.2776,0,0,0-3.2774,3.5781,3.2988,3.2988,0,1,0,3.2774-3.5781Z" transform="translate(-13.0318 -6.8843)"/><path class="cls-6" d="M409.9155,122.3749a5.0143,5.0143,0,1,1,4.9785-5.0312A4.8139,4.8139,0,0,1,409.9155,122.3749Zm0-1.4175a3.2956,3.2956,0,0,0,3.3311-3.6137,3.2615,3.2615,0,0,0-3.2774-3.5962c-1.7011,0-3.2422,1.1513-3.2422,3.5962C406.727,119.8061,408.2329,120.9574,409.9155,120.9574Z" transform="translate(-13.0318 -6.8843)"/><path class="cls-6" d="M425.9468,122.3749a4.6763,4.6763,0,0,1-4.8008-5.0312,4.62,4.62,0,0,1,4.8008-4.9961,4.45,4.45,0,0,1,4.6591,4.6416,8.7861,8.7861,0,0,1-.0527.9741h-7.76a3.0519,3.0519,0,0,0,3.1534,3.0474,2.6683,2.6683,0,0,0,2.7285-1.79h1.7363A4.366,4.366,0,0,1,425.9468,122.3749Zm-3.1358-5.7222h6.13a2.8486,2.8486,0,0,0-3.0644-2.9409A3.0073,3.0073,0,0,0,422.811,116.6527Z" transform="translate(-13.0318 -6.8843)"/><path class="cls-6" d="M436.1684,122.3749c-2.2675,0-3.8623-1.24-3.9677-3.0117h1.665c.0889.939.9209,1.6475,2.2852,1.6475,1.2754,0,1.9843-.6377,1.9843-1.4351,0-2.1611-5.74-.9033-5.74-4.5176,0-1.4878,1.3994-2.71,3.5606-2.71,2.1435,0,3.5615,1.1518,3.6679,3.0473h-1.6123a1.8675,1.8675,0,0,0-2.1084-1.6831c-1.1865,0-1.8955.5669-1.8955,1.3462,0,2.3032,5.6338,1.0454,5.7041,4.5176C439.7114,121.17,438.312,122.3749,436.1684,122.3749Z" transform="translate(-13.0318 -6.8843)"/><path class="cls-6" d="M442.3335,113.8359h-1.2578v-1.3287h1.2578v-2.4448h1.6113v2.4448h2.5342v1.3287h-2.5342v5.7221c0,.9566.3545,1.293,1.3467,1.293h1.1875v1.3642h-1.4531c-1.7188,0-2.6924-.7085-2.6924-2.6572Z" transform="translate(-13.0318 -6.8843)"/><path class="cls-6" d="M450.04,122.2152h-1.6123v-9.708H450.04v1.5767a3.2687,3.2687,0,0,1,3.1358-1.7539v1.6655H452.75c-1.541,0-2.71.69-2.71,2.94Z" transform="translate(-13.0318 -6.8843)"/><path class="cls-6" d="M459.2329,122.3749a4.6763,4.6763,0,0,1-4.8008-5.0312,4.62,4.62,0,0,1,4.8008-4.9961,4.45,4.45,0,0,1,4.6592,4.6416,8.7858,8.7858,0,0,1-.0528.9741h-7.76a3.0518,3.0518,0,0,0,3.1533,3.0474,2.6683,2.6683,0,0,0,2.7285-1.79h1.7363A4.3659,4.3659,0,0,1,459.2329,122.3749Zm-3.1357-5.7222h6.13a2.8486,2.8486,0,0,0-3.0644-2.9409A3.0072,3.0072,0,0,0,456.0972,116.6527Z" transform="translate(-13.0318 -6.8843)"/><path class="cls-6" d="M469.4546,122.3749c-2.2676,0-3.8623-1.24-3.9678-3.0117h1.665c.0889.939.9209,1.6475,2.2852,1.6475,1.2754,0,1.9844-.6377,1.9844-1.4351,0-2.1611-5.74-.9033-5.74-4.5176,0-1.4878,1.3995-2.71,3.5606-2.71,2.1435,0,3.5615,1.1518,3.668,3.0473h-1.6124a1.8674,1.8674,0,0,0-2.1083-1.6831c-1.1866,0-1.8956.5669-1.8956,1.3462,0,2.3032,5.6338,1.0454,5.7041,4.5176C472.9975,121.17,471.5981,122.3749,469.4546,122.3749Z" transform="translate(-13.0318 -6.8843)"/><path class="cls-6" d="M478.7016,122.3749c-2.2675,0-3.8623-1.24-3.9677-3.0117h1.665c.0889.939.9209,1.6475,2.2852,1.6475,1.2754,0,1.9843-.6377,1.9843-1.4351,0-2.1611-5.74-.9033-5.74-4.5176,0-1.4878,1.3994-2.71,3.5606-2.71,2.1435,0,3.5615,1.1518,3.6679,3.0473h-1.6123a1.8675,1.8675,0,0,0-2.1084-1.6831c-1.1865,0-1.8955.5669-1.8955,1.3462,0,2.3032,5.6338,1.0454,5.7041,4.5176C482.2446,121.17,480.8452,122.3749,478.7016,122.3749Z" transform="translate(-13.0318 -6.8843)"/><path class="cls-6" d="M488.71,122.3749a4.6763,4.6763,0,0,1-4.8007-5.0312,4.62,4.62,0,0,1,4.8007-4.9961,4.45,4.45,0,0,1,4.6592,4.6416,8.81,8.81,0,0,1-.0527.9741h-7.76a3.0518,3.0518,0,0,0,3.1533,3.0474,2.6684,2.6684,0,0,0,2.7286-1.79h1.7363A4.366,4.366,0,0,1,488.71,122.3749Zm-3.1357-5.7222h6.13a2.8487,2.8487,0,0,0-3.0645-2.9409A3.0072,3.0072,0,0,0,485.5747,116.6527Z" transform="translate(-13.0318 -6.8843)"/><path class="cls-6" d="M504.229,112.3476a3.9992,3.9992,0,0,1,3.6133,1.9311v-1.7715h1.63v9.92a4.3519,4.3519,0,0,1-4.6416,4.5708c-2.5508,0-4.375-1.2934-4.6944-3.3662h1.5947a3.0139,3.0139,0,0,0,3.1,1.9668,2.8814,2.8814,0,0,0,3.0117-3.1714v-2.0371a4.0546,4.0546,0,0,1-3.6133,1.9844c-2.6045,0-4.6065-2.0376-4.6065-5.0493C499.6225,114.2963,501.6245,112.3476,504.229,112.3476Zm.3183,1.4a3.2776,3.2776,0,0,0-3.2773,3.5781,3.2988,3.2988,0,1,0,3.2773-3.5781Z" transform="translate(-13.0318 -6.8843)"/><path class="cls-6" d="M513.812,122.2152H512.2v-9.708h1.6123v1.5767a3.2685,3.2685,0,0,1,3.1357-1.7539v1.6655h-.4257c-1.5411,0-2.71.69-2.71,2.94Z" transform="translate(-13.0318 -6.8843)"/><path class="cls-6" d="M522.811,112.3476a4.0277,4.0277,0,0,1,3.6133,1.9311v-1.7715h1.63v9.708h-1.63v-1.8071a4.0529,4.0529,0,0,1-3.6318,1.9668c-2.586,0-4.5879-2.0376-4.5879-5.0493C518.2046,114.2963,520.2065,112.3476,522.811,112.3476Zm.3184,1.4a3.2776,3.2776,0,0,0-3.2774,3.5781,3.2988,3.2988,0,1,0,3.2774-3.5781Z" transform="translate(-13.0318 -6.8843)"/><path class="cls-6" d="M531.3657,112.5072l3.03,8.22,3.0107-8.22h1.7188l-3.8086,9.708H533.439l-3.8086-9.708Z" transform="translate(-13.0318 -6.8843)"/><path class="cls-6" d="M544.9175,122.3749a4.6763,4.6763,0,0,1-4.8008-5.0312,4.62,4.62,0,0,1,4.8008-4.9961,4.45,4.45,0,0,1,4.6591,4.6416,8.7861,8.7861,0,0,1-.0527.9741h-7.76a3.0519,3.0519,0,0,0,3.1534,3.0474,2.6683,2.6683,0,0,0,2.7285-1.79h1.7363A4.366,4.366,0,0,1,544.9175,122.3749Zm-3.1358-5.7222h6.13a2.8486,2.8486,0,0,0-3.0644-2.9409A3.0073,3.0073,0,0,0,541.7817,116.6527Z" transform="translate(-13.0318 -6.8843)"/><path class="cls-6" d="M560.63,122.3749a4.6763,4.6763,0,0,1-4.8008-5.0312,4.62,4.62,0,0,1,4.8008-4.9961,4.45,4.45,0,0,1,4.6591,4.6416,8.7861,8.7861,0,0,1-.0527.9741h-7.76a3.0519,3.0519,0,0,0,3.1534,3.0474,2.6683,2.6683,0,0,0,2.7285-1.79h1.7363A4.366,4.366,0,0,1,560.63,122.3749Zm-3.1358-5.7222h6.13a2.8487,2.8487,0,0,0-3.0645-2.9409A3.0072,3.0072,0,0,0,557.4946,116.6527Z" transform="translate(-13.0318 -6.8843)"/><path class="cls-6" d="M572.5,113.8359h-1.2578v-1.3287H572.5v-2.4448h1.6113v2.4448h2.5342v1.3287h-2.5342v5.7221c0,.9566.3545,1.293,1.3467,1.293h1.1875v1.3642h-1.4531c-1.7188,0-2.6924-.7085-2.6924-2.6572Z" transform="translate(-13.0318 -6.8843)"/><path class="cls-6" d="M580.2056,122.2152h-1.6124v-9.708h1.6124v1.5767a3.2685,3.2685,0,0,1,3.1357-1.7539v1.6655h-.4258c-1.541,0-2.71.69-2.71,2.94Z" transform="translate(-13.0318 -6.8843)"/><path class="cls-6" d="M589.2046,112.3476a4.0278,4.0278,0,0,1,3.6133,1.9311v-1.7715h1.63v9.708h-1.63v-1.8071a4.0529,4.0529,0,0,1-3.6319,1.9668c-2.5859,0-4.5879-2.0376-4.5879-5.0493C584.5981,114.2963,586.6,112.3476,589.2046,112.3476Zm.3183,1.4a3.2776,3.2776,0,0,0-3.2773,3.5781,3.2988,3.2988,0,1,0,3.2773-3.5781Z" transform="translate(-13.0318 -6.8843)"/><path class="cls-6" d="M604.2788,116.7235c0-1.9843-1.08-2.9941-2.71-2.9941-1.6474,0-2.7812,1.0278-2.7812,3.1182v5.3676h-1.6123v-9.708h1.6123v1.3819a3.5855,3.5855,0,0,1,3.1172-1.5591c2.25,0,3.9687,1.3818,3.9687,4.1631v5.7221h-1.5947Z" transform="translate(-13.0318 -6.8843)"/><path class="cls-6" d="M611.95,122.3749c-2.2676,0-3.8623-1.24-3.9678-3.0117h1.6651c.0888.939.9209,1.6475,2.2851,1.6475,1.2754,0,1.9844-.6377,1.9844-1.4351,0-2.1611-5.74-.9033-5.74-4.5176,0-1.4878,1.3994-2.71,3.5605-2.71,2.1436,0,3.5615,1.1518,3.668,3.0473h-1.6123a1.8676,1.8676,0,0,0-2.1084-1.6831c-1.1866,0-1.8955.5669-1.8955,1.3462,0,2.3032,5.6337,1.0454,5.7041,4.5176C615.4927,121.17,614.0932,122.3749,611.95,122.3749Z" transform="translate(-13.0318 -6.8843)"/><path class="cls-6" d="M618.1147,113.8359h-1.2578v-1.3287h1.2578v-2.4448h1.6114v2.4448H622.26v1.3287h-2.5341v5.7221c0,.9566.3545,1.293,1.3466,1.293H622.26v1.3642h-1.4531c-1.7187,0-2.6924-.7085-2.6924-2.6572Z" transform="translate(-13.0318 -6.8843)"/><path class="cls-6" d="M628.4419,122.3749a5.0143,5.0143,0,1,1,4.9785-5.0312A4.8139,4.8139,0,0,1,628.4419,122.3749Zm0-1.4175a3.2955,3.2955,0,0,0,3.331-3.6137,3.2614,3.2614,0,0,0-3.2773-3.5962c-1.7012,0-3.2422,1.1513-3.2422,3.5962C625.2534,119.8061,626.7593,120.9574,628.4419,120.9574Z" transform="translate(-13.0318 -6.8843)"/><path class="cls-6" d="M637.1587,122.2152h-1.6123v-9.708h1.6123v1.5767a3.2685,3.2685,0,0,1,3.1357-1.7539v1.6655h-.4258c-1.541,0-2.71.69-2.71,2.94Z" transform="translate(-13.0318 -6.8843)"/><path class="cls-6" d="M649.2573,116.7235c0-1.9843-1.08-2.9941-2.71-2.9941-1.6474,0-2.7812,1.0278-2.7812,3.1182v5.3676h-1.6123v-9.708h1.6123v1.3819a3.5855,3.5855,0,0,1,3.1172-1.5591c2.25,0,3.9687,1.3818,3.9687,4.1631v5.7221h-1.5947Z" transform="translate(-13.0318 -6.8843)"/><path class="cls-6" d="M657.7251,122.3749a5.0143,5.0143,0,1,1,4.9785-5.0312A4.8139,4.8139,0,0,1,657.7251,122.3749Zm0-1.4175a3.2955,3.2955,0,0,0,3.331-3.6137,3.2614,3.2614,0,0,0-3.2773-3.5962c-1.7012,0-3.2422,1.1513-3.2422,3.5962C654.5366,119.8061,656.0425,120.9574,657.7251,120.9574Z" transform="translate(-13.0318 -6.8843)"/><path class="cls-6" d="M668.2661,122.3749c-2.2676,0-3.8623-1.24-3.9678-3.0117h1.6651c.0888.939.9209,1.6475,2.2851,1.6475,1.2754,0,1.9844-.6377,1.9844-1.4351,0-2.1611-5.74-.9033-5.74-4.5176,0-1.4878,1.3994-2.71,3.56-2.71,2.1436,0,3.5615,1.1518,3.668,3.0473h-1.6123a1.8676,1.8676,0,0,0-2.1084-1.6831c-1.1865,0-1.8955.5669-1.8955,1.3462,0,2.3032,5.6338,1.0454,5.7041,4.5176C671.8091,121.17,670.41,122.3749,668.2661,122.3749Z" transform="translate(-13.0318 -6.8843)"/><path class="cls-6" d="M682.8276,112.3476a4.2333,4.2333,0,0,1,3.5957,1.8955v-5.1372h1.63v13.1093h-1.63v-1.8247a3.9858,3.9858,0,0,1-3.6133,1.9844c-2.6044,0-4.6064-2.0376-4.6064-5.0493C678.2036,114.2963,680.2056,112.3476,682.8276,112.3476Zm.3008,1.4a3.2775,3.2775,0,0,0-3.2773,3.5781,3.2987,3.2987,0,1,0,3.2773-3.5781Z" transform="translate(-13.0318 -6.8843)"/><path class="cls-6" d="M694.979,122.3749a4.6763,4.6763,0,0,1-4.8008-5.0312,4.62,4.62,0,0,1,4.8008-4.9961,4.45,4.45,0,0,1,4.6592,4.6416,8.7858,8.7858,0,0,1-.0528.9741h-7.76a3.0518,3.0518,0,0,0,3.1533,3.0474,2.6683,2.6683,0,0,0,2.7285-1.79h1.7363A4.3659,4.3659,0,0,1,694.979,122.3749Zm-3.1358-5.7222h6.13a2.8486,2.8486,0,0,0-3.0644-2.9409A3.0073,3.0073,0,0,0,691.8432,116.6527Z" transform="translate(-13.0318 -6.8843)"/><path class="cls-6" d="M316.9331,133.6054a4.0278,4.0278,0,0,1,3.6133,1.9311v-1.7714h1.63v9.708h-1.63v-1.8072a4.0529,4.0529,0,0,1-3.6319,1.9668c-2.5859,0-4.5879-2.0376-4.5879-5.0493C312.3266,135.5541,314.3286,133.6054,316.9331,133.6054Zm.3184,1.4a3.2777,3.2777,0,0,0-3.2774,3.5781,3.2988,3.2988,0,1,0,3.2774-3.5781Z" transform="translate(-13.0318 -6.8843)"/><path class="cls-6" d="M328.9253,133.6054a4.2335,4.2335,0,0,1,3.5957,1.8955v-5.1372h1.63v13.1094h-1.63v-1.8247a3.9859,3.9859,0,0,1-3.6133,1.9843c-2.6045,0-4.6064-2.0376-4.6064-5.0493C324.3013,135.5541,326.3032,133.6054,328.9253,133.6054Zm.3008,1.4a3.2777,3.2777,0,0,0-3.2774,3.5781,3.2988,3.2988,0,1,0,3.2774-3.5781Z" transform="translate(-13.0318 -6.8843)"/><path class="cls-6" d="M340.8823,133.6054a4.0277,4.0277,0,0,1,3.6133,1.9311v-1.7714h1.63v9.708h-1.63v-1.8072a4.0529,4.0529,0,0,1-3.6318,1.9668c-2.586,0-4.5879-2.0376-4.5879-5.0493C336.2759,135.5541,338.2778,133.6054,340.8823,133.6054Zm.3184,1.4a3.2777,3.2777,0,0,0-3.2774,3.5781,3.2988,3.2988,0,1,0,3.2774-3.5781Z" transform="translate(-13.0318 -6.8843)"/><path class="cls-6" d="M354.0962,133.6054c2.6045,0,4.6064,1.9487,4.6064,4.978,0,3.0117-2.0019,5.0493-4.6064,5.0493a4.1978,4.1978,0,0,1-3.6309-1.9487v6.395H348.853V133.7651h1.6123v1.789A4.0993,4.0993,0,0,1,354.0962,133.6054Zm-.336,1.4a3.62,3.62,0,1,0,3.295,3.5781A3.281,3.281,0,0,0,353.76,135.0053Z" transform="translate(-13.0318 -6.8843)"/><path class="cls-6" d="M361.1821,135.0937h-1.2578v-1.3286h1.2578V131.32h1.6113v2.4449h2.5342v1.3286h-2.5342v5.7221c0,.9566.3545,1.293,1.3467,1.293h1.1875v1.3643h-1.4531c-1.7188,0-2.6924-.7085-2.6924-2.6573Z" transform="translate(-13.0318 -6.8843)"/><path class="cls-6" d="M371.28,133.6054a4.0279,4.0279,0,0,1,3.6133,1.9311v-1.7714h1.63v9.708h-1.63v-1.8072a4.0529,4.0529,0,0,1-3.6319,1.9668c-2.5859,0-4.5879-2.0376-4.5879-5.0493C366.6733,135.5541,368.6753,133.6054,371.28,133.6054Zm.3183,1.4a3.2776,3.2776,0,0,0-3.2773,3.5781,3.2988,3.2988,0,1,0,3.2773-3.5781Z" transform="translate(-13.0318 -6.8843)"/><path class="cls-6" d="M383.3784,133.6054a4.2184,4.2184,0,0,1,4.4814,3.2773h-1.7363a2.6439,2.6439,0,0,0-2.7451-1.9131c-1.7715,0-3.083,1.2579-3.083,3.6319,0,2.4092,1.3115,3.667,3.083,3.667a2.603,2.603,0,0,0,2.7451-1.9136H387.86a4.2653,4.2653,0,0,1-3.9853,3.26V144.5c1.3633-.0176,2.2852.585,2.2852,1.7539a1.91,1.91,0,0,1-2.1612,1.8247H381.96v-1.0449h1.7188c.7617,0,1.1338-.2129,1.1338-.78,0-.5493-.3721-.7617-1.1338-.7617h-.8858v-1.8955c-2.4443-.2481-4.1455-2.1436-4.1455-4.9956C378.6479,135.5541,380.6147,133.6054,383.3784,133.6054Z" transform="translate(-13.0318 -6.8843)"/><path class="cls-6" d="M394.0073,133.6054a4.0277,4.0277,0,0,1,3.6133,1.9311v-1.7714h1.63v9.708h-1.63v-1.8072a4.0529,4.0529,0,0,1-3.6318,1.9668c-2.586,0-4.5879-2.0376-4.5879-5.0493C389.4009,135.5541,391.4028,133.6054,394.0073,133.6054Zm.3184,1.4a3.2777,3.2777,0,0,0-3.2774,3.5781,3.2988,3.2988,0,1,0,3.2774-3.5781Zm-.5137-4.1455c.94,0,1.293.8149,2.0195.8149a.7771.7771,0,0,0,.7793-.7617h.9219c-.1426,1.2046-.8506,1.8423-1.7715,1.8423-.957,0-1.3115-.815-2.02-.815-.39,0-.69.2481-.7617.7793h-.9385C392.2173,131.4975,392.8911,130.86,393.812,130.86Z" transform="translate(-13.0318 -6.8843)"/><path class="cls-6" d="M406.2114,143.6327a5.0143,5.0143,0,1,1,4.9785-5.0312A4.8139,4.8139,0,0,1,406.2114,143.6327Zm0-1.4175a3.2956,3.2956,0,0,0,3.3311-3.6137,3.2615,3.2615,0,0,0-3.2774-3.5962c-1.7011,0-3.2422,1.1514-3.2422,3.5962C403.0229,141.0639,404.5288,142.2152,406.2114,142.2152Z" transform="translate(-13.0318 -6.8843)"/><path class="cls-6" d="M413.83,135.997a1.099,1.099,0,1,1,1.0625-1.0982A1.0816,1.0816,0,0,1,413.83,135.997Zm0,7.5825a1.099,1.099,0,1,1,1.0625-1.0986A1.082,1.082,0,0,1,413.83,143.58Z" transform="translate(-13.0318 -6.8843)"/><path class="cls-6" d="M422.8286,132.1352h-1.7012v-1.47h3.3311v12.8081h-1.63Z" transform="translate(-13.0318 -6.8843)"/><path class="cls-6" d="M435.105,130.7v1.2227l-4.9248,11.55h-1.63l4.9961-11.3912h-6.8379V130.7Z" transform="translate(-13.0318 -6.8843)"/><path class="cls-6" d="M437.0532,141.2411h1.7715l-1.9844,4.7652h-1.08Z" transform="translate(-13.0318 -6.8843)"/><path class="cls-6" d="M441.6772,132.1352h-1.7011v-1.47h3.331v12.8081h-1.63Z" transform="translate(-13.0318 -6.8843)"/><path class="cls-6" d="M453.9536,130.7v1.2227l-4.9248,11.55h-1.63l4.9961-11.3912h-6.8379V130.7Z" transform="translate(-13.0318 -6.8843)"/><path class="cls-6" d="M457.9741,130.913a2.6492,2.6492,0,1,1-2.5859,2.6392A2.4688,2.4688,0,0,1,457.9741,130.913Zm-1.293,2.6392c0,1.0986.5137,1.6655,1.293,1.6655s1.3115-.5669,1.3115-1.6655c0-1.1158-.5312-1.6475-1.3115-1.6475S456.6811,132.4364,456.6811,133.5522Zm7.458-2.4444h1.5948l-7.1748,12.3653h-1.5948Zm.62,7.2632a2.6582,2.6582,0,1,1-2.586,2.6572A2.47,2.47,0,0,1,464.7593,138.371Zm-1.3282,2.6572c0,1.0987.5313,1.63,1.3106,1.63s1.3115-.5312,1.3115-1.63c0-1.1162-.5322-1.6474-1.3115-1.6474S463.4311,139.912,463.4311,141.0282Z" transform="translate(-13.0318 -6.8843)"/><path class="cls-6" d="M312.1675,208.1586h8.3613v1.311h-3.3662v11.0367h-1.6113V209.47h-3.3838Z" transform="translate(-13.0318 -6.8843)"/><path class="cls-6" d="M324.1245,220.5063h-1.6123v-9.708h1.6123v1.5766a3.2685,3.2685,0,0,1,3.1357-1.7539v1.6655h-.4257c-1.5411,0-2.71.6905-2.71,2.9405Z" transform="translate(-13.0318 -6.8843)"/><path class="cls-6" d="M333.1235,210.6386a4.0277,4.0277,0,0,1,3.6133,1.9311v-1.7714h1.63v9.708h-1.63v-1.8072a4.0529,4.0529,0,0,1-3.6318,1.9668c-2.586,0-4.5879-2.0376-4.5879-5.0493C328.5171,212.5873,330.519,210.6386,333.1235,210.6386Zm.3184,1.4a3.2777,3.2777,0,0,0-3.2774,3.5781,3.2988,3.2988,0,1,0,3.2774-3.5781Z" transform="translate(-13.0318 -6.8843)"/><path class="cls-6" d="M348.1977,215.0146c0-1.9844-1.08-2.9942-2.71-2.9942-1.6475,0-2.7813,1.0279-2.7813,3.1182v5.3677h-1.6123v-9.708h1.6123V212.18a3.5856,3.5856,0,0,1,3.1172-1.5591c2.25,0,3.9688,1.3818,3.9688,4.1631v5.7222h-1.5948Z" transform="translate(-13.0318 -6.8843)"/><path class="cls-6" d="M355.8677,220.6659c-2.2676,0-3.8623-1.24-3.9678-3.0117h1.665c.0889.939.9209,1.6475,2.2852,1.6475,1.2754,0,1.9844-.6377,1.9844-1.4351,0-2.1611-5.74-.9033-5.74-4.5176,0-1.4878,1.3994-2.71,3.5606-2.71,2.1435,0,3.5615,1.1518,3.6679,3.0473H357.71a1.8675,1.8675,0,0,0-2.1084-1.6831c-1.1865,0-1.8955.5669-1.8955,1.3462,0,2.3033,5.6338,1.0454,5.7041,4.5176C359.4106,219.4609,358.0112,220.6659,355.8677,220.6659Z" transform="translate(-13.0318 -6.8843)"/><path class="cls-6" d="M362.0327,212.1269h-1.2578v-1.3286h1.2578v-2.4449h1.6113v2.4449h2.5342v1.3286H363.644v5.7221c0,.9566.3545,1.293,1.3467,1.293h1.1875v1.3643h-1.4531c-1.7188,0-2.6924-.7085-2.6924-2.6573Z" transform="translate(-13.0318 -6.8843)"/><path class="cls-6" d="M372.36,220.6659a5.0143,5.0143,0,1,1,4.9786-5.0312A4.8139,4.8139,0,0,1,372.36,220.6659Zm0-1.4175a3.2956,3.2956,0,0,0,3.3311-3.6137,3.2615,3.2615,0,0,0-3.2773-3.5962c-1.7012,0-3.2422,1.1514-3.2422,3.5962C369.1714,218.0971,370.6772,219.2484,372.36,219.2484Z" transform="translate(-13.0318 -6.8843)"/><path class="cls-6" d="M381.0766,220.5063h-1.6123v-9.708h1.6123v1.5766a3.2687,3.2687,0,0,1,3.1358-1.7539v1.6655h-.4258c-1.541,0-2.71.6905-2.71,2.9405Z" transform="translate(-13.0318 -6.8843)"/><path class="cls-6" d="M393.1753,215.0146c0-1.9844-1.08-2.9942-2.71-2.9942-1.6474,0-2.7812,1.0279-2.7812,3.1182v5.3677h-1.6123v-9.708h1.6123V212.18a3.5855,3.5855,0,0,1,3.1172-1.5591c2.25,0,3.9687,1.3818,3.9687,4.1631v5.7222h-1.5947Z" transform="translate(-13.0318 -6.8843)"/><path class="cls-6" d="M401.6431,220.6659a5.0143,5.0143,0,1,1,4.9785-5.0312A4.8139,4.8139,0,0,1,401.6431,220.6659Zm0-1.4175a3.2956,3.2956,0,0,0,3.331-3.6137,3.2615,3.2615,0,0,0-3.2773-3.5962c-1.7012,0-3.2422,1.1514-3.2422,3.5962C398.4546,218.0971,399.96,219.2484,401.6431,219.2484Z" transform="translate(-13.0318 -6.8843)"/><path class="cls-6" d="M417.4809,210.6386a4.0277,4.0277,0,0,1,3.6133,1.9311v-1.7714h1.63v9.708h-1.63v-1.8072a4.0529,4.0529,0,0,1-3.6318,1.9668c-2.5859,0-4.5879-2.0376-4.5879-5.0493C412.8745,212.5873,414.8765,210.6386,417.4809,210.6386Zm.3184,1.4a3.2776,3.2776,0,0,0-3.2773,3.5781,3.2987,3.2987,0,1,0,3.2773-3.5781Z" transform="translate(-13.0318 -6.8843)"/><path class="cls-6" d="M425.7524,212.1269h-1.2578v-1.3286h1.2578v-.691c0-2.1611,1.0635-3.1357,3.543-3.1357v1.3462c-1.4522,0-1.9307.5317-1.9307,1.79v.691h2.0371v1.3286h-2.0371v8.3794h-1.6123Z" transform="translate(-13.0318 -6.8843)"/><path class="cls-6" d="M435.478,220.6659a4.6763,4.6763,0,0,1-4.8008-5.0312,4.62,4.62,0,0,1,4.8008-4.9961,4.45,4.45,0,0,1,4.6592,4.6416,8.81,8.81,0,0,1-.0527.9741h-7.76a3.0518,3.0518,0,0,0,3.1533,3.0474,2.6683,2.6683,0,0,0,2.7285-1.79h1.7364A4.366,4.366,0,0,1,435.478,220.6659Zm-3.1357-5.7221h6.13a2.8488,2.8488,0,0,0-3.0645-2.941A3.0073,3.0073,0,0,0,432.3423,214.9438Z" transform="translate(-13.0318 -6.8843)"/><path class="cls-6" d="M442.6177,212.1269H441.36v-1.3286h1.2579v-2.4449h1.6113v2.4449h2.5342v1.3286H444.229v5.7221c0,.9566.3545,1.293,1.3467,1.293h1.1875v1.3643H445.31c-1.7187,0-2.6923-.7085-2.6923-2.6573Z" transform="translate(-13.0318 -6.8843)"/><path class="cls-6" d="M448.4458,208.123a1.0807,1.0807,0,1,1,1.0976,1.0986A1.0816,1.0816,0,0,1,448.4458,208.123Zm.2656,2.6753h1.6123v9.708h-1.6123Z" transform="translate(-13.0318 -6.8843)"/><path class="cls-6" d="M453.6528,210.7983l3.03,8.22,3.0107-8.22h1.7188l-3.8086,9.708h-1.8779l-3.8086-9.708Z" transform="translate(-13.0318 -6.8843)"/><path class="cls-6" d="M467.24,220.6659a5.0143,5.0143,0,1,1,4.9785-5.0312A4.8139,4.8139,0,0,1,467.24,220.6659Zm0-1.4175a3.2956,3.2956,0,0,0,3.3311-3.6137,3.2615,3.2615,0,0,0-3.2774-3.5962c-1.7011,0-3.2421,1.1514-3.2421,3.5962C464.0513,218.0971,465.5571,219.2484,467.24,219.2484Z" transform="translate(-13.0318 -6.8843)"/><path class="cls-6" d="M484.3159,210.6386c2.6221,0,4.6064,1.9487,4.6064,4.978,0,3.0117-2.0019,5.0493-4.6064,5.0493a4.0493,4.0493,0,0,1-3.6309-1.9487v1.7891h-1.6123V207.3969h1.6123v5.2085A4.1117,4.1117,0,0,1,484.3159,210.6386Zm-.3359,1.4a3.62,3.62,0,1,0,3.2949,3.5781A3.281,3.281,0,0,0,483.98,212.0385Z" transform="translate(-13.0318 -6.8843)"/><path class="cls-6" d="M490.7817,208.123a1.0807,1.0807,0,1,1,1.0977,1.0986A1.0816,1.0816,0,0,1,490.7817,208.123Zm.2656,2.6753H492.66v9.708h-1.6124Z" transform="translate(-13.0318 -6.8843)"/><path class="cls-6" d="M500.6479,210.6386c2.6045,0,4.6065,1.9487,4.6065,4.978,0,3.0117-2.002,5.0493-4.6065,5.0493a4.1976,4.1976,0,0,1-3.6308-1.9487v6.395h-1.6123V210.7983h1.6123v1.789A4.0993,4.0993,0,0,1,500.6479,210.6386Zm-.3359,1.4a3.62,3.62,0,1,0,3.2949,3.5781A3.2809,3.2809,0,0,0,500.312,212.0385Z" transform="translate(-13.0318 -6.8843)"/><path class="cls-6" d="M511.6128,220.6659a5.0143,5.0143,0,1,1,4.9785-5.0312A4.8139,4.8139,0,0,1,511.6128,220.6659Zm0-1.4175a3.2955,3.2955,0,0,0,3.331-3.6137,3.2615,3.2615,0,0,0-3.2773-3.5962c-1.7012,0-3.2422,1.1514-3.2422,3.5962C508.4243,218.0971,509.93,219.2484,511.6128,219.2484Z" transform="translate(-13.0318 -6.8843)"/><path class="cls-6" d="M518.7163,207.3969h1.6123v13.1094h-1.6123Z" transform="translate(-13.0318 -6.8843)"/><path class="cls-6" d="M527.0776,210.6386a4.0277,4.0277,0,0,1,3.6133,1.9311v-1.7714h1.63v9.708h-1.63v-1.8072a4.0529,4.0529,0,0,1-3.6318,1.9668c-2.586,0-4.5879-2.0376-4.5879-5.0493C522.4712,212.5873,524.4731,210.6386,527.0776,210.6386Zm.3184,1.4a3.2777,3.2777,0,0,0-3.2774,3.5781,3.2988,3.2988,0,1,0,3.2774-3.5781Z" transform="translate(-13.0318 -6.8843)"/><path class="cls-6" d="M536.6606,220.5063h-1.6123v-9.708h1.6123v1.5766a3.2687,3.2687,0,0,1,3.1358-1.7539v1.6655h-.4258c-1.541,0-2.71.6905-2.71,2.9405Z" transform="translate(-13.0318 -6.8843)"/><path class="cls-6" d="M542.1694,213.03a1.099,1.099,0,1,1,1.0625-1.0982A1.0815,1.0815,0,0,1,542.1694,213.03Zm0,7.5825a1.099,1.099,0,1,1,1.0625-1.0986A1.0819,1.0819,0,0,1,542.1694,220.6127Z" transform="translate(-13.0318 -6.8843)"/><path class="cls-6" d="M558.06,207.68v1.4175h-6.2187v4.039a3.7085,3.7085,0,0,1,2.9228-1.2934c3.1182,0,4.11,2.25,4.11,4.2344,0,2.48-1.3818,4.4643-4.376,4.4643a4.0713,4.0713,0,0,1-4.4111-3.5078h1.5771a2.6921,2.6921,0,0,0,2.8516,2.1435c1.9492,0,2.8174-1.311,2.8174-3.0649a2.5578,2.5578,0,0,0-2.7988-2.8877,2.747,2.747,0,0,0-2.6582,1.6831H550.353V207.68Z" transform="translate(-13.0318 -6.8843)"/><path class="cls-6" d="M561.1772,218.2743h1.7715l-1.9844,4.7652h-1.08Z" transform="translate(-13.0318 -6.8843)"/><path class="cls-6" d="M568.99,207.5033c3.5254,0,4.4463,2.7989,4.4463,6.4659,0,3.72-.9209,6.5371-4.4463,6.5371-3.5429,0-4.4638-2.8169-4.4638-6.5371C564.5259,210.3022,565.4468,207.5033,568.99,207.5033Zm0,1.47c-2.5332,0-2.87,2.3384-2.87,4.9957,0,2.7636.3369,5.0668,2.87,5.0668,2.5157,0,2.8526-2.3032,2.8526-5.0668C571.8423,211.3119,571.5054,208.9735,568.99,208.9735Z" transform="translate(-13.0318 -6.8843)"/><path class="cls-6" d="M583.5337,207.7333v1.2227l-4.9248,11.55h-1.63l4.9961-11.3912h-6.8379v-1.3818Z" transform="translate(-13.0318 -6.8843)"/><path class="cls-6" d="M587.5542,207.9462a2.6492,2.6492,0,1,1-2.586,2.6392A2.4688,2.4688,0,0,1,587.5542,207.9462Zm-1.293,2.6392c0,1.0986.5137,1.6655,1.293,1.6655s1.3115-.5669,1.3115-1.6655c0-1.1158-.5312-1.6475-1.3115-1.6475S586.2612,209.47,586.2612,210.5854Zm7.458-2.4444h1.5948l-7.1749,12.3653h-1.5947Zm.62,7.2632a2.6582,2.6582,0,1,1-2.5859,2.6572A2.47,2.47,0,0,1,594.3393,215.4042Zm-1.3281,2.6572c0,1.0987.5313,1.63,1.3106,1.63s1.3115-.5312,1.3115-1.63c0-1.1162-.5322-1.6474-1.3115-1.6474S593.0112,216.9452,593.0112,218.0614Z" transform="translate(-13.0318 -6.8843)"/><path class="cls-6" d="M312.1675,164.3276h8.3613v1.311h-3.3662v11.0366h-1.6113V165.6386h-3.3838Z" transform="translate(-13.0318 -6.8843)"/><path class="cls-6" d="M324.1245,176.6752h-1.6123v-9.708h1.6123v1.5767A3.2685,3.2685,0,0,1,327.26,166.79v1.6655h-.4257c-1.5411,0-2.71.69-2.71,2.94Z" transform="translate(-13.0318 -6.8843)"/><path class="cls-6" d="M333.1235,166.8075a4.0275,4.0275,0,0,1,3.6133,1.9312v-1.7715h1.63v9.708h-1.63v-1.8071a4.0529,4.0529,0,0,1-3.6318,1.9668c-2.586,0-4.5879-2.0376-4.5879-5.0493C328.5171,168.7563,330.519,166.8075,333.1235,166.8075Zm.3184,1.4a3.2777,3.2777,0,0,0-3.2774,3.5782,3.2988,3.2988,0,1,0,3.2774-3.5782Z" transform="translate(-13.0318 -6.8843)"/><path class="cls-6" d="M348.1977,171.1835c0-1.9844-1.08-2.9941-2.71-2.9941-1.6475,0-2.7813,1.0278-2.7813,3.1181v5.3677h-1.6123v-9.708h1.6123v1.3818a3.5857,3.5857,0,0,1,3.1172-1.559c2.25,0,3.9688,1.3818,3.9688,4.163v5.7222h-1.5948Z" transform="translate(-13.0318 -6.8843)"/><path class="cls-6" d="M355.8677,176.8349c-2.2676,0-3.8623-1.24-3.9678-3.0117h1.665c.0889.9389.9209,1.6474,2.2852,1.6474,1.2754,0,1.9844-.6377,1.9844-1.435,0-2.1612-5.74-.9034-5.74-4.5176,0-1.4878,1.3994-2.71,3.5606-2.71,2.1435,0,3.5615,1.1519,3.6679,3.0474H357.71a1.8675,1.8675,0,0,0-2.1084-1.6831c-1.1865,0-1.8955.5669-1.8955,1.3462,0,2.3032,5.6338,1.0454,5.7041,4.5176C359.4106,175.63,358.0112,176.8349,355.8677,176.8349Z" transform="translate(-13.0318 -6.8843)"/><path class="cls-6" d="M362.0327,168.2958h-1.2578v-1.3286h1.2578v-2.4448h1.6113v2.4448h2.5342v1.3286H363.644v5.7222c0,.9565.3545,1.2929,1.3467,1.2929h1.1875v1.3643h-1.4531c-1.7188,0-2.6924-.7085-2.6924-2.6572Z" transform="translate(-13.0318 -6.8843)"/><path class="cls-6" d="M372.36,176.8349a5.0143,5.0143,0,1,1,4.9786-5.0313A4.814,4.814,0,0,1,372.36,176.8349Zm0-1.4175a3.2957,3.2957,0,0,0,3.3311-3.6138,3.2615,3.2615,0,0,0-3.2773-3.5962c-1.7012,0-3.2422,1.1514-3.2422,3.5962C369.1714,174.266,370.6772,175.4174,372.36,175.4174Z" transform="translate(-13.0318 -6.8843)"/><path class="cls-6" d="M381.0766,176.6752h-1.6123v-9.708h1.6123v1.5767a3.2687,3.2687,0,0,1,3.1358-1.7539v1.6655h-.4258c-1.541,0-2.71.69-2.71,2.94Z" transform="translate(-13.0318 -6.8843)"/><path class="cls-6" d="M393.1753,171.1835c0-1.9844-1.08-2.9941-2.71-2.9941-1.6474,0-2.7812,1.0278-2.7812,3.1181v5.3677h-1.6123v-9.708h1.6123v1.3818a3.5856,3.5856,0,0,1,3.1172-1.559c2.25,0,3.9687,1.3818,3.9687,4.163v5.7222h-1.5947Z" transform="translate(-13.0318 -6.8843)"/><path class="cls-6" d="M401.6431,176.8349a5.0143,5.0143,0,1,1,4.9785-5.0313A4.814,4.814,0,0,1,401.6431,176.8349Zm0-1.4175a3.2957,3.2957,0,0,0,3.331-3.6138,3.2615,3.2615,0,0,0-3.2773-3.5962c-1.7012,0-3.2422,1.1514-3.2422,3.5962C398.4546,174.266,399.96,175.4174,401.6431,175.4174Z" transform="translate(-13.0318 -6.8843)"/><path class="cls-6" d="M412.1841,176.8349c-2.2676,0-3.8623-1.24-3.9678-3.0117h1.665c.0889.9389.9209,1.6474,2.2852,1.6474,1.2754,0,1.9844-.6377,1.9844-1.435,0-2.1612-5.74-.9034-5.74-4.5176,0-1.4878,1.3994-2.71,3.5606-2.71,2.1435,0,3.5615,1.1519,3.6679,3.0474h-1.6123a1.8675,1.8675,0,0,0-2.1084-1.6831c-1.1865,0-1.8955.5669-1.8955,1.3462,0,2.3032,5.6338,1.0454,5.7041,4.5176C415.727,175.63,414.3276,176.8349,412.1841,176.8349Z" transform="translate(-13.0318 -6.8843)"/><path class="cls-6" d="M426.7456,166.8075a4.2335,4.2335,0,0,1,3.5957,1.8955v-5.1372h1.63v13.1094h-1.63v-1.8247a3.9858,3.9858,0,0,1-3.6133,1.9844c-2.6045,0-4.6064-2.0376-4.6064-5.0493C422.1216,168.7563,424.1235,166.8075,426.7456,166.8075Zm.3008,1.4a3.2777,3.2777,0,0,0-3.2774,3.5782,3.2988,3.2988,0,1,0,3.2774-3.5782Z" transform="translate(-13.0318 -6.8843)"/><path class="cls-6" d="M438.897,176.8349a4.6764,4.6764,0,0,1-4.8008-5.0313,4.62,4.62,0,0,1,4.8008-4.9961,4.45,4.45,0,0,1,4.6591,4.6416,8.7893,8.7893,0,0,1-.0527.9742h-7.76a3.0518,3.0518,0,0,0,3.1534,3.0473,2.6683,2.6683,0,0,0,2.7285-1.79h1.7363A4.3661,4.3661,0,0,1,438.897,176.8349Zm-3.1358-5.7222h6.13a2.8487,2.8487,0,0,0-3.0645-2.9409A3.0073,3.0073,0,0,0,435.7612,171.1127Z" transform="translate(-13.0318 -6.8843)"/><path class="cls-6" d="M450.9253,166.8075c2.6045,0,4.6064,1.9488,4.6064,4.9781,0,3.0117-2.0019,5.0493-4.6064,5.0493a4.1979,4.1979,0,0,1-3.6309-1.9488v6.3951h-1.6123v-14.314h1.6123v1.7891A4.0992,4.0992,0,0,1,450.9253,166.8075Zm-.336,1.4a3.62,3.62,0,1,0,3.295,3.5782A3.281,3.281,0,0,0,450.5893,168.2074Z" transform="translate(-13.0318 -6.8843)"/><path class="cls-6" d="M459.269,176.6752h-1.6123v-9.708h1.6123v1.5767a3.2687,3.2687,0,0,1,3.1358-1.7539v1.6655h-.4258c-1.541,0-2.71.69-2.71,2.94Z" transform="translate(-13.0318 -6.8843)"/><path class="cls-6" d="M468.4624,176.8349a4.6764,4.6764,0,0,1-4.8008-5.0313,4.62,4.62,0,0,1,4.8008-4.9961,4.45,4.45,0,0,1,4.6592,4.6416,8.789,8.789,0,0,1-.0528.9742h-7.76a3.0517,3.0517,0,0,0,3.1533,3.0473,2.6683,2.6683,0,0,0,2.7285-1.79h1.7363A4.366,4.366,0,0,1,468.4624,176.8349Zm-3.1358-5.7222h6.13a2.8486,2.8486,0,0,0-3.0644-2.9409A3.0073,3.0073,0,0,0,465.3266,171.1127Z" transform="translate(-13.0318 -6.8843)"/><path class="cls-6" d="M478.6841,176.8349c-2.2676,0-3.8623-1.24-3.9678-3.0117h1.665c.0889.9389.9209,1.6474,2.2852,1.6474,1.2754,0,1.9844-.6377,1.9844-1.435,0-2.1612-5.74-.9034-5.74-4.5176,0-1.4878,1.3994-2.71,3.5606-2.71,2.1435,0,3.5615,1.1519,3.6679,3.0474h-1.6123a1.8675,1.8675,0,0,0-2.1084-1.6831c-1.1865,0-1.8955.5669-1.8955,1.3462,0,2.3032,5.6338,1.0454,5.7041,4.5176C482.227,175.63,480.8276,176.8349,478.6841,176.8349Z" transform="translate(-13.0318 -6.8843)"/><path class="cls-6" d="M487.9311,176.8349c-2.2675,0-3.8623-1.24-3.9677-3.0117h1.665c.0889.9389.9209,1.6474,2.2852,1.6474,1.2754,0,1.9843-.6377,1.9843-1.435,0-2.1612-5.74-.9034-5.74-4.5176,0-1.4878,1.3994-2.71,3.5605-2.71,2.1436,0,3.5616,1.1519,3.668,3.0474h-1.6123a1.8675,1.8675,0,0,0-2.1084-1.6831c-1.1865,0-1.8955.5669-1.8955,1.3462,0,2.3032,5.6338,1.0454,5.7041,4.5176C491.4741,175.63,490.0747,176.8349,487.9311,176.8349Z" transform="translate(-13.0318 -6.8843)"/><path class="cls-6" d="M493.4761,164.2919a1.0807,1.0807,0,1,1,1.0976,1.0986A1.0816,1.0816,0,0,1,493.4761,164.2919Zm.2656,2.6753h1.6123v9.708h-1.6123Z" transform="translate(-13.0318 -6.8843)"/><path class="cls-6" d="M498.6831,166.9672l3.03,8.22,3.0107-8.22h1.7188l-3.8086,9.708h-1.878l-3.8086-9.708Z" transform="translate(-13.0318 -6.8843)"/><path class="cls-6" d="M512.27,176.8349a5.0143,5.0143,0,1,1,4.9785-5.0313A4.8139,4.8139,0,0,1,512.27,176.8349Zm0-1.4175a3.2957,3.2957,0,0,0,3.3311-3.6138,3.2615,3.2615,0,0,0-3.2774-3.5962c-1.7012,0-3.2422,1.1514-3.2422,3.5962C509.0815,174.266,510.5874,175.4174,512.27,175.4174Z" transform="translate(-13.0318 -6.8843)"/><path class="cls-6" d="M522.811,176.8349c-2.2676,0-3.8623-1.24-3.9678-3.0117h1.6651c.0889.9389.9209,1.6474,2.2851,1.6474,1.2754,0,1.9844-.6377,1.9844-1.435,0-2.1612-5.74-.9034-5.74-4.5176,0-1.4878,1.3994-2.71,3.5605-2.71,2.1436,0,3.5616,1.1519,3.668,3.0474h-1.6123a1.8675,1.8675,0,0,0-2.1084-1.6831c-1.1865,0-1.8955.5669-1.8955,1.3462,0,2.3032,5.6338,1.0454,5.7041,4.5176C526.354,175.63,524.9546,176.8349,522.811,176.8349Z" transform="translate(-13.0318 -6.8843)"/><path class="cls-6" d="M534.9634,176.6752h-1.6123v-9.708h1.6123v1.5767a3.2685,3.2685,0,0,1,3.1357-1.7539v1.6655h-.4258c-1.541,0-2.71.69-2.71,2.94Z" transform="translate(-13.0318 -6.8843)"/><path class="cls-6" d="M544.1567,176.8349a4.6765,4.6765,0,0,1-4.8008-5.0313,4.62,4.62,0,0,1,4.8008-4.9961,4.45,4.45,0,0,1,4.6592,4.6416,8.8136,8.8136,0,0,1-.0527.9742h-7.76a3.0518,3.0518,0,0,0,3.1533,3.0473,2.6683,2.6683,0,0,0,2.7285-1.79h1.7364A4.3661,4.3661,0,0,1,544.1567,176.8349Zm-3.1357-5.7222h6.13a2.8487,2.8487,0,0,0-3.0645-2.9409A3.0072,3.0072,0,0,0,541.021,171.1127Z" transform="translate(-13.0318 -6.8843)"/><path class="cls-6" d="M555.07,166.8075a4.2187,4.2187,0,0,1,4.4815,3.2774h-1.7364a2.6438,2.6438,0,0,0-2.7451-1.9131c-1.7715,0-3.083,1.2578-3.083,3.6318,0,2.4092,1.3115,3.667,3.083,3.667a2.603,2.603,0,0,0,2.7451-1.9136h1.7364a4.318,4.318,0,0,1-4.4815,3.2779c-2.7637,0-4.7305-1.9488-4.7305-5.0313C550.3393,168.7563,552.3061,166.8075,555.07,166.8075Z" transform="translate(-13.0318 -6.8843)"/><path class="cls-6" d="M565.9282,176.8349a5.0143,5.0143,0,1,1,4.9785-5.0313A4.8139,4.8139,0,0,1,565.9282,176.8349Zm0-1.4175a3.2957,3.2957,0,0,0,3.3311-3.6138,3.2615,3.2615,0,0,0-3.2774-3.5962c-1.7012,0-3.2422,1.1514-3.2422,3.5962C562.74,174.266,564.2456,175.4174,565.9282,175.4174Z" transform="translate(-13.0318 -6.8843)"/><path class="cls-6" d="M574.645,176.6752h-1.6123v-9.708h1.6123v1.5767a3.2686,3.2686,0,0,1,3.1357-1.7539v1.6655h-.4257c-1.541,0-2.71.69-2.71,2.94Z" transform="translate(-13.0318 -6.8843)"/><path class="cls-6" d="M581.2524,176.6752H579.64v-9.708h1.6123v1.5767a3.2687,3.2687,0,0,1,3.1358-1.7539v1.6655h-.4258c-1.541,0-2.71.69-2.71,2.94Z" transform="translate(-13.0318 -6.8843)"/><path class="cls-6" d="M590.4458,176.8349a4.6764,4.6764,0,0,1-4.8008-5.0313,4.62,4.62,0,0,1,4.8008-4.9961,4.45,4.45,0,0,1,4.6592,4.6416,8.789,8.789,0,0,1-.0528.9742h-7.76a3.0517,3.0517,0,0,0,3.1533,3.0473,2.6683,2.6683,0,0,0,2.7285-1.79h1.7363A4.366,4.366,0,0,1,590.4458,176.8349Zm-3.1358-5.7222h6.13a2.8486,2.8486,0,0,0-3.0644-2.9409A3.0073,3.0073,0,0,0,587.31,171.1127Z" transform="translate(-13.0318 -6.8843)"/><path class="cls-6" d="M604.3345,171.1835c0-1.9844-1.08-2.9941-2.71-2.9941-1.6475,0-2.7813,1.0278-2.7813,3.1181v5.3677h-1.6123v-9.708h1.6123v1.3818a3.5857,3.5857,0,0,1,3.1172-1.559c2.25,0,3.9688,1.3818,3.9688,4.163v5.7222h-1.5947Z" transform="translate(-13.0318 -6.8843)"/><path class="cls-6" d="M608.9223,168.2958h-1.2578v-1.3286h1.2578v-2.4448h1.6114v2.4448h2.5342v1.3286h-2.5342v5.7222c0,.9565.3545,1.2929,1.3467,1.2929h1.1875v1.3643h-1.4532c-1.7187,0-2.6924-.7085-2.6924-2.6572Z" transform="translate(-13.0318 -6.8843)"/><path class="cls-6" d="M619.2143,176.8349a4.6764,4.6764,0,0,1-4.8007-5.0313,4.62,4.62,0,0,1,4.8007-4.9961,4.45,4.45,0,0,1,4.6592,4.6416,8.8136,8.8136,0,0,1-.0527.9742h-7.76a3.0518,3.0518,0,0,0,3.1533,3.0473,2.6683,2.6683,0,0,0,2.7286-1.79h1.7363A4.3661,4.3661,0,0,1,619.2143,176.8349Zm-3.1357-5.7222h6.13a2.8487,2.8487,0,0,0-3.0645-2.9409A3.0072,3.0072,0,0,0,616.0786,171.1127Z" transform="translate(-13.0318 -6.8843)"/><path class="cls-6" d="M629.436,176.8349c-2.2676,0-3.8623-1.24-3.9678-3.0117h1.6651c.0889.9389.9209,1.6474,2.2851,1.6474,1.2754,0,1.9844-.6377,1.9844-1.435,0-2.1612-5.74-.9034-5.74-4.5176,0-1.4878,1.3994-2.71,3.5605-2.71,2.1436,0,3.5616,1.1519,3.668,3.0474h-1.6123a1.8675,1.8675,0,0,0-2.1084-1.6831c-1.1865,0-1.8955.5669-1.8955,1.3462,0,2.3032,5.6338,1.0454,5.7041,4.5176C632.979,175.63,631.58,176.8349,629.436,176.8349Z" transform="translate(-13.0318 -6.8843)"/><path class="cls-6" d="M635.76,169.1991a1.099,1.099,0,1,1,1.0625-1.0981A1.0815,1.0815,0,0,1,635.76,169.1991Zm0,7.5826a1.099,1.099,0,1,1,1.0625-1.0987A1.082,1.082,0,0,1,635.76,176.7817Z" transform="translate(-13.0318 -6.8843)"/><path class="cls-6" d="M644.7593,165.3373h-1.7012v-1.47h3.331v12.8081h-1.63Z" transform="translate(-13.0318 -6.8843)"/><path class="cls-6" d="M648.9575,175.3817c3.3662-2.71,6.5547-5.2612,6.5547-7.8833a2.1629,2.1629,0,0,0-2.3555-2.48c-1.666,0-2.5156,1.1513-2.5869,2.7636h-1.5586a3.9233,3.9233,0,0,1,4.127-4.1455c2.4091,0,3.9687,1.4175,3.9687,3.791,0,3.189-3.4365,5.8995-5.7226,7.7593h6.0947v1.3467h-8.5215Z" transform="translate(-13.0318 -6.8843)"/><path class="cls-6" d="M659.4975,174.4433h1.7715l-1.9843,4.7651h-1.08Z" transform="translate(-13.0318 -6.8843)"/><path class="cls-6" d="M664.1216,165.3373H662.42v-1.47h3.3311v12.8081h-1.63Z" transform="translate(-13.0318 -6.8843)"/><path class="cls-6" d="M672.979,163.6723c3.5254,0,4.4463,2.7988,4.4463,6.4658,0,3.72-.9209,6.5371-4.4463,6.5371-3.543,0-4.4639-2.8169-4.4639-6.5371C668.5151,166.4711,669.436,163.6723,672.979,163.6723Zm0,1.47c-2.5332,0-2.87,2.3384-2.87,4.9956,0,2.7637.3369,5.0669,2.87,5.0669,2.5156,0,2.8525-2.3032,2.8525-5.0669C675.8315,167.4809,675.4946,165.1425,672.979,165.1425Z" transform="translate(-13.0318 -6.8843)"/><path class="cls-6" d="M681.8716,164.1151a2.6492,2.6492,0,1,1-2.586,2.6392A2.4688,2.4688,0,0,1,681.8716,164.1151Zm-1.293,2.6392c0,1.0986.5137,1.6655,1.293,1.6655s1.3115-.5669,1.3115-1.6655c0-1.1157-.5313-1.6475-1.3115-1.6475S680.5786,165.6386,680.5786,166.7543Zm7.458-2.4443h1.5947l-7.1748,12.3652h-1.5947Zm.62,7.2632a2.6582,2.6582,0,1,1-2.5859,2.6572A2.47,2.47,0,0,1,688.6567,171.5732Zm-1.3281,2.6572c0,1.0986.5312,1.63,1.31,1.63s1.3116-.5313,1.3116-1.63c0-1.1162-.5323-1.6475-1.3116-1.6475S687.3286,173.1142,687.3286,174.23Z" transform="translate(-13.0318 -6.8843)"/></svg>