<svg id="_1" data-name="1" xmlns="http://www.w3.org/2000/svg" viewBox="0 0 891.0919 524.5996"><defs><style>.cls-1{fill:#cce3f1;}.cls-1,.cls-10,.cls-2{isolation:isolate;}.cls-2{fill:#f7a613;}.cls-3{fill:#ec6465;}.cls-4{fill:#0d1121;}.cls-5{fill:#7794cc;}.cls-6{fill:#c2d4ef;}.cls-7{fill:#ad9b84;}.cls-8{fill:#1d2135;}.cls-9{fill:#fff;}.cls-10{fill:#2f5579;}.cls-11{fill:#a1a7b7;}.cls-12{fill:#737682;}.cls-13{fill:#d4d5e2;}.cls-14{fill:#f9f7e5;}.cls-15{fill:#70706e;}.cls-16{fill:#c28f72;}.cls-17{fill:#6eb52f;}.cls-18{fill:#4faa33;}.cls-19{fill:#209438;}.cls-20{fill:#dca065;}.cls-21{fill:#c18853;}.cls-22{fill:#b0a6b1;}.cls-23{fill:#566484;}</style></defs><path class="cls-1" d="M943.5066,407.2984C936.7974,138.951,738.9841,129.4566,629.585,192.248c-56.691,32.5388-106.603,86.6135-171.88,88.5591-46.8124,1.3951-89.6981-25.1489-135.73-33.8039-66.0717-12.423-136.7975,14.7849-181.8977,64.8155-82.7889,91.84-83.9294,248.513,24.4837,368.2352l698.088,1.3509C915.16,624.4543,945.844,500.7822,943.5066,407.2984Z" transform="translate(-66.454 -160.25)"/><path class="cls-2" d="M555.3229,384.021C355.5445,476.0478,237.2476,585.0884,87.2081,534.5386,98.4551,584.66,123.7408,634.9762,164.56,680.0539l698.088,1.3509c52.5111-56.9505,83.1956-180.6226,80.8582-274.1064q-.3528-14.11-1.4063-27.2623C874.3466,351.0157,723.8894,306.3718,555.3229,384.021Z" transform="translate(-66.454 -160.25)"/><path class="cls-3" d="M739.7666,476.3228H870.4114a21.7567,21.7567,0,0,1,21.1476,26.8688L848.478,681.4048H761.96Z" transform="translate(-66.454 -160.25)"/><path class="cls-4" d="M851.7088,682.2955l.964-3.9877,2.6485-10.9562,3.987-16.4928,4.9259-20.3769,5.5138-22.8091,5.7369-23.7316,5.5948-23.1441,5.0877-21.0465,4.2157-17.439,2.9786-12.3215q.6882-2.8471,1.3765-5.6942A25.12,25.12,0,0,0,870.41,472.9723c-.5089-.0027-1.0179,0-1.5268,0H739.7666a3.35,3.35,0,0,0,0,6.701H864.3877c2.0043,0,4.0088-.01,6.013,0,.1985.001.397.0024.5954.0076q.5784.015,1.1558.06c.2382.0186,1.2586.1462.5271.0376a22.04,22.04,0,0,1,4.0491.9893c.3008.1053.5943.2334.8954.3364.36.1233-.136-.0579-.1728-.0751.164.0762.33.1472.4941.224q.9161.4292,1.7889.9435.8658.51,1.6823,1.0979c.108.0779.2125.1629.3225.2376.4.2714-.401-.36-.0466-.0323.26.24.5475.454.8118.69q.6943.6194,1.3341,1.2964.3192.3378.6243.6884.1742.2.3433.405c.0581.07.5133.66.233.2847-.22-.2945.268.3771.3654.5175q.2649.3819.5132.775.5334.8425.9887,1.7313c.1621.3167.3107.6388.4625.96.0281.06.2066.4736.0434.09-.1747-.4111.0452.118.0828.2186.2355.6287.455,1.261.6382,1.9072q.2577.91.4352,1.84c.0324.17.1919,1.3063.0926.4535a22.2577,22.2577,0,0,1,.0107,5.2769c.0678-.6739-.0277.1349-.0729.3856q-.09.5-.2031.9964c-.0225.0994-.0465.1985-.07.2977-.03.1254-.0606.2506-.0908.3758q-.2673,1.1088-.536,2.2171l-2.32,9.5979-3.7094,15.3443-4.7316,19.5732-5.37,22.2137-5.6943,23.5557-5.6368,23.3176-5.2187,21.5885-4.44,18.3683-3.29,13.6113-1.8091,7.4836-.2305.9536a3.3513,3.3513,0,0,0,6.4616,1.7814Z" transform="translate(-66.454 -160.25)"/><path class="cls-5" d="M821.8111,473.85c-11.6176-20.9168-34.0494-37.0682-57.9392-35.7412l-119.1954-5.7367c-19.7788-.1229-37.3986,13.4289-48.6842,29.6724s-17.74,35.26-26.317,53.0828c-17.6922,36.7611-44.1027,67.9061-74.037,95.9116l1.1539-.0113a273.28,273.28,0,0,1,40.6337,52.9534,354.0263,354.0263,0,0,0,42.55-31.24l-5.4441,48.5449,150.5447.119h65.6676a275.0378,275.0378,0,0,0,44.0936-137.8955C835.8344,519.6034,833.4287,494.7667,821.8111,473.85Z" transform="translate(-66.454 -160.25)"/><path class="cls-6" d="M718.3156,477.5582c22.3523-2.9107,46.7858-16.64,57.7311-38.5473l-18.5925-6.64-39.1386,22.5936Z" transform="translate(-66.454 -160.25)"/><path class="cls-4" d="M718.3156,480.9087a86.5122,86.5122,0,0,0,27.8381-8.627,78.4506,78.4506,0,0,0,23.2674-17.683A65.0857,65.0857,0,0,0,778.94,440.702a3.3511,3.3511,0,1,0-5.7861-3.3822,59.6406,59.6406,0,0,1-3.5241,6.1q-.9675,1.4658-2.0176,2.875a5.6256,5.6256,0,0,0-.4978.6592c.3239-.6141.3041-.39.1449-.188-.1066.1351-.2124.2707-.32.4055q-.5457.6872-1.11,1.3594a70.1262,70.1262,0,0,1-10.08,9.7677,7.6207,7.6207,0,0,0-.6511.5119c.699-.6956-.0279.0186-.2264.1682q-.7027.53-1.4176,1.0432-1.4293,1.0266-2.9036,1.9887-2.9421,1.92-6.043,3.58-3.0788,1.65-6.288,3.0394c-.1251.0542-.2506.1075-.3757.1617-.6516.282.58-.24.1415-.06-.2516.1036-.5027.2084-.7549.3107q-.8018.3256-1.61.6347-1.6084.6148-3.2412,1.1636-3.6452,1.2244-7.3941,2.1057-1.8144.4249-3.6476.7637-.9066.1672-1.8171.3126-.4762.0761-.9536.1458c-.127.0185-.254.0363-.3809.0546-.6316.0911.8086-.1058.13-.0165a3.6863,3.6863,0,0,0-2.3691.9813,3.405,3.405,0,0,0-.9814,2.3692c.0726,1.6192,1.4893,3.5953,3.3505,3.3505Z" transform="translate(-66.454 -160.25)"/><path class="cls-6" d="M555.323,651.7438a254.91,254.91,0,0,0-44.35-53.9617l-31.0422,26.9808,37.6959,55.9449Z" transform="translate(-66.454 -160.25)"/><path class="cls-6" d="M704.9645,629.9366a77.4727,77.4727,0,0,0,48.7677-42.3291L739.4263,556.615l-47.97,36.6608Z" transform="translate(-66.454 -160.25)"/><path class="cls-4" d="M705.8552,633.1675a78.8341,78.8341,0,0,0,24.1156-11.6832,83.1133,83.1133,0,0,0,19.3062-19.3511,74.8865,74.8865,0,0,0,7.3483-12.8346,3.6422,3.6422,0,0,0,.3377-2.5818,3.4172,3.4172,0,0,0-1.54-2.0024c-1.4614-.7721-3.82-.5059-4.5842,1.202a74.6787,74.6787,0,0,1-6.2709,11.281q-.8816,1.3059-1.8168,2.5745a10.7025,10.7025,0,0,0-.9478,1.2589c.03-.0571.4906-.6279.1375-.18-.0651.0825-.13.1653-.1948.2478q-.2928.3712-.59.7389-2.0158,2.4921-4.2326,4.8125-2.2143,2.3187-4.6131,4.4517-1.2178,1.0829-2.48,2.1147-.6105.4992-1.2307.9861c-.0827.0649-.1658.1291-.2485.1941-.3454.2716.5293-.4034.1788-.1384-.2515.19-.5019.3819-.7546.5706a77.6491,77.6491,0,0,1-10.8553,6.7931q-1.5869.8186-3.2112,1.562-.8118.3713-1.6323.7235c-.1191.0511-.5513.25-.0833.0363.5045-.23-.0691.0272-.1816.0735q-.3885.16-.779.315-3.4184,1.36-6.96,2.3736a3.3514,3.3514,0,0,0,1.7814,6.4617Z" transform="translate(-66.454 -160.25)"/><path class="cls-4" d="M508.6042,600.1512a255.5186,255.5186,0,0,1,18.9886,19.5059q4.4819,5.1257,8.6861,10.4855.4967.6332.9892,1.2695c.231.2976-.1326-.1761-.1455-.1883a3.4534,3.4534,0,0,1,.3018.3926q.2637.3438.5263.6884,1.05,1.3786,2.082,2.7714,2.0262,2.7359,3.9789,5.525,4.4019,6.288,8.4183,12.8336a3.351,3.351,0,1,0,5.7861-3.3821,261.6137,261.6137,0,0,0-15.9824-23.0852,256.91,256.91,0,0,0-17.8453-20.7205q-5.3565-5.5839-11.0457-10.8341a3.3505,3.3505,0,0,0-4.7384,4.7383Z" transform="translate(-66.454 -160.25)"/><path class="cls-7" d="M495.6383,611.0386c-20.27,18.9644-42.1559,36.4894-64.0466,53.3421l-4.71,13.2545,79.671,3.6506a334.6579,334.6579,0,0,0,30.8735-17.3051,273.28,273.28,0,0,0-40.6337-52.9534Z" transform="translate(-66.454 -160.25)"/><path class="cls-7" d="M722.7261,459.1136c14.9476-3.95,29.3059-11.9008,39.234-23.7525l9.6951-55.0137-34.6627,15.1969-61.6571,32.2771,16.5327,31.2922Z" transform="translate(-66.454 -160.25)"/><path class="cls-4" d="M723.6168,462.3444A84.26,84.26,0,0,0,757.02,445.1181a64.771,64.771,0,0,0,7.3091-7.3878,3.4241,3.4241,0,0,0,0-4.7384c-1.2425-1.1406-3.5338-1.4325-4.7384,0a64.4018,64.4018,0,0,1-6.289,6.4913q-1.6439,1.4746-3.3815,2.84c-.1651.13-.6216.4477.0517-.0367-.1224.0881-.24.1842-.3606.2753q-.4519.3429-.9094.6785-.9156.6719-1.852,1.3147a77.1925,77.1925,0,0,1-7.7994,4.6958q-1.97,1.0349-3.9936,1.9614c-.6571.3011-1.3186.5919-1.9825.8777-.5443.2342.0994-.0325.17-.0713a6.108,6.108,0,0,1-.6326.2614q-.5279.2156-1.0587.4243a88.9925,88.9925,0,0,1-9.7177,3.1783,3.3514,3.3514,0,0,0,1.7814,6.4617Z" transform="translate(-66.454 -160.25)"/><path class="cls-7" d="M751.0988,419.7273c-42.5652,34.6188-91.9636,23.0679-106.6863-10.7341-10.2929-23.6314-1.924-73.0883,4.6749-98.0128,0,0,1.7654-18.8955,24.046-30.7283s72.996-12.484,72.996-12.484l41.5312,12.8292,16.1768,9.865,1.7577,25.1839-23.6345,34.2306c27.605-5.0026,33.7513,29.2873,13.8666,41.8728a25.6761,25.6761,0,0,1-26.4932.2254" transform="translate(-66.454 -160.25)"/><path class="cls-4" d="M782.8513,353.1076c.403-.0719.8068-.135,1.2115-.1965.5661-.0859-.9021.1044-.1269.02.223-.0242.4458-.05.6692-.0712q1.1313-.1077,2.2689-.125,1.1155-.0151,2.23.0671c.345.026.6883.064,1.0322.1009.5472.0587-.8537-.1284-.3138-.0427.1892.03.3786.0581.5674.0909a20.31,20.31,0,0,1,3.7684,1.0279c.1438.0549.2858.1144.43.17.4833.1865-.825-.3684-.2592-.1059.2936.1362.5869.2712.8753.4185q.7923.4047,1.5429.8852.3695.2367.727.491c.1185.0842.2349.1714.3523.2571.4973.3628-.6618-.5348-.1877-.1438.46.3794.91.7678,1.3359,1.185q.6123.5991,1.1674,1.2532.1383.1629.2729.3289c.0384.0474.0757.0958.1147.1428.2983.3589-.333-.424-.2987-.3894a5.4437,5.4437,0,0,1,.5384.74,20.306,20.306,0,0,1,1.7268,3.0278c.0517.1117.1015.2242.1522.3364a2.2369,2.2369,0,0,0,.0983.2259,5.2067,5.2067,0,0,0-.2186-.5161c.1089.2893.2291.5738.3344.8645q.3071.8471.5453,1.717.2319.8451.4,1.7062.0844.4324.1528.868c.0164.1038.0012.3651.0647.4371a2.9711,2.9711,0,0,0-.0784-.5772c.01.105.0256.21.0374.3144a25.0234,25.0234,0,0,1,.14,3.6332q-.03.903-.1246,1.8023c-.0157.15-.0354.3-.0511.4507-.0546.5246.1387-.9387.042-.3115-.05.3218-.1.6433-.1589.9636a25.7451,25.7451,0,0,1-.943,3.6185q-.1491.4389-.3142.8722c-.0551.1448-.1126.2886-.1692.4328-.0243.0618-.052.1226-.0752.1848-.12.3224.3852-.8781.1568-.371-.2567.57-.5164,1.1361-.8065,1.69a24.9369,24.9369,0,0,1-2.0508,3.2724c-.0545.0734-.112.1449-.1647.22-.1993.2823.3662-.4882.3144-.4056a4,4,0,0,1-.3007.3775q-.3278.4034-.6723.7928-.6507.7351-1.3584,1.4167-.7457.7181-1.5494,1.3719c-.077.0626-.3059.31-.3957.3155.1647-.01.6956-.5285.2154-.1713q-.4418.3287-.8976.6378a23.8941,23.8941,0,0,1-2.3949,1.432c-.454.236-.9165.4528-1.3826.6636-.5729.2591.579-.2248-.0075.0014-.2726.1052-.5444.2116-.82.31a25.2664,25.2664,0,0,1-3.0515.88q-.75.1662-1.508.2876c-.2588.0415-1.0421.05-.0871.0183-.2893.01-.5846.0661-.8733.0914a26.3824,26.3824,0,0,1-3.0709.09q-.768-.0222-1.534-.0892-.3279-.0288-.6552-.0657a2.1485,2.1485,0,0,0-.4357-.0529c.1458-.0246.7093.1058.2391.0267a28.33,28.33,0,0,1-3.1031-.6821q-.7372-.211-1.4605-.4669-.3614-.128-.7187-.2668c-.102-.04-.2029-.083-.3052-.1216-.4086-.1542.771.3472.0943.0388a26.6465,26.6465,0,0,1-2.72-1.4211,3.351,3.351,0,1,0-3.3821,5.7861,29.2528,29.2528,0,0,0,27.7728.9574,27.7483,27.7483,0,0,0,12.8559-13.5519,29.44,29.44,0,0,0,2.0086-17.42,23.3172,23.3172,0,0,0-8.0494-13.7567,24.4565,24.4565,0,0,0-17.8755-4.9133c-1.0994.1139-2.1972.2679-3.2854.4622a3.3664,3.3664,0,0,0-2.34,4.1215,3.4424,3.4424,0,0,0,4.1215,2.34Z" transform="translate(-66.454 -160.25)"/><path class="cls-4" d="M748.73,417.3581q-.6373.5171-1.281,1.0262c-.197.1555-.3954.3091-.5925.4644-.3727.2934.4617-.3516.0848-.0655-.1323.1-.2638.2019-.396.3024q-1.3254,1.0072-2.6813,1.9734-2.5945,1.8478-5.2992,3.5339a94.8788,94.8788,0,0,1-10.783,5.7987q-.6539.2981-1.3126.5856c-.2016.088-.4043.1735-.6058.2618-.3432.15.3046-.1272.2957-.1236-.1689.0682-.3363.1407-.5047.21q-1.3526.5589-2.7232,1.0721-2.6339.9858-5.3295,1.7948a78.7706,78.7706,0,0,1-10.6334,2.4087q-.2943.0453-.5891.0882c-.1186.0173-.9509.1315-.3387.05.585-.078-.1038.0125-.2393.0295q-.39.0489-.7809.0938-1.3084.15-2.6217.2534-2.5341.1989-5.0781.2179-2.4882.0174-4.9733-.1442-1.2458-.0816-2.4879-.21-.5936-.0611-1.186-.133c-.1816-.0221-.363-.0457-.5446-.0685-.55-.0689.32.0421.3478.0468-.1195-.0205-.2409-.0337-.3609-.051a62.771,62.771,0,0,1-9.3371-2.0745q-2.2139-.6747-4.3712-1.519c-.3493-.1369-.6966-.2785-1.0437-.4208-.6551-.2687.6043.263.0846.0356-.1841-.0806-.3688-.16-.5527-.2412q-1.0591-.4689-2.0989-.98a54.8693,54.8693,0,0,1-7.7635-4.6439q-.4425-.3175-.8786-.6441c-.134-.1-.2669-.2022-.4-.3031-.0923-.07-.3488-.2675.074.0578.4687.3605.05.0373-.0563-.0469q-.8515-.6725-1.6747-1.38-1.7037-1.4644-3.2756-3.0739-1.538-1.5759-2.9346-3.2819c-.2282-.2789-.4515-.5616-.6755-.8439-.34-.4284.5194.6875.0669.0849-.1167-.1553-.234-.31-.35-.4662q-.67-.9045-1.2981-1.8387a49.5892,49.5892,0,0,1-4.3247-7.8923c-.03-.0692-.0589-.1391-.09-.208-.1428-.32.2344.5175.19.4509a2.824,2.824,0,0,1-.202-.4954q-.2011-.5031-.3885-1.0115-.3567-.967-.6673-1.95c-.452-1.4251-.8368-2.8712-1.169-4.3288-.3454-1.5155-.634-3.0437-.8773-4.5789q-.0925-.5835-.1763-1.1684c-.03-.2118-.0568-.4244-.0888-.6359-.0081-.0535.1034.8069.0589.4334-.0146-.1226-.0317-.2449-.0471-.3674q-.1586-1.2573-.2826-2.5185a143.8424,143.8424,0,0,1-.301-21.7314c.203-3.8366.5133-7.6672.9073-11.4887q.294-2.8519.6487-5.6971.0864-.6957.1764-1.3911.0414-.32.0835-.6408c.0187-.1423.0379-.2845.0564-.4268.0591-.4526-.0956.7032-.0339.2513q.1955-1.4331.401-2.8647,1.557-10.75,3.82-21.3822.4938-2.33,1.0209-4.6525a3.3513,3.3513,0,0,0-6.4616-1.7814q-2.3672,10.435-4.0712,21.0065c-1.2781,7.9332-2.2985,15.9175-2.914,23.93a166.6188,166.6188,0,0,0-.3659,22.6323,77.236,77.236,0,0,0,3.3773,19.8674,52.1832,52.1832,0,0,0,9.45,16.6985,54.91,54.91,0,0,0,14.3854,12.1284,61.7434,61.7434,0,0,0,18.234,7.0725,70.8279,70.8279,0,0,0,20.9031,1.3233,82.3068,82.3068,0,0,0,22.3342-5.1085,98.6466,98.6466,0,0,0,22.5271-12.18c1.9509-1.4064,3.8572-2.8768,5.7246-4.3921a3.36,3.36,0,0,0,0-4.7383,3.4463,3.4463,0,0,0-4.7383,0Z" transform="translate(-66.454 -160.25)"/><path class="cls-7" d="M744.7924,567.3764s-23.2523-41.0873-28.4642-66.4022c-1.97-9.566,3.9089-24.57,8.9347-37.6s3.5366-23.64-5.16-22.6879-13.2678,16.9176-13.2678,16.9176c-.3723-8.3763-8.19-18.8-15.8219-27.3625s-15.6357-13.03-24.1981-20.2892-18.4278-2.2337-20.983,2.0223,6.1028,9.1461,6.1028,9.1461-8.3872,16.7525-12.28,31.2714,9.4774,26.2456,9.4774,26.2456c5.0257,31.2715,21.5308,36.2972,21.5308,36.2972s6.8518,36.989,26.6153,96.33c0,0,17.7215-5.2,28.138-16.6794C740.4332,578.0359,744.7924,567.3764,744.7924,567.3764Z" transform="translate(-66.454 -160.25)"/><path class="cls-4" d="M724.1668,328.7109A25.1949,25.1949,0,0,0,701.911,326.63a3.6649,3.6649,0,0,0-2.0024,1.54,3.4212,3.4212,0,0,0-.3377,2.5817c.5072,1.5675,2.38,3.0395,4.1215,2.34a22.3186,22.3186,0,0,1,4.7656-1.3072c.7837-.1271-.7888.0727.0022.0028.1869-.0165.3734-.0383.56-.054q.6173-.0519,1.2367-.0693a22.32,22.32,0,0,1,2.4765.069q.2806.0234.5607.0542c.7533.0821-.1013-.041-.1082-.0207a11.3647,11.3647,0,0,1,1.3312.2341,21.9058,21.9058,0,0,1,2.3924.6381q.5346.1755,1.06.3787.1576.0606.3138.1246.35.1426-.2817-.12c.1411-.0072.39.1747.5125.2323a21.5263,21.5263,0,0,1,2.2705,1.2424,3.3822,3.3822,0,0,0,4.5841-1.202,3.42,3.42,0,0,0-1.202-4.5841Z" transform="translate(-66.454 -160.25)"/><path class="cls-4" d="M673.0318,323.622c-2.673-2.8739-6.4566-4.1962-10.2649-4.6368a16.6161,16.6161,0,0,0-10.0011,1.87,3.351,3.351,0,0,0,3.3821,5.7861c.2648-.1522.5359-.2847.8095-.4193.5495-.27-.8068.2979-.2191.0944.1525-.0528.3023-.1119.4554-.1631a12.9551,12.9551,0,0,1,1.8764-.4689c.134-.0234.8-.123.1593-.032s.0336.0028.17-.01q.4923-.0448.9868-.0594a16.5256,16.5256,0,0,1,2.1966.0825c.2855.03.8109.227-.1565-.0263.1767.0462.3685.0586.548.092q.5.093.994.2185.4914.1251.9735.283.2613.0861.5193.1823c.5367.2.1742.1171-.1237-.0639.615.3738,1.29.6277,1.8929,1.0365.1455.0986.2826.2231.434.31-.2914-.168-.5542-.45-.1281-.0777a10.1794,10.1794,0,0,1,.757.74,3.3781,3.3781,0,0,0,4.7383,0,3.4218,3.4218,0,0,0,0-4.7384Z" transform="translate(-66.454 -160.25)"/><ellipse class="cls-4" cx="704.364" cy="350.5325" rx="9.3341" ry="6.3638" transform="translate(212.5811 852.1715) rotate(-83.7329)"/><ellipse class="cls-4" cx="660.5029" cy="348.5138" rx="9.3341" ry="6.3638" transform="translate(175.5147 806.7743) rotate(-83.7329)"/><path class="cls-4" d="M796.9768,366.4321a5.7012,5.7012,0,0,0-5.4065-3.7553c-2.5181-.06-4.7906,1.3632-6.719,2.8311a32.5066,32.5066,0,0,0-9.176,10.8481,1.689,1.689,0,0,0,2.292,2.292,5.5806,5.5806,0,0,1,2.2414-.6218,5.7443,5.7443,0,0,1,2.3993.3162,6.0236,6.0236,0,0,1,3.5927,3.0122,1.6755,1.6755,0,0,0,2.8931-1.691,9.6426,9.6426,0,0,0-12.8175-3.9086l2.292,2.292a29.57,29.57,0,0,1,7.2445-9.0511,12.0066,12.0066,0,0,1,4.8877-2.8873,3.8673,3.8673,0,0,1,1.0591-.0727,5.8626,5.8626,0,0,1,.8057.1876,2.63,2.63,0,0,1,.7423.4572,1.3173,1.3173,0,0,1,.4383.6421,1.7135,1.7135,0,0,0,2.0608,1.17,1.6922,1.6922,0,0,0,1.17-2.0608Z" transform="translate(-66.454 -160.25)"/><path class="cls-4" d="M768.7621,391.5239a111.1882,111.1882,0,0,0-9.4168,34.1425c-.372,3.2207-.61,6.4553-.7357,9.6947a3.3762,3.3762,0,0,0,3.3505,3.35,3.4205,3.4205,0,0,0,3.3505-3.35c.11-2.8148.3026-5.6259.5963-8.4277q.1062-1.0139.23-2.0258c.041-.3369.0842-.6736.1275-1.01.0223-.1737.062-.6563-.0184.1343.0214-.2105.0583-.42.0881-.63q.2961-2.0738.6673-4.1359a105.6124,105.6124,0,0,1,4.2343-16.1682q.7577-2.1637,1.614-4.2912a8.2643,8.2643,0,0,1,.4849-1.182c-.0113.0185-.24.563-.0892.211.0842-.196.1676-.3925.2524-.5882q.51-1.1777,1.0509-2.3415a3.617,3.617,0,0,0,.3378-2.5818,3.4169,3.4169,0,0,0-1.54-2.0024c-1.4785-.7812-3.7978-.4959-4.5841,1.202Z" transform="translate(-66.454 -160.25)"/><path class="cls-4" d="M761.96,438.7116c16.6928.0678,32.65,8.629,44.4415,20.3868,12.9233,12.8861,19.9991,29.8732,23.1455,47.7215,3.3478,18.9916,2.5273,38.7654.22,57.83a272.0493,272.0493,0,0,1-13.1626,56.4438,268.7517,268.7517,0,0,1-24.9272,52.5811q-1.8724,3.045-3.8264,6.0384l2.8931-1.6594H734.3878c-2.968,0-5.9489-.081-8.916,0-.963.0262.428.1.44.1035s1.1128.5129.6322.2447c-.2288-.1277.8286.8054.3866.2862-.1186-.1393-.2592-.271-.3856-.4041-.08-.084-.1439-.1828-.223-.2671-.3928-.4189.6546.9137.2061.2635-.52-.7533-1.0181-1.5121-1.4777-2.3046a94.3281,94.3281,0,0,1-4.8071-9.8914q-.2067-.4775-.4109-.9559c-.0624-.1461-.1242-.2925-.1867-.4386-.1839-.4305.2367.565.053.126q-.4481-1.07-.8892-2.1434-.961-2.3466-1.8821-4.7091-2.2491-5.756-4.3336-11.5746c-3.9113-10.84-7.5468-21.78-11.0507-32.7583q-9.8551-30.8776-18.2037-62.2114c-3.1243-11.6505-6.1325-23.336-8.9078-35.0751-.1741-.7367-.3066-1.4983-.5206-2.2247a3.64,3.64,0,0,0-2.4032-2.4308c-.4194-.1657-.97-.592.1549.0874-.9694-.5857-2.0215-1.0085-2.9761-1.6425-.34-.2257-.67-.4631-1.001-.7019-.4246-.3068-.37-.3063.0517.0469-.214-.1791-.4365-.3482-.6507-.5271a30.5234,30.5234,0,0,1-2.3567-2.1951q-.6372-.6579-1.2374-1.35-.3379-.3888-.6645-.7872c-.1-.1215-.1952-.2472-.2967-.3668-.4038-.4761.2552.3456.0033.0105a44.222,44.222,0,0,1-2.5962-3.8442,47.0094,47.0094,0,0,1-4.5009-9.9008c-.7588-2.2623-1.3951-4.5646-1.9315-6.8894q-.4063-1.7616-.7367-3.54c-.2512-1.3462-.2958-2.7817-1.2814-3.8324-1.133-1.2078-2.3078-2.3375-3.3593-3.6287-.1031-.1266-.2032-.2558-.3044-.3838.069.0873.4159.5719.0583.0707-.2078-.2911-.4254-.5751-.6319-.8673q-.7512-1.0635-1.4243-2.18-.684-1.137-1.2749-2.327a13.8663,13.8663,0,0,1-.9579-2.2362,18.42,18.42,0,0,1-.7082-11.4224,156.6992,156.6992,0,0,1,9.7035-25.763c.7264-1.5783,1.4621-3.1539,2.2392-4.7081a3.4177,3.4177,0,0,0-1.202-4.5841c-.3514-.2-.6929-.4183-1.03-.641-.3584-.2366-.7011-.4946-1.0554-.7366-.68-.465.5315.4779-.12-.0922-.2365-.2068-.4841-.4-.7187-.61a15.1175,15.1175,0,0,1-1.0907-1.0679c-.081-.0884-.6531-.8036-.18-.1677-.16-.215-.2929-.4462-.4476-.6638-.1134-.1594-.3894-.9059-.1148-.1135-.0806-.2327-.1366-.4649-.2063-.7.3669,1.238-.1045-.1387.0592-.0521q-.1152.7432.0207.1836-.2589.5514-.0807.2156c.1-.1656.2123-.3267.3084-.4936.3669-.6366-.503.4364.0731-.08.3943-.3536.7544-.7582,1.1472-1.1178.6668-.61-.5437.3259.2392-.1847.2545-.1661.5012-.3417.76-.501q.4013-.2468.8177-.4674c.1025-.0544,1.2107-.5689.6778-.3483a10.69,10.69,0,0,1,7.4755-.5567c3.2458.9261,5.7875,3.5876,8.4586,5.6694,2.91,2.2682,5.8934,4.44,8.8151,6.6925a94.5988,94.5988,0,0,1,16.1746,16.0736,68.6723,68.6723,0,0,1,6.8431,10.12,29.364,29.364,0,0,1,2.0462,4.5178,22.9092,22.9092,0,0,1,.7257,2.5664c.0773.3553.1494.7138.2018,1.0738-.073-.5018.0522.7338.0592.858.2085,3.6991,5.5016,4.6386,6.5813.8907.1374-.4769.2959-.9483.4577-1.4174q.2452-.711.5138-1.4137c.1267-.332.2583-.662.3909-.9917.057-.1415.1163-.2822.1747-.4232-.2089.5042-.1257.2892.0426-.0838a40.8422,40.8422,0,0,1,2.2224-4.3139c.4427-.7341.9239-1.4385,1.4212-2.1362.0766-.1074.3964-.4914-.0048.0016.119-.1462.2371-.2929.3587-.4369.33-.3908.6754-.7692,1.0383-1.13.2919-.29.6007-.5554.9051-.8315.1128-.1024.505-.3685-.0466.0255.1424-.1017.2845-.2114.4334-.3045.3339-.2088.6714-.3982,1.0115-.5954.18-.1044.73-.2889.02-.0331.2412-.0869.48-.1751.7274-.2453.238-.0677,1.2254-.2178.37-.1283a9.6819,9.6819,0,0,1,1.291-.0551c.2238.0065.4458.0224.6686.0451-.1759-.018-.6347-.1934-.1361.0064a3.8339,3.8339,0,0,0,.4749.1259c.2868.0694.7228.4056.0817.0113.1508.0928,1.0053.65.6345.3537-.3632-.29.3973.43.5005.5317.1566.1545.2535.4682-.0884-.115.0806.1376.1909.2655.2626.4093a4.5994,4.5994,0,0,0,.2406.4356c.3881.5914-.1248-.4964.0774.1471a15.0334,15.0334,0,0,1,.6141,2.48c-.0923-.6755.0293.6342.0383.8418.0246.5675.0231,1.1352.0029,1.7028-.1713,4.8168-2.0832,9.8226-3.9175,14.5989-2.0987,5.4647-4.1685,10.9561-5.7818,16.5874a52.3367,52.3367,0,0,0-2.4749,15.0932,34.3534,34.3534,0,0,0,1.6034,8.9711c3.6823,12.6814,9.4127,24.8566,14.9868,36.7905,6.2386,13.3563,12.8641,26.5319,19.6577,39.6135,3.7075,7.1392,7.2969,14.4084,11.332,21.3718.06.103.1139.2094.171.3139,2.068,3.7857,7.8564.4078,5.7862-3.3821-3.3314-6.0984-6.5756-12.2457-9.7937-18.4044-6.8646-13.1369-13.56-26.3678-19.8972-39.7679q-2.4882-5.2614-4.8858-10.5651-1.1378-2.5236-2.2475-5.06-.5253-1.2018-1.0431-2.4067-.2831-.659-.5637-1.319-.1113-.2617-.2222-.5237c.3023.7127-.0661-.1578-.1006-.24a179.4035,179.4035,0,0,1-6.4336-17.2441c-.3414-1.1257-.6618-2.2581-.9466-3.3994-.1245-.4991-.243-1-.3511-1.5026-.0746-.3474-.14-.6953-.2041-1.0447-.1224-.6717-.0339-.2557-.0176-.107q-.0565-.5145-.0882-1.0313c-.3149-5.0938.8748-9.8487,2.3217-14.815,1.64-5.6292,3.7213-11.1208,5.8246-16.59,2.0026-5.2069,3.8314-10.4734,3.9932-16.1139.1121-3.9083-.6982-8.4023-3.7749-11.1159-3.275-2.8886-8.0607-2.9769-11.8639-1.1222-6.2016,3.0243-9.6393,10.5682-11.7722,16.7528-.1617.4691-.32.9405-.4577,1.4174l6.5814.8907c-.4525-8.0258-5.2264-15.2912-9.9751-21.4861a116.6173,116.6173,0,0,0-8.7153-10.2747,90.2912,90.2912,0,0,0-9.6827-8.4654c-3.3039-2.5562-6.6992-4.9945-9.9626-7.6029-3.4226-2.7357-6.605-5.618-11.0578-6.478-6.3335-1.2232-14.2945,1.0958-17.7944,6.8925-3.4335,5.6868,2.7134,11.2459,7.2461,13.8243l-1.202-4.5841a202.6326,202.6326,0,0,0-10.039,23.7946c-1.965,5.6317-3.972,11.4284-3.2081,17.4727a31.3857,31.3857,0,0,0,5.5108,13.9062,35.437,35.437,0,0,0,5.4572,6.4038l-.8617-1.4785c1.53,9.37,4.3864,18.93,9.8793,26.7906a33.8674,33.8674,0,0,0,11.1036,10.5592,15.8784,15.8784,0,0,0,2.8881,1.2875l-2.34-2.34c2.3831,10.3968,5.0477,20.7344,7.7641,31.048q9.5965,36.4359,21.1048,72.3372c3.8881,12.043,7.9232,24.0488,12.3852,35.8929,2.5037,6.6461,5.108,13.2894,8.1943,19.6907a40.0835,40.0835,0,0,0,4.5816,7.8071,5.4609,5.4609,0,0,0,2.7205,2.0339,10.2166,10.2166,0,0,0,2.5615.12h61.4545c.8422,0,1.6987.0453,2.54,0,2.0258-.1091,2.8309-1.5441,3.8062-3.0591q1.3545-2.1038,2.6692-4.233,2.5676-4.1577,4.9809-8.4082a279.5931,279.5931,0,0,0,35.0172-111.28c2.44-25.6091,1.9706-52.706-8.2048-76.7351-9.1546-21.6188-27.6192-39.7536-50.37-46.5287a59.4965,59.4965,0,0,0-16.6773-2.5006c-4.3125-.0175-4.3181,6.6835,0,6.701Z" transform="translate(-66.454 -160.25)"/><path class="cls-4" d="M699.4574,614.4959a78.6242,78.6242,0,0,0,40.5323-32.67,76.7768,76.7768,0,0,0,6.6128-13.5586,3.3662,3.3662,0,0,0-2.34-4.1215,3.4416,3.4416,0,0,0-4.1215,2.34q-.2574.687-.5271,1.3692-.1546.3894-.3139.7771c-.04.0969-.0806.1934-.12.29-.1588.3888.2951-.6826.0526-.1249-.4176.9606-.8459,1.9156-1.3005,2.8594q-1.34,2.7824-2.9146,5.4435-1.5721,2.6589-3.3625,5.18-.4547.64-.9227,1.2714-.2184.2944-.44.5867-.1265.1671-.2538.3334c-.2675.351.0391-.0609.14-.1807-.6733.802-1.3047,1.639-1.9826,2.4382a76.1268,76.1268,0,0,1-8.807,8.8069c-.7993.678-1.6163,1.3329-2.4383,1.9829-.287.2269.2765-.21.2639-.2033a2.6006,2.6006,0,0,0-.333.2544q-.2919.2217-.5861.4406-.63.4689-1.27.9249-2.5586,1.8225-5.2644,3.4259-2.9728,1.76-6.1024,3.235-.8052.3791-1.62.7378c-.2556.1126-.5123.2224-.7686.3333-.4059.1757.6309-.2611.2214-.0938-.1616.0661-.3225.1337-.4842.1995q-1.65.6725-3.3313,1.2606a3.3513,3.3513,0,1,0,1.7814,6.4616Z" transform="translate(-66.454 -160.25)"/><path class="cls-4" d="M644.6765,429.0213c-20.8478-.0429-38.77,13.6534-50.54,29.8717-13.236,18.2382-19.9019,40.1823-30.1023,60.0735a283.5629,283.5629,0,0,1-34.648,51.7958,442.8774,442.8774,0,0,1-44.3953,45.4989c-15.8715,14.27-32.4857,27.6887-49.3369,40.7781-2.0582,1.5987-3.7457,2.9028-5.7529,4.4483-1.4313,1.1021-2.1979,2.8814-1.202,4.5841.8239,1.4087,3.1413,2.313,4.5841,1.202,16.9674-13.0648,33.7664-26.3658,49.8918-40.4644a479.3282,479.3282,0,0,0,44.9486-44.2961,306.2875,306.2875,0,0,0,36.9561-51.3559A321.6352,321.6352,0,0,0,579.42,501.6687c4.4769-10.2583,8.9058-20.5813,14.5742-30.2539,5.2158-8.9,11.1329-16.5913,19.1673-23.273a62.5725,62.5725,0,0,1,11.8478-7.7084,41.1964,41.1964,0,0,1,6.1938-2.53,47.014,47.014,0,0,1,6.97-1.7128c.2311-.038.4625-.0729.6939-.1089,1.1291-.1755-.6338.0565.5039-.0655.5848-.0628,1.1691-.1247,1.7557-.1693,1.1817-.09,2.3651-.1267,3.55-.1243a3.3505,3.3505,0,0,0,0-6.701Z" transform="translate(-66.454 -160.25)"/><path class="cls-4" d="M508.2435,684.1789a336.8521,336.8521,0,0,0,30.7421-17.25c10.4154-6.5223,20.56-13.4918,30.3368-20.9389,5.2685-4.0132,10.4438-8.1492,15.4511-12.4849a3.3682,3.3682,0,0,0,0-4.7384,3.4341,3.4341,0,0,0-4.7384,0q-3.1671,2.7423-6.4176,5.3862-1.6806,1.3683-3.38,2.7131-.8165.6462-1.637,1.2872-.3669.2867-.7346.5722-.2305.1791-.4613.3577-.2923.2262.2153-.1663-.1392.1074-.2785.2145-7.1884,5.5329-14.6407,10.7113c-9.9847,6.9576-20.2689,13.499-30.8425,19.5257-5.5737,3.1769-11.2325,6.2069-16.9965,9.0249a3.37,3.37,0,0,0-1.202,4.5841,3.4364,3.4364,0,0,0,4.5842,1.202Z" transform="translate(-66.454 -160.25)"/><path class="cls-4" d="M595.1368,535.9533,585.8,591.1058l-9.29,54.8753-5.2081,30.7635a3.6315,3.6315,0,0,0,.3377,2.5817,3.415,3.415,0,0,0,2.0024,1.54c1.6217.3693,3.8087-.4923,4.1215-2.34L587.1,623.3735l9.29-54.8754,5.2082-30.7634a3.6319,3.6319,0,0,0-.3378-2.5818,3.4146,3.4146,0,0,0-2.0023-1.54c-1.6217-.3694-3.8087.4922-4.1216,2.34Z" transform="translate(-66.454 -160.25)"/><path class="cls-4" d="M494.423,613.3964q9.11,9.2708,17.3164,19.373,1.0287,1.2675,2.0424,2.5473.5067.64,1.01,1.2827.2322.2967.4635.594.1156.1486.2311.2975c.05.0649.3957.51.1222.1576s.2885.376.3507.4572q.2291.2989.4574.5987.4947.6492.9854,1.3015.9816,1.3044,1.9475,2.62,3.8637,5.2641,7.473,10.7088,4.0588,6.1233,7.7836,12.4588a3.3511,3.3511,0,0,0,5.7862-3.3821q-6.6556-11.31-14.3684-21.95Q518.141,629.5964,509.2592,619.5q-4.9005-5.5571-10.0978-10.8418a3.3505,3.3505,0,1,0-4.7384,4.7383Z" transform="translate(-66.454 -160.25)"/><path class="cls-4" d="M669.6593,396.05a19.7863,19.7863,0,0,1,1.5868-1.5282c.1116-.0955.2258-.1878.3379-.2827.5663-.48-.4233.3032-.0714.0481.2978-.2157.5924-.4332.8982-.6376a20.0058,20.0058,0,0,1,1.7985-1.0706q.4878-.2566.9892-.4866c.1054-.0483.704-.3121.2061-.0959-.5123.2225.16-.0579.2136-.0782a21.5367,21.5367,0,0,1,4.04-1.0791c.7421-.1281-.5673.0546-.1268.0147.1828-.0165.365-.0407.5478-.057q.5485-.0489,1.0994-.0667a19.7867,19.7867,0,0,1,2.2023.058,3.3656,3.3656,0,0,0,3.3505-3.3505,3.4348,3.4348,0,0,0-3.3505-3.35,23.2455,23.2455,0,0,0-18.46,7.2245,3.3505,3.3505,0,1,0,4.7384,4.7383Z" transform="translate(-66.454 -160.25)"/><path class="cls-4" d="M847.5092,337.515c6.2554-5.8721,10.6519-14.0289,8.81-22.8089A18.7192,18.7192,0,0,0,841.7037,300.11a18.5876,18.5876,0,0,0-2.3282-19.637,18.376,18.376,0,0,0-16.7312-6.0835,22.6753,22.6753,0,0,0-13.9137-28.9323c1.0069-19.7642-20.43-32.9471-37.5134-23.9836-2.5386-7.9946-9.2566-14.34-17.9648-15.3417-8.7055-1.0017-16.86,3.9245-20.9975,11.2909-5.8139-6.19-13.5817-11.1073-22.3466-9.5951A17.5547,17.5547,0,0,0,695.6477,220.61a35.4892,35.4892,0,0,0-25.3182-3.9777c-3.9856.8716-10.1064,2.3708-10.56,7.2231a12.8041,12.8041,0,0,0,1.8165,7.01,52.9681,52.9681,0,0,0-16.1919-.42c-7.2111.9411-15.949,3.1-21.27,8.45-8.4209,8.467-2.2932,20.43,6.6971,25.5574-6.7812,4.4515-12.0465,11.3092-13.2872,19.49-.7,4.6153.583,9.5552,4.8119,12.0616a11.9289,11.9289,0,0,0,4.1275,1.4713,14.9277,14.9277,0,0,0-2.9848,9.8868,13.65,13.65,0,0,0,10.27,12.4973c11.2389,2.7608,22.95-5.867,31.007-14.7152a17.1005,17.1005,0,0,0,11.1306,10.2187c9.1145,2.665,17.9942-1.1817,26.8-3.7236a9.3484,9.3484,0,0,0,6.89,6.9286c5.02,1.135,10.9771.1374,16.0061-.45a135.0512,135.0512,0,0,0,13.7508-2.3442,11.8685,11.8685,0,0,0,3.2046,7.9969,14.4162,14.4162,0,0,0,7.0212,4.0608c-5.284,3.5932-9.64,8.3579-9.966,15.1647a12.7417,12.7417,0,0,0,6.9332,12.0961,11.0482,11.0482,0,0,0-2.1,9.135,9.9193,9.9193,0,0,0,4.7247,6.4562,7.8478,7.8478,0,0,0-.6407,4.6223,10.151,10.151,0,0,1,5.8931-2.1778c.05-.5157.3924-.9327,1.2-1.1049.3526-.038.7063-.0917,1.06-.1645,3.257-.67,2.5807-6.3305-.7976-5.8929-.2689.0349-.5322.0853-.7927.1422l-.0048-.035c-3.81.7835-5.4886-3.0784-4.4526-6.057.7277-2.092,2.4174-3.3141,4.2992-4.301,3.1271-1.64.8955-6.1754-2.3116-5.4832-8.4779,1.83-7.5311-9.5564-4.1075-13.7225,3.21-3.9057,8.1195-6.0983,12.5717-8.2357,2.7142-1.3031,1.3558-5.68-1.5142-5.59-4.6119.1446-18.5949-1.4174-13.4079-9.4971,1.45-2.2593-.9427-5.0455-3.388-4.407a126.4887,126.4887,0,0,1-18.0858,3.4386c-2.73.3012-5.4723.5174-8.2168.6291-1.07.0435-2.1773.1441-3.248.08a5.8486,5.8486,0,0,1-2.662-.415q-2.0347-.0193-1.83-2.3182a3.0028,3.0028,0,0,0-1.5951-5.7858c-7.6249,1.3345-14.7939,5.1031-22.5363,5.7294-7.2091.583-17.6319-3.7588-13.8309-12.7716,1.4057-3.3329-3.6678-4.8779-5.4832-2.3117-5.4985,7.7726-13.6467,15.5464-22.9692,18.3924-4.6858,1.4306-10.564,1.1284-12.4091-4.2829-1.9357-5.6766,2.3244-10.3452,7.1115-12.5521,3.2823-1.5131.8064-6.0577-2.3117-5.4832-2.6854.4947-6.8269,1.3585-9.327-.3052-3.7828-2.5172-1.6652-8.3251-.1092-11.5048a25.3916,25.3916,0,0,1,13.8464-12.5106c2.3982-.91,3.2663-5.3411,0-5.7857a14.7082,14.7082,0,0,1-11.5384-7.7433c-3.3031-6.4531.6-11.1207,6.4756-13.649a47.6758,47.6758,0,0,1,33.76-1.019c3.097,1.02,4.666-2.8974,2.9188-5.0141-1.2187-1.4764-6.08-7.3993-4.38-9.3706,1.71-1.9838,8.4244-2.3518,10.6414-2.4177a29.4962,29.4962,0,0,1,19.1642,6.2356,3.03,3.03,0,0,0,5.0142-2.9189c-1.085-7.0529,6.6857-12.0615,12.9657-11.4686,6.8467.6464,12.4123,5.6313,16.4022,10.8911,1.4936,1.9689,4.721,1.9719,5.4832-.7167,1.9577-6.9052,8.4816-12.2748,15.8715-11.822,7.4923.4591,13.6159,6.9267,14.332,14.2629.1947,1.9952,2.498,4.0876,4.5141,2.59,14.6344-10.8677,34.1815.7206,31.8,18.7659a2.9965,2.9965,0,0,0,2.2024,2.8928c12.4486,3.008,17.65,17.5422,9.1508,27.4829-2.0624,2.412.6469,6.7833,3.6355,4.7117,5.0349-3.49,12.2217-3.5945,16.7129.9951,4.55,4.6493,4.1975,12.4042.04,17.1448a3.027,3.027,0,0,0,2.9189,5.0142c7.1987-1.3138,13.3164,5.5993,13.5158,12.4025.22,7.4889-5.1209,13.8906-10.9867,17.87a3.0277,3.0277,0,0,0,1.5141,5.59c9.6864.8253,11.662,12.047,7.7744,19.2263-4.0227,7.4287-12.2075,10.877-19.9653,12.9394-3.2823.8726-2.5887,5.869.7976,5.8928,5.0185.0354,5.572,5.5677,4.2189,9.2265a19.9639,19.9639,0,0,1-5.8875,7.9289,26.04,26.04,0,0,1-17.6129,6.1061,3.05,3.05,0,0,0-3,3c-.3576,11.338-15.4642,9.1333-22.5862,7.6289a3.0915,3.0915,0,0,0-3.69,2.0954c-2.0531,5.6666-10.0086,8.1832-14.853,4.4234-3.014-2.3393-7.2905,1.8772-4.2426,4.2426a16.06,16.06,0,0,0,23.6632-4.4659c6.24,1.2408,12.9225,2.0839,18.8-.7828a15.3368,15.3368,0,0,0,8.5191-10.2152c9.9121-.6239,19.4717-5.6828,24.7807-14.2817,3.2958-5.3382,3.5921-13.0321-.1049-17.4442,8.7642-3.6294,16.5914-9.7318,18.7557-19.5071C858.4489,349.4253,854.613,341.1036,847.5092,337.515Z" transform="translate(-66.454 -160.25)"/><path class="cls-4" d="M757.6217,365.8086a8.3669,8.3669,0,0,0-8.5907,6.0666,8.5874,8.5874,0,0,0,4.9826,9.9688c7.43,3.277,15.3632-1.7984,18.2117-8.7687,1.7336-4.2422,1.7478-8.8775,1.123-13.3483l-2.4107,3.1646a12.2372,12.2372,0,0,0,5.4557-22.984c-2.8116-1.572-5.3356,2.7451-2.5236,4.3173a7.241,7.241,0,0,1-2.9321,13.6667,2.5521,2.5521,0,0,0-2.4107,3.1646c.8421,6.0258-.4327,14.0366-7.0169,16.3116-2.37.8191-6.0559.8248-7.3894-1.7793-1.314-2.566.8808-4.9767,3.5011-4.78a2.5217,2.5217,0,0,0,2.5-2.5,2.5489,2.5489,0,0,0-2.5-2.5Z" transform="translate(-66.454 -160.25)"/><path class="cls-8" d="M778.999,391.975a.6645.6645,0,0,1,.1576.0111c-.0207-.0035-.0412-.0083-.0619-.0118A.471.471,0,0,0,778.999,391.975Z" transform="translate(-66.454 -160.25)"/><path class="cls-8" d="M718.0017,333.0223c.2036.0846.3269.136.3775.1575A.8921.8921,0,0,0,718.0017,333.0223Z" transform="translate(-66.454 -160.25)"/><path class="cls-8" d="M665.3377,326.3516c.0327.02.066.0379.099.0552l0,0C665.4042,326.3878,665.37,326.3713,665.3377,326.3516Z" transform="translate(-66.454 -160.25)"/><path class="cls-8" d="M713.42,331.7856a.6379.6379,0,0,0-.2334-.019A1.2416,1.2416,0,0,1,713.42,331.7856Z" transform="translate(-66.454 -160.25)"/><path class="cls-8" d="M662.7239,325.69c-.0482-.01-.0963-.0189-.14-.0235C662.6309,325.6741,662.6767,325.683,662.7239,325.69Z" transform="translate(-66.454 -160.25)"/><path class="cls-8" d="M667.353,327.4756c.0279.0212.057.0394.0849.0607C667.301,327.4205,667.2924,327.4229,667.353,327.4756Z" transform="translate(-66.454 -160.25)"/><path class="cls-8" d="M662.5842,325.6661c-.0527-.009-.1068-.0131-.1576-.0265.034.009.0529.0134.0833.0212.0243.0024.0489.0026.0732.0052Z" transform="translate(-66.454 -160.25)"/><path class="cls-8" d="M665.4614,326.4155l-.0244-.0086.0146.0081C665.7127,326.5491,665.93,326.5906,665.4614,326.4155Z" transform="translate(-66.454 -160.25)"/><path class="cls-8" d="M799.7062,383.7577c.0231-.0306.0517-.058.0717-.09C799.7922,383.6448,799.7574,383.69,799.7062,383.7577Z" transform="translate(-66.454 -160.25)"/><path class="cls-8" d="M637.0123,296.6119c-4.7871,2.2069-9.0472,6.8755-7.1115,12.5521,1.8451,5.4113,7.7233,5.7135,12.4091,4.2829,9.3225-2.846,17.4707-10.62,22.9692-18.3924,1.8154-2.5662,6.8889-1.0212,5.4832,2.3117-3.801,9.0128,6.6218,13.3546,13.8309,12.7716,7.7424-.6263,14.9114-4.3949,22.5363-5.7294a3.0028,3.0028,0,0,1,1.5951,5.7858q-.2047,2.2987,1.83,2.3182a5.8486,5.8486,0,0,0,2.662.415c1.0707.0641,2.1782-.0365,3.248-.08,2.7445-.1117,5.4867-.3279,8.2168-.6291a126.4887,126.4887,0,0,0,18.0858-3.4386c2.4453-.6385,4.8384,2.1477,3.388,4.407-5.187,8.08,8.796,9.6417,13.4079,9.4971,2.87-.09,4.2284,4.2873,1.5142,5.59-4.4522,2.1374-9.362,4.33-12.5717,8.2357-3.4236,4.1661-4.37,15.5522,4.1075,13.7225,3.2071-.6922,5.4387,3.8433,2.3116,5.4832-1.8818.9869-3.5715,2.209-4.2992,4.301-1.0071,2.8956.5568,6.6129,4.1452,6.0989a8.0368,8.0368,0,0,1,2.851-.3068,2.5489,2.5489,0,0,1,2.5,2.5,2.6186,2.6186,0,0,1-1.8131,2.4152,2.4705,2.4705,0,0,1-1.6354,1.1354c-.354.0728-.7077.1265-1.06.1645-.8078.1722-1.15.5892-1.2,1.1049-.1873.0113-.367.0336-.549.0527a3.157,3.157,0,0,0,.2568,2.4071c1.3335,2.6041,5.0189,2.5984,7.3894,1.7793,6.5842-2.275,7.859-10.2858,7.0169-16.3116a2.5522,2.5522,0,0,1,2.4107-3.1647,7.2409,7.2409,0,0,0,2.9321-13.6666c-2.812-1.5722-.288-5.8893,2.5235-4.3173a12.5384,12.5384,0,0,1,5.5693,6.5961c.7951-.1254,1.5929-.237,2.3928-.32a24.4573,24.4573,0,0,1,17.8755,4.9132,23.3177,23.3177,0,0,1,8.0494,13.7568,29.4407,29.4407,0,0,1-2.0086,17.42,27.7488,27.7488,0,0,1-12.8559,13.5519,29.3418,29.3418,0,0,1-26.45-.22l-4.217,23.9287a3.141,3.141,0,0,1,1.6855.6664c4.8444,3.76,12.8,1.2432,14.853-4.4234a3.0915,3.0915,0,0,1,3.69-2.0954c7.122,1.5044,22.2286,3.7091,22.5862-7.6289a3.05,3.05,0,0,1,3-3,26.04,26.04,0,0,0,17.6129-6.1061,19.9639,19.9639,0,0,0,5.8875-7.9289c1.3531-3.6588.8-9.1911-4.2189-9.2265-3.3863-.0238-4.08-5.02-.7976-5.8928,7.7578-2.0624,15.9426-5.5107,19.9653-12.9394,3.8876-7.1793,1.912-18.401-7.7744-19.2263a3.0277,3.0277,0,0,1-1.5141-5.59c5.8658-3.98,11.2062-10.3815,10.9867-17.87-.1994-6.8032-6.3171-13.7163-13.5158-12.4025a3.027,3.027,0,0,1-2.9189-5.0142c4.1573-4.7406,4.51-12.4955-.04-17.1448-4.4912-4.59-11.678-4.4852-16.7129-.9951-2.9886,2.0716-5.6979-2.3-3.6355-4.7117,8.4995-9.9407,3.2978-24.4749-9.1508-27.4829a2.9965,2.9965,0,0,1-2.2024-2.8928c2.3812-18.0453-17.1659-29.6336-31.8-18.7659-2.0161,1.4972-4.3194-.5952-4.5141-2.59-.7161-7.3362-6.84-13.8038-14.332-14.2629-7.39-.4528-13.9138,4.9168-15.8715,11.822-.7622,2.6886-3.99,2.6856-5.4832.7167-3.99-5.26-9.5555-10.2447-16.4022-10.8911-6.28-.5929-14.0507,4.4157-12.9657,11.4686a3.03,3.03,0,0,1-5.0142,2.9189,29.4962,29.4962,0,0,0-19.1642-6.2356c-2.217.0659-8.9312.4339-10.6414,2.4177-1.6993,1.9713,3.1616,7.8942,4.38,9.3706,1.7472,2.1167.1782,6.0343-2.9188,5.0141a47.6758,47.6758,0,0,0-33.76,1.019c-5.8756,2.5283-9.7787,7.1959-6.4756,13.649a14.7082,14.7082,0,0,0,11.5384,7.7433c3.2663.4446,2.3982,4.8753,0,5.7857a25.3916,25.3916,0,0,0-13.8464,12.5106c-1.556,3.18-3.6736,8.9876.1092,11.5048,2.5,1.6637,6.6416.8,9.327.3052C637.8187,290.5542,640.2946,295.0988,637.0123,296.6119Z" transform="translate(-66.454 -160.25)"/><path class="cls-8" d="M800.23,358.4716c-.02-.02.1829.2333.2993.3808A2.6327,2.6327,0,0,0,800.23,358.4716Z" transform="translate(-66.454 -160.25)"/><path class="cls-8" d="M667.4379,327.5363l.0678.0581c.0494.0353.1027.0716.1589.104A2.19,2.19,0,0,1,667.4379,327.5363Z" transform="translate(-66.454 -160.25)"/><path class="cls-8" d="M779.2381,392.0016c.1509.0254.1887.0282.1747.0224-.0637-.009-.1585-.0251-.2562-.0379C779.1839,391.9908,779.2108,391.9971,779.2381,392.0016Z" transform="translate(-66.454 -160.25)"/><rect class="cls-9" x="149.8952" y="531.8053" width="24.5169" height="122.2875" transform="translate(-164.6678 -124.1593) rotate(-9.7644)"/><path class="cls-4" d="M183.491,647.09l-8.1637,1.4049-13.0118,2.2392-2.9862.5139,5.1519,2.9252-.5563-3.2323-1.5061-8.7517-2.2357-12.9915-16.4416-95.54-2.9252,5.1519,24.1618-4.158-5.1519-2.9251,15.82,91.9265,2.3678,13.7588,1.71,9.9345c.2692,1.5646.5051,3.1395.8085,4.698.0128.0657.0227.1321.0341.1981a4.2052,4.2052,0,0,0,1.9247,2.503,4.188,4.188,0,0,0,5.73-1.5025,4.76,4.76,0,0,0,.4222-3.2273l-.5562-3.2322-1.5061-8.7518-2.2357-12.9914L181.6278,609.25,178.64,591.8887l-3.0159-17.5247-6.8783-39.9692c-.1325-.77.3888,2.2591-.8426-4.8961a4.1636,4.1636,0,0,0-1.9247-2.5029c-1.9726-1.0423-1.6867-.6873-24.4027,3.2219l-2.9862.5139a4.1635,4.1635,0,0,0-2.503,1.9247,4.7607,4.7607,0,0,0-.4222,3.2272l.5563,3.2323,1.506,8.7517,10.9565,63.6667,2.8009,16.2758,2.3678,13.7589,1.71,9.9344c.2693,1.5646.5051,3.1395.8085,4.698.0128.0657.0227.1321.0341.1981a4.1638,4.1638,0,0,0,1.9247,2.503,4.7607,4.7607,0,0,0,3.2272.4222L169.72,657.92l13.0119-2.2393,2.9862-.5139a4.2049,4.2049,0,0,0,2.5029-1.9246,4.1879,4.1879,0,0,0-1.5025-5.73A4.76,4.76,0,0,0,183.491,647.09Z" transform="translate(-66.454 -160.25)"/><rect class="cls-9" x="110.443" y="453.6025" width="158.7977" height="18.9776" transform="translate(-364.0777 189.3913) rotate(-54.6076)"/><path class="cls-4" d="M225.9784,396.4857l13.527,9.61,1.9436,1.3809-1.5025-5.73L147.9752,531.2l5.73-1.5025-15.4706-10.9914,1.5025,5.73,91.9713-129.4526a4.2226,4.2226,0,0,0-1.5025-5.73,4.3,4.3,0,0,0-5.73,1.5025c-102.4622,144.2188-90.938,127.9624-91.8205,129.24-.0493.0714-.1006.1416-.1509.2123a4.1871,4.1871,0,0,0-.4222,3.2273,4.75,4.75,0,0,0,1.9247,2.5029L149.4777,536.93a4.186,4.186,0,0,0,3.2272.4222,4.7494,4.7494,0,0,0,2.5029-1.9247L235.886,421.87c11.4056-16.0536,10.1543-14.2524,11.1423-15.683a4.11,4.11,0,0,0,.5731-3.44c-.6742-2.0832-.5712-1.5413-17.3954-13.4943a4.2225,4.2225,0,0,0-5.73,1.5025A4.3,4.3,0,0,0,225.9784,396.4857Z" transform="translate(-66.454 -160.25)"/><circle class="cls-10" cx="105.5178" cy="489.7513" r="23.4536"/><path class="cls-4" d="M192.0749,650.0013c-.0024.5871-.0216,1.1736-.065,1.7592-.0238.3216-.0594.6414-.0912.9623-.0217.2184-.1109.6325.0465-.3188-.0313.1887-.0557.3786-.0869.5674a23.256,23.256,0,0,1-.827,3.3923c-.1732.5332-.3864,1.0489-.5755,1.5758-.153.4265.361-.806.0849-.202-.0513.1123-.1.2257-.1517.338q-.1927.42-.4019.8323a23.4637,23.4637,0,0,1-1.8068,2.9864c-.1411.1983-.3018.3866-.4342.59.5907-.9092.0078-.0207-.16.1806q-.5571.6665-1.1624,1.29-.5408.558-1.1175,1.08-.3391.3066-.69.6c-.2308.193-1.0606.7318-.1806.1606-.98.6358-1.8947,1.333-2.9242,1.8969q-.7289.3992-1.4849.7459c-.2637.1209-1.0137.3392-.05.0319-.2934.0935-.5776.2308-.8673.3366a23.2858,23.2858,0,0,1-3.4373.9641q-.42.0839-.8439.152c-.1564.0253-.3184.0383-.4731.0716.0407-.0087.88-.1051.3188-.0465-.6117.064-1.2229.1169-1.8378.14a26.8277,26.8277,0,0,1-3.6052-.14c-.686-.0668.6877.1055.224.0328-.1575-.0247-.3153-.0471-.4726-.0731q-.3759-.0622-.75-.1368-.9264-.1846-1.8358-.4439-.81-.231-1.6016-.52c-.2332-.0852-.4633-.1779-.6951-.2666-.6212-.2378.61.282.201.0868-.167-.08-.339-.15-.507-.2276a23.42,23.42,0,0,1-2.9774-1.6527c-.46-.301-.8878-.6527-1.3477-.9512.8708.5652.107.078-.11-.1022q-.3872-.321-.7605-.6583a23.611,23.611,0,0,1-2.3382-2.44c-.18-.217-.6679-.9811-.1022-.11-.1324-.2037-.293-.392-.4341-.59q-.5322-.7477-1.0049-1.5356-.4264-.7109-.802-1.4508-.1881-.3708-.3629-.7484c-.0649-.14-.1267-.2815-.1906-.4219-.2551-.56.2864.7341.05.116a26.2226,26.2226,0,0,1-1.0268-3.2076q-.201-.8307-.3407-1.6745c-.0261-.1573-.0485-.3151-.0732-.4726-.0727-.4637.1.91.0328.224-.0313-.3208-.0674-.6408-.0912-.9623a23.8,23.8,0,0,1,.0075-3.6151c.0227-.2892.0535-.5772.0837-.8656.0586-.5611-.0377.2782-.0465.3188.0333-.1547.0464-.3166.0716-.4731q.1438-.8908.356-1.7688c.2813-1.1628.757-2.2417,1.0968-3.38-.0115.0383-.346.783-.12.2881.0513-.1123.1-.2257.1517-.338q.1926-.42.4018-.8324.396-.78.85-1.5294.4278-.7066.9044-1.382c.1566-.2219.3439-.4347.487-.6653-.0209.0337-.5274.6595-.1866.2447.1162-.1414.23-.2848.3472-.4252a23.6036,23.6036,0,0,1,2.4159-2.4921q.2733-.2432.554-.4779c.2013-.1682,1.09-.7511.1806-.16.46-.2987.8877-.65,1.3477-.9512a23.4054,23.4054,0,0,1,3.0614-1.6916c.1122-.0515.2256-.1.338-.1518.6039-.2761-.6286.2379-.2021.0849.2624-.0941.5191-.2059.7812-.3016q.8793-.3211,1.7826-.571.7741-.214,1.5617-.3742.42-.0855.8426-.1557c.1258-.0208.252-.0388.3778-.0594.6741-.11-.7637.082-.1292.019a26.4088,26.4088,0,0,1,3.7029-.136c.5824.024,1.16.0785,1.74.136.2184.0217.6326.1109-.3188-.0464.1258.0208.2528.0365.3788.0564q.5177.0813,1.0312.1861a23.2862,23.2862,0,0,1,3.3443.9452c.2871.1049.5752.2494.8673.3366-.0384-.0115-.7829-.3461-.2881-.12.1123.0513.2257.1.338.1518q.8391.3847,1.6461.835.7224.4032,1.4153.8566.3069.2008.6076.4113.1876.1314.3727.2666c.0993.0724.6472.491.1733.1232-.4822-.3742.2559.2114.3747.3106q.3158.264.622.5389.6464.58,1.2492,1.2062.57.5929,1.0987,1.2249c.0993.1187.6848.8568.3106.3747-.3682-.4745.01.0188.0693.0992q.1627.2215.3205.4467a23.4473,23.4473,0,0,1,1.7011,2.8366q.2091.4122.4019.8324c.0514.1123.1.2257.1517.338.2261.4949-.1084-.25-.12-.2881.1764.591.45,1.161.6394,1.7508a23.308,23.308,0,0,1,.8133,3.3977c.0253.1565.0383.3184.0717.4731-.0088-.0406-.1052-.88-.0465-.3188.03.2884.061.5764.0836.8656.0484.6178.07,1.2364.0726,1.8559a3.35,3.35,0,0,0,6.701,0,26.6988,26.6988,0,0,0-4.8429-15.35,27.5454,27.5454,0,0,0-13.0228-9.9177,26.91,26.91,0,0,0-29.4273,8.0059,27.4117,27.4117,0,0,0-6.235,15.3088,26.7331,26.7331,0,0,0,15.4363,26.2523,27.5327,27.5327,0,0,0,16.7887,1.9316,26.8818,26.8818,0,0,0,20.912-21.7631,30.3039,30.3039,0,0,0,.391-4.4683,3.3505,3.3505,0,0,0-6.701,0Z" transform="translate(-66.454 -160.25)"/><circle class="cls-10" cx="83.9797" cy="364.596" r="23.4536"/><path class="cls-4" d="M170.5368,524.846c-.0024.5871-.0215,1.1736-.065,1.7592-.0861,1.1613-.2313,1.7718-.0447.6435a23.0036,23.0036,0,0,1-1.5562,5.6715,23.679,23.679,0,0,1-2.6428,4.4091c.6059-.9328.1606-.0592-1.3229,1.4711-1.8175,1.8746-3.014,2.5057-1.9882,1.84a26.9163,26.9163,0,0,1-4.4091,2.6428c-.2637.1209-1.0137.3392-.05.0319a23.5052,23.5052,0,0,1-4.3047,1.3007c-.9011.18-1.1007.177-1.317.2236a22.1172,22.1172,0,0,1-5.1242-.0465c-.79-.077,1.238.2059-.2486-.04a23.3143,23.3143,0,0,1-2.5853-.5807,23.7437,23.7437,0,0,1-2.2967-.7868c-.4831-.1849,1.0613.4928-.306-.1408a23.9527,23.9527,0,0,1-4.3251-2.6039c.8709.5653.107.078-.11-.1021a23.5777,23.5777,0,0,1-3.0987-3.0988c-.18-.217-.6679-.9811-.1022-.11a24.234,24.234,0,0,1-1.439-2.126,23.3313,23.3313,0,0,1-1.1649-2.1992c-.6-1.2952.0349.1529-.1407-.3059a23.7656,23.7656,0,0,1-1.3675-4.8821c-.2476-1.495.0363.5386-.04-.2486a23.7656,23.7656,0,0,1-.0836-4.5774c.1306-1.6689.1264-.9614.0371-.5468.0334-.1547.0464-.3166.0717-.4731a27.9974,27.9974,0,0,1,1.4527-5.1485c-.0115.0383-.346.783-.12.2881.0513-.1123.1-.2257.1517-.338q.1927-.42.4019-.8323.3958-.78.8495-1.5295.4278-.7066.9044-1.382c.1566-.2218.344-.4347.487-.6653-.0209.0338-.5273.6595-.1865.2447.1161-.1414.23-.2848.3471-.4252a38.7468,38.7468,0,0,1,3.15-3.13c.46-.2987.8877-.65,1.3477-.9512a23.4073,23.4073,0,0,1,3.3994-1.8434c.3429-.1567-1.1979.4324.5791-.2167a23.2467,23.2467,0,0,1,3.3444-.9452c.6468-.1317,1.0351-.1848,1.22-.2151.6741-.11-.7637.0821-.1292.0191a26.3945,26.3945,0,0,1,3.703-.1361,10.52,10.52,0,1,0,1.4212.09,21.9131,21.9131,0,0,1,5.6217,1.5243c-.0384-.0114-.783-.3461-.2882-.12.5312.2428,1.0916.4889,1.9841.9869a23.4765,23.4765,0,0,1,2.0229,1.2678c.5014.351,1.0217.759.546.39-.5348-.415.3533.2721.9967.85a23.5689,23.5689,0,0,1,2.3479,2.4311,4.3741,4.3741,0,0,1,.38.474,23.4708,23.4708,0,0,1,2.0217,3.2833c.3151.6211.49,1.0322.5535,1.17.2261.4949-.1084-.25-.12-.2881a23.8973,23.8973,0,0,1,1.4528,5.1485c.0252.1565.0383.3184.0716.4731-.09-.419-.092-1.1036.0372.5468.0483.6178.07,1.2364.0725,1.8559a3.35,3.35,0,1,0,6.701,0,26.6988,26.6988,0,0,0-4.8429-15.3495c-10.5817-14.7466-31.5814-15.1207-42.45-1.9118a27.4118,27.4118,0,0,0-6.2351,15.3088,26.7662,26.7662,0,0,0,15.4363,26.2523,27.5327,27.5327,0,0,0,16.7887,1.9316,26.8818,26.8818,0,0,0,20.912-21.7631,30.2891,30.2891,0,0,0,.391-4.4683,3.3505,3.3505,0,1,0-6.701,0Z" transform="translate(-66.454 -160.25)"/><path class="cls-10" d="M253.9437,423.6l-63.6615-15.6066a16.0289,16.0289,0,0,1-11.7515-19.3845l4.7943-19.557A16.0291,16.0291,0,0,1,202.71,357.3l63.6615,15.6066Z" transform="translate(-66.454 -160.25)"/><path class="cls-4" d="M254.8344,420.369c-72.6995-17.8222-65.5356-16.2613-65.9207-16.3393.1687.0342,1.0321.5-.2614-.1414a15.0544,15.0544,0,0,1-2.4389-1.497c.7445.3761.3324.263.0831.0581a13.3464,13.3464,0,0,1-4.0359-5.3944c.5562,1.0769-.1658-.0564-.6234-2.2342a15.1415,15.1415,0,0,1-.11-4.2594c-.0738.5246-1.0026,3.9836,4.62-18.9509a19.0406,19.0406,0,0,1,1.37-4.361c.9565-1.8712,1.99-2.9352,1.1159-1.8889a20.164,20.164,0,0,1,2.6373-2.6576c-.6808.7105-.4841.2292,1.1644-.7443,1.6932-1,2.3632-.9833,1.3735-.7344a25.3636,25.3636,0,0,1,2.8744-.8552c.1856-.0367.3722-.0658.5581-.1.597-.11-.8889.0911.05-.0032,2.8481-.2861,4.367.3041,2.9655-.0376,24.9788,6.09,28.5029,6.9073,65.2241,15.91l-2.34-4.1215c-13.2523,54.058-12.3625,50.4115-12.4061,50.6063a3.3532,3.3532,0,1,0,6.44,1.8682l1.2356-5.04,2.9673-12.1042,3.59-14.6448c4.6958-19.1547,4.6273-18.8751,4.6343-18.904a3.4013,3.4013,0,0,0-2.34-4.1216L256.3062,366.99c-59.7736-14.6534-51.9745-12.7451-52.6816-12.9148A19.3876,19.3876,0,0,0,180.484,366.822c-.3216.95-4.7806,19.25-4.7946,19.307-1.07,4.3663-1.546,8.6285.3745,13.3357,4.1259,10.1125,12.6266,11.5876,17.0071,12.6615l19.5122,4.7834,24.4445,5.9925,16.0253,3.9286a3.3514,3.3514,0,0,0,1.7814-6.4617Z" transform="translate(-66.454 -160.25)"/><path class="cls-2" d="M302.8017,432.99l-24.879-6.0991,11.2306-45.8113,24.879,6.099a21.5522,21.5522,0,0,1,15.8008,26.0639l-.9675,3.9466A21.5522,21.5522,0,0,1,302.8017,432.99Z" transform="translate(-66.454 -160.25)"/><path class="cls-4" d="M303.6924,429.7589l-24.879-6.099,2.34,4.1215L292.3841,381.97l-4.1215,2.34,24.5914,6.0286a26.11,26.11,0,0,1,3.1374.9793,21.361,21.361,0,0,1,3.98,2.3112c.1073.079.4526.3519.0395.0237-.4445-.3532.0086.01.1071.09a21.5261,21.5261,0,0,1,3.1794,3.1924c.14.1668.3114.49-.177-.2364.1136.169.22.2637.7111.9863a21.6813,21.6813,0,0,1,1.8254,3.26c.3283.727-.2175-.5611-.0057-.0257.1957.4948.381.9925.5441,1.4992.8648,2.6876.8717,4.552.7534,3.0727a21.5409,21.5409,0,0,1,.1567,2.292q.0115.7747-.0336,1.549-.02.3413-.0506.6815c-.0879.9778-.0891.6453-.0039.1835-.1419.7691-.2638,1.5347-.45,2.2958q-.4356,1.786-.8755,3.5712c-.1781.725-.3773,1.4434-.6207,2.1495q-.1125.3264-.2355.649c-.0466.1223-.0968.2433-.1431.3657-.1528.4032.2877-.6514.1115-.2589-.2253.502-.4566,1-.7137,1.4864a21.3507,21.3507,0,0,1-1.62,2.5954c-.0738.1014-.1577.2006-.2262.305.0258-.0393.5209-.6488.1751-.2292-.16.1946-.3179.3911-.4821.5826q-.4907.5721-1.0207,1.1089-.528.5343-1.0919,1.0314-.2812.2478-.5711.4856c-.0953.0784-.2011.1521-.2915.2352.082-.0753.5947-.4475.2335-.1808a22.9813,22.9813,0,0,1-2.5907,1.6714q-.6152.3375-1.251.6349c-.113.0528-.2277.1024-.3406.1556-.4935.2323.2445-.1006.2844-.1154a21.1186,21.1186,0,0,1-3.7656,1.1744c-.4639.0992-.9306.1766-1.399.2506-.43.068.7587-.0888.3247-.0452-.1265.0127-.2526.0287-.3791.0414q-.4282.0428-.8579.0686a21.38,21.38,0,0,1-3.0934-.04c-.2594-.0222-.5209-.0682-.7806-.081.0477.0024.8662.1329.304.04-.13-.0216-.2611-.0405-.3914-.0624-.5265-.0886-1.0484-.1993-1.5674-.3241a3.3514,3.3514,0,0,0-1.7814,6.4617,25.0745,25.0745,0,0,0,25.3647-8.5037,26.7005,26.7005,0,0,0,3.8787-6.7071,32.0723,32.0723,0,0,0,1.2953-4.3712c.9015-3.6773,1.6573-7.3372,1.2-11.1474a25.7755,25.7755,0,0,0-5.614-13.2943,24.6922,24.6922,0,0,0-11.573-7.8117c-1.4433-.4687-2.9463-.7825-4.419-1.1435-16.59-4.067-17.2266-4.2578-21.7432-5.33a3.4138,3.4138,0,0,0-4.3778,2.2773l-3.8007,15.5036-6.0507,24.6817L274.6919,426a3.4012,3.4012,0,0,0,2.34,4.1215l8.3828,2.0551,13.3876,3.2819,3.1086.7621a3.3514,3.3514,0,0,0,1.7814-6.4617Z" transform="translate(-66.454 -160.25)"/><path class="cls-10" d="M315.1238,338.8734,281.4283,476.3228s-68.3924-16.7663-51.6261-85.1587C246.7315,322.1071,315.1238,338.8734,315.1238,338.8734Z" transform="translate(-66.454 -160.25)"/><path class="cls-4" d="M311.893,337.9827l-.9067,3.6987L278.1975,475.4321l4.1215-2.34c-.6033-.1481-1.2-.3263-1.7945-.5063-1.6356-.4954-3.252-1.0549-4.8508-1.658q-.7856-.2962-1.5655-.6075-.4321-.1724-.8625-.3491-.2046-.084-.4086-.1689c-.069-.0287-.1378-.0578-.2067-.0864-.464-.1923.8471.36.4873.2059-1.2543-.5378-2.5009-1.0918-3.7332-1.6788a87.4521,87.4521,0,0,1-15.5766-9.4893c.0983.0983.7439.579.3278.2523a68.9728,68.9728,0,0,1-11.839-11.6906c-.076-.0965-.1507-.1941-.227-.29-.1331-.1678.5651.7392.2233.2881-.1616-.2133-.3237-.4262-.4834-.641q-.4824-.6482-.9475-1.3091a59.4288,59.4288,0,0,1-3.4044-5.4353q-.7906-1.4295-1.5-2.9019c-.4821-1.0007-.7769-1.6793-1.0472-2.3014-.289-.6654.4633,1.1313-.0521-.1312a59.5529,59.5529,0,0,1-3.7651-13.864c-.226-1.5318.0562.4925-.0269-.1639a71.4181,71.4181,0,0,1-.2466-15.6619c.1047-1.1669.2624-2.62.4343-3.7972,2.7094-18.5575,10.2729-36.3776,24.9663-47.9288.9253-.7274-.5373.4033-.0483.0357a59.1994,59.1994,0,0,1,9.1055-5.7213q1.6884-.86,3.4506-1.6251c1.1824-.5134-.5753.2343.0381-.0192,12.8072-5.2924,26.5571-6.4574,40.3551-4.6619.8435.11-.5405-.0742-.4787-.065,1.2994.1934,3.6944.5195,5.59.9837a3.3514,3.3514,0,1,0,1.7814-6.4617c-13.5253-3.311-33.2335-2.5632-48.0784,3.3552-20.8321,8.3053-33.4278,24.5383-39.9234,46-6.3866,21.1017-4.8229,38.7078.4352,51.5015,6.5114,15.8429,18.5461,27.4123,33.4482,35.4468q3.8454,2.0731,7.8744,3.7762c2.2594.9578,4.5382,1.8622,6.8637,2.6478,1.1416.3857,2.292.75,3.4551,1.0656.1491.04.2983.0809.4483.1177a3.4012,3.4012,0,0,0,4.1215-2.34l.9067-3.6987,2.4459-9.977,3.64-14.8483c28.19-114.9919,26.4464-107.8441,26.6472-108.6981a3.3585,3.3585,0,1,0-6.4059-2.0087Z" transform="translate(-66.454 -160.25)"/><path class="cls-10" d="M276.9609,680.4611H131.0685v-11.785a16.6929,16.6929,0,0,1,16.6929-16.6929H260.268a16.6929,16.6929,0,0,1,16.6929,16.6929Z" transform="translate(-66.454 -160.25)"/><path class="cls-4" d="M276.9609,677.1106h-139.97c-1.89,0-3.7843-.0361-5.6741,0-.0827.0016-.1654,0-.2481,0l3.3505,3.3505v-8.6866c0-1.0327-.0053-2.0656,0-3.0984.0033-.6437.0508-1.2779.1093-1.9182.0434-.4751-.1434.8927-.0262.1993.0221-.13.0426-.2609.0662-.3909q.1054-.581.252-1.1535a16.56,16.56,0,0,1,.5919-1.8515c.0453-.1173.108-.2395.1432-.3587-.246.8344-.1877.4259-.0678.1829.1557-.3156.3042-.6337.4716-.9436a16.6926,16.6926,0,0,1,1.0016-1.6237c.0726-.104.1491-.2055.2215-.31.3993-.5742-.5092.6108-.06.075.2239-.2673.4452-.5352.68-.7928a16.7773,16.7773,0,0,1,1.2855-1.2642c.2345-.207.5073-.3892.73-.6083-.6059.597-.37.2765-.1467.1229.1832-.1257.3622-.2572.5473-.38a16.6643,16.6643,0,0,1,1.5631-.9211c.2559-.1327.5177-.2518.7768-.3777.6364-.31-.755.2849-.0914.0354.1811-.068.36-.14.5426-.2056a16.57,16.57,0,0,1,1.87-.55q.4326-.1.87-.1763c.16-.0281.3333-.0371.49-.0787-.8971.2382-.3887.0523-.0971.0241.9669-.0937,1.9367-.0776,2.9065-.0776H257.3093q1.36,0,2.7207,0c.6879.0007,1.371.0413,2.0569.098.7317.06-.82-.1444-.1-.0149.13.0234.2608.0427.3909.0662q.4844.0876.9633.2045a16.6442,16.6442,0,0,1,1.9512.6052c.1488.0564.2972.1314.4491.1774-.7912-.24-.4841-.2114-.27-.108.2883.1392.5784.2727.8619.4218a16.6794,16.6794,0,0,1,1.7928,1.0916c.104.0727.2055.149.31.2216.55.3835-.4878-.4183-.1493-.12.2372.2093.49.4013.7261.6123a16.8029,16.8029,0,0,1,1.4053,1.4128c.208.2357.39.5051.6083.73-.705-.7266-.0239-.0138.1509.2426a16.6973,16.6973,0,0,1,.9835,1.636c.1491.2837.2822.5738.4218.8619.2957.6106-.2229-.6129-.0718-.1808.053.1516.1193.2995.1754.45a16.5738,16.5738,0,0,1,.5936,1.9564q.1023.4314.1818.8678a5.6231,5.6231,0,0,0,.0958.5875c-.0156-.0525-.092-.8643-.0445-.2965.0511.61.095,1.2156.098,1.8282.0143,2.9774,0,5.9552,0,8.9327v2.8429a3.35,3.35,0,0,0,6.701,0v-8.8786c0-1.0705.0162-2.1425-.0031-3.2129a20.4375,20.4375,0,0,0-2.3619-9.1408,20.0068,20.0068,0,0,0-13.7871-10.2075,27.4516,27.4516,0,0,0-4.9478-.3886H150.3972c-.8347,0-1.6695-.0014-2.5042,0a20.4226,20.4226,0,0,0-12.6636,4.4305,20.0812,20.0812,0,0,0-7.5114,15.6129c-.0152,2.9382,0,5.8769,0,8.8152v2.97a3.3992,3.3992,0,0,0,3.35,3.3505h139.97c1.8909,0,3.7834.0231,5.6741,0,.0827-.001.1654,0,.2481,0a3.3505,3.3505,0,1,0,0-6.701Z" transform="translate(-66.454 -160.25)"/><path class="cls-11" d="M482.41,657.3794H584.3719a7.91,7.91,0,0,1,7.91,7.91v8.087a7.91,7.91,0,0,1-7.91,7.91H482.41Z" transform="translate(-66.454 -160.25)"/><path class="cls-4" d="M482.41,660.73H583.9546c.1269,0,.254-.0012.3809,0,.2062.0018.4123.0059.618.021.0957.0071.1909.0193.2865.0267.4338.0334-.7475-.1371-.3268-.0375.2131.05.4289.0869.6408.1445.21.0569.4134.128.62.1962.6879.2274-.59-.3187.0442.0251.3758.2038.7209.4508,1.09.661.3553.2022-.5412-.4752-.2479-.19.0644.0627.1392.1174.2064.1773q.27.2412.5184.5067c.0825.0884.159.1822.2414.2706.1994.214.1043.3543-.1852-.2519a4.6832,4.6832,0,0,0,.3092.4494q.1963.3075.364.6326a2.3015,2.3015,0,0,0,.1211.2467c.1986.2886-.2818-.8009-.0865-.2076.1374.4173.2468.8293.3552,1.2544.1418.5558-.07-.8487-.002-.0432.0192.226.0268.4522.0292.6789.0022.2122,0,.4245,0,.6367v6.961c0,.26.0035.52-.0059.78-.008.2207-.0616.4525-.0522.6711.0011.0235.1373-.7656.0479-.4219-.0314.1209-.0481.2466-.0765.3685q-.0741.318-.1738.6292c-.0379.1175-.0831.2324-.1219.35a2.6207,2.6207,0,1,0,.1257-.29,11.614,11.614,0,0,0-.624,1.1145,2.3242,2.3242,0,0,0-.21.2971c-.0037.0086.48-.552.2432-.3216-.1936.1887-.3585.41-.5528.6-.13.127-.2695.2426-.4017.3667-.3815.3578.2016-.163.2518-.1853a2.4279,2.4279,0,0,0-.2971.21q-.2268.1522-.4639.2888c-.1372.0789-.9725.4618-.4193.239.5393-.2172-.1422.0447-.29.0925q-.3107.1-.6292.1737c-.0915.0214-.1841.0381-.2755.06-.5343.1254.2784-.0292.3289-.0309-.2559.0087-.511.0491-.768.0557-.08.0021-.1608.0017-.2411.0023-.1375.0011-.275,0-.4125,0H482.41l3.3505,3.3506V657.3794a3.35,3.35,0,0,0-6.701,0v23.9065a3.3992,3.3992,0,0,0,3.3505,3.3505h96.8208c1.6362,0,3.2723.0029,4.9085,0a11.3218,11.3218,0,0,0,6.5506-1.9519,11.7738,11.7738,0,0,0,4.3834-5.8124,12.5185,12.5185,0,0,0,.5588-4.1343v-6.9609a11.65,11.65,0,0,0-5.1656-9.9524c-2.4877-1.67-5.2674-1.7956-8.108-1.7956H482.41a3.3505,3.3505,0,0,0,0,6.701Z" transform="translate(-66.454 -160.25)"/><path class="cls-12" d="M292.1591,657.3794H482.41v23.9065H301.6792a9.52,9.52,0,0,1-9.52-9.52Z" transform="translate(-66.454 -160.25)"/><path class="cls-4" d="M292.1591,660.73H474.6873c2.4638,0,4.9361.06,7.3993,0,.1077-.0026.2158,0,.3235,0l-3.3505-3.3505v23.9065l3.3505-3.3506H309.7282c-2.6235,0-5.2472.01-7.8707,0-.0551,0-.11.0007-.1653,0-.2256-.0025-.45-.0081-.6755-.0236-.2267-.0155-.7833-.1521-.0166.0145-.1678-.0364-.3382-.0608-.5059-.0981a10.37,10.37,0,0,1-1.4554-.4494c.6847.2619-.0667-.0551-.3293-.2029a10.9242,10.9242,0,0,1-1.0415-.679c.694.5017-.276-.29-.4384-.4567-.1154-.1183-.2218-.245-.3366-.3637-.5572-.5763.3559.5665-.0912-.1a11.8519,11.8519,0,0,1-.6523-1.06c-.0781-.1478-.1461-.3-.2222-.4488.3462.6766.07.1933.0062-.016-.1124-.3667-.2328-.7258-.3167-1.1007-.0083-.0372-.1626-.87-.0738-.3181.0817.5076-.02-.36-.0243-.4681-.1516-3.6733-.0091-7.3793-.0091-11.0553v-3.73a3.3506,3.3506,0,0,0-6.7011,0v11.07c0,1.4461-.0863,2.9294.0578,4.3714a13.0727,13.0727,0,0,0,6.2453,10.0164c3.4716,2.0745,7.2629,1.8,11.0939,1.8H473.1834c2.9488,0,5.8993.0295,8.848,0,.1262-.0013.2525,0,.3787,0a3.3991,3.3991,0,0,0,3.3505-3.3505V657.3794a3.3991,3.3991,0,0,0-3.3505-3.3505H299.8819c-2.4656,0-4.934-.0347-7.3994,0-.1077.0015-.2156,0-.3234,0a3.3505,3.3505,0,1,0,0,6.701Z" transform="translate(-66.454 -160.25)"/><path class="cls-13" d="M404.1467,509.8955H438.31a9.7511,9.7511,0,0,1,9.1076,6.2674l54.0158,141.2165H470.6019" transform="translate(-66.454 -160.25)"/><path class="cls-11" d="M482.41,657.3794H293.1763l-50.35-131.6317a11.68,11.68,0,0,1,10.9088-15.8522H416.2747a14.1281,14.1281,0,0,1,13.1957,9.0807Z" transform="translate(-66.454 -160.25)"/><path class="cls-4" d="M482.41,654.0289H300.88c-2.4569,0-4.9366-.0977-7.3921,0-.1036.0041-.2082,0-.3119,0l3.2308,2.46-3.58-9.3605L283.9075,623.81,272.13,593.02l-11.93-31.1879-9.5259-24.9043c-5.0048-13.0843-4.9053-12.5843-5.2276-14.2786.1183.622-.0082-.041-.017-.21-.0274-.5227-.0253-1.0319-.0136-1.5543.0038-.1715.0908-.849-.0074-.1767a11.8128,11.8128,0,0,1,.6153-2.3408c-.2112.5956.002-.015.0788-.1666a13.6681,13.6681,0,0,1,.7376-1.3063q.1641-.2514.34-.4942c.326-.4509-.5206.5268.1294-.1441.2792-.2881.5412-.59.8349-.8649.1473-.1378.3-.2665.4506-.4.7079-.63-.3091.197.1615-.12.4242-.2858.8544-.5413,1.3027-.7879.0759-.0418.6525-.3215.2956-.159-.4275.1947.503-.1846.4657-.1718a11.4812,11.4812,0,0,1,1.8408-.4648c-.0558.01-3.4-.0417,17.4292-.0417H411.8349c1.3549,0,2.71-.0028,4.0646,0,.1062,0,.2125-.0009.3187,0,.0182,0,.0364,0,.0546,0,.2295.0022.4586.0054.6878.0165.2833.0137.5661.0356.8479.0676.3537.04-.3051-.088.2763.056.4885.121.9754.2177,1.4573.3662.2649.0816.5244.1755.786.2667.0818.0285.583.2544.1164.0421a13.3532,13.3532,0,0,1,2.55,1.504c-.4263-.3243.122.1154.2189.2q.2484.2175.4862.4461c.359.3452.6916.7107,1.0179,1.0863.05.0577.3751.4991.0911.1076.1307.18.2581.3636.38.55a14.1047,14.1047,0,0,1,.8391,1.46c.0628.1265.3635.8379.2181.4686.0118.03.0228.06.0344.09.0526.1347.1034.27.1551.4053l.6384,1.669,2.4606,6.4328,8.5447,22.339,11.5557,30.2107,12.1086,31.6562,10.349,27.0559,6.24,16.3143.8463,2.2127a3.447,3.447,0,0,0,4.1215,2.34c1.6167-.4443,2.99-2.4224,2.34-4.1215l-3.4736-9.081-8.8049-23.0194L461.692,593.8777l-12.16-31.7907L439.2513,535.21l-5.9353-15.517a23.8161,23.8161,0,0,0-2.92-5.9366,17.8825,17.8825,0,0,0-14.5228-7.2111q-6.11-.01-12.2207,0H259.9786c-5.0141,0-10.224-.4833-14.6033,2.54a15.1715,15.1715,0,0,0-5.7242,17.6979c.4531,1.2013.9175,2.3985,1.3762,3.5977l7.3023,19.0909,11.131,29.1005,12.243,32.0074,10.74,28.0791,6.6024,17.261.8991,2.3506a3.4792,3.4792,0,0,0,3.2309,2.46h181.53c2.462,0,4.93.0517,7.3921,0,.1039-.0022.208,0,.3119,0a3.3505,3.3505,0,1,0,0-6.701Z" transform="translate(-66.454 -160.25)"/><path class="cls-4" d="M404.1467,513.246h31.1216c.9393,0,1.8787-.0016,2.8181,0,.0674,0,.1349-.0006.2023,0,.0424,0,.0844,0,.1271.0011.1763.0025.3523.008.5282.0194q.21.0137.4183.0362-.817-.1188-.2713-.0325c.4055.0858.807.1667,1.2039.2893.1963.0606.3872.1338.5815.2.6662.2263-.5539-.2743-.1421-.0594.332.1732.6662.3332.9861.53.1736.1066.3383.2252.51.3352q.4281.3126-.19-.1574.1589.1272.3123.2611a9.7616,9.7616,0,0,1,.7321.7092c.0672.0723.3166.446.4038.4628l-.2705-.3548q.1237.1649.24.3349a9.7394,9.7394,0,0,1,.6376,1.07c.1166.2279.27.826.0133-.0349.0829.2781.0531.131.0782.1982.0149.04.03.0794.0455.119.1034.2678.2052.5363.3078.8045l1.4392,3.7626,5.5872,14.607,8.2093,21.4621,9.6287,25.1727,9.8955,25.87,8.85,23.1373,6.6544,17.3969,3.2558,8.5119.142.3714,3.2309-4.2412H470.6019a3.3505,3.3505,0,1,0,0,6.701h30.8312c2.005,0,4.0235-2.1687,3.2308-4.2412l-2.2923-5.9928-6.01-15.7119-8.5054-22.2362-9.779-25.5656-9.83-25.7-8.66-22.64L453.32,522.2578c-.8847-2.3131-1.7524-4.6337-2.6546-6.94a13.9381,13.9381,0,0,0-5.0534-6.539,13.1875,13.1875,0,0,0-7.539-2.2338q-4.0508-.0068-8.1015,0H404.1467a3.3506,3.3506,0,0,0,0,6.7011Z" transform="translate(-66.454 -160.25)"/><ellipse class="cls-9" cx="351.4453" cy="583.6374" rx="11.5862" ry="15.9413" transform="translate(-271.7947 30.7861) rotate(-23.7567)"/><path class="cls-14" d="M840.2146,585.7561H801.5665l10.6013,91.5455a4.6364,4.6364,0,0,0,4.6056,4.1032h46.8825a4.6364,4.6364,0,0,0,4.6056-4.1032l10.6013-91.5455Z" transform="translate(-66.454 -160.25)"/><path class="cls-4" d="M840.2146,582.4056H801.5665c-1.657,0-3.56,1.5428-3.3505,3.35l.467,4.0327,1.2287,10.6105,1.7321,14.9573,1.9771,17.0729,1.9637,16.9573,1.692,14.6106,1.1618,10.0327c.261,2.2533.2991,4.9792,1.5253,6.9116a8.1776,8.1776,0,0,0,6.8141,3.8136c.376.0063.7525,0,1.1285,0h44.7421c.3356,0,.6719.0061,1.0075,0a8.0555,8.0555,0,0,0,7.0377-4.2182,11.4456,11.4456,0,0,0,1.0029-3.9652l.814-7.0289,1.4687-12.6823,1.8649-16.1046L877.847,623.46l1.8825-16.2556,1.5036-12.9846.98-8.4641a3.3135,3.3135,0,0,0-.9814-2.3692,3.4818,3.4818,0,0,0-2.3691-.9813H840.2146a3.35,3.35,0,0,0,0,6.701h38.6482l-3.3505-3.3505-.46,3.9716L873.8408,600.19l-1.7035,14.71-1.95,16.8363-1.9542,16.8751-1.6989,14.6706-1.1879,10.2582-.3273,2.8262c-.0281.2424-.0571.4847-.0842.7272-.0063.0558-.0146.1117-.0195.1677-.0009.0114-.0035.0228-.0039.0342l-.0007.0054c.0007-.0309.2249-1.0963.059-.5061-.0432.1535-.0717.31-.1193.4631-.2139.6874.3119-.4926.015-.02-.062.0986-.1316.2161-.1862.3213-.1479.2844-.2949.1139.2-.2292a3.5267,3.5267,0,0,0-.4411.4682c-.0888.0937-.4229.3838-.0144.0311.424-.366.0046-.0238-.1176.0478a1.97,1.97,0,0,0-.3261.1739c.0031-.0043.69-.2455.3722-.1577-.2408.0665-.484.1324-.7247.1989-.3317.0917.4238-.0531.417-.0545a2.3407,2.3407,0,0,0-.3887.0162c-.0075,0-.015,0-.0225,0-.4138.0067-.8284,0-1.2423,0H817.9063c-.3751,0-.7507.0061-1.1257,0-.0927-.0016-.2038-.0151-.2992-.01-.342.0176.413.0658.4136.066a3.698,3.698,0,0,0-.3707-.0778c-.1219-.0311-.2386-.0745-.36-.1068-.3721-.0991.0089-.2036.2846.1258a2.2668,2.2668,0,0,0-.6363-.3726c.4224.0842.5087.4508.2455.1822-.0858-.0876-.1793-.1661-.2645-.2551a2.0494,2.0494,0,0,0-.2439-.2755c.0349.0208.3613.5825.251.3063-.0405-.1014-.4608-.9151-.2259-.3375.22.5415-.074-.3332-.1158-.504-.1665-.68.0843.7892.0527.4521-.006-.0642-.015-.1282-.0223-.1923-.0283-.25-.058-.5008-.087-.7512l-.8548-7.382-1.4858-12.83-1.8627-16.0845L809.22,622.9144l-1.8538-16.0076-1.4837-12.8129-.8537-7.3717-.1119-.9661-3.3505,3.3505h38.6481a3.3505,3.3505,0,1,0,0-6.701Z" transform="translate(-66.454 -160.25)"/><rect class="cls-15" x="730.2447" y="414.5932" width="87.0319" height="10.9129" rx="2.8308"/><path class="cls-15" d="M876.1956,563.7229a4.24,4.24,0,0,0-3.9979-2.8285H808.2316a4.24,4.24,0,0,0-3.9979,2.8285l-3.9248,11.12H880.12Z" transform="translate(-66.454 -160.25)"/><path class="cls-4" d="M880.9,571.4927H802.862c-2.0735,0-4.4136-.253-6.2919.7568a6.3017,6.3017,0,0,0-3.2219,5.4269c-.0185.5789,0,1.1614,0,1.7406,0,2.1331-.2854,4.5226.7568,6.4677a6.2947,6.2947,0,0,0,5.4423,3.2219c.1854.0052.3718,0,.5574,0H880.617a6.3118,6.3118,0,0,0,6.4641-6.1861c.0487-1.5455,0-3.1,0-4.6463,0-4.4331-2.8938-6.6707-6.1813-6.7815a3.3777,3.3777,0,0,0-3.3505,3.3505,3.4189,3.4189,0,0,0,3.3505,3.3505c.7093.0239-.8079-.2016-.1382-.0185.6353.1736-.5965-.2974-.2043-.096.4538.233-.008.2205-.1571-.1616.0147.0377.5067.5811.1049.06s0,.0949.0331.1187l-.1947-.4618a2.792,2.792,0,0,1,.0987.3593c-.14-.1347-.0478-.7858-.0621-.2463-.0184.6892,0,1.3812,0,2.0705v2.5957c0,.1679-.0084.3387,0,.5064.0224.4507-.1079.0562.0621-.3154a2.47,2.47,0,0,0-.0987.3593l.1947-.4618a2.8567,2.8567,0,0,1-.1841.3144q.5265-.6432.1782-.2592l-.1321.1239.3912-.3021a2.8226,2.8226,0,0,1-.3144.1841c.1576-.2164.7228-.3079.1936-.1177-.34.1222.8811-.0183.1834-.04-.0875-.0028-.1757,0-.2633,0h-80.565a4.4848,4.4848,0,0,0-.69-.0065c.5092-.0878.6834.1211.3319.025-.6535-.1785.703.39.1242.0524-.5588-.3261.4957.435.1712.1433-.3811-.3426.0694-.2014.1122.1972-.0041-.0388-.3451-.7-.0868-.0835s.0243-.0964-.0014-.1284c.177.2207.037.8238.0622.3154.0012-.023-.0008-.0461,0-.0691.0528-1.5655,0-3.1413,0-4.7077,0-.1561.0061-.3136,0-.47-.0215-.5557-.0056.2656-.0622.32l.0437-.182q.1654-.5022-.14.2845c-.007.0049.1815-.2817.1841-.3144q-.5267.6432-.1782.2592.384-.3484-.2592.1782c-.0076.0006.2955-.1567.3144-.1841l-.4618.1947a2.792,2.792,0,0,1,.3593-.0987c-.3631.2911-.7266.0492-.2649.0621.0845.0024.1693,0,.2538,0H880.9a3.3505,3.3505,0,0,0,0-6.701Z" transform="translate(-66.454 -160.25)"/><path class="cls-4" d="M879.4264,562.8322a7.7784,7.7784,0,0,0-3.8352-4.4742,8.13,8.13,0,0,0-3.502-.8141c-.4324-.0032-.865,0-1.2975,0H808.694a7.9951,7.9951,0,0,0-4.6793,1.292,8.1176,8.1176,0,0,0-3.0232,4.0287c-.1323.3621-.2567.7272-.385,1.0907l-3.267,9.2567-.2614.74c-.7346,2.0815,1.18,4.2412,3.2308,4.2412H880.12c2.0512,0,3.9654-2.16,3.2308-4.2412l-3.9248-11.12a3.3514,3.3514,0,0,0-6.4617,1.7814l3.9248,11.12,3.2309-4.2412H800.3089l3.2309,4.2412,2.71-7.6785c.3907-1.1071.8589-2.2145,1.18-3.3442.0085-.03.025-.0589.0316-.0894.01-.0469.48-1.084-.0915.2084-.2388.5406.0378-.0479.086-.1307a1.952,1.952,0,0,0,.2093-.326l-.2874.3747q.1245-.1455.2616-.2793c.09-.0877.199-.164.2848-.2538-.594.622-.2917.2672-.0468.0981.5445-.3759-.7457.1911-.1.0307.1229-.0306.25-.0708.3712-.1056.6486-.187-.6648.0158-.2147.0182.1,0,.2077-.01.3061-.0115.0443-.0009.0886,0,.1329,0,3.7787-.0234,7.5584,0,11.3372,0h51.5918a5.5828,5.5828,0,0,0,1.2914.0184l-.5032-.0654q.1906.0359.3771.0889c.1209.0344.2441.0941.3648.122-.7355-.17-.4862-.2149-.1982-.0478.2713.1576.4026.411-.1293-.146.0858.09.1949.1661.2848.2538l.1338.1366q.3437.3947-.16-.232a1.952,1.952,0,0,0,.2093.326c.1216.2088.334.8165-.0084-.0859a3.4277,3.4277,0,0,0,4.1216,2.34C878.6809,566.4377,880.0921,564.5867,879.4264,562.8322Z" transform="translate(-66.454 -160.25)"/><polygon class="cls-16" points="743.579 498.614 803.943 498.614 810.356 443.229 737.165 443.229 743.579 498.614"/><path class="cls-4" d="M810.0327,662.2146H862.944c2.4457,0,4.8992.0578,7.3444,0,.036-.0008.0722,0,.1082,0a3.41,3.41,0,0,0,2.3692-.9813,3.88,3.88,0,0,0,.9813-2.3692l.6366-5.4967,1.5291-13.2047,1.8589-16.0518,1.6-13.8166c.2584-2.2318.6193-4.4778.7781-6.72.0023-.0319.0074-.0638.0111-.0956a3.3131,3.3131,0,0,0-.9814-2.3691,3.4814,3.4814,0,0,0-2.3691-.9814H812.6265c-2.9579,0-5.9243-.0656-8.8816,0-.042.001-.084,0-.126,0-1.6569,0-3.56,1.5429-3.3505,3.3505l.6366,5.4967,1.5291,13.2047,1.8588,16.0518,1.6,13.8167c.2593,2.24.5113,4.4805.7781,6.7194l.0111.0956a3.6519,3.6519,0,0,0,.9813,2.3692,3.4047,3.4047,0,0,0,2.3692.9813c1.6424-.0736,3.5664-1.4858,3.3505-3.3505l-.6366-5.4967-1.5291-13.2047-1.8588-16.0518-1.6-13.8166c-.2586-2.2335-.4312-4.4975-.7781-6.72-.0049-.0316-.0074-.0638-.0111-.0956l-3.35,3.3506h64.1839c2.9544,0,5.9285.1,8.8816,0,.0419-.0015.0841,0,.126,0l-3.3505-3.3506-.6366,5.4967-1.5291,13.2047-1.8589,16.0518-1.6,13.8167c-.2589,2.2357-.59,4.4763-.7781,6.7194-.0027.0319-.0074.0638-.0111.0956l3.3505-3.3505H817.4853c-2.4457,0-4.8992-.0578-7.3444,0-.036.0008-.0722,0-.1082,0a3.3505,3.3505,0,0,0,0,6.701Z" transform="translate(-66.454 -160.25)"/><path class="cls-4" d="M838.67,628.1166c.1959-4.0773.9051-8.37,3.5379-11.5046-4.6653-.2024-9.4788,4.1509-11.256,10.5209-1.77,6.3426.0715,12.5321,4.1308,14.7987C838.6449,638.7644,838.4586,632.5234,838.67,628.1166Z" transform="translate(-66.454 -160.25)"/><path class="cls-4" d="M845.3548,617.5074c-4.79,4.3025-3.4458,11.543-4.1923,17.3473a15.8861,15.8861,0,0,1-3.1264,7.9591c4.7225.3276,9.64-4.0582,11.4409-10.5124C851.2454,625.9633,849.4082,619.7781,845.3548,617.5074Z" transform="translate(-66.454 -160.25)"/><path class="cls-17" d="M227.6145,606.3788c-4.4552-14.8628-7.3-30.5515-4.9991-45.896s10.3625-30.3709,23.7064-38.2887c-6.6621,6.9069-8.9277,17.0659-8.6469,26.6581s2.7922,18.9578,4.3995,28.4185,2.27,19.4269-1.0225,28.44" transform="translate(-66.454 -160.25)"/><path class="cls-4" d="M230.8453,605.4881a149.1751,149.1751,0,0,1-4.5861-19.6219q-.1025-.6543-.1973-1.31c-.0253-.1747-.05-.35-.0746-.5243-.1229-.8594.0641.5164-.0046-.0273-.1049-.8309-.2081-1.6617-.2971-2.4944q-.2662-2.4932-.4051-4.9977a83.2119,83.2119,0,0,1,.039-9.9994q.0824-1.2486.2062-2.4942.0588-.5906.1271-1.18.03-.2622.0627-.5241c.0443-.3584.076-.7376.0175-.1568a41.2162,41.2162,0,0,1,.71-4.14,61.8979,61.8979,0,0,1,3.5241-11.4344l-.171.4064a3.9192,3.9192,0,0,0,.4293-.979q.1971-.4384.4013-.8736a55.1012,55.1012,0,0,1,5.7086-9.5493c3.6417-4.434,6.6062-7.4738,11.6778-10.501l-4.06-5.2622c-7.61,7.9579-10.0813,19.3867-9.5876,30.1021a128.1048,128.1048,0,0,0,2.6947,18.8375c.6,3.04,1.2144,6.0775,1.7386,9.1317q.174,1.0131.3324,2.0288.0885.5691.1711,1.139.0368.2537.0723.5074c.1052.7515-.0468.0181.0009-.0015-.0715.0294.2349,1.9488.2581,2.1661q.1228,1.1484.2132,2.3a58.2474,58.2474,0,0,1-.0015,9.81q-.0576.63-.1327,1.2591a3.2509,3.2509,0,0,0-.0629.502l.051-.39q-.0267.1876-.0556.375-.1806,1.1863-.43,2.3608a37.2731,37.2731,0,0,1-1.3934,4.8674,3.3692,3.3692,0,0,0,2.34,4.1216,3.4373,3.4373,0,0,0,4.1215-2.34c4.1649-11.5333,2.2808-24.0728-.0046-35.7837-.585-2.9976-1.1991-5.99-1.7424-8.9955-.271-1.5-.525-3.0023-.7482-4.51q-.0393-.2658-.0775-.5316c-.0035-.0251-.1279-.9-.051-.3527.0657.467-.0137-.1066-.0282-.22q-.0342-.2663-.0669-.5327-.1389-1.1322-.2483-2.2676a60.4086,60.4086,0,0,1-.2668-8.3108q.08-1.8858.3049-3.7618a1.9472,1.9472,0,0,0,.0555-.4408l-.06.4507q.0231-.1649.0478-.3295.0652-.4389.1391-.8765.1569-.928.3545-1.8486a38.2868,38.2868,0,0,1,1.1319-4.14c.2209-.6569.4655-1.3042.72-1.9486.1884-.4766-.11.1688-.0862.1964a2.3516,2.3516,0,0,1,.2186-.4987q.2225-.4963.4619-.9847a29.0979,29.0979,0,0,1,2.0662-3.5633q.2748-.4038.5639-.7976a2.0491,2.0491,0,0,1,.26-.3482q-.4223.5424-.19.2487.1011-.1284.2043-.2549c.46-.5661.9456-1.11,1.45-1.6369a3.3549,3.3549,0,0,0-4.06-5.2622c-16.953,10.1188-29.4857,32.8536-25.3662,64.5728a148.3338,148.3338,0,0,0,5.1192,23.3957,3.3513,3.3513,0,0,0,6.4616-1.7814Z" transform="translate(-66.454 -160.25)"/><path class="cls-18" d="M234.9907,615.5729c-1.8061-14.8455-5.3529-29.7984-13.3116-42.46s-20.8807-22.8171-35.7222-24.6554c8.5506,3.5263,14.4749,11.6222,17.9317,20.2012s4.8563,17.8193,7.0909,26.7945,5.4982,18.0321,11.8874,24.72" transform="translate(-66.454 -160.25)"/><path class="cls-4" d="M238.3412,615.5729c-1.6-13.0859-4.399-26.0925-10.3072-37.9684-5.2618-10.5769-13.2253-19.9481-23.4182-26.0505a47.8753,47.8753,0,0,0-18.6589-6.4468,3.307,3.307,0,0,0-2.3692.9813c-1.4371,1.5656-1.56,4.3317,1.4785,5.6a8.078,8.078,0,1,0,1.0184.5q.84.4284,1.647.9181.76.4606,1.4879.9709c.2284.16.4524.3255.6775.49.4561.3334-.1283-.099-.1795-.1432a33.5962,33.5962,0,0,1,9.1287,11.284q.8728,1.6522,1.6164,3.3685c.134.3082.059.5718-.0462-.116a2.2572,2.2572,0,0,0,.1618.3922q.1869.4581.3656.9195.4215,1.086.8035,2.1869c3.8255,10.9965,4.878,22.7544,8.9778,33.6694a47.9354,47.9354,0,0,0,9.7726,16.4135,3.3811,3.3811,0,0,0,4.7383,0,3.4187,3.4187,0,0,0,0-4.7383q-.6745-.7112-1.3112-1.4561-.3348-.394-.6579-.7978c-.0945-.1181-.1837-.2486-.2844-.36l.2443.3143q-.1387-.1829-.275-.3672c-.7725-1.0452-1.4894-2.1311-2.1548-3.2474-.7073-1.1864-1.3562-2.4072-1.9547-3.6519q-.4008-.8334-.7717-1.6809c-.0231-.0527-.3386-.7515-.1058-.2381.2019.4452-.0084-.0214-.0551-.1345q-.2211-.5366-.432-1.0772a110.1553,110.1553,0,0,1-4.5932-16.2329c-2.4761-11.1356-4.8081-22.8079-11.7734-32.1541a37.1043,37.1043,0,0,0-6.0031-6.5091,32.1394,32.1394,0,0,0-8.26-4.9841l-.8907,6.5813c.7336.0929-.6368-.0956-.15-.0207.1755.027.3515.0513.5269.0788q.42.066.84.1408,1.0447.1866,2.0788.428,1.9577.456,3.8651,1.101.9015.3039,1.7891.6472c.296.1144.5891.2354.8838.3528.4469.1778-.7832-.3434-.118-.0505.1937.0852.3881.1688.5813.2553q1.838.8228,3.6,1.8028,1.7208.9554,3.3614,2.0464.8.5313,1.58,1.092.3906.2808.776.5684c.1429.1067.2842.2154.4269.3223.248.1857-.5985-.47-.0013.0006a56.5374,56.5374,0,0,1,5.9456,5.4245q1.41,1.481,2.7157,3.057c.412.4971.8067,1.0073,1.2114,1.51-.6154-.7648.0565.0816.1916.2628q.3529.4735.6966.9537a65.814,65.814,0,0,1,4.541,7.3606q1.09,2.0458,2.0515,4.1569.228.5.449,1.0019.0983.2235.1951.4474c.0172.04.3325.781.1184.2732s.0966.2355.1131.2755q.093.2257.1845.4521.2291.5659.45,1.135c1.1221,2.8909,2.0881,5.8414,2.9232,8.8275.9275,3.3159,1.6939,6.6758,2.3351,10.0584q.4929,2.6.8917,5.2173c.13.8508.2525,1.7027.3716,2.5551.0858.6136-.0071-.0668-.0206-.16.0351.243.0645.4869.0961.73q.0945.73.1833,1.46a3.6662,3.6662,0,0,0,.9814,2.3692,3.405,3.405,0,0,0,2.3691.9814c1.6329-.0732,3.5784-1.4872,3.35-3.3506Z" transform="translate(-66.454 -160.25)"/><path class="cls-19" d="M219.9959,617.7436c4.0569-16.5875,10.102-33.0613,20.8391-46.34s26.7625-23.0444,43.8387-23.12c-10.1719,2.841-17.9846,11.2184-23.065,20.4775s-7.9176,19.5465-11.6658,29.42S237.94,615.0343,231.2851,624.6" transform="translate(-66.454 -160.25)"/><path class="cls-4" d="M223.2268,618.6343a167.211,167.211,0,0,1,6.0642-19.8335q.4725-1.2383.9706-2.4665c.1509-.3719.3047-.7425.4581-1.1133.23-.5564-.0236.0474-.0578.1349.1165-.2982.2521-.5906.38-.8843q1.0045-2.3136,2.1121-4.5808a95.6075,95.6075,0,0,1,5.0039-8.9974q1.4059-2.2275,2.9473-4.3656c.4672-.6467.93-1.3037,1.4331-1.9234-.5815.7165.2254-.2816.365-.4565q.4245-.5319.8589-1.0557a69.1517,69.1517,0,0,1,6.5507-6.8752q1.7979-1.6444,3.7119-3.1562a2.9014,2.9014,0,0,1,.3484-.2733c-.7506.4068-.1683.13.0242-.0153q.4409-.3341.8875-.66.9814-.7174,1.9894-1.3976a60.39,60.39,0,0,1,8.2184-4.6666q.5951-.2778,1.1967-.5417a2.2421,2.2421,0,0,1,.6024-.26q-.6468.2719-.2962.1266.1515-.0628.3033-.1244,1.2133-.4931,2.45-.9271a51.531,51.531,0,0,1,5.01-1.48q1.2693-.3051,2.5536-.5429.6421-.1187,1.2874-.22c.2152-.0338.4308-.0643.6461-.0969.69-.1041-.7929.0977.0815-.0087a46.9164,46.9164,0,0,1,5.3469-.3382l-.8907-6.5814c-12.02,3.4066-20.8066,13.4492-26.2544,24.2766a161.2625,161.2625,0,0,0-7.7894,19.534c-1.1092,3.18-2.2186,6.3609-3.4393,9.5q-.4178,1.0743-.8544,2.1412c-.0743.1811-.607,1.3772-.1958.479-.1763.3852-.3338.78-.504,1.1677q-.9294,2.1177-1.9643,4.1867a61.9548,61.9548,0,0,1-5.337,8.8379q-.1686.23-.34.4581c-.1165.155-.4876.7884-.0306.046a10.0839,10.0839,0,0,1-.8568,1.0649q-.799.9639-1.6514,1.882a40.5544,40.5544,0,0,1-3.8155,3.6039,3.3629,3.3629,0,0,0,0,4.7383,3.4421,3.4421,0,0,0,4.7384,0c9.9474-8.2516,15.1345-20.5883,19.3552-32.46,1.1432-3.2157,2.2405-6.4475,3.4011-9.657.5793-1.6018,1.1745-3.198,1.799-4.7828.2962-.7518.6046-1.4983.91-2.2464.2-.49-.321.7469.0088-.0221q.1-.2343.2011-.4685.3033-.7019.6174-1.3991a69.5886,69.5886,0,0,1,4.4637-8.4475q1.1222-1.785,2.3793-3.48c.1076-.1448.2169-.2882.325-.4326.3678-.4909-.1277.1342-.1279.1639.0013-.1909.5341-.6731.6744-.8451q.7165-.8782,1.4746-1.7214a42.6405,42.6405,0,0,1,3.4219-3.4059q.3994-.354.8084-.6969c.1124-.0942.9831-.6635.9929-.8044-.0092.1327-.5561.4185-.1724.1354.1709-.1261.34-.2543.5119-.3792q.5145-.374,1.0422-.7292a32.2639,32.2639,0,0,1,4.0289-2.3148,5.2135,5.2135,0,0,0,1.1548-.5251c-.043.0415-.7575.3043-.2141.0934.1976-.0767.3939-.1567.5922-.2318.7972-.302,1.6074-.5653,2.4275-.7977a3.3559,3.3559,0,0,0-.8907-6.5814c-13.6857.094-26.5709,5.9547-36.9335,14.6476-10.8895,9.135-18.4125,21.497-23.7583,34.5261a160.432,160.432,0,0,0-7.2168,22.746,3.3514,3.3514,0,0,0,6.4617,1.7814Z" transform="translate(-66.454 -160.25)"/><path class="cls-18" d="M229.2222,613.29c-8.3063-10.88-18.0364-21.0385-30.1865-27.3432s-27.0564-8.3312-39.6227-2.9031c18.2046-2.5623,31.7479,15.5051,41.5322,25.4953,5.9237,6.0483,12.6974,11.684,20.84,14.0013" transform="translate(-66.454 -160.25)"/><path class="cls-4" d="M232.1153,611.5988c-6.8355-8.9415-14.4213-17.2972-23.6571-23.82-9.2788-6.5535-20.2452-10.7936-31.6644-11.1961a44.3251,44.3251,0,0,0-19.0718,3.5682,3.3145,3.3145,0,0,0-1.54,2.0024,3.4669,3.4669,0,0,0,.1689,2.1816,3.2,3.2,0,0,0,1.3709,1.6022,3.9608,3.9608,0,0,0,2.5817.3377c-.979.1326.0821.0034.2847-.0144q.4107-.0361.8225-.0571.9376-.0486,1.8771-.0223.8781.024,1.753.11c.1612.0158.9906.1163.4854.05-.5083-.0668.0085.0044.1348.0242q.29.0457.5786.0974a29.2485,29.2485,0,0,1,3.5453.8738q.8493.265,1.6833.5767.39.1456.7768.301a1.9792,1.9792,0,0,0,.3311.1347q-.5952-.2536-.2511-.1051.1646.0708.3281.1438a40.8277,40.8277,0,0,1,6.3656,3.5729q.74.504,1.46,1.0365c.1276.0943.2541.19.3813.2849.0638.0476.3836.3015.0429.03-.3665-.2918.0571.0458.1473.1169q.244.1926.4861.3878c.9992.8057,1.9712,1.645,2.9212,2.5081,7.4109,6.7328,13.4367,14.88,21.2823,21.1518a44.0078,44.0078,0,0,0,15.1541,8.2945,3.3513,3.3513,0,1,0,1.7814-6.4616c-1.1936-.3447-2.3227-.8423-3.4989-1.2258.0035.0011.61.2685.2691.1109-.14-.0647-.2819-.1243-.4221-.1878q-.3684-.1668-.7327-.3419-.8855-.4257-1.7471-.8986c-1.051-.5756-2.0749-1.2-3.0731-1.8628q-.7275-.4833-1.4366-.9935-.3316-.2382-.66-.4817c-.125-.0928-.2487-.1876-.3739-.28-.5015-.3708.355.2825.029.0253a98.7719,98.7719,0,0,1-10.8117-10.25c-7.0523-7.541-14.0921-15.64-23.6388-20.0745a35.3275,35.3275,0,0,0-8.4427-2.8267,29.9267,29.9267,0,0,0-9.6144-.2093l2.5818,6.1239c-.8272.3541.0756-.028.2886-.1118q.4374-.1722.879-.3334.991-.361,2.0014-.6658a38.5414,38.5414,0,0,1,3.8563-.9478c.6118-.1178,1.2264-.2173,1.8425-.31.3-.0451.3559-.1985-.1961.0254a2.2646,2.2646,0,0,1,.4641-.0563q.5228-.06,1.0469-.1075,1.9257-.1737,3.8619-.1743,2.0008-.0018,3.9966.17c.6279.0535,1.2533.1244,1.879.1977.6067.0711-.1029-.008-.1873-.0267a51.5479,51.5479,0,0,1,9.2321,2.17,24.0808,24.0808,0,0,1,3.7847,1.4114c-.7741-.416.0691.0313.29.1288q.4338.1911.8644.3895.9667.4458,1.916.9279a64.777,64.777,0,0,1,6.717,3.9533q1.5914,1.0666,3.1243,2.2171c.247.1852.5033.3641.74.5619-.6808-.5687.06.05.2378.1913q.82.65,1.6232,1.3215c1.9986,1.67,3.9178,3.4341,5.766,5.2687,2.0773,2.0621,4.0646,4.2137,5.9776,6.4287q1.4548,1.6845,2.8541,3.4158.6627.8184,1.314,1.6458.3615.4592.72.9207c.1068.1372.4019.4818-.0954-.1237.1479.18.2846.3707.426.5557a3.6847,3.6847,0,0,0,2.0024,1.54,3.4246,3.4246,0,0,0,2.5818-.3378c1.371-.8839,2.3405-3.0948,1.202-4.5841Z" transform="translate(-66.454 -160.25)"/><path class="cls-17" d="M230.1062,612.858c8.5827-11.2421,18.6363-21.7382,31.1906-28.2525s27.9563-8.6084,40.94-3c-8.6621-1.2192-17.3709,2.5461-24.2985,7.8871S265.4444,601.7,259.3237,607.949s-13.12,12.0727-21.5331,14.467" transform="translate(-66.454 -160.25)"/><path class="cls-4" d="M232.9993,614.5491c.0944-.1235.1893-.2467.2835-.37.4716-.6188-.333.4272-.0252.0314q.2867-.3686.574-.7368.6486-.828,1.3077-1.6478,1.2836-1.5959,2.61-3.1568,2.6158-3.0755,5.4222-5.9819c1.8683-1.9253,3.807-3.7831,5.8253-5.5509q1.53-1.34,3.1225-2.6085c.1663-.1323,1.0439-.8465.3277-.2633.24-.1951.4921-.3766.7391-.5621q.8349-.6273,1.6865-1.2317a69.6429,69.6429,0,0,1,6.882-4.3146q1.7532-.9584,3.5659-1.8012.43-.1988.8625-.3906c.1444-.0639.29-.1259.434-.19.7213-.3209-.5074.2056-.0368.0137.6593-.2688,1.3192-.5345,1.9864-.7833a55.4233,55.4233,0,0,1,7.8558-2.2925q.9847-.2091,1.977-.381.4664-.0805.934-.1528.2337-.0362.4677-.07.1754-.0257.351-.05-.6923.092-.3052.0426c1.3671-.1563,2.7325-.2884,4.1079-.3462q2.2258-.0936,4.4541.0258,1.167.0639,2.33.189.2322.025.464.0528.1739.0205.3476.043.3877.05-.3124-.042a4.2409,4.2409,0,0,1,1.0376.16,40.19,40.19,0,0,1,4.4368,1q1.1246.322,2.2285.711.4977.1755.99.3652.2742.1055.5468.215c.19.0765.8822.3731.0687.0247l2.5818-6.1239a30.9519,30.9519,0,0,0-8.8419.0456,31.6006,31.6006,0,0,0-7.4143,2.0787A51.3335,51.3335,0,0,0,272.6783,589.5c-7.9249,6.9044-14.1976,15.4917-22.307,22.2q-.4048.3349-.8152.6633c-.1215.0971-.2438.1932-.3656.29-.488.3881.3648-.2734.0332-.0238-.5578.42-1.1166.8373-1.6875,1.2394-1.1358.8-2.3044,1.5534-3.5083,2.2467a38.1382,38.1382,0,0,1-3.6965,1.8764c-.113.05-.5865.2329-.129.0579.4951-.19-.1361.0519-.24.0929q-.4826.1911-.9708.3671c-.69.2488-1.3878.4717-2.0922.675a3.3514,3.3514,0,1,0,1.7814,6.4617c10.0608-2.9037,18.0472-10.0469,25.0913-17.4923,3.6664-3.8753,7.2006-7.8817,11.0664-11.5634q1.3991-1.3324,2.86-2.5979.7085-.6106,1.434-1.2011c.2584-.21.5194-.4164.78-.6233.4794-.38-.02.0052-.0943.0718.1469-.1317.3193-.242.4774-.36a44.4481,44.4481,0,0,1,6.5356-4.0591c.6091-.3065,1.2275-.59,1.8488-.8707.5524-.2495-.05.0366-.1386.0551a3.8817,3.8817,0,0,0,.5549-.225q.5-.198,1.0062-.381a31.7791,31.7791,0,0,1,4.106-1.1833q.52-.1116,1.0432-.2035.1742-.0307.3488-.0595c.2529-.0412.8561-.2728.0422-.0162a8.8829,8.8829,0,0,1,2.11-.1848q1.0008-.0465,2.0031-.0124.5319.0185,1.0626.06c.23.0183,1.5219.1707.5269.0359a3.6152,3.6152,0,0,0,2.5818-.3378,3.4672,3.4672,0,0,0,1.3708-1.6022c.5818-1.3786.1635-3.5269-1.3708-4.1839a45.4905,45.4905,0,0,0-17.6266-3.6992,54.7179,54.7179,0,0,0-17.3879,2.7827c-11.0451,3.6254-20.7075,10.455-28.919,18.5751a141.4212,141.4212,0,0,0-12.7817,14.7957,3.3584,3.3584,0,0,0-.3378,2.5817,3.4169,3.4169,0,0,0,1.54,2.0024,3.3815,3.3815,0,0,0,2.5817.3377,3.9528,3.9528,0,0,0,2.0024-1.54Z" transform="translate(-66.454 -160.25)"/><path class="cls-20" d="M268.0322,632.63H193.01V619.7829a3.5039,3.5039,0,0,1,3.504-3.5039h68.0145a3.5038,3.5038,0,0,1,3.5039,3.5039Z" transform="translate(-66.454 -160.25)"/><path class="cls-21" d="M264.5283,616.279h-6.6838v6.2055a4.5053,4.5053,0,0,1-4.5054,4.5053H193.01v5.64h75.0225V619.7829A3.5039,3.5039,0,0,0,264.5283,616.279Z" transform="translate(-66.454 -160.25)"/><path class="cls-20" d="M196.8892,632.63l6.6059,41.9255a8.1123,8.1123,0,0,0,8.0134,6.85h38.2234a8.1123,8.1123,0,0,0,8.0134-6.85l6.6059-41.9255Z" transform="translate(-66.454 -160.25)"/><path class="cls-21" d="M196.8892,632.63l.8146,5.17H248.13a4.7736,4.7736,0,0,1,4.6645,5.7884l-5.3464,24.573c-.6215,2.8563-4.0207,4.96-8.0135,4.96H203.2692l.2259,1.4335a8.1122,8.1122,0,0,0,8.0135,6.85h38.2232a8.1124,8.1124,0,0,0,8.0135-6.85l6.6059-41.9255Z" transform="translate(-66.454 -160.25)"/><path class="cls-4" d="M268.0322,629.2791H202.2538c-3.0329,0-6.0827-.094-9.1146,0-.043.0013-.0863,0-.1294,0l3.35,3.3505V621.9217c0-.65-.0029-1.2993,0-1.9489,0-.0527.0022-.106,0-.1586-.0249-.6006-.1925.6116-.0388.1077a1.2392,1.2392,0,0,0,.0711-.2678c.0026-.2752-.1313.3227-.1778.3727a1.9471,1.9471,0,0,0,.2616-.4745c.0012.0277-.4855.5209-.2531.32.0656-.0566.12-.1364.182-.1981s.1389-.1171.1981-.182c.239-.2621-.66.3737-.1671.158a1.5819,1.5819,0,0,0,.24-.1269c.2548-.1762-.3508.1746-.3792.1649a2.0225,2.0225,0,0,0,.5392-.1327c-.1395.05-.7764.05-.3145.0738.0355.0018.0718,0,.1073,0,.1929-.0016.3859,0,.5788,0h65.6407c.5237,0,1.0476-.0044,1.5713,0,.0339,0,.0686.0018.1025,0,.4622-.0245-.18-.025-.3162-.0738a2.0227,2.0227,0,0,0,.5391.1327c-.044.0151-.6159-.35-.3792-.1649a2.5335,2.5335,0,0,0,.393.222c-.0282.0018-.5209-.4855-.32-.2531.0566.0656.1364.12.1981.182s.1164.1415.1819.1981c.2324.2007-.2542-.2925-.253-.32a1.9437,1.9437,0,0,0,.2616.4745c-.0466-.05-.18-.6479-.1778-.3727a1.46,1.46,0,0,0,.0886.36c.093.2581-.0269-.7791-.0564-.2287,0,.01,0,.0195,0,.0293-.0024.0591,0,.1189,0,.178.017,3.8327,0,7.6659,0,11.4987V632.63a3.3505,3.3505,0,0,0,6.701,0V621.6621c0-.5948.0055-1.19,0-1.7847a6.929,6.929,0,0,0-2.2057-5.1233,7.4806,7.4806,0,0,0-5.1273-1.8256H197.8986c-.4511,0-.9031-.0087-1.3542,0a6.9687,6.9687,0,0,0-6.8851,6.963c-.0318,3.8521,0,7.7056,0,11.5578v1.18A3.3992,3.3992,0,0,0,193.01,635.98h65.7785c3.0358,0,6.0792.0625,9.1146,0,.043-.0009.0862,0,.1293,0a3.3505,3.3505,0,0,0,0-6.701Z" transform="translate(-66.454 -160.25)"/><path class="cls-4" d="M193.6584,633.52l2.2879,14.52,3.58,22.7231c.2454,1.5572.4753,3.1177.7362,4.6724a11.4286,11.4286,0,0,0,5.4085,7.7225,12.1514,12.1514,0,0,0,6.3026,1.5966h37.8018a3.3505,3.3505,0,0,0,0-6.701h-.0437v6.701a11.59,11.59,0,0,0,10.0661-5.98,12.7841,12.7841,0,0,0,1.2947-4.0688l1.3267-8.4207,2.1088-13.3838,2.0094-12.7531c.3429-2.1761.6944-4.3511,1.0287-6.5285l.0157-.1a3.4831,3.4831,0,0,0-.6-2.9208,3.2821,3.2821,0,0,0-2.6311-1.32H205.2c-2.7291,0-5.4663-.062-8.1949,0-.0386.0009-.0774,0-.1161,0a3.3505,3.3505,0,1,0,0,6.701H256.04c2.7258,0,5.47.0935,8.1949,0,.0386-.0013.0774,0,.1161,0l-3.2309-4.2412-.81,5.1438L258.4321,648.8l-2.1241,13.4816L254.7924,671.9c-.0913.5795-.1776,1.16-.2739,1.7388a8.8658,8.8658,0,0,1-.2659,1.1573c-.0546.177-.1511.36-.1876.54-.0051.0257.3155-.68.1538-.3651-.043.0834-.0792.1709-.1212.2549-.1817.3639-.4328.6849-.622,1.0407-.155.2916.2493-.3086.2467-.3063a2.4651,2.4651,0,0,0-.1767.2143c-.1233.138-.244.2773-.3734.41s-.2622.26-.4.3831c-.0688.0616-.1406.12-.2091.1815-.3381.3046.1425-.1528.2412-.1835a6.8594,6.8594,0,0,0-.94.5889,3.2441,3.2441,0,0,0-.5.2459c-.0146.0119.7-.2646.37-.1594-.1186.0378-.2344.0864-.3528.1255-.362.1193-.7305.1846-1.0982.2783-.35.0893.4468-.0491.4177-.0484-.095.0022-.1928.0207-.2878.0287-.2268.0189-.4533.0261-.6808.0289a3.3505,3.3505,0,1,0,0,6.701h.0437a3.3505,3.3505,0,0,0,0-6.701H213.27c-.5833,0-1.167.0058-1.75,0-.2642-.0027-.5253-.0224-.7886-.037-.7072-.0392.816.1768.1325.0109-.1842-.0447-.37-.0777-.5539-.1268-.294-.0786-.5962-.2417-.8907-.2935.7638.1342.4582.203.1214.0326q-.2481-.1255-.4872-.2679c-.1593-.0948-.31-.2018-.4667-.3-.5754-.36.5949.53.09.0767-.23-.2065-.46-.4067-.6736-.6308-.1279-.1342-.2457-.2759-.3688-.4143-.4311-.4847.3268.5467.13.1625-.1829-.3571-.4411-.6776-.6219-1.0407a2.973,2.973,0,0,0-.16-.3406c.457.6639.1774.4328.0638.0929a8.113,8.113,0,0,1-.269-1.0252c-.0225-.1157-.0415-.2319-.0608-.3482-.0291-.1759-.0555-.3524-.0832-.5285l-.4068-2.5817L202.83,648.9356l-2.6651-16.9146-.0444-.2821a3.3532,3.3532,0,0,0-1.54-2.0024,3.3511,3.3511,0,0,0-4.9219,3.7838Z" transform="translate(-66.454 -160.25)"/><path class="cls-22" d="M605.9173,174.3279a10.3493,10.3493,0,0,0-10.201-10.201H539.9858a10.3493,10.3493,0,0,0-10.2011,10.201v41.4369c0,5.3359,4.6921,10.4477,10.2011,10.201a10.3786,10.3786,0,0,0,10.201-10.201V188.5019a3.973,3.973,0,0,1,3.973-3.973h27.3824a3.973,3.973,0,0,1,3.973,3.973v22.5809c0,1.9181.2261,1.054-16.2325,22.5056-2.8178,3.6727-6.3092,6.9661-6.5321,11.8649-.0194.4251,0,27.185,0,27.6069,0,5.3359,4.6919,10.4478,10.201,10.201a10.3785,10.3785,0,0,0,10.201-10.201V248.769c22.692-29.5765,22.5472-28.2876,22.7647-33.0343C605.94,215.2321,605.9173,219.1265,605.9173,174.3279Z" transform="translate(-66.454 -160.25)"/><path class="cls-22" d="M572.9516,297.2816a11.7526,11.7526,0,0,0-7.2132,2.3877c-3.5892,3.1243-2.9878,5.5839-2.9878,10.2254,0,4.7933,5.2538,8.329,10.201,8.1519a11.7536,11.7536,0,0,0,7.2132-2.3876c3.5889-3.1244,2.9878-5.5759,2.9878-10.2255C583.1526,300.64,577.8989,297.1046,572.9516,297.2816Z" transform="translate(-66.454 -160.25)"/><path class="cls-23" d="M609.6267,190.4647c0-5.4458.1316-10.91-.0024-16.354a14.0333,14.0333,0,0,0-14-13.6933c-1.7759-.0075-3.552,0-5.3279,0H540.45a14.3944,14.3944,0,0,0-12.094,6.3819c-2.9634,4.3371-2.2805,9.77-2.2805,14.7417v33.3029a15.5889,15.5889,0,0,0,1.62,7.3013,14.6881,14.6881,0,0,0,4.8794,5.3864c4.12,2.809,9.4131,2.6443,13.7616.4874a13.9243,13.9243,0,0,0,7.4912-11.0677,32.8967,32.8967,0,0,0,.0689-3.6382V191.387c0-.995-.0317-1.9959.0028-2.9906.028-.8062-.226.6428-.0022.0681a1.6036,1.6036,0,0,0,.09-.2888c.0518-.3319-.1474.4036-.1807.4258.0624-.0416.5907-.8873.1352-.29-.4335.5688.2169-.12.2483-.1972-.0361.089-.7729.4786-.2756.2282a1.1708,1.1708,0,0,0,.2576-.148c.1976-.2138-.3443.17-.433.1674.091.0026.1936-.0857.2867-.0949.807-.08-.7432-.0232-.0766-.0235.0726,0,.1458-.004.2185-.0055.3193-.0067.6395,0,.9588,0h25.996c.1262,0,.2527-.0023.379,0,.0491.0009.0968.001.1466.0027a2.765,2.765,0,0,0,.3137.0191c-.1159.01-.891-.2268-.3817-.0212a1.2956,1.2956,0,0,0,.2887.09c.2754.023-.5216-.3328-.3381-.1342a1.1692,1.1692,0,0,0,.2577.148c.4973.25-.24-.1392-.2757-.2282a2.0092,2.0092,0,0,0,.4172.4171c-.0416-.0168-.4058-.6586-.283-.3578a1.3459,1.3459,0,0,0,.2028.34c.2094.2332-.1691-.3738-.1674-.4329a1.4391,1.4391,0,0,0,.1233.3836c.2239.5747-.03-.8743-.0022-.0681.0015.0424.002.0761.0028.1145s0,.076,0,.114c.0122,1.4992,0,2.9989,0,4.4981v17.4079c0,.1615.0021.3233,0,.4848,0,.0221-.0007.0444,0,.0664.02.6491.1492-.3866.0263-.0823a2.272,2.272,0,0,0-.1046.3739q.3062-.6633.1148-.2932a1.9894,1.9894,0,0,1-.13.2252c-.7115,1.1456-1.6555,2.193-2.4764,3.2629l-2.5373,3.3071-5.0745,6.614-5.0746,6.614q-.188.2451-.3759.49c-.291.38.1858-.2431.1973-.256-.156.1749-.2931.3714-.44.5545-.3445.43-.6937.8563-1.0412,1.2838-.84,1.0337-1.6748,2.0756-2.4552,3.1555a16.5642,16.5642,0,0,0-3.3972,9.5713c-.0176,4.2687-.0054,8.5377-.0039,12.8064q.0023,6.7728.0069,13.5456a14.8323,14.8323,0,0,0,2.15,8.1137c2.5944,4.0679,7.2436,6.9778,12.184,6.5753a14.7041,14.7041,0,0,0,11.615-6.9661,13.8377,13.8377,0,0,0,1.8709-6.8079c.0411-2.7513.0012-5.5063.0012-8.2579V248.769l-.5065,1.8722q2.6663-3.4747,5.3419-6.9425.6128-.7943,1.2261-1.5881l-.2093.2709.2926-.3786.6449-.8341q1.0407-1.3459,2.0823-2.6911c2.295-2.9642,4.5961-5.924,6.8745-8.901,1.9833-2.5915,4.2591-5.2162,5.7083-8.1666a12.9812,12.9812,0,0,0,1.3124-5.7215c.0048-.3781-.1019.7228-.129.95.04-.3355.1214-.668.1349-1.0051.002-.05.0016-.1008.0027-.1513.014-.6129,0-1.2278-.0012-1.8408q-.0113-9.3429-.01-18.686,0-2.2451,0-4.49a3.7095,3.7095,0,0,0-7.4189,0q0,11.5014.01,23.0026c.0008.68-.0349,1.3712.0012,2.05.0289.5425.1394-.9389.1288-.86-.0484.361-.1162.7155-.14,1.077-.0266.4081-.0344.817-.0724,1.2246-.0085.0912-.02.1821-.0286.2732-.049.5387.2119-1.3055.0885-.6714-.0346.1776-.0644.3551-.1082.5308q-.069.2763-.1628.5454c-.0313.09-.0683.1782-.1.2682-.2.5736.5-1.0962.2256-.5355-.2344.4786-.477.9466-.7537,1.4029-.9046,1.4921-1.9565,2.897-2.9992,4.2939q-1.2193,1.6335-2.4645,3.2478-.7851,1.0236-1.5738,2.0447-.1955.2534-.3912.5066c-.2629.34.5443-.7042.2787-.3608l-.2046.2648q-.48.62-.96,1.24-4.9968,6.4564-9.9844,12.92-.6993.9084-1.3978,1.8172a26.23,26.23,0,0,0-1.65,2.1493c-.6872,1.1213-.5065,2.6063-.5065,3.8708V271.83c0,.7558-.0985,1.56-.0566,2.3107-.003-.0544.17-.9573.0458-.3568-.0283.1367-.05.2743-.0791.411q-.0863.4042-.2072.8c-.0773.2539-.2156.5127-.27.77.1632-.7695.2783-.612.1319-.33-.0929.1788-.1772.36-.2744.537q-.193.3505-.414.6848c-.0734.1111-.1526.2178-.2267.3284-.3253.4858.176-.2467.2164-.2764-.4554.334-.8111.9061-1.2485,1.2844a3.896,3.896,0,0,0-.3071.2555c.5575-.601.5216-.3833.2716-.2183-.2237.1478-.4416.302-.6713.4409q-.3888.2352-.7964.4367c-.121.06-.2466.1118-.3666.1734-.3994.2052.8305-.3038.2273-.1017a14.3851,14.3851,0,0,1-1.6812.484c-.1362.0279-.2737.0486-.41.0762-.47.0952.843-.0858.3629-.0462-.3566.0294-.7093.0631-1.0678.0654-.2916.0018-.5772-.0238-.8677-.0386-.4839-.0246.8195.1482.3474.0476-.1391-.03-.28-.0514-.4191-.0822a8.9892,8.9892,0,0,1-.9215-.256,3.6156,3.6156,0,0,0-.3987-.1444c.2553.05.7547.342.2063.0779-.542-.261-1.0122-.6684-1.5451-.926.0564.0272.698.5858.2464.1886-.1068-.0939-.2171-.1831-.3232-.278-.2388-.2134-.4672-.4383-.6859-.6721-.1218-.13-.2352-.2677-.3558-.3987-.2126-.2311-.1472-.4148.1794.2495a8.0821,8.0821,0,0,0-.4877-.703q-.23-.36-.4314-.7384-.1-.1884-.1935-.381-.07-.144-.1346-.2906-.1739-.3907.1681.3941a13.1813,13.1813,0,0,0-.4821-1.6317,2.7986,2.7986,0,0,0-.0765-.4184c.2566.643.078.7172.0525.3531-.02-.286-.0365-.57-.0395-.857-.005-.4892-.0006-.9786-.0009-1.4677q-.0026-4.1518-.0046-8.3038c-.0028-5.7781-.02-11.5567.0019-17.3348.0006-.16-.0021-.32.0032-.48.0057-.17.0251-.3377.0342-.5072.0349-.6511-.0085.1826-.0416.2668a3.2922,3.2922,0,0,0,.0861-.4671q.0954-.4577.2292-.9063a5.3934,5.3934,0,0,0,.3839-1.0854c-.0155.4861-.2784.6214-.0972.2574.068-.1366.1323-.2748.2019-.4107q.2088-.408.4415-.8033c.3509-.5978.7372-1.1744,1.1432-1.736.1352-.1869.5163-.5315.5578-.7483l-.2931.38q.1085-.1389.218-.2767.1461-.1843.2935-.3677c.4185-.5214.8434-1.0377,1.2639-1.5576,4.489-5.5506,8.7242-11.3244,13.07-16.9881l3.1951-4.1644a10.4544,10.4544,0,0,0,1.2707-1.8791,8.189,8.189,0,0,0,.8084-3.3929c.0131-.5236,0-1.0492,0-1.573V191.2055c0-.8254.0036-1.6509,0-2.4764a7.7874,7.7874,0,0,0-2.6187-5.9853,8.1916,8.1916,0,0,0-5.423-1.9243H569.6989c-5.1527,0-10.3142-.0894-15.4663,0a7.7828,7.7828,0,0,0-6.8746,4.1277,9.0971,9.0971,0,0,0-.8807,4.1851v25.26c0,.4565.0041.9132,0,1.37-.002.2189-.0067.4374-.02.656a3.9248,3.9248,0,0,0-.0361.4277c-.003-.0544.17-.9574.0457-.3568a15.6163,15.6163,0,0,1-.4831,1.7917c-.1015.3048-.2932.3211.143-.3238a3.3275,3.3275,0,0,0-.1723.3645q-.1788.3589-.3867.7027c-.138.2283-.2921.4448-.44.6662-.3253.4859.176-.2467.2164-.2763a3.7264,3.7264,0,0,0-.3908.4518c-.36.3925-.8067.702-1.1648,1.0881.696-.75.4329-.2006-.9259.5211-.2354.125-.5034.215-.7294.3533.8809-.5392.3037-.13-.0659-.0066-.5875.1961-1.2315.2414-1.8083.4406.7384-.2551.6985-.08.3613-.0519-.1406.0117-.2808.0259-.4216.0346a9.1858,9.1858,0,0,1-.9775.0109c-.1442-.0064-.2878-.0229-.4318-.03-.4838-.0247.82.1481.3475.0476-.3137-.0669-.626-.1238-.9351-.2122-.1815-.0519-1.1479-.4473-.5568-.1646.6142.2938-.3059-.16-.4188-.22q-.3743-.2007-.73-.4327c-.12-.0785-.3042-.27-.4377-.3011.2122.05.6558.5336.1649.12a10.8555,10.8555,0,0,1-1.2135-1.1993c-.2365-.2736-.2493-.5611.11.1686a3.1841,3.1841,0,0,0-.2506-.3467q-.2746-.3953-.5131-.8141-.2121-.3714-.3944-.7581c-.2032-.4313.0461-.4132.079.2a2.1475,2.1475,0,0,0-.1461-.4q-.1378-.4028-.2414-.8164-.0519-.2062-.0946-.4148c-.0752-.3644.0631-.8353-.0021.1464.0425-.639-.0614-1.3378-.0614-1.9835,0-43.917.061-41.5513.06-41.5947.0015.0548-.1644.9572-.041.3522.0283-.1388.0524-.278.0833-.4162a10.1343,10.1343,0,0,1,.2834-1.0148c.1175-.35.5407-.9887.0114-.087.14-.238.2418-.5022.3772-.744s.28-.4792.4349-.71a2.2284,2.2284,0,0,0,.238-.341q-.5281.6679-.2637.3387.0969-.1219.1987-.24a15.1487,15.1487,0,0,1,1.1742-1.1732c.4275-.4019-.2063.1576-.2652.19.1473-.08.2828-.2079.4221-.3029.2578-.1759.523-.3409.7957-.4928a5.0757,5.0757,0,0,0,.7438-.3765c-.4638.3846-.6607.2543-.3079.1313.165-.0575.3278-.12.4941-.1744q.4008-.13.8111-.2263.2063-.0482.4142-.0875c.6158-.1163.0091.0287-.2491.0215,1.14.0316,2.3111-.06,3.4565-.06h52.6992c.555,0,1.1867.1176,1.73.06-.789.0839-.6585-.0989-.2479-.0212q.2085.0393.4148.0877.4108.0961.8119.2267c.1223.04,1.0853.378.438.1479-.617-.2193.0141.021.125.0772q.2323.1179.4583.2478.3615.2067.7052.4418c.13.0889.4772.3948.0454.0148-.4944-.4351.03.03.1112.0994a14.2449,14.2449,0,0,1,1.24,1.2539c.313.3426-.4615-.6411-.1942-.2614.1.1417.2032.28.3.4246q.2311.3461.4342.71c.1323.2365.2259.5208.3766.7438-.0319-.0471-.3283-.8763-.1314-.3079.0687.1982.1441.3935.2069.5939q.126.4022.2179.8141c.0308.1381.0553.277.0831.4156.0707.3525-.1145.3484-.0412-.3532-.084.8038.06-4.1912.06,17.2133a3.7095,3.7095,0,1,0,7.4189,0Z" transform="translate(-66.454 -160.25)"/><path class="cls-23" d="M572.9516,293.9656a15.4,15.4,0,0,0-9.4676,3.2828,10.8089,10.8089,0,0,0-3.8391,6.42,21.8161,21.8161,0,0,0-.2431,3.7623,28.4637,28.4637,0,0,0,.23,4.3524,11.2447,11.2447,0,0,0,4.6908,6.9146,14.25,14.25,0,0,0,7.8857,2.6633,15.4065,15.4065,0,0,0,8.9742-2.3316,11.705,11.705,0,0,0,4.9517-6.7045,27.2361,27.2361,0,0,0,.3316-7.0961c-.2494-6.8362-7.0809-11.4247-13.5138-11.2633a3.3161,3.3161,0,0,0,0,6.6321,7.249,7.249,0,0,0,1.4878.0558c-.0057.0044-.7076-.1179-.3521-.0469.14.028.2813.0477.4211.0756q.42.0837.8326.1993.3606.1009.7141.225c.1.0354.1993.0786.3.1112.3428.11-.3-.1323-.299-.1319.4451.2762.9533.4595,1.4024.74.2075.1294.4071.2684.6076.408.4691.3266-.4683-.4478.0558.0621.1709.1663.3526.3207.5195.4917.1326.136.3776.5554.5373.6034-.0243-.0073-.3767-.5595-.2162-.2726.0641.1144.1519.2186.2228.33.1243.1945.2406.3941.3465.5993.044.0854.0786.1846.13.2657.1743.2772-.1479-.3136-.1419-.3393-.0333.1441.1966.5889.2376.7514.0292.1158.18.9328.0849.3416-.0947-.5872-.0086.22-.0058.3673.01.5663.01,1.1329.02,1.6993.0167.9324.0429,1.8683-.0218,2.8-.0119.171-.046.3474-.0467.5184.004-.9922.0666-.4514.0028-.1324-.0809.4049-.2714.7946-.3456,1.1938.008-.0433.3786-.773.13-.3271-.042.0754-.0778.1548-.1186.231q-.1475.2758-.32.5375c-.0506.0771-.1118.151-.1585.23-.2079.3537.4576-.514.1635-.2089-.1935.2008-.3656.4227-.5611.623q-.28.287-.5792.5553c-.0892.08-.185.1549-.2723.237-.2712.2553.1829-.1683.2034-.1551-.0213-.0137-.6341.4077-.7082.45q-.2114.12-.4286.2283c-.0766.0382-.5787.27-.1626.0875.423-.1853-.4084.14-.5371.1814-.2812.0906-.566.1695-.8528.24q-.4347.1067-.8755.1858c-.1264.0226-.254.04-.38.0625-.4157.0749.6378-.0534-.0123-.007-.5185.037-1.0346.08-1.555.0714-.2492-.0042-.496-.0237-.7444-.0391-.2412-.0149-.5218-.1517.2453.0426-.1365-.0345-.2831-.0453-.4218-.0714a11.18,11.18,0,0,1-1.4493-.3761c-.1262-.042-.9011-.3542-.4031-.1335.44.1949.0909.04.0054-.0023-.1584-.0788-.3189-.1525-.4759-.2342a10.7708,10.7708,0,0,1-1.17-.7054,2.2161,2.2161,0,0,0-.3372-.2443c.0352-.0011.4935.4375.2673.1957-.184-.1967-.412-.3618-.6035-.5538-.1675-.1679-.32-.3475-.4808-.5206-.3839-.4116.3459.5713-.0259-.0458-.12-.1981-.2509-.3879-.3628-.5911-.0476-.0864-.09-.1756-.1369-.2624-.2913-.5388.0955-.0133.0564.1619.0289-.1294-.1789-.5325-.212-.6561a3.45,3.45,0,0,0-.1448-.6788c.0227.0393.0211.7.0607.3829a2.1016,2.1016,0,0,0-.0174-.3037c-.01-.3062-.0041-.6135-.0075-.92-.0111-1.0081-.0513-2.0169-.0269-3.025.006-.2447.0153-.4892.032-.7333.012-.1766.1009-.9688.0208-.3448-.0793.6187.0375-.14.078-.3129.0514-.2195.1242-.4317.1841-.6485.1833-.663-.3469.6112-.0075,0,.1164-.21.2228-.4229.3509-.6263.05-.0789.1051-.1548.1536-.2344.34-.5585-.37.418-.1053.1224.19-.2114.37-.43.568-.6339q.3274-.3366.6807-.6469a2.0374,2.0374,0,0,0,.2732-.234q-.4944.3741-.1955.1633.0973-.0693.1987-.1327a8.6916,8.6916,0,0,1,.84-.4777c.0222-.011.3291-.1625.3312-.1583q-.5654.2312-.2211.0972.1159-.0459.2338-.0865a12.92,12.92,0,0,1,1.9579-.5233c.1263-.0238.2529-.0446.3793-.0669.8191-.1441-.4691.027.0115.0009.3842-.0208.767-.0637,1.152-.08a3.3161,3.3161,0,0,0,0-6.6321Z" transform="translate(-66.454 -160.25)"/><path class="cls-4" d="M69.6905,684.7553H918.4c11.4611,0,22.9453.2122,34.405,0,.501-.0093,1.003,0,1.5042,0,4.3117,0,4.3189-6.701,0-6.701H105.6c-11.4611,0-22.9453-.2123-34.405,0-.501.0092-1.003,0-1.5042,0-4.3117,0-4.3189,6.701,0,6.701Z" transform="translate(-66.454 -160.25)"/></svg>