<svg xmlns="http://www.w3.org/2000/svg" viewBox="0 0 143.27796 143.27796"><defs><style>.cls-1{fill:#437687;}.cls-2{fill:#284666;}.cls-2,.cls-3{isolation:isolate;}.cls-3,.cls-4{fill:#fff;}</style></defs><g id="_1" data-name="1"><circle class="cls-1" cx="71.63898" cy="71.63898" r="67.83691"/><path class="cls-2" d="M71.639,143.278a71.639,71.639,0,1,1,71.639-71.639A71.72,71.72,0,0,1,71.639,143.278Zm0-141.67709A70.03811,70.03811,0,1,0,141.67708,71.639,70.11754,70.11754,0,0,0,71.639,1.60087Z"/><path class="cls-3" d="M71.639,135.67382A64.03484,64.03484,0,1,1,135.67382,71.639,64.1072,64.1072,0,0,1,71.639,135.67382Zm0-127.26925A63.23441,63.23441,0,1,0,134.87338,71.639,63.30624,63.30624,0,0,0,71.639,8.40457Z"/><path class="cls-4" d="M94.59626,41.798V58.10662H66.315V68.57049c2.35742-2.45117,6.69336-4.148,11.78418-4.148,14.23437,0,20.26758,10.93555,20.26758,22.436,0,14.80029-8.76758,23.8501-23.85059,23.8501-16.02539,0-25.26367-8.86133-25.35742-21.21045H67.16364c.2832,2.54541,2.07422,5.37353,6.59863,5.37353,4.61914,0,6.69336-3.48828,6.69336-8.2959,0-4.99609-2.54492-7.5415-6.97558-7.5415-3.583,0-5.5625,2.07373-5.93946,4.43066H49.53571V41.798Z"/></g></svg>