<svg id="Camada_2" data-name="Camada 2" xmlns="http://www.w3.org/2000/svg" viewBox="0 0 481.99858 481.99858"><defs><style>.cls-1{fill:#284666;}.cls-1,.cls-2{isolation:isolate;}.cls-2,.cls-3{fill:#fff;}</style></defs><path class="cls-1" d="M364.14111,512.44858A240.99933,240.99933,0,0,1,193.7286,101.037a240.99916,240.99916,0,1,1,340.82452,340.824A239.42192,239.42192,0,0,1,364.14111,512.44858Zm0-479.98522c-131.77724,0-238.98618,107.20845-238.98618,238.98568,0,131.77773,107.20894,238.98618,238.98618,238.98618S603.12679,403.22677,603.12679,271.449C603.12679,139.67181,495.91834,32.46336,364.14111,32.46336Z" transform="translate(-123.14157 -30.45)"/><circle class="cls-1" cx="240.99929" cy="240.99929" r="103.07567"/><path class="cls-1" d="M364.14087,380.30206A108.85277,108.85277,0,1,1,472.99363,271.44929,108.97587,108.97587,0,0,1,364.14087,380.30206Zm0-215.27307a106.4203,106.4203,0,1,0,106.4203,106.4203A106.541,106.541,0,0,0,364.14087,165.029Z" transform="translate(-123.14157 -30.45)"/><path class="cls-2" d="M364.14087,368.74785a97.29856,97.29856,0,1,1,97.29856-97.29856A97.40852,97.40852,0,0,1,364.14087,368.74785Zm0-193.38089a96.08233,96.08233,0,1,0,96.08233,96.08233A96.19147,96.19147,0,0,0,364.14087,175.367Z" transform="translate(-123.14157 -30.45)"/><path class="cls-3" d="M294.90624,256.68506H286.252v7.1001h7.73974v2.28515H286.252v7.31348h8.65429V275.669H283.479V254.39941h11.42724Z" transform="translate(-123.14157 -30.45)"/><path class="cls-3" d="M301.88134,254.43018v18.98388h7.43506V275.669h-10.208V254.43018Z" transform="translate(-123.14157 -30.45)"/><path class="cls-3" d="M323.69775,256.68506h-8.6543v7.1001h7.73975v2.28515h-7.73975v7.31348h8.6543V275.669H312.2705V254.39941h11.42725Z" transform="translate(-123.14157 -30.45)"/><path class="cls-3" d="M327.8999,254.58252h2.98632l7.80079,17.42969,7.80078-17.42969h2.95605V275.669h-2.773V259.94531L339.6621,275.669h-1.95019L330.67285,259.915V275.669H327.8999Z" transform="translate(-123.14157 -30.45)"/><path class="cls-3" d="M365.55956,256.68506h-8.65429v7.1001H364.645v2.28515h-7.73974v7.31348h8.65429V275.669H354.13232V254.39941h11.42724Z" transform="translate(-123.14157 -30.45)"/><path class="cls-3" d="M386.46093,254.39941V275.669h-2.773l-11.15283-16.91163V275.669H369.7622V254.39941h2.77295L383.688,271.28125V254.39941Z" transform="translate(-123.14157 -30.45)"/><path class="cls-3" d="M389.8706,254.43018h14.38281v2.25488h-5.79V275.669h-2.77295V256.68506H389.8706Z" transform="translate(-123.14157 -30.45)"/><path class="cls-3" d="M417.29247,275.88232a10.84947,10.84947,0,1,1,10.665-10.84814A10.47682,10.47682,0,0,1,417.29247,275.88232Zm0-2.40722c4.479,0,7.83106-3.26074,7.83106-8.44092,0-5.21045-3.35205-8.44043-7.83106-8.44043-4.47949,0-7.83154,3.23-7.83154,8.44043C409.46093,270.21436,412.813,273.4751,417.29247,273.4751Z" transform="translate(-123.14157 -30.45)"/><path class="cls-3" d="M438.34521,275.88232c-4.26611,0-7.28272-2.37695-7.34375-5.88134h2.95605c.18262,1.76757,1.43213,3.53515,4.3877,3.53515,2.68164,0,4.26611-1.52392,4.26611-3.53515,0-5.72852-11.48779-2.07178-11.48779-9.96387,0-3.5044,2.834-5.88135,7.03906-5.88135,4.05274,0,6.70362,2.22461,7.03858,5.45459h-3.04688c-.1831-1.43213-1.52344-3.04736-4.11377-3.07764-2.28515-.061-4.083,1.12745-4.083,3.4126,0,5.48535,11.457,2.07227,11.457,9.93408C445.41455,272.896,442.94628,275.88232,438.34521,275.88232Z" transform="translate(-123.14157 -30.45)"/></svg>