<svg id="WhiteCoin" xmlns="http://www.w3.org/2000/svg" width="93.6" height="110.954" viewBox="0 0 93.6 110.954">
  <path id="Caminho_12588" data-name="Caminho 12588" d="M90.226,54.241c-7.105,3.446-16.793,5.57-27.475,5.57-9.722,0-18.631-1.742-25.522-4.656,1.545,3.111,4.9,5.99,9.684,8.313,6.734,3.273,16.142,5.362,26.563,5.362,10.447,0,19.9-2.09,26.644-5.362s10.641-7.656,10.641-12.22c0-4.123-3.19-8.082-8.771-11.224h0v.208C101.989,45.91,97.331,50.8,90.226,54.241Z" transform="translate(-17.2 -8.522)" fill="#fff"/>
  <path id="Caminho_12589" data-name="Caminho 12589" d="M36.1,38.283c6.733,3.272,16.182,5.362,26.6,5.362,10.447,0,19.863-2.09,26.6-5.362s10.642-7.656,10.642-12.22-3.9-8.949-10.642-12.221-16.156-5.32-26.6-5.32c-10.421,0-19.87,2.049-26.6,5.32S25.5,21.5,25.5,26.063,29.37,35.012,36.1,38.283Z" transform="translate(-17.2 -8.522)" fill="#fff"/>
  <path id="Caminho_12590" data-name="Caminho 12590" d="M36.229,57.4v0Z" transform="translate(-17.2 -8.522)" fill="#fff"/>
  <path id="Caminho_12591" data-name="Caminho 12591" d="M95.637,101.771c-7.1,3.446-16.768,5.528-27.475,5.528-10.568,0-20.115-2.065-27.185-5.445h-.042a59.287,59.287,0,0,1-10.018-2.661v2.7c0,4.562,3.922,8.949,10.684,12.221s16.182,5.362,26.6,5.362,19.857-2.09,26.6-5.362,10.683-7.658,10.683-12.221V93.832C103.49,96.932,100.039,99.634,95.637,101.771ZM43.8,111.839a1,1,0,1,1-2,0v-6.526a1.03,1.03,0,0,1,.79-1,1.059,1.059,0,0,1,.124-.041h0a1.042,1.042,0,0,1,1.081,1.04Zm15.009,4.2a1,1,0,0,1-1.995,0V109.47a1.03,1.03,0,0,1,.79-1h.082a1.043,1.043,0,0,1,1.123,1Zm16.834,1a1,1,0,1,1-2,0v-7.108a1.028,1.028,0,0,1,.789-1,.914.914,0,0,1,.125-.041h0a1.041,1.041,0,0,1,1.081,1.039Zm16-3.409a1,1,0,1,1-1.994,0v-7.108a1.027,1.027,0,0,1,.789-1,.944.944,0,0,1,.124-.041h0a1.041,1.041,0,0,1,1.081,1.039Zm10.475-6.035a1,1,0,0,1-2,0v-7.109a1.029,1.029,0,0,1,.79-1h.082a1.042,1.042,0,0,1,1.123,1Z" transform="translate(-17.2 -8.522)" fill="#fff"/>
  <path id="Caminho_12592" data-name="Caminho 12592" d="M100.992,65.257c-7.1,3.446-16.809,5.57-27.518,5.57-10.683,0-20.342-2.124-27.435-5.57-4.372-2.124-7.8-4.788-9.809-7.854v8.02c0,4.562,3.922,8.948,10.684,12.221s16.224,5.362,26.643,5.362,19.857-2.09,26.6-5.362S110.8,69.985,110.8,65.423V57.4C108.8,60.469,105.368,63.133,100.992,65.257Zm-51.873,10.2a1,1,0,1,1-1.995,0V68.932a1.029,1.029,0,0,1,.789-1,1.138,1.138,0,0,1,.125-.041h.083a1.039,1.039,0,0,1,1,1.04Zm15.007,4.157a1,1,0,0,1-2,0V73.088a1.029,1.029,0,0,1,.789-1,.96.96,0,0,1,.125-.041h.083a1.039,1.039,0,0,1,1,1.039ZM81,80.654a1,1,0,0,1-2,0V73.546a1.031,1.031,0,0,1,.79-1,1.189,1.189,0,0,1,.124-.04H80a1.037,1.037,0,0,1,1,1.039Zm15.961-3.409a1,1,0,0,1-2,0V70.137a1.031,1.031,0,0,1,.79-1,1.118,1.118,0,0,1,.124-.04h.084a1.038,1.038,0,0,1,1,1.039Zm10.473-6.126a1,1,0,0,1-2,0V64.01a1.028,1.028,0,0,1,.789-1,.961.961,0,0,1,.125-.041h.083a1.039,1.039,0,0,1,1,1.039Z" transform="translate(-17.2 -8.522)" fill="#fff"/>
  <path id="Caminho_12593" data-name="Caminho 12593" d="M36.1,52.454c6.761,3.272,16.225,5.362,26.644,5.362s19.857-2.09,26.6-5.362,10.65-7.654,10.65-12.221V32.211c-2,3.067-5.434,5.731-9.81,7.856-7.1,3.446-16.769,5.57-27.475,5.57-10.684,0-20.383-2.124-27.475-5.57-4.374-2.126-7.818-4.788-9.811-7.856h0v8.022C25.422,44.794,29.344,49.181,36.1,52.454ZM94.674,38.82a1,1,0,0,1,.79-1,.918.918,0,0,1,.125-.042h.083a1,1,0,0,1,1,1.039v7.108a1,1,0,0,1-2,0ZM84.2,44.847a1,1,0,0,1,.79-1,.917.917,0,0,1,.125-.042H85.2a1,1,0,0,1,1,1.039v7.109a1,1,0,0,1-2,0Zm-16,3.409a1,1,0,0,1,.789-1,.931.931,0,0,1,.126-.042H69.2a1,1,0,0,1,1,1.039v7.109a1,1,0,0,1-2,0ZM51.364,47.8a1,1,0,0,1,.789-1,.875.875,0,0,1,.125-.042h.083a1,1,0,0,1,1,1.039v6.526a1,1,0,1,1-1.995,0ZM36.356,43.642a1,1,0,0,1,.789-1,.931.931,0,0,1,.126-.042h.082a1,1,0,0,1,1,1.039v6.526a1,1,0,1,1-1.995,0Z" transform="translate(-17.2 -8.522)" fill="#fff"/>
  <path id="Caminho_12594" data-name="Caminho 12594" d="M82,97.488c-7.105,3.446-16.793,5.57-27.475,5.57-1.579,0-3.124-.036-4.656-.125A69.881,69.881,0,0,0,68.16,105.3c10.446,0,19.9-2.09,26.644-5.362s10.6-7.656,10.6-12.22c0-2.881-1.534-5.686-4.364-8.19h0a48.665,48.665,0,0,1-7.275,2.786V83.48C93.764,89.157,89.106,94.043,82,97.488Z" transform="translate(-17.2 -8.522)" fill="#fff"/>
  <path id="Caminho_12595" data-name="Caminho 12595" d="M81.128,95.7c6.748-3.272,10.642-7.658,10.642-12.22V82.9c-1.076.281-2.194.518-3.326.748v5.528a1,1,0,1,1-1.994,0v-5.2a73.417,73.417,0,0,1-8.272,1,68.434,68.434,0,0,1-23.693,3.907C43.8,88.883,34.1,86.8,27.01,83.355c-4.375-2.127-7.818-4.816-9.81-7.9h0V83.48c0,4.561,3.922,8.948,10.684,12.221s16.224,5.362,26.643,5.362S74.382,98.973,81.128,95.7Zm-5.153-7.607a1.029,1.029,0,0,1,.789-1,1.062,1.062,0,0,1,.208-.041h0a1.038,1.038,0,0,1,1,1.039V95.2a1,1,0,0,1-2,0Zm-16,3.409a1.027,1.027,0,0,1,.789-1,1.049,1.049,0,0,1,.208-.041h0a1.037,1.037,0,0,1,1,1.039v7.109a1,1,0,1,1-1.994,0ZM30.124,93.416a1,1,0,0,1-2,0V86.889a1.029,1.029,0,0,1,.79-1,.923.923,0,0,1,.208-.041h0a1.038,1.038,0,0,1,1,1.039Zm15.009,4.157a1,1,0,0,1-1.994,0V91.046a1.027,1.027,0,0,1,.789-1h.083a1.04,1.04,0,0,1,1.122,1Z" transform="translate(-17.2 -8.522)" fill="#fff"/>
  <path id="Caminho_12596" data-name="Caminho 12596" d="M27.876,81.427c6.733,3.272,16.183,5.362,26.6,5.362A71.746,71.746,0,0,0,70.815,84.96c-9.591-.331-18.275-2.382-24.775-5.528-7.117-3.446-11.8-8.329-11.8-14.008V54.533a45.148,45.148,0,0,0-6.359,2.453c-6.734,3.271-10.6,7.656-10.6,12.22S21.142,78.155,27.876,81.427Z" transform="translate(-17.2 -8.522)" fill="#fff"/>
</svg>
